<svg xmlns="http://www.w3.org/2000/svg" xmlns:lucid="lucid" width="383" height="342.5"><g transform="translate(-278.5 -459)" lucid:page-tab-id="0_0"><path d="M320 640a20 20 0 0 1 20-20h60a20 20 0 0 1 20 20v20a20 20 0 0 1-20 20h-60a20 20 0 0 1-20-20z" stroke="#cc4e00" stroke-width="3" fill="url(#a)"/><path d="M540 640a20 20 0 0 1 20-20h60a20 20 0 0 1 20 20v20a20 20 0 0 1-20 20h-60a20 20 0 0 1-20-20z" stroke="#008573" stroke-width="3" fill="url(#b)"/><path d="M400 520a20 20 0 0 1 20-20h120a20 20 0 0 1 20 20v17.67a20 20 0 0 1-20 20H420a20 20 0 0 1-20-20z" stroke="#000" stroke-width="3" fill="url(#c)"/><path d="M480.88 559.64l92.84 50.08" stroke="#000" stroke-width="2" fill="none"/><path d="M480.44 560.5l-2.5-1.33h3.23z" stroke="#000" stroke-width=".05"/><path d="M587.15 616.96l-14.75-2.7 4.4-8.15z" stroke="#000" stroke-width="2"/><path d="M479.12 559.64l-92.84 50.08" stroke="#000" stroke-width="2" fill="none"/><path d="M479.56 560.5l-.73-1.33h3.22z" stroke="#000" stroke-width=".05"/><path d="M372.85 616.96l10.35-10.85 4.4 8.17z" stroke="#000" stroke-width="2"/><path d="M280 760a20 20 0 0 1 20-20 20 20 0 0 1 20 20v20a20 20 0 0 1-20 20 20 20 0 0 1-20-20z" stroke="#e81313" stroke-width="3" fill="url(#d)"/><path d="M620 760a20 20 0 0 1 20-20 20 20 0 0 1 20 20v20a20 20 0 0 1-20 20 20 20 0 0 1-20-20z" stroke="#1071e5" stroke-width="3" fill="url(#e)"/><path d="M520 760a20 20 0 0 1 20-20 20 20 0 0 1 20 20v20a20 20 0 0 1-20 20 20 20 0 0 1-20-20z" stroke="#008a0e" stroke-width="3" fill="url(#f)"/><path d="M420 760a20 20 0 0 1 20-20 20 20 0 0 1 20 20v20a20 20 0 0 1-20 20 20 20 0 0 1-20-20z" stroke="#fcce14" stroke-width="3" fill="url(#g)"/><path d="M350 760a20 20 0 0 1 20-20 20 20 0 0 1 20 20v20a20 20 0 0 1-20 20 20 20 0 0 1-20-20z" stroke="#d916a8" stroke-width="3" fill="url(#h)"/><path d="M590.66 682.25l37.14 42.34" stroke="#008573" stroke-width="2" fill="none"/><path d="M591.4 681.63l-1.46 1.28-1.24-1.4h2.6z" stroke="#008573" stroke-width=".05" fill="#008573"/><path d="M637.87 736.06l-12.9-7.66 6.97-6.12z" stroke="#008573" stroke-width="2" fill="#008573"/><path d="M589.34 682.25L552.2 724.6" stroke="#008573" stroke-width="2" fill="none"/><path d="M590.06 682.9l-1.47-1.27.1-.13h2.6z" stroke="#008573" stroke-width=".05" fill="#008573"/><path d="M542.13 736.06l5.93-13.78 6.97 6.12z" stroke="#008573" stroke-width="2" fill="#008573"/><path d="M370.77 682.13l54.88 44.68" stroke="#cc4e00" stroke-width="2" fill="none"/><path d="M370.18 682.9l-1.72-1.4h2.86z" stroke="#cc4e00" stroke-width=".05" fill="#cc4e00"/><path d="M437.5 736.45l-14-5.4 5.86-7.2z" stroke="#cc4e00" stroke-width="2" fill="#cc4e00"/><path d="M370 682.5V720" stroke="#cc4e00" stroke-width="2" fill="none"/><path d="M370.98 682.53h-1.96v-1.03h1.96z" stroke="#cc4e00" stroke-width=".05" fill="#cc4e00"/><path d="M370 735.26L365.37 721h9.26z" stroke="#cc4e00" stroke-width="2" fill="#cc4e00"/><path d="M369.23 682.13l-54.88 44.68" stroke="#cc4e00" stroke-width="2" fill="none"/><path d="M369.82 682.9l-1.14-1.4h2.86z" stroke="#cc4e00" stroke-width=".05" fill="#cc4e00"/><path d="M302.5 736.45l8.14-12.6 5.86 7.2z" stroke="#cc4e00" stroke-width="2" fill="#cc4e00"/><path d="M480 461v19M480 461.03V460" stroke="#000" stroke-width="2" fill="none"/><path d="M480 495.26L475.37 481h9.26z" stroke="#000" stroke-width="2"/><defs><linearGradient gradientUnits="userSpaceOnUse" id="a" x1="320" y1="680" x2="320" y2="620"><stop offset="17.5%" stop-color="#ced4db"/><stop offset="23.93%" stop-color="#fff"/><stop offset="44.29%" stop-color="#fff"/><stop offset="52.14%" stop-color="#cfe4ff"/><stop offset="71.74%" stop-color="#cfe4ff"/><stop offset="84.42%" stop-color="#c3f7c8"/></linearGradient><linearGradient gradientUnits="userSpaceOnUse" id="b" x1="540" y1="680" x2="540" y2="620"><stop offset="17.5%" stop-color="#ced4db"/><stop offset="23.93%" stop-color="#fff"/><stop offset="44.29%" stop-color="#fff"/><stop offset="52.14%" stop-color="#cfe4ff"/><stop offset="71.74%" stop-color="#cfe4ff"/><stop offset="84.42%" stop-color="#c3f7c8"/></linearGradient><linearGradient gradientUnits="userSpaceOnUse" id="c" x1="400" y1="500" x2="400" y2="557.67"><stop offset="56.16%" stop-color="#c3f7c8"/><stop offset="75.72%" stop-color="#cfe4ff"/></linearGradient><linearGradient gradientUnits="userSpaceOnUse" id="d" x1="280" y1="800" x2="280" y2="740"><stop offset="27.9%" stop-color="#ced4db"/><stop offset="36.07%" stop-color="#fff"/><stop offset="66.79%" stop-color="#fff"/><stop offset="75.36%" stop-color="#cfe4ff"/></linearGradient><linearGradient gradientUnits="userSpaceOnUse" id="e" x1="620" y1="800" x2="620" y2="740"><stop offset="27.9%" stop-color="#ced4db"/><stop offset="36.07%" stop-color="#fff"/><stop offset="66.79%" stop-color="#fff"/><stop offset="75.36%" stop-color="#cfe4ff"/></linearGradient><linearGradient gradientUnits="userSpaceOnUse" id="f" x1="520" y1="800" x2="520" y2="740"><stop offset="27.9%" stop-color="#ced4db"/><stop offset="36.07%" stop-color="#fff"/><stop offset="66.79%" stop-color="#fff"/><stop offset="75.36%" stop-color="#cfe4ff"/></linearGradient><linearGradient gradientUnits="userSpaceOnUse" id="g" x1="420" y1="800" x2="420" y2="740"><stop offset="27.9%" stop-color="#ced4db"/><stop offset="36.07%" stop-color="#fff"/><stop offset="66.79%" stop-color="#fff"/><stop offset="75.36%" stop-color="#cfe4ff"/></linearGradient><linearGradient gradientUnits="userSpaceOnUse" id="h" x1="350" y1="800" x2="350" y2="740"><stop offset="27.9%" stop-color="#ced4db"/><stop offset="36.07%" stop-color="#fff"/><stop offset="66.79%" stop-color="#fff"/><stop offset="75.36%" stop-color="#cfe4ff"/></linearGradient></defs></g></svg>