<svg xmlns="http://www.w3.org/2000/svg" xmlns:lucid="lucid" width="383" height="303"><g transform="translate(-518.5 -498.50000000000006)" lucid:page-tab-id="0_0"><path d="M560 640a20 20 0 0 1 20-20h60a20 20 0 0 1 20 20v20a20 20 0 0 1-20 20h-60a20 20 0 0 1-20-20z" stroke="#000" stroke-width="3" fill="url(#a)"/><path d="M780 640a20 20 0 0 1 20-20h60a20 20 0 0 1 20 20v20a20 20 0 0 1-20 20h-60a20 20 0 0 1-20-20z" stroke="#000" stroke-width="3" fill="url(#b)"/><path d="M640 520a20 20 0 0 1 20-20h120a20 20 0 0 1 20 20v17.67a20 20 0 0 1-20 20H660a20 20 0 0 1-20-20z" stroke="#000" stroke-width="3" fill="url(#c)"/><path d="M733.4 564.13l85.1 45.9M731.5 567.65l85.1 45.9M732.26 577.14l-10.5-17.02 20-.58m-20 .58l7.48 4.03M817.74 600.53l10.5 17.02-20 .58m20-.58l-7.48-4.03M708.5 567.65l-85.1 45.9M706.6 564.13l-85.1 45.9M698.25 559.54l20 .58-10.5 17.02m10.5-17.02l-7.5 4.03M631.75 618.13l-20-.58 10.5-17.02m-10.5 17.02l7.5-4.03" stroke="#000" stroke-width="2" fill="none"/><path d="M520 760a20 20 0 0 1 20-20 20 20 0 0 1 20 20v20a20 20 0 0 1-20 20 20 20 0 0 1-20-20z" stroke="#000" stroke-width="3" fill="url(#d)"/><path d="M860 760a20 20 0 0 1 20-20 20 20 0 0 1 20 20v20a20 20 0 0 1-20 20 20 20 0 0 1-20-20z" stroke="#000" stroke-width="3" fill="url(#e)"/><path d="M760 760a20 20 0 0 1 20-20 20 20 0 0 1 20 20v20a20 20 0 0 1-20 20 20 20 0 0 1-20-20z" stroke="#000" stroke-width="3" fill="url(#f)"/><path d="M660 760a20 20 0 0 1 20-20 20 20 0 0 1 20 20v20a20 20 0 0 1-20 20 20 20 0 0 1-20-20z" stroke="#000" stroke-width="3" fill="url(#g)"/><path d="M590 760a20 20 0 0 1 20-20 20 20 0 0 1 20 20v20a20 20 0 0 1-20 20 20 20 0 0 1-20-20z" stroke="#000" stroke-width="3" fill="url(#h)"/><path d="M840.84 690.83l31.32 35.7M837.84 693.46l31.32 35.7M835.22 702.62l-3.9-19.62 18.94 6.43M831.32 683l5.6 6.4M874.78 717.38l3.9 19.6-18.94-6.4m18.94 6.4l-5.6-6.38M822.16 693.46l-31.32 35.7M819.16 690.83l-31.32 35.7M809.74 689.43l18.94-6.43-3.9 19.62m3.9-19.62l-5.6 6.4M800.26 730.57L781.32 737l3.9-19.62m-3.9 19.6l5.6-6.38M622.24 688.9l48.04 39.1M619.72 692l48.04 39.1M618.67 701.45l-7.12-18.7 19.75 3.2m-19.75-3.2l6.6 5.38M671.33 718.54l7.12 18.7-19.75-3.2m19.75 3.2l-6.6-5.37M612 695.66v28.68M608 695.66v28.68" stroke="#000" stroke-width="2" fill="none"/><path d="M600 700.82l10-17.32 10 17.32m-10-17.32v8.5M620 719.17l-10 17.33-10-17.33m10 17.33V728M600.28 692l-48.04 39.1M597.76 688.9L549.72 728" stroke="#000" stroke-width="2" fill="none"/><path d="M588.7 685.94l19.75-3.18-7.12 18.7m7.12-18.7l-6.6 5.37M561.3 734.05l-19.75 3.18 7.12-18.7m-7.12 18.7l6.6-5.36" stroke="#000" stroke-width="2" fill="none"/><defs><linearGradient gradientUnits="userSpaceOnUse" id="a" x1="560" y1="680" x2="560" y2="620"><stop offset="17.5%" stop-color="#ced4db"/><stop offset="23.93%" stop-color="#fff"/><stop offset="44.29%" stop-color="#fff"/><stop offset="52.14%" stop-color="#cfe4ff"/><stop offset="71.74%" stop-color="#cfe4ff"/><stop offset="84.42%" stop-color="#c3f7c8"/></linearGradient><linearGradient gradientUnits="userSpaceOnUse" id="b" x1="780" y1="680" x2="780" y2="620"><stop offset="17.5%" stop-color="#ced4db"/><stop offset="23.93%" stop-color="#fff"/><stop offset="44.29%" stop-color="#fff"/><stop offset="52.14%" stop-color="#cfe4ff"/><stop offset="71.74%" stop-color="#cfe4ff"/><stop offset="84.42%" stop-color="#c3f7c8"/></linearGradient><linearGradient gradientUnits="userSpaceOnUse" id="c" x1="640" y1="500" x2="640" y2="557.67"><stop offset="56.16%" stop-color="#c3f7c8"/><stop offset="75.72%" stop-color="#cfe4ff"/></linearGradient><linearGradient gradientUnits="userSpaceOnUse" id="d" x1="520" y1="800" x2="520" y2="740"><stop offset="27.9%" stop-color="#ced4db"/><stop offset="36.07%" stop-color="#fff"/><stop offset="66.79%" stop-color="#fff"/><stop offset="75.36%" stop-color="#cfe4ff"/></linearGradient><linearGradient gradientUnits="userSpaceOnUse" id="e" x1="860" y1="800" x2="860" y2="740"><stop offset="27.9%" stop-color="#ced4db"/><stop offset="36.07%" stop-color="#fff"/><stop offset="66.79%" stop-color="#fff"/><stop offset="75.36%" stop-color="#cfe4ff"/></linearGradient><linearGradient gradientUnits="userSpaceOnUse" id="f" x1="760" y1="800" x2="760" y2="740"><stop offset="27.9%" stop-color="#ced4db"/><stop offset="36.07%" stop-color="#fff"/><stop offset="66.79%" stop-color="#fff"/><stop offset="75.36%" stop-color="#cfe4ff"/></linearGradient><linearGradient gradientUnits="userSpaceOnUse" id="g" x1="660" y1="800" x2="660" y2="740"><stop offset="27.9%" stop-color="#ced4db"/><stop offset="36.07%" stop-color="#fff"/><stop offset="66.79%" stop-color="#fff"/><stop offset="75.36%" stop-color="#cfe4ff"/></linearGradient><linearGradient gradientUnits="userSpaceOnUse" id="h" x1="590" y1="800" x2="590" y2="740"><stop offset="27.9%" stop-color="#ced4db"/><stop offset="36.07%" stop-color="#fff"/><stop offset="66.79%" stop-color="#fff"/><stop offset="75.36%" stop-color="#cfe4ff"/></linearGradient></defs></g></svg>