<svg xmlns="http://www.w3.org/2000/svg" xmlns:xlink="http://www.w3.org/1999/xlink" xmlns:lucid="lucid" width="243" height="303.58"><g transform="translate(-398.5 -398.5)" lucid:page-tab-id="0_0"><path d="M589.92 604.7l.08-42.2" stroke="#82755b" stroke-width="2" fill="none"/><path d="M589.9 619.97l-4.62-14.27h9.27z" stroke="#82755b" stroke-width="2" fill="#82755b"/><path d="M590.97 562.53h-1.95v-1.03H591z" stroke="#82755b" stroke-width=".05" fill="#82755b"/><path d="M480 601.5v-59" stroke="#1071e5" stroke-width="2" fill="none"/><path d="M480 616.76l-4.63-14.26h9.26z" stroke="#1071e5" stroke-width="2" fill="#1071e5"/><path d="M480.98 542.53h-1.96v-1.03h1.96z" stroke="#1071e5" stroke-width=".05" fill="#1071e5"/><path d="M564.07 604.7l.12-20.7" stroke="#008a0e" stroke-width="2" fill="none"/><path d="M563.98 619.97l-4.55-14.3 9.27.06z" stroke="#008a0e" stroke-width="2" fill="#008a0e"/><path d="M565.16 584.03h-1.95l.02-1.03h1.95z" stroke="#008a0e" stroke-width=".05" fill="#008a0e"/><path d="M440 420a20 20 0 0 1 20-20h160a20 20 0 0 1 20 20v100a20 20 0 0 1-20 20H460a20 20 0 0 1-20-20z" stroke="#1071e5" stroke-width="3" fill="url(#a)"/><path d="M616.18 604.7v-62.2" stroke="#1071e5" stroke-width="2" fill="none"/><path d="M616.18 619.97l-4.64-14.26h9.27z" stroke="#1071e5" stroke-width="2" fill="#1071e5"/><path d="M617.15 542.53h-1.95v-1.03h1.95z" stroke="#1071e5" stroke-width=".05" fill="#1071e5"/><path d="M420 439.25a20 20 0 0 1 20-20h160a20 20 0 0 1 20 20V540a20 20 0 0 1-20 20H440a20 20 0 0 1-20-20z" stroke="#82755b" stroke-width="3" fill="url(#b)"/><path d="M440 639.42a20 20 0 0 1 20-20h40a20 20 0 0 1 20 20v2a20 20 0 0 1-20 20h-40a20 20 0 0 1-20-20z" stroke="#1071e5" stroke-width="3" fill="#ced4db"/><use xlink:href="#c" transform="matrix(1,0,0,1,445,624.4166916666572) translate(5.412407407407409 23.333333333333336)"/><use xlink:href="#d" transform="matrix(1,0,0,1,445,624.4166916666572) translate(49.782777777777774 23.333333333333336)"/><path d="M460 618.58V562.5" stroke="#82755b" stroke-width="2" fill="none"/><path d="M460 633.85l-4.63-14.27h9.26z" stroke="#82755b" stroke-width="2" fill="#82755b"/><path d="M460.98 562.53h-1.96v-1.03h1.96z" stroke="#82755b" stroke-width=".05" fill="#82755b"/><path d="M539.88 644.7a20 20 0 0 1 20-20h60a20 20 0 0 1 20 20v29.76a20 20 0 0 1-20 20h-60a20 20 0 0 1-20-20z" stroke="#000" stroke-width="3" fill="#ced4db"/><use xlink:href="#e" transform="matrix(1,0,0,1,544.8811753390363,629.7083458333286) translate(2.074074074074076 25.083333333333336)"/><use xlink:href="#f" transform="matrix(1,0,0,1,544.8811753390363,629.7083458333286) translate(26.52351851851852 57.083333333333336)"/><path d="M420 658.58a20 20 0 0 1 20-20h40a20 20 0 0 1 20 20v2a20 20 0 0 1-20 20h-40a20 20 0 0 1-20-20z" stroke="#82755b" stroke-width="3" fill="#ced4db"/><use xlink:href="#c" transform="matrix(1,0,0,1,425,643.5833083333428) translate(5.412407407407409 23.333333333333336)"/><use xlink:href="#g" transform="matrix(1,0,0,1,425,643.5833083333428) translate(49.782777777777774 23.333333333333336)"/><path d="M400 678.58a20 20 0 0 1 20-20h40a20 20 0 0 1 20 20v2a20 20 0 0 1-20 20h-40a20 20 0 0 1-20-20z" stroke="#008a0e" stroke-width="3" fill="#ced4db"/><use xlink:href="#c" transform="matrix(1,0,0,1,405,663.5833083333428) translate(5.412407407407409 23.333333333333336)"/><use xlink:href="#h" transform="matrix(1,0,0,1,405,663.5833083333428) translate(49.782777777777774 23.333333333333336)"/><path d="M440 638.58V584" stroke="#008a0e" stroke-width="2" fill="none"/><path d="M440 653.85l-4.63-14.27h9.26z" stroke="#008a0e" stroke-width="2" fill="#008a0e"/><path d="M440.98 584.03h-1.96V583h1.96z" stroke="#008a0e" stroke-width=".05" fill="#008a0e"/><path d="M400 460a20 20 0 0 1 20-20h160a20 20 0 0 1 20 20v101.5a20 20 0 0 1-20 20H420a20 20 0 0 1-20-20z" stroke="#008a0e" stroke-width="3" fill="url(#i)"/><g><use xlink:href="#j" transform="matrix(1,0,0,1,405,445) translate(48.37037037037037 70.83333333333334)"/><use xlink:href="#h" transform="matrix(1,0,0,1,405,445) translate(126.81481481481481 70.83333333333334)"/></g><defs><linearGradient gradientUnits="userSpaceOnUse" id="a" x1="440" y1="540" x2="440" y2="400"><stop offset="19.93%" stop-color="#fff"/><stop offset="27.17%" stop-color="#cfe4ff"/><stop offset="68.12%" stop-color="#cfe4ff"/><stop offset="75%" stop-color="#c3f7c8"/></linearGradient><linearGradient gradientUnits="userSpaceOnUse" id="b" x1="420" y1="560" x2="420" y2="419.25"><stop offset="19.93%" stop-color="#fff"/><stop offset="27.17%" stop-color="#cfe4ff"/><stop offset="68.12%" stop-color="#cfe4ff"/><stop offset="75%" stop-color="#c3f7c8"/></linearGradient><path d="M30-248c118-7 216 8 213 122C240-48 200 0 122 0H30v-248zM63-27c89 8 146-16 146-99s-60-101-146-95v194" id="k"/><path d="M160-131c35 5 61 23 61 61C221 17 115-2 30 0v-248c76 3 177-17 177 60 0 33-19 50-47 57zm-97-11c50-1 110 9 110-42 0-47-63-36-110-37v79zm0 115c55-2 124 14 124-45 0-56-70-42-124-44v89" id="l"/><g id="c"><use transform="matrix(0.07407407407407408,0,0,0.07407407407407408,0,0)" xlink:href="#k"/><use transform="matrix(0.07407407407407408,0,0,0.07407407407407408,19.185185185185187,0)" xlink:href="#l"/></g><path d="M126-127c33 6 58 20 58 59 0 88-139 92-164 29-3-8-5-16-6-25l32-3c6 27 21 44 54 44 32 0 52-15 52-46 0-38-36-46-79-43v-28c39 1 72-4 72-42 0-27-17-43-46-43-28 0-47 15-49 41l-32-3c6-42 35-63 81-64 48-1 79 21 79 65 0 36-21 52-52 59" id="m"/><use transform="matrix(0.07407407407407408,0,0,0.07407407407407408,0,0)" xlink:href="#m" id="d"/><path d="M185-189c-5-48-123-54-124 2 14 75 158 14 163 119 3 78-121 87-175 55-17-10-28-26-33-46l33-7c5 56 141 63 141-1 0-78-155-14-162-118-5-82 145-84 179-34 5 7 8 16 11 25" id="n"/><path d="M106-169C34-169 62-67 57 0H25v-261h32l-1 103c12-21 28-36 61-36 89 0 53 116 60 194h-32v-121c2-32-8-49-39-48" id="o"/><path d="M141-36C126-15 110 5 73 4 37 3 15-17 15-53c-1-64 63-63 125-63 3-35-9-54-41-54-24 1-41 7-42 31l-33-3c5-37 33-52 76-52 45 0 72 20 72 64v82c-1 20 7 32 28 27v20c-31 9-61-2-59-35zM48-53c0 20 12 33 32 33 41-3 63-29 60-74-43 2-92-5-92 41" id="p"/><path d="M114-163C36-179 61-72 57 0H25l-1-190h30c1 12-1 29 2 39 6-27 23-49 58-41v29" id="q"/><path d="M100-194c63 0 86 42 84 106H49c0 40 14 67 53 68 26 1 43-12 49-29l28 8c-11 28-37 45-77 45C44 4 14-33 15-96c1-61 26-98 85-98zm52 81c6-60-76-77-97-28-3 7-6 17-6 28h103" id="r"/><path d="M85-194c31 0 48 13 60 33l-1-100h32l1 261h-30c-2-10 0-23-3-31C134-8 116 4 85 4 32 4 16-35 15-94c0-66 23-100 70-100zm9 24c-40 0-46 34-46 75 0 40 6 74 45 74 42 0 51-32 51-76 0-42-9-74-50-73" id="s"/><g id="e"><use transform="matrix(0.07407407407407408,0,0,0.07407407407407408,0,0)" xlink:href="#n"/><use transform="matrix(0.07407407407407408,0,0,0.07407407407407408,17.77777777777778,0)" xlink:href="#o"/><use transform="matrix(0.07407407407407408,0,0,0.07407407407407408,32.592592592592595,0)" xlink:href="#p"/><use transform="matrix(0.07407407407407408,0,0,0.07407407407407408,47.40740740740741,0)" xlink:href="#q"/><use transform="matrix(0.07407407407407408,0,0,0.07407407407407408,56.22222222222223,0)" xlink:href="#r"/><use transform="matrix(0.07407407407407408,0,0,0.07407407407407408,71.03703703703704,0)" xlink:href="#s"/></g><g id="f"><use transform="matrix(0.07407407407407408,0,0,0.07407407407407408,0,0)" xlink:href="#k"/><use transform="matrix(0.07407407407407408,0,0,0.07407407407407408,19.185185185185187,0)" xlink:href="#l"/></g><path d="M101-251c82-7 93 87 43 132L82-64C71-53 59-42 53-27h129V0H18c2-99 128-94 128-182 0-28-16-43-45-43s-46 15-49 41l-32-3c6-41 34-60 81-64" id="t"/><use transform="matrix(0.07407407407407408,0,0,0.07407407407407408,0,0)" xlink:href="#t" id="g"/><path d="M27 0v-27h64v-190l-56 39v-29l58-41h29v221h61V0H27" id="u"/><use transform="matrix(0.07407407407407408,0,0,0.07407407407407408,0,0)" xlink:href="#u" id="h"/><linearGradient gradientUnits="userSpaceOnUse" id="i" x1="400" y1="581.5" x2="400" y2="440"><stop offset="19.93%" stop-color="#fff"/><stop offset="27.17%" stop-color="#cfe4ff"/><stop offset="68.12%" stop-color="#cfe4ff"/><stop offset="75%" stop-color="#c3f7c8"/></linearGradient><g id="j"><use transform="matrix(0.07407407407407408,0,0,0.07407407407407408,0,0)" xlink:href="#n"/><use transform="matrix(0.07407407407407408,0,0,0.07407407407407408,17.77777777777778,0)" xlink:href="#o"/><use transform="matrix(0.07407407407407408,0,0,0.07407407407407408,32.592592592592595,0)" xlink:href="#p"/><use transform="matrix(0.07407407407407408,0,0,0.07407407407407408,47.40740740740741,0)" xlink:href="#q"/><use transform="matrix(0.07407407407407408,0,0,0.07407407407407408,56.22222222222223,0)" xlink:href="#s"/></g></defs></g></svg>