<svg xmlns="http://www.w3.org/2000/svg" xmlns:xlink="http://www.w3.org/1999/xlink" xmlns:lucid="lucid" width="1505.81" height="388.67"><g transform="translate(-318.5 -252.8333333333333)" lucid:page-tab-id="0_0"><path d="M700 520a20 20 0 0 1 20-20h220a20 20 0 0 1 20 20v100a20 20 0 0 1-20 20H720a20 20 0 0 1-20-20z" stroke="#000" stroke-width="3" fill="url(#a)"/><use xlink:href="#b" transform="matrix(1,0,0,1,705,505) translate(80.62962962962962 70.08333333333334)"/><path d="M700 320a20 20 0 0 1 20-20h220a20 20 0 0 1 20 20v1.17a20 20 0 0 1-20 20H720a20 20 0 0 1-20-20z" stroke="#000" stroke-width="3" fill="#e8e2c8"/><use xlink:href="#c" transform="matrix(1,0,0,1,705,305) translate(93.87228395061727 21.555555555555557)"/><path d="M1080 320a20 20 0 0 1 20-20h120a20 20 0 0 1 20 20v1.17a20 20 0 0 1-20 20h-120a20 20 0 0 1-20-20z" stroke="#000" stroke-width="3" fill="#e8e2c8"/><use xlink:href="#d" transform="matrix(1,0,0,1,1085,305) translate(7.918580246913573 21.555555555555557)"/><use xlink:href="#e" transform="matrix(1,0,0,1,1085,305) translate(79.825987654321 21.555555555555557)"/><path d="M830 380v-36.33" stroke="#000" stroke-width="2" fill="none"/><path d="M830 395.26L825.37 381h9.26z" stroke="#000" stroke-width="2"/><path d="M830.98 343.7H829v-1.03H831z" stroke="#000" stroke-width=".05"/><path d="M1160 380v-36.33" stroke="#000" stroke-width="2" fill="none"/><path d="M1160 395.26l-4.63-14.26h9.27z" stroke="#000" stroke-width="2"/><path d="M1160.97 343.7h-1.94v-1.03h1.94z" stroke="#000" stroke-width=".05"/><path d="M1080 500a20 20 0 0 1 20-20h320a20 20 0 0 1 20 20v120a20 20 0 0 1-20 20h-320a20 20 0 0 1-20-20z" stroke="#000" stroke-width="3" fill="url(#f)"/><use xlink:href="#b" transform="matrix(1,0,0,1,1085,485) translate(130.62962962962962 82.27083333333334)"/><path d="M700 420a20 20 0 0 1 20-20h220a20 20 0 0 1 20 20v20a20 20 0 0 1-20 20H720a20 20 0 0 1-20-20z" stroke="#000" stroke-width="3" fill="url(#g)"/><use xlink:href="#h" transform="matrix(1,0,0,1,705,405) translate(47.25925925925927 30.708333333333336)"/><use xlink:href="#i" transform="matrix(1,0,0,1,705,405) translate(97.62962962962963 30.708333333333336)"/><path d="M830 480v-17.5" stroke="#000" stroke-width="2" fill="none"/><path d="M830 495.26L825.37 481h9.26z" stroke="#000" stroke-width="2"/><path d="M830.98 462.53H829v-1.03H831z" stroke="#000" stroke-width=".05"/><path d="M1080 420a20 20 0 0 1 20-20h120a20 20 0 0 1 20 20v1.17a20 20 0 0 1-20 20h-120a20 20 0 0 1-20-20z" stroke="#000" stroke-width="3" fill="#fff"/><use xlink:href="#d" transform="matrix(1,0,0,1,1085,405) translate(19.359938271604925 21.555555555555557)"/><use xlink:href="#j" transform="matrix(1,0,0,1,1085,405) translate(91.26734567901235 21.555555555555557)"/><path d="M1280 320a20 20 0 0 1 20-20h120a20 20 0 0 1 20 20v1.17a20 20 0 0 1-20 20h-120a20 20 0 0 1-20-20z" stroke="#000" stroke-width="3" fill="#e8e2c8"/><use xlink:href="#k" transform="matrix(1,0,0,1,1285,305) translate(8.190185185185166 21.555555555555557)"/><use xlink:href="#e" transform="matrix(1,0,0,1,1285,305) translate(79.55438271604937 21.555555555555557)"/><path d="M1360 380v-36.33" stroke="#000" stroke-width="2" fill="none"/><path d="M1360 395.26l-4.63-14.26h9.27z" stroke="#000" stroke-width="2"/><path d="M1360.97 343.7h-1.94v-1.03h1.94z" stroke="#000" stroke-width=".05"/><path d="M1280 420a20 20 0 0 1 20-20h120a20 20 0 0 1 20 20v1.17a20 20 0 0 1-20 20h-120a20 20 0 0 1-20-20z" stroke="#000" stroke-width="3" fill="#fff"/><use xlink:href="#k" transform="matrix(1,0,0,1,1285,405) translate(19.631543209876533 21.555555555555557)"/><use xlink:href="#j" transform="matrix(1,0,0,1,1285,405) translate(90.99574074074074 21.555555555555557)"/><path d="M1160 460v-16.33" stroke="#000" stroke-width="2" fill="none"/><path d="M1160 475.26l-4.63-14.26h9.27z" stroke="#000" stroke-width="2"/><path d="M1160.97 443.7h-1.94v-1.03h1.94z" stroke="#000" stroke-width=".05"/><path d="M1360 460v-16.33" stroke="#000" stroke-width="2" fill="none"/><path d="M1360 475.26l-4.63-14.26h9.27z" stroke="#000" stroke-width="2"/><path d="M1360.97 443.7h-1.94v-1.03h1.94z" stroke="#000" stroke-width=".05"/><path d="M697.5 430h-2.87m-3.82 0h-5.73m-3.83 0h-5.73m-3.82 0h-5.74m-3.82 0h-5.74m-3.82 0h-5.74m-3.83 0h-5.74m-3.83 0h-5.74m-3.83 0H621" stroke="#3a414a" stroke-width="2" fill="none"/><path d="M698.5 430.98h-1.03v-1.96h1.03zM621.03 430.98H620v-1.96h1.03z" stroke="#3a414a" stroke-width=".05" fill="#3a414a"/><path d="M320 260.33a6 6 0 0 1 6-6h288a6 6 0 0 1 6 6v339.34a6 6 0 0 1-6 6H326a6 6 0 0 1-6-6z" stroke="#000" stroke-opacity="0" stroke-width="3" fill="#fff" fill-opacity="0"/><use xlink:href="#l" transform="matrix(1,0,0,1,325,259.33333333333326) translate(14.679012345678984 71.19444444444444)"/><use xlink:href="#m" transform="matrix(1,0,0,1,325,259.33333333333326) translate(68.01234567901233 71.19444444444444)"/><use xlink:href="#n" transform="matrix(1,0,0,1,325,259.33333333333326) translate(135.17283950617283 71.19444444444444)"/><use xlink:href="#o" transform="matrix(1,0,0,1,325,259.33333333333326) translate(54.333333333333314 113.86111111111111)"/><use xlink:href="#p" transform="matrix(1,0,0,1,325,259.33333333333326) translate(37.44444444444443 156.5277777777778)"/><use xlink:href="#q" transform="matrix(1,0,0,1,325,259.33333333333326) translate(116.45679012345678 156.5277777777778)"/><use xlink:href="#r" transform="matrix(1,0,0,1,325,259.33333333333326) translate(3.024691358024654 199.19444444444446)"/><use xlink:href="#s" transform="matrix(1,0,0,1,325,259.33333333333326) translate(150.87654320987656 199.19444444444446)"/><use xlink:href="#t" transform="matrix(1,0,0,1,325,259.33333333333326) translate(25.641975308641975 241.86111111111114)"/><use xlink:href="#u" transform="matrix(1,0,0,1,325,259.33333333333326) translate(94.77777777777779 241.86111111111114)"/><use xlink:href="#v" transform="matrix(1,0,0,1,325,259.33333333333326) translate(53.24691358024691 284.5277777777778)"/><use xlink:href="#w" transform="matrix(1,0,0,1,325,259.33333333333326) translate(132.1604938271605 284.5277777777778)"/><path d="M1520 374.54a6 6 0 0 1 6-6h288a6 6 0 0 1 6 6v211.34a6 6 0 0 1-6 6h-288a6 6 0 0 1-6-6z" stroke="#000" stroke-opacity="0" stroke-width="3" fill="#fff" fill-opacity="0"/><g><use xlink:href="#x" transform="matrix(1,0,0,1,1525,373.54380485391187) translate(41.34567901234567 35.13194444444444)"/><use xlink:href="#y" transform="matrix(1,0,0,1,1525,373.54380485391187) translate(207.2716049382716 35.13194444444444)"/><use xlink:href="#z" transform="matrix(1,0,0,1,1525,373.54380485391187) translate(0.012345679012327082 77.79861111111111)"/><use xlink:href="#A" transform="matrix(1,0,0,1,1525,373.54380485391187) translate(169.69135802469137 77.79861111111111)"/><use xlink:href="#B" transform="matrix(1,0,0,1,1525,373.54380485391187) translate(205.14814814814815 77.79861111111111)"/><use xlink:href="#C" transform="matrix(1,0,0,1,1525,373.54380485391187) translate(2.925925925925924 120.46527777777779)"/><use xlink:href="#D" transform="matrix(1,0,0,1,1525,373.54380485391187) translate(89.8395061728395 120.46527777777779)"/><use xlink:href="#E" transform="matrix(1,0,0,1,1525,373.54380485391187) translate(164.80246913580248 120.46527777777779)"/><use xlink:href="#F" transform="matrix(1,0,0,1,1525,373.54380485391187) translate(204.30864197530866 120.46527777777779)"/><use xlink:href="#G" transform="matrix(1,0,0,1,1525,373.54380485391187) translate(14.679012345678984 163.13194444444446)"/><use xlink:href="#H" transform="matrix(1,0,0,1,1525,373.54380485391187) translate(91.71604938271604 163.13194444444446)"/><use xlink:href="#I" transform="matrix(1,0,0,1,1525,373.54380485391187) translate(121.34567901234567 163.13194444444446)"/><use xlink:href="#J" transform="matrix(1,0,0,1,1525,373.54380485391187) translate(76.9506172839506 205.79861111111114)"/></g><path d="M1519 420.58h-2.87m-3.82 0h-5.73m-3.83 0H1497m-3.82 0h-5.74m-3.82 0h-5.74m-3.82 0h-5.74m-3.83 0h-5.74m-3.83 0h-5.74m-3.83 0h-2.87" stroke="#3a414a" stroke-width="2" fill="none"/><path d="M1520 421.56h-1.03v-1.95h1.03zM1442.53 421.56h-1.06l.03-.33v-1.3l-.03-.32h1.06z" stroke="#3a414a" stroke-width=".05" fill="#3a414a"/><path d="M1519.38 419.8l-1.78-2.28m-2.38-3.02l-3.56-4.55m-2.38-3.02l-3.57-4.55m-2.37-3.03l-3.56-4.54m-2.38-3.02l-3.57-4.54m-2.38-3.03l-3.57-4.53m-2.38-3.03l-3.56-4.54m-2.38-3.03l-3.57-4.54m-2.38-3.03l-3.57-4.55m-2.38-3.02l-3.56-4.55m-2.37-3.02l-3.57-4.55m-2.37-3.02l-3.58-4.54m-2.38-3.03l-3.56-4.53m-2.38-3.03l-1.78-2.27" stroke="#3a414a" stroke-width="2" fill="none"/><path d="M1520 422.16l-1.4-1.78 1.4-1.1zM1442.9 320.8l-1.46 1.13.06-.7v-1.3l-.08-1.03z" stroke="#3a414a" stroke-width=".05" fill="#3a414a"/><defs><linearGradient gradientUnits="userSpaceOnUse" id="a" x1="700" y1="640" x2="700" y2="500"><stop offset="23.91%" stop-color="#ced4db"/><stop offset="31.16%" stop-color="#fff"/><stop offset="49.64%" stop-color="#fff"/><stop offset="64.13%" stop-color="#cfe4ff"/></linearGradient><path d="M185-189c-5-48-123-54-124 2 14 75 158 14 163 119 3 78-121 87-175 55-17-10-28-26-33-46l33-7c5 56 141 63 141-1 0-78-155-14-162-118-5-82 145-84 179-34 5 7 8 16 11 25" id="K"/><path d="M100-194c63 0 86 42 84 106H49c0 40 14 67 53 68 26 1 43-12 49-29l28 8c-11 28-37 45-77 45C44 4 14-33 15-96c1-61 26-98 85-98zm52 81c6-60-76-77-97-28-3 7-6 17-6 28h103" id="L"/><path d="M114-163C36-179 61-72 57 0H25l-1-190h30c1 12-1 29 2 39 6-27 23-49 58-41v29" id="M"/><path d="M108 0H70L1-190h34L89-25l56-165h34" id="N"/><path d="M24-231v-30h32v30H24zM24 0v-190h32V0H24" id="O"/><path d="M96-169c-40 0-48 33-48 73s9 75 48 75c24 0 41-14 43-38l32 2c-6 37-31 61-74 61-59 0-76-41-82-99-10-93 101-131 147-64 4 7 5 14 7 22l-32 3c-4-21-16-35-41-35" id="P"/><g id="b"><use transform="matrix(0.07407407407407408,0,0,0.07407407407407408,0,0)" xlink:href="#K"/><use transform="matrix(0.07407407407407408,0,0,0.07407407407407408,17.77777777777778,0)" xlink:href="#L"/><use transform="matrix(0.07407407407407408,0,0,0.07407407407407408,32.592592592592595,0)" xlink:href="#M"/><use transform="matrix(0.07407407407407408,0,0,0.07407407407407408,41.40740740740741,0)" xlink:href="#N"/><use transform="matrix(0.07407407407407408,0,0,0.07407407407407408,54.74074074074075,0)" xlink:href="#O"/><use transform="matrix(0.07407407407407408,0,0,0.07407407407407408,60.5925925925926,0)" xlink:href="#P"/><use transform="matrix(0.07407407407407408,0,0,0.07407407407407408,73.92592592592594,0)" xlink:href="#L"/></g><path d="M212-179c-10-28-35-45-73-45-59 0-87 40-87 99 0 60 29 101 89 101 43 0 62-24 78-52l27 14C228-24 195 4 139 4 59 4 22-46 18-125c-6-104 99-153 187-111 19 9 31 26 39 46" id="Q"/><path d="M24 0v-261h32V0H24" id="R"/><path d="M117-194c89-4 53 116 60 194h-32v-121c0-31-8-49-39-48C34-167 62-67 57 0H25l-1-190h30c1 10-1 24 2 32 11-22 29-35 61-36" id="S"/><path d="M59-47c-2 24 18 29 38 22v24C64 9 27 4 27-40v-127H5v-23h24l9-43h21v43h35v23H59v120" id="T"/><g id="c"><use transform="matrix(0.06790123456790124,0,0,0.06790123456790124,0,0)" xlink:href="#Q"/><use transform="matrix(0.06790123456790124,0,0,0.06790123456790124,17.58641975308642,0)" xlink:href="#R"/><use transform="matrix(0.06790123456790124,0,0,0.06790123456790124,22.95061728395062,0)" xlink:href="#O"/><use transform="matrix(0.06790123456790124,0,0,0.06790123456790124,28.31481481481482,0)" xlink:href="#L"/><use transform="matrix(0.06790123456790124,0,0,0.06790123456790124,41.89506172839507,0)" xlink:href="#S"/><use transform="matrix(0.06790123456790124,0,0,0.06790123456790124,55.47530864197532,0)" xlink:href="#T"/></g><path d="M153-248C145-148 188 4 80 4 36 3 13-21 6-62l32-5c4 25 16 42 43 43 27 0 39-20 39-49v-147H72v-28h81" id="U"/><path d="M140-251c81 0 123 46 123 126C263-46 219 4 140 4 59 4 17-45 17-125s42-126 123-126zm0 227c63 0 89-41 89-101s-29-99-89-99c-61 0-89 39-89 99S79-25 140-24" id="V"/><path d="M190 0L58-211 59 0H30v-248h39L202-35l-2-213h31V0h-41" id="W"/><g id="d"><use transform="matrix(0.06790123456790124,0,0,0.06790123456790124,0,0)" xlink:href="#U"/><use transform="matrix(0.06790123456790124,0,0,0.06790123456790124,12.222222222222223,0)" xlink:href="#K"/><use transform="matrix(0.06790123456790124,0,0,0.06790123456790124,28.51851851851852,0)" xlink:href="#V"/><use transform="matrix(0.06790123456790124,0,0,0.06790123456790124,47.530864197530875,0)" xlink:href="#W"/></g><g id="e"><use transform="matrix(0.06790123456790124,0,0,0.06790123456790124,0,0)" xlink:href="#Q"/><use transform="matrix(0.06790123456790124,0,0,0.06790123456790124,17.58641975308642,0)" xlink:href="#R"/><use transform="matrix(0.06790123456790124,0,0,0.06790123456790124,22.95061728395062,0)" xlink:href="#O"/><use transform="matrix(0.06790123456790124,0,0,0.06790123456790124,28.31481481481482,0)" xlink:href="#L"/><use transform="matrix(0.06790123456790124,0,0,0.06790123456790124,41.89506172839507,0)" xlink:href="#S"/><use transform="matrix(0.06790123456790124,0,0,0.06790123456790124,55.47530864197532,0)" xlink:href="#T"/></g><linearGradient gradientUnits="userSpaceOnUse" id="f" x1="1080" y1="640" x2="1080" y2="480"><stop offset="19.2%" stop-color="#ced4db"/><stop offset="26.45%" stop-color="#fff"/><stop offset="45.29%" stop-color="#fff"/><stop offset="52.54%" stop-color="#cfe4ff"/><stop offset="73.91%" stop-color="#cfe4ff"/><stop offset="82.97%" stop-color="#c3f7c8"/></linearGradient><linearGradient gradientUnits="userSpaceOnUse" id="g" x1="700" y1="460" x2="700" y2="400"><stop offset="38.04%" stop-color="#c3f7c8"/><stop offset="63.04%" stop-color="#fff"/></linearGradient><path d="M205 0l-28-72H64L36 0H1l101-248h38L239 0h-34zm-38-99l-47-123c-12 45-31 82-46 123h93" id="X"/><path d="M30-248c87 1 191-15 191 75 0 78-77 80-158 76V0H30v-248zm33 125c57 0 124 11 124-50 0-59-68-47-124-48v98" id="Y"/><path d="M33 0v-248h34V0H33" id="Z"/><g id="h"><use transform="matrix(0.07407407407407408,0,0,0.07407407407407408,0,0)" xlink:href="#X"/><use transform="matrix(0.07407407407407408,0,0,0.07407407407407408,17.77777777777778,0)" xlink:href="#Y"/><use transform="matrix(0.07407407407407408,0,0,0.07407407407407408,35.55555555555556,0)" xlink:href="#Z"/></g><path d="M143 4C61 4 22-44 18-125c-5-107 100-154 193-111 17 8 29 25 37 43l-32 9c-13-25-37-40-76-40-61 0-88 39-88 99 0 61 29 100 91 101 35 0 62-11 79-27v-45h-74v-28h105v86C228-13 192 4 143 4" id="aa"/><path d="M141-36C126-15 110 5 73 4 37 3 15-17 15-53c-1-64 63-63 125-63 3-35-9-54-41-54-24 1-41 7-42 31l-33-3c5-37 33-52 76-52 45 0 72 20 72 64v82c-1 20 7 32 28 27v20c-31 9-61-2-59-35zM48-53c0 20 12 33 32 33 41-3 63-29 60-74-43 2-92-5-92 41" id="ab"/><path d="M206 0h-36l-40-164L89 0H53L-1-190h32L70-26l43-164h34l41 164 42-164h31" id="ac"/><path d="M179-190L93 31C79 59 56 82 12 73V49c39 6 53-20 64-50L1-190h34L92-34l54-156h33" id="ad"/><g id="i"><use transform="matrix(0.07407407407407408,0,0,0.07407407407407408,0,0)" xlink:href="#aa"/><use transform="matrix(0.07407407407407408,0,0,0.07407407407407408,20.740740740740744,0)" xlink:href="#ab"/><use transform="matrix(0.07407407407407408,0,0,0.07407407407407408,35.55555555555556,0)" xlink:href="#T"/><use transform="matrix(0.07407407407407408,0,0,0.07407407407407408,42.96296296296296,0)" xlink:href="#L"/><use transform="matrix(0.07407407407407408,0,0,0.07407407407407408,57.77777777777778,0)" xlink:href="#ac"/><use transform="matrix(0.07407407407407408,0,0,0.07407407407407408,76.96296296296296,0)" xlink:href="#ab"/><use transform="matrix(0.07407407407407408,0,0,0.07407407407407408,91.77777777777777,0)" xlink:href="#ad"/></g><g id="j"><use transform="matrix(0.06790123456790124,0,0,0.06790123456790124,0,0)" xlink:href="#X"/><use transform="matrix(0.06790123456790124,0,0,0.06790123456790124,16.296296296296298,0)" xlink:href="#Y"/><use transform="matrix(0.06790123456790124,0,0,0.06790123456790124,32.592592592592595,0)" xlink:href="#Z"/></g><path d="M233-177c-1 41-23 64-60 70L243 0h-38l-65-103H63V0H30v-248c88 3 205-21 203 71zM63-129c60-2 137 13 137-47 0-61-80-42-137-45v92" id="ae"/><path d="M30 0v-248h187v28H63v79h144v27H63v87h162V0H30" id="af"/><path d="M127-220V0H93v-220H8v-28h204v28h-85" id="ag"/><g id="k"><use transform="matrix(0.06790123456790124,0,0,0.06790123456790124,0,0)" xlink:href="#ae"/><use transform="matrix(0.06790123456790124,0,0,0.06790123456790124,17.58641975308642,0)" xlink:href="#af"/><use transform="matrix(0.06790123456790124,0,0,0.06790123456790124,33.88271604938272,0)" xlink:href="#K"/><use transform="matrix(0.06790123456790124,0,0,0.06790123456790124,50.17901234567902,0)" xlink:href="#ag"/></g><g id="l"><use transform="matrix(0.09876543209876544,0,0,0.09876543209876544,0,0)" xlink:href="#X"/><use transform="matrix(0.09876543209876544,0,0,0.09876543209876544,23.703703703703706,0)" xlink:href="#S"/></g><path d="M187 0l-14-72H61L19 0h-37l149-248h38L221 0h-34zm-19-99l-22-123L76-99h92" id="ah"/><path d="M238-179c0 84-86 86-175 82L45 0H11l48-248c82 0 179-12 179 69zm-34 1c0-53-64-42-116-43l-19 98c63 0 135 9 135-55" id="ai"/><path d="M14 0l48-248h34L48 0H14" id="aj"/><g id="m"><use transform="matrix(0.09876543209876544,0,0,0.09876543209876544,0,0)" xlink:href="#ah"/><use transform="matrix(0.09876543209876544,0,0,0.09876543209876544,23.703703703703706,0)" xlink:href="#ai"/><use transform="matrix(0.09876543209876544,0,0,0.09876543209876544,47.40740740740741,0)" xlink:href="#aj"/></g><path d="M52-101C46-14 166-7 216-51l9-45h-74l6-28h105l-18 87C217-12 181 4 130 4 60 4 18-31 18-101c0-106 78-167 188-146 30 6 48 27 59 54l-34 9c-10-26-31-41-67-40-75 1-107 50-112 123" id="ak"/><path d="M165-48c-4 18 1 34 23 27l-3 20c-29 8-62 0-52-35h-2C116-14 99 4 63 4 30 4 8-16 8-49c0-68 71-67 138-67 10-26 0-56-31-54-26 1-42 9-47 31l-32-5c8-67 160-71 144 15-5 28-9 54-15 81zM42-50c3 52 80 24 89-6 7-12 7-24 11-38-47 1-103-4-100 44" id="al"/><path d="M51-54c-9 22 5 41 31 30L79-1C43 14 10-4 19-52l22-115H19l5-23h22l19-43h21l-9 43h35l-4 23H73" id="am"/><path d="M111-194c62-3 86 47 72 106H45c-7 38 6 69 45 68 27-1 43-14 53-32l24 11C152-15 129 4 87 4 38 3 12-23 12-71c0-70 32-119 99-123zm44 81c14-66-71-72-95-28-4 8-8 17-11 28h106" id="an"/><path d="M188 0h-37l-8-164L71 0H34L18-190h31l8 164 75-164h34l8 164 74-164h31" id="ao"/><path d="M198-190L69 30C53 58 25 83-20 72c4-11-1-27 19-22 33-1 43-29 59-52L20-190h32L79-34l84-156h35" id="ap"/><g id="n"><use transform="matrix(0.09876543209876544,0,0,0.09876543209876544,0,0)" xlink:href="#ak"/><use transform="matrix(0.09876543209876544,0,0,0.09876543209876544,27.654320987654323,0)" xlink:href="#al"/><use transform="matrix(0.09876543209876544,0,0,0.09876543209876544,47.40740740740741,0)" xlink:href="#am"/><use transform="matrix(0.09876543209876544,0,0,0.09876543209876544,57.283950617283956,0)" xlink:href="#an"/><use transform="matrix(0.09876543209876544,0,0,0.09876543209876544,77.03703703703704,0)" xlink:href="#ao"/><use transform="matrix(0.09876543209876544,0,0,0.09876543209876544,102.61728395061729,0)" xlink:href="#al"/><use transform="matrix(0.09876543209876544,0,0,0.09876543209876544,122.37037037037038,0)" xlink:href="#ap"/></g><path d="M210-169c-67 3-38 105-44 169h-31v-121c0-29-5-50-35-48C34-165 62-65 56 0H25l-1-190h30c1 10-1 24 2 32 10-44 99-50 107 0 11-21 27-35 58-36 85-2 47 119 55 194h-31v-121c0-29-5-49-35-48" id="aq"/><path d="M115-194c55 1 70 41 70 98S169 2 115 4C84 4 66-9 55-30l1 105H24l-1-265h31l2 30c10-21 28-34 59-34zm-8 174c40 0 45-34 45-75s-6-73-45-74c-42 0-51 32-51 76 0 43 10 73 51 73" id="ar"/><path d="M135-143c-3-34-86-38-87 0 15 53 115 12 119 90S17 21 10-45l28-5c4 36 97 45 98 0-10-56-113-15-118-90-4-57 82-63 122-42 12 7 21 19 24 35" id="as"/><g id="o"><use transform="matrix(0.09876543209876544,0,0,0.09876543209876544,0,0)" xlink:href="#O"/><use transform="matrix(0.09876543209876544,0,0,0.09876543209876544,7.80246913580247,0)" xlink:href="#aq"/><use transform="matrix(0.09876543209876544,0,0,0.09876543209876544,37.333333333333336,0)" xlink:href="#ar"/><use transform="matrix(0.09876543209876544,0,0,0.09876543209876544,57.086419753086425,0)" xlink:href="#R"/><use transform="matrix(0.09876543209876544,0,0,0.09876543209876544,64.8888888888889,0)" xlink:href="#L"/><use transform="matrix(0.09876543209876544,0,0,0.09876543209876544,84.64197530864199,0)" xlink:href="#aq"/><use transform="matrix(0.09876543209876544,0,0,0.09876543209876544,114.17283950617288,0)" xlink:href="#L"/><use transform="matrix(0.09876543209876544,0,0,0.09876543209876544,133.92592592592595,0)" xlink:href="#S"/><use transform="matrix(0.09876543209876544,0,0,0.09876543209876544,153.67901234567904,0)" xlink:href="#T"/><use transform="matrix(0.09876543209876544,0,0,0.09876543209876544,163.5555555555556,0)" xlink:href="#as"/></g><path d="M115-194c53 0 69 39 70 98 0 66-23 100-70 100C84 3 66-7 56-30L54 0H23l1-261h32v101c10-23 28-34 59-34zm-8 174c40 0 45-34 45-75 0-40-5-75-45-74-42 0-51 32-51 76 0 43 10 73 51 73" id="at"/><path d="M100-194c62-1 85 37 85 99 1 63-27 99-86 99S16-35 15-95c0-66 28-99 85-99zM99-20c44 1 53-31 53-75 0-43-8-75-51-75s-53 32-53 75 10 74 51 75" id="au"/><path d="M106-169C34-169 62-67 57 0H25v-261h32l-1 103c12-21 28-36 61-36 89 0 53 116 60 194h-32v-121c2-32-8-49-39-48" id="av"/><g id="p"><use transform="matrix(0.09876543209876544,0,0,0.09876543209876544,0,0)" xlink:href="#at"/><use transform="matrix(0.09876543209876544,0,0,0.09876543209876544,19.75308641975309,0)" xlink:href="#au"/><use transform="matrix(0.09876543209876544,0,0,0.09876543209876544,39.50617283950618,0)" xlink:href="#T"/><use transform="matrix(0.09876543209876544,0,0,0.09876543209876544,49.38271604938272,0)" xlink:href="#av"/></g><path d="M50-231l6-30h32l-6 30H50zM6 0l37-190h31L37 0H6" id="aw"/><path d="M67-158c22-48 132-52 116 29L158 0h-32l25-140c3-38-53-32-70-12C52-117 51-52 38 0H6l36-190h30" id="ax"/><path d="M66-151c12-25 30-51 66-40l-6 26C45-176 58-65 38 0H6l36-190h30" id="ay"/><path d="M76-167L44 0H12l33-167H18l4-23h27c3-47 25-81 82-69l-4 24c-35-8-44 15-46 45h37l-5 23H76" id="az"/><path d="M44-68c0 29 11 47 38 47 30 0 42-19 51-41l28 9C148-21 126 4 82 4 31 4 10-29 12-85c3-77 74-140 146-93 12 8 15 23 18 40l-31 5c-1-22-13-36-36-36-52 0-65 49-65 101" id="aA"/><g id="q"><use transform="matrix(0.09876543209876544,0,0,0.09876543209876544,0,0)" xlink:href="#aw"/><use transform="matrix(0.09876543209876544,0,0,0.09876543209876544,7.80246913580247,0)" xlink:href="#ax"/><use transform="matrix(0.09876543209876544,0,0,0.09876543209876544,27.555555555555557,0)" xlink:href="#am"/><use transform="matrix(0.09876543209876544,0,0,0.09876543209876544,37.4320987654321,0)" xlink:href="#an"/><use transform="matrix(0.09876543209876544,0,0,0.09876543209876544,57.18518518518519,0)" xlink:href="#ay"/><use transform="matrix(0.09876543209876544,0,0,0.09876543209876544,68.93827160493828,0)" xlink:href="#az"/><use transform="matrix(0.09876543209876544,0,0,0.09876543209876544,78.81481481481482,0)" xlink:href="#al"/><use transform="matrix(0.09876543209876544,0,0,0.09876543209876544,98.56790123456791,0)" xlink:href="#aA"/><use transform="matrix(0.09876543209876544,0,0,0.09876543209876544,116.34567901234568,0)" xlink:href="#an"/></g><path d="M87 75C49 33 22-17 22-94c0-76 28-126 65-167h31c-38 41-64 92-64 168S80 34 118 75H87" id="aB"/><g id="r"><use transform="matrix(0.09876543209876544,0,0,0.09876543209876544,0,0)" xlink:href="#aB"/><use transform="matrix(0.09876543209876544,0,0,0.09876543209876544,11.753086419753087,0)" xlink:href="#ar"/><use transform="matrix(0.09876543209876544,0,0,0.09876543209876544,31.506172839506174,0)" xlink:href="#M"/><use transform="matrix(0.09876543209876544,0,0,0.09876543209876544,43.25925925925927,0)" xlink:href="#au"/><use transform="matrix(0.09876543209876544,0,0,0.09876543209876544,63.01234567901235,0)" xlink:href="#T"/><use transform="matrix(0.09876543209876544,0,0,0.09876543209876544,72.8888888888889,0)" xlink:href="#au"/><use transform="matrix(0.09876543209876544,0,0,0.09876543209876544,92.64197530864199,0)" xlink:href="#P"/><use transform="matrix(0.09876543209876544,0,0,0.09876543209876544,110.41975308641979,0)" xlink:href="#au"/><use transform="matrix(0.09876543209876544,0,0,0.09876543209876544,130.17283950617286,0)" xlink:href="#R"/></g><path d="M133-28C103 26-5 8 13-77c13-62 24-115 90-117 29-1 46 15 56 35l19-102h32L160 0h-30zM45-64c-2 27 10 43 35 43 54-1 69-50 69-103 0-29-15-46-42-46-53-1-58 58-62 106" id="aC"/><path d="M67-162c32-53 139-36 121 50C175-51 163 2 97 4 68 4 52-11 42-31 38 6 28 39 22 75H-9l50-265h29c-1 10 0 20-3 28zm89 36c0-26-10-43-35-43-54 0-67 50-69 103-1 29 14 45 42 46 53 0 62-58 62-106" id="aD"/><path d="M33-261c38 41 65 92 65 168S71 34 33 75H2C39 34 66-17 66-93S39-220 2-261h31" id="aE"/><g id="s"><use transform="matrix(0.09876543209876544,0,0,0.09876543209876544,0,0)" xlink:href="#ah"/><use transform="matrix(0.09876543209876544,0,0,0.09876543209876544,23.703703703703706,0)" xlink:href="#aC"/><use transform="matrix(0.09876543209876544,0,0,0.09876543209876544,43.4567901234568,0)" xlink:href="#al"/><use transform="matrix(0.09876543209876544,0,0,0.09876543209876544,63.20987654320988,0)" xlink:href="#aD"/><use transform="matrix(0.09876543209876544,0,0,0.09876543209876544,82.96296296296298,0)" xlink:href="#am"/><use transform="matrix(0.09876543209876544,0,0,0.09876543209876544,92.83950617283952,0)" xlink:href="#an"/><use transform="matrix(0.09876543209876544,0,0,0.09876543209876544,112.5925925925926,0)" xlink:href="#ay"/><use transform="matrix(0.09876543209876544,0,0,0.09876543209876544,124.34567901234568,0)" xlink:href="#aE"/></g><path d="M85-194c31 0 48 13 60 33l-1-100h32l1 261h-30c-2-10 0-23-3-31C134-8 116 4 85 4 32 4 16-35 15-94c0-66 23-100 70-100zm9 24c-40 0-46 34-46 75 0 40 6 74 45 74 42 0 51-32 51-76 0-42-9-74-50-73" id="aF"/><g id="t"><use transform="matrix(0.09876543209876544,0,0,0.09876543209876544,0,0)" xlink:href="#ab"/><use transform="matrix(0.09876543209876544,0,0,0.09876543209876544,19.75308641975309,0)" xlink:href="#S"/><use transform="matrix(0.09876543209876544,0,0,0.09876543209876544,39.50617283950618,0)" xlink:href="#aF"/></g><path d="M6 0l50-261h32L37 0H6" id="aG"/><path d="M30-147c31-64 166-65 159 27C183-49 158 1 86 4 9 8 1-88 30-147zM88-20c53 0 68-48 68-100 0-31-11-51-44-50-52 1-68 46-68 97 0 32 13 53 44 53" id="aH"/><g id="u"><use transform="matrix(0.09876543209876544,0,0,0.09876543209876544,0,0)" xlink:href="#al"/><use transform="matrix(0.09876543209876544,0,0,0.09876543209876544,19.75308641975309,0)" xlink:href="#aD"/><use transform="matrix(0.09876543209876544,0,0,0.09876543209876544,39.50617283950618,0)" xlink:href="#aD"/><use transform="matrix(0.09876543209876544,0,0,0.09876543209876544,59.25925925925927,0)" xlink:href="#aG"/><use transform="matrix(0.09876543209876544,0,0,0.09876543209876544,67.06172839506173,0)" xlink:href="#aw"/><use transform="matrix(0.09876543209876544,0,0,0.09876543209876544,74.8641975308642,0)" xlink:href="#aA"/><use transform="matrix(0.09876543209876544,0,0,0.09876543209876544,92.64197530864197,0)" xlink:href="#al"/><use transform="matrix(0.09876543209876544,0,0,0.09876543209876544,112.39506172839508,0)" xlink:href="#am"/><use transform="matrix(0.09876543209876544,0,0,0.09876543209876544,122.27160493827162,0)" xlink:href="#aw"/><use transform="matrix(0.09876543209876544,0,0,0.09876543209876544,130.07407407407408,0)" xlink:href="#aH"/><use transform="matrix(0.09876543209876544,0,0,0.09876543209876544,149.82716049382717,0)" xlink:href="#ax"/></g><path d="M84 4C-5 8 30-112 23-190h32v120c0 31 7 50 39 49 72-2 45-101 50-169h31l1 190h-30c-1-10 1-25-2-33-11 22-28 36-60 37" id="aI"/><g id="v"><use transform="matrix(0.09876543209876544,0,0,0.09876543209876544,0,0)" xlink:href="#aB"/><use transform="matrix(0.09876543209876544,0,0,0.09876543209876544,11.753086419753087,0)" xlink:href="#aI"/><use transform="matrix(0.09876543209876544,0,0,0.09876543209876544,31.506172839506174,0)" xlink:href="#as"/><use transform="matrix(0.09876543209876544,0,0,0.09876543209876544,49.283950617283956,0)" xlink:href="#L"/></g><g id="w"><use transform="matrix(0.09876543209876544,0,0,0.09876543209876544,0,0)" xlink:href="#P"/><use transform="matrix(0.09876543209876544,0,0,0.09876543209876544,17.77777777777778,0)" xlink:href="#ab"/><use transform="matrix(0.09876543209876544,0,0,0.09876543209876544,37.53086419753087,0)" xlink:href="#as"/><use transform="matrix(0.09876543209876544,0,0,0.09876543209876544,55.308641975308646,0)" xlink:href="#L"/><use transform="matrix(0.09876543209876544,0,0,0.09876543209876544,75.06172839506173,0)" xlink:href="#as"/><use transform="matrix(0.09876543209876544,0,0,0.09876543209876544,92.83950617283952,0)" xlink:href="#aE"/></g><path d="M219-77C219 17 104-2 11 0l48-248c73 2 169-15 169 57 0 38-24 54-60 60 29 5 51 21 51 54zm-26-111c0-44-62-31-105-33l-16 79c55 0 121 9 121-46zm-7 110c-1-49-69-36-119-38L50-27c61-1 137 12 136-51" id="aJ"/><path d="M127 0L80-88 50-66 37 0H6l51-261h31L57-100l99-90h39l-93 82L161 0h-34" id="aK"/><path d="M55-144c13 50 104 24 104 88C159 21 15 23 1-39l26-10c6 40 102 42 102-4-13-50-104-23-104-87 0-71 143-71 148-8l-29 4c-5-35-85-37-89 0" id="aL"/><g id="x"><use transform="matrix(0.09876543209876544,0,0,0.09876543209876544,0,0)" xlink:href="#aJ"/><use transform="matrix(0.09876543209876544,0,0,0.09876543209876544,23.703703703703706,0)" xlink:href="#al"/><use transform="matrix(0.09876543209876544,0,0,0.09876543209876544,43.4567901234568,0)" xlink:href="#aA"/><use transform="matrix(0.09876543209876544,0,0,0.09876543209876544,61.23456790123457,0)" xlink:href="#aK"/><use transform="matrix(0.09876543209876544,0,0,0.09876543209876544,79.01234567901236,0)" xlink:href="#an"/><use transform="matrix(0.09876543209876544,0,0,0.09876543209876544,98.76543209876544,0)" xlink:href="#ax"/><use transform="matrix(0.09876543209876544,0,0,0.09876543209876544,118.51851851851853,0)" xlink:href="#aC"/><use transform="matrix(0.09876543209876544,0,0,0.09876543209876544,138.27160493827162,0)" xlink:href="#aL"/></g><g id="y"><use transform="matrix(0.09876543209876544,0,0,0.09876543209876544,0,0)" xlink:href="#az"/><use transform="matrix(0.09876543209876544,0,0,0.09876543209876544,9.876543209876544,0)" xlink:href="#aH"/><use transform="matrix(0.09876543209876544,0,0,0.09876543209876544,29.629629629629633,0)" xlink:href="#ay"/></g><path d="M87-220l-18 92h140l-5 28H64L45 0H11l48-248h178l-5 28H87" id="aM"/><g id="z"><use transform="matrix(0.09876543209876544,0,0,0.09876543209876544,0,0)" xlink:href="#aM"/><use transform="matrix(0.09876543209876544,0,0,0.09876543209876544,21.62962962962963,0)" xlink:href="#ay"/><use transform="matrix(0.09876543209876544,0,0,0.09876543209876544,33.382716049382715,0)" xlink:href="#aH"/><use transform="matrix(0.09876543209876544,0,0,0.09876543209876544,53.135802469135804,0)" xlink:href="#ax"/><use transform="matrix(0.09876543209876544,0,0,0.09876543209876544,72.88888888888889,0)" xlink:href="#am"/><use transform="matrix(0.09876543209876544,0,0,0.09876543209876544,82.76543209876543,0)" xlink:href="#an"/><use transform="matrix(0.09876543209876544,0,0,0.09876543209876544,102.51851851851853,0)" xlink:href="#ax"/><use transform="matrix(0.09876543209876544,0,0,0.09876543209876544,122.27160493827162,0)" xlink:href="#aC"/><use transform="matrix(0.09876543209876544,0,0,0.09876543209876544,142.0246913580247,0)" xlink:href="#aL"/></g><g id="A"><use transform="matrix(0.09876543209876544,0,0,0.09876543209876544,0,0)" xlink:href="#O"/><use transform="matrix(0.09876543209876544,0,0,0.09876543209876544,7.80246913580247,0)" xlink:href="#as"/></g><g id="B"><use transform="matrix(0.09876543209876544,0,0,0.09876543209876544,0,0)" xlink:href="#ac"/><use transform="matrix(0.09876543209876544,0,0,0.09876543209876544,25.58024691358025,0)" xlink:href="#av"/><use transform="matrix(0.09876543209876544,0,0,0.09876543209876544,45.33333333333334,0)" xlink:href="#L"/><use transform="matrix(0.09876543209876544,0,0,0.09876543209876544,65.08641975308643,0)" xlink:href="#S"/></g><g id="C"><use transform="matrix(0.09876543209876544,0,0,0.09876543209876544,0,0)" xlink:href="#L"/><use transform="matrix(0.09876543209876544,0,0,0.09876543209876544,19.75308641975309,0)" xlink:href="#ab"/><use transform="matrix(0.09876543209876544,0,0,0.09876543209876544,39.50617283950618,0)" xlink:href="#P"/><use transform="matrix(0.09876543209876544,0,0,0.09876543209876544,57.283950617283956,0)" xlink:href="#av"/></g><path d="M143 0L79-87 56-68V0H24v-261h32v163l83-92h37l-77 82L181 0h-38" id="aN"/><g id="D"><use transform="matrix(0.09876543209876544,0,0,0.09876543209876544,0,0)" xlink:href="#aN"/><use transform="matrix(0.09876543209876544,0,0,0.09876543209876544,17.77777777777778,0)" xlink:href="#O"/><use transform="matrix(0.09876543209876544,0,0,0.09876543209876544,25.58024691358025,0)" xlink:href="#S"/><use transform="matrix(0.09876543209876544,0,0,0.09876543209876544,45.333333333333336,0)" xlink:href="#aF"/></g><path d="M101-234c-31-9-42 10-38 44h38v23H63V0H32v-167H5v-23h27c-7-52 17-82 69-68v24" id="aO"/><g id="E"><use transform="matrix(0.09876543209876544,0,0,0.09876543209876544,0,0)" xlink:href="#au"/><use transform="matrix(0.09876543209876544,0,0,0.09876543209876544,19.75308641975309,0)" xlink:href="#aO"/></g><g id="F"><use transform="matrix(0.09876543209876544,0,0,0.09876543209876544,0,0)" xlink:href="#P"/><use transform="matrix(0.09876543209876544,0,0,0.09876543209876544,17.77777777777778,0)" xlink:href="#R"/><use transform="matrix(0.09876543209876544,0,0,0.09876543209876544,25.58024691358025,0)" xlink:href="#O"/><use transform="matrix(0.09876543209876544,0,0,0.09876543209876544,33.382716049382715,0)" xlink:href="#L"/><use transform="matrix(0.09876543209876544,0,0,0.09876543209876544,53.135802469135804,0)" xlink:href="#S"/><use transform="matrix(0.09876543209876544,0,0,0.09876543209876544,72.88888888888889,0)" xlink:href="#T"/></g><path d="M177-190C167-65 218 103 67 71c-23-6-38-20-44-43l32-5c15 47 100 32 89-28v-30C133-14 115 1 83 1 29 1 15-40 15-95c0-56 16-97 71-98 29-1 48 16 59 35 1-10 0-23 2-32h30zM94-22c36 0 50-32 50-73 0-42-14-75-50-75-39 0-46 34-46 75s6 73 46 73" id="aP"/><g id="G"><use transform="matrix(0.09876543209876544,0,0,0.09876543209876544,0,0)" xlink:href="#aP"/><use transform="matrix(0.09876543209876544,0,0,0.09876543209876544,19.75308641975309,0)" xlink:href="#L"/><use transform="matrix(0.09876543209876544,0,0,0.09876543209876544,39.50617283950618,0)" xlink:href="#T"/><use transform="matrix(0.09876543209876544,0,0,0.09876543209876544,49.38271604938272,0)" xlink:href="#as"/></g><use transform="matrix(0.09876543209876544,0,0,0.09876543209876544,0,0)" xlink:href="#ab" id="H"/><g id="I"><use transform="matrix(0.09876543209876544,0,0,0.09876543209876544,0,0)" xlink:href="#aF"/><use transform="matrix(0.09876543209876544,0,0,0.09876543209876544,19.75308641975309,0)" xlink:href="#L"/><use transform="matrix(0.09876543209876544,0,0,0.09876543209876544,39.50617283950618,0)" xlink:href="#aF"/><use transform="matrix(0.09876543209876544,0,0,0.09876543209876544,59.25925925925927,0)" xlink:href="#O"/><use transform="matrix(0.09876543209876544,0,0,0.09876543209876544,67.06172839506173,0)" xlink:href="#P"/><use transform="matrix(0.09876543209876544,0,0,0.09876543209876544,84.83950617283952,0)" xlink:href="#ab"/><use transform="matrix(0.09876543209876544,0,0,0.09876543209876544,104.5925925925926,0)" xlink:href="#T"/><use transform="matrix(0.09876543209876544,0,0,0.09876543209876544,114.46913580246914,0)" xlink:href="#L"/><use transform="matrix(0.09876543209876544,0,0,0.09876543209876544,134.22222222222223,0)" xlink:href="#aF"/></g><g id="J"><use transform="matrix(0.09876543209876544,0,0,0.09876543209876544,0,0)" xlink:href="#aw"/><use transform="matrix(0.09876543209876544,0,0,0.09876543209876544,7.80246913580247,0)" xlink:href="#ax"/><use transform="matrix(0.09876543209876544,0,0,0.09876543209876544,27.555555555555557,0)" xlink:href="#am"/><use transform="matrix(0.09876543209876544,0,0,0.09876543209876544,37.4320987654321,0)" xlink:href="#an"/><use transform="matrix(0.09876543209876544,0,0,0.09876543209876544,57.18518518518519,0)" xlink:href="#ay"/><use transform="matrix(0.09876543209876544,0,0,0.09876543209876544,68.93827160493828,0)" xlink:href="#az"/><use transform="matrix(0.09876543209876544,0,0,0.09876543209876544,78.81481481481482,0)" xlink:href="#al"/><use transform="matrix(0.09876543209876544,0,0,0.09876543209876544,98.56790123456791,0)" xlink:href="#aA"/><use transform="matrix(0.09876543209876544,0,0,0.09876543209876544,116.34567901234568,0)" xlink:href="#an"/></g></defs></g></svg>