<svg xmlns="http://www.w3.org/2000/svg" xmlns:xlink="http://www.w3.org/1999/xlink" xmlns:lucid="lucid" width="283" height="226.17"><g transform="translate(-418.5 -576.8333333333334)" lucid:page-tab-id="0_0"><path d="M649.77 658.58l-39.22 59.1" stroke="#1071e5" stroke-width="2" fill="none"/><path d="M658.2 645.86l-4.02 14.45-7.72-5.1z" stroke="#1071e5" stroke-width="2" fill="#1071e5"/><path d="M611.38 718.18l-.2.32h-2.35l.92-1.4z" stroke="#1071e5" stroke-width=".05" fill="#1071e5"/><path d="M620 598.33a20 20 0 0 1 20-20h40a20 20 0 0 1 20 20v23.34a20 20 0 0 1-20 20h-40a20 20 0 0 1-20-20z" stroke="#1071e5" stroke-width="3" fill="url(#a)"/><use xlink:href="#b" transform="matrix(1,0,0,1,625,583.3333333333334) translate(9.10493827160494 21.15277777777778)"/><use xlink:href="#c" transform="matrix(1,0,0,1,625,583.3333333333334) translate(27.011172839506173 47.81944444444444)"/><path d="M540 740a20 20 0 0 1 20-20h100a20 20 0 0 1 20 20 20 20 0 0 1-20 20H560a20 20 0 0 1-20-20z" stroke="#1071e5" stroke-width="3" fill="#fff"/><use xlink:href="#d" transform="matrix(1,0,0,1,545,725) translate(7.62845679012346 19.65277777777778)"/><use xlink:href="#e" transform="matrix(1,0,0,1,545,725) translate(55.714876543209876 19.65277777777778)"/><path d="M488.3 760a20 20 0 0 1 20-20h100.36a20 20 0 0 1 20 20 20 20 0 0 1-20 20H508.3a20 20 0 0 1-20-20z" stroke="#82755b" stroke-width="3" fill="#fff"/><use xlink:href="#d" transform="matrix(1,0,0,1,493.31084862364213,745) translate(8.12845679012346 19.65277777777778)"/><use xlink:href="#e" transform="matrix(1,0,0,1,493.31084862364213,745) translate(56.214876543209876 19.65277777777778)"/><path d="M440 780a20 20 0 0 1 20-20h100a20 20 0 0 1 20 20v1.5a20 20 0 0 1-20 20H460a20 20 0 0 1-20-20z" stroke="#008a0e" stroke-width="3" fill="#fff"/><use xlink:href="#d" transform="matrix(1,0,0,1,445,765) translate(8.123456790123463 19.77777777777778)"/><use xlink:href="#e" transform="matrix(1,0,0,1,445,765) translate(56.20987654320988 19.77777777777778)"/><path d="M518.48 598.33a20 20 0 0 1 20-20h40a20 20 0 0 1 20 20v23.34a20 20 0 0 1-20 20h-40a20 20 0 0 1-20-20z" stroke="#82755b" stroke-width="3" fill="url(#f)"/><use xlink:href="#b" transform="matrix(1,0,0,1,523.4832040538944,583.3333333333334) translate(9.10493827160494 21.15277777777778)"/><use xlink:href="#g" transform="matrix(1,0,0,1,523.4832040538944,583.3333333333334) translate(27.59759259259259 47.81944444444444)"/><path d="M467.36 660.14l42.24 97.44" stroke="#008a0e" stroke-width="2" fill="none"/><path d="M461.3 646.14l9.9 11.24-8.5 3.7z" stroke="#008a0e" stroke-width="2" fill="#008a0e"/><path d="M511.06 758.5h-2.12l-.24-.55 1.8-.78z" stroke="#008a0e" stroke-width=".05" fill="#008a0e"/><path d="M557.97 661.66l-2.12 75.84" stroke="#82755b" stroke-width="2" fill="none"/><path d="M558.4 646.4l4.23 14.4-9.27-.27z" stroke="#82755b" stroke-width="2" fill="#82755b"/><path d="M556.83 737.5l-.03 1h-1.95l.03-1.05z" stroke="#82755b" stroke-width=".05" fill="#82755b"/><path d="M420 598.33a20 20 0 0 1 20-20h40a20 20 0 0 1 20 20v23.34a20 20 0 0 1-20 20h-40a20 20 0 0 1-20-20z" stroke="#008a0e" stroke-width="3" fill="url(#h)"/><use xlink:href="#b" transform="matrix(1,0,0,1,425,583.3333333333334) translate(9.10493827160494 21.15277777777778)"/><use xlink:href="#i" transform="matrix(1,0,0,1,425,583.3333333333334) translate(27.59759259259259 47.81944444444444)"/><path d="M539.47 705.77l-45.7-66.36" stroke="#008a0e" stroke-width="2" fill="none"/><path d="M548.13 718.34l-11.9-9.12 7.63-5.26z" stroke="#008a0e" stroke-width="2" fill="#008a0e"/><path d="M494.58 638.88l-1.6 1.1-.55-.8.2-.12 1.3-1.1z" stroke="#008a0e" stroke-width=".05" fill="#008a0e"/><path d="M581.94 700v-56.12" stroke="#82755b" stroke-width="2" fill="none"/><path d="M581.94 715.26L577.3 701h9.28z" stroke="#82755b" stroke-width="2" fill="#82755b"/><path d="M582.9 643.9H581V643l.88-.07 1.06-.25z" stroke="#82755b" stroke-width=".05" fill="#82755b"/><path d="M531.28 740v-97.1" stroke="#82755b" stroke-width="2" fill="none"/><path d="M531.28 755.26L526.64 741h9.27z" stroke="#82755b" stroke-width="2" fill="#82755b"/><path d="M531.84 642.12l.4.1v.7h-1.94v-1.44z" stroke="#82755b" stroke-width=".05" fill="#82755b"/><path d="M572.5 742.77l58.73-100.46" stroke="#1071e5" stroke-width="2" fill="none"/><path d="M564.8 755.95l3.2-14.65 8 4.67z" stroke="#1071e5" stroke-width="2" fill="#1071e5"/><path d="M632.64 641.82l-.58 1-1.7-.98.46-.77z" stroke="#1071e5" stroke-width=".05" fill="#1071e5"/><defs><linearGradient gradientUnits="userSpaceOnUse" id="a" x1="620" y1="578.33" x2="620" y2="641.67"><stop offset="59.29%" stop-color="#cfe4ff"/><stop offset="70.71%" stop-color="#ced4db"/></linearGradient><path d="M205 0l-28-72H64L36 0H1l101-248h38L239 0h-34zm-38-99l-47-123c-12 45-31 82-46 123h93" id="j"/><path d="M96-169c-40 0-48 33-48 73s9 75 48 75c24 0 41-14 43-38l32 2c-6 37-31 61-74 61-59 0-76-41-82-99-10-93 101-131 147-64 4 7 5 14 7 22l-32 3c-4-21-16-35-41-35" id="k"/><path d="M59-47c-2 24 18 29 38 22v24C64 9 27 4 27-40v-127H5v-23h24l9-43h21v43h35v23H59v120" id="l"/><path d="M100-194c62-1 85 37 85 99 1 63-27 99-86 99S16-35 15-95c0-66 28-99 85-99zM99-20c44 1 53-31 53-75 0-43-8-75-51-75s-53 32-53 75 10 74 51 75" id="m"/><path d="M114-163C36-179 61-72 57 0H25l-1-190h30c1 12-1 29 2 39 6-27 23-49 58-41v29" id="n"/><g id="b"><use transform="matrix(0.06172839506172839,0,0,0.06172839506172839,0,0)" xlink:href="#j"/><use transform="matrix(0.06172839506172839,0,0,0.06172839506172839,14.814814814814813,0)" xlink:href="#k"/><use transform="matrix(0.06172839506172839,0,0,0.06172839506172839,25.925925925925924,0)" xlink:href="#l"/><use transform="matrix(0.06172839506172839,0,0,0.06172839506172839,32.098765432098766,0)" xlink:href="#m"/><use transform="matrix(0.06172839506172839,0,0,0.06172839506172839,44.44444444444444,0)" xlink:href="#n"/></g><path d="M212-179c-10-28-35-45-73-45-59 0-87 40-87 99 0 60 29 101 89 101 43 0 62-24 78-52l27 14C228-24 195 4 139 4 59 4 22-46 18-125c-6-104 99-153 187-111 19 9 31 26 39 46" id="o"/><use transform="matrix(0.06172839506172839,0,0,0.06172839506172839,0,0)" xlink:href="#o" id="c"/><path d="M240 0l2-218c-23 76-54 145-80 218h-23L58-218 59 0H30v-248h44l77 211c21-75 51-140 76-211h43V0h-30" id="p"/><path d="M135-143c-3-34-86-38-87 0 15 53 115 12 119 90S17 21 10-45l28-5c4 36 97 45 98 0-10-56-113-15-118-90-4-57 82-63 122-42 12 7 21 19 24 35" id="q"/><path d="M177-190C167-65 218 103 67 71c-23-6-38-20-44-43l32-5c15 47 100 32 89-28v-30C133-14 115 1 83 1 29 1 15-40 15-95c0-56 16-97 71-98 29-1 48 16 59 35 1-10 0-23 2-32h30zM94-22c36 0 50-32 50-73 0-42-14-75-50-75-39 0-46 34-46 75s6 73 46 73" id="r"/><g id="d"><use transform="matrix(0.06172839506172839,0,0,0.06172839506172839,0,0)" xlink:href="#p"/><use transform="matrix(0.06172839506172839,0,0,0.06172839506172839,18.456790123456788,0)" xlink:href="#q"/><use transform="matrix(0.06172839506172839,0,0,0.06172839506172839,29.5679012345679,0)" xlink:href="#r"/></g><path d="M140-251c81 0 123 46 123 126C263-53 228-8 163 1c7 30 30 48 69 40v23c-55 16-95-15-103-61C56-3 17-48 17-125c0-80 42-126 123-126zm0 227c63 0 89-41 89-101s-29-99-89-99c-61 0-89 39-89 99S79-25 140-24" id="s"/><path d="M84 4C-5 8 30-112 23-190h32v120c0 31 7 50 39 49 72-2 45-101 50-169h31l1 190h-30c-1-10 1-25-2-33-11 22-28 36-60 37" id="t"/><path d="M100-194c63 0 86 42 84 106H49c0 40 14 67 53 68 26 1 43-12 49-29l28 8c-11 28-37 45-77 45C44 4 14-33 15-96c1-61 26-98 85-98zm52 81c6-60-76-77-97-28-3 7-6 17-6 28h103" id="u"/><g id="e"><use transform="matrix(0.06172839506172839,0,0,0.06172839506172839,0,0)" xlink:href="#s"/><use transform="matrix(0.06172839506172839,0,0,0.06172839506172839,17.28395061728395,0)" xlink:href="#t"/><use transform="matrix(0.06172839506172839,0,0,0.06172839506172839,29.629629629629626,0)" xlink:href="#u"/><use transform="matrix(0.06172839506172839,0,0,0.06172839506172839,41.9753086419753,0)" xlink:href="#t"/><use transform="matrix(0.06172839506172839,0,0,0.06172839506172839,54.32098765432098,0)" xlink:href="#u"/></g><linearGradient gradientUnits="userSpaceOnUse" id="f" x1="518.48" y1="578.33" x2="518.48" y2="641.67"><stop offset="59.29%" stop-color="#cfe4ff"/><stop offset="70.71%" stop-color="#ced4db"/></linearGradient><path d="M160-131c35 5 61 23 61 61C221 17 115-2 30 0v-248c76 3 177-17 177 60 0 33-19 50-47 57zm-97-11c50-1 110 9 110-42 0-47-63-36-110-37v79zm0 115c55-2 124 14 124-45 0-56-70-42-124-44v89" id="v"/><use transform="matrix(0.06172839506172839,0,0,0.06172839506172839,0,0)" xlink:href="#v" id="g"/><linearGradient gradientUnits="userSpaceOnUse" id="h" x1="420" y1="578.33" x2="420" y2="641.67"><stop offset="59.29%" stop-color="#cfe4ff"/><stop offset="70.71%" stop-color="#ced4db"/></linearGradient><use transform="matrix(0.06172839506172839,0,0,0.06172839506172839,0,0)" xlink:href="#j" id="i"/></defs></g></svg>