<svg xmlns="http://www.w3.org/2000/svg" xmlns:xlink="http://www.w3.org/1999/xlink" xmlns:lucid="lucid" width="280.97" height="363"><g transform="translate(-719.9934072841387 -438.5)" lucid:page-tab-id="0_0"><path d="M721.97 560a20 20 0 0 1 20-20h237.5a20 20 0 0 1 20 20v120a20 20 0 0 1-20 20h-237.5a20 20 0 0 1-20-20z" stroke="#1071e5" stroke-width="3" fill="url(#a)"/><use xlink:href="#b" transform="matrix(1,0,0,1,726.9713919339429,545) translate(105.18518518518519 82.27083333333334)"/><path d="M792 502.5v21.84M788 502.5v21.84" stroke="#1071e5" stroke-width="2" fill="none"/><path d="M792.98 502.53H791v-1.03H793zM788.98 502.53H787v-1.03H789z" stroke="#1071e5" stroke-width=".05" fill="#1071e5"/><path d="M800 519.18l-10 17.32-10-17.32m10 17.32V528M928.1 537.5v-21.84M932.1 537.5v-21.84" stroke="#1071e5" stroke-width="2" fill="none"/><path d="M929.07 538.5h-1.96v-1.03h1.97zM933.07 538.5h-1.96v-1.03h1.97z" stroke="#1071e5" stroke-width=".05" fill="#1071e5"/><path d="M920.1 520.82l10-17.32 10 17.32m-10-17.32v8.5M860.7 702.5l-.1 17.5" stroke="#1071e5" stroke-width="2" fill="none"/><path d="M861.68 702.53h-1.94v-1.03h1.95z" stroke="#1071e5" stroke-width=".05" fill="#1071e5"/><path d="M860.5 735.26l-4.54-14.3 9.27.07z" stroke="#1071e5" stroke-width="2" fill="#1071e5"/><path d="M960.96 702.5V720" stroke="#1071e5" stroke-width="2" fill="none"/><path d="M961.93 702.53h-1.95v-1.03h1.95z" stroke="#1071e5" stroke-width=".05" fill="#1071e5"/><path d="M960.96 735.26L956.32 721h9.27z" stroke="#1071e5" stroke-width="2" fill="#1071e5"/><path d="M762.13 702.5V720" stroke="#1071e5" stroke-width="2" fill="none"/><path d="M763.1 702.53h-1.94v-1.03h1.95z" stroke="#1071e5" stroke-width=".05" fill="#1071e5"/><path d="M762.13 735.26L757.5 721h9.27z" stroke="#1071e5" stroke-width="2" fill="#1071e5"/><path d="M732.13 760a20 20 0 0 1 20-20h20a20 20 0 0 1 20 20 20 20 0 0 1-20 20h-20a20 20 0 0 1-20-20z" stroke="#1071e5" stroke-width="3" fill="url(#c)" transform="matrix(-1,1.2246467991473532e-16,-1.2246467991473532e-16,-1,1524.2640687119285,1520)"/><path d="M830.48 760a20 20 0 0 1 20-20h20a20 20 0 0 1 20 20 20 20 0 0 1-20 20h-20a20 20 0 0 1-20-20z" stroke="#1071e5" stroke-width="3" fill="url(#d)" transform="matrix(-1,1.2246467991473532e-16,-1.2246467991473532e-16,-1,1720.9559692996081,1520)"/><path d="M930.96 760a20 20 0 0 1 20-20h20a20 20 0 0 1 20 20 20 20 0 0 1-20 20h-20a20 20 0 0 1-20-20z" stroke="#1071e5" stroke-width="3" fill="url(#e)" transform="matrix(-1,1.2246467991473532e-16,-1.2246467991473532e-16,-1,1921.9119385992162,1520)"/><path d="M798.5 780a20 20 0 0 1-20 20h-37a20 20 0 0 1-20-20 20 20 0 0 1 20-20h37a20 20 0 0 1 20 20z" stroke="#000" stroke-width="3" fill="#dfe3e8"/><use xlink:href="#f" transform="matrix(1,-2.4492935982947064e-16,2.4492935982947064e-16,1,726.4934072841387,765) translate(13.168580246913576 21.430555555555557)"/><use xlink:href="#g" transform="matrix(1,-2.4492935982947064e-16,2.4492935982947064e-16,1,726.4934072841387,765) translate(19.9587037037037 21.430555555555557)"/><path d="M898.98 780a20 20 0 0 1-20 20h-37a20 20 0 0 1-20-20 20 20 0 0 1 20-20h37a20 20 0 0 1 20 20z" stroke="#000" stroke-width="3" fill="#fff"/><use xlink:href="#h" transform="matrix(1,-2.4492935982947064e-16,2.4492935982947064e-16,1,826.9713919339429,765) translate(9.094506172839504 21.430555555555557)"/><path d="M999.46 780a20 20 0 0 1-20 20h-37a20 20 0 0 1-20-20 20 20 0 0 1 20-20h37a20 20 0 0 1 20 20z" stroke="#000" stroke-width="3" fill="#fff"/><use xlink:href="#i" transform="matrix(1,-2.4492935982947064e-16,2.4492935982947064e-16,1,927.4493765837469,765) translate(9.094506172839504 21.430555555555557)"/><path d="M760 480a20 20 0 0 1 20-20h20a20 20 0 0 1 20 20 20 20 0 0 1-20 20h-20a20 20 0 0 1-20-20z" stroke="#1071e5" stroke-width="3" fill="url(#j)"/><path d="M899 480a20 20 0 0 1 20-20h20a20 20 0 0 1 20 20 20 20 0 0 1-20 20h-20a20 20 0 0 1-20-20z" stroke="#1071e5" stroke-width="3" fill="url(#k)"/><path d="M741.97 460a20 20 0 0 1 20-20H820a20 20 0 0 1 20 20 20 20 0 0 1-20 20h-58.03a20 20 0 0 1-20-20z" stroke="#000" stroke-width="3" fill="#fff"/><use xlink:href="#l" transform="matrix(1,0,0,1,746.9713919339429,445) translate(16.844506172839502 21.430555555555557)"/><path d="M880 460a20 20 0 0 1 20-20h58.03a20 20 0 0 1 20 20 20 20 0 0 1-20 20H900a20 20 0 0 1-20-20z" stroke="#000" stroke-width="3" fill="#fff"/><use xlink:href="#m" transform="matrix(1,0,0,1,885,445) translate(7.338333333333326 21.430555555555557)"/><defs><linearGradient gradientUnits="userSpaceOnUse" id="a" x1="721.97" y1="540" x2="721.97" y2="700"><stop offset="23.91%" stop-color="#c3f7c8"/><stop offset="39.49%" stop-color="#cfe4ff"/></linearGradient><path d="M212-179c-10-28-35-45-73-45-59 0-87 40-87 99 0 60 29 101 89 101 43 0 62-24 78-52l27 14C228-24 195 4 139 4 59 4 22-46 18-125c-6-104 99-153 187-111 19 9 31 26 39 46" id="n"/><path d="M100-194c62-1 85 37 85 99 1 63-27 99-86 99S16-35 15-95c0-66 28-99 85-99zM99-20c44 1 53-31 53-75 0-43-8-75-51-75s-53 32-53 75 10 74 51 75" id="o"/><path d="M114-163C36-179 61-72 57 0H25l-1-190h30c1 12-1 29 2 39 6-27 23-49 58-41v29" id="p"/><path d="M100-194c63 0 86 42 84 106H49c0 40 14 67 53 68 26 1 43-12 49-29l28 8c-11 28-37 45-77 45C44 4 14-33 15-96c1-61 26-98 85-98zm52 81c6-60-76-77-97-28-3 7-6 17-6 28h103" id="q"/><g id="b"><use transform="matrix(0.07407407407407408,0,0,0.07407407407407408,0,0)" xlink:href="#n"/><use transform="matrix(0.07407407407407408,0,0,0.07407407407407408,19.185185185185187,0)" xlink:href="#o"/><use transform="matrix(0.07407407407407408,0,0,0.07407407407407408,34,0)" xlink:href="#p"/><use transform="matrix(0.07407407407407408,0,0,0.07407407407407408,42.814814814814824,0)" xlink:href="#q"/></g><linearGradient gradientUnits="userSpaceOnUse" id="c" x1="732.13" y1="740" x2="732.13" y2="780"><stop offset="73.57%" stop-color="#fff"/><stop offset="89.29%" stop-color="#6db1ff"/></linearGradient><linearGradient gradientUnits="userSpaceOnUse" id="d" x1="830.48" y1="740" x2="830.48" y2="780"><stop offset="73.57%" stop-color="#fff"/><stop offset="89.29%" stop-color="#6db1ff"/></linearGradient><linearGradient gradientUnits="userSpaceOnUse" id="e" x1="930.96" y1="740" x2="930.96" y2="780"><stop offset="73.57%" stop-color="#fff"/><stop offset="89.29%" stop-color="#6db1ff"/></linearGradient><path d="M30-248c118-7 216 8 213 122C240-48 200 0 122 0H30v-248zM63-27c89 8 146-16 146-99s-60-101-146-95v194" id="r"/><path d="M160-131c35 5 61 23 61 61C221 17 115-2 30 0v-248c76 3 177-17 177 60 0 33-19 50-47 57zm-97-11c50-1 110 9 110-42 0-47-63-36-110-37v79zm0 115c55-2 124 14 124-45 0-56-70-42-124-44v89" id="s"/><g id="g"><use transform="matrix(0.06790123456790124,0,0,0.06790123456790124,0,0)" xlink:href="#r"/><use transform="matrix(0.06790123456790124,0,0,0.06790123456790124,17.58641975308642,0)" xlink:href="#s"/></g><path d="M30 0v-248h33v221h125V0H30" id="t"/><path d="M24-231v-30h32v30H24zM24 0v-190h32V0H24" id="u"/><path d="M115-194c53 0 69 39 70 98 0 66-23 100-70 100C84 3 66-7 56-30L54 0H23l1-261h32v101c10-23 28-34 59-34zm-8 174c40 0 45-34 45-75 0-40-5-75-45-74-42 0-51 32-51 76 0 43 10 73 51 73" id="v"/><path d="M195 0l-74-108L45 0H8l94-129-87-119h37l69 98 67-98h37l-84 118L233 0h-38" id="w"/><g id="h"><use transform="matrix(0.06790123456790124,0,0,0.06790123456790124,0,0)" xlink:href="#t"/><use transform="matrix(0.06790123456790124,0,0,0.06790123456790124,13.580246913580249,0)" xlink:href="#u"/><use transform="matrix(0.06790123456790124,0,0,0.06790123456790124,18.944444444444446,0)" xlink:href="#v"/><use transform="matrix(0.06790123456790124,0,0,0.06790123456790124,32.5246913580247,0)" xlink:href="#w"/></g><path d="M137-103V0h-34v-103L8-248h37l75 118 75-118h37" id="x"/><g id="i"><use transform="matrix(0.06790123456790124,0,0,0.06790123456790124,0,0)" xlink:href="#t"/><use transform="matrix(0.06790123456790124,0,0,0.06790123456790124,13.580246913580249,0)" xlink:href="#u"/><use transform="matrix(0.06790123456790124,0,0,0.06790123456790124,18.944444444444446,0)" xlink:href="#v"/><use transform="matrix(0.06790123456790124,0,0,0.06790123456790124,32.5246913580247,0)" xlink:href="#x"/></g><linearGradient gradientUnits="userSpaceOnUse" id="j" x1="760" y1="460" x2="760" y2="500"><stop offset="73.57%" stop-color="#fff"/><stop offset="89.29%" stop-color="#6db1ff"/></linearGradient><linearGradient gradientUnits="userSpaceOnUse" id="k" x1="899.01" y1="460" x2="899.01" y2="500"><stop offset="73.57%" stop-color="#fff"/><stop offset="89.29%" stop-color="#6db1ff"/></linearGradient><path d="M33 0v-248h34V0H33" id="y"/><path d="M117-194c89-4 53 116 60 194h-32v-121c0-31-8-49-39-48C34-167 62-67 57 0H25l-1-190h30c1 10-1 24 2 32 11-22 29-35 61-36" id="z"/><path d="M115-194c55 1 70 41 70 98S169 2 115 4C84 4 66-9 55-30l1 105H24l-1-265h31l2 30c10-21 28-34 59-34zm-8 174c40 0 45-34 45-75s-6-73-45-74c-42 0-51 32-51 76 0 43 10 73 51 73" id="A"/><path d="M84 4C-5 8 30-112 23-190h32v120c0 31 7 50 39 49 72-2 45-101 50-169h31l1 190h-30c-1-10 1-25-2-33-11 22-28 36-60 37" id="B"/><path d="M59-47c-2 24 18 29 38 22v24C64 9 27 4 27-40v-127H5v-23h24l9-43h21v43h35v23H59v120" id="C"/><g id="l"><use transform="matrix(0.06790123456790124,0,0,0.06790123456790124,0,0)" xlink:href="#y"/><use transform="matrix(0.06790123456790124,0,0,0.06790123456790124,6.790123456790124,0)" xlink:href="#z"/><use transform="matrix(0.06790123456790124,0,0,0.06790123456790124,20.370370370370374,0)" xlink:href="#A"/><use transform="matrix(0.06790123456790124,0,0,0.06790123456790124,33.95061728395062,0)" xlink:href="#B"/><use transform="matrix(0.06790123456790124,0,0,0.06790123456790124,47.530864197530875,0)" xlink:href="#C"/></g><path d="M140-251c81 0 123 46 123 126C263-46 219 4 140 4 59 4 17-45 17-125s42-126 123-126zm0 227c63 0 89-41 89-101s-29-99-89-99c-61 0-89 39-89 99S79-25 140-24" id="D"/><g id="m"><use transform="matrix(0.06790123456790124,0,0,0.06790123456790124,0,0)" xlink:href="#D"/><use transform="matrix(0.06790123456790124,0,0,0.06790123456790124,19.01234567901235,0)" xlink:href="#B"/><use transform="matrix(0.06790123456790124,0,0,0.06790123456790124,32.592592592592595,0)" xlink:href="#C"/><use transform="matrix(0.06790123456790124,0,0,0.06790123456790124,39.38271604938272,0)" xlink:href="#A"/><use transform="matrix(0.06790123456790124,0,0,0.06790123456790124,52.96296296296297,0)" xlink:href="#B"/><use transform="matrix(0.06790123456790124,0,0,0.06790123456790124,66.54320987654322,0)" xlink:href="#C"/></g></defs></g></svg>