<svg xmlns="http://www.w3.org/2000/svg" xmlns:xlink="http://www.w3.org/1999/xlink" xmlns:lucid="lucid" width="303.03" height="303"><g transform="translate(-458.5 -498.5)" lucid:page-tab-id="0_0"><path d="M600 662.5V680" stroke="#008a0e" stroke-width="2" fill="none"/><path d="M600.98 662.53H599v-1.03H601z" stroke="#008a0e" stroke-width=".05" fill="#008a0e"/><path d="M600 695.26L595.37 681h9.26z" stroke="#008a0e" stroke-width="2" fill="#008a0e"/><path d="M721.27 662.4V680" stroke="#008a0e" stroke-width="2" fill="none"/><path d="M722.25 662.43h-1.96v-.95l1.95-.15z" stroke="#008a0e" stroke-width=".05" fill="#008a0e"/><path d="M721.27 695.26L716.64 681h9.26z" stroke="#008a0e" stroke-width="2" fill="#008a0e"/><path d="M483.2 662.5V680" stroke="#008a0e" stroke-width="2" fill="none"/><path d="M484.18 662.53h-1.95v-1.03h1.94z" stroke="#008a0e" stroke-width=".05" fill="#008a0e"/><path d="M483.2 695.26L478.57 681h9.26z" stroke="#008a0e" stroke-width="2" fill="#008a0e"/><path d="M500.8 680.05V642.5" stroke="#1071e5" stroke-width="2" fill="none"/><path d="M500.8 695.32l-4.63-14.27h9.26z" stroke="#1071e5" stroke-width="2" fill="#1071e5"/><path d="M499.98 641.5h1.8v1.03h-1.95v-1.04z" stroke="#1071e5" stroke-width=".05" fill="#1071e5"/><path d="M618.4 680v-37.5" stroke="#1071e5" stroke-width="2" fill="none"/><path d="M618.4 695.26L613.77 681h9.26z" stroke="#1071e5" stroke-width="2" fill="#1071e5"/><path d="M619.38 642.53h-1.96v-1.03h1.96z" stroke="#1071e5" stroke-width=".05" fill="#1071e5"/><path d="M740.48 680.03v-37.56" stroke="#1071e5" stroke-width="2" fill="none"/><path d="M740.48 695.3l-4.64-14.27h9.27z" stroke="#1071e5" stroke-width="2" fill="#1071e5"/><path d="M741.45 642.5h-1.95v-1h.6l1.35-.1z" stroke="#1071e5" stroke-width=".05" fill="#1071e5"/><path d="M480.04 620a20 20 0 0 1 20-20h240a20 20 0 0 1 20 20 20 20 0 0 1-20 20h-240a20 20 0 0 1-20-20z" stroke="#1071e5" stroke-width="3" fill="#fff"/><use xlink:href="#a" transform="matrix(1,0,0,1,485.03488266427917,605) translate(83.86302469135802 19.65277777777778)"/><path d="M460 640a20 20 0 0 1 20-20h240a20 20 0 0 1 20 20 20 20 0 0 1-20 20H480a20 20 0 0 1-20-20z" stroke="#008a0e" stroke-width="3" fill="#fff"/><use xlink:href="#a" transform="matrix(1,0,0,1,465,625) translate(83.86302469135802 19.65277777777778)"/><path d="M462.52 540a20 20 0 0 1 20-20h77.5a20 20 0 0 1 20 20 20 20 0 0 1-20 20h-77.5a20 20 0 0 1-20-20z" stroke="#008a0e" stroke-width="3" fill="#c3f7c8"/><use xlink:href="#b" transform="matrix(1,0,0,1,467.517488261964,525) translate(15.17783950617284 19.65277777777778)"/><use xlink:href="#c" transform="matrix(1,0,0,1,467.517488261964,525) translate(78.01734567901235 19.65277777777778)"/><path d="M520.77 600v-37.5" stroke="#008a0e" stroke-width="2" fill="none"/><path d="M520.77 615.26L516.13 601h9.27z" stroke="#008a0e" stroke-width="2" fill="#008a0e"/><path d="M521.74 562.53h-1.95v-1.03h1.94z" stroke="#008a0e" stroke-width=".05" fill="#008a0e"/><path d="M460.04 720a20 20 0 0 1 20-20h20a20 20 0 0 1 20 20v60a20 20 0 0 1-20 20h-20a20 20 0 0 1-20-20z" stroke="#000" stroke-width="3" fill="#cfe4ff"/><use xlink:href="#d" transform="matrix(-1.8369701987210297e-16,-1,1,-1.8369701987210297e-16,465.03488266427917,795.0000000000001) translate(19.72222222222222 30.27777777777778)"/><use xlink:href="#e" transform="matrix(-1.8369701987210297e-16,-1,1,-1.8369701987210297e-16,465.03488266427917,795.0000000000001) translate(55.46296296296296 30.27777777777778)"/><path d="M580.03 720a20 20 0 0 1 20-20h20a20 20 0 0 1 20 20v60a20 20 0 0 1-20 20h-20a20 20 0 0 1-20-20z" stroke="#000" stroke-width="3" fill="#fff"/><use xlink:href="#d" transform="matrix(-1.8369701987210297e-16,-1,1,-1.8369701987210297e-16,585.0348826642792,795.0000000000001) translate(19.72222222222222 30.27777777777778)"/><use xlink:href="#f" transform="matrix(-1.8369701987210297e-16,-1,1,-1.8369701987210297e-16,585.0348826642792,795.0000000000001) translate(55.46296296296296 30.27777777777778)"/><path d="M700.03 720a20 20 0 0 1 20-20h20a20 20 0 0 1 20 20v60a20 20 0 0 1-20 20h-20a20 20 0 0 1-20-20z" stroke="#000" stroke-width="3" fill="#cfe4ff"/><use xlink:href="#d" transform="matrix(-1.8369701987210297e-16,-1,1,-1.8369701987210297e-16,705.0348826642792,795.0000000000001) translate(20.37037037037037 30.27777777777778)"/><use xlink:href="#g" transform="matrix(-1.8369701987210297e-16,-1,1,-1.8369701987210297e-16,705.0348826642792,795.0000000000001) translate(56.111111111111114 30.27777777777778)"/><path d="M640.03 520a20 20 0 0 1 20-20h80a20 20 0 0 1 20 20 20 20 0 0 1-20 20h-80a20 20 0 0 1-20-20z" stroke="#1071e5" stroke-width="3" fill="#c3f7c8"/><use xlink:href="#b" transform="matrix(1,0,0,1,645.0348826642792,505) translate(16.17783950617284 19.65277777777778)"/><use xlink:href="#h" transform="matrix(1,0,0,1,645.0348826642792,505) translate(79.01734567901235 19.65277777777778)"/><path d="M700.03 580v-37.5" stroke="#1071e5" stroke-width="2" fill="none"/><path d="M700.03 595.26L695.4 581h9.27z" stroke="#1071e5" stroke-width="2" fill="#1071e5"/><path d="M701 542.53h-1.94v-1.03H701z" stroke="#1071e5" stroke-width=".05" fill="#1071e5"/><path d="M461 580h3.92m7.84 0h7.85m7.85 0h7.84m7.83 0h7.84m7.85 0h7.84m7.84 0h7.84m7.84 0h7.85m7.84 0h7.84m7.85 0h7.85m7.84 0h7.84m7.84 0h7.84m7.85 0h7.85m7.84 0h7.83m7.84 0h7.85m7.84 0h7.84m7.84 0h7.84m7.85 0h7.84m7.84 0h7.85m7.85 0h7.84m7.84 0H759M461.03 580H460M758.97 580H760" stroke="#ba23f6" stroke-width="2" fill="none"/><defs><path d="M33 0v-248h34V0H33" id="i"/><path d="M117-194c89-4 53 116 60 194h-32v-121c0-31-8-49-39-48C34-167 62-67 57 0H25l-1-190h30c1 10-1 24 2 32 11-22 29-35 61-36" id="j"/><path d="M59-47c-2 24 18 29 38 22v24C64 9 27 4 27-40v-127H5v-23h24l9-43h21v43h35v23H59v120" id="k"/><path d="M100-194c63 0 86 42 84 106H49c0 40 14 67 53 68 26 1 43-12 49-29l28 8c-11 28-37 45-77 45C44 4 14-33 15-96c1-61 26-98 85-98zm52 81c6-60-76-77-97-28-3 7-6 17-6 28h103" id="l"/><path d="M114-163C36-179 61-72 57 0H25l-1-190h30c1 12-1 29 2 39 6-27 23-49 58-41v29" id="m"/><path d="M115-194c55 1 70 41 70 98S169 2 115 4C84 4 66-9 55-30l1 105H24l-1-265h31l2 30c10-21 28-34 59-34zm-8 174c40 0 45-34 45-75s-6-73-45-74c-42 0-51 32-51 76 0 43 10 73 51 73" id="n"/><g id="a"><use transform="matrix(0.06172839506172839,0,0,0.06172839506172839,0,0)" xlink:href="#i"/><use transform="matrix(0.06172839506172839,0,0,0.06172839506172839,6.172839506172839,0)" xlink:href="#j"/><use transform="matrix(0.06172839506172839,0,0,0.06172839506172839,18.51851851851852,0)" xlink:href="#k"/><use transform="matrix(0.06172839506172839,0,0,0.06172839506172839,24.691358024691358,0)" xlink:href="#l"/><use transform="matrix(0.06172839506172839,0,0,0.06172839506172839,37.03703703703704,0)" xlink:href="#m"/><use transform="matrix(0.06172839506172839,0,0,0.06172839506172839,44.382716049382715,0)" xlink:href="#n"/><use transform="matrix(0.06172839506172839,0,0,0.06172839506172839,56.72839506172839,0)" xlink:href="#m"/><use transform="matrix(0.06172839506172839,0,0,0.06172839506172839,64.07407407407408,0)" xlink:href="#l"/><use transform="matrix(0.06172839506172839,0,0,0.06172839506172839,76.41975308641976,0)" xlink:href="#k"/><use transform="matrix(0.06172839506172839,0,0,0.06172839506172839,82.5925925925926,0)" xlink:href="#l"/><use transform="matrix(0.06172839506172839,0,0,0.06172839506172839,94.93827160493828,0)" xlink:href="#m"/></g><path d="M185-189c-5-48-123-54-124 2 14 75 158 14 163 119 3 78-121 87-175 55-17-10-28-26-33-46l33-7c5 56 141 63 141-1 0-78-155-14-162-118-5-82 145-84 179-34 5 7 8 16 11 25" id="o"/><path d="M96-169c-40 0-48 33-48 73s9 75 48 75c24 0 41-14 43-38l32 2c-6 37-31 61-74 61-59 0-76-41-82-99-10-93 101-131 147-64 4 7 5 14 7 22l-32 3c-4-21-16-35-41-35" id="p"/><path d="M24-231v-30h32v30H24zM24 0v-190h32V0H24" id="q"/><g id="b"><use transform="matrix(0.06172839506172839,0,0,0.06172839506172839,0,0)" xlink:href="#o"/><use transform="matrix(0.06172839506172839,0,0,0.06172839506172839,14.814814814814813,0)" xlink:href="#p"/><use transform="matrix(0.06172839506172839,0,0,0.06172839506172839,25.925925925925924,0)" xlink:href="#m"/><use transform="matrix(0.06172839506172839,0,0,0.06172839506172839,33.2716049382716,0)" xlink:href="#q"/><use transform="matrix(0.06172839506172839,0,0,0.06172839506172839,38.148148148148145,0)" xlink:href="#n"/><use transform="matrix(0.06172839506172839,0,0,0.06172839506172839,50.49382716049382,0)" xlink:href="#k"/></g><path d="M205 0l-28-72H64L36 0H1l101-248h38L239 0h-34zm-38-99l-47-123c-12 45-31 82-46 123h93" id="r"/><use transform="matrix(0.06172839506172839,0,0,0.06172839506172839,0,0)" xlink:href="#r" id="c"/><path d="M30 0v-248h33v221h125V0H30" id="s"/><path d="M115-194c53 0 69 39 70 98 0 66-23 100-70 100C84 3 66-7 56-30L54 0H23l1-261h32v101c10-23 28-34 59-34zm-8 174c40 0 45-34 45-75 0-40-5-75-45-74-42 0-51 32-51 76 0 43 10 73 51 73" id="t"/><g id="d"><use transform="matrix(0.06172839506172839,0,0,0.06172839506172839,0,0)" xlink:href="#s"/><use transform="matrix(0.06172839506172839,0,0,0.06172839506172839,12.345679012345679,0)" xlink:href="#q"/><use transform="matrix(0.06172839506172839,0,0,0.06172839506172839,17.22222222222222,0)" xlink:href="#t"/></g><path d="M195 0l-74-108L45 0H8l94-129-87-119h37l69 98 67-98h37l-84 118L233 0h-38" id="u"/><use transform="matrix(0.06172839506172839,0,0,0.06172839506172839,0,0)" xlink:href="#u" id="e"/><path d="M137-103V0h-34v-103L8-248h37l75 118 75-118h37" id="v"/><use transform="matrix(0.06172839506172839,0,0,0.06172839506172839,0,0)" xlink:href="#v" id="f"/><path d="M209 0H11v-25l151-195H24v-28h176v25L50-27h159V0" id="w"/><use transform="matrix(0.06172839506172839,0,0,0.06172839506172839,0,0)" xlink:href="#w" id="g"/><path d="M160-131c35 5 61 23 61 61C221 17 115-2 30 0v-248c76 3 177-17 177 60 0 33-19 50-47 57zm-97-11c50-1 110 9 110-42 0-47-63-36-110-37v79zm0 115c55-2 124 14 124-45 0-56-70-42-124-44v89" id="x"/><use transform="matrix(0.06172839506172839,0,0,0.06172839506172839,0,0)" xlink:href="#x" id="h"/></defs></g></svg>