<svg xmlns="http://www.w3.org/2000/svg" xmlns:xlink="http://www.w3.org/1999/xlink" xmlns:lucid="lucid" width="303.03" height="323"><g transform="translate(-518.4651173357208 -498.5)" lucid:page-tab-id="0_0"><path d="M521 578.6h3.92m7.84 0h7.85m7.85 0h7.84m7.83 0h7.84m7.85 0h7.84m7.84 0h7.84m7.84 0h7.85m7.84 0h7.84m7.85 0h7.85m7.84 0h7.84m7.84 0h7.84m7.85 0h7.85m7.84 0h7.83m7.84 0h7.85m7.84 0h7.84m7.84 0h7.84m7.85 0h7.84m7.84 0h7.85m7.85 0h7.84m7.84 0H819M521.03 578.6H520M818.97 578.6H820" stroke="#ba23f6" stroke-width="2" fill="none"/><path d="M519.97 620a20 20 0 0 1 20-20H800a20 20 0 0 1 20 20 20 20 0 0 1-20 20H539.97a20 20 0 0 1-20-20z" stroke="#000" stroke-width="3" fill="#fff"/><use xlink:href="#a" transform="matrix(1,0,0,1,524.9651173357208,605) translate(82.02660493827159 21.430555555555557)"/><path d="M522.48 520a20 20 0 0 1 20-20H620a20 20 0 0 1 20 20v20a20 20 0 0 1-20 20h-77.52a20 20 0 0 1-20-20z" stroke="#000" stroke-width="3" fill="#c3f7c8"/><use xlink:href="#b" transform="matrix(1,0,0,1,527.4826055976848,505) translate(20.728395061728392 28.930555555555557)"/><use xlink:href="#c" transform="matrix(1,0,0,1,527.4826055976848,505) translate(70.97530864197532 28.930555555555557)"/><path d="M700 520a20 20 0 0 1 20-20h80a20 20 0 0 1 20 20v20a20 20 0 0 1-20 20h-80a20 20 0 0 1-20-20z" stroke="#000" stroke-width="3" fill="#c3f7c8"/><use xlink:href="#b" transform="matrix(1,0,0,1,705,505) translate(21.728395061728392 28.930555555555557)"/><use xlink:href="#d" transform="matrix(1,0,0,1,705,505) translate(71.97530864197532 28.930555555555557)"/><path d="M578.37 580v-17.5" stroke="#000" stroke-width="2" fill="none"/><path d="M578.37 595.26L573.74 581H583z" stroke="#000" stroke-width="2"/><path d="M579.35 562.53h-1.95v-1.03h1.95z" stroke="#000" stroke-width=".05"/><path d="M760 580v-17.5" stroke="#000" stroke-width="2" fill="none"/><path d="M760 595.26L755.37 581h9.26z" stroke="#000" stroke-width="2"/><path d="M760.98 562.53H759v-1.03H761z" stroke="#000" stroke-width=".05"/><path d="M520 720a20 20 0 0 1 20-20h20a20 20 0 0 1 20 20v80a20 20 0 0 1-20 20h-20a20 20 0 0 1-20-20z" stroke="#000" stroke-width="3" fill="#cfe4ff"/><use xlink:href="#e" transform="matrix(-1.8369701987210297e-16,-1,1,-1.8369701987210297e-16,525,815.0000000000001) translate(9.608024691358018 28.930555555555557)"/><path d="M640 720a20 20 0 0 1 20-20h20a20 20 0 0 1 20 20v80a20 20 0 0 1-20 20h-20a20 20 0 0 1-20-20z" stroke="#000" stroke-width="3" fill="#fff"/><use xlink:href="#e" transform="matrix(-1.8369701987210297e-16,-1,1,-1.8369701987210297e-16,645,815.0000000000001) translate(9.608024691358018 28.930555555555557)"/><path d="M760 720a20 20 0 0 1 20-20h20a20 20 0 0 1 20 20v80a20 20 0 0 1-20 20h-20a20 20 0 0 1-20-20z" stroke="#000" stroke-width="3" fill="#cfe4ff"/><use xlink:href="#e" transform="matrix(-1.8369701987210297e-16,-1,1,-1.8369701987210297e-16,765,815.0000000000001) translate(9.608024691358018 28.930555555555557)"/><path d="M672 655.66v28.68M668 655.66v28.68M660 660.82l9.98-17.32 10 17.32m-10-17.32v8.5M680 679.18l-10 17.32-10-17.32m10 17.32V688M792 655.66v28.68M788 655.66v28.68M780 660.82l10-17.32 10 17.32m-10-17.32v8.5M800 679.18l-10 17.32-10-17.32m10 17.32V688M552.96 655.66v28.68M548.96 655.66v28.68M540.96 660.82l10-17.32 10 17.32m-10-17.32v8.5M560.96 679.18l-10 17.32-10-17.32m10 17.32V688M595.66 758h9.56m9.56 0h9.56M595.66 762h9.56m9.56 0h9.56M600.82 770l-17.32-10 17.32-10m-17.32 10h8.5M619.18 750l17.32 10-17.32 10m17.32-10H628M715.66 758h9.56m9.56 0h9.56M715.66 762h9.56m9.56 0h9.56M720.82 770l-17.32-10 17.32-10m-17.32 10h8.5M739.18 750l17.32 10-17.32 10m17.32-10H748M655.66 528h9.56m9.56 0h9.56M655.66 532h9.56m9.56 0h9.56M660.82 540l-17.32-10 17.32-10m-17.32 10h8.5M679.18 520l17.32 10-17.32 10m17.32-10H688" stroke="#000" stroke-width="2" fill="none"/><defs><path d="M240 0l2-218c-23 76-54 145-80 218h-23L58-218 59 0H30v-248h44l77 211c21-75 51-140 76-211h43V0h-30" id="f"/><path d="M24-231v-30h32v30H24zM24 0v-190h32V0H24" id="g"/><path d="M96-169c-40 0-48 33-48 73s9 75 48 75c24 0 41-14 43-38l32 2c-6 37-31 61-74 61-59 0-76-41-82-99-10-93 101-131 147-64 4 7 5 14 7 22l-32 3c-4-21-16-35-41-35" id="h"/><path d="M114-163C36-179 61-72 57 0H25l-1-190h30c1 12-1 29 2 39 6-27 23-49 58-41v29" id="i"/><path d="M100-194c62-1 85 37 85 99 1 63-27 99-86 99S16-35 15-95c0-66 28-99 85-99zM99-20c44 1 53-31 53-75 0-43-8-75-51-75s-53 32-53 75 10 74 51 75" id="j"/><path d="M143 0L79-87 56-68V0H24v-261h32v163l83-92h37l-77 82L181 0h-38" id="k"/><path d="M100-194c63 0 86 42 84 106H49c0 40 14 67 53 68 26 1 43-12 49-29l28 8c-11 28-37 45-77 45C44 4 14-33 15-96c1-61 26-98 85-98zm52 81c6-60-76-77-97-28-3 7-6 17-6 28h103" id="l"/><path d="M117-194c89-4 53 116 60 194h-32v-121c0-31-8-49-39-48C34-167 62-67 57 0H25l-1-190h30c1 10-1 24 2 32 11-22 29-35 61-36" id="m"/><path d="M24 0v-261h32V0H24" id="n"/><g id="a"><use transform="matrix(0.06790123456790124,0,0,0.06790123456790124,0,0)" xlink:href="#f"/><use transform="matrix(0.06790123456790124,0,0,0.06790123456790124,20.302469135802472,0)" xlink:href="#g"/><use transform="matrix(0.06790123456790124,0,0,0.06790123456790124,25.66666666666667,0)" xlink:href="#h"/><use transform="matrix(0.06790123456790124,0,0,0.06790123456790124,37.88888888888889,0)" xlink:href="#i"/><use transform="matrix(0.06790123456790124,0,0,0.06790123456790124,45.96913580246914,0)" xlink:href="#j"/><use transform="matrix(0.06790123456790124,0,0,0.06790123456790124,59.54938271604939,0)" xlink:href="#k"/><use transform="matrix(0.06790123456790124,0,0,0.06790123456790124,71.77160493827162,0)" xlink:href="#l"/><use transform="matrix(0.06790123456790124,0,0,0.06790123456790124,85.35185185185186,0)" xlink:href="#i"/><use transform="matrix(0.06790123456790124,0,0,0.06790123456790124,93.43209876543212,0)" xlink:href="#m"/><use transform="matrix(0.06790123456790124,0,0,0.06790123456790124,107.01234567901238,0)" xlink:href="#l"/><use transform="matrix(0.06790123456790124,0,0,0.06790123456790124,120.59259259259262,0)" xlink:href="#n"/></g><path d="M205 0l-28-72H64L36 0H1l101-248h38L239 0h-34zm-38-99l-47-123c-12 45-31 82-46 123h93" id="o"/><path d="M115-194c55 1 70 41 70 98S169 2 115 4C84 4 66-9 55-30l1 105H24l-1-265h31l2 30c10-21 28-34 59-34zm-8 174c40 0 45-34 45-75s-6-73-45-74c-42 0-51 32-51 76 0 43 10 73 51 73" id="p"/><g id="b"><use transform="matrix(0.06790123456790124,0,0,0.06790123456790124,0,0)" xlink:href="#o"/><use transform="matrix(0.06790123456790124,0,0,0.06790123456790124,16.296296296296298,0)" xlink:href="#p"/><use transform="matrix(0.06790123456790124,0,0,0.06790123456790124,29.876543209876544,0)" xlink:href="#p"/></g><use transform="matrix(0.06790123456790124,0,0,0.06790123456790124,0,0)" xlink:href="#o" id="c"/><path d="M160-131c35 5 61 23 61 61C221 17 115-2 30 0v-248c76 3 177-17 177 60 0 33-19 50-47 57zm-97-11c50-1 110 9 110-42 0-47-63-36-110-37v79zm0 115c55-2 124 14 124-45 0-56-70-42-124-44v89" id="q"/><use transform="matrix(0.06790123456790124,0,0,0.06790123456790124,0,0)" xlink:href="#q" id="d"/><path d="M30-248c87 1 191-15 191 75 0 78-77 80-158 76V0H30v-248zm33 125c57 0 124 11 124-50 0-59-68-47-124-48v98" id="r"/><path d="M108 0H70L1-190h34L89-25l56-165h34" id="s"/><path d="M85-194c31 0 48 13 60 33l-1-100h32l1 261h-30c-2-10 0-23-3-31C134-8 116 4 85 4 32 4 16-35 15-94c0-66 23-100 70-100zm9 24c-40 0-46 34-46 75 0 40 6 74 45 74 42 0 51-32 51-76 0-42-9-74-50-73" id="t"/><g id="e"><use transform="matrix(0.06790123456790124,0,0,0.06790123456790124,0,0)" xlink:href="#r"/><use transform="matrix(0.06790123456790124,0,0,0.06790123456790124,16.296296296296298,0)" xlink:href="#i"/><use transform="matrix(0.06790123456790124,0,0,0.06790123456790124,24.376543209876544,0)" xlink:href="#j"/><use transform="matrix(0.06790123456790124,0,0,0.06790123456790124,37.95679012345679,0)" xlink:href="#s"/><use transform="matrix(0.06790123456790124,0,0,0.06790123456790124,50.17901234567901,0)" xlink:href="#g"/><use transform="matrix(0.06790123456790124,0,0,0.06790123456790124,55.54320987654321,0)" xlink:href="#t"/><use transform="matrix(0.06790123456790124,0,0,0.06790123456790124,69.12345679012346,0)" xlink:href="#l"/><use transform="matrix(0.06790123456790124,0,0,0.06790123456790124,82.70370370370371,0)" xlink:href="#i"/></g></defs></g></svg>