<svg xmlns="http://www.w3.org/2000/svg" xmlns:xlink="http://www.w3.org/1999/xlink" xmlns:lucid="lucid" width="283.54" height="363"><g transform="translate(-498.5 -358.5)" lucid:page-tab-id="0_0"><path d="M610 400a20 20 0 0 1 20-20h20a20 20 0 0 1 20 20 20 20 0 0 1-20 20h-20a20 20 0 0 1-20-20z" stroke="#000" stroke-width="3" fill="url(#a)"/><path d="M500.48 480a20 20 0 0 1 20-20h237.5a20 20 0 0 1 20 20v120a20 20 0 0 1-20 20h-237.5a20 20 0 0 1-20-20z" stroke="#000" stroke-width="3" fill="url(#b)"/><use xlink:href="#c" transform="matrix(1,0,0,1,505.4779846498043,465) translate(105.18518518518519 82.27083333333334)"/><path d="M640.5 622.5V640" stroke="#000" stroke-width="2" fill="none"/><path d="M641.48 622.53h-1.95v-1.03h1.95z" stroke="#000" stroke-width=".05"/><path d="M640.5 655.26L635.88 641h9.27z" stroke="#000" stroke-width="2"/><path d="M740.78 622.5V640" stroke="#000" stroke-width="2" fill="none"/><path d="M741.75 622.53h-1.95v-1.03h1.95z" stroke="#000" stroke-width=".05"/><path d="M740.78 655.26L736.14 641h9.27z" stroke="#000" stroke-width="2"/><path d="M540.64 622.5V640" stroke="#000" stroke-width="2" fill="none"/><path d="M541.6 622.53h-1.94v-1.03h1.95z" stroke="#000" stroke-width=".05"/><path d="M540.64 655.26L536 641h9.27z" stroke="#000" stroke-width="2"/><path d="M510.64 680a20 20 0 0 1 20-20h20a20 20 0 0 1 20 20 20 20 0 0 1-20 20h-20a20 20 0 0 1-20-20z" stroke="#000" stroke-width="3" fill="url(#d)" transform="matrix(-1,1.2246467991473532e-16,-1.2246467991473532e-16,-1,1081.2772541436511,1360)"/><path d="M610.5 680a20 20 0 0 1 20-20h20a20 20 0 0 1 20 20 20 20 0 0 1-20 20h-20a20 20 0 0 1-20-20z" stroke="#000" stroke-width="3" fill="url(#e)" transform="matrix(-1,1.2246467991473532e-16,-1.2246467991473532e-16,-1,1281.0154226343348,1360)"/><path d="M710.78 680a20 20 0 0 1 20-20h20a20 20 0 0 1 20 20 20 20 0 0 1-20 20h-20a20 20 0 0 1-20-20z" stroke="#000" stroke-width="3" fill="url(#f)" transform="matrix(-1,1.2246467991473532e-16,-1.2246467991473532e-16,-1,1481.5528606188655,1360)"/><path d="M580 700a20 20 0 0 1-20 20h-39.52a20 20 0 0 1-20-20 20 20 0 0 1 20-20H560a20 20 0 0 1 20 20z" stroke="#cc4e00" stroke-width="3" fill="#dfe3e8"/><use xlink:href="#g" transform="matrix(1,-2.4492935982947064e-16,2.4492935982947064e-16,1,505.4779846498042,685.0000000000001) translate(19.603765432098765 19.65277777777778)"/><path d="M680 700a20 20 0 0 1-20 20h-39.52a20 20 0 0 1-20-20 20 20 0 0 1 20-20H660a20 20 0 0 1 20 20z" stroke="#cc4e00" stroke-width="3" fill="#fff"/><use xlink:href="#h" transform="matrix(1,-2.4492935982947064e-16,2.4492935982947064e-16,1,605.4779846498042,685.0000000000001) translate(20.22104938271605 19.65277777777778)"/><path d="M780.54 700a20 20 0 0 1-20 20h-39.52a20 20 0 0 1-20-20 20 20 0 0 1 20-20h39.52a20 20 0 0 1 20 20z" stroke="#cc4e00" stroke-width="3" fill="#fff"/><use xlink:href="#i" transform="matrix(1,-2.4492935982947064e-16,2.4492935982947064e-16,1,706.0154226343348,685) translate(16.486481481481484 19.65277777777778)"/><path d="M508.5 400a20 20 0 0 1 20-20h20a20 20 0 0 1 20 20 20 20 0 0 1-20 20h-20a20 20 0 0 1-20-20z" stroke="#000" stroke-width="3" fill="url(#j)"/><path d="M709.46 400a20 20 0 0 1 20-20h20a20 20 0 0 1 20 20 20 20 0 0 1-20 20h-20a20 20 0 0 1-20-20z" stroke="#000" stroke-width="3" fill="url(#k)"/><path d="M500 380a20 20 0 0 1 20-20h40.42a20 20 0 0 1 20 20 20 20 0 0 1-20 20H520a20 20 0 0 1-20-20z" stroke="#cc4e00" stroke-width="3" fill="#fff"/><use xlink:href="#l" transform="matrix(1,0,0,1,505,365) translate(18.251913580246917 19.65277777777778)"/><path d="M700 380a20 20 0 0 1 20-20h40a20 20 0 0 1 20 20 20 20 0 0 1-20 20h-40a20 20 0 0 1-20-20z" stroke="#cc4e00" stroke-width="3" fill="#fff"/><use xlink:href="#m" transform="matrix(1,0,0,1,705,365) translate(15.28277777777778 19.65277777777778)"/><path d="M600.2 380a20 20 0 0 1 20-20h40a20 20 0 0 1 20 20 20 20 0 0 1-20 20h-40a20 20 0 0 1-20-20z" stroke="#cc4e00" stroke-width="3" fill="#fff"/><use xlink:href="#n" transform="matrix(1,0,0,1,605.2092656575389,365) translate(5.437098765432102 19.65277777777778)"/><path d="M538.5 422.5V440" stroke="#000" stroke-width="2" fill="none"/><path d="M539.48 422.53h-1.95v-1.03h1.95z" stroke="#000" stroke-width=".05"/><path d="M538.5 455.26L533.88 441h9.27z" stroke="#000" stroke-width="2"/><path d="M640 422.5V440" stroke="#000" stroke-width="2" fill="none"/><path d="M640.98 422.53H639v-1.03H641z" stroke="#000" stroke-width=".05"/><path d="M640 455.26L635.37 441h9.26z" stroke="#000" stroke-width="2"/><path d="M739.46 422.5V440" stroke="#000" stroke-width="2" fill="none"/><path d="M740.44 422.53h-1.95v-1.03h1.94z" stroke="#000" stroke-width=".05"/><path d="M739.46 455.26L734.83 441h9.27z" stroke="#000" stroke-width="2"/><defs><linearGradient gradientUnits="userSpaceOnUse" id="a" x1="610" y1="380" x2="610" y2="420"><stop offset="73.57%" stop-color="#fff"/><stop offset="89.29%" stop-color="#4c535d"/></linearGradient><linearGradient gradientUnits="userSpaceOnUse" id="b" x1="500.48" y1="460" x2="500.48" y2="620"><stop offset="23.91%" stop-color="#c3f7c8"/><stop offset="39.49%" stop-color="#cfe4ff"/></linearGradient><path d="M212-179c-10-28-35-45-73-45-59 0-87 40-87 99 0 60 29 101 89 101 43 0 62-24 78-52l27 14C228-24 195 4 139 4 59 4 22-46 18-125c-6-104 99-153 187-111 19 9 31 26 39 46" id="o"/><path d="M100-194c62-1 85 37 85 99 1 63-27 99-86 99S16-35 15-95c0-66 28-99 85-99zM99-20c44 1 53-31 53-75 0-43-8-75-51-75s-53 32-53 75 10 74 51 75" id="p"/><path d="M114-163C36-179 61-72 57 0H25l-1-190h30c1 12-1 29 2 39 6-27 23-49 58-41v29" id="q"/><path d="M100-194c63 0 86 42 84 106H49c0 40 14 67 53 68 26 1 43-12 49-29l28 8c-11 28-37 45-77 45C44 4 14-33 15-96c1-61 26-98 85-98zm52 81c6-60-76-77-97-28-3 7-6 17-6 28h103" id="r"/><g id="c"><use transform="matrix(0.07407407407407408,0,0,0.07407407407407408,0,0)" xlink:href="#o"/><use transform="matrix(0.07407407407407408,0,0,0.07407407407407408,19.185185185185187,0)" xlink:href="#p"/><use transform="matrix(0.07407407407407408,0,0,0.07407407407407408,34,0)" xlink:href="#q"/><use transform="matrix(0.07407407407407408,0,0,0.07407407407407408,42.814814814814824,0)" xlink:href="#r"/></g><linearGradient gradientUnits="userSpaceOnUse" id="d" x1="510.64" y1="660" x2="510.64" y2="700"><stop offset="73.57%" stop-color="#fff"/><stop offset="89.29%" stop-color="#4c535d"/></linearGradient><linearGradient gradientUnits="userSpaceOnUse" id="e" x1="610.51" y1="660" x2="610.51" y2="700"><stop offset="73.57%" stop-color="#fff"/><stop offset="89.29%" stop-color="#4c535d"/></linearGradient><linearGradient gradientUnits="userSpaceOnUse" id="f" x1="710.78" y1="660" x2="710.78" y2="700"><stop offset="73.57%" stop-color="#fff"/><stop offset="89.29%" stop-color="#4c535d"/></linearGradient><path d="M30-248c118-7 216 8 213 122C240-48 200 0 122 0H30v-248zM63-27c89 8 146-16 146-99s-60-101-146-95v194" id="s"/><path d="M160-131c35 5 61 23 61 61C221 17 115-2 30 0v-248c76 3 177-17 177 60 0 33-19 50-47 57zm-97-11c50-1 110 9 110-42 0-47-63-36-110-37v79zm0 115c55-2 124 14 124-45 0-56-70-42-124-44v89" id="t"/><g id="g"><use transform="matrix(0.06172839506172839,0,0,0.06172839506172839,0,0)" xlink:href="#s"/><use transform="matrix(0.06172839506172839,0,0,0.06172839506172839,15.987654320987653,0)" xlink:href="#t"/></g><path d="M30 0v-248h33v221h125V0H30" id="u"/><path d="M24-231v-30h32v30H24zM24 0v-190h32V0H24" id="v"/><path d="M115-194c53 0 69 39 70 98 0 66-23 100-70 100C84 3 66-7 56-30L54 0H23l1-261h32v101c10-23 28-34 59-34zm-8 174c40 0 45-34 45-75 0-40-5-75-45-74-42 0-51 32-51 76 0 43 10 73 51 73" id="w"/><g id="h"><use transform="matrix(0.06172839506172839,0,0,0.06172839506172839,0,0)" xlink:href="#u"/><use transform="matrix(0.06172839506172839,0,0,0.06172839506172839,12.345679012345679,0)" xlink:href="#v"/><use transform="matrix(0.06172839506172839,0,0,0.06172839506172839,17.22222222222222,0)" xlink:href="#w"/></g><path d="M177-190C167-65 218 103 67 71c-23-6-38-20-44-43l32-5c15 47 100 32 89-28v-30C133-14 115 1 83 1 29 1 15-40 15-95c0-56 16-97 71-98 29-1 48 16 59 35 1-10 0-23 2-32h30zM94-22c36 0 50-32 50-73 0-42-14-75-50-75-39 0-46 34-46 75s6 73 46 73" id="x"/><g id="i"><use transform="matrix(0.06172839506172839,0,0,0.06172839506172839,0,0)" xlink:href="#u"/><use transform="matrix(0.06172839506172839,0,0,0.06172839506172839,12.345679012345679,0)" xlink:href="#p"/><use transform="matrix(0.06172839506172839,0,0,0.06172839506172839,24.691358024691358,0)" xlink:href="#x"/></g><linearGradient gradientUnits="userSpaceOnUse" id="j" x1="508.51" y1="380" x2="508.51" y2="420"><stop offset="73.57%" stop-color="#fff"/><stop offset="89.29%" stop-color="#4c535d"/></linearGradient><linearGradient gradientUnits="userSpaceOnUse" id="k" x1="709.46" y1="380" x2="709.46" y2="420"><stop offset="73.57%" stop-color="#fff"/><stop offset="89.29%" stop-color="#4c535d"/></linearGradient><path d="M33 0v-248h34V0H33" id="y"/><g id="l"><use transform="matrix(0.06172839506172839,0,0,0.06172839506172839,0,0)" xlink:href="#o"/><use transform="matrix(0.06172839506172839,0,0,0.06172839506172839,15.987654320987653,0)" xlink:href="#u"/><use transform="matrix(0.06172839506172839,0,0,0.06172839506172839,28.333333333333332,0)" xlink:href="#y"/></g><path d="M143 4C61 4 22-44 18-125c-5-107 100-154 193-111 17 8 29 25 37 43l-32 9c-13-25-37-40-76-40-61 0-88 39-88 99 0 61 29 100 91 101 35 0 62-11 79-27v-45h-74v-28h105v86C228-13 192 4 143 4" id="z"/><path d="M232-93c-1 65-40 97-104 97C67 4 28-28 28-90v-158h33c8 89-33 224 67 224 102 0 64-133 71-224h33v155" id="A"/><g id="m"><use transform="matrix(0.06172839506172839,0,0,0.06172839506172839,0,0)" xlink:href="#z"/><use transform="matrix(0.06172839506172839,0,0,0.06172839506172839,17.28395061728395,0)" xlink:href="#A"/><use transform="matrix(0.06172839506172839,0,0,0.06172839506172839,33.2716049382716,0)" xlink:href="#y"/></g><path d="M233-177c-1 41-23 64-60 70L243 0h-38l-65-103H63V0H30v-248c88 3 205-21 203 71zM63-129c60-2 137 13 137-47 0-61-80-42-137-45v92" id="B"/><path d="M30 0v-248h187v28H63v79h144v27H63v87h162V0H30" id="C"/><path d="M185-189c-5-48-123-54-124 2 14 75 158 14 163 119 3 78-121 87-175 55-17-10-28-26-33-46l33-7c5 56 141 63 141-1 0-78-155-14-162-118-5-82 145-84 179-34 5 7 8 16 11 25" id="D"/><path d="M127-220V0H93v-220H8v-28h204v28h-85" id="E"/><g id="n"><use transform="matrix(0.06172839506172839,0,0,0.06172839506172839,0,0)" xlink:href="#B"/><use transform="matrix(0.06172839506172839,0,0,0.06172839506172839,15.987654320987653,0)" xlink:href="#C"/><use transform="matrix(0.06172839506172839,0,0,0.06172839506172839,30.80246913580247,0)" xlink:href="#D"/><use transform="matrix(0.06172839506172839,0,0,0.06172839506172839,45.61728395061728,0)" xlink:href="#E"/></g></defs></g></svg>