<svg xmlns="http://www.w3.org/2000/svg" xmlns:xlink="http://www.w3.org/1999/xlink" xmlns:lucid="lucid" width="286" height="221.5"><g transform="translate(-378.5 -578.5)" lucid:page-tab-id="0_0"><path d="M580 643v53.38" stroke="#1071e5" stroke-width="3" fill="none"/><path d="M581.48 643.04h-2.96v-1.54h2.96z" stroke="#1071e5" stroke-width=".05" fill="#1071e5"/><path d="M580 712.15l-4.63-14.27h9.26z" stroke="#1071e5" stroke-width="3" fill="#1071e5"/><path d="M540 600a20 20 0 0 1 20-20h40a20 20 0 0 1 20 20v20a20 20 0 0 1-20 20h-40a20 20 0 0 1-20-20z" stroke="#1071e5" stroke-width="3" fill="url(#a)"/><use xlink:href="#b" transform="matrix(1,0,0,1,545.0000638734741,585) translate(15.246913580246915 30.27777777777778)"/><path d="M540 738.5a20 20 0 0 1 20-20h40a20 20 0 0 1 20 20 20 20 0 0 1-20 20h-40a20 20 0 0 1-20-20z" stroke="#1071e5" stroke-width="3" fill="#fff"/><use xlink:href="#c" transform="matrix(1,0,0,1,545.000063873474,723.5000499999953) translate(8.492654320987656 19.65277777777778)"/><path d="M520 758.5a20 20 0 0 1 20-20h40a20 20 0 0 1 20 20 20 20 0 0 1-20 20h-40a20 20 0 0 1-20-20z" stroke="#82755b" stroke-width="3" fill="#fff"/><use xlink:href="#c" transform="matrix(1,0,0,1,525.0000638734741,743.5000499999953) translate(8.492654320987656 19.65277777777778)"/><path d="M500 778.5a20 20 0 0 1 20-20h40a20 20 0 0 1 20 20 20 20 0 0 1-20 20h-40a20 20 0 0 1-20-20z" stroke="#008a0e" stroke-width="3" fill="#fff"/><use xlink:href="#c" transform="matrix(1,0,0,1,505.000063873474,763.5000499999953) translate(8.492654320987656 19.65277777777778)"/><path d="M635.66 736.5h19.85a8 8 0 0 1 8 8v28a8 8 0 0 1-8 8h-59.84" stroke="#000" stroke-width="2" fill="none"/><path d="M635.66 740.5h19.85a4 4 0 0 1 4 4v28a4 4 0 0 1-4 4h-59.84" stroke="#000" stroke-width="2" fill="none"/><path d="M640.83 748.5l-17.33-10 17.33-10m-17.33 10h8.5M600.83 788.5l-17.33-10 17.33-10m-17.33 10h8.5" stroke="#000" stroke-width="2" fill="none"/><path d="M635.66 736.5h19.85a8 8 0 0 1 8 8v8a8 8 0 0 1-8 8h-39.84" stroke="#000" stroke-width="2" fill="none"/><path d="M635.66 740.5h19.85a4 4 0 0 1 4 4v8a4 4 0 0 1-4 4h-39.84" stroke="#000" stroke-width="2" fill="none"/><path d="M640.83 748.5l-17.33-10 17.33-10m-17.33 10h8.5M620.83 768.5l-17.33-10 17.33-10m-17.33 10h8.5" stroke="#000" stroke-width="2" fill="none"/><path d="M615.66 756.5h16.7a8 8 0 0 1 8 8v8a8 8 0 0 1-8 8h-36.7" stroke="#000" stroke-width="2" fill="none"/><path d="M615.66 760.5h16.7a4 4 0 0 1 4 4v8a4 4 0 0 1-4 4h-36.7" stroke="#000" stroke-width="2" fill="none"/><path d="M620.83 768.5l-17.33-10 17.33-10m-17.33 10h8.5M600.83 788.5l-17.33-10 17.33-10m-17.33 10h8.5" stroke="#000" stroke-width="2" fill="none"/><path d="M518.48 620a20 20 0 0 1 20-20h40a20 20 0 0 1 20 20v20a20 20 0 0 1-20 20h-40a20 20 0 0 1-20-20z" stroke="#82755b" stroke-width="3" fill="url(#d)"/><use xlink:href="#b" transform="matrix(1,0,0,1,523.4832040538945,605) translate(15.246913580246915 30.27777777777778)"/><path d="M540 683v53.38" stroke="#008a0e" stroke-width="3" fill="none"/><path d="M541.48 683.04h-2.96v-1.54h2.96z" stroke="#008a0e" stroke-width=".05" fill="#008a0e"/><path d="M540 752.15l-4.63-14.27h9.26z" stroke="#008a0e" stroke-width="3" fill="#008a0e"/><path d="M560 663v53.38" stroke="#82755b" stroke-width="3" fill="none"/><path d="M561.48 663.04h-2.96v-1.54h2.96z" stroke="#82755b" stroke-width=".05" fill="#82755b"/><path d="M560 732.15l-4.63-14.27h9.26z" stroke="#82755b" stroke-width="3" fill="#82755b"/><path d="M500 640a20 20 0 0 1 20-20h40a20 20 0 0 1 20 20v20a20 20 0 0 1-20 20h-40a20 20 0 0 1-20-20z" stroke="#008a0e" stroke-width="3" fill="url(#e)"/><use xlink:href="#b" transform="matrix(1,0,0,1,505.0000638734741,625.0000000139463) translate(15.246913580246915 30.27777777777778)"/><path d="M380 718.5a20 20 0 0 1 20-20h60a20 20 0 0 1 20 20 20 20 0 0 1-20 20h-60a20 20 0 0 1-20-20z" stroke="#000" stroke-width="3" fill="url(#f)"/><use xlink:href="#g" transform="matrix(1,0,0,1,385,703.5000499999953) translate(4.356851851851845 19.65277777777778)"/><path d="M506.83 760.4l-23.46-12.8" stroke="#008a0e" stroke-width="2" fill="none"/><path d="M508.67 760.3l-1.3.8-.5.43-.53-.28.94-1.7z" stroke="#008a0e" stroke-width=".05" fill="#008a0e"/><path d="M469.97 740.3l14.74 2.76-4.43 8.14z" stroke="#008a0e" stroke-width="2" fill="#008a0e"/><path d="M521.06 746.52l-27.3-8.4" stroke="#82755b" stroke-width="2" fill="none"/><path d="M522.54 745.96l-1.05 1.7-.75-.22.58-1.86z" stroke="#82755b" stroke-width=".05" fill="#82755b"/><path d="M479.18 733.63l15-.23-2.73 8.86z" stroke="#82755b" stroke-width="2" fill="#82755b"/><path d="M538.27 732.93l-39.5-5.26" stroke="#1071e5" stroke-width="2" fill="none"/><path d="M539.5 732.1l-.47 1.92-.92-.12.27-1.93z" stroke="#1071e5" stroke-width=".05" fill="#1071e5"/><path d="M483.63 725.65l14.75-2.7-1.22 9.18z" stroke="#1071e5" stroke-width="2" fill="#1071e5"/><defs><linearGradient gradientUnits="userSpaceOnUse" id="a" x1="540" y1="580" x2="540" y2="640"><stop offset="23.55%" stop-color="#c3f7c8"/><stop offset="33.7%" stop-color="#cfe4ff"/><stop offset="59.29%" stop-color="#cfe4ff"/><stop offset="70.71%" stop-color="#ced4db"/></linearGradient><path d="M205 0l-28-72H64L36 0H1l101-248h38L239 0h-34zm-38-99l-47-123c-12 45-31 82-46 123h93" id="h"/><path d="M115-194c55 1 70 41 70 98S169 2 115 4C84 4 66-9 55-30l1 105H24l-1-265h31l2 30c10-21 28-34 59-34zm-8 174c40 0 45-34 45-75s-6-73-45-74c-42 0-51 32-51 76 0 43 10 73 51 73" id="i"/><g id="b"><use transform="matrix(0.06172839506172839,0,0,0.06172839506172839,0,0)" xlink:href="#h"/><use transform="matrix(0.06172839506172839,0,0,0.06172839506172839,14.814814814814813,0)" xlink:href="#i"/><use transform="matrix(0.06172839506172839,0,0,0.06172839506172839,27.160493827160494,0)" xlink:href="#i"/></g><path d="M190 0L58-211 59 0H30v-248h39L202-35l-2-213h31V0h-41" id="j"/><path d="M100-194c62-1 85 37 85 99 1 63-27 99-86 99S16-35 15-95c0-66 28-99 85-99zM99-20c44 1 53-31 53-75 0-43-8-75-51-75s-53 32-53 75 10 74 51 75" id="k"/><path d="M85-194c31 0 48 13 60 33l-1-100h32l1 261h-30c-2-10 0-23-3-31C134-8 116 4 85 4 32 4 16-35 15-94c0-66 23-100 70-100zm9 24c-40 0-46 34-46 75 0 40 6 74 45 74 42 0 51-32 51-76 0-42-9-74-50-73" id="l"/><path d="M100-194c63 0 86 42 84 106H49c0 40 14 67 53 68 26 1 43-12 49-29l28 8c-11 28-37 45-77 45C44 4 14-33 15-96c1-61 26-98 85-98zm52 81c6-60-76-77-97-28-3 7-6 17-6 28h103" id="m"/><g id="c"><use transform="matrix(0.06172839506172839,0,0,0.06172839506172839,0,0)" xlink:href="#j"/><use transform="matrix(0.06172839506172839,0,0,0.06172839506172839,15.987654320987653,0)" xlink:href="#k"/><use transform="matrix(0.06172839506172839,0,0,0.06172839506172839,28.333333333333332,0)" xlink:href="#l"/><use transform="matrix(0.06172839506172839,0,0,0.06172839506172839,40.67901234567901,0)" xlink:href="#m"/></g><linearGradient gradientUnits="userSpaceOnUse" id="d" x1="518.48" y1="600" x2="518.48" y2="660"><stop offset="23.55%" stop-color="#c3f7c8"/><stop offset="33.7%" stop-color="#cfe4ff"/><stop offset="59.29%" stop-color="#cfe4ff"/><stop offset="70.71%" stop-color="#ced4db"/></linearGradient><linearGradient gradientUnits="userSpaceOnUse" id="e" x1="500" y1="620" x2="500" y2="680"><stop offset="23.55%" stop-color="#c3f7c8"/><stop offset="33.7%" stop-color="#cfe4ff"/><stop offset="59.29%" stop-color="#cfe4ff"/><stop offset="70.71%" stop-color="#ced4db"/></linearGradient><linearGradient gradientUnits="userSpaceOnUse" id="f" x1="380" y1="698.5" x2="380" y2="738.5"><stop offset="34.78%" stop-color="#fff"/><stop offset="60.51%" stop-color="#ced4db"/></linearGradient><path d="M233-177c-1 41-23 64-60 70L243 0h-38l-65-103H63V0H30v-248c88 3 205-21 203 71zM63-129c60-2 137 13 137-47 0-61-80-42-137-45v92" id="n"/><path d="M177-190C167-65 218 103 67 71c-23-6-38-20-44-43l32-5c15 47 100 32 89-28v-30C133-14 115 1 83 1 29 1 15-40 15-95c0-56 16-97 71-98 29-1 48 16 59 35 1-10 0-23 2-32h30zM94-22c36 0 50-32 50-73 0-42-14-75-50-75-39 0-46 34-46 75s6 73 46 73" id="o"/><path d="M24-231v-30h32v30H24zM24 0v-190h32V0H24" id="p"/><path d="M135-143c-3-34-86-38-87 0 15 53 115 12 119 90S17 21 10-45l28-5c4 36 97 45 98 0-10-56-113-15-118-90-4-57 82-63 122-42 12 7 21 19 24 35" id="q"/><path d="M59-47c-2 24 18 29 38 22v24C64 9 27 4 27-40v-127H5v-23h24l9-43h21v43h35v23H59v120" id="r"/><path d="M114-163C36-179 61-72 57 0H25l-1-190h30c1 12-1 29 2 39 6-27 23-49 58-41v29" id="s"/><path d="M179-190L93 31C79 59 56 82 12 73V49c39 6 53-20 64-50L1-190h34L92-34l54-156h33" id="t"/><g id="g"><use transform="matrix(0.06172839506172839,0,0,0.06172839506172839,0,0)" xlink:href="#n"/><use transform="matrix(0.06172839506172839,0,0,0.06172839506172839,15.987654320987653,0)" xlink:href="#m"/><use transform="matrix(0.06172839506172839,0,0,0.06172839506172839,28.333333333333332,0)" xlink:href="#o"/><use transform="matrix(0.06172839506172839,0,0,0.06172839506172839,40.67901234567901,0)" xlink:href="#p"/><use transform="matrix(0.06172839506172839,0,0,0.06172839506172839,45.55555555555556,0)" xlink:href="#q"/><use transform="matrix(0.06172839506172839,0,0,0.06172839506172839,56.66666666666667,0)" xlink:href="#r"/><use transform="matrix(0.06172839506172839,0,0,0.06172839506172839,62.83950617283951,0)" xlink:href="#s"/><use transform="matrix(0.06172839506172839,0,0,0.06172839506172839,70.18518518518519,0)" xlink:href="#t"/></g></defs></g></svg>