<svg xmlns="http://www.w3.org/2000/svg" xmlns:xlink="http://www.w3.org/1999/xlink" xmlns:lucid="lucid" width="303.64" height="363"><g transform="translate(-457.8967899327183 -498.5)" lucid:page-tab-id="0_0"><path d="M511.23 600l.02 17.5" stroke="#000" stroke-width="2" fill="none"/><path d="M511.22 584.74l4.64 14.26h-9.27z" stroke="#000" stroke-width="2"/><path d="M512.22 618.5h-1.95v-1.02h1.95z" stroke="#000" stroke-width=".05"/><path d="M530.58 580v37.5" stroke="#000" stroke-width="2" fill="none"/><path d="M530.58 564.74L535.2 579h-9.26z" stroke="#000" stroke-width="2"/><path d="M531.55 617.47v1.03h-1.95v-1.03z" stroke="#000" stroke-width=".05"/><path d="M548.73 560v57.5" stroke="#000" stroke-width="2" fill="none"/><path d="M548.73 544.74l4.64 14.26h-9.27z" stroke="#000" stroke-width="2"/><path d="M549.7 617.47v1.03h-1.95v-1.03z" stroke="#000" stroke-width=".05"/><path d="M689.37 600v17.5" stroke="#000" stroke-width="2" fill="none"/><path d="M689.37 584.74L694 599h-9.27z" stroke="#000" stroke-width="2"/><path d="M690.34 618.5h-1.95v-1.03h1.94z" stroke="#000" stroke-width=".05"/><path d="M709.97 580v37.5" stroke="#000" stroke-width="2" fill="none"/><path d="M709.97 564.74L714.6 579h-9.26z" stroke="#000" stroke-width="2"/><path d="M710.95 618.5H709v-1.03h1.95z" stroke="#000" stroke-width=".05"/><path d="M500 520a20 20 0 0 1 20-20h57.55a20 20 0 0 1 20 20 20 20 0 0 1-20 20H520a20 20 0 0 1-20-20z" fill="#c3f7c8"/><path d="M503 509.58l.82-1.34 2.04-2.38 2.38-2.04 1.34-.82m5.77-2.4l1.52-.35L520 500h4.32m5.75 0h8.63m5.76 0h8.63m5.75 0h8.63m5.76 0h4.3l3.14.25 1.53.36m5.77 2.4l1.34.82 2.4 2.04 2.03 2.38.82 1.34m2.4 5.77l.36 1.52.25 3.13-.24 3.13-.36 1.52m-2.4 5.77l-.8 1.34-2.05 2.38-2.4 2.04-1.33.82m-5.76 2.4l-1.52.35-3.13.25h-4.3m-5.77 0h-8.63m-5.76 0h-8.64m-5.76 0h-8.63m-5.75 0H520l-3.13-.25-1.52-.36m-5.77-2.4l-1.34-.82-2.38-2.04-2.04-2.38-.82-1.34m-2.4-5.76l-.35-1.53L500 520l.25-3.13.36-1.52" stroke="#000" stroke-width="3" fill="none"/><use xlink:href="#a" transform="matrix(1,0,0,1,505,505) translate(7.585246913580251 19.65277777777778)"/><use xlink:href="#b" transform="matrix(1,0,0,1,505,505) translate(65.60993827160493 19.65277777777778)"/><path d="M481.85 540a20 20 0 0 1 20-20h57.55a20 20 0 0 1 20 20 20 20 0 0 1-20 20h-57.55a20 20 0 0 1-20-20z" fill="#c3f7c8"/><path d="M484.84 529.58l.82-1.34 2.04-2.38 2.4-2.04 1.33-.82m5.76-2.4l1.52-.35 3.13-.25h4.3m5.77 0h8.63m5.75 0h8.64m5.75 0h8.63m5.75 0h4.32l3.13.25 1.52.36m5.77 2.4l1.33.82 2.4 2.04 2.03 2.38.82 1.34m2.38 5.76l.37 1.53.25 3.13-.25 3.13-.37 1.52m-2.38 5.77l-.82 1.34-2.04 2.38-2.4 2.04-1.32.82m-5.77 2.4l-1.52.35-3.13.25h-4.32m-5.75 0h-8.64m-5.76 0h-8.64m-5.75 0h-8.63m-5.76 0h-4.3l-3.14-.25-1.53-.36m-5.77-2.4l-1.34-.82-2.4-2.04-2.04-2.38-.82-1.34m-2.38-5.76l-.37-1.53-.25-3.13.24-3.13.36-1.52" stroke="#000" stroke-width="3" fill="none"/><use xlink:href="#a" transform="matrix(1,0,0,1,486.8445128661241,525) translate(7.585246913580251 19.65277777777778)"/><use xlink:href="#b" transform="matrix(1,0,0,1,486.8445128661241,525) translate(65.60993827160493 19.65277777777778)"/><path d="M660 540a20 20 0 0 1 20-20h60.03a20 20 0 0 1 20 20 20 20 0 0 1-20 20H680a20 20 0 0 1-20-20z" fill="#c3f7c8"/><path d="M663 529.58l.82-1.34 2.04-2.38 2.38-2.04 1.34-.82m5.76-2.4l1.53-.35L680 520h4.5m6 0h9m6 0h9.02m6 0h9m6 0h4.5l3.14.25 1.53.36m5.75 2.4l1.34.82 2.38 2.04 2.04 2.38.8 1.34m2.4 5.76l.37 1.53.24 3.13-.25 3.13-.38 1.52m-2.38 5.77l-.82 1.34-2.04 2.38-2.4 2.04-1.33.82m-5.76 2.4l-1.54.35-3.13.25h-4.5m-6 0h-9m-6 0h-9m-6.02 0h-9m-6 0H680l-3.13-.25-1.52-.36m-5.77-2.4l-1.34-.82-2.38-2.04-2.04-2.38-.82-1.34m-2.4-5.76l-.35-1.53L660 540l.25-3.13.36-1.52" stroke="#000" stroke-width="3" fill="none"/><use xlink:href="#a" transform="matrix(1,0,0,1,665,525) translate(8.585246913580251 19.65277777777778)"/><use xlink:href="#c" transform="matrix(1,0,0,1,665,525) translate(66.60993827160493 19.65277777777778)"/><path d="M460 640a20 20 0 0 1 20-20h260a20 20 0 0 1 20 20 20 20 0 0 1-20 20H480a20 20 0 0 1-20-20z" stroke="#000" stroke-width="3" fill="#fff"/><use xlink:href="#a" transform="matrix(1,0,0,1,465,625) translate(81.45561728395062 19.65277777777778)"/><use xlink:href="#d" transform="matrix(1,0,0,1,465,625) translate(139.48030864197528 19.65277777777778)"/><path d="M462.52 560a20 20 0 0 1 20-20H540a20 20 0 0 1 20 20 20 20 0 0 1-20 20h-57.48a20 20 0 0 1-20-20z" fill="#c3f7c8"/><path d="M465.52 549.58l.82-1.34 2.04-2.38 2.38-2.04 1.34-.82m5.76-2.4l1.53-.35 3.12-.25h4.3m5.76 0h8.62m5.75 0h8.62m5.75 0h8.62m5.75 0h4.3l3.13.25 1.52.36m5.77 2.4l1.34.82 2.38 2.04 2.04 2.38.82 1.34m2.4 5.76l.35 1.53.25 3.13-.25 3.13-.36 1.52m-2.4 5.77l-.82 1.34-2.04 2.38-2.38 2.04-1.34.82m-5.76 2.4l-1.53.35-3.13.25h-4.3m-5.76 0h-8.62m-5.75 0h-8.62m-5.75 0h-8.62m-5.75 0h-4.3l-3.14-.25-1.54-.36m-5.76-2.4l-1.34-.82-2.38-2.04-2.04-2.38-.82-1.34m-2.4-5.76l-.36-1.53-.24-3.13.24-3.13.37-1.52" stroke="#000" stroke-width="3" fill="none"/><use xlink:href="#a" transform="matrix(1,0,0,1,467.517488261964,545) translate(7.585246913580251 19.65277777777778)"/><use xlink:href="#b" transform="matrix(1,0,0,1,467.517488261964,545) translate(65.60993827160493 19.65277777777778)"/><path d="M639.4 560a20 20 0 0 1 20-20h60.03a20 20 0 0 1 20 20 20 20 0 0 1-20 20H659.4a20 20 0 0 1-20-20z" fill="#c3f7c8"/><path d="M642.4 549.58l.82-1.34 2.03-2.38 2.4-2.04 1.33-.82m5.76-2.4l1.53-.35 3.13-.25h4.5m6 0h9m6 0h9.02m6 0h9m6 0h4.5l3.14.25 1.53.36m5.75 2.4l1.34.82 2.37 2.04 2.04 2.38.83 1.34m2.4 5.76l.35 1.53.25 3.13-.25 3.13-.36 1.52m-2.4 5.77l-.8 1.34-2.05 2.38-2.38 2.04-1.35.82m-5.76 2.4l-1.54.35-3.13.25h-4.5m-6 0h-9m-6 0h-9.02m-6 0h-9m-6 0h-4.5l-3.13-.25-1.53-.36m-5.76-2.4l-1.34-.82-2.38-2.04-2.04-2.38-.82-1.34m-2.4-5.76l-.36-1.53-.24-3.13.24-3.13.37-1.52" stroke="#000" stroke-width="3" fill="none"/><use xlink:href="#a" transform="matrix(1,0,0,1,644.3967899327183,545) translate(8.585246913580251 19.65277777777778)"/><use xlink:href="#c" transform="matrix(1,0,0,1,644.3967899327183,545) translate(66.60993827160493 19.65277777777778)"/><path d="M460.4 600h3.92m7.84 0H480m7.84 0h7.85m7.83 0h7.84m7.84 0h7.85m7.85 0h7.84m7.84 0h7.84m7.85 0h7.84m7.85 0h7.84m7.83 0h7.85m7.84 0h7.84m7.84 0h7.84m7.85 0h7.83m7.84 0h7.84m7.85 0h7.85m7.84 0h7.84m7.84 0h7.85m7.84 0h7.85m7.84 0h7.83m7.85 0h3.92M460.42 600h-1.02M758.37 600h1.03" stroke="#ba23f6" stroke-width="2" fill="none"/><path d="M459.4 740a20 20 0 0 1 20-20h20a20 20 0 0 1 20 20v100a20 20 0 0 1-20 20h-20a20 20 0 0 1-20-20z" stroke="#000" stroke-width="3" fill="url(#e)"/><use xlink:href="#f" transform="matrix(-1.8369701987210297e-16,-1,1,-1.8369701987210297e-16,464.3967899327183,855.0000000000001) translate(17.530864197530867 30.27777777777778)"/><use xlink:href="#g" transform="matrix(-1.8369701987210297e-16,-1,1,-1.8369701987210297e-16,464.3967899327183,855.0000000000001) translate(97.65432098765433 30.27777777777778)"/><path d="M580 740a20 20 0 0 1 20-20h20a20 20 0 0 1 20 20v100a20 20 0 0 1-20 20h-20a20 20 0 0 1-20-20z" stroke="#000" stroke-width="3" fill="url(#h)"/><use xlink:href="#f" transform="matrix(-1.8369701987210297e-16,-1,1,-1.8369701987210297e-16,585,855.0000000000001) translate(17.530864197530867 30.27777777777778)"/><use xlink:href="#i" transform="matrix(-1.8369701987210297e-16,-1,1,-1.8369701987210297e-16,585,855.0000000000001) translate(97.65432098765433 30.27777777777778)"/><path d="M699.36 740a20 20 0 0 1 20-20H740a20 20 0 0 1 20 20v100a20 20 0 0 1-20 20h-20.64a20 20 0 0 1-20-20z" stroke="#000" stroke-width="3" fill="url(#j)"/><use xlink:href="#f" transform="matrix(-1.8369701987210297e-16,-1,1,-1.8369701987210297e-16,704.3619072684392,855.0000000000001) translate(18.179012345679013 30.52777777777778)"/><use xlink:href="#k" transform="matrix(-1.8369701987210297e-16,-1,1,-1.8369701987210297e-16,704.3619072684392,855.0000000000001) translate(98.30246913580247 30.52777777777778)"/><path d="M607.85 704.36l-.3-28.68M611.85 704.32l-.3-28.68M619.8 699.08l-9.82 17.42-10.18-17.2m10.18 17.2l-.1-8.5M599.6 680.92l9.82-17.42 10.18 17.2m-10.18-17.2l.1 8.5M727.68 704.34v-28.68M731.68 704.34v-28.68M739.68 699.18l-10 17.32-10-17.32m10 17.32V708M719.68 680.82l10-17.32 10 17.32m-10-17.32v8.5M487.4 704.34v-28.68M491.4 704.34v-28.68M499.4 699.18l-10 17.32-10-17.32m10 17.32V708M479.4 680.82l10-17.32 10 17.32m-10-17.32v8.5" stroke="#000" stroke-width="2" fill="none"/><defs><path d="M185-189c-5-48-123-54-124 2 14 75 158 14 163 119 3 78-121 87-175 55-17-10-28-26-33-46l33-7c5 56 141 63 141-1 0-78-155-14-162-118-5-82 145-84 179-34 5 7 8 16 11 25" id="l"/><path d="M141-36C126-15 110 5 73 4 37 3 15-17 15-53c-1-64 63-63 125-63 3-35-9-54-41-54-24 1-41 7-42 31l-33-3c5-37 33-52 76-52 45 0 72 20 72 64v82c-1 20 7 32 28 27v20c-31 9-61-2-59-35zM48-53c0 20 12 33 32 33 41-3 63-29 60-74-43 2-92-5-92 41" id="m"/><path d="M177-190C167-65 218 103 67 71c-23-6-38-20-44-43l32-5c15 47 100 32 89-28v-30C133-14 115 1 83 1 29 1 15-40 15-95c0-56 16-97 71-98 29-1 48 16 59 35 1-10 0-23 2-32h30zM94-22c36 0 50-32 50-73 0-42-14-75-50-75-39 0-46 34-46 75s6 73 46 73" id="n"/><g id="a"><use transform="matrix(0.06172839506172839,0,0,0.06172839506172839,0,0)" xlink:href="#l"/><use transform="matrix(0.06172839506172839,0,0,0.06172839506172839,14.814814814814813,0)" xlink:href="#m"/><use transform="matrix(0.06172839506172839,0,0,0.06172839506172839,27.160493827160494,0)" xlink:href="#n"/><use transform="matrix(0.06172839506172839,0,0,0.06172839506172839,39.50617283950617,0)" xlink:href="#m"/></g><path d="M205 0l-28-72H64L36 0H1l101-248h38L239 0h-34zm-38-99l-47-123c-12 45-31 82-46 123h93" id="o"/><use transform="matrix(0.06172839506172839,0,0,0.06172839506172839,0,0)" xlink:href="#o" id="b"/><path d="M160-131c35 5 61 23 61 61C221 17 115-2 30 0v-248c76 3 177-17 177 60 0 33-19 50-47 57zm-97-11c50-1 110 9 110-42 0-47-63-36-110-37v79zm0 115c55-2 124 14 124-45 0-56-70-42-124-44v89" id="p"/><use transform="matrix(0.06172839506172839,0,0,0.06172839506172839,0,0)" xlink:href="#p" id="c"/><path d="M30 0v-248h187v28H63v79h144v27H63v87h162V0H30" id="q"/><path d="M117-194c89-4 53 116 60 194h-32v-121c0-31-8-49-39-48C34-167 62-67 57 0H25l-1-190h30c1 10-1 24 2 32 11-22 29-35 61-36" id="r"/><path d="M24-231v-30h32v30H24zM24 0v-190h32V0H24" id="s"/><path d="M100-194c63 0 86 42 84 106H49c0 40 14 67 53 68 26 1 43-12 49-29l28 8c-11 28-37 45-77 45C44 4 14-33 15-96c1-61 26-98 85-98zm52 81c6-60-76-77-97-28-3 7-6 17-6 28h103" id="t"/><g id="d"><use transform="matrix(0.06172839506172839,0,0,0.06172839506172839,0,0)" xlink:href="#q"/><use transform="matrix(0.06172839506172839,0,0,0.06172839506172839,14.814814814814813,0)" xlink:href="#r"/><use transform="matrix(0.06172839506172839,0,0,0.06172839506172839,27.160493827160494,0)" xlink:href="#n"/><use transform="matrix(0.06172839506172839,0,0,0.06172839506172839,39.50617283950617,0)" xlink:href="#s"/><use transform="matrix(0.06172839506172839,0,0,0.06172839506172839,44.382716049382715,0)" xlink:href="#r"/><use transform="matrix(0.06172839506172839,0,0,0.06172839506172839,56.72839506172839,0)" xlink:href="#t"/></g><linearGradient gradientUnits="userSpaceOnUse" id="e" x1="459.4" y1="860" x2="459.4" y2="720"><stop offset="19.2%" stop-color="#ced4db"/><stop offset="26.45%" stop-color="#fff"/><stop offset="45.29%" stop-color="#fff"/><stop offset="52.54%" stop-color="#cfe4ff"/><stop offset="73.91%" stop-color="#cfe4ff"/><stop offset="82.97%" stop-color="#c3f7c8"/></linearGradient><path d="M114-163C36-179 61-72 57 0H25l-1-190h30c1 12-1 29 2 39 6-27 23-49 58-41v29" id="u"/><path d="M108 0H70L1-190h34L89-25l56-165h34" id="v"/><path d="M96-169c-40 0-48 33-48 73s9 75 48 75c24 0 41-14 43-38l32 2c-6 37-31 61-74 61-59 0-76-41-82-99-10-93 101-131 147-64 4 7 5 14 7 22l-32 3c-4-21-16-35-41-35" id="w"/><g id="f"><use transform="matrix(0.06172839506172839,0,0,0.06172839506172839,0,0)" xlink:href="#l"/><use transform="matrix(0.06172839506172839,0,0,0.06172839506172839,14.814814814814813,0)" xlink:href="#t"/><use transform="matrix(0.06172839506172839,0,0,0.06172839506172839,27.160493827160494,0)" xlink:href="#u"/><use transform="matrix(0.06172839506172839,0,0,0.06172839506172839,34.50617283950617,0)" xlink:href="#v"/><use transform="matrix(0.06172839506172839,0,0,0.06172839506172839,45.61728395061728,0)" xlink:href="#s"/><use transform="matrix(0.06172839506172839,0,0,0.06172839506172839,50.49382716049382,0)" xlink:href="#w"/><use transform="matrix(0.06172839506172839,0,0,0.06172839506172839,61.60493827160494,0)" xlink:href="#t"/></g><path d="M195 0l-74-108L45 0H8l94-129-87-119h37l69 98 67-98h37l-84 118L233 0h-38" id="x"/><use transform="matrix(0.06172839506172839,0,0,0.06172839506172839,0,0)" xlink:href="#x" id="g"/><linearGradient gradientUnits="userSpaceOnUse" id="h" x1="580" y1="860" x2="580" y2="720"><stop offset="19.2%" stop-color="#ced4db"/><stop offset="26.45%" stop-color="#fff"/><stop offset="45.29%" stop-color="#fff"/><stop offset="52.54%" stop-color="#cfe4ff"/><stop offset="73.91%" stop-color="#cfe4ff"/><stop offset="82.97%" stop-color="#c3f7c8"/></linearGradient><path d="M137-103V0h-34v-103L8-248h37l75 118 75-118h37" id="y"/><use transform="matrix(0.06172839506172839,0,0,0.06172839506172839,0,0)" xlink:href="#y" id="i"/><linearGradient gradientUnits="userSpaceOnUse" id="j" x1="699.36" y1="860" x2="699.36" y2="720"><stop offset="19.2%" stop-color="#ced4db"/><stop offset="26.45%" stop-color="#fff"/><stop offset="45.29%" stop-color="#fff"/><stop offset="52.54%" stop-color="#cfe4ff"/><stop offset="73.91%" stop-color="#cfe4ff"/><stop offset="82.97%" stop-color="#c3f7c8"/></linearGradient><path d="M209 0H11v-25l151-195H24v-28h176v25L50-27h159V0" id="z"/><use transform="matrix(0.06172839506172839,0,0,0.06172839506172839,0,0)" xlink:href="#z" id="k"/></defs></g></svg>