<svg xmlns="http://www.w3.org/2000/svg" xmlns:xlink="http://www.w3.org/1999/xlink" xmlns:lucid="lucid" width="283" height="463"><g transform="translate(-418.500063873474 -598.5)" lucid:page-tab-id="0_0"><path d="M521.87 798.78l86.92 50.84M519.85 802.23l86.92 50.84" stroke="#008a0e" stroke-width="2" fill="none"/><path stroke="#008a0e" stroke-width=".05" fill="#008a0e"/><path d="M520.37 801.4l-1 1.7-3.46-2.05.62-1.05h1.45z" stroke="#008a0e" stroke-width=".05" fill="#008a0e"/><path d="M608.37 840.1l9.9 17.4-20-.13m20 .12l-7.33-4.3M498.43 856.9l15.1-44.15M502.22 858.2l15.1-44.15" stroke="#008a0e" stroke-width="2" fill="none"/><path d="M499.36 857.2l-.47 1.38-2.13.17.75-2.2zM503.15 858.5l-.1.24-2-.16.25-.72z" stroke="#008a0e" stroke-width=".05" fill="#008a0e"/><path d="M504.3 815.05l15.05-13.16 3.86 19.62m-3.85-19.63l-2.75 8.03" stroke="#008a0e" stroke-width="2" fill="none"/><path d="M499.02 856.5l50.8-66.46M502.2 858.9l50.8-66.43" stroke="#82755b" stroke-width="2" fill="none"/><path d="M499.8 857.06l-1.17 1.54-2 .16-.7.17 2.33-3.06zM501.88 858.64l-.66-.05.22-.3z" stroke="#82755b" stroke-width=".05" fill="#82755b"/><path d="M540.32 789.28l18.46-7.7-2.57 19.84m2.58-19.83l-5.16 6.74" stroke="#82755b" stroke-width="2" fill="none"/><path d="M499.3 856.37l87.77-87.77M502.12 859.2l87.78-87.77" stroke="#1071e5" stroke-width="2" fill="none"/><path d="M500 857.04l-1.57 1.58-1.8.14-.5.12-.36-.37 2.85-2.83zM501.57 858.62l-.23-.02.1-.1z" stroke="#1071e5" stroke-width=".05" fill="#1071e5"/><path d="M577.76 766.6l19.32-5.2-5.18 19.33m5.18-19.32l-6 6.02" stroke="#1071e5" stroke-width="2" fill="none"/><path d="M563.7 778.13l49.56 67.75M560.48 780.5l49.55 67.75" stroke="#82755b" stroke-width="2" fill="none"/><path d="M564.5 777.57l-1.56 1.15-1.6-2.17-.1-1.4-.03-.15.93-.68z" stroke="#82755b" stroke-width=".05" fill="#82755b"/><path stroke="#82755b" stroke-width=".05" fill="#82755b"/><path d="M616.67 837l2.15 19.88-18.3-8.08m18.3 8.08l-5.02-6.86" stroke="#82755b" stroke-width="2" fill="none"/><path d="M602.16 760.58l16.98 83.64M598.24 761.38l16.98 83.64" stroke="#1071e5" stroke-width="2" fill="none"/><path d="M603.12 760.4l-1.9.4-.17-.8h2zM599.2 761.2l-1.9.4-.34-1.6h2z" stroke="#1071e5" stroke-width=".05" fill="#1071e5"/><path d="M625.96 837.57l-6.36 18.96-13.25-14.98m13.25 15l-1.7-8.34M646.42 674.06l-32.84 30.38" stroke="#1071e5" stroke-width="2" fill="none"/><path d="M657.62 663.7l-7.32 13.1-6.3-6.82zM602.38 714.8l7.32-13.1 6.3 6.82z" stroke="#1071e5" stroke-width="2" fill="#1071e5"/><path d="M620 620a20 20 0 0 1 20-20h40a20 20 0 0 1 20 20v20a20 20 0 0 1-20 20h-40a20 20 0 0 1-20-20z" stroke="#1071e5" stroke-width="3" fill="#cfe4ff"/><use xlink:href="#a" transform="matrix(1,0,0,1,625.0000638734742,605) translate(4.228395061728396 30.27777777777778)"/><use xlink:href="#b" transform="matrix(1,0,0,1,625.0000638734742,605) translate(49.78395061728395 30.27777777777778)"/><path d="M560 738.5a20 20 0 0 1 20-20h40a20 20 0 0 1 20 20 20 20 0 0 1-20 20h-40a20 20 0 0 1-20-20z" stroke="#1071e5" stroke-width="3" fill="#ced4db"/><use xlink:href="#c" transform="matrix(1,0,0,1,565,723.5000499999953) translate(8.492654320987656 19.65277777777778)"/><path d="M520 758.5a20 20 0 0 1 20-20h40a20 20 0 0 1 20 20 20 20 0 0 1-20 20h-40a20 20 0 0 1-20-20z" stroke="#82755b" stroke-width="3" fill="#ced4db"/><use xlink:href="#c" transform="matrix(1,0,0,1,525.0000638734741,743.5000499999953) translate(8.492654320987656 19.65277777777778)"/><path d="M480 778.5a20 20 0 0 1 20-20h40a20 20 0 0 1 20 20 20 20 0 0 1-20 20h-40a20 20 0 0 1-20-20z" stroke="#008a0e" stroke-width="3" fill="#ced4db"/><use xlink:href="#c" transform="matrix(1,0,0,1,485,763.5000499999953) translate(8.492654320987656 19.65277777777778)"/><path d="M655.66 736.5h19.85a8 8 0 0 1 8 8v28a8 8 0 0 1-8 8h-99.84" stroke="#000" stroke-width="2" fill="none"/><path d="M655.66 740.5h19.85a4 4 0 0 1 4 4v28a4 4 0 0 1-4 4h-99.84" stroke="#000" stroke-width="2" fill="none"/><path d="M660.83 748.5l-17.33-10 17.33-10m-17.33 10h8.5M580.83 788.5l-17.33-10 17.33-10m-17.33 10h8.5" stroke="#000" stroke-width="2" fill="none"/><path d="M655.66 736.5h19.85a8 8 0 0 1 8 8v8a8 8 0 0 1-8 8h-59.84" stroke="#000" stroke-width="2" fill="none"/><path d="M655.66 740.5h19.85a4 4 0 0 1 4 4v8a4 4 0 0 1-4 4h-59.84" stroke="#000" stroke-width="2" fill="none"/><path d="M660.83 748.5l-17.33-10 17.33-10m-17.33 10h8.5M620.83 768.5l-17.33-10 17.33-10m-17.33 10h8.5" stroke="#000" stroke-width="2" fill="none"/><path d="M615.66 756.5h16.7a8 8 0 0 1 8 8v8a8 8 0 0 1-8 8h-56.7" stroke="#000" stroke-width="2" fill="none"/><path d="M615.66 760.5h16.7a4 4 0 0 1 4 4v8a4 4 0 0 1-4 4h-56.7" stroke="#000" stroke-width="2" fill="none"/><path d="M620.83 768.5l-17.33-10 17.33-10m-17.33 10h8.5M580.83 788.5l-17.33-10 17.33-10m-17.33 10h8.5" stroke="#000" stroke-width="2" fill="none"/><path d="M520 620a20 20 0 0 1 20-20h40a20 20 0 0 1 20 20v20a20 20 0 0 1-20 20h-40a20 20 0 0 1-20-20z" stroke="#82755b" stroke-width="3" fill="#cfe4ff"/><use xlink:href="#a" transform="matrix(1,0,0,1,525.0000638734741,605) translate(4.814814814814817 30.27777777777778)"/><use xlink:href="#d" transform="matrix(1,0,0,1,525.0000638734741,605) translate(50.370370370370374 30.27777777777778)"/><path d="M469.84 677.17l40.32 64.16" stroke="#008a0e" stroke-width="2" fill="none"/><path d="M461.72 664.24l11.52 9.6-7.85 4.95zM518.28 754.26l-11.52-9.6 7.85-4.95z" stroke="#008a0e" stroke-width="2" fill="#008a0e"/><path d="M559.63 680l-.77 38.5" stroke="#82755b" stroke-width="2" fill="none"/><path d="M559.93 664.74l4.35 14.35-9.27-.2zM558.55 733.76l-4.35-14.35 9.27.2z" stroke="#82755b" stroke-width="2" fill="#82755b"/><path d="M420 620a20 20 0 0 1 20-20h40a20 20 0 0 1 20 20v20a20 20 0 0 1-20 20h-40a20 20 0 0 1-20-20z" stroke="#008a0e" stroke-width="3" fill="#cfe4ff"/><use xlink:href="#a" transform="matrix(1,0,0,1,425.000063873474,605) translate(4.814814814814817 30.27777777777778)"/><use xlink:href="#e" transform="matrix(1,0,0,1,425.000063873474,605) translate(50.370370370370374 30.27777777777778)"/><path d="M448.5 911.5a20 20 0 0 1 20-20h63a20 20 0 0 1 20 20 20 20 0 0 1-20 20h-63a20 20 0 0 1-20-20z" stroke="#000" stroke-width="3" fill="url(#f)" transform="matrix(6.123233995736766e-17,-1,1,6.123233995736766e-17,-411.4998861265306,1411.5000138734788)"/><use xlink:href="#g" transform="matrix(6.123233995736766e-17,-1,1,6.123233995736766e-17,485.00006387347406,957.9999000000093) translate(10.146975308641972 19.65277777777778)"/><path d="M568.5 911.5a20 20 0 0 1 20-20h63a20 20 0 0 1 20 20 20 20 0 0 1-20 20h-63a20 20 0 0 1-20-20z" stroke="#000" stroke-width="3" fill="url(#h)" transform="matrix(6.123233995736766e-17,-1,1,6.123233995736766e-17,-291.4999500000047,1531.4999500000047)"/><use xlink:href="#i" transform="matrix(6.123233995736766e-17,-1,1,6.123233995736766e-17,605,957.9999000000093) translate(17.21487654320988 19.65277777777778)"/><path d="M421 698.5h4.1m8.16 0h8.18m8.18 0h8.17m8.17 0h8.18m8.17 0h8.18m8.18 0h8.17m8.18 0h8.18m8.18 0h8.18m8.18 0h8.17m8.2 0h8.16m8.18 0h8.18m8.17 0h8.17m8.18 0h8.17m8.18 0h8.18m8.17 0h8.18m8.18 0h8.18m8.18 0h8.18m8.17 0h4.1M421.03 698.5H420M698.97 698.5H700" stroke="#ba23f6" stroke-width="2" fill="none"/><path d="M420 1040a20 20 0 0 1 20-20h240a20 20 0 0 1 20 20 20 20 0 0 1-20 20H440a20 20 0 0 1-20-20z" stroke="#000" stroke-width="3" fill="#ced4db"/><use xlink:href="#j" transform="matrix(1,0,0,1,425.000063873474,1025) translate(35.097592592592584 19.65277777777778)"/><use xlink:href="#k" transform="matrix(1,0,0,1,425.000063873474,1025) translate(139.9124074074074 19.65277777777778)"/><path d="M500 965.5v34.5" stroke="#000" stroke-width="2" fill="none"/><path d="M500.98 965.53h-1.96v-1.1l.98.08.98-.07z" stroke="#000" stroke-width=".05"/><path d="M500 1015.26l-4.63-14.26h9.26z" stroke="#000" stroke-width="2"/><path d="M620 965.5v34.5" stroke="#000" stroke-width="2" fill="none"/><path d="M620 964.5l.98-.07v1.1H619v-1.1z" stroke="#000" stroke-width=".05"/><path d="M620 1015.26l-4.63-14.26h9.26z" stroke="#000" stroke-width="2"/><defs><path d="M232-93c-1 65-40 97-104 97C67 4 28-28 28-90v-158h33c8 89-33 224 67 224 102 0 64-133 71-224h33v155" id="l"/><path d="M117-194c89-4 53 116 60 194h-32v-121c0-31-8-49-39-48C34-167 62-67 57 0H25l-1-190h30c1 10-1 24 2 32 11-22 29-35 61-36" id="m"/><path d="M24-231v-30h32v30H24zM24 0v-190h32V0H24" id="n"/><path d="M59-47c-2 24 18 29 38 22v24C64 9 27 4 27-40v-127H5v-23h24l9-43h21v43h35v23H59v120" id="o"/><g id="a"><use transform="matrix(0.06172839506172839,0,0,0.06172839506172839,0,0)" xlink:href="#l"/><use transform="matrix(0.06172839506172839,0,0,0.06172839506172839,15.987654320987653,0)" xlink:href="#m"/><use transform="matrix(0.06172839506172839,0,0,0.06172839506172839,28.333333333333332,0)" xlink:href="#n"/><use transform="matrix(0.06172839506172839,0,0,0.06172839506172839,33.20987654320987,0)" xlink:href="#o"/></g><path d="M212-179c-10-28-35-45-73-45-59 0-87 40-87 99 0 60 29 101 89 101 43 0 62-24 78-52l27 14C228-24 195 4 139 4 59 4 22-46 18-125c-6-104 99-153 187-111 19 9 31 26 39 46" id="p"/><use transform="matrix(0.06172839506172839,0,0,0.06172839506172839,0,0)" xlink:href="#p" id="b"/><path d="M190 0L58-211 59 0H30v-248h39L202-35l-2-213h31V0h-41" id="q"/><path d="M100-194c62-1 85 37 85 99 1 63-27 99-86 99S16-35 15-95c0-66 28-99 85-99zM99-20c44 1 53-31 53-75 0-43-8-75-51-75s-53 32-53 75 10 74 51 75" id="r"/><path d="M85-194c31 0 48 13 60 33l-1-100h32l1 261h-30c-2-10 0-23-3-31C134-8 116 4 85 4 32 4 16-35 15-94c0-66 23-100 70-100zm9 24c-40 0-46 34-46 75 0 40 6 74 45 74 42 0 51-32 51-76 0-42-9-74-50-73" id="s"/><path d="M100-194c63 0 86 42 84 106H49c0 40 14 67 53 68 26 1 43-12 49-29l28 8c-11 28-37 45-77 45C44 4 14-33 15-96c1-61 26-98 85-98zm52 81c6-60-76-77-97-28-3 7-6 17-6 28h103" id="t"/><g id="c"><use transform="matrix(0.06172839506172839,0,0,0.06172839506172839,0,0)" xlink:href="#q"/><use transform="matrix(0.06172839506172839,0,0,0.06172839506172839,15.987654320987653,0)" xlink:href="#r"/><use transform="matrix(0.06172839506172839,0,0,0.06172839506172839,28.333333333333332,0)" xlink:href="#s"/><use transform="matrix(0.06172839506172839,0,0,0.06172839506172839,40.67901234567901,0)" xlink:href="#t"/></g><path d="M160-131c35 5 61 23 61 61C221 17 115-2 30 0v-248c76 3 177-17 177 60 0 33-19 50-47 57zm-97-11c50-1 110 9 110-42 0-47-63-36-110-37v79zm0 115c55-2 124 14 124-45 0-56-70-42-124-44v89" id="u"/><use transform="matrix(0.06172839506172839,0,0,0.06172839506172839,0,0)" xlink:href="#u" id="d"/><path d="M205 0l-28-72H64L36 0H1l101-248h38L239 0h-34zm-38-99l-47-123c-12 45-31 82-46 123h93" id="v"/><use transform="matrix(0.06172839506172839,0,0,0.06172839506172839,0,0)" xlink:href="#v" id="e"/><linearGradient gradientUnits="userSpaceOnUse" id="f" x1="448.5" y1="931.5" x2="551.5" y2="931.5"><stop offset="42.5%" stop-color="#fff"/><stop offset="56.67%" stop-color="#cfe4ff"/></linearGradient><path d="M233-177c-1 41-23 64-60 70L243 0h-38l-65-103H63V0H30v-248c88 3 205-21 203 71zM63-129c60-2 137 13 137-47 0-61-80-42-137-45v92" id="w"/><path d="M141-36C126-15 110 5 73 4 37 3 15-17 15-53c-1-64 63-63 125-63 3-35-9-54-41-54-24 1-41 7-42 31l-33-3c5-37 33-52 76-52 45 0 72 20 72 64v82c-1 20 7 32 28 27v20c-31 9-61-2-59-35zM48-53c0 20 12 33 32 33 41-3 63-29 60-74-43 2-92-5-92 41" id="x"/><path d="M114-163C36-179 61-72 57 0H25l-1-190h30c1 12-1 29 2 39 6-27 23-49 58-41v29" id="y"/><g id="g"><use transform="matrix(0.06172839506172839,0,0,0.06172839506172839,0,0)" xlink:href="#w"/><use transform="matrix(0.06172839506172839,0,0,0.06172839506172839,15.987654320987653,0)" xlink:href="#t"/><use transform="matrix(0.06172839506172839,0,0,0.06172839506172839,28.333333333333332,0)" xlink:href="#x"/><use transform="matrix(0.06172839506172839,0,0,0.06172839506172839,40.67901234567901,0)" xlink:href="#s"/><use transform="matrix(0.06172839506172839,0,0,0.06172839506172839,53.02469135802469,0)" xlink:href="#t"/><use transform="matrix(0.06172839506172839,0,0,0.06172839506172839,65.37037037037037,0)" xlink:href="#y"/></g><linearGradient gradientUnits="userSpaceOnUse" id="h" x1="568.5" y1="931.5" x2="671.5" y2="931.5"><stop offset="42.5%" stop-color="#fff"/><stop offset="56.67%" stop-color="#cfe4ff"/></linearGradient><path d="M266 0h-40l-56-210L115 0H75L2-248h35L96-30l15-64 43-154h32l59 218 59-218h35" id="z"/><g id="i"><use transform="matrix(0.06172839506172839,0,0,0.06172839506172839,0,0)" xlink:href="#z"/><use transform="matrix(0.06172839506172839,0,0,0.06172839506172839,20.493827160493826,0)" xlink:href="#y"/><use transform="matrix(0.06172839506172839,0,0,0.06172839506172839,27.839506172839506,0)" xlink:href="#n"/><use transform="matrix(0.06172839506172839,0,0,0.06172839506172839,32.71604938271605,0)" xlink:href="#o"/><use transform="matrix(0.06172839506172839,0,0,0.06172839506172839,38.88888888888889,0)" xlink:href="#t"/><use transform="matrix(0.06172839506172839,0,0,0.06172839506172839,51.23456790123457,0)" xlink:href="#y"/></g><path d="M30-248c87 1 191-15 191 75 0 78-77 80-158 76V0H30v-248zm33 125c57 0 124 11 124-50 0-59-68-47-124-48v98" id="A"/><path d="M135-143c-3-34-86-38-87 0 15 53 115 12 119 90S17 21 10-45l28-5c4 36 97 45 98 0-10-56-113-15-118-90-4-57 82-63 122-42 12 7 21 19 24 35" id="B"/><g id="j"><use transform="matrix(0.06172839506172839,0,0,0.06172839506172839,0,0)" xlink:href="#A"/><use transform="matrix(0.06172839506172839,0,0,0.06172839506172839,14.814814814814813,0)" xlink:href="#t"/><use transform="matrix(0.06172839506172839,0,0,0.06172839506172839,27.160493827160494,0)" xlink:href="#y"/><use transform="matrix(0.06172839506172839,0,0,0.06172839506172839,34.50617283950617,0)" xlink:href="#B"/><use transform="matrix(0.06172839506172839,0,0,0.06172839506172839,45.61728395061728,0)" xlink:href="#n"/><use transform="matrix(0.06172839506172839,0,0,0.06172839506172839,50.49382716049382,0)" xlink:href="#B"/><use transform="matrix(0.06172839506172839,0,0,0.06172839506172839,61.60493827160494,0)" xlink:href="#o"/><use transform="matrix(0.06172839506172839,0,0,0.06172839506172839,67.77777777777777,0)" xlink:href="#t"/><use transform="matrix(0.06172839506172839,0,0,0.06172839506172839,80.12345679012346,0)" xlink:href="#m"/><use transform="matrix(0.06172839506172839,0,0,0.06172839506172839,92.46913580246914,0)" xlink:href="#o"/></g><path d="M30-248c118-7 216 8 213 122C240-48 200 0 122 0H30v-248zM63-27c89 8 146-16 146-99s-60-101-146-95v194" id="C"/><path d="M115-194c53 0 69 39 70 98 0 66-23 100-70 100C84 3 66-7 56-30L54 0H23l1-261h32v101c10-23 28-34 59-34zm-8 174c40 0 45-34 45-75 0-40-5-75-45-74-42 0-51 32-51 76 0 43 10 73 51 73" id="D"/><g id="k"><use transform="matrix(0.06172839506172839,0,0,0.06172839506172839,0,0)" xlink:href="#C"/><use transform="matrix(0.06172839506172839,0,0,0.06172839506172839,15.987654320987653,0)" xlink:href="#x"/><use transform="matrix(0.06172839506172839,0,0,0.06172839506172839,28.333333333333332,0)" xlink:href="#o"/><use transform="matrix(0.06172839506172839,0,0,0.06172839506172839,34.50617283950617,0)" xlink:href="#x"/><use transform="matrix(0.06172839506172839,0,0,0.06172839506172839,46.85185185185185,0)" xlink:href="#D"/><use transform="matrix(0.06172839506172839,0,0,0.06172839506172839,59.197530864197525,0)" xlink:href="#x"/><use transform="matrix(0.06172839506172839,0,0,0.06172839506172839,71.5432098765432,0)" xlink:href="#B"/><use transform="matrix(0.06172839506172839,0,0,0.06172839506172839,82.65432098765432,0)" xlink:href="#t"/></g></defs></g></svg>