<svg xmlns="http://www.w3.org/2000/svg" xmlns:xlink="http://www.w3.org/1999/xlink" xmlns:lucid="lucid" width="243" height="343"><g transform="translate(-398.5 -398.5)" lucid:page-tab-id="0_0"><path d="M528 524.34v-48.68M532 524.34v-48.68M540 519.18l-10 17.32-10-17.32m10 17.32V528M520 480.82l10-17.32 10 17.32m-10-17.32v8.5M548 524.34v-68.68M552 524.34v-68.68M560 519.18l-10 17.32-10-17.32m10 17.32V528M540 460.82l10-17.32 10 17.32m-10-17.32v8.5M530 680v-37.5" stroke="#000" stroke-width="2" fill="none"/><path d="M530 695.26L525.37 681h9.26z" stroke="#000" stroke-width="2"/><path d="M530.98 642.53H529v-1.03H531z" stroke="#000" stroke-width=".05"/><path d="M400 720a20 20 0 0 1 20-20h200a20 20 0 0 1 20 20 20 20 0 0 1-20 20H420a20 20 0 0 1-20-20z" stroke="#000" stroke-width="3" fill="#ced4db"/><use xlink:href="#a" transform="matrix(1,0,0,1,405,705) translate(62.75499999999998 21.430555555555557)"/><path d="M510 680v-17.5" stroke="#000" stroke-width="2" fill="none"/><path d="M510 695.26L505.37 681h9.26z" stroke="#000" stroke-width="2"/><path d="M510.98 662.53h-1.96v-1.03h1.96z" stroke="#000" stroke-width=".05"/><path d="M460 420a20 20 0 0 1 20-20h140a20 20 0 0 1 20 20 20 20 0 0 1-20 20H480a20 20 0 0 1-20-20z" stroke="#000" stroke-width="3" fill="url(#b)"/><use xlink:href="#c" transform="matrix(1,0,0,1,465.00002093027626,405) translate(36.184012345678994 21.430555555555557)"/><path d="M440 440a20 20 0 0 1 20-20h140a20 20 0 0 1 20 20 20 20 0 0 1-20 20H460a20 20 0 0 1-20-20z" stroke="#000" stroke-width="3" fill="url(#d)"/><use xlink:href="#c" transform="matrix(1,0,0,1,445.00002093027626,425) translate(36.184012345678994 21.430555555555557)"/><path d="M420 460a20 20 0 0 1 20-20h140a20 20 0 0 1 20 20 20 20 0 0 1-20 20H440a20 20 0 0 1-20-20z" stroke="#000" stroke-width="3" fill="url(#e)"/><use xlink:href="#c" transform="matrix(1,0,0,1,425.00002093027626,445) translate(36.184012345678994 21.430555555555557)"/><path d="M420 560a20 20 0 0 1 20-20h180a20 20 0 0 1 20 20v60a20 20 0 0 1-20 20H440a20 20 0 0 1-20-20z" stroke="#000" stroke-width="3" fill="url(#f)"/><use xlink:href="#g" transform="matrix(1,0,0,1,425.00002093027626,545) translate(57.469135802469125 50.49305555555556)"/><path d="M400 580a20 20 0 0 1 20-20h180a20 20 0 0 1 20 20v60a20 20 0 0 1-20 20H420a20 20 0 0 1-20-20z" stroke="#000" stroke-width="3" fill="url(#h)"/><use xlink:href="#g" transform="matrix(1,0,0,1,405.00002093027626,565) translate(57.469135802469125 50.49305555555556)"/><path d="M488 544.34v-28.68M492 544.34v-28.68M500 539.18l-10 17.32-10-17.32m10 17.32V548M480 520.82l10-17.32 10 17.32m-10-17.32v8.5M508 544.34v-48.68M512 544.34v-48.68M520 539.18l-10 17.32-10-17.32m10 17.32V548M500 500.82l10-17.32 10 17.32m-10-17.32v8.5" stroke="#000" stroke-width="2" fill="none"/><path d="M400 480a20 20 0 0 1 20-20h140a20 20 0 0 1 20 20 20 20 0 0 1-20 20H420a20 20 0 0 1-20-20z" stroke="#000" stroke-width="3" fill="url(#i)"/><use xlink:href="#c" transform="matrix(1,0,0,1,405.00002093027626,465) translate(36.184012345678994 21.430555555555557)"/><defs><path d="M30-248c118-7 216 8 213 122C240-48 200 0 122 0H30v-248zM63-27c89 8 146-16 146-99s-60-101-146-95v194" id="j"/><path d="M141-36C126-15 110 5 73 4 37 3 15-17 15-53c-1-64 63-63 125-63 3-35-9-54-41-54-24 1-41 7-42 31l-33-3c5-37 33-52 76-52 45 0 72 20 72 64v82c-1 20 7 32 28 27v20c-31 9-61-2-59-35zM48-53c0 20 12 33 32 33 41-3 63-29 60-74-43 2-92-5-92 41" id="k"/><path d="M59-47c-2 24 18 29 38 22v24C64 9 27 4 27-40v-127H5v-23h24l9-43h21v43h35v23H59v120" id="l"/><path d="M115-194c53 0 69 39 70 98 0 66-23 100-70 100C84 3 66-7 56-30L54 0H23l1-261h32v101c10-23 28-34 59-34zm-8 174c40 0 45-34 45-75 0-40-5-75-45-74-42 0-51 32-51 76 0 43 10 73 51 73" id="m"/><path d="M135-143c-3-34-86-38-87 0 15 53 115 12 119 90S17 21 10-45l28-5c4 36 97 45 98 0-10-56-113-15-118-90-4-57 82-63 122-42 12 7 21 19 24 35" id="n"/><path d="M100-194c63 0 86 42 84 106H49c0 40 14 67 53 68 26 1 43-12 49-29l28 8c-11 28-37 45-77 45C44 4 14-33 15-96c1-61 26-98 85-98zm52 81c6-60-76-77-97-28-3 7-6 17-6 28h103" id="o"/><g id="a"><use transform="matrix(0.06790123456790124,0,0,0.06790123456790124,0,0)" xlink:href="#j"/><use transform="matrix(0.06790123456790124,0,0,0.06790123456790124,17.58641975308642,0)" xlink:href="#k"/><use transform="matrix(0.06790123456790124,0,0,0.06790123456790124,31.16666666666667,0)" xlink:href="#l"/><use transform="matrix(0.06790123456790124,0,0,0.06790123456790124,37.9567901234568,0)" xlink:href="#k"/><use transform="matrix(0.06790123456790124,0,0,0.06790123456790124,51.537037037037045,0)" xlink:href="#m"/><use transform="matrix(0.06790123456790124,0,0,0.06790123456790124,65.11728395061729,0)" xlink:href="#k"/><use transform="matrix(0.06790123456790124,0,0,0.06790123456790124,78.69753086419755,0)" xlink:href="#n"/><use transform="matrix(0.06790123456790124,0,0,0.06790123456790124,90.91975308641979,0)" xlink:href="#o"/></g><linearGradient gradientUnits="userSpaceOnUse" id="b" x1="460" y1="400" x2="460" y2="440"><stop offset="68.12%" stop-color="#fff"/><stop offset="89.49%" stop-color="#c3f7c8"/></linearGradient><path d="M63-220v92h138v28H63V0H30v-248h175v28H63" id="p"/><path d="M114-163C36-179 61-72 57 0H25l-1-190h30c1 12-1 29 2 39 6-27 23-49 58-41v29" id="q"/><path d="M100-194c62-1 85 37 85 99 1 63-27 99-86 99S16-35 15-95c0-66 28-99 85-99zM99-20c44 1 53-31 53-75 0-43-8-75-51-75s-53 32-53 75 10 74 51 75" id="r"/><path d="M117-194c89-4 53 116 60 194h-32v-121c0-31-8-49-39-48C34-167 62-67 57 0H25l-1-190h30c1 10-1 24 2 32 11-22 29-35 61-36" id="s"/><path d="M85-194c31 0 48 13 60 33l-1-100h32l1 261h-30c-2-10 0-23-3-31C134-8 116 4 85 4 32 4 16-35 15-94c0-66 23-100 70-100zm9 24c-40 0-46 34-46 75 0 40 6 74 45 74 42 0 51-32 51-76 0-42-9-74-50-73" id="t"/><g id="c"><use transform="matrix(0.06790123456790124,0,0,0.06790123456790124,0,0)" xlink:href="#p"/><use transform="matrix(0.06790123456790124,0,0,0.06790123456790124,14.870370370370372,0)" xlink:href="#q"/><use transform="matrix(0.06790123456790124,0,0,0.06790123456790124,22.95061728395062,0)" xlink:href="#r"/><use transform="matrix(0.06790123456790124,0,0,0.06790123456790124,36.53086419753087,0)" xlink:href="#s"/><use transform="matrix(0.06790123456790124,0,0,0.06790123456790124,50.111111111111114,0)" xlink:href="#l"/><use transform="matrix(0.06790123456790124,0,0,0.06790123456790124,56.90123456790124,0)" xlink:href="#o"/><use transform="matrix(0.06790123456790124,0,0,0.06790123456790124,70.4814814814815,0)" xlink:href="#s"/><use transform="matrix(0.06790123456790124,0,0,0.06790123456790124,84.06172839506176,0)" xlink:href="#t"/></g><linearGradient gradientUnits="userSpaceOnUse" id="d" x1="440" y1="420" x2="440" y2="460"><stop offset="68.12%" stop-color="#fff"/><stop offset="89.49%" stop-color="#c3f7c8"/></linearGradient><linearGradient gradientUnits="userSpaceOnUse" id="e" x1="420" y1="440" x2="420" y2="480"><stop offset="68.12%" stop-color="#fff"/><stop offset="89.49%" stop-color="#c3f7c8"/></linearGradient><linearGradient gradientUnits="userSpaceOnUse" id="f" x1="420" y1="640" x2="420" y2="540"><stop offset="19.93%" stop-color="#fff"/><stop offset="27.17%" stop-color="#cfe4ff"/><stop offset="68.12%" stop-color="#cfe4ff"/><stop offset="77.17%" stop-color="#c3f7c8"/></linearGradient><path d="M160-131c35 5 61 23 61 61C221 17 115-2 30 0v-248c76 3 177-17 177 60 0 33-19 50-47 57zm-97-11c50-1 110 9 110-42 0-47-63-36-110-37v79zm0 115c55-2 124 14 124-45 0-56-70-42-124-44v89" id="u"/><path d="M96-169c-40 0-48 33-48 73s9 75 48 75c24 0 41-14 43-38l32 2c-6 37-31 61-74 61-59 0-76-41-82-99-10-93 101-131 147-64 4 7 5 14 7 22l-32 3c-4-21-16-35-41-35" id="v"/><path d="M143 0L79-87 56-68V0H24v-261h32v163l83-92h37l-77 82L181 0h-38" id="w"/><g id="g"><use transform="matrix(0.06790123456790124,0,0,0.06790123456790124,0,0)" xlink:href="#u"/><use transform="matrix(0.06790123456790124,0,0,0.06790123456790124,16.296296296296298,0)" xlink:href="#k"/><use transform="matrix(0.06790123456790124,0,0,0.06790123456790124,29.876543209876544,0)" xlink:href="#v"/><use transform="matrix(0.06790123456790124,0,0,0.06790123456790124,42.098765432098766,0)" xlink:href="#w"/><use transform="matrix(0.06790123456790124,0,0,0.06790123456790124,54.32098765432099,0)" xlink:href="#o"/><use transform="matrix(0.06790123456790124,0,0,0.06790123456790124,67.90123456790124,0)" xlink:href="#s"/><use transform="matrix(0.06790123456790124,0,0,0.06790123456790124,81.4814814814815,0)" xlink:href="#t"/></g><linearGradient gradientUnits="userSpaceOnUse" id="h" x1="400" y1="660" x2="400" y2="560"><stop offset="19.93%" stop-color="#fff"/><stop offset="27.17%" stop-color="#cfe4ff"/><stop offset="68.12%" stop-color="#cfe4ff"/><stop offset="77.17%" stop-color="#c3f7c8"/></linearGradient><linearGradient gradientUnits="userSpaceOnUse" id="i" x1="400" y1="460" x2="400" y2="500"><stop offset="68.12%" stop-color="#fff"/><stop offset="89.49%" stop-color="#c3f7c8"/></linearGradient></defs></g></svg>