<svg xmlns="http://www.w3.org/2000/svg" xmlns:xlink="http://www.w3.org/1999/xlink" xmlns:lucid="lucid" width="1144.5" height="621.83"><g transform="translate(-438.5 -338.5)" lucid:page-tab-id="0_0"><path d="M440 460a20 20 0 0 1 20-20h240a20 20 0 0 1 20 20v220a20 20 0 0 1-20 20H460a20 20 0 0 1-20-20z" fill-opacity="0"/><path d="M438.5 460a1.5 1.5 0 0 1 1.5-1.5 1.5 1.5 0 0 1 1.5 1.5 1.5 1.5 0 0 1-1.5 1.5 1.5 1.5 0 0 1-1.5-1.5m2.73-9.96a1.5 1.5 0 0 1 1.5-1.5 1.5 1.5 0 0 1 1.5 1.5 1.5 1.5 0 0 1-1.5 1.5 1.5 1.5 0 0 1-1.5-1.5V450m7.3-7.26a1.5 1.5 0 0 1 1.5-1.5 1.5 1.5 0 0 1 1.5 1.5 1.5 1.5 0 0 1-1.5 1.5 1.5 1.5 0 0 1-1.5-1.5v-.03m9.97-2.7a1.5 1.5 0 0 1 1.5-1.5 1.5 1.5 0 0 1 1.5 1.5 1.5 1.5 0 0 1-1.5 1.5 1.5 1.5 0 0 1-1.5-1.5m12 0a1.5 1.5 0 0 1 1.5-1.5 1.5 1.5 0 0 1 1.5 1.5 1.5 1.5 0 0 1-1.5 1.5 1.5 1.5 0 0 1-1.5-1.5m12 0a1.5 1.5 0 0 1 1.5-1.5 1.5 1.5 0 0 1 1.5 1.5 1.5 1.5 0 0 1-1.5 1.5 1.5 1.5 0 0 1-1.5-1.5m12 0a1.5 1.5 0 0 1 1.5-1.5 1.5 1.5 0 0 1 1.5 1.5 1.5 1.5 0 0 1-1.5 1.5 1.5 1.5 0 0 1-1.5-1.5m12 0a1.5 1.5 0 0 1 1.5-1.5 1.5 1.5 0 0 1 1.5 1.5 1.5 1.5 0 0 1-1.5 1.5 1.5 1.5 0 0 1-1.5-1.5m12 0a1.5 1.5 0 0 1 1.5-1.5 1.5 1.5 0 0 1 1.5 1.5 1.5 1.5 0 0 1-1.5 1.5 1.5 1.5 0 0 1-1.5-1.5m12 0a1.5 1.5 0 0 1 1.5-1.5 1.5 1.5 0 0 1 1.5 1.5 1.5 1.5 0 0 1-1.5 1.5 1.5 1.5 0 0 1-1.5-1.5m12 0a1.5 1.5 0 0 1 1.5-1.5 1.5 1.5 0 0 1 1.5 1.5 1.5 1.5 0 0 1-1.5 1.5 1.5 1.5 0 0 1-1.5-1.5m12 0a1.5 1.5 0 0 1 1.5-1.5 1.5 1.5 0 0 1 1.5 1.5 1.5 1.5 0 0 1-1.5 1.5 1.5 1.5 0 0 1-1.5-1.5m12 0a1.5 1.5 0 0 1 1.5-1.5 1.5 1.5 0 0 1 1.5 1.5 1.5 1.5 0 0 1-1.5 1.5 1.5 1.5 0 0 1-1.5-1.5m12 0a1.5 1.5 0 0 1 1.5-1.5 1.5 1.5 0 0 1 1.5 1.5 1.5 1.5 0 0 1-1.5 1.5 1.5 1.5 0 0 1-1.5-1.5m12 0a1.5 1.5 0 0 1 1.5-1.5 1.5 1.5 0 0 1 1.5 1.5 1.5 1.5 0 0 1-1.5 1.5 1.5 1.5 0 0 1-1.5-1.5m12 0a1.5 1.5 0 0 1 1.5-1.5 1.5 1.5 0 0 1 1.5 1.5 1.5 1.5 0 0 1-1.5 1.5 1.5 1.5 0 0 1-1.5-1.5m12 0a1.5 1.5 0 0 1 1.5-1.5 1.5 1.5 0 0 1 1.5 1.5 1.5 1.5 0 0 1-1.5 1.5 1.5 1.5 0 0 1-1.5-1.5m12 0a1.5 1.5 0 0 1 1.5-1.5 1.5 1.5 0 0 1 1.5 1.5 1.5 1.5 0 0 1-1.5 1.5 1.5 1.5 0 0 1-1.5-1.5m12 0a1.5 1.5 0 0 1 1.5-1.5 1.5 1.5 0 0 1 1.5 1.5 1.5 1.5 0 0 1-1.5 1.5 1.5 1.5 0 0 1-1.5-1.5m12 0a1.5 1.5 0 0 1 1.5-1.5 1.5 1.5 0 0 1 1.5 1.5 1.5 1.5 0 0 1-1.5 1.5 1.5 1.5 0 0 1-1.5-1.5m12 0a1.5 1.5 0 0 1 1.5-1.5 1.5 1.5 0 0 1 1.5 1.5 1.5 1.5 0 0 1-1.5 1.5 1.5 1.5 0 0 1-1.5-1.5m12 0a1.5 1.5 0 0 1 1.5-1.5 1.5 1.5 0 0 1 1.5 1.5 1.5 1.5 0 0 1-1.5 1.5 1.5 1.5 0 0 1-1.5-1.5m12 0a1.5 1.5 0 0 1 1.5-1.5 1.5 1.5 0 0 1 1.5 1.5 1.5 1.5 0 0 1-1.5 1.5 1.5 1.5 0 0 1-1.5-1.5m12 0a1.5 1.5 0 0 1 1.5-1.5 1.5 1.5 0 0 1 1.5 1.5 1.5 1.5 0 0 1-1.5 1.5 1.5 1.5 0 0 1-1.5-1.5m9.97 2.74a1.5 1.5 0 0 1 1.5-1.5 1.5 1.5 0 0 1 1.5 1.5 1.5 1.5 0 0 1-1.5 1.5 1.5 1.5 0 0 1-1.5-1.5v-.03m7.3 7.34a1.5 1.5 0 0 1 1.5-1.5 1.5 1.5 0 0 1 1.5 1.5 1.5 1.5 0 0 1-1.5 1.5 1.5 1.5 0 0 1-1.5-1.5V450m2.73 10a1.5 1.5 0 0 1 1.5-1.5 1.5 1.5 0 0 1 1.5 1.5 1.5 1.5 0 0 1-1.5 1.5 1.5 1.5 0 0 1-1.5-1.5m0 12.24v-.02a1.5 1.5 0 0 1 1.5-1.5 1.5 1.5 0 0 1 1.5 1.5 1.5 1.5 0 0 1-1.5 1.5 1.5 1.5 0 0 1-1.5-1.5m0 12.24v-.02a1.5 1.5 0 0 1 1.5-1.5 1.5 1.5 0 0 1 1.5 1.5 1.5 1.5 0 0 1-1.5 1.5 1.5 1.5 0 0 1-1.5-1.5m0 12.24a1.5 1.5 0 0 1 1.5-1.5 1.5 1.5 0 0 1 1.5 1.5 1.5 1.5 0 0 1-1.5 1.5 1.5 1.5 0 0 1-1.5-1.5v-.03m0 12.25a1.5 1.5 0 0 1 1.5-1.5 1.5 1.5 0 0 1 1.5 1.5 1.5 1.5 0 0 1-1.5 1.5 1.5 1.5 0 0 1-1.5-1.5v-.03m0 12.26v-.02a1.5 1.5 0 0 1 1.5-1.5 1.5 1.5 0 0 1 1.5 1.5 1.5 1.5 0 0 1-1.5 1.5 1.5 1.5 0 0 1-1.5-1.5m0 12.25v-.02a1.5 1.5 0 0 1 1.5-1.5 1.5 1.5 0 0 1 1.5 1.5 1.5 1.5 0 0 1-1.5 1.5 1.5 1.5 0 0 1-1.5-1.5m0 12.24a1.5 1.5 0 0 1 1.5-1.5 1.5 1.5 0 0 1 1.5 1.5 1.5 1.5 0 0 1-1.5 1.5 1.5 1.5 0 0 1-1.5-1.5v-.03m0 12.25v-.02a1.5 1.5 0 0 1 1.5-1.5 1.5 1.5 0 0 1 1.5 1.5 1.5 1.5 0 0 1-1.5 1.5 1.5 1.5 0 0 1-1.5-1.5v-.02m0 12.25a1.5 1.5 0 0 1 1.5-1.5 1.5 1.5 0 0 1 1.5 1.5 1.5 1.5 0 0 1-1.5 1.5 1.5 1.5 0 0 1-1.5-1.5m0 12.24v-.02a1.5 1.5 0 0 1 1.5-1.5 1.5 1.5 0 0 1 1.5 1.5 1.5 1.5 0 0 1-1.5 1.5 1.5 1.5 0 0 1-1.5-1.5m0 12.24v-.02a1.5 1.5 0 0 1 1.5-1.5 1.5 1.5 0 0 1 1.5 1.5 1.5 1.5 0 0 1-1.5 1.5 1.5 1.5 0 0 1-1.5-1.5m0 12.24a1.5 1.5 0 0 1 1.5-1.5 1.5 1.5 0 0 1 1.5 1.5 1.5 1.5 0 0 1-1.5 1.5 1.5 1.5 0 0 1-1.5-1.5v-.03m0 12.25a1.5 1.5 0 0 1 1.5-1.5 1.5 1.5 0 0 1 1.5 1.5 1.5 1.5 0 0 1-1.5 1.5 1.5 1.5 0 0 1-1.5-1.5v-.03m0 12.26v-.02a1.5 1.5 0 0 1 1.5-1.5 1.5 1.5 0 0 1 1.5 1.5 1.5 1.5 0 0 1-1.5 1.5 1.5 1.5 0 0 1-1.5-1.5m0 12.25v-.02a1.5 1.5 0 0 1 1.5-1.5 1.5 1.5 0 0 1 1.5 1.5 1.5 1.5 0 0 1-1.5 1.5 1.5 1.5 0 0 1-1.5-1.5m0 12.24a1.5 1.5 0 0 1 1.5-1.5 1.5 1.5 0 0 1 1.5 1.5 1.5 1.5 0 0 1-1.5 1.5 1.5 1.5 0 0 1-1.5-1.5v-.03m0 12.25v-.02a1.5 1.5 0 0 1 1.5-1.5 1.5 1.5 0 0 1 1.5 1.5 1.5 1.5 0 0 1-1.5 1.5 1.5 1.5 0 0 1-1.5-1.5v-.02m0 12.25a1.5 1.5 0 0 1 1.5-1.5 1.5 1.5 0 0 1 1.5 1.5 1.5 1.5 0 0 1-1.5 1.5 1.5 1.5 0 0 1-1.5-1.5m-2.73 10v-.03a1.5 1.5 0 0 1 1.5-1.5 1.5 1.5 0 0 1 1.5 1.5 1.5 1.5 0 0 1-1.5 1.5 1.5 1.5 0 0 1-1.5-1.5m-7.3 7.32v-.03a1.5 1.5 0 0 1 1.5-1.5 1.5 1.5 0 0 1 1.5 1.5 1.5 1.5 0 0 1-1.5 1.5 1.5 1.5 0 0 1-1.5-1.5M698.5 700V700a1.5 1.5 0 0 1 1.5-1.5 1.5 1.5 0 0 1 1.5 1.5 1.5 1.5 0 0 1-1.5 1.5 1.5 1.5 0 0 1-1.5-1.5m-12 0a1.5 1.5 0 0 1 1.5-1.5 1.5 1.5 0 0 1 1.5 1.5 1.5 1.5 0 0 1-1.5 1.5 1.5 1.5 0 0 1-1.5-1.5m-12 0a1.5 1.5 0 0 1 1.5-1.5 1.5 1.5 0 0 1 1.5 1.5 1.5 1.5 0 0 1-1.5 1.5 1.5 1.5 0 0 1-1.5-1.5m-12 0a1.5 1.5 0 0 1 1.5-1.5 1.5 1.5 0 0 1 1.5 1.5 1.5 1.5 0 0 1-1.5 1.5 1.5 1.5 0 0 1-1.5-1.5m-12 0a1.5 1.5 0 0 1 1.5-1.5 1.5 1.5 0 0 1 1.5 1.5 1.5 1.5 0 0 1-1.5 1.5 1.5 1.5 0 0 1-1.5-1.5m-12 0a1.5 1.5 0 0 1 1.5-1.5 1.5 1.5 0 0 1 1.5 1.5 1.5 1.5 0 0 1-1.5 1.5 1.5 1.5 0 0 1-1.5-1.5m-12 0a1.5 1.5 0 0 1 1.5-1.5 1.5 1.5 0 0 1 1.5 1.5 1.5 1.5 0 0 1-1.5 1.5 1.5 1.5 0 0 1-1.5-1.5m-12 0a1.5 1.5 0 0 1 1.5-1.5 1.5 1.5 0 0 1 1.5 1.5 1.5 1.5 0 0 1-1.5 1.5 1.5 1.5 0 0 1-1.5-1.5m-12 0a1.5 1.5 0 0 1 1.5-1.5 1.5 1.5 0 0 1 1.5 1.5 1.5 1.5 0 0 1-1.5 1.5 1.5 1.5 0 0 1-1.5-1.5m-12 0a1.5 1.5 0 0 1 1.5-1.5 1.5 1.5 0 0 1 1.5 1.5 1.5 1.5 0 0 1-1.5 1.5 1.5 1.5 0 0 1-1.5-1.5m-12 0a1.5 1.5 0 0 1 1.5-1.5 1.5 1.5 0 0 1 1.5 1.5 1.5 1.5 0 0 1-1.5 1.5 1.5 1.5 0 0 1-1.5-1.5m-12 0a1.5 1.5 0 0 1 1.5-1.5 1.5 1.5 0 0 1 1.5 1.5 1.5 1.5 0 0 1-1.5 1.5 1.5 1.5 0 0 1-1.5-1.5m-12 0a1.5 1.5 0 0 1 1.5-1.5 1.5 1.5 0 0 1 1.5 1.5 1.5 1.5 0 0 1-1.5 1.5 1.5 1.5 0 0 1-1.5-1.5m-12 0a1.5 1.5 0 0 1 1.5-1.5 1.5 1.5 0 0 1 1.5 1.5 1.5 1.5 0 0 1-1.5 1.5 1.5 1.5 0 0 1-1.5-1.5m-12 0a1.5 1.5 0 0 1 1.5-1.5 1.5 1.5 0 0 1 1.5 1.5 1.5 1.5 0 0 1-1.5 1.5 1.5 1.5 0 0 1-1.5-1.5m-12 0a1.5 1.5 0 0 1 1.5-1.5 1.5 1.5 0 0 1 1.5 1.5 1.5 1.5 0 0 1-1.5 1.5 1.5 1.5 0 0 1-1.5-1.5m-12 0a1.5 1.5 0 0 1 1.5-1.5 1.5 1.5 0 0 1 1.5 1.5 1.5 1.5 0 0 1-1.5 1.5 1.5 1.5 0 0 1-1.5-1.5m-12 0a1.5 1.5 0 0 1 1.5-1.5 1.5 1.5 0 0 1 1.5 1.5 1.5 1.5 0 0 1-1.5 1.5 1.5 1.5 0 0 1-1.5-1.5m-12 0a1.5 1.5 0 0 1 1.5-1.5 1.5 1.5 0 0 1 1.5 1.5 1.5 1.5 0 0 1-1.5 1.5 1.5 1.5 0 0 1-1.5-1.5m-12 0a1.5 1.5 0 0 1 1.5-1.5 1.5 1.5 0 0 1 1.5 1.5 1.5 1.5 0 0 1-1.5 1.5 1.5 1.5 0 0 1-1.5-1.5m-12 0a1.5 1.5 0 0 1 1.5-1.5 1.5 1.5 0 0 1 1.5 1.5 1.5 1.5 0 0 1-1.5 1.5 1.5 1.5 0 0 1-1.5-1.5m-9.97-2.7v-.03a1.5 1.5 0 0 1 1.5-1.5 1.5 1.5 0 0 1 1.5 1.5 1.5 1.5 0 0 1-1.5 1.5 1.5 1.5 0 0 1-1.5-1.5m-7.3-7.28v-.03a1.5 1.5 0 0 1 1.5-1.5 1.5 1.5 0 0 1 1.5 1.5 1.5 1.5 0 0 1-1.5 1.5 1.5 1.5 0 0 1-1.5-1.5M438.5 680a1.5 1.5 0 0 1 1.5-1.5 1.5 1.5 0 0 1 1.5 1.5 1.5 1.5 0 0 1-1.5 1.5 1.5 1.5 0 0 1-1.5-1.5m0-12.2v-.02a1.5 1.5 0 0 1 1.5-1.5 1.5 1.5 0 0 1 1.5 1.5 1.5 1.5 0 0 1-1.5 1.5 1.5 1.5 0 0 1-1.5-1.5v-.02m0-12.2a1.5 1.5 0 0 1 1.5-1.5 1.5 1.5 0 0 1 1.5 1.5 1.5 1.5 0 0 1-1.5 1.5 1.5 1.5 0 0 1-1.5-1.5v-.02m0-12.2a1.5 1.5 0 0 1 1.5-1.5 1.5 1.5 0 0 1 1.5 1.5 1.5 1.5 0 0 1-1.5 1.5 1.5 1.5 0 0 1-1.5-1.5v-.02m0-12.2a1.5 1.5 0 0 1 1.5-1.5 1.5 1.5 0 0 1 1.5 1.5 1.5 1.5 0 0 1-1.5 1.5 1.5 1.5 0 0 1-1.5-1.5v-.02m0-12.2a1.5 1.5 0 0 1 1.5-1.5 1.5 1.5 0 0 1 1.5 1.5 1.5 1.5 0 0 1-1.5 1.5 1.5 1.5 0 0 1-1.5-1.5v-.03m0-12.2a1.5 1.5 0 0 1 1.5-1.5 1.5 1.5 0 0 1 1.5 1.5 1.5 1.5 0 0 1-1.5 1.5 1.5 1.5 0 0 1-1.5-1.5v-.02m0-12.2a1.5 1.5 0 0 1 1.5-1.5 1.5 1.5 0 0 1 1.5 1.5 1.5 1.5 0 0 1-1.5 1.5 1.5 1.5 0 0 1-1.5-1.5v-.02m0-12.2a1.5 1.5 0 0 1 1.5-1.5 1.5 1.5 0 0 1 1.5 1.5 1.5 1.5 0 0 1-1.5 1.5 1.5 1.5 0 0 1-1.5-1.5v-.02m0-12.2a1.5 1.5 0 0 1 1.5-1.5 1.5 1.5 0 0 1 1.5 1.5 1.5 1.5 0 0 1-1.5 1.5 1.5 1.5 0 0 1-1.5-1.5m0-12.2v-.02a1.5 1.5 0 0 1 1.5-1.5 1.5 1.5 0 0 1 1.5 1.5 1.5 1.5 0 0 1-1.5 1.5 1.5 1.5 0 0 1-1.5-1.5v-.02m0-12.2a1.5 1.5 0 0 1 1.5-1.5 1.5 1.5 0 0 1 1.5 1.5 1.5 1.5 0 0 1-1.5 1.5 1.5 1.5 0 0 1-1.5-1.5v-.02m0-12.2a1.5 1.5 0 0 1 1.5-1.5 1.5 1.5 0 0 1 1.5 1.5 1.5 1.5 0 0 1-1.5 1.5 1.5 1.5 0 0 1-1.5-1.5v-.02m0-12.2a1.5 1.5 0 0 1 1.5-1.5 1.5 1.5 0 0 1 1.5 1.5 1.5 1.5 0 0 1-1.5 1.5 1.5 1.5 0 0 1-1.5-1.5v-.02m0-12.2a1.5 1.5 0 0 1 1.5-1.5 1.5 1.5 0 0 1 1.5 1.5 1.5 1.5 0 0 1-1.5 1.5 1.5 1.5 0 0 1-1.5-1.5v-.03m0-12.2a1.5 1.5 0 0 1 1.5-1.5 1.5 1.5 0 0 1 1.5 1.5 1.5 1.5 0 0 1-1.5 1.5 1.5 1.5 0 0 1-1.5-1.5v-.02m0-12.2a1.5 1.5 0 0 1 1.5-1.5 1.5 1.5 0 0 1 1.5 1.5 1.5 1.5 0 0 1-1.5 1.5 1.5 1.5 0 0 1-1.5-1.5v-.02m0-12.2a1.5 1.5 0 0 1 1.5-1.5 1.5 1.5 0 0 1 1.5 1.5 1.5 1.5 0 0 1-1.5 1.5 1.5 1.5 0 0 1-1.5-1.5v-.02"/><path d="M800 460a20 20 0 0 1 20-20h240a20 20 0 0 1 20 20v220a20 20 0 0 1-20 20H820a20 20 0 0 1-20-20z" fill-opacity="0"/><path d="M798.5 460a1.5 1.5 0 0 1 1.5-1.5 1.5 1.5 0 0 1 1.5 1.5 1.5 1.5 0 0 1-1.5 1.5 1.5 1.5 0 0 1-1.5-1.5m2.73-9.96a1.5 1.5 0 0 1 1.5-1.5 1.5 1.5 0 0 1 1.5 1.5 1.5 1.5 0 0 1-1.5 1.5 1.5 1.5 0 0 1-1.5-1.5V450m7.3-7.26a1.5 1.5 0 0 1 1.5-1.5 1.5 1.5 0 0 1 1.5 1.5 1.5 1.5 0 0 1-1.5 1.5 1.5 1.5 0 0 1-1.5-1.5v-.03m9.97-2.7a1.5 1.5 0 0 1 1.5-1.5 1.5 1.5 0 0 1 1.5 1.5 1.5 1.5 0 0 1-1.5 1.5 1.5 1.5 0 0 1-1.5-1.5m12 0a1.5 1.5 0 0 1 1.5-1.5 1.5 1.5 0 0 1 1.5 1.5 1.5 1.5 0 0 1-1.5 1.5 1.5 1.5 0 0 1-1.5-1.5m12 0a1.5 1.5 0 0 1 1.5-1.5 1.5 1.5 0 0 1 1.5 1.5 1.5 1.5 0 0 1-1.5 1.5 1.5 1.5 0 0 1-1.5-1.5m12 0a1.5 1.5 0 0 1 1.5-1.5 1.5 1.5 0 0 1 1.5 1.5 1.5 1.5 0 0 1-1.5 1.5 1.5 1.5 0 0 1-1.5-1.5m12 0a1.5 1.5 0 0 1 1.5-1.5 1.5 1.5 0 0 1 1.5 1.5 1.5 1.5 0 0 1-1.5 1.5 1.5 1.5 0 0 1-1.5-1.5m12 0a1.5 1.5 0 0 1 1.5-1.5 1.5 1.5 0 0 1 1.5 1.5 1.5 1.5 0 0 1-1.5 1.5 1.5 1.5 0 0 1-1.5-1.5m12 0a1.5 1.5 0 0 1 1.5-1.5 1.5 1.5 0 0 1 1.5 1.5 1.5 1.5 0 0 1-1.5 1.5 1.5 1.5 0 0 1-1.5-1.5m12 0a1.5 1.5 0 0 1 1.5-1.5 1.5 1.5 0 0 1 1.5 1.5 1.5 1.5 0 0 1-1.5 1.5 1.5 1.5 0 0 1-1.5-1.5m12 0a1.5 1.5 0 0 1 1.5-1.5 1.5 1.5 0 0 1 1.5 1.5 1.5 1.5 0 0 1-1.5 1.5 1.5 1.5 0 0 1-1.5-1.5m12 0a1.5 1.5 0 0 1 1.5-1.5 1.5 1.5 0 0 1 1.5 1.5 1.5 1.5 0 0 1-1.5 1.5 1.5 1.5 0 0 1-1.5-1.5m12 0a1.5 1.5 0 0 1 1.5-1.5 1.5 1.5 0 0 1 1.5 1.5 1.5 1.5 0 0 1-1.5 1.5 1.5 1.5 0 0 1-1.5-1.5m12 0a1.5 1.5 0 0 1 1.5-1.5 1.5 1.5 0 0 1 1.5 1.5 1.5 1.5 0 0 1-1.5 1.5 1.5 1.5 0 0 1-1.5-1.5m12 0a1.5 1.5 0 0 1 1.5-1.5 1.5 1.5 0 0 1 1.5 1.5 1.5 1.5 0 0 1-1.5 1.5 1.5 1.5 0 0 1-1.5-1.5m12 0a1.5 1.5 0 0 1 1.5-1.5 1.5 1.5 0 0 1 1.5 1.5 1.5 1.5 0 0 1-1.5 1.5 1.5 1.5 0 0 1-1.5-1.5m12 0a1.5 1.5 0 0 1 1.5-1.5 1.5 1.5 0 0 1 1.5 1.5 1.5 1.5 0 0 1-1.5 1.5 1.5 1.5 0 0 1-1.5-1.5m12 0a1.5 1.5 0 0 1 1.5-1.5 1.5 1.5 0 0 1 1.5 1.5 1.5 1.5 0 0 1-1.5 1.5 1.5 1.5 0 0 1-1.5-1.5m12 0a1.5 1.5 0 0 1 1.5-1.5 1.5 1.5 0 0 1 1.5 1.5 1.5 1.5 0 0 1-1.5 1.5 1.5 1.5 0 0 1-1.5-1.5m12 0a1.5 1.5 0 0 1 1.5-1.5 1.5 1.5 0 0 1 1.5 1.5 1.5 1.5 0 0 1-1.5 1.5 1.5 1.5 0 0 1-1.5-1.5m12 0a1.5 1.5 0 0 1 1.5-1.5 1.5 1.5 0 0 1 1.5 1.5 1.5 1.5 0 0 1-1.5 1.5 1.5 1.5 0 0 1-1.5-1.5m12 0a1.5 1.5 0 0 1 1.5-1.5 1.5 1.5 0 0 1 1.5 1.5 1.5 1.5 0 0 1-1.5 1.5 1.5 1.5 0 0 1-1.5-1.5m12 0a1.5 1.5 0 0 1 1.5-1.5 1.5 1.5 0 0 1 1.5 1.5 1.5 1.5 0 0 1-1.5 1.5 1.5 1.5 0 0 1-1.5-1.5m9.97 2.74a1.5 1.5 0 0 1 1.5-1.5 1.5 1.5 0 0 1 1.5 1.5 1.5 1.5 0 0 1-1.5 1.5 1.5 1.5 0 0 1-1.5-1.5v-.03m7.3 7.34a1.5 1.5 0 0 1 1.5-1.5 1.5 1.5 0 0 1 1.5 1.5 1.5 1.5 0 0 1-1.5 1.5 1.5 1.5 0 0 1-1.5-1.5V450m2.73 10a1.5 1.5 0 0 1 1.5-1.5 1.5 1.5 0 0 1 1.5 1.5 1.5 1.5 0 0 1-1.5 1.5 1.5 1.5 0 0 1-1.5-1.5m0 12.24v-.02a1.5 1.5 0 0 1 1.5-1.5 1.5 1.5 0 0 1 1.5 1.5 1.5 1.5 0 0 1-1.5 1.5 1.5 1.5 0 0 1-1.5-1.5m0 12.24v-.02a1.5 1.5 0 0 1 1.5-1.5 1.5 1.5 0 0 1 1.5 1.5 1.5 1.5 0 0 1-1.5 1.5 1.5 1.5 0 0 1-1.5-1.5m0 12.24a1.5 1.5 0 0 1 1.5-1.5 1.5 1.5 0 0 1 1.5 1.5 1.5 1.5 0 0 1-1.5 1.5 1.5 1.5 0 0 1-1.5-1.5v-.03m0 12.25a1.5 1.5 0 0 1 1.5-1.5 1.5 1.5 0 0 1 1.5 1.5 1.5 1.5 0 0 1-1.5 1.5 1.5 1.5 0 0 1-1.5-1.5v-.03m0 12.26v-.02a1.5 1.5 0 0 1 1.5-1.5 1.5 1.5 0 0 1 1.5 1.5 1.5 1.5 0 0 1-1.5 1.5 1.5 1.5 0 0 1-1.5-1.5m0 12.25v-.02a1.5 1.5 0 0 1 1.5-1.5 1.5 1.5 0 0 1 1.5 1.5 1.5 1.5 0 0 1-1.5 1.5 1.5 1.5 0 0 1-1.5-1.5m0 12.24a1.5 1.5 0 0 1 1.5-1.5 1.5 1.5 0 0 1 1.5 1.5 1.5 1.5 0 0 1-1.5 1.5 1.5 1.5 0 0 1-1.5-1.5v-.03m0 12.25v-.02a1.5 1.5 0 0 1 1.5-1.5 1.5 1.5 0 0 1 1.5 1.5 1.5 1.5 0 0 1-1.5 1.5 1.5 1.5 0 0 1-1.5-1.5v-.02m0 12.25a1.5 1.5 0 0 1 1.5-1.5 1.5 1.5 0 0 1 1.5 1.5 1.5 1.5 0 0 1-1.5 1.5 1.5 1.5 0 0 1-1.5-1.5m0 12.24v-.02a1.5 1.5 0 0 1 1.5-1.5 1.5 1.5 0 0 1 1.5 1.5 1.5 1.5 0 0 1-1.5 1.5 1.5 1.5 0 0 1-1.5-1.5m0 12.24v-.02a1.5 1.5 0 0 1 1.5-1.5 1.5 1.5 0 0 1 1.5 1.5 1.5 1.5 0 0 1-1.5 1.5 1.5 1.5 0 0 1-1.5-1.5m0 12.24a1.5 1.5 0 0 1 1.5-1.5 1.5 1.5 0 0 1 1.5 1.5 1.5 1.5 0 0 1-1.5 1.5 1.5 1.5 0 0 1-1.5-1.5v-.03m0 12.25a1.5 1.5 0 0 1 1.5-1.5 1.5 1.5 0 0 1 1.5 1.5 1.5 1.5 0 0 1-1.5 1.5 1.5 1.5 0 0 1-1.5-1.5v-.03m0 12.26v-.02a1.5 1.5 0 0 1 1.5-1.5 1.5 1.5 0 0 1 1.5 1.5 1.5 1.5 0 0 1-1.5 1.5 1.5 1.5 0 0 1-1.5-1.5m0 12.25v-.02a1.5 1.5 0 0 1 1.5-1.5 1.5 1.5 0 0 1 1.5 1.5 1.5 1.5 0 0 1-1.5 1.5 1.5 1.5 0 0 1-1.5-1.5m0 12.24a1.5 1.5 0 0 1 1.5-1.5 1.5 1.5 0 0 1 1.5 1.5 1.5 1.5 0 0 1-1.5 1.5 1.5 1.5 0 0 1-1.5-1.5v-.03m0 12.25v-.02a1.5 1.5 0 0 1 1.5-1.5 1.5 1.5 0 0 1 1.5 1.5 1.5 1.5 0 0 1-1.5 1.5 1.5 1.5 0 0 1-1.5-1.5v-.02m0 12.25a1.5 1.5 0 0 1 1.5-1.5 1.5 1.5 0 0 1 1.5 1.5 1.5 1.5 0 0 1-1.5 1.5 1.5 1.5 0 0 1-1.5-1.5m-2.73 10v-.03a1.5 1.5 0 0 1 1.5-1.5 1.5 1.5 0 0 1 1.5 1.5 1.5 1.5 0 0 1-1.5 1.5 1.5 1.5 0 0 1-1.5-1.5m-7.3 7.32v-.03a1.5 1.5 0 0 1 1.5-1.5 1.5 1.5 0 0 1 1.5 1.5 1.5 1.5 0 0 1-1.5 1.5 1.5 1.5 0 0 1-1.5-1.5m-9.97 2.75V700a1.5 1.5 0 0 1 1.5-1.5 1.5 1.5 0 0 1 1.5 1.5 1.5 1.5 0 0 1-1.5 1.5 1.5 1.5 0 0 1-1.5-1.5m-12 0a1.5 1.5 0 0 1 1.5-1.5 1.5 1.5 0 0 1 1.5 1.5 1.5 1.5 0 0 1-1.5 1.5 1.5 1.5 0 0 1-1.5-1.5m-12 0a1.5 1.5 0 0 1 1.5-1.5 1.5 1.5 0 0 1 1.5 1.5 1.5 1.5 0 0 1-1.5 1.5 1.5 1.5 0 0 1-1.5-1.5m-12 0a1.5 1.5 0 0 1 1.5-1.5 1.5 1.5 0 0 1 1.5 1.5 1.5 1.5 0 0 1-1.5 1.5 1.5 1.5 0 0 1-1.5-1.5m-12 0a1.5 1.5 0 0 1 1.5-1.5 1.5 1.5 0 0 1 1.5 1.5 1.5 1.5 0 0 1-1.5 1.5 1.5 1.5 0 0 1-1.5-1.5m-12 0a1.5 1.5 0 0 1 1.5-1.5 1.5 1.5 0 0 1 1.5 1.5 1.5 1.5 0 0 1-1.5 1.5 1.5 1.5 0 0 1-1.5-1.5m-12 0a1.5 1.5 0 0 1 1.5-1.5 1.5 1.5 0 0 1 1.5 1.5 1.5 1.5 0 0 1-1.5 1.5 1.5 1.5 0 0 1-1.5-1.5m-12 0a1.5 1.5 0 0 1 1.5-1.5 1.5 1.5 0 0 1 1.5 1.5 1.5 1.5 0 0 1-1.5 1.5 1.5 1.5 0 0 1-1.5-1.5m-12 0a1.5 1.5 0 0 1 1.5-1.5 1.5 1.5 0 0 1 1.5 1.5 1.5 1.5 0 0 1-1.5 1.5 1.5 1.5 0 0 1-1.5-1.5m-12 0a1.5 1.5 0 0 1 1.5-1.5 1.5 1.5 0 0 1 1.5 1.5 1.5 1.5 0 0 1-1.5 1.5 1.5 1.5 0 0 1-1.5-1.5m-12 0a1.5 1.5 0 0 1 1.5-1.5 1.5 1.5 0 0 1 1.5 1.5 1.5 1.5 0 0 1-1.5 1.5 1.5 1.5 0 0 1-1.5-1.5m-12 0a1.5 1.5 0 0 1 1.5-1.5 1.5 1.5 0 0 1 1.5 1.5 1.5 1.5 0 0 1-1.5 1.5 1.5 1.5 0 0 1-1.5-1.5m-12 0a1.5 1.5 0 0 1 1.5-1.5 1.5 1.5 0 0 1 1.5 1.5 1.5 1.5 0 0 1-1.5 1.5 1.5 1.5 0 0 1-1.5-1.5m-12 0a1.5 1.5 0 0 1 1.5-1.5 1.5 1.5 0 0 1 1.5 1.5 1.5 1.5 0 0 1-1.5 1.5 1.5 1.5 0 0 1-1.5-1.5m-12 0a1.5 1.5 0 0 1 1.5-1.5 1.5 1.5 0 0 1 1.5 1.5 1.5 1.5 0 0 1-1.5 1.5 1.5 1.5 0 0 1-1.5-1.5m-12 0a1.5 1.5 0 0 1 1.5-1.5 1.5 1.5 0 0 1 1.5 1.5 1.5 1.5 0 0 1-1.5 1.5 1.5 1.5 0 0 1-1.5-1.5m-12 0a1.5 1.5 0 0 1 1.5-1.5 1.5 1.5 0 0 1 1.5 1.5 1.5 1.5 0 0 1-1.5 1.5 1.5 1.5 0 0 1-1.5-1.5m-12 0a1.5 1.5 0 0 1 1.5-1.5 1.5 1.5 0 0 1 1.5 1.5 1.5 1.5 0 0 1-1.5 1.5 1.5 1.5 0 0 1-1.5-1.5m-12 0a1.5 1.5 0 0 1 1.5-1.5 1.5 1.5 0 0 1 1.5 1.5 1.5 1.5 0 0 1-1.5 1.5 1.5 1.5 0 0 1-1.5-1.5m-12 0a1.5 1.5 0 0 1 1.5-1.5 1.5 1.5 0 0 1 1.5 1.5 1.5 1.5 0 0 1-1.5 1.5 1.5 1.5 0 0 1-1.5-1.5m-12 0a1.5 1.5 0 0 1 1.5-1.5 1.5 1.5 0 0 1 1.5 1.5 1.5 1.5 0 0 1-1.5 1.5 1.5 1.5 0 0 1-1.5-1.5m-9.97-2.7v-.03a1.5 1.5 0 0 1 1.5-1.5 1.5 1.5 0 0 1 1.5 1.5 1.5 1.5 0 0 1-1.5 1.5 1.5 1.5 0 0 1-1.5-1.5m-7.3-7.28v-.03a1.5 1.5 0 0 1 1.5-1.5 1.5 1.5 0 0 1 1.5 1.5 1.5 1.5 0 0 1-1.5 1.5 1.5 1.5 0 0 1-1.5-1.5M798.5 680a1.5 1.5 0 0 1 1.5-1.5 1.5 1.5 0 0 1 1.5 1.5 1.5 1.5 0 0 1-1.5 1.5 1.5 1.5 0 0 1-1.5-1.5m0-12.2v-.02a1.5 1.5 0 0 1 1.5-1.5 1.5 1.5 0 0 1 1.5 1.5 1.5 1.5 0 0 1-1.5 1.5 1.5 1.5 0 0 1-1.5-1.5v-.02m0-12.2a1.5 1.5 0 0 1 1.5-1.5 1.5 1.5 0 0 1 1.5 1.5 1.5 1.5 0 0 1-1.5 1.5 1.5 1.5 0 0 1-1.5-1.5v-.02m0-12.2a1.5 1.5 0 0 1 1.5-1.5 1.5 1.5 0 0 1 1.5 1.5 1.5 1.5 0 0 1-1.5 1.5 1.5 1.5 0 0 1-1.5-1.5v-.02m0-12.2a1.5 1.5 0 0 1 1.5-1.5 1.5 1.5 0 0 1 1.5 1.5 1.5 1.5 0 0 1-1.5 1.5 1.5 1.5 0 0 1-1.5-1.5v-.02m0-12.2a1.5 1.5 0 0 1 1.5-1.5 1.5 1.5 0 0 1 1.5 1.5 1.5 1.5 0 0 1-1.5 1.5 1.5 1.5 0 0 1-1.5-1.5v-.03m0-12.2a1.5 1.5 0 0 1 1.5-1.5 1.5 1.5 0 0 1 1.5 1.5 1.5 1.5 0 0 1-1.5 1.5 1.5 1.5 0 0 1-1.5-1.5v-.02m0-12.2a1.5 1.5 0 0 1 1.5-1.5 1.5 1.5 0 0 1 1.5 1.5 1.5 1.5 0 0 1-1.5 1.5 1.5 1.5 0 0 1-1.5-1.5v-.02m0-12.2a1.5 1.5 0 0 1 1.5-1.5 1.5 1.5 0 0 1 1.5 1.5 1.5 1.5 0 0 1-1.5 1.5 1.5 1.5 0 0 1-1.5-1.5v-.02m0-12.2a1.5 1.5 0 0 1 1.5-1.5 1.5 1.5 0 0 1 1.5 1.5 1.5 1.5 0 0 1-1.5 1.5 1.5 1.5 0 0 1-1.5-1.5m0-12.2v-.02a1.5 1.5 0 0 1 1.5-1.5 1.5 1.5 0 0 1 1.5 1.5 1.5 1.5 0 0 1-1.5 1.5 1.5 1.5 0 0 1-1.5-1.5v-.02m0-12.2a1.5 1.5 0 0 1 1.5-1.5 1.5 1.5 0 0 1 1.5 1.5 1.5 1.5 0 0 1-1.5 1.5 1.5 1.5 0 0 1-1.5-1.5v-.02m0-12.2a1.5 1.5 0 0 1 1.5-1.5 1.5 1.5 0 0 1 1.5 1.5 1.5 1.5 0 0 1-1.5 1.5 1.5 1.5 0 0 1-1.5-1.5v-.02m0-12.2a1.5 1.5 0 0 1 1.5-1.5 1.5 1.5 0 0 1 1.5 1.5 1.5 1.5 0 0 1-1.5 1.5 1.5 1.5 0 0 1-1.5-1.5v-.02m0-12.2a1.5 1.5 0 0 1 1.5-1.5 1.5 1.5 0 0 1 1.5 1.5 1.5 1.5 0 0 1-1.5 1.5 1.5 1.5 0 0 1-1.5-1.5v-.03m0-12.2a1.5 1.5 0 0 1 1.5-1.5 1.5 1.5 0 0 1 1.5 1.5 1.5 1.5 0 0 1-1.5 1.5 1.5 1.5 0 0 1-1.5-1.5v-.02m0-12.2a1.5 1.5 0 0 1 1.5-1.5 1.5 1.5 0 0 1 1.5 1.5 1.5 1.5 0 0 1-1.5 1.5 1.5 1.5 0 0 1-1.5-1.5v-.02m0-12.2a1.5 1.5 0 0 1 1.5-1.5 1.5 1.5 0 0 1 1.5 1.5 1.5 1.5 0 0 1-1.5 1.5 1.5 1.5 0 0 1-1.5-1.5v-.02"/><path d="M680.53 700.83a20 20 0 0 1-20 20h-20a20 20 0 0 1-20-20 20 20 0 0 1 20-20h20a20 20 0 0 1 20 20z" stroke="#000" stroke-width="3" fill="#fff"/><path d="M460 520.83a20 20 0 0 1 20-20h200a20 20 0 0 1 20 20v100a20 20 0 0 1-20 20H480a20 20 0 0 1-20-20z" stroke="#000" stroke-width="3" fill="url(#a)"/><use xlink:href="#b" transform="matrix(1,0,0,1,465,505.83333333333337) translate(86.18518518518519 70.08333333333334)"/><path d="M820 600a20 20 0 0 1 20-20h200a20 20 0 0 1 20 20v20a20 20 0 0 1-20 20H840a20 20 0 0 1-20-20z" stroke="#000" stroke-width="3" fill="#cfe4ff"/><use xlink:href="#c" transform="matrix(1,0,0,1,825.0100942689774,585) translate(73.00308641975307 28.930555555555557)"/><path d="M820 520a20 20 0 0 1 20-20h200a20 20 0 0 1 20 20 20 20 0 0 1-20 20H840a20 20 0 0 1-20-20z" stroke="#000" stroke-width="3" fill="#c3f7c8"/><use xlink:href="#d" transform="matrix(1,0,0,1,825.0100942689774,505) translate(83.80438271604939 21.430555555555557)"/><path d="M940 560v-17.5" stroke="#000" stroke-width="2" fill="none"/><path d="M940 575.26L935.38 561h9.27z" stroke="#000" stroke-width="2"/><path d="M941 542.53H939v-1.03H941z" stroke="#000" stroke-width=".05"/><path d="M460.54 826.83a6 6 0 0 1 6-6h228a6 6 0 0 1 6 6v126a6 6 0 0 1-6 6h-228a6 6 0 0 1-6-6z" stroke="#000" stroke-opacity="0" stroke-width="3" fill="#fff" fill-opacity="0"/><use xlink:href="#e" transform="matrix(1,0,0,1,465.5380862434314,825.8333333333334) translate(26.407407407407433 32.444444444444436)"/><use xlink:href="#f" transform="matrix(1,0,0,1,465.5380862434314,825.8333333333334) translate(25.32098765432103 75.11111111111109)"/><use xlink:href="#g" transform="matrix(1,0,0,1,465.5380862434314,825.8333333333334) translate(10.555555555555586 117.77777777777774)"/><path d="M820.03 826a6 6 0 0 1 6-6h228a6 6 0 0 1 6 6v126a6 6 0 0 1-6 6h-228a6 6 0 0 1-6-6z" stroke="#000" stroke-opacity="0" stroke-width="3" fill="#fff" fill-opacity="0"/><use xlink:href="#h" transform="matrix(1,0,0,1,825.0302837011147,825) translate(46.95061728395065 32.444444444444436)"/><use xlink:href="#f" transform="matrix(1,0,0,1,825.0302837011147,825) translate(25.32098765432103 75.11111111111109)"/><use xlink:href="#g" transform="matrix(1,0,0,1,825.0302837011147,825) translate(10.555555555555586 117.77777777777774)"/><path d="M509.73 480.83l.25-17.5" stroke="#000" stroke-width="2" fill="none"/><path d="M509.5 496.1l-4.42-14.33 9.27.13z" stroke="#000" stroke-width="2"/><path d="M510.96 463.37l-1.95-.02.02-1.02h1.96z" stroke="#000" stroke-width=".05"/><path d="M650.28 480.83l.24 17.5" stroke="#000" stroke-width="2" fill="none"/><path d="M650.07 465.57l4.83 14.2-9.27.13z" stroke="#000" stroke-width="2"/><path d="M651.5 499.33h-1.94v-1l1.94-.04z" stroke="#000" stroke-width=".05"/><path d="M600.54 780.83a20 20 0 0 1 20-20h60a20 20 0 0 1 20 20 20 20 0 0 1-20 20h-60a20 20 0 0 1-20-20z" stroke="#1071e5" stroke-width="3" fill="#fff"/><use xlink:href="#i" transform="matrix(1,0,0,1,605.5380862434314,765.8333333333335) translate(28.742654320987654 21.430555555555557)"/><path d="M509.73 660.83l-.25-17.5" stroke="#000" stroke-width="2" fill="none"/><path d="M509.95 676.1l-4.84-14.2 9.28-.13z" stroke="#000" stroke-width="2"/><path d="M510.45 643.35l-1.95.02v-1.04h1.94z" stroke="#000" stroke-width=".05"/><path d="M650.54 660.83v-17.5" stroke="#000" stroke-width="2" fill="none"/><path d="M650.54 676.1l-4.64-14.27h9.27z" stroke="#000" stroke-width="2"/><path d="M651.5 643.36h-1.94v-1.03h1.95z" stroke="#000" stroke-width=".05"/><path d="M480 440.83a20 20 0 0 1 20-20h20a20 20 0 0 1 20 20 20 20 0 0 1-20 20h-20a20 20 0 0 1-20-20zM620 440.83a20 20 0 0 1 20-20h20a20 20 0 0 1 20 20 20 20 0 0 1-20 20h-20a20 20 0 0 1-20-20z" stroke="#000" stroke-width="3" fill="#fff"/><path d="M460 359.67A19.67 19.67 0 0 1 479.67 340h60.66A19.67 19.67 0 0 1 560 359.67a19.67 19.67 0 0 1-19.67 19.66h-60.66A19.67 19.67 0 0 1 460 359.67z" stroke="#cc4e00" stroke-width="3" fill="#e8e2c8"/><use xlink:href="#j" transform="matrix(1,0,0,1,465,345) translate(17.844506172839502 21.430555555555557)"/><path d="M600 359.67A19.67 19.67 0 0 1 619.7 340h60.66A19.67 19.67 0 0 1 700 359.67a19.67 19.67 0 0 1-19.66 19.66h-60.66A19.67 19.67 0 0 1 600 359.67z" stroke="#cc4e00" stroke-width="3" fill="#e8e2c8"/><use xlink:href="#k" transform="matrix(1,0,0,1,605.0100942689774,345) translate(8.338333333333326 21.430555555555557)"/><path d="M540 700.83a20 20 0 0 1-20 20h-20a20 20 0 0 1-20-20 20 20 0 0 1 20-20h20a20 20 0 0 1 20 20z" stroke="#000" stroke-width="3" fill="#fff"/><path d="M460.52 780.83a20 20 0 0 1 20-20h60a20 20 0 0 1 20 20 20 20 0 0 1-20 20h-60a20 20 0 0 1-20-20z" stroke="#008a0e" stroke-width="3" fill="#ced4db"/><use xlink:href="#l" transform="matrix(1,0,0,1,465.51789681129424,765.8333333333334) translate(28.06364197530864 21.430555555555557)"/><path d="M870 480v-17.5" stroke="#000" stroke-width="2" fill="none"/><path d="M870 495.26L865.35 481h9.27z" stroke="#000" stroke-width="2"/><path d="M870.98 462.53H869v-1.03H871z" stroke="#000" stroke-width=".05"/><path d="M1010 480v17.5" stroke="#000" stroke-width="2" fill="none"/><path d="M1010.02 464.74l4.63 14.26h-9.27z" stroke="#000" stroke-width="2"/><path d="M1010 497.47v1.03" stroke="#000" stroke-width="2" fill="none"/><path d="M840 440a20 20 0 0 1 20-20h20a20 20 0 0 1 20 20 20 20 0 0 1-20 20h-20a20 20 0 0 1-20-20zM980 440a20 20 0 0 1 20-20h20a20 20 0 0 1 20 20 20 20 0 0 1-20 20h-20a20 20 0 0 1-20-20z" stroke="#000" stroke-width="3" fill="#fff"/><path d="M820 359.67A19.67 19.67 0 0 1 839.67 340h60.66A19.67 19.67 0 0 1 920 359.67a19.67 19.67 0 0 1-19.67 19.66h-60.66A19.67 19.67 0 0 1 820 359.67z" stroke="#cc4e00" stroke-width="3" fill="#e8e2c8"/><use xlink:href="#j" transform="matrix(1,0,0,1,825,345) translate(17.844506172839502 21.430555555555557)"/><path d="M960 359.67A19.67 19.67 0 0 1 979.7 340h60.66a19.67 19.67 0 0 1 19.67 19.67 19.67 19.67 0 0 1-19.66 19.66h-60.66A19.67 19.67 0 0 1 960 359.67z" stroke="#cc4e00" stroke-width="3" fill="#e8e2c8"/><use xlink:href="#k" transform="matrix(1,0,0,1,965.0100942689774,345) translate(8.338333333333326 21.430555555555557)"/><path d="M1040.02 700a20 20 0 0 1-20 20h-20a20 20 0 0 1-20-20 20 20 0 0 1 20-20h20a20 20 0 0 1 20 20z" stroke="#000" stroke-width="3" fill="#fff"/><path d="M960.03 780a20 20 0 0 1 20-20h60a20 20 0 0 1 20 20 20 20 0 0 1-20 20h-60a20 20 0 0 1-20-20z" stroke="#1071e5" stroke-width="3" fill="#fff"/><use xlink:href="#i" transform="matrix(1,0,0,1,965.0302837011147,765.0000000000001) translate(28.742654320987654 21.430555555555557)"/><path d="M870 660v-19" stroke="#000" stroke-width="2" fill="none"/><path d="M870 675.26L865.38 661h9.27z" stroke="#000" stroke-width="2"/><path d="M870 641.03V640M1010.03 660v-19" stroke="#000" stroke-width="2" fill="none"/><path d="M1010.03 675.26L1005.4 661h9.27z" stroke="#000" stroke-width="2"/><path d="M1010.03 641.03V640" stroke="#000" stroke-width="2" fill="none"/><path d="M900 700a20 20 0 0 1-20 20h-20a20 20 0 0 1-20-20 20 20 0 0 1 20-20h20a20 20 0 0 1 20 20z" stroke="#000" stroke-width="3" fill="#fff"/><path d="M820 780a20 20 0 0 1 20-20h60a20 20 0 0 1 20 20 20 20 0 0 1-20 20h-60a20 20 0 0 1-20-20z" stroke="#008a0e" stroke-width="3" fill="#ced4db"/><use xlink:href="#l" transform="matrix(1,0,0,1,825.0100942689776,765) translate(28.06364197530864 21.430555555555557)"/><path d="M1180 826a6 6 0 0 1 6-6h348.03a6 6 0 0 1 6 6v126a6 6 0 0 1-6 6H1186a6 6 0 0 1-6-6z" stroke="#000" stroke-opacity="0" stroke-width="3" fill="#fff" fill-opacity="0"/><use xlink:href="#m" transform="matrix(1,0,0,1,1185,825.0000000000001) translate(142.9567901234568 72.44444444444443)"/><path d="M1200 479.33a20 20 0 0 1 20-20h280.03a20 20 0 0 1 20 20V780a20 20 0 0 1-20 20H1220a20 20 0 0 1-20-20z" fill-opacity="0"/><path d="M1198.5 479.35v-.02a1.5 1.5 0 0 1 1.5-1.5 1.5 1.5 0 0 1 1.5 1.5 1.5 1.5 0 0 1-1.5 1.5 1.5 1.5 0 0 1-1.5-1.5m2.73-9.95v-.02a1.5 1.5 0 0 1 1.5-1.5 1.5 1.5 0 0 1 1.5 1.5 1.5 1.5 0 0 1-1.5 1.5 1.5 1.5 0 0 1-1.5-1.5m7.3-7.3a1.5 1.5 0 0 1 1.5-1.5 1.5 1.5 0 0 1 1.5 1.5 1.5 1.5 0 0 1-1.5 1.5 1.5 1.5 0 0 1-1.5-1.5m9.97-2.7v-.03a1.5 1.5 0 0 1 1.5-1.5 1.5 1.5 0 0 1 1.5 1.5 1.5 1.5 0 0 1-1.5 1.5 1.5 1.5 0 0 1-1.5-1.5m12.17.02v-.02a1.5 1.5 0 0 1 1.5-1.5 1.5 1.5 0 0 1 1.5 1.5 1.5 1.5 0 0 1-1.5 1.5 1.5 1.5 0 0 1-1.5-1.5m12.18.02v-.02a1.5 1.5 0 0 1 1.5-1.5 1.5 1.5 0 0 1 1.5 1.5 1.5 1.5 0 0 1-1.5 1.5 1.5 1.5 0 0 1-1.5-1.5m12.18.02v-.02a1.5 1.5 0 0 1 1.5-1.5 1.5 1.5 0 0 1 1.5 1.5 1.5 1.5 0 0 1-1.5 1.5 1.5 1.5 0 0 1-1.5-1.5m12.17.02v-.02a1.5 1.5 0 0 1 1.5-1.5 1.5 1.5 0 0 1 1.5 1.5 1.5 1.5 0 0 1-1.5 1.5 1.5 1.5 0 0 1-1.5-1.5m12.18.02v-.02a1.5 1.5 0 0 1 1.5-1.5 1.5 1.5 0 0 1 1.5 1.5 1.5 1.5 0 0 1-1.5 1.5 1.5 1.5 0 0 1-1.5-1.5m12.17.02v-.02a1.5 1.5 0 0 1 1.5-1.5 1.5 1.5 0 0 1 1.5 1.5 1.5 1.5 0 0 1-1.5 1.5 1.5 1.5 0 0 1-1.5-1.5m12.18.02v-.02a1.5 1.5 0 0 1 1.5-1.5 1.5 1.5 0 0 1 1.5 1.5 1.5 1.5 0 0 1-1.5 1.5 1.5 1.5 0 0 1-1.5-1.5m12.17.02v-.02a1.5 1.5 0 0 1 1.5-1.5 1.5 1.5 0 0 1 1.5 1.5 1.5 1.5 0 0 1-1.5 1.5 1.5 1.5 0 0 1-1.5-1.5m12.18.02v-.02a1.5 1.5 0 0 1 1.5-1.5 1.5 1.5 0 0 1 1.5 1.5 1.5 1.5 0 0 1-1.5 1.5 1.5 1.5 0 0 1-1.5-1.5m12.17.02v-.02a1.5 1.5 0 0 1 1.5-1.5 1.5 1.5 0 0 1 1.5 1.5 1.5 1.5 0 0 1-1.5 1.5 1.5 1.5 0 0 1-1.5-1.5m12.18.02v-.02a1.5 1.5 0 0 1 1.5-1.5 1.5 1.5 0 0 1 1.5 1.5 1.5 1.5 0 0 1-1.5 1.5 1.5 1.5 0 0 1-1.5-1.5m12.17.02v-.02a1.5 1.5 0 0 1 1.5-1.5 1.5 1.5 0 0 1 1.5 1.5 1.5 1.5 0 0 1-1.5 1.5 1.5 1.5 0 0 1-1.5-1.5m12.18.02v-.02a1.5 1.5 0 0 1 1.5-1.5 1.5 1.5 0 0 1 1.5 1.5 1.5 1.5 0 0 1-1.5 1.5 1.5 1.5 0 0 1-1.5-1.5m12.17.02v-.02a1.5 1.5 0 0 1 1.5-1.5 1.5 1.5 0 0 1 1.5 1.5 1.5 1.5 0 0 1-1.5 1.5 1.5 1.5 0 0 1-1.5-1.5m12.18.02v-.02a1.5 1.5 0 0 1 1.5-1.5 1.5 1.5 0 0 1 1.5 1.5 1.5 1.5 0 0 1-1.5 1.5 1.5 1.5 0 0 1-1.5-1.5m12.17.02v-.02a1.5 1.5 0 0 1 1.5-1.5 1.5 1.5 0 0 1 1.5 1.5 1.5 1.5 0 0 1-1.5 1.5 1.5 1.5 0 0 1-1.5-1.5m12.18.02v-.02a1.5 1.5 0 0 1 1.5-1.5 1.5 1.5 0 0 1 1.5 1.5 1.5 1.5 0 0 1-1.5 1.5 1.5 1.5 0 0 1-1.5-1.5m12.17.02v-.02a1.5 1.5 0 0 1 1.5-1.5 1.5 1.5 0 0 1 1.5 1.5 1.5 1.5 0 0 1-1.5 1.5 1.5 1.5 0 0 1-1.5-1.5m12.18.02v-.02a1.5 1.5 0 0 1 1.5-1.5 1.5 1.5 0 0 1 1.5 1.5 1.5 1.5 0 0 1-1.5 1.5 1.5 1.5 0 0 1-1.5-1.5m12.18.02v-.02a1.5 1.5 0 0 1 1.5-1.5 1.5 1.5 0 0 1 1.5 1.5 1.5 1.5 0 0 1-1.5 1.5 1.5 1.5 0 0 1-1.5-1.5m12.18.02v-.02a1.5 1.5 0 0 1 1.5-1.5 1.5 1.5 0 0 1 1.5 1.5 1.5 1.5 0 0 1-1.5 1.5 1.5 1.5 0 0 1-1.5-1.5m12.17.02v-.02a1.5 1.5 0 0 1 1.5-1.5 1.5 1.5 0 0 1 1.5 1.5 1.5 1.5 0 0 1-1.5 1.5 1.5 1.5 0 0 1-1.5-1.5m12.18.02v-.02a1.5 1.5 0 0 1 1.5-1.5 1.5 1.5 0 0 1 1.5 1.5 1.5 1.5 0 0 1-1.5 1.5 1.5 1.5 0 0 1-1.5-1.5m9.97 2.75v-.02a1.5 1.5 0 0 1 1.5-1.5 1.5 1.5 0 0 1 1.5 1.5 1.5 1.5 0 0 1-1.5 1.5 1.5 1.5 0 0 1-1.5-1.5m7.3 7.32v-.02a1.5 1.5 0 0 1 1.5-1.5 1.5 1.5 0 0 1 1.5 1.5 1.5 1.5 0 0 1-1.5 1.5 1.5 1.5 0 0 1-1.5-1.5m2.73 10v-.03a1.5 1.5 0 0 1 1.5-1.5 1.5 1.5 0 0 1 1.5 1.5 1.5 1.5 0 0 1-1.5 1.5 1.5 1.5 0 0 1-1.5-1.5m0 12.05v-.02a1.5 1.5 0 0 1 1.5-1.5 1.5 1.5 0 0 1 1.5 1.5 1.5 1.5 0 0 1-1.5 1.5 1.5 1.5 0 0 1-1.5-1.5m0 12.04a1.5 1.5 0 0 1 1.5-1.5 1.5 1.5 0 0 1 1.5 1.5 1.5 1.5 0 0 1-1.5 1.5 1.5 1.5 0 0 1-1.5-1.5v-.03m0 12.06v-.02a1.5 1.5 0 0 1 1.5-1.5 1.5 1.5 0 0 1 1.5 1.5 1.5 1.5 0 0 1-1.5 1.5 1.5 1.5 0 0 1-1.5-1.5m0 12.06v-.02a1.5 1.5 0 0 1 1.5-1.5 1.5 1.5 0 0 1 1.5 1.5 1.5 1.5 0 0 1-1.5 1.5 1.5 1.5 0 0 1-1.5-1.5v-.02m0 12.06a1.5 1.5 0 0 1 1.5-1.5 1.5 1.5 0 0 1 1.5 1.5 1.5 1.5 0 0 1-1.5 1.5 1.5 1.5 0 0 1-1.5-1.5v-.03m0 12.06a1.5 1.5 0 0 1 1.5-1.5 1.5 1.5 0 0 1 1.5 1.5 1.5 1.5 0 0 1-1.5 1.5 1.5 1.5 0 0 1-1.5-1.5v-.02m0 12.05a1.5 1.5 0 0 1 1.5-1.5 1.5 1.5 0 0 1 1.5 1.5 1.5 1.5 0 0 1-1.5 1.5 1.5 1.5 0 0 1-1.5-1.5v-.02m0 12.06a1.5 1.5 0 0 1 1.5-1.5 1.5 1.5 0 0 1 1.5 1.5 1.5 1.5 0 0 1-1.5 1.5 1.5 1.5 0 0 1-1.5-1.5v-.03m0 12.06v-.03a1.5 1.5 0 0 1 1.5-1.5 1.5 1.5 0 0 1 1.5 1.5 1.5 1.5 0 0 1-1.5 1.5 1.5 1.5 0 0 1-1.5-1.5m0 12.04a1.5 1.5 0 0 1 1.5-1.5 1.5 1.5 0 0 1 1.5 1.5 1.5 1.5 0 0 1-1.5 1.5 1.5 1.5 0 0 1-1.5-1.5m0 12.04a1.5 1.5 0 0 1 1.5-1.5 1.5 1.5 0 0 1 1.5 1.5 1.5 1.5 0 0 1-1.5 1.5 1.5 1.5 0 0 1-1.5-1.5v-.03m0 12.07v-.02a1.5 1.5 0 0 1 1.5-1.5 1.5 1.5 0 0 1 1.5 1.5 1.5 1.5 0 0 1-1.5 1.5 1.5 1.5 0 0 1-1.5-1.5m0 12.05v-.02a1.5 1.5 0 0 1 1.5-1.5 1.5 1.5 0 0 1 1.5 1.5 1.5 1.5 0 0 1-1.5 1.5 1.5 1.5 0 0 1-1.5-1.5m0 12.04a1.5 1.5 0 0 1 1.5-1.5 1.5 1.5 0 0 1 1.5 1.5 1.5 1.5 0 0 1-1.5 1.5 1.5 1.5 0 0 1-1.5-1.5v-.03m0 12.05v-.02a1.5 1.5 0 0 1 1.5-1.5 1.5 1.5 0 0 1 1.5 1.5 1.5 1.5 0 0 1-1.5 1.5 1.5 1.5 0 0 1-1.5-1.5m0 12.04a1.5 1.5 0 0 1 1.5-1.5 1.5 1.5 0 0 1 1.5 1.5 1.5 1.5 0 0 1-1.5 1.5 1.5 1.5 0 0 1-1.5-1.5v-.02m0 12.05a1.5 1.5 0 0 1 1.5-1.5 1.5 1.5 0 0 1 1.5 1.5 1.5 1.5 0 0 1-1.5 1.5 1.5 1.5 0 0 1-1.5-1.5v-.03m0 12.06v-.02a1.5 1.5 0 0 1 1.5-1.5 1.5 1.5 0 0 1 1.5 1.5 1.5 1.5 0 0 1-1.5 1.5 1.5 1.5 0 0 1-1.5-1.5m0 12.06v-.02a1.5 1.5 0 0 1 1.5-1.5 1.5 1.5 0 0 1 1.5 1.5 1.5 1.5 0 0 1-1.5 1.5 1.5 1.5 0 0 1-1.5-1.5m0 12.04a1.5 1.5 0 0 1 1.5-1.5 1.5 1.5 0 0 1 1.5 1.5 1.5 1.5 0 0 1-1.5 1.5 1.5 1.5 0 0 1-1.5-1.5v-.03m0 12.06a1.5 1.5 0 0 1 1.5-1.5 1.5 1.5 0 0 1 1.5 1.5 1.5 1.5 0 0 1-1.5 1.5 1.5 1.5 0 0 1-1.5-1.5v-.02m0 12.05a1.5 1.5 0 0 1 1.5-1.5 1.5 1.5 0 0 1 1.5 1.5 1.5 1.5 0 0 1-1.5 1.5 1.5 1.5 0 0 1-1.5-1.5v-.02m0 12.06a1.5 1.5 0 0 1 1.5-1.5 1.5 1.5 0 0 1 1.5 1.5 1.5 1.5 0 0 1-1.5 1.5 1.5 1.5 0 0 1-1.5-1.5v-.03m0 12.06v-.03a1.5 1.5 0 0 1 1.5-1.5 1.5 1.5 0 0 1 1.5 1.5 1.5 1.5 0 0 1-1.5 1.5 1.5 1.5 0 0 1-1.5-1.5m0 12.04a1.5 1.5 0 0 1 1.5-1.5 1.5 1.5 0 0 1 1.5 1.5 1.5 1.5 0 0 1-1.5 1.5 1.5 1.5 0 0 1-1.5-1.5m-2.73 10v-.03a1.5 1.5 0 0 1 1.5-1.5 1.5 1.5 0 0 1 1.5 1.5 1.5 1.5 0 0 1-1.5 1.5 1.5 1.5 0 0 1-1.5-1.5m-7.3 7.32v-.03a1.5 1.5 0 0 1 1.5-1.5 1.5 1.5 0 0 1 1.5 1.5 1.5 1.5 0 0 1-1.5 1.5 1.5 1.5 0 0 1-1.5-1.5m-9.97 2.75V800a1.5 1.5 0 0 1 1.5-1.5 1.5 1.5 0 0 1 1.5 1.5 1.5 1.5 0 0 1-1.5 1.5 1.5 1.5 0 0 1-1.5-1.5m-12.17 0a1.5 1.5 0 0 1 1.5-1.5 1.5 1.5 0 0 1 1.5 1.5 1.5 1.5 0 0 1-1.5 1.5 1.5 1.5 0 0 1-1.5-1.5m-12.18 0a1.5 1.5 0 0 1 1.5-1.5 1.5 1.5 0 0 1 1.5 1.5 1.5 1.5 0 0 1-1.5 1.5 1.5 1.5 0 0 1-1.5-1.5m-12.17 0a1.5 1.5 0 0 1 1.5-1.5 1.5 1.5 0 0 1 1.5 1.5 1.5 1.5 0 0 1-1.5 1.5 1.5 1.5 0 0 1-1.5-1.5m-12.17 0a1.5 1.5 0 0 1 1.5-1.5 1.5 1.5 0 0 1 1.5 1.5 1.5 1.5 0 0 1-1.5 1.5 1.5 1.5 0 0 1-1.5-1.5m-12.18 0a1.5 1.5 0 0 1 1.5-1.5 1.5 1.5 0 0 1 1.5 1.5 1.5 1.5 0 0 1-1.5 1.5 1.5 1.5 0 0 1-1.5-1.5m-12.17 0a1.5 1.5 0 0 1 1.5-1.5 1.5 1.5 0 0 1 1.5 1.5 1.5 1.5 0 0 1-1.5 1.5 1.5 1.5 0 0 1-1.5-1.5m-12.18 0a1.5 1.5 0 0 1 1.5-1.5 1.5 1.5 0 0 1 1.5 1.5 1.5 1.5 0 0 1-1.5 1.5 1.5 1.5 0 0 1-1.5-1.5m-12.17 0a1.5 1.5 0 0 1 1.5-1.5 1.5 1.5 0 0 1 1.5 1.5 1.5 1.5 0 0 1-1.5 1.5 1.5 1.5 0 0 1-1.5-1.5m-12.18 0a1.5 1.5 0 0 1 1.5-1.5 1.5 1.5 0 0 1 1.5 1.5 1.5 1.5 0 0 1-1.5 1.5 1.5 1.5 0 0 1-1.5-1.5m-12.17 0a1.5 1.5 0 0 1 1.5-1.5 1.5 1.5 0 0 1 1.5 1.5 1.5 1.5 0 0 1-1.5 1.5 1.5 1.5 0 0 1-1.5-1.5m-12.18 0a1.5 1.5 0 0 1 1.5-1.5 1.5 1.5 0 0 1 1.5 1.5 1.5 1.5 0 0 1-1.5 1.5 1.5 1.5 0 0 1-1.5-1.5m-12.17 0a1.5 1.5 0 0 1 1.5-1.5 1.5 1.5 0 0 1 1.5 1.5 1.5 1.5 0 0 1-1.5 1.5 1.5 1.5 0 0 1-1.5-1.5m-12.18 0a1.5 1.5 0 0 1 1.5-1.5 1.5 1.5 0 0 1 1.5 1.5 1.5 1.5 0 0 1-1.5 1.5 1.5 1.5 0 0 1-1.5-1.5m-12.17 0a1.5 1.5 0 0 1 1.5-1.5 1.5 1.5 0 0 1 1.5 1.5 1.5 1.5 0 0 1-1.5 1.5 1.5 1.5 0 0 1-1.5-1.5m-12.18 0a1.5 1.5 0 0 1 1.5-1.5 1.5 1.5 0 0 1 1.5 1.5 1.5 1.5 0 0 1-1.5 1.5 1.5 1.5 0 0 1-1.5-1.5m-12.17 0a1.5 1.5 0 0 1 1.5-1.5 1.5 1.5 0 0 1 1.5 1.5 1.5 1.5 0 0 1-1.5 1.5 1.5 1.5 0 0 1-1.5-1.5m-12.18 0a1.5 1.5 0 0 1 1.5-1.5 1.5 1.5 0 0 1 1.5 1.5 1.5 1.5 0 0 1-1.5 1.5 1.5 1.5 0 0 1-1.5-1.5m-12.17 0a1.5 1.5 0 0 1 1.5-1.5 1.5 1.5 0 0 1 1.5 1.5 1.5 1.5 0 0 1-1.5 1.5 1.5 1.5 0 0 1-1.5-1.5m-12.18 0a1.5 1.5 0 0 1 1.5-1.5 1.5 1.5 0 0 1 1.5 1.5 1.5 1.5 0 0 1-1.5 1.5 1.5 1.5 0 0 1-1.5-1.5m-12.17 0a1.5 1.5 0 0 1 1.5-1.5 1.5 1.5 0 0 1 1.5 1.5 1.5 1.5 0 0 1-1.5 1.5 1.5 1.5 0 0 1-1.5-1.5m-12.18 0a1.5 1.5 0 0 1 1.5-1.5 1.5 1.5 0 0 1 1.5 1.5 1.5 1.5 0 0 1-1.5 1.5 1.5 1.5 0 0 1-1.5-1.5m-12.17 0a1.5 1.5 0 0 1 1.5-1.5 1.5 1.5 0 0 1 1.5 1.5 1.5 1.5 0 0 1-1.5 1.5 1.5 1.5 0 0 1-1.5-1.5m-12.18 0a1.5 1.5 0 0 1 1.5-1.5 1.5 1.5 0 0 1 1.5 1.5 1.5 1.5 0 0 1-1.5 1.5 1.5 1.5 0 0 1-1.5-1.5m-9.97-2.7v-.03a1.5 1.5 0 0 1 1.5-1.5 1.5 1.5 0 0 1 1.5 1.5 1.5 1.5 0 0 1-1.5 1.5 1.5 1.5 0 0 1-1.5-1.5m-7.3-7.28v-.03a1.5 1.5 0 0 1 1.5-1.5 1.5 1.5 0 0 1 1.5 1.5 1.5 1.5 0 0 1-1.5 1.5 1.5 1.5 0 0 1-1.5-1.5m-2.73-9.96a1.5 1.5 0 0 1 1.5-1.5 1.5 1.5 0 0 1 1.5 1.5 1.5 1.5 0 0 1-1.5 1.5 1.5 1.5 0 0 1-1.5-1.5m0-12v-.03a1.5 1.5 0 0 1 1.5-1.5 1.5 1.5 0 0 1 1.5 1.5 1.5 1.5 0 0 1-1.5 1.5 1.5 1.5 0 0 1-1.5-1.5m0-12v-.02a1.5 1.5 0 0 1 1.5-1.5 1.5 1.5 0 0 1 1.5 1.5 1.5 1.5 0 0 1-1.5 1.5 1.5 1.5 0 0 1-1.5-1.5v-.02m0-12a1.5 1.5 0 0 1 1.5-1.5 1.5 1.5 0 0 1 1.5 1.5 1.5 1.5 0 0 1-1.5 1.5 1.5 1.5 0 0 1-1.5-1.5v-.02m0-12a1.5 1.5 0 0 1 1.5-1.5 1.5 1.5 0 0 1 1.5 1.5 1.5 1.5 0 0 1-1.5 1.5 1.5 1.5 0 0 1-1.5-1.5v-.02m0-12a1.5 1.5 0 0 1 1.5-1.5 1.5 1.5 0 0 1 1.5 1.5 1.5 1.5 0 0 1-1.5 1.5 1.5 1.5 0 0 1-1.5-1.5v-.03m0-12a1.5 1.5 0 0 1 1.5-1.5 1.5 1.5 0 0 1 1.5 1.5 1.5 1.5 0 0 1-1.5 1.5 1.5 1.5 0 0 1-1.5-1.5v-.02m0-12v-.02a1.5 1.5 0 0 1 1.5-1.5 1.5 1.5 0 0 1 1.5 1.5 1.5 1.5 0 0 1-1.5 1.5 1.5 1.5 0 0 1-1.5-1.5m0-12a1.5 1.5 0 0 1 1.5-1.5 1.5 1.5 0 0 1 1.5 1.5 1.5 1.5 0 0 1-1.5 1.5 1.5 1.5 0 0 1-1.5-1.5v-.03m0-12a1.5 1.5 0 0 1 1.5-1.5 1.5 1.5 0 0 1 1.5 1.5 1.5 1.5 0 0 1-1.5 1.5 1.5 1.5 0 0 1-1.5-1.5v-.02m0-12v-.02a1.5 1.5 0 0 1 1.5-1.5 1.5 1.5 0 0 1 1.5 1.5 1.5 1.5 0 0 1-1.5 1.5 1.5 1.5 0 0 1-1.5-1.5m0-12v-.02a1.5 1.5 0 0 1 1.5-1.5 1.5 1.5 0 0 1 1.5 1.5 1.5 1.5 0 0 1-1.5 1.5 1.5 1.5 0 0 1-1.5-1.5m0-12v-.02a1.5 1.5 0 0 1 1.5-1.5 1.5 1.5 0 0 1 1.5 1.5 1.5 1.5 0 0 1-1.5 1.5 1.5 1.5 0 0 1-1.5-1.5m0-12v-.03a1.5 1.5 0 0 1 1.5-1.5 1.5 1.5 0 0 1 1.5 1.5 1.5 1.5 0 0 1-1.5 1.5 1.5 1.5 0 0 1-1.5-1.5m0-12v-.02a1.5 1.5 0 0 1 1.5-1.5 1.5 1.5 0 0 1 1.5 1.5 1.5 1.5 0 0 1-1.5 1.5 1.5 1.5 0 0 1-1.5-1.5v-.02m0-12a1.5 1.5 0 0 1 1.5-1.5 1.5 1.5 0 0 1 1.5 1.5 1.5 1.5 0 0 1-1.5 1.5 1.5 1.5 0 0 1-1.5-1.5m0-12v-.03a1.5 1.5 0 0 1 1.5-1.5 1.5 1.5 0 0 1 1.5 1.5 1.5 1.5 0 0 1-1.5 1.5 1.5 1.5 0 0 1-1.5-1.5m0-12v-.02a1.5 1.5 0 0 1 1.5-1.5 1.5 1.5 0 0 1 1.5 1.5 1.5 1.5 0 0 1-1.5 1.5 1.5 1.5 0 0 1-1.5-1.5v-.02m0-12a1.5 1.5 0 0 1 1.5-1.5 1.5 1.5 0 0 1 1.5 1.5 1.5 1.5 0 0 1-1.5 1.5 1.5 1.5 0 0 1-1.5-1.5v-.02m0-12a1.5 1.5 0 0 1 1.5-1.5 1.5 1.5 0 0 1 1.5 1.5 1.5 1.5 0 0 1-1.5 1.5 1.5 1.5 0 0 1-1.5-1.5v-.02m0-12a1.5 1.5 0 0 1 1.5-1.5 1.5 1.5 0 0 1 1.5 1.5 1.5 1.5 0 0 1-1.5 1.5 1.5 1.5 0 0 1-1.5-1.5v-.03m0-12a1.5 1.5 0 0 1 1.5-1.5 1.5 1.5 0 0 1 1.5 1.5 1.5 1.5 0 0 1-1.5 1.5 1.5 1.5 0 0 1-1.5-1.5v-.03m0-12a1.5 1.5 0 0 1 1.5-1.5 1.5 1.5 0 0 1 1.5 1.5 1.5 1.5 0 0 1-1.5 1.5 1.5 1.5 0 0 1-1.5-1.5v-.02m0-12a1.5 1.5 0 0 1 1.5-1.5 1.5 1.5 0 0 1 1.5 1.5 1.5 1.5 0 0 1-1.5 1.5 1.5 1.5 0 0 1-1.5-1.5v-.03m0-12a1.5 1.5 0 0 1 1.5-1.5 1.5 1.5 0 0 1 1.5 1.5 1.5 1.5 0 0 1-1.5 1.5 1.5 1.5 0 0 1-1.5-1.5v-.02"/><path d="M1180 718.33a20 20 0 0 1 20-20 20 20 0 0 1 20 20v60a20 20 0 0 1-20 20 20 20 0 0 1-20-20z" stroke="#000" stroke-width="3" fill="#fff"/><use xlink:href="#n" transform="matrix(-1.8369701987210297e-16,-1,1,-1.8369701987210297e-16,1185,793.3333333333335) translate(2.2611728395061608 19.555555555555557)"/><path d="M1500 720a20 20 0 0 1 20-20 20 20 0 0 1 20 20v60a20 20 0 0 1-20 20 20 20 0 0 1-20-20z" stroke="#000" stroke-width="3" fill="#fff"/><use xlink:href="#n" transform="matrix(-1.8369701987210297e-16,-1,1,-1.8369701987210297e-16,1505,794.9999999999998) translate(2.2611728395061608 19.555555555555557)"/><path d="M1542.4 747.96l23.37-1M1542.6 751.96l23.34-1.02" stroke="#1071e5" stroke-width="2" fill="none"/><path d="M1542.48 748.93l-.98.04v-1.95l.9-.04zM1542.65 752.93l-1.15.05v-1.95l1.07-.05z" stroke="#1071e5" stroke-width=".05" fill="#1071e5"/><path d="M1560.27 739.18l17.73 9.24-16.87 10.74m16.87-10.74l-8.5.37" stroke="#1071e5" stroke-width="2" fill="none"/><path d="M1177.5 750.33h-23.34M1177.5 746.33h-23.34" stroke="#008a0e" stroke-width="2" fill="none"/><path d="M1178.5 751.3h-1.03v-1.94h1.03zM1178.5 747.3h-1.03v-1.94h1.03z" stroke="#008a0e" stroke-width=".05" fill="#008a0e"/><path d="M1159.32 758.33l-17.32-10 17.32-10m-17.32 10h8.5" stroke="#008a0e" stroke-width="2" fill="none"/><path d="M1240 457a20 20 0 0 1 20-20h200a20 20 0 0 1 20 20 20 20 0 0 1-20 20h-200a20 20 0 0 1-20-20z" stroke="#000" stroke-width="3" fill="#fff"/><use xlink:href="#o" transform="matrix(1,0,0,1,1245,442.00000033333333) translate(42.48648148148147 21.430555555555557)"/><use xlink:href="#p" transform="matrix(1,0,0,1,1245,442.00000033333333) translate(91.17166666666665 21.430555555555557)"/><path d="M1260 501v-21.5" stroke="#000" stroke-width="2" fill="none"/><path d="M1260 516.26l-4.63-14.27h9.27z" stroke="#000" stroke-width="2"/><path d="M1259.94 478.5h1.03v1.03h-1.94v-1.1z" stroke="#000" stroke-width=".05"/><path d="M1460 501v-21.5" stroke="#000" stroke-width="2" fill="none"/><path d="M1460 516.26l-4.63-14.27h9.27z" stroke="#000" stroke-width="2"/><path d="M1460.97 479.53h-1.94v-1.03h1.03l.9-.07z" stroke="#000" stroke-width=".05"/><path d="M1360 501v-21.5" stroke="#000" stroke-width="2" fill="none"/><path d="M1360 516.26l-4.63-14.27h9.27z" stroke="#000" stroke-width="2"/><path d="M1360.97 479.53h-1.94v-1.03h1.94z" stroke="#000" stroke-width=".05"/><path d="M1240 541a20 20 0 0 1 20-20 20 20 0 0 1 20 20v136.67a20 20 0 0 1-20 20 20 20 0 0 1-20-20z" stroke="#000" stroke-width="3" fill="url(#q)"/><use xlink:href="#r" transform="matrix(-1.8369701987210297e-16,-1,1,-1.8369701987210297e-16,1245,692.6666669999997) translate(23.140802469135792 21.430555555555557)"/><path d="M1340 541a20 20 0 0 1 20-20 20 20 0 0 1 20 20v136.67a20 20 0 0 1-20 20 20 20 0 0 1-20-20z" stroke="#000" stroke-width="3" fill="url(#s)"/><use xlink:href="#r" transform="matrix(-1.8369701987210297e-16,-1,1,-1.8369701987210297e-16,1345,692.666667) translate(23.140802469135792 21.430555555555557)"/><path d="M1440 541a20 20 0 0 1 20-20 20 20 0 0 1 20 20v136.67a20 20 0 0 1-20 20 20 20 0 0 1-20-20z" stroke="#000" stroke-width="3" fill="url(#t)"/><use xlink:href="#r" transform="matrix(-1.8369701987210297e-16,-1,1,-1.8369701987210297e-16,1445,692.6666669999997) translate(23.140802469135792 21.430555555555557)"/><path d="M1320 609.33h-20" stroke="#000" stroke-width="2" fill="none"/><path d="M1335.26 609.33l-14.26 4.64v-9.27zM1284.74 609.33l14.26-4.63v9.27z" stroke="#000" stroke-width="2"/><path d="M1420 609.33h-20" stroke="#000" stroke-width="2" fill="none"/><path d="M1435.26 609.33l-14.26 4.64v-9.27zM1384.74 609.33l14.26-4.63v9.27z" stroke="#000" stroke-width="2"/><path d="M1487.33 735.25l-26.73-35.28" stroke="#000" stroke-width="2" fill="none"/><path d="M1496.55 747.42l-12.3-8.57 7.38-5.6z" stroke="#000" stroke-width="2"/><path d="M1460 699.17l1.15-.1.25.33-1.56 1.18-1.14-1.5z" stroke="#000" stroke-width=".05"/><path d="M1481.13 743.63l-120.2-44.1" stroke="#000" stroke-width="2" fill="none"/><path d="M1495.46 748.9l-15-.58 3.2-8.7z" stroke="#000" stroke-width="2"/><path d="M1360 699.17l1.13-.1-.5 1.37-3.78-1.4.04-.1z" stroke="#000" stroke-width=".05"/><path d="M1232.9 733.77l26.48-33.8" stroke="#000" stroke-width="2" fill="none"/><path d="M1223.5 745.8l5.14-14.1 7.3 5.7z" stroke="#000" stroke-width="2"/><path d="M1260.13 700.58l-1.53-1.2.23-.3 1.17.1 1.32-.1z" stroke="#000" stroke-width=".05"/><path d="M1238.94 742.14l120.12-42.63" stroke="#000" stroke-width="2" fill="none"/><path d="M1224.55 747.25l11.9-9.14 3.1 8.75z" stroke="#000" stroke-width="2"/><path d="M1363.15 699.1l-3.8 1.33-.47-1.35 1.12.1 3.1-.25z" stroke="#000" stroke-width=".05"/><path d="M1199.97 359.67a19.67 19.67 0 0 1 19.67-19.67h280.72a19.67 19.67 0 0 1 19.67 19.67 19.67 19.67 0 0 1-19.67 19.66h-280.72a19.67 19.67 0 0 1-19.67-19.66z" stroke="#cc4e00" stroke-width="3" fill="#e8e2c8"/><use xlink:href="#u" transform="matrix(1,0,0,1,1204.9697162988853,345) translate(123.87228395061727 21.430555555555557)"/><path d="M1282 381.83v39.5M1278 381.83v39.5" stroke="#cc4e00" stroke-width="2" fill="none"/><path d="M1282.97 381.86h-1.94v-1.03h1.94zM1278.97 381.86h-1.94v-1.03h1.94z" stroke="#cc4e00" stroke-width=".05" fill="#cc4e00"/><path d="M1290 416.18l-10 17.32-10-17.32m10 17.32V425M1438 434.5V395M1442 434.5V395" stroke="#cc4e00" stroke-width="2" fill="none"/><path d="M1438.97 435.5h-1.94v-1.03h1.94zM1442.97 435.5h-1.94v-1.03h1.94z" stroke="#cc4e00" stroke-width=".05" fill="#cc4e00"/><path d="M1430 400.15l10-17.32 10 17.32m-10-17.32v8.5M512 381.83v23.34M508 381.83v23.34" stroke="#cc4e00" stroke-width="2" fill="none"/><path d="M512.98 381.86h-1.96v-1.03H513zM508.98 381.86h-1.96v-1.03h1.96z" stroke="#cc4e00" stroke-width=".05" fill="#cc4e00"/><path d="M520 400l-10 17.33L500 400m10 17.33v-8.5M648 418.33V395M652 418.33V395" stroke="#cc4e00" stroke-width="2" fill="none"/><path d="M649 419.33H647v-1.02H649zM653 419.33H651v-1.02H653z" stroke="#cc4e00" stroke-width=".05" fill="#cc4e00"/><path d="M640 400.15l10-17.32 10 17.32m-10-17.32v8.5M872 381.83v22.5M868 381.83v22.5" stroke="#cc4e00" stroke-width="2" fill="none"/><path d="M872.98 381.86H871v-1.03H873zM868.98 381.86H867v-1.03H869z" stroke="#cc4e00" stroke-width=".05" fill="#cc4e00"/><path d="M880 399.18l-10 17.32-10-17.32m10 17.32V408M1012 395v22.5M1008 395v22.5M1000 400.15l10-17.32 10 17.32m-10-17.32v8.5" stroke="#cc4e00" stroke-width="2" fill="none"/><path d="M1013 418.5H1011v-1.03h1.96zM1009 418.5H1007v-1.03h1.96z" stroke="#cc4e00" stroke-width=".05" fill="#cc4e00"/><path d="M510.26 740.83l-.25-17.5" stroke="#008a0e" stroke-width="2" fill="none"/><path d="M510.47 756.1l-4.83-14.2 9.27-.13z" stroke="#008a0e" stroke-width="2" fill="#008a0e"/><path d="M511 723.35l-1.96.02-.02-1.04h1.96z" stroke="#008a0e" stroke-width=".05" fill="#008a0e"/><path d="M650.53 740.83v-17.5" stroke="#1071e5" stroke-width="2" fill="none"/><path d="M650.54 756.1l-4.64-14.27h9.27z" stroke="#1071e5" stroke-width="2" fill="#1071e5"/><path d="M651.5 723.36h-1.95v-1.03h1.95z" stroke="#1071e5" stroke-width=".05" fill="#1071e5"/><path d="M870 740v-17.5" stroke="#008a0e" stroke-width="2" fill="none"/><path d="M870 755.26L865.38 741h9.27z" stroke="#008a0e" stroke-width="2" fill="#008a0e"/><path d="M871 722.53H869v-1.03H871z" stroke="#008a0e" stroke-width=".05" fill="#008a0e"/><path d="M1010.02 740v-17.5" stroke="#1071e5" stroke-width="2" fill="none"/><path d="M1010.03 755.26L1005.4 741h9.26z" stroke="#1071e5" stroke-width="2" fill="#1071e5"/><path d="M1011 722.52h-1.96v-1.02h1.96z" stroke="#1071e5" stroke-width=".05" fill="#1071e5"/><defs><linearGradient gradientUnits="userSpaceOnUse" id="a" x1="460" y1="500.83" x2="460" y2="640.83"><stop offset="23.91%" stop-color="#c3f7c8"/><stop offset="39.49%" stop-color="#cfe4ff"/></linearGradient><path d="M212-179c-10-28-35-45-73-45-59 0-87 40-87 99 0 60 29 101 89 101 43 0 62-24 78-52l27 14C228-24 195 4 139 4 59 4 22-46 18-125c-6-104 99-153 187-111 19 9 31 26 39 46" id="v"/><path d="M100-194c62-1 85 37 85 99 1 63-27 99-86 99S16-35 15-95c0-66 28-99 85-99zM99-20c44 1 53-31 53-75 0-43-8-75-51-75s-53 32-53 75 10 74 51 75" id="w"/><path d="M114-163C36-179 61-72 57 0H25l-1-190h30c1 12-1 29 2 39 6-27 23-49 58-41v29" id="x"/><path d="M100-194c63 0 86 42 84 106H49c0 40 14 67 53 68 26 1 43-12 49-29l28 8c-11 28-37 45-77 45C44 4 14-33 15-96c1-61 26-98 85-98zm52 81c6-60-76-77-97-28-3 7-6 17-6 28h103" id="y"/><g id="b"><use transform="matrix(0.07407407407407408,0,0,0.07407407407407408,0,0)" xlink:href="#v"/><use transform="matrix(0.07407407407407408,0,0,0.07407407407407408,19.185185185185187,0)" xlink:href="#w"/><use transform="matrix(0.07407407407407408,0,0,0.07407407407407408,34,0)" xlink:href="#x"/><use transform="matrix(0.07407407407407408,0,0,0.07407407407407408,42.814814814814824,0)" xlink:href="#y"/></g><path d="M30-248c118-7 216 8 213 122C240-48 200 0 122 0H30v-248zM63-27c89 8 146-16 146-99s-60-101-146-95v194" id="z"/><path d="M210-169c-67 3-38 105-44 169h-31v-121c0-29-5-50-35-48C34-165 62-65 56 0H25l-1-190h30c1 10-1 24 2 32 10-44 99-50 107 0 11-21 27-35 58-36 85-2 47 119 55 194h-31v-121c0-29-5-49-35-48" id="A"/><path d="M141-36C126-15 110 5 73 4 37 3 15-17 15-53c-1-64 63-63 125-63 3-35-9-54-41-54-24 1-41 7-42 31l-33-3c5-37 33-52 76-52 45 0 72 20 72 64v82c-1 20 7 32 28 27v20c-31 9-61-2-59-35zM48-53c0 20 12 33 32 33 41-3 63-29 60-74-43 2-92-5-92 41" id="B"/><path d="M24-231v-30h32v30H24zM24 0v-190h32V0H24" id="C"/><path d="M117-194c89-4 53 116 60 194h-32v-121c0-31-8-49-39-48C34-167 62-67 57 0H25l-1-190h30c1 10-1 24 2 32 11-22 29-35 61-36" id="D"/><g id="c"><use transform="matrix(0.06790123456790124,0,0,0.06790123456790124,0,0)" xlink:href="#z"/><use transform="matrix(0.06790123456790124,0,0,0.06790123456790124,17.58641975308642,0)" xlink:href="#w"/><use transform="matrix(0.06790123456790124,0,0,0.06790123456790124,31.16666666666667,0)" xlink:href="#A"/><use transform="matrix(0.06790123456790124,0,0,0.06790123456790124,51.46913580246915,0)" xlink:href="#B"/><use transform="matrix(0.06790123456790124,0,0,0.06790123456790124,65.0493827160494,0)" xlink:href="#C"/><use transform="matrix(0.06790123456790124,0,0,0.06790123456790124,70.4135802469136,0)" xlink:href="#D"/></g><path d="M127-220V0H93v-220H8v-28h204v28h-85" id="E"/><path d="M135-143c-3-34-86-38-87 0 15 53 115 12 119 90S17 21 10-45l28-5c4 36 97 45 98 0-10-56-113-15-118-90-4-57 82-63 122-42 12 7 21 19 24 35" id="F"/><path d="M143 0L79-87 56-68V0H24v-261h32v163l83-92h37l-77 82L181 0h-38" id="G"/><g id="d"><use transform="matrix(0.06790123456790124,0,0,0.06790123456790124,0,0)" xlink:href="#E"/><use transform="matrix(0.06790123456790124,0,0,0.06790123456790124,12.154320987654323,0)" xlink:href="#B"/><use transform="matrix(0.06790123456790124,0,0,0.06790123456790124,25.734567901234573,0)" xlink:href="#F"/><use transform="matrix(0.06790123456790124,0,0,0.06790123456790124,37.95679012345679,0)" xlink:href="#G"/><use transform="matrix(0.06790123456790124,0,0,0.06790123456790124,50.17901234567901,0)" xlink:href="#F"/></g><path d="M212 0l43-212L151 0h-37L90-212C82-137 65-70 52 0H6l48-248h70l20 187 93-187h69L258 0h-46" id="H"/><path d="M124-194c51 0 84 22 84 74C207-44 167 4 94 4 43 4 11-23 11-74c0-74 41-120 113-120zM99-30c46 0 58-42 58-86 0-27-11-44-37-44-44 0-55 40-57 84-1 27 10 45 36 46" id="I"/><path d="M151-194c95 0 34 128 28 194h-49l25-134c0-29-45-25-59-9C67-111 69-48 56 0H6l36-190h47l-4 32c15-20 33-36 66-36" id="J"/><path d="M6 0l51-261h49L55 0H6" id="K"/><path d="M50-224l7-37h49l-7 37H50zM6 0l37-190h49L55 0H6" id="L"/><path d="M72-63c-8 23 5 39 32 30L98-1C54 14 12-6 23-64l18-93H15l7-33h28l24-45h31l-8 45h35l-6 33H90" id="M"/><path d="M150-105c8-23 8-54-22-51-68 7-54 98-72 156H6l50-261h50L85-158c15-20 33-36 66-36 95 0 34 128 28 194h-49" id="N"/><path d="M67-101c-8 29-7 73 27 71 23-2 32-16 39-37l48 9C170-19 141 4 91 4 36 4 7-28 12-86c6-75 61-124 140-103 26 7 40 29 43 59l-50 4c-1-20-9-34-29-34-35 0-41 29-49 59" id="O"/><g id="e"><use transform="matrix(0.0987654320987654,0,0,0.0987654320987654,0,0)" xlink:href="#H"/><use transform="matrix(0.0987654320987654,0,0,0.0987654320987654,29.530864197530853,0)" xlink:href="#I"/><use transform="matrix(0.0987654320987654,0,0,0.0987654320987654,51.16049382716048,0)" xlink:href="#J"/><use transform="matrix(0.0987654320987654,0,0,0.0987654320987654,72.7901234567901,0)" xlink:href="#I"/><use transform="matrix(0.0987654320987654,0,0,0.0987654320987654,94.41975308641972,0)" xlink:href="#K"/><use transform="matrix(0.0987654320987654,0,0,0.0987654320987654,104.29629629629626,0)" xlink:href="#L"/><use transform="matrix(0.0987654320987654,0,0,0.0987654320987654,114.1728395061728,0)" xlink:href="#M"/><use transform="matrix(0.0987654320987654,0,0,0.0987654320987654,125.92592592592591,0)" xlink:href="#N"/><use transform="matrix(0.0987654320987654,0,0,0.0987654320987654,147.55555555555551,0)" xlink:href="#L"/><use transform="matrix(0.0987654320987654,0,0,0.0987654320987654,157.43209876543204,0)" xlink:href="#O"/></g><path d="M168 0l21-106H79L58 0H6l48-248h52l-19 99h110l19-99h50L218 0h-50" id="P"/><path d="M114-194c63-2 87 48 72 110H63c-3 28 1 55 31 54 21-1 32-13 37-29l44 13C160-14 137 4 91 4 41 4 11-22 11-73c0-71 33-119 103-121zm30 77c14-47-50-61-67-22-3 6-6 13-8 22h75" id="Q"/><path d="M127 0L95-67 37 0h-53l89-99-49-91h52l30 61 52-61h54l-85 92 52 98h-52" id="R"/><path d="M166-52c-4 17 5 29 24 23l-3 27c-30 11-74 1-67-34C105-15 91 4 56 4 23 4 3-15 2-49c0-64 63-67 128-67 10-22 3-53-29-45-13 3-22 10-25 24l-46-5c5-64 156-77 153 0-1 33-11 60-17 90zM97-88c-44-9-64 57-19 57 31 0 42-28 47-57H97" id="S"/><path d="M45-171c29-32 103-29 114 14 2-11 5-23 8-33h47L176-2c-3 70-92 96-155 64C9 56 1 42-1 25l50-5c2 28 48 27 63 11 13-13 20-45 21-66-13 20-30 35-62 36-87 3-60-134-26-172zM94-35c41-3 55-43 55-86 0-24-12-39-35-39-43 0-51 48-51 90 0 22 9 37 31 35" id="T"/><g id="f"><use transform="matrix(0.0987654320987654,0,0,0.0987654320987654,0,0)" xlink:href="#P"/><use transform="matrix(0.0987654320987654,0,0,0.0987654320987654,25.58024691358024,0)" xlink:href="#Q"/><use transform="matrix(0.0987654320987654,0,0,0.0987654320987654,45.333333333333314,0)" xlink:href="#R"/><use transform="matrix(0.0987654320987654,0,0,0.0987654320987654,65.08641975308639,0)" xlink:href="#S"/><use transform="matrix(0.0987654320987654,0,0,0.0987654320987654,84.83950617283946,0)" xlink:href="#T"/><use transform="matrix(0.0987654320987654,0,0,0.0987654320987654,106.46913580246908,0)" xlink:href="#I"/><use transform="matrix(0.0987654320987654,0,0,0.0987654320987654,128.0987654320987,0)" xlink:href="#J"/><use transform="matrix(0.0987654320987654,0,0,0.0987654320987654,149.72839506172832,0)" xlink:href="#S"/><use transform="matrix(0.0987654320987654,0,0,0.0987654320987654,169.4814814814814,0)" xlink:href="#K"/></g><path d="M183 0l-10-63H79L44 0H-7l138-248h61L234 0h-51zm-14-102l-15-108c-16 38-36 73-55 108h70" id="U"/><path d="M84-151c13-25 34-51 72-40l-8 41C67-170 71-64 56 0H6l36-190h47" id="V"/><path d="M69 3c-96 0-34-126-28-193h49L65-57c6 42 62 18 71-6 14-38 17-86 28-127h50L178 0h-47c0-11 4-26 3-33-14 20-30 37-65 36" id="W"/><g id="g"><use transform="matrix(0.0987654320987654,0,0,0.0987654320987654,0,0)" xlink:href="#U"/><use transform="matrix(0.0987654320987654,0,0,0.0987654320987654,25.58024691358024,0)" xlink:href="#V"/><use transform="matrix(0.0987654320987654,0,0,0.0987654320987654,39.4074074074074,0)" xlink:href="#O"/><use transform="matrix(0.0987654320987654,0,0,0.0987654320987654,59.16049382716047,0)" xlink:href="#N"/><use transform="matrix(0.0987654320987654,0,0,0.0987654320987654,80.7901234567901,0)" xlink:href="#L"/><use transform="matrix(0.0987654320987654,0,0,0.0987654320987654,90.66666666666664,0)" xlink:href="#M"/><use transform="matrix(0.0987654320987654,0,0,0.0987654320987654,102.41975308641972,0)" xlink:href="#Q"/><use transform="matrix(0.0987654320987654,0,0,0.0987654320987654,122.17283950617279,0)" xlink:href="#O"/><use transform="matrix(0.0987654320987654,0,0,0.0987654320987654,141.92592592592587,0)" xlink:href="#M"/><use transform="matrix(0.0987654320987654,0,0,0.0987654320987654,153.67901234567896,0)" xlink:href="#W"/><use transform="matrix(0.0987654320987654,0,0,0.0987654320987654,175.30864197530857,0)" xlink:href="#V"/><use transform="matrix(0.0987654320987654,0,0,0.0987654320987654,189.13580246913574,0)" xlink:href="#Q"/></g><path d="M6 0l48-248h52L66-40h133l-8 40H6" id="X"/><path d="M100 10C77 47 50 87-15 72l7-35c37 9 51-18 65-41L20-190h51L89-44l73-146h53" id="Y"/><path d="M132-28C118-9 101 4 69 4 30 4 10-23 10-62c0-70 24-129 92-132 31-1 47 14 56 35l19-102h49L179 0h-49zM62-69c0 22 7 39 29 39 45-2 54-45 57-90 2-27-10-40-33-40-44 0-53 48-53 91" id="Z"/><g id="h"><use transform="matrix(0.0987654320987654,0,0,0.0987654320987654,0,0)" xlink:href="#X"/><use transform="matrix(0.0987654320987654,0,0,0.0987654320987654,21.629629629629623,0)" xlink:href="#S"/><use transform="matrix(0.0987654320987654,0,0,0.0987654320987654,41.3827160493827,0)" xlink:href="#Y"/><use transform="matrix(0.0987654320987654,0,0,0.0987654320987654,61.13580246913578,0)" xlink:href="#Q"/><use transform="matrix(0.0987654320987654,0,0,0.0987654320987654,80.88888888888886,0)" xlink:href="#V"/><use transform="matrix(0.0987654320987654,0,0,0.0987654320987654,94.71604938271601,0)" xlink:href="#Q"/><use transform="matrix(0.0987654320987654,0,0,0.0987654320987654,114.46913580246907,0)" xlink:href="#Z"/></g><path d="M30 0v-248h33v221h125V0H30" id="aa"/><path d="M115-194c53 0 69 39 70 98 0 66-23 100-70 100C84 3 66-7 56-30L54 0H23l1-261h32v101c10-23 28-34 59-34zm-8 174c40 0 45-34 45-75 0-40-5-75-45-74-42 0-51 32-51 76 0 43 10 73 51 73" id="ab"/><g id="i"><use transform="matrix(0.06790123456790124,0,0,0.06790123456790124,0,0)" xlink:href="#aa"/><use transform="matrix(0.06790123456790124,0,0,0.06790123456790124,13.580246913580249,0)" xlink:href="#C"/><use transform="matrix(0.06790123456790124,0,0,0.06790123456790124,18.944444444444446,0)" xlink:href="#ab"/></g><path d="M33 0v-248h34V0H33" id="ac"/><path d="M115-194c55 1 70 41 70 98S169 2 115 4C84 4 66-9 55-30l1 105H24l-1-265h31l2 30c10-21 28-34 59-34zm-8 174c40 0 45-34 45-75s-6-73-45-74c-42 0-51 32-51 76 0 43 10 73 51 73" id="ad"/><path d="M84 4C-5 8 30-112 23-190h32v120c0 31 7 50 39 49 72-2 45-101 50-169h31l1 190h-30c-1-10 1-25-2-33-11 22-28 36-60 37" id="ae"/><path d="M59-47c-2 24 18 29 38 22v24C64 9 27 4 27-40v-127H5v-23h24l9-43h21v43h35v23H59v120" id="af"/><g id="j"><use transform="matrix(0.06790123456790124,0,0,0.06790123456790124,0,0)" xlink:href="#ac"/><use transform="matrix(0.06790123456790124,0,0,0.06790123456790124,6.790123456790124,0)" xlink:href="#D"/><use transform="matrix(0.06790123456790124,0,0,0.06790123456790124,20.370370370370374,0)" xlink:href="#ad"/><use transform="matrix(0.06790123456790124,0,0,0.06790123456790124,33.95061728395062,0)" xlink:href="#ae"/><use transform="matrix(0.06790123456790124,0,0,0.06790123456790124,47.530864197530875,0)" xlink:href="#af"/></g><path d="M140-251c81 0 123 46 123 126C263-46 219 4 140 4 59 4 17-45 17-125s42-126 123-126zm0 227c63 0 89-41 89-101s-29-99-89-99c-61 0-89 39-89 99S79-25 140-24" id="ag"/><g id="k"><use transform="matrix(0.06790123456790124,0,0,0.06790123456790124,0,0)" xlink:href="#ag"/><use transform="matrix(0.06790123456790124,0,0,0.06790123456790124,19.01234567901235,0)" xlink:href="#ae"/><use transform="matrix(0.06790123456790124,0,0,0.06790123456790124,32.592592592592595,0)" xlink:href="#af"/><use transform="matrix(0.06790123456790124,0,0,0.06790123456790124,39.38271604938272,0)" xlink:href="#ad"/><use transform="matrix(0.06790123456790124,0,0,0.06790123456790124,52.96296296296297,0)" xlink:href="#ae"/><use transform="matrix(0.06790123456790124,0,0,0.06790123456790124,66.54320987654322,0)" xlink:href="#af"/></g><path d="M160-131c35 5 61 23 61 61C221 17 115-2 30 0v-248c76 3 177-17 177 60 0 33-19 50-47 57zm-97-11c50-1 110 9 110-42 0-47-63-36-110-37v79zm0 115c55-2 124 14 124-45 0-56-70-42-124-44v89" id="ah"/><g id="l"><use transform="matrix(0.06790123456790124,0,0,0.06790123456790124,0,0)" xlink:href="#z"/><use transform="matrix(0.06790123456790124,0,0,0.06790123456790124,17.58641975308642,0)" xlink:href="#ah"/></g><path d="M161-211c-63 0-91 46-91 110 0 39 17 65 58 64 38-1 60-20 74-45l40 20C220-23 184 0 125 4 9 13-10-144 57-208c33-50 166-62 196-1 4 8 9 18 11 27l-48 12c-6-24-25-41-55-41" id="ai"/><g id="m"><use transform="matrix(0.0987654320987654,0,0,0.0987654320987654,0,0)" xlink:href="#ai"/><use transform="matrix(0.0987654320987654,0,0,0.0987654320987654,25.58024691358024,0)" xlink:href="#Q"/><use transform="matrix(0.0987654320987654,0,0,0.0987654320987654,45.333333333333314,0)" xlink:href="#K"/><use transform="matrix(0.0987654320987654,0,0,0.0987654320987654,55.209876543209845,0)" xlink:href="#K"/></g><path d="M205 0l-28-72H64L36 0H1l101-248h38L239 0h-34zm-38-99l-47-123c-12 45-31 82-46 123h93" id="aj"/><path d="M85-194c31 0 48 13 60 33l-1-100h32l1 261h-30c-2-10 0-23-3-31C134-8 116 4 85 4 32 4 16-35 15-94c0-66 23-100 70-100zm9 24c-40 0-46 34-46 75 0 40 6 74 45 74 42 0 51-32 51-76 0-42-9-74-50-73" id="ak"/><g id="n"><use transform="matrix(0.06790123456790124,0,0,0.06790123456790124,0,0)" xlink:href="#aj"/><use transform="matrix(0.06790123456790124,0,0,0.06790123456790124,16.296296296296298,0)" xlink:href="#ak"/><use transform="matrix(0.06790123456790124,0,0,0.06790123456790124,29.876543209876544,0)" xlink:href="#B"/><use transform="matrix(0.06790123456790124,0,0,0.06790123456790124,43.45679012345679,0)" xlink:href="#ad"/><use transform="matrix(0.06790123456790124,0,0,0.06790123456790124,57.03703703703704,0)" xlink:href="#af"/><use transform="matrix(0.06790123456790124,0,0,0.06790123456790124,63.827160493827165,0)" xlink:href="#y"/><use transform="matrix(0.06790123456790124,0,0,0.06790123456790124,77.40740740740742,0)" xlink:href="#x"/></g><path d="M24 0v-261h32V0H24" id="al"/><g id="o"><use transform="matrix(0.06790123456790124,0,0,0.06790123456790124,0,0)" xlink:href="#v"/><use transform="matrix(0.06790123456790124,0,0,0.06790123456790124,17.58641975308642,0)" xlink:href="#y"/><use transform="matrix(0.06790123456790124,0,0,0.06790123456790124,31.16666666666667,0)" xlink:href="#al"/><use transform="matrix(0.06790123456790124,0,0,0.06790123456790124,36.53086419753087,0)" xlink:href="#al"/></g><path d="M143 4C61 4 22-44 18-125c-5-107 100-154 193-111 17 8 29 25 37 43l-32 9c-13-25-37-40-76-40-61 0-88 39-88 99 0 61 29 100 91 101 35 0 62-11 79-27v-45h-74v-28h105v86C228-13 192 4 143 4" id="am"/><path d="M206 0h-36l-40-164L89 0H53L-1-190h32L70-26l43-164h34l41 164 42-164h31" id="an"/><path d="M179-190L93 31C79 59 56 82 12 73V49c39 6 53-20 64-50L1-190h34L92-34l54-156h33" id="ao"/><g id="p"><use transform="matrix(0.06790123456790124,0,0,0.06790123456790124,0,0)" xlink:href="#am"/><use transform="matrix(0.06790123456790124,0,0,0.06790123456790124,19.01234567901235,0)" xlink:href="#B"/><use transform="matrix(0.06790123456790124,0,0,0.06790123456790124,32.592592592592595,0)" xlink:href="#af"/><use transform="matrix(0.06790123456790124,0,0,0.06790123456790124,39.38271604938272,0)" xlink:href="#y"/><use transform="matrix(0.06790123456790124,0,0,0.06790123456790124,52.96296296296297,0)" xlink:href="#an"/><use transform="matrix(0.06790123456790124,0,0,0.06790123456790124,70.5493827160494,0)" xlink:href="#B"/><use transform="matrix(0.06790123456790124,0,0,0.06790123456790124,84.12962962962965,0)" xlink:href="#ao"/></g><linearGradient gradientUnits="userSpaceOnUse" id="q" x1="1240" y1="697.67" x2="1240" y2="521"><stop offset="19.2%" stop-color="#ced4db"/><stop offset="26.45%" stop-color="#fff"/><stop offset="45.29%" stop-color="#fff"/><stop offset="52.54%" stop-color="#cfe4ff"/><stop offset="73.91%" stop-color="#cfe4ff"/><stop offset="82.97%" stop-color="#c3f7c8"/></linearGradient><path d="M185-189c-5-48-123-54-124 2 14 75 158 14 163 119 3 78-121 87-175 55-17-10-28-26-33-46l33-7c5 56 141 63 141-1 0-78-155-14-162-118-5-82 145-84 179-34 5 7 8 16 11 25" id="ap"/><path d="M108 0H70L1-190h34L89-25l56-165h34" id="aq"/><path d="M96-169c-40 0-48 33-48 73s9 75 48 75c24 0 41-14 43-38l32 2c-6 37-31 61-74 61-59 0-76-41-82-99-10-93 101-131 147-64 4 7 5 14 7 22l-32 3c-4-21-16-35-41-35" id="ar"/><g id="r"><use transform="matrix(0.06790123456790123,0,0,0.06790123456790123,0,0)" xlink:href="#ap"/><use transform="matrix(0.06790123456790123,0,0,0.06790123456790123,16.296296296296294,0)" xlink:href="#ae"/><use transform="matrix(0.06790123456790123,0,0,0.06790123456790123,29.87654320987654,0)" xlink:href="#ab"/><use transform="matrix(0.06790123456790123,0,0,0.06790123456790123,43.456790123456784,0)" xlink:href="#F"/><use transform="matrix(0.06790123456790123,0,0,0.06790123456790123,55.67901234567901,0)" xlink:href="#y"/><use transform="matrix(0.06790123456790123,0,0,0.06790123456790123,69.25925925925925,0)" xlink:href="#x"/><use transform="matrix(0.06790123456790123,0,0,0.06790123456790123,77.33950617283949,0)" xlink:href="#aq"/><use transform="matrix(0.06790123456790123,0,0,0.06790123456790123,89.56172839506172,0)" xlink:href="#C"/><use transform="matrix(0.06790123456790123,0,0,0.06790123456790123,94.92592592592592,0)" xlink:href="#ar"/><use transform="matrix(0.06790123456790123,0,0,0.06790123456790123,107.14814814814815,0)" xlink:href="#y"/></g><linearGradient gradientUnits="userSpaceOnUse" id="s" x1="1340" y1="697.67" x2="1340" y2="521"><stop offset="19.2%" stop-color="#ced4db"/><stop offset="26.45%" stop-color="#fff"/><stop offset="45.29%" stop-color="#fff"/><stop offset="52.54%" stop-color="#cfe4ff"/><stop offset="73.91%" stop-color="#cfe4ff"/><stop offset="82.97%" stop-color="#c3f7c8"/></linearGradient><linearGradient gradientUnits="userSpaceOnUse" id="t" x1="1440" y1="697.67" x2="1440" y2="521"><stop offset="19.2%" stop-color="#ced4db"/><stop offset="26.45%" stop-color="#fff"/><stop offset="45.29%" stop-color="#fff"/><stop offset="52.54%" stop-color="#cfe4ff"/><stop offset="73.91%" stop-color="#cfe4ff"/><stop offset="82.97%" stop-color="#c3f7c8"/></linearGradient><g id="u"><use transform="matrix(0.06790123456790124,0,0,0.06790123456790124,0,0)" xlink:href="#v"/><use transform="matrix(0.06790123456790124,0,0,0.06790123456790124,17.58641975308642,0)" xlink:href="#al"/><use transform="matrix(0.06790123456790124,0,0,0.06790123456790124,22.95061728395062,0)" xlink:href="#C"/><use transform="matrix(0.06790123456790124,0,0,0.06790123456790124,28.31481481481482,0)" xlink:href="#y"/><use transform="matrix(0.06790123456790124,0,0,0.06790123456790124,41.89506172839507,0)" xlink:href="#D"/><use transform="matrix(0.06790123456790124,0,0,0.06790123456790124,55.47530864197532,0)" xlink:href="#af"/></g></defs></g></svg>