<svg xmlns="http://www.w3.org/2000/svg" xmlns:xlink="http://www.w3.org/1999/xlink" xmlns:lucid="lucid" width="982.99" height="323"><g transform="translate(-358.5 -478.5)" lucid:page-tab-id="0_0"><path d="M360 700a20 20 0 0 1 20-20h200a20 20 0 0 1 20 20 20 20 0 0 1-20 20H380a20 20 0 0 1-20-20z" stroke="#000" stroke-width="3" fill="#fff"/><use xlink:href="#a" transform="matrix(1,0,0,1,365,685) translate(36.56055555555556 23.208333333333332)"/><use xlink:href="#b" transform="matrix(1,0,0,1,365,685) translate(129.81981481481483 23.208333333333332)"/><path d="M730 725.34V740" stroke="#000" stroke-width="2" fill="none"/><path d="M730.98 725.36H729v-1.02H731z" stroke="#000" stroke-width=".05"/><path d="M730 755.26L725.35 741h9.27z" stroke="#000" stroke-width="2"/><path d="M700 620a20 20 0 0 1 20-20h20a20 20 0 0 1 20 20v82.84a20 20 0 0 1-20 20h-20a20 20 0 0 1-20-20z" stroke="#000" stroke-width="3" fill="url(#c)"/><use xlink:href="#d" transform="matrix(1,0,0,1,705,605) translate(16.11111111111111 60.17708333333333)"/><path d="M700 780a20 20 0 0 1 20-20h200a20 20 0 0 1 20 20 20 20 0 0 1-20 20H720a20 20 0 0 1-20-20z" stroke="#000" stroke-width="3" fill="#ced4db"/><use xlink:href="#a" transform="matrix(1,0,0,1,704.9927700977285,765) translate(11.375370370370385 23.208333333333332)"/><use xlink:href="#e" transform="matrix(1,0,0,1,704.9927700977285,765) translate(104.63462962962964 23.208333333333332)"/><path d="M700 540a20 20 0 0 1 20-20h200a20 20 0 0 1 20 20 20 20 0 0 1-20 20H720a20 20 0 0 1-20-20z" stroke="#000" stroke-width="3" fill="#c3f7c8"/><use xlink:href="#f" transform="matrix(1,0,0,1,705,525) translate(41.042037037037055 23.208333333333332)"/><path d="M730 562.5V580" stroke="#000" stroke-width="2" fill="none"/><path d="M730.98 562.53H729v-1.03H731z" stroke="#000" stroke-width=".05"/><path d="M730 595.26L725.37 581h9.26z" stroke="#000" stroke-width="2"/><path d="M790 620a20 20 0 0 1 20-20h20a20 20 0 0 1 20 20v82.84a20 20 0 0 1-20 20h-20a20 20 0 0 1-20-20z" stroke="#000" stroke-width="3" fill="url(#g)"/><use xlink:href="#h" transform="matrix(1,0,0,1,795,605.0000000000001) translate(16.11111111111111 60.17708333333333)"/><path d="M880 620a20 20 0 0 1 20-20h20a20 20 0 0 1 20 20v82.84a20 20 0 0 1-20 20h-20a20 20 0 0 1-20-20z" stroke="#000" stroke-width="3" fill="url(#i)"/><use xlink:href="#j" transform="matrix(1,0,0,1,885,605.0000000000001) translate(15.407407407407408 60.17708333333333)"/><path d="M820 562.5V580" stroke="#000" stroke-width="2" fill="none"/><path d="M820.98 562.53H819v-1.03H821z" stroke="#000" stroke-width=".05"/><path d="M820 595.26L815.37 581h9.26z" stroke="#000" stroke-width="2"/><path d="M910 562.5V580" stroke="#000" stroke-width="2" fill="none"/><path d="M910.98 562.53H909v-1.03H911z" stroke="#000" stroke-width=".05"/><path d="M910 595.26L905.37 581h9.26z" stroke="#000" stroke-width="2"/><path d="M821 725.34V740" stroke="#000" stroke-width="2" fill="none"/><path d="M821.96 725.36H820v-1.02h1.96z" stroke="#000" stroke-width=".05"/><path d="M821 755.26L816.35 741h9.26z" stroke="#000" stroke-width="2"/><path d="M910 725.34V740" stroke="#000" stroke-width="2" fill="none"/><path d="M910.98 725.36H909v-1.02H911z" stroke="#000" stroke-width=".05"/><path d="M910 755.26L905.35 741h9.27z" stroke="#000" stroke-width="2"/><path d="M390 682.5V740" stroke="#000" stroke-width="2" fill="none"/><path d="M390.98 682.53h-1.96v-1.03h1.96z" stroke="#000" stroke-width=".05"/><path d="M390 755.26L385.36 741h9.27z" stroke="#000" stroke-width="2"/><path d="M360 620a20 20 0 0 1 20-20h20a20 20 0 0 1 20 20v40a20 20 0 0 1-20 20h-20a20 20 0 0 1-20-20z" stroke="#000" stroke-width="3" fill="#cfe4ff"/><use xlink:href="#k" transform="matrix(1,0,0,1,365,605) translate(16.11111111111111 41.02083333333333)"/><path d="M360 780a20 20 0 0 1 20-20h200a20 20 0 0 1 20 20 20 20 0 0 1-20 20H380a20 20 0 0 1-20-20z" stroke="#000" stroke-width="3" fill="#ced4db"/><use xlink:href="#a" transform="matrix(1,0,0,1,365,765) translate(11.375370370370385 23.208333333333332)"/><use xlink:href="#e" transform="matrix(1,0,0,1,365,765) translate(104.63462962962964 23.208333333333332)"/><path d="M360 540a20 20 0 0 1 20-20h200a20 20 0 0 1 20 20 20 20 0 0 1-20 20H380a20 20 0 0 1-20-20z" stroke="#000" stroke-width="3" fill="#c3f7c8"/><use xlink:href="#l" transform="matrix(1,0,0,1,365,525) translate(41.042037037037055 23.208333333333332)"/><path d="M390 562.5V580" stroke="#000" stroke-width="2" fill="none"/><path d="M390.98 562.53h-1.96v-1.03h1.96z" stroke="#000" stroke-width=".05"/><path d="M390 595.26L385.37 581h9.26z" stroke="#000" stroke-width="2"/><path d="M450 620a20 20 0 0 1 20-20h20a20 20 0 0 1 20 20v40a20 20 0 0 1-20 20h-20a20 20 0 0 1-20-20z" stroke="#000" stroke-width="3" fill="#cfe4ff"/><use xlink:href="#m" transform="matrix(1,0,0,1,455,605) translate(16.11111111111111 41.02083333333333)"/><path d="M540 620a20 20 0 0 1 20-20h20a20 20 0 0 1 20 20v40a20 20 0 0 1-20 20h-20a20 20 0 0 1-20-20z" stroke="#000" stroke-width="3" fill="#cfe4ff"/><use xlink:href="#j" transform="matrix(1,0,0,1,545,605) translate(15.407407407407408 41.02083333333333)"/><path d="M480 562.5V580" stroke="#000" stroke-width="2" fill="none"/><path d="M480.98 562.53h-1.96v-1.03h1.96z" stroke="#000" stroke-width=".05"/><path d="M480 595.26L475.37 581h9.26z" stroke="#000" stroke-width="2"/><path d="M570 562.5V580" stroke="#000" stroke-width="2" fill="none"/><path d="M570.98 562.53H569v-1.03H571z" stroke="#000" stroke-width=".05"/><path d="M570 595.26L565.37 581h9.26z" stroke="#000" stroke-width="2"/><path d="M481 682.5V740" stroke="#000" stroke-width="2" fill="none"/><path d="M481.98 682.53h-1.96v-1.03h1.96z" stroke="#000" stroke-width=".05"/><path d="M481 755.26L476.37 741h9.26z" stroke="#000" stroke-width="2"/><path d="M570 682.5V740" stroke="#000" stroke-width="2" fill="none"/><path d="M570.98 682.53H569v-1.03H571z" stroke="#000" stroke-width=".05"/><path d="M570 755.26L565.37 741h9.26z" stroke="#000" stroke-width="2"/><path d="M360 500a20 20 0 0 1 20-20h200a20 20 0 0 1 20 20 20 20 0 0 1-20 20H380a20 20 0 0 1-20-20z" stroke="#000" stroke-width="3" fill="#fff"/><use xlink:href="#n" transform="matrix(1,0,0,1,365,485) translate(35.8938888888889 23.208333333333332)"/><use xlink:href="#o" transform="matrix(1,0,0,1,365,485) translate(89.005 23.208333333333332)"/><path d="M700 500a20 20 0 0 1 20-20h200a20 20 0 0 1 20 20 20 20 0 0 1-20 20H720a20 20 0 0 1-20-20z" stroke="#000" stroke-width="3" fill="#fff"/><use xlink:href="#n" transform="matrix(1,0,0,1,705,485) translate(35.8938888888889 23.208333333333332)"/><use xlink:href="#o" transform="matrix(1,0,0,1,705,485) translate(89.005 23.208333333333332)"/><path d="M1070 722.5V740" stroke="#000" stroke-width="2" fill="none"/><path d="M1070.96 722.53H1069v-1.03h1.96z" stroke="#000" stroke-width=".05"/><path d="M1070 755.26l-4.65-14.26h9.27z" stroke="#000" stroke-width="2"/><path d="M1040 580a20 20 0 0 1 20-20h20a20 20 0 0 1 20 20v120a20 20 0 0 1-20 20h-20a20 20 0 0 1-20-20z" stroke="#000" stroke-width="3" fill="url(#p)"/><use xlink:href="#d" transform="matrix(1,0,0,1,1044.985540195457,565) translate(16.11111111111111 82.27083333333333)"/><path d="M1040 780a20 20 0 0 1 20-20h260a20 20 0 0 1 20 20 20 20 0 0 1-20 20h-260a20 20 0 0 1-20-20z" stroke="#000" stroke-width="3" fill="#ced4db"/><use xlink:href="#a" transform="matrix(1,0,0,1,1044.9859378716317,765) translate(41.37537037037038 23.208333333333332)"/><use xlink:href="#e" transform="matrix(1,0,0,1,1044.9859378716317,765) translate(134.63462962962964 23.208333333333332)"/><path d="M1070 522.5V540" stroke="#000" stroke-width="2" fill="none"/><path d="M1070.96 522.53H1069v-1.03h1.96z" stroke="#000" stroke-width=".05"/><path d="M1070 555.26l-4.65-14.26h9.27z" stroke="#000" stroke-width="2"/><path d="M1160 580a20 20 0 0 1 20-20h20a20 20 0 0 1 20 20v120a20 20 0 0 1-20 20h-20a20 20 0 0 1-20-20z" stroke="#000" stroke-width="3" fill="url(#q)"/><use xlink:href="#h" transform="matrix(1,0,0,1,1164.985540195457,565) translate(16.11111111111111 82.27083333333333)"/><path d="M1280 580a20 20 0 0 1 20-20h20a20 20 0 0 1 20 20v120a20 20 0 0 1-20 20h-20a20 20 0 0 1-20-20z" stroke="#000" stroke-width="3" fill="url(#r)"/><use xlink:href="#j" transform="matrix(1,0,0,1,1284.985540195457,565) translate(15.407407407407408 82.27083333333333)"/><path d="M1190 522.5V540" stroke="#000" stroke-width="2" fill="none"/><path d="M1190.96 522.53H1189v-1.03h1.96z" stroke="#000" stroke-width=".05"/><path d="M1190 555.26l-4.65-14.26h9.27z" stroke="#000" stroke-width="2"/><path d="M1310 522.5V540" stroke="#000" stroke-width="2" fill="none"/><path d="M1310.96 522.53H1309v-1.03h1.96z" stroke="#000" stroke-width=".05"/><path d="M1310 555.26l-4.65-14.26h9.27z" stroke="#000" stroke-width="2"/><path d="M1190.97 722.5l.13 17.5" stroke="#000" stroke-width="2" fill="none"/><path d="M1191.95 722.52H1190v-1.02h1.94z" stroke="#000" stroke-width=".05"/><path d="M1191.2 755.26l-4.73-14.23 9.27-.06z" stroke="#000" stroke-width="2"/><path d="M1310 722.5V740" stroke="#000" stroke-width="2" fill="none"/><path d="M1310.96 722.53H1309v-1.03h1.96z" stroke="#000" stroke-width=".05"/><path d="M1310 755.26l-4.65-14.26h9.27z" stroke="#000" stroke-width="2"/><path d="M1040 500a20 20 0 0 1 20-20h260a20 20 0 0 1 20 20 20 20 0 0 1-20 20h-260a20 20 0 0 1-20-20z" stroke="#000" stroke-width="3" fill="#fff"/><use xlink:href="#n" transform="matrix(1,0,0,1,1044.985540195457,485) translate(65.89388888888891 23.208333333333332)"/><use xlink:href="#o" transform="matrix(1,0,0,1,1044.985540195457,485) translate(119.005 23.208333333333332)"/><path d="M1235.65 638h9.56m9.57 0h9.56M1235.65 642h9.56m9.57 0h9.56M1240.8 650l-17.3-10 17.3-10m-17.3 10h8.5M1259.16 630l17.33 10-17.34 10m17.33-10h-8.5M1115.65 638h9.56m9.57 0h9.56M1115.65 642h9.56m9.57 0h9.56M1120.8 650l-17.3-10 17.3-10m-17.3 10h8.5M1139.16 630l17.33 10-17.34 10m17.33-10h-8.5" stroke="#000" stroke-width="2" fill="none"/><defs><path d="M185-189c-5-48-123-54-124 2 14 75 158 14 163 119 3 78-121 87-175 55-17-10-28-26-33-46l33-7c5 56 141 63 141-1 0-78-155-14-162-118-5-82 145-84 179-34 5 7 8 16 11 25" id="s"/><path d="M106-169C34-169 62-67 57 0H25v-261h32l-1 103c12-21 28-36 61-36 89 0 53 116 60 194h-32v-121c2-32-8-49-39-48" id="t"/><path d="M141-36C126-15 110 5 73 4 37 3 15-17 15-53c-1-64 63-63 125-63 3-35-9-54-41-54-24 1-41 7-42 31l-33-3c5-37 33-52 76-52 45 0 72 20 72 64v82c-1 20 7 32 28 27v20c-31 9-61-2-59-35zM48-53c0 20 12 33 32 33 41-3 63-29 60-74-43 2-92-5-92 41" id="u"/><path d="M114-163C36-179 61-72 57 0H25l-1-190h30c1 12-1 29 2 39 6-27 23-49 58-41v29" id="v"/><path d="M100-194c63 0 86 42 84 106H49c0 40 14 67 53 68 26 1 43-12 49-29l28 8c-11 28-37 45-77 45C44 4 14-33 15-96c1-61 26-98 85-98zm52 81c6-60-76-77-97-28-3 7-6 17-6 28h103" id="w"/><path d="M85-194c31 0 48 13 60 33l-1-100h32l1 261h-30c-2-10 0-23-3-31C134-8 116 4 85 4 32 4 16-35 15-94c0-66 23-100 70-100zm9 24c-40 0-46 34-46 75 0 40 6 74 45 74 42 0 51-32 51-76 0-42-9-74-50-73" id="x"/><g id="a"><use transform="matrix(0.07407407407407407,0,0,0.07407407407407407,0,0)" xlink:href="#s"/><use transform="matrix(0.07407407407407407,0,0,0.07407407407407407,17.77777777777778,0)" xlink:href="#t"/><use transform="matrix(0.07407407407407407,0,0,0.07407407407407407,32.592592592592595,0)" xlink:href="#u"/><use transform="matrix(0.07407407407407407,0,0,0.07407407407407407,47.407407407407405,0)" xlink:href="#v"/><use transform="matrix(0.07407407407407407,0,0,0.07407407407407407,56.22222222222222,0)" xlink:href="#w"/><use transform="matrix(0.07407407407407407,0,0,0.07407407407407407,71.03703703703704,0)" xlink:href="#x"/></g><path d="M212-179c-10-28-35-45-73-45-59 0-87 40-87 99 0 60 29 101 89 101 43 0 62-24 78-52l27 14C228-24 195 4 139 4 59 4 22-46 18-125c-6-104 99-153 187-111 19 9 31 26 39 46" id="y"/><path d="M100-194c62-1 85 37 85 99 1 63-27 99-86 99S16-35 15-95c0-66 28-99 85-99zM99-20c44 1 53-31 53-75 0-43-8-75-51-75s-53 32-53 75 10 74 51 75" id="z"/><g id="b"><use transform="matrix(0.07407407407407407,0,0,0.07407407407407407,0,0)" xlink:href="#y"/><use transform="matrix(0.07407407407407407,0,0,0.07407407407407407,19.185185185185183,0)" xlink:href="#z"/><use transform="matrix(0.07407407407407407,0,0,0.07407407407407407,34,0)" xlink:href="#x"/><use transform="matrix(0.07407407407407407,0,0,0.07407407407407407,48.81481481481481,0)" xlink:href="#w"/></g><linearGradient gradientUnits="userSpaceOnUse" id="c" x1="700" y1="722.83" x2="700" y2="600"><stop offset="27.9%" stop-color="#fff"/><stop offset="48.19%" stop-color="#cfe4ff"/></linearGradient><path d="M205 0l-28-72H64L36 0H1l101-248h38L239 0h-34zm-38-99l-47-123c-12 45-31 82-46 123h93" id="A"/><use transform="matrix(0.07407407407407407,0,0,0.07407407407407407,0,0)" xlink:href="#A" id="d"/><path d="M30-248c118-7 216 8 213 122C240-48 200 0 122 0H30v-248zM63-27c89 8 146-16 146-99s-60-101-146-95v194" id="B"/><path d="M59-47c-2 24 18 29 38 22v24C64 9 27 4 27-40v-127H5v-23h24l9-43h21v43h35v23H59v120" id="C"/><path d="M115-194c53 0 69 39 70 98 0 66-23 100-70 100C84 3 66-7 56-30L54 0H23l1-261h32v101c10-23 28-34 59-34zm-8 174c40 0 45-34 45-75 0-40-5-75-45-74-42 0-51 32-51 76 0 43 10 73 51 73" id="D"/><path d="M135-143c-3-34-86-38-87 0 15 53 115 12 119 90S17 21 10-45l28-5c4 36 97 45 98 0-10-56-113-15-118-90-4-57 82-63 122-42 12 7 21 19 24 35" id="E"/><g id="e"><use transform="matrix(0.07407407407407407,0,0,0.07407407407407407,0,0)" xlink:href="#B"/><use transform="matrix(0.07407407407407407,0,0,0.07407407407407407,19.185185185185183,0)" xlink:href="#u"/><use transform="matrix(0.07407407407407407,0,0,0.07407407407407407,34,0)" xlink:href="#C"/><use transform="matrix(0.07407407407407407,0,0,0.07407407407407407,41.407407407407405,0)" xlink:href="#u"/><use transform="matrix(0.07407407407407407,0,0,0.07407407407407407,56.22222222222221,0)" xlink:href="#D"/><use transform="matrix(0.07407407407407407,0,0,0.07407407407407407,71.03703703703702,0)" xlink:href="#u"/><use transform="matrix(0.07407407407407407,0,0,0.07407407407407407,85.85185185185183,0)" xlink:href="#E"/><use transform="matrix(0.07407407407407407,0,0,0.07407407407407407,99.18518518518516,0)" xlink:href="#w"/></g><path d="M140-251c81 0 123 46 123 126C263-46 219 4 140 4 59 4 17-45 17-125s42-126 123-126zm0 227c63 0 89-41 89-101s-29-99-89-99c-61 0-89 39-89 99S79-25 140-24" id="F"/><path d="M96-169c-40 0-48 33-48 73s9 75 48 75c24 0 41-14 43-38l32 2c-6 37-31 61-74 61-59 0-76-41-82-99-10-93 101-131 147-64 4 7 5 14 7 22l-32 3c-4-21-16-35-41-35" id="G"/><g id="f"><use transform="matrix(0.07407407407407407,0,0,0.07407407407407407,0,0)" xlink:href="#F"/><use transform="matrix(0.07407407407407407,0,0,0.07407407407407407,20.74074074074074,0)" xlink:href="#v"/><use transform="matrix(0.07407407407407407,0,0,0.07407407407407407,29.555555555555557,0)" xlink:href="#G"/><use transform="matrix(0.07407407407407407,0,0,0.07407407407407407,42.888888888888886,0)" xlink:href="#t"/><use transform="matrix(0.07407407407407407,0,0,0.07407407407407407,57.703703703703695,0)" xlink:href="#w"/><use transform="matrix(0.07407407407407407,0,0,0.07407407407407407,72.5185185185185,0)" xlink:href="#E"/><use transform="matrix(0.07407407407407407,0,0,0.07407407407407407,85.85185185185183,0)" xlink:href="#C"/><use transform="matrix(0.07407407407407407,0,0,0.07407407407407407,93.25925925925924,0)" xlink:href="#v"/><use transform="matrix(0.07407407407407407,0,0,0.07407407407407407,102.07407407407405,0)" xlink:href="#u"/><use transform="matrix(0.07407407407407407,0,0,0.07407407407407407,116.88888888888887,0)" xlink:href="#C"/><use transform="matrix(0.07407407407407407,0,0,0.07407407407407407,124.29629629629626,0)" xlink:href="#z"/><use transform="matrix(0.07407407407407407,0,0,0.07407407407407407,139.1111111111111,0)" xlink:href="#v"/></g><linearGradient gradientUnits="userSpaceOnUse" id="g" x1="790" y1="722.83" x2="790" y2="600"><stop offset="27.9%" stop-color="#fff"/><stop offset="48.19%" stop-color="#cfe4ff"/></linearGradient><path d="M160-131c35 5 61 23 61 61C221 17 115-2 30 0v-248c76 3 177-17 177 60 0 33-19 50-47 57zm-97-11c50-1 110 9 110-42 0-47-63-36-110-37v79zm0 115c55-2 124 14 124-45 0-56-70-42-124-44v89" id="H"/><use transform="matrix(0.07407407407407407,0,0,0.07407407407407407,0,0)" xlink:href="#H" id="h"/><linearGradient gradientUnits="userSpaceOnUse" id="i" x1="880" y1="722.83" x2="880" y2="600"><stop offset="27.9%" stop-color="#fff"/><stop offset="48.19%" stop-color="#cfe4ff"/></linearGradient><use transform="matrix(0.07407407407407407,0,0,0.07407407407407407,0,0)" xlink:href="#y" id="j"/><use transform="matrix(0.07407407407407407,0,0,0.07407407407407407,0,0)" xlink:href="#A" id="k"/><g id="l"><use transform="matrix(0.07407407407407407,0,0,0.07407407407407407,0,0)" xlink:href="#F"/><use transform="matrix(0.07407407407407407,0,0,0.07407407407407407,20.74074074074074,0)" xlink:href="#v"/><use transform="matrix(0.07407407407407407,0,0,0.07407407407407407,29.555555555555557,0)" xlink:href="#G"/><use transform="matrix(0.07407407407407407,0,0,0.07407407407407407,42.888888888888886,0)" xlink:href="#t"/><use transform="matrix(0.07407407407407407,0,0,0.07407407407407407,57.703703703703695,0)" xlink:href="#w"/><use transform="matrix(0.07407407407407407,0,0,0.07407407407407407,72.5185185185185,0)" xlink:href="#E"/><use transform="matrix(0.07407407407407407,0,0,0.07407407407407407,85.85185185185183,0)" xlink:href="#C"/><use transform="matrix(0.07407407407407407,0,0,0.07407407407407407,93.25925925925924,0)" xlink:href="#v"/><use transform="matrix(0.07407407407407407,0,0,0.07407407407407407,102.07407407407405,0)" xlink:href="#u"/><use transform="matrix(0.07407407407407407,0,0,0.07407407407407407,116.88888888888887,0)" xlink:href="#C"/><use transform="matrix(0.07407407407407407,0,0,0.07407407407407407,124.29629629629626,0)" xlink:href="#z"/><use transform="matrix(0.07407407407407407,0,0,0.07407407407407407,139.1111111111111,0)" xlink:href="#v"/></g><use transform="matrix(0.07407407407407407,0,0,0.07407407407407407,0,0)" xlink:href="#H" id="m"/><path d="M24 0v-261h32V0H24" id="I"/><g id="n"><use transform="matrix(0.07407407407407407,0,0,0.07407407407407407,0,0)" xlink:href="#y"/><use transform="matrix(0.07407407407407407,0,0,0.07407407407407407,19.185185185185183,0)" xlink:href="#w"/><use transform="matrix(0.07407407407407407,0,0,0.07407407407407407,34,0)" xlink:href="#I"/><use transform="matrix(0.07407407407407407,0,0,0.07407407407407407,39.85185185185185,0)" xlink:href="#I"/></g><path d="M143 4C61 4 22-44 18-125c-5-107 100-154 193-111 17 8 29 25 37 43l-32 9c-13-25-37-40-76-40-61 0-88 39-88 99 0 61 29 100 91 101 35 0 62-11 79-27v-45h-74v-28h105v86C228-13 192 4 143 4" id="J"/><path d="M206 0h-36l-40-164L89 0H53L-1-190h32L70-26l43-164h34l41 164 42-164h31" id="K"/><path d="M179-190L93 31C79 59 56 82 12 73V49c39 6 53-20 64-50L1-190h34L92-34l54-156h33" id="L"/><g id="o"><use transform="matrix(0.07407407407407407,0,0,0.07407407407407407,0,0)" xlink:href="#J"/><use transform="matrix(0.07407407407407407,0,0,0.07407407407407407,20.74074074074074,0)" xlink:href="#u"/><use transform="matrix(0.07407407407407407,0,0,0.07407407407407407,35.55555555555556,0)" xlink:href="#C"/><use transform="matrix(0.07407407407407407,0,0,0.07407407407407407,42.96296296296296,0)" xlink:href="#w"/><use transform="matrix(0.07407407407407407,0,0,0.07407407407407407,57.77777777777777,0)" xlink:href="#K"/><use transform="matrix(0.07407407407407407,0,0,0.07407407407407407,76.96296296296296,0)" xlink:href="#u"/><use transform="matrix(0.07407407407407407,0,0,0.07407407407407407,91.77777777777777,0)" xlink:href="#L"/></g><linearGradient gradientUnits="userSpaceOnUse" id="p" x1="1039.99" y1="720" x2="1039.99" y2="560"><stop offset="17.75%" stop-color="#fff"/><stop offset="32.97%" stop-color="#cfe4ff"/><stop offset="65.22%" stop-color="#cfe4ff"/><stop offset="77.17%" stop-color="#c3f7c8"/></linearGradient><linearGradient gradientUnits="userSpaceOnUse" id="q" x1="1159.99" y1="720" x2="1159.99" y2="560"><stop offset="17.75%" stop-color="#fff"/><stop offset="32.97%" stop-color="#cfe4ff"/><stop offset="65.22%" stop-color="#cfe4ff"/><stop offset="77.17%" stop-color="#c3f7c8"/></linearGradient><linearGradient gradientUnits="userSpaceOnUse" id="r" x1="1279.99" y1="720" x2="1279.99" y2="560"><stop offset="17.75%" stop-color="#fff"/><stop offset="32.97%" stop-color="#cfe4ff"/><stop offset="65.22%" stop-color="#cfe4ff"/><stop offset="77.17%" stop-color="#c3f7c8"/></linearGradient></defs></g></svg>