<svg xmlns="http://www.w3.org/2000/svg" xmlns:xlink="http://www.w3.org/1999/xlink" xmlns:lucid="lucid" width="1183" height="424.5"><g transform="translate(-478.5 -517)" lucid:page-tab-id="0_0"><path d="M900 600a20 20 0 0 1 20-20h340a20 20 0 0 1 20 20v240a20 20 0 0 1-20 20H920a20 20 0 0 1-20-20z" fill-opacity="0"/><path d="M898.5 600a1.5 1.5 0 0 1 1.5-1.5 1.5 1.5 0 0 1 1.5 1.5 1.5 1.5 0 0 1-1.5 1.5 1.5 1.5 0 0 1-1.5-1.5m2.73-9.96a1.5 1.5 0 0 1 1.5-1.5 1.5 1.5 0 0 1 1.5 1.5 1.5 1.5 0 0 1-1.5 1.5 1.5 1.5 0 0 1-1.5-1.5V590m7.3-7.26a1.5 1.5 0 0 1 1.5-1.5 1.5 1.5 0 0 1 1.5 1.5 1.5 1.5 0 0 1-1.5 1.5 1.5 1.5 0 0 1-1.5-1.5v-.03m9.97-2.7a1.5 1.5 0 0 1 1.5-1.5 1.5 1.5 0 0 1 1.5 1.5 1.5 1.5 0 0 1-1.5 1.5 1.5 1.5 0 0 1-1.5-1.5m12.14 0a1.5 1.5 0 0 1 1.5-1.5 1.5 1.5 0 0 1 1.5 1.5 1.5 1.5 0 0 1-1.5 1.5 1.5 1.5 0 0 1-1.5-1.5m12.15 0a1.5 1.5 0 0 1 1.5-1.5 1.5 1.5 0 0 1 1.5 1.5 1.5 1.5 0 0 1-1.5 1.5 1.5 1.5 0 0 1-1.5-1.5m12.13 0a1.5 1.5 0 0 1 1.5-1.5 1.5 1.5 0 0 1 1.5 1.5 1.5 1.5 0 0 1-1.5 1.5 1.5 1.5 0 0 1-1.5-1.5m12.14 0a1.5 1.5 0 0 1 1.5-1.5 1.5 1.5 0 0 1 1.5 1.5 1.5 1.5 0 0 1-1.5 1.5 1.5 1.5 0 0 1-1.5-1.5m12.14 0a1.5 1.5 0 0 1 1.5-1.5 1.5 1.5 0 0 1 1.5 1.5 1.5 1.5 0 0 1-1.5 1.5 1.5 1.5 0 0 1-1.5-1.5m12.16 0a1.5 1.5 0 0 1 1.5-1.5 1.5 1.5 0 0 1 1.5 1.5 1.5 1.5 0 0 1-1.5 1.5 1.5 1.5 0 0 1-1.5-1.5m12.14 0a1.5 1.5 0 0 1 1.5-1.5 1.5 1.5 0 0 1 1.5 1.5 1.5 1.5 0 0 1-1.5 1.5 1.5 1.5 0 0 1-1.5-1.5m12.14 0a1.5 1.5 0 0 1 1.5-1.5 1.5 1.5 0 0 1 1.5 1.5 1.5 1.5 0 0 1-1.5 1.5 1.5 1.5 0 0 1-1.5-1.5m12.15 0a1.5 1.5 0 0 1 1.5-1.5 1.5 1.5 0 0 1 1.5 1.5 1.5 1.5 0 0 1-1.5 1.5 1.5 1.5 0 0 1-1.5-1.5m12.13 0a1.5 1.5 0 0 1 1.5-1.5 1.5 1.5 0 0 1 1.5 1.5 1.5 1.5 0 0 1-1.5 1.5 1.5 1.5 0 0 1-1.5-1.5m12.14 0a1.5 1.5 0 0 1 1.5-1.5 1.5 1.5 0 0 1 1.5 1.5 1.5 1.5 0 0 1-1.5 1.5 1.5 1.5 0 0 1-1.5-1.5m12.14 0a1.5 1.5 0 0 1 1.5-1.5 1.5 1.5 0 0 1 1.5 1.5 1.5 1.5 0 0 1-1.5 1.5 1.5 1.5 0 0 1-1.5-1.5m12.16 0a1.5 1.5 0 0 1 1.5-1.5 1.5 1.5 0 0 1 1.5 1.5 1.5 1.5 0 0 1-1.5 1.5 1.5 1.5 0 0 1-1.5-1.5m12.14 0a1.5 1.5 0 0 1 1.5-1.5 1.5 1.5 0 0 1 1.5 1.5 1.5 1.5 0 0 1-1.5 1.5 1.5 1.5 0 0 1-1.5-1.5m12.14 0a1.5 1.5 0 0 1 1.5-1.5 1.5 1.5 0 0 1 1.5 1.5 1.5 1.5 0 0 1-1.5 1.5 1.5 1.5 0 0 1-1.5-1.5m12.15 0a1.5 1.5 0 0 1 1.5-1.5 1.5 1.5 0 0 1 1.5 1.5 1.5 1.5 0 0 1-1.5 1.5 1.5 1.5 0 0 1-1.5-1.5m12.13 0a1.5 1.5 0 0 1 1.5-1.5 1.5 1.5 0 0 1 1.5 1.5 1.5 1.5 0 0 1-1.5 1.5 1.5 1.5 0 0 1-1.5-1.5m12.14 0a1.5 1.5 0 0 1 1.5-1.5 1.5 1.5 0 0 1 1.5 1.5 1.5 1.5 0 0 1-1.5 1.5 1.5 1.5 0 0 1-1.5-1.5m12.14 0a1.5 1.5 0 0 1 1.5-1.5 1.5 1.5 0 0 1 1.5 1.5 1.5 1.5 0 0 1-1.5 1.5 1.5 1.5 0 0 1-1.5-1.5m12.16 0a1.5 1.5 0 0 1 1.5-1.5 1.5 1.5 0 0 1 1.5 1.5 1.5 1.5 0 0 1-1.5 1.5 1.5 1.5 0 0 1-1.5-1.5m12.14 0a1.5 1.5 0 0 1 1.5-1.5 1.5 1.5 0 0 1 1.5 1.5 1.5 1.5 0 0 1-1.5 1.5 1.5 1.5 0 0 1-1.5-1.5m12.14 0a1.5 1.5 0 0 1 1.5-1.5 1.5 1.5 0 0 1 1.5 1.5 1.5 1.5 0 0 1-1.5 1.5 1.5 1.5 0 0 1-1.5-1.5m12.15 0a1.5 1.5 0 0 1 1.5-1.5 1.5 1.5 0 0 1 1.5 1.5 1.5 1.5 0 0 1-1.5 1.5 1.5 1.5 0 0 1-1.5-1.5m12.13 0a1.5 1.5 0 0 1 1.5-1.5 1.5 1.5 0 0 1 1.5 1.5 1.5 1.5 0 0 1-1.5 1.5 1.5 1.5 0 0 1-1.5-1.5m12.14 0a1.5 1.5 0 0 1 1.5-1.5 1.5 1.5 0 0 1 1.5 1.5 1.5 1.5 0 0 1-1.5 1.5 1.5 1.5 0 0 1-1.5-1.5m12.14 0a1.5 1.5 0 0 1 1.5-1.5 1.5 1.5 0 0 1 1.5 1.5 1.5 1.5 0 0 1-1.5 1.5 1.5 1.5 0 0 1-1.5-1.5m12.16 0a1.5 1.5 0 0 1 1.5-1.5 1.5 1.5 0 0 1 1.5 1.5 1.5 1.5 0 0 1-1.5 1.5 1.5 1.5 0 0 1-1.5-1.5m12.14 0a1.5 1.5 0 0 1 1.5-1.5 1.5 1.5 0 0 1 1.5 1.5 1.5 1.5 0 0 1-1.5 1.5 1.5 1.5 0 0 1-1.5-1.5m9.97 2.74a1.5 1.5 0 0 1 1.5-1.5 1.5 1.5 0 0 1 1.5 1.5 1.5 1.5 0 0 1-1.5 1.5 1.5 1.5 0 0 1-1.5-1.5v-.03m7.3 7.34a1.5 1.5 0 0 1 1.5-1.5 1.5 1.5 0 0 1 1.5 1.5 1.5 1.5 0 0 1-1.5 1.5 1.5 1.5 0 0 1-1.5-1.5V590m2.73 10a1.5 1.5 0 0 1 1.5-1.5 1.5 1.5 0 0 1 1.5 1.5 1.5 1.5 0 0 1-1.5 1.5 1.5 1.5 0 0 1-1.5-1.5m0 12a1.5 1.5 0 0 1 1.5-1.5 1.5 1.5 0 0 1 1.5 1.5 1.5 1.5 0 0 1-1.5 1.5 1.5 1.5 0 0 1-1.5-1.5m0 12a1.5 1.5 0 0 1 1.5-1.5 1.5 1.5 0 0 1 1.5 1.5 1.5 1.5 0 0 1-1.5 1.5 1.5 1.5 0 0 1-1.5-1.5m0 12a1.5 1.5 0 0 1 1.5-1.5 1.5 1.5 0 0 1 1.5 1.5 1.5 1.5 0 0 1-1.5 1.5 1.5 1.5 0 0 1-1.5-1.5m0 12a1.5 1.5 0 0 1 1.5-1.5 1.5 1.5 0 0 1 1.5 1.5 1.5 1.5 0 0 1-1.5 1.5 1.5 1.5 0 0 1-1.5-1.5m0 12a1.5 1.5 0 0 1 1.5-1.5 1.5 1.5 0 0 1 1.5 1.5 1.5 1.5 0 0 1-1.5 1.5 1.5 1.5 0 0 1-1.5-1.5m0 12a1.5 1.5 0 0 1 1.5-1.5 1.5 1.5 0 0 1 1.5 1.5 1.5 1.5 0 0 1-1.5 1.5 1.5 1.5 0 0 1-1.5-1.5m0 12a1.5 1.5 0 0 1 1.5-1.5 1.5 1.5 0 0 1 1.5 1.5 1.5 1.5 0 0 1-1.5 1.5 1.5 1.5 0 0 1-1.5-1.5m0 12a1.5 1.5 0 0 1 1.5-1.5 1.5 1.5 0 0 1 1.5 1.5 1.5 1.5 0 0 1-1.5 1.5 1.5 1.5 0 0 1-1.5-1.5m0 12a1.5 1.5 0 0 1 1.5-1.5 1.5 1.5 0 0 1 1.5 1.5 1.5 1.5 0 0 1-1.5 1.5 1.5 1.5 0 0 1-1.5-1.5m0 12a1.5 1.5 0 0 1 1.5-1.5 1.5 1.5 0 0 1 1.5 1.5 1.5 1.5 0 0 1-1.5 1.5 1.5 1.5 0 0 1-1.5-1.5m0 12a1.5 1.5 0 0 1 1.5-1.5 1.5 1.5 0 0 1 1.5 1.5 1.5 1.5 0 0 1-1.5 1.5 1.5 1.5 0 0 1-1.5-1.5m0 12a1.5 1.5 0 0 1 1.5-1.5 1.5 1.5 0 0 1 1.5 1.5 1.5 1.5 0 0 1-1.5 1.5 1.5 1.5 0 0 1-1.5-1.5m0 12a1.5 1.5 0 0 1 1.5-1.5 1.5 1.5 0 0 1 1.5 1.5 1.5 1.5 0 0 1-1.5 1.5 1.5 1.5 0 0 1-1.5-1.5m0 12a1.5 1.5 0 0 1 1.5-1.5 1.5 1.5 0 0 1 1.5 1.5 1.5 1.5 0 0 1-1.5 1.5 1.5 1.5 0 0 1-1.5-1.5m0 12a1.5 1.5 0 0 1 1.5-1.5 1.5 1.5 0 0 1 1.5 1.5 1.5 1.5 0 0 1-1.5 1.5 1.5 1.5 0 0 1-1.5-1.5m0 12a1.5 1.5 0 0 1 1.5-1.5 1.5 1.5 0 0 1 1.5 1.5 1.5 1.5 0 0 1-1.5 1.5 1.5 1.5 0 0 1-1.5-1.5m0 12a1.5 1.5 0 0 1 1.5-1.5 1.5 1.5 0 0 1 1.5 1.5 1.5 1.5 0 0 1-1.5 1.5 1.5 1.5 0 0 1-1.5-1.5m0 12a1.5 1.5 0 0 1 1.5-1.5 1.5 1.5 0 0 1 1.5 1.5 1.5 1.5 0 0 1-1.5 1.5 1.5 1.5 0 0 1-1.5-1.5m0 12a1.5 1.5 0 0 1 1.5-1.5 1.5 1.5 0 0 1 1.5 1.5 1.5 1.5 0 0 1-1.5 1.5 1.5 1.5 0 0 1-1.5-1.5m0 12a1.5 1.5 0 0 1 1.5-1.5 1.5 1.5 0 0 1 1.5 1.5 1.5 1.5 0 0 1-1.5 1.5 1.5 1.5 0 0 1-1.5-1.5m-2.73 10v-.03a1.5 1.5 0 0 1 1.5-1.5 1.5 1.5 0 0 1 1.5 1.5 1.5 1.5 0 0 1-1.5 1.5 1.5 1.5 0 0 1-1.5-1.5m-7.3 7.32v-.03a1.5 1.5 0 0 1 1.5-1.5 1.5 1.5 0 0 1 1.5 1.5 1.5 1.5 0 0 1-1.5 1.5 1.5 1.5 0 0 1-1.5-1.5m-9.97 2.75V860a1.5 1.5 0 0 1 1.5-1.5 1.5 1.5 0 0 1 1.5 1.5 1.5 1.5 0 0 1-1.5 1.5 1.5 1.5 0 0 1-1.5-1.5m-12.14 0a1.5 1.5 0 0 1 1.5-1.5 1.5 1.5 0 0 1 1.5 1.5 1.5 1.5 0 0 1-1.5 1.5 1.5 1.5 0 0 1-1.5-1.5m-12.15 0a1.5 1.5 0 0 1 1.5-1.5 1.5 1.5 0 0 1 1.5 1.5 1.5 1.5 0 0 1-1.5 1.5 1.5 1.5 0 0 1-1.5-1.5m-12.13 0a1.5 1.5 0 0 1 1.5-1.5 1.5 1.5 0 0 1 1.5 1.5 1.5 1.5 0 0 1-1.5 1.5 1.5 1.5 0 0 1-1.5-1.5m-12.14 0a1.5 1.5 0 0 1 1.5-1.5 1.5 1.5 0 0 1 1.5 1.5 1.5 1.5 0 0 1-1.5 1.5 1.5 1.5 0 0 1-1.5-1.5m-12.14 0a1.5 1.5 0 0 1 1.5-1.5 1.5 1.5 0 0 1 1.5 1.5 1.5 1.5 0 0 1-1.5 1.5 1.5 1.5 0 0 1-1.5-1.5m-12.16 0a1.5 1.5 0 0 1 1.5-1.5 1.5 1.5 0 0 1 1.5 1.5 1.5 1.5 0 0 1-1.5 1.5 1.5 1.5 0 0 1-1.5-1.5m-12.14 0a1.5 1.5 0 0 1 1.5-1.5 1.5 1.5 0 0 1 1.5 1.5 1.5 1.5 0 0 1-1.5 1.5 1.5 1.5 0 0 1-1.5-1.5m-12.14 0a1.5 1.5 0 0 1 1.5-1.5 1.5 1.5 0 0 1 1.5 1.5 1.5 1.5 0 0 1-1.5 1.5 1.5 1.5 0 0 1-1.5-1.5m-12.15 0a1.5 1.5 0 0 1 1.5-1.5 1.5 1.5 0 0 1 1.5 1.5 1.5 1.5 0 0 1-1.5 1.5 1.5 1.5 0 0 1-1.5-1.5m-12.13 0a1.5 1.5 0 0 1 1.5-1.5 1.5 1.5 0 0 1 1.5 1.5 1.5 1.5 0 0 1-1.5 1.5 1.5 1.5 0 0 1-1.5-1.5m-12.14 0a1.5 1.5 0 0 1 1.5-1.5 1.5 1.5 0 0 1 1.5 1.5 1.5 1.5 0 0 1-1.5 1.5 1.5 1.5 0 0 1-1.5-1.5m-12.14 0a1.5 1.5 0 0 1 1.5-1.5 1.5 1.5 0 0 1 1.5 1.5 1.5 1.5 0 0 1-1.5 1.5 1.5 1.5 0 0 1-1.5-1.5m-12.16 0a1.5 1.5 0 0 1 1.5-1.5 1.5 1.5 0 0 1 1.5 1.5 1.5 1.5 0 0 1-1.5 1.5 1.5 1.5 0 0 1-1.5-1.5m-12.14 0a1.5 1.5 0 0 1 1.5-1.5 1.5 1.5 0 0 1 1.5 1.5 1.5 1.5 0 0 1-1.5 1.5 1.5 1.5 0 0 1-1.5-1.5m-12.14 0a1.5 1.5 0 0 1 1.5-1.5 1.5 1.5 0 0 1 1.5 1.5 1.5 1.5 0 0 1-1.5 1.5 1.5 1.5 0 0 1-1.5-1.5m-12.15 0a1.5 1.5 0 0 1 1.5-1.5 1.5 1.5 0 0 1 1.5 1.5 1.5 1.5 0 0 1-1.5 1.5 1.5 1.5 0 0 1-1.5-1.5m-12.13 0a1.5 1.5 0 0 1 1.5-1.5 1.5 1.5 0 0 1 1.5 1.5 1.5 1.5 0 0 1-1.5 1.5 1.5 1.5 0 0 1-1.5-1.5m-12.14 0a1.5 1.5 0 0 1 1.5-1.5 1.5 1.5 0 0 1 1.5 1.5 1.5 1.5 0 0 1-1.5 1.5 1.5 1.5 0 0 1-1.5-1.5m-12.14 0a1.5 1.5 0 0 1 1.5-1.5 1.5 1.5 0 0 1 1.5 1.5 1.5 1.5 0 0 1-1.5 1.5 1.5 1.5 0 0 1-1.5-1.5m-12.16 0a1.5 1.5 0 0 1 1.5-1.5 1.5 1.5 0 0 1 1.5 1.5 1.5 1.5 0 0 1-1.5 1.5 1.5 1.5 0 0 1-1.5-1.5m-12.14 0a1.5 1.5 0 0 1 1.5-1.5 1.5 1.5 0 0 1 1.5 1.5 1.5 1.5 0 0 1-1.5 1.5 1.5 1.5 0 0 1-1.5-1.5m-12.14 0a1.5 1.5 0 0 1 1.5-1.5 1.5 1.5 0 0 1 1.5 1.5 1.5 1.5 0 0 1-1.5 1.5 1.5 1.5 0 0 1-1.5-1.5m-12.15 0a1.5 1.5 0 0 1 1.5-1.5 1.5 1.5 0 0 1 1.5 1.5 1.5 1.5 0 0 1-1.5 1.5 1.5 1.5 0 0 1-1.5-1.5m-12.13 0a1.5 1.5 0 0 1 1.5-1.5 1.5 1.5 0 0 1 1.5 1.5 1.5 1.5 0 0 1-1.5 1.5 1.5 1.5 0 0 1-1.5-1.5m-12.14 0a1.5 1.5 0 0 1 1.5-1.5 1.5 1.5 0 0 1 1.5 1.5 1.5 1.5 0 0 1-1.5 1.5 1.5 1.5 0 0 1-1.5-1.5m-12.14 0a1.5 1.5 0 0 1 1.5-1.5 1.5 1.5 0 0 1 1.5 1.5 1.5 1.5 0 0 1-1.5 1.5 1.5 1.5 0 0 1-1.5-1.5m-12.16 0a1.5 1.5 0 0 1 1.5-1.5 1.5 1.5 0 0 1 1.5 1.5 1.5 1.5 0 0 1-1.5 1.5 1.5 1.5 0 0 1-1.5-1.5m-12.14 0a1.5 1.5 0 0 1 1.5-1.5 1.5 1.5 0 0 1 1.5 1.5 1.5 1.5 0 0 1-1.5 1.5 1.5 1.5 0 0 1-1.5-1.5m-9.97-2.7v-.03a1.5 1.5 0 0 1 1.5-1.5 1.5 1.5 0 0 1 1.5 1.5 1.5 1.5 0 0 1-1.5 1.5 1.5 1.5 0 0 1-1.5-1.5m-7.3-7.28v-.03a1.5 1.5 0 0 1 1.5-1.5 1.5 1.5 0 0 1 1.5 1.5 1.5 1.5 0 0 1-1.5 1.5 1.5 1.5 0 0 1-1.5-1.5M898.5 840a1.5 1.5 0 0 1 1.5-1.5 1.5 1.5 0 0 1 1.5 1.5 1.5 1.5 0 0 1-1.5 1.5 1.5 1.5 0 0 1-1.5-1.5m0-12a1.5 1.5 0 0 1 1.5-1.5 1.5 1.5 0 0 1 1.5 1.5 1.5 1.5 0 0 1-1.5 1.5 1.5 1.5 0 0 1-1.5-1.5m0-12a1.5 1.5 0 0 1 1.5-1.5 1.5 1.5 0 0 1 1.5 1.5 1.5 1.5 0 0 1-1.5 1.5 1.5 1.5 0 0 1-1.5-1.5m0-12a1.5 1.5 0 0 1 1.5-1.5 1.5 1.5 0 0 1 1.5 1.5 1.5 1.5 0 0 1-1.5 1.5 1.5 1.5 0 0 1-1.5-1.5m0-12a1.5 1.5 0 0 1 1.5-1.5 1.5 1.5 0 0 1 1.5 1.5 1.5 1.5 0 0 1-1.5 1.5 1.5 1.5 0 0 1-1.5-1.5m0-12a1.5 1.5 0 0 1 1.5-1.5 1.5 1.5 0 0 1 1.5 1.5 1.5 1.5 0 0 1-1.5 1.5 1.5 1.5 0 0 1-1.5-1.5m0-12a1.5 1.5 0 0 1 1.5-1.5 1.5 1.5 0 0 1 1.5 1.5 1.5 1.5 0 0 1-1.5 1.5 1.5 1.5 0 0 1-1.5-1.5m0-12a1.5 1.5 0 0 1 1.5-1.5 1.5 1.5 0 0 1 1.5 1.5 1.5 1.5 0 0 1-1.5 1.5 1.5 1.5 0 0 1-1.5-1.5m0-12a1.5 1.5 0 0 1 1.5-1.5 1.5 1.5 0 0 1 1.5 1.5 1.5 1.5 0 0 1-1.5 1.5 1.5 1.5 0 0 1-1.5-1.5m0-12a1.5 1.5 0 0 1 1.5-1.5 1.5 1.5 0 0 1 1.5 1.5 1.5 1.5 0 0 1-1.5 1.5 1.5 1.5 0 0 1-1.5-1.5m0-12a1.5 1.5 0 0 1 1.5-1.5 1.5 1.5 0 0 1 1.5 1.5 1.5 1.5 0 0 1-1.5 1.5 1.5 1.5 0 0 1-1.5-1.5m0-12a1.5 1.5 0 0 1 1.5-1.5 1.5 1.5 0 0 1 1.5 1.5 1.5 1.5 0 0 1-1.5 1.5 1.5 1.5 0 0 1-1.5-1.5m0-12a1.5 1.5 0 0 1 1.5-1.5 1.5 1.5 0 0 1 1.5 1.5 1.5 1.5 0 0 1-1.5 1.5 1.5 1.5 0 0 1-1.5-1.5m0-12a1.5 1.5 0 0 1 1.5-1.5 1.5 1.5 0 0 1 1.5 1.5 1.5 1.5 0 0 1-1.5 1.5 1.5 1.5 0 0 1-1.5-1.5m0-12a1.5 1.5 0 0 1 1.5-1.5 1.5 1.5 0 0 1 1.5 1.5 1.5 1.5 0 0 1-1.5 1.5 1.5 1.5 0 0 1-1.5-1.5m0-12a1.5 1.5 0 0 1 1.5-1.5 1.5 1.5 0 0 1 1.5 1.5 1.5 1.5 0 0 1-1.5 1.5 1.5 1.5 0 0 1-1.5-1.5m0-12a1.5 1.5 0 0 1 1.5-1.5 1.5 1.5 0 0 1 1.5 1.5 1.5 1.5 0 0 1-1.5 1.5 1.5 1.5 0 0 1-1.5-1.5m0-12a1.5 1.5 0 0 1 1.5-1.5 1.5 1.5 0 0 1 1.5 1.5 1.5 1.5 0 0 1-1.5 1.5 1.5 1.5 0 0 1-1.5-1.5m0-12a1.5 1.5 0 0 1 1.5-1.5 1.5 1.5 0 0 1 1.5 1.5 1.5 1.5 0 0 1-1.5 1.5 1.5 1.5 0 0 1-1.5-1.5m0-12a1.5 1.5 0 0 1 1.5-1.5 1.5 1.5 0 0 1 1.5 1.5 1.5 1.5 0 0 1-1.5 1.5 1.5 1.5 0 0 1-1.5-1.5"/><path d="M880 780a20 20 0 0 1 20-20 20 20 0 0 1 20 20v60a20 20 0 0 1-20 20 20 20 0 0 1-20-20z" stroke="#000" stroke-width="3" fill="#fff"/><use xlink:href="#a" transform="matrix(-1.8369701987210297e-16,-1,1,-1.8369701987210297e-16,885,855.0000000000001) translate(2.2611728395061608 19.555555555555557)"/><path d="M1260 780a20 20 0 0 1 20-20 20 20 0 0 1 20 20v60a20 20 0 0 1-20 20 20 20 0 0 1-20-20z" stroke="#000" stroke-width="3" fill="#fff"/><use xlink:href="#a" transform="matrix(-1.8369701987210297e-16,-1,1,-1.8369701987210297e-16,1265,854.9999999999998) translate(2.2611728395061608 19.555555555555557)"/><path d="M1302.5 808h23.34M1302.5 812h23.34" stroke="#1071e5" stroke-width="2" fill="none"/><path d="M1302.53 808.98h-1.03V807h1.03zM1302.53 812.98h-1.03V811h1.03z" stroke="#1071e5" stroke-width=".05" fill="#1071e5"/><path d="M1320.68 800l17.32 10-17.32 10m17.32-10h-8.5" stroke="#1071e5" stroke-width="2" fill="none"/><path d="M877.5 812h-23.34M877.5 808h-23.34" stroke="#008a0e" stroke-width="2" fill="none"/><path d="M878.5 812.98h-1.03V811h1.03zM878.5 808.98h-1.03V807h1.03z" stroke="#008a0e" stroke-width=".05" fill="#008a0e"/><path d="M859.32 820L842 810l17.32-10M842 810h8.5" stroke="#008a0e" stroke-width="2" fill="none"/><path d="M1092 521v23.34M1088 521v23.34M1092 521.03V520M1088 521.03V520M1100 539.18l-10 17.32-10-17.32m10 17.32V548" stroke="#cc4e00" stroke-width="2" fill="none"/><path d="M940 580a20 20 0 0 1 20-20h260a20 20 0 0 1 20 20 20 20 0 0 1-20 20H960a20 20 0 0 1-20-20z" stroke="#000" stroke-width="3" fill="#fff"/><use xlink:href="#b" transform="matrix(1,0,0,1,945,565) translate(72.48648148148148 21.430555555555557)"/><use xlink:href="#c" transform="matrix(1,0,0,1,945,565) translate(121.17166666666665 21.430555555555557)"/><path d="M970 620v-17.5" stroke="#000" stroke-width="2" fill="none"/><path d="M970 635.26L965.37 621h9.26z" stroke="#000" stroke-width="2"/><path d="M970.98 602.53H969v-1.03H971z" stroke="#000" stroke-width=".05"/><path d="M1210 620v-17.5" stroke="#000" stroke-width="2" fill="none"/><path d="M1210 635.26l-4.63-14.26h9.27z" stroke="#000" stroke-width="2"/><path d="M1210.97 602.53h-1.94v-1.03h1.94z" stroke="#000" stroke-width=".05"/><path d="M1090 620v-17.5" stroke="#000" stroke-width="2" fill="none"/><path d="M1090 635.26l-4.63-14.26h9.27z" stroke="#000" stroke-width="2"/><path d="M1090.97 602.53h-1.94v-1.03h1.94z" stroke="#000" stroke-width=".05"/><path d="M940 660a20 20 0 0 1 20-20h20a20 20 0 0 1 20 20v100a20 20 0 0 1-20 20h-20a20 20 0 0 1-20-20z" stroke="#000" stroke-width="3" fill="url(#d)"/><use xlink:href="#e" transform="matrix(-1.8369701987210297e-16,-1,1,-1.8369701987210297e-16,945.0000000000001,775.0000000000001) translate(4.635802469135797 28.930555555555557)"/><path d="M1060 660a20 20 0 0 1 20-20h20a20 20 0 0 1 20 20v100a20 20 0 0 1-20 20h-20a20 20 0 0 1-20-20z" stroke="#000" stroke-width="3" fill="url(#f)"/><use xlink:href="#e" transform="matrix(-1.8369701987210297e-16,-1,1,-1.8369701987210297e-16,1065,775) translate(4.635802469135797 28.930555555555557)"/><path d="M1180 660a20 20 0 0 1 20-20h20a20 20 0 0 1 20 20v100a20 20 0 0 1-20 20h-20a20 20 0 0 1-20-20z" stroke="#000" stroke-width="3" fill="url(#g)"/><use xlink:href="#h" transform="matrix(-1.8369701987210297e-16,-1,1,-1.8369701987210297e-16,1185,775) translate(4.635802469135797 28.930555555555557)"/><path d="M1040 710h-20" stroke="#000" stroke-width="2" fill="none"/><path d="M1055.26 710l-14.26 4.63v-9.26zM1004.74 710l14.26-4.63v9.26z" stroke="#000" stroke-width="2"/><path d="M1160 710h-20" stroke="#000" stroke-width="2" fill="none"/><path d="M1175.26 710l-14.26 4.63v-9.26zM1124.74 710l14.26-4.63v9.26z" stroke="#000" stroke-width="2"/><path d="M1020 860a20 20 0 0 1 20-20h100a20 20 0 0 1 20 20 20 20 0 0 1-20 20h-100a20 20 0 0 1-20-20z" stroke="#82755b" stroke-width="3" fill="url(#i)"/><use xlink:href="#j" transform="matrix(1,0,0,1,1025,845) translate(31.122283950617273 21.430555555555557)"/><path d="M1090 820v-37.5" stroke="#000" stroke-width="2" fill="none"/><path d="M1090 835.26l-4.63-14.26h9.27z" stroke="#000" stroke-width="2"/><path d="M1090.97 782.53h-1.94v-1.03h1.94z" stroke="#000" stroke-width=".05"/><path d="M1106.7 830.56l102.4-48.63" stroke="#000" stroke-width="2" fill="none"/><path d="M1092.92 837.1l10.9-10.3 3.98 8.38z" stroke="#000" stroke-width="2"/><path d="M1209.5 782.82l-.63-1.32h3.4z" stroke="#000" stroke-width=".05"/><path d="M1073.3 830.56l-102.4-48.63" stroke="#000" stroke-width="2" fill="none"/><path d="M1087.08 837.1l-14.88-1.92 3.98-8.38z" stroke="#000" stroke-width="2"/><path d="M970.5 782.82l-2.77-1.32h3.4z" stroke="#000" stroke-width=".05"/><path d="M1242.55 800.63l-31.7-18.62" stroke="#000" stroke-width="2" fill="none"/><path d="M1255.7 808.36l-14.64-3.23 4.7-8z" stroke="#000" stroke-width="2"/><path d="M1210.4 782.86l-2.32-1.36h3.1z" stroke="#000" stroke-width=".05"/><path d="M1240.26 806.9L1091 781.68" stroke="#000" stroke-width="2" fill="none"/><path d="M1255.3 809.46l-14.83 2.2 1.55-9.15z" stroke="#000" stroke-width="2"/><path d="M1090.85 782.63l-3.97-.67.08-.46h4.08z" stroke="#000" stroke-width=".05"/><path d="M937.45 800.63l31.7-18.62" stroke="#000" stroke-width="2" fill="none"/><path d="M924.3 808.36l9.94-11.22 4.7 8z" stroke="#000" stroke-width="2"/><path d="M969.6 782.86l-.8-1.36h3.12z" stroke="#000" stroke-width=".05"/><path d="M939.74 806.9L1089 781.68" stroke="#000" stroke-width="2" fill="none"/><path d="M924.7 809.46l13.28-6.95 1.55 9.15z" stroke="#000" stroke-width="2"/><path d="M1093.12 781.96l-3.97.67-.2-1.13h4.1z" stroke="#000" stroke-width=".05"/><path d="M1092 882.5v23.34M1088 882.5v23.34" stroke="#82755b" stroke-width="2" fill="none"/><path d="M1092.97 882.53h-1.94v-1.03h1.94zM1088.97 882.53h-1.94v-1.03h1.94z" stroke="#82755b" stroke-width=".05" fill="#82755b"/><path d="M1100 900.68L1090 918l-10-17.32m10 17.32v-8.5" stroke="#82755b" stroke-width="2" fill="none"/><path d="M480 526a6 6 0 0 1 6-6h308a6 6 0 0 1 6 6v148a6 6 0 0 1-6 6H486a6 6 0 0 1-6-6z" stroke="#000" stroke-opacity="0" stroke-width="3" fill="#fff" fill-opacity="0"/><use xlink:href="#k" transform="matrix(1,0,0,1,485,525) translate(18.629629629629648 29.57638888888889)"/><use xlink:href="#l" transform="matrix(1,0,0,1,485,525) translate(46.28395061728396 29.57638888888889)"/><use xlink:href="#m" transform="matrix(1,0,0,1,485,525) translate(108.24691358024693 29.57638888888889)"/><use xlink:href="#n" transform="matrix(1,0,0,1,485,525) translate(43.691358024691354 66.90972222222223)"/><use xlink:href="#o" transform="matrix(1,0,0,1,485,525) translate(152.4074074074074 66.90972222222223)"/><use xlink:href="#p" transform="matrix(1,0,0,1,485,525) translate(9.12345679012347 104.24305555555556)"/><use xlink:href="#q" transform="matrix(1,0,0,1,485,525) translate(97.09876543209877 104.24305555555556)"/><use xlink:href="#r" transform="matrix(1,0,0,1,485,525) translate(150.59259259259258 104.24305555555556)"/><use xlink:href="#s" transform="matrix(1,0,0,1,485,525) translate(249.02469135802468 104.24305555555556)"/><use xlink:href="#t" transform="matrix(1,0,0,1,485,525) translate(30.641975308641975 141.57638888888889)"/><use xlink:href="#u" transform="matrix(1,0,0,1,485,525) translate(165.37037037037038 141.57638888888889)"/><path d="M800.92 579.4l2.74 1.16m3.66 1.56l5.48 2.34m3.66 1.56l5.48 2.34m3.66 1.56l5.5 2.34m3.64 1.56l5.5 2.33m3.64 1.56l5.5 2.35m3.64 1.56l5.5 2.35m3.64 1.56l5.5 2.35m3.64 1.56l5.5 2.35m3.65 1.55l5.48 2.34m3.66 1.56l5.47 2.34m3.66 1.56l5.48 2.34m3.67 1.56l5.48 2.34m3.66 1.56l5.5 2.34m3.65 1.55l5.48 2.33m3.66 1.56l5.48 2.33m3.65 1.56l2.74 1.16" stroke="#3a414a" stroke-width="2" fill="none"/><path d="M801.33 578.5l-.77 1.8-.56-.24v-2.12zM949.1 641.53l-1.74 1.07-.23.2-.36-.15.76-1.8z" stroke="#3a414a" stroke-width=".05" fill="#3a414a"/><path d="M800.97 579.24l2.92.73m3.88.97l5.83 1.46m3.9.97l5.84 1.46m3.9.97l5.82 1.46m3.9.98l5.83 1.45m3.88.97l5.83 1.45m3.9.98l5.84 1.45m3.9.98l5.83 1.46m3.88.96l5.84 1.46m3.88.97l5.84 1.45m3.9.97l5.82 1.46m3.9.97l5.83 1.46m3.9.98l5.82 1.46m3.88.97l5.84 1.47m3.9.97l5.82 1.46m3.9.97l5.83 1.46m3.9.97l5.82 1.46m3.88.97l5.84 1.46m3.9.96l5.82 1.46m3.9.97l5.83 1.45m3.9.98l5.82 1.45m3.88.97l5.84 1.46m3.9 1l5.83 1.44m3.88.98l5.84 1.46m3.9.97l5.83 1.45m3.88.98l5.84 1.46m3.9.97l5.83 1.47m3.9.97l2.9.73" stroke="#3a414a" stroke-width="2" fill="none"/><path d="M801.23 578.3l-.47 1.9-.76-.2v-2zM1065.36 644.3l-.57.5-.98 1.14-.53-.13.47-1.88z" stroke="#3a414a" stroke-width=".05" fill="#3a414a"/><path d="M801 579.1l2.96.34m3.95.44l5.94.66m3.96.44l5.93.66m3.95.45l5.94.65m3.95.44l5.93.65m3.95.44l5.93.65m3.96.44l5.93.65m3.95.44l5.93.65m3.96.44l5.94.65m3.96.44l5.93.65m3.95.45l2.97.33" stroke="#3a414a" stroke-width="2" fill="none"/><path d="M801.13 578.14l-.22 1.94-.9-.1v-1.96z" stroke="#3a414a" stroke-width=".05" fill="#3a414a"/><path d="M899.82 590.12l1.02.12" stroke="#3a414a" stroke-width="2" fill="none"/><path d="M1380 526a6 6 0 0 1 6-6h248a6 6 0 0 1 6 6v228a6 6 0 0 1-6 6h-248a6 6 0 0 1-6-6z" stroke="#000" stroke-opacity="0" stroke-width="3" fill="#fff" fill-opacity="0"/><use xlink:href="#v" transform="matrix(1,0,0,1,1385,525) translate(1.6358024691357969 32.076388888888886)"/><use xlink:href="#w" transform="matrix(1,0,0,1,1385,525) translate(63.771604938271594 32.076388888888886)"/><use xlink:href="#x" transform="matrix(1,0,0,1,1385,525) translate(125.73456790123456 32.076388888888886)"/><use xlink:href="#y" transform="matrix(1,0,0,1,1385,525) translate(20.259259259259267 69.40972222222223)"/><use xlink:href="#z" transform="matrix(1,0,0,1,1385,525) translate(103.1358024691358 69.40972222222223)"/><use xlink:href="#A" transform="matrix(1,0,0,1,1385,525) translate(154.98765432098764 69.40972222222223)"/><use xlink:href="#B" transform="matrix(1,0,0,1,1385,525) translate(30.888888888888886 106.74305555555556)"/><use xlink:href="#C" transform="matrix(1,0,0,1,1385,525) translate(157.06172839506172 106.74305555555556)"/><use xlink:href="#D" transform="matrix(1,0,0,1,1385,525) translate(17.191358024691368 144.07638888888889)"/><use xlink:href="#E" transform="matrix(1,0,0,1,1385,525) translate(56.85802469135803 144.07638888888889)"/><use xlink:href="#F" transform="matrix(1,0,0,1,1385,525) translate(153.47530864197532 144.07638888888889)"/><use xlink:href="#G" transform="matrix(1,0,0,1,1385,525) translate(16.28395061728395 181.40972222222223)"/><use xlink:href="#z" transform="matrix(1,0,0,1,1385,525) translate(87.06172839506172 181.40972222222223)"/><use xlink:href="#l" transform="matrix(1,0,0,1,1385,525) translate(138.91358024691357 181.40972222222223)"/><use xlink:href="#H" transform="matrix(1,0,0,1,1385,525) translate(200.87654320987653 181.40972222222223)"/><use xlink:href="#I" transform="matrix(1,0,0,1,1385,525) translate(18.012345679012356 218.74305555555557)"/><use xlink:href="#J" transform="matrix(1,0,0,1,1385,525) translate(43.93827160493828 218.74305555555557)"/><use xlink:href="#K" transform="matrix(1,0,0,1,1385,525) translate(133.64197530864197 218.74305555555557)"/><path d="M1242.42 580.4l2.73 1.18m3.65 1.58l5.47 2.37m3.64 1.58l5.48 2.38m3.64 1.57l5.47 2.37m3.63 1.58l5.47 2.37m3.64 1.58l5.47 2.37m3.65 1.57l5.47 2.36m3.64 1.58l5.47 2.37m3.64 1.6l5.47 2.36m3.64 1.58l5.47 2.37m3.65 1.58l5.46 2.37m3.65 1.58l5.47 2.37m3.65 1.58l5.46 2.37m3.65 1.57l5.46 2.37m3.64 1.57l5.46 2.37m3.65 1.58l2.73 1.18" stroke="#3a414a" stroke-width="2" fill="none"/><path d="M1242.83 579.5l-.77 1.8-.64-.27.1-1.03-.1-1.1zM1380 638.94v2.12l-1.33-.57.78-1.8z" stroke="#3a414a" stroke-width=".05" fill="#3a414a"/><path d="M500 726a6 6 0 0 1 6-6h268a6 6 0 0 1 6 6v148a6 6 0 0 1-6 6H506a6 6 0 0 1-6-6z" stroke="#000" stroke-opacity="0" stroke-width="3" fill="#fff" fill-opacity="0"/><g><use xlink:href="#L" transform="matrix(1,0,0,1,505,725) translate(8.26543209876543 29.57638888888889)"/><use xlink:href="#M" transform="matrix(1,0,0,1,505,725) translate(35.919753086419746 29.57638888888889)"/><use xlink:href="#N" transform="matrix(1,0,0,1,505,725) translate(208.41358024691357 29.57638888888889)"/><use xlink:href="#O" transform="matrix(1,0,0,1,505,725) translate(10.68518518518519 66.90972222222223)"/><use xlink:href="#P" transform="matrix(1,0,0,1,505,725) translate(134.9567901234568 66.90972222222223)"/><use xlink:href="#Q" transform="matrix(1,0,0,1,505,725) translate(52.98765432098766 104.24305555555556)"/><use xlink:href="#R" transform="matrix(1,0,0,1,505,725) translate(97.8395061728395 104.24305555555556)"/><use xlink:href="#S" transform="matrix(1,0,0,1,505,725) translate(13.320987654320987 141.57638888888889)"/><use xlink:href="#T" transform="matrix(1,0,0,1,505,725) translate(230.7530864197531 141.57638888888889)"/></g><path d="M781 760.17l2.9.5m3.86.67l5.8 1m3.88.66l5.8 1m3.87.67l5.82 1m3.87.66l5.8 1m3.86.67l5.8 1m3.88.67l5.8 1m3.88.66l5.8 1m3.87.67l5.8 1m3.87.66l5.8 1m3.87.67l2.9.5" stroke="#3a414a" stroke-width="2" fill="none"/><path d="M781.18 759.2l-.33 1.93-.85-.14v-2zM878.9 776.04l-.14.6-.1 1.34-1.1-.2.33-1.9z" stroke="#3a414a" stroke-width=".05" fill="#3a414a"/><path d="M1380 786a6 6 0 0 1 6-6h268a6 6 0 0 1 6 6v148a6 6 0 0 1-6 6h-268a6 6 0 0 1-6-6z" stroke="#000" stroke-opacity="0" stroke-width="3" fill="#fff" fill-opacity="0"/><g><use xlink:href="#U" transform="matrix(1,0,0,1,1385,785) translate(4.635802469135825 29.57638888888889)"/><use xlink:href="#V" transform="matrix(1,0,0,1,1385,785) translate(39.203703703703724 29.57638888888889)"/><use xlink:href="#W" transform="matrix(1,0,0,1,1385,785) translate(99.69753086419755 29.57638888888889)"/><use xlink:href="#X" transform="matrix(1,0,0,1,1385,785) translate(167.01851851851853 29.57638888888889)"/><use xlink:href="#Y" transform="matrix(1,0,0,1,1385,785) translate(232.61111111111111 29.57638888888889)"/><use xlink:href="#Z" transform="matrix(1,0,0,1,1385,785) translate(21.962962962962962 66.90972222222223)"/><use xlink:href="#E" transform="matrix(1,0,0,1,1385,785) translate(61.629629629629626 66.90972222222223)"/><use xlink:href="#aa" transform="matrix(1,0,0,1,1385,785) translate(158.2469135802469 66.90972222222223)"/><use xlink:href="#ab" transform="matrix(1,0,0,1,1385,785) translate(17.728395061728392 104.24305555555556)"/><use xlink:href="#ac" transform="matrix(1,0,0,1,1385,785) translate(128.17283950617283 104.24305555555556)"/><use xlink:href="#ad" transform="matrix(1,0,0,1,1385,785) translate(191.95061728395063 104.24305555555556)"/><use xlink:href="#ae" transform="matrix(1,0,0,1,1385,785) translate(37.47530864197532 141.57638888888889)"/><use xlink:href="#af" transform="matrix(1,0,0,1,1385,785) translate(168.7469135802469 141.57638888888889)"/></g><path d="M1159.2 871.43l3 .4m4 .54l6 .8m4 .53l6 .8m4 .54l5.98.8m4 .54l6 .8m4 .54l5.98.8m4 .54l6 .8m4 .53l5.98.8m4 .53l6 .8m4 .54l6 .8m3.98.54l6 .8m4 .55l6 .8m3.98.54l6 .8m4 .52l6 .8m4 .54l5.98.8m4 .54l6 .8m4 .54l5.98.8m4 .53l6 .8m4 .54l5.98.82m4 .53l6 .8m4 .54l6 .8m3.98.53l6 .8m4 .54l3 .4" stroke="#3a414a" stroke-width="2" fill="none"/><path d="M1159.37 870.47l-.26 1.93-1.44-.2 1.12-1.8zM1380 900.02v1.96l-1.15-.15.26-1.93z" stroke="#3a414a" stroke-width=".05" fill="#3a414a"/><defs><path d="M205 0l-28-72H64L36 0H1l101-248h38L239 0h-34zm-38-99l-47-123c-12 45-31 82-46 123h93" id="ag"/><path d="M85-194c31 0 48 13 60 33l-1-100h32l1 261h-30c-2-10 0-23-3-31C134-8 116 4 85 4 32 4 16-35 15-94c0-66 23-100 70-100zm9 24c-40 0-46 34-46 75 0 40 6 74 45 74 42 0 51-32 51-76 0-42-9-74-50-73" id="ah"/><path d="M141-36C126-15 110 5 73 4 37 3 15-17 15-53c-1-64 63-63 125-63 3-35-9-54-41-54-24 1-41 7-42 31l-33-3c5-37 33-52 76-52 45 0 72 20 72 64v82c-1 20 7 32 28 27v20c-31 9-61-2-59-35zM48-53c0 20 12 33 32 33 41-3 63-29 60-74-43 2-92-5-92 41" id="ai"/><path d="M115-194c55 1 70 41 70 98S169 2 115 4C84 4 66-9 55-30l1 105H24l-1-265h31l2 30c10-21 28-34 59-34zm-8 174c40 0 45-34 45-75s-6-73-45-74c-42 0-51 32-51 76 0 43 10 73 51 73" id="aj"/><path d="M59-47c-2 24 18 29 38 22v24C64 9 27 4 27-40v-127H5v-23h24l9-43h21v43h35v23H59v120" id="ak"/><path d="M100-194c63 0 86 42 84 106H49c0 40 14 67 53 68 26 1 43-12 49-29l28 8c-11 28-37 45-77 45C44 4 14-33 15-96c1-61 26-98 85-98zm52 81c6-60-76-77-97-28-3 7-6 17-6 28h103" id="al"/><path d="M114-163C36-179 61-72 57 0H25l-1-190h30c1 12-1 29 2 39 6-27 23-49 58-41v29" id="am"/><g id="a"><use transform="matrix(0.06790123456790124,0,0,0.06790123456790124,0,0)" xlink:href="#ag"/><use transform="matrix(0.06790123456790124,0,0,0.06790123456790124,16.296296296296298,0)" xlink:href="#ah"/><use transform="matrix(0.06790123456790124,0,0,0.06790123456790124,29.876543209876544,0)" xlink:href="#ai"/><use transform="matrix(0.06790123456790124,0,0,0.06790123456790124,43.45679012345679,0)" xlink:href="#aj"/><use transform="matrix(0.06790123456790124,0,0,0.06790123456790124,57.03703703703704,0)" xlink:href="#ak"/><use transform="matrix(0.06790123456790124,0,0,0.06790123456790124,63.827160493827165,0)" xlink:href="#al"/><use transform="matrix(0.06790123456790124,0,0,0.06790123456790124,77.40740740740742,0)" xlink:href="#am"/></g><path d="M212-179c-10-28-35-45-73-45-59 0-87 40-87 99 0 60 29 101 89 101 43 0 62-24 78-52l27 14C228-24 195 4 139 4 59 4 22-46 18-125c-6-104 99-153 187-111 19 9 31 26 39 46" id="an"/><path d="M24 0v-261h32V0H24" id="ao"/><g id="b"><use transform="matrix(0.06790123456790124,0,0,0.06790123456790124,0,0)" xlink:href="#an"/><use transform="matrix(0.06790123456790124,0,0,0.06790123456790124,17.58641975308642,0)" xlink:href="#al"/><use transform="matrix(0.06790123456790124,0,0,0.06790123456790124,31.16666666666667,0)" xlink:href="#ao"/><use transform="matrix(0.06790123456790124,0,0,0.06790123456790124,36.53086419753087,0)" xlink:href="#ao"/></g><path d="M143 4C61 4 22-44 18-125c-5-107 100-154 193-111 17 8 29 25 37 43l-32 9c-13-25-37-40-76-40-61 0-88 39-88 99 0 61 29 100 91 101 35 0 62-11 79-27v-45h-74v-28h105v86C228-13 192 4 143 4" id="ap"/><path d="M206 0h-36l-40-164L89 0H53L-1-190h32L70-26l43-164h34l41 164 42-164h31" id="aq"/><path d="M179-190L93 31C79 59 56 82 12 73V49c39 6 53-20 64-50L1-190h34L92-34l54-156h33" id="ar"/><g id="c"><use transform="matrix(0.06790123456790124,0,0,0.06790123456790124,0,0)" xlink:href="#ap"/><use transform="matrix(0.06790123456790124,0,0,0.06790123456790124,19.01234567901235,0)" xlink:href="#ai"/><use transform="matrix(0.06790123456790124,0,0,0.06790123456790124,32.592592592592595,0)" xlink:href="#ak"/><use transform="matrix(0.06790123456790124,0,0,0.06790123456790124,39.38271604938272,0)" xlink:href="#al"/><use transform="matrix(0.06790123456790124,0,0,0.06790123456790124,52.96296296296297,0)" xlink:href="#aq"/><use transform="matrix(0.06790123456790124,0,0,0.06790123456790124,70.5493827160494,0)" xlink:href="#ai"/><use transform="matrix(0.06790123456790124,0,0,0.06790123456790124,84.12962962962965,0)" xlink:href="#ar"/></g><linearGradient gradientUnits="userSpaceOnUse" id="d" x1="940" y1="780" x2="940" y2="640"><stop offset="19.2%" stop-color="#ced4db"/><stop offset="26.45%" stop-color="#fff"/><stop offset="45.29%" stop-color="#fff"/><stop offset="52.54%" stop-color="#cfe4ff"/><stop offset="73.91%" stop-color="#cfe4ff"/><stop offset="82.97%" stop-color="#c3f7c8"/></linearGradient><path d="M185-189c-5-48-123-54-124 2 14 75 158 14 163 119 3 78-121 87-175 55-17-10-28-26-33-46l33-7c5 56 141 63 141-1 0-78-155-14-162-118-5-82 145-84 179-34 5 7 8 16 11 25" id="as"/><path d="M84 4C-5 8 30-112 23-190h32v120c0 31 7 50 39 49 72-2 45-101 50-169h31l1 190h-30c-1-10 1-25-2-33-11 22-28 36-60 37" id="at"/><path d="M115-194c53 0 69 39 70 98 0 66-23 100-70 100C84 3 66-7 56-30L54 0H23l1-261h32v101c10-23 28-34 59-34zm-8 174c40 0 45-34 45-75 0-40-5-75-45-74-42 0-51 32-51 76 0 43 10 73 51 73" id="au"/><path d="M135-143c-3-34-86-38-87 0 15 53 115 12 119 90S17 21 10-45l28-5c4 36 97 45 98 0-10-56-113-15-118-90-4-57 82-63 122-42 12 7 21 19 24 35" id="av"/><path d="M108 0H70L1-190h34L89-25l56-165h34" id="aw"/><path d="M24-231v-30h32v30H24zM24 0v-190h32V0H24" id="ax"/><path d="M96-169c-40 0-48 33-48 73s9 75 48 75c24 0 41-14 43-38l32 2c-6 37-31 61-74 61-59 0-76-41-82-99-10-93 101-131 147-64 4 7 5 14 7 22l-32 3c-4-21-16-35-41-35" id="ay"/><g id="e"><use transform="matrix(0.06790123456790123,0,0,0.06790123456790123,0,0)" xlink:href="#as"/><use transform="matrix(0.06790123456790123,0,0,0.06790123456790123,16.296296296296294,0)" xlink:href="#at"/><use transform="matrix(0.06790123456790123,0,0,0.06790123456790123,29.87654320987654,0)" xlink:href="#au"/><use transform="matrix(0.06790123456790123,0,0,0.06790123456790123,43.456790123456784,0)" xlink:href="#av"/><use transform="matrix(0.06790123456790123,0,0,0.06790123456790123,55.67901234567901,0)" xlink:href="#al"/><use transform="matrix(0.06790123456790123,0,0,0.06790123456790123,69.25925925925925,0)" xlink:href="#am"/><use transform="matrix(0.06790123456790123,0,0,0.06790123456790123,77.33950617283949,0)" xlink:href="#aw"/><use transform="matrix(0.06790123456790123,0,0,0.06790123456790123,89.56172839506172,0)" xlink:href="#ax"/><use transform="matrix(0.06790123456790123,0,0,0.06790123456790123,94.92592592592592,0)" xlink:href="#ay"/><use transform="matrix(0.06790123456790123,0,0,0.06790123456790123,107.14814814814815,0)" xlink:href="#al"/></g><linearGradient gradientUnits="userSpaceOnUse" id="f" x1="1060" y1="780" x2="1060" y2="640"><stop offset="19.2%" stop-color="#ced4db"/><stop offset="26.45%" stop-color="#fff"/><stop offset="45.29%" stop-color="#fff"/><stop offset="52.54%" stop-color="#cfe4ff"/><stop offset="73.91%" stop-color="#cfe4ff"/><stop offset="82.97%" stop-color="#c3f7c8"/></linearGradient><linearGradient gradientUnits="userSpaceOnUse" id="g" x1="1180" y1="780" x2="1180" y2="640"><stop offset="19.2%" stop-color="#ced4db"/><stop offset="26.45%" stop-color="#fff"/><stop offset="45.29%" stop-color="#fff"/><stop offset="52.54%" stop-color="#cfe4ff"/><stop offset="73.91%" stop-color="#cfe4ff"/><stop offset="82.97%" stop-color="#c3f7c8"/></linearGradient><g id="h"><use transform="matrix(0.06790123456790123,0,0,0.06790123456790123,0,0)" xlink:href="#as"/><use transform="matrix(0.06790123456790123,0,0,0.06790123456790123,16.296296296296294,0)" xlink:href="#at"/><use transform="matrix(0.06790123456790123,0,0,0.06790123456790123,29.87654320987654,0)" xlink:href="#au"/><use transform="matrix(0.06790123456790123,0,0,0.06790123456790123,43.456790123456784,0)" xlink:href="#av"/><use transform="matrix(0.06790123456790123,0,0,0.06790123456790123,55.67901234567901,0)" xlink:href="#al"/><use transform="matrix(0.06790123456790123,0,0,0.06790123456790123,69.25925925925925,0)" xlink:href="#am"/><use transform="matrix(0.06790123456790123,0,0,0.06790123456790123,77.33950617283949,0)" xlink:href="#aw"/><use transform="matrix(0.06790123456790123,0,0,0.06790123456790123,89.56172839506172,0)" xlink:href="#ax"/><use transform="matrix(0.06790123456790123,0,0,0.06790123456790123,94.92592592592592,0)" xlink:href="#ay"/><use transform="matrix(0.06790123456790123,0,0,0.06790123456790123,107.14814814814815,0)" xlink:href="#al"/></g><linearGradient gradientUnits="userSpaceOnUse" id="i" x1="1020" y1="840" x2="1020" y2="880"><stop offset="56.52%" stop-color="#cfe4ff"/><stop offset="80.07%" stop-color="#ced4db"/></linearGradient><path d="M30-248c87 1 191-15 191 75 0 78-77 80-158 76V0H30v-248zm33 125c57 0 124 11 124-50 0-59-68-47-124-48v98" id="az"/><path d="M177-190C167-65 218 103 67 71c-23-6-38-20-44-43l32-5c15 47 100 32 89-28v-30C133-14 115 1 83 1 29 1 15-40 15-95c0-56 16-97 71-98 29-1 48 16 59 35 1-10 0-23 2-32h30zM94-22c36 0 50-32 50-73 0-42-14-75-50-75-39 0-46 34-46 75s6 73 46 73" id="aA"/><path d="M117-194c89-4 53 116 60 194h-32v-121c0-31-8-49-39-48C34-167 62-67 57 0H25l-1-190h30c1 10-1 24 2 32 11-22 29-35 61-36" id="aB"/><g id="j"><use transform="matrix(0.06790123456790124,0,0,0.06790123456790124,0,0)" xlink:href="#az"/><use transform="matrix(0.06790123456790124,0,0,0.06790123456790124,16.296296296296298,0)" xlink:href="#ao"/><use transform="matrix(0.06790123456790124,0,0,0.06790123456790124,21.660493827160497,0)" xlink:href="#at"/><use transform="matrix(0.06790123456790124,0,0,0.06790123456790124,35.24074074074075,0)" xlink:href="#aA"/><use transform="matrix(0.06790123456790124,0,0,0.06790123456790124,48.820987654320994,0)" xlink:href="#ax"/><use transform="matrix(0.06790123456790124,0,0,0.06790123456790124,54.18518518518519,0)" xlink:href="#aB"/></g><use transform="matrix(0.08641975308641975,0,0,0.08641975308641975,0,0)" xlink:href="#ag" id="k"/><path d="M125-24c46 0 70-25 89-51l25 16C214-24 183 4 123 4 8 4-5-146 60-208c32-50 158-61 191-5 5 7 9 14 11 22l-32 10c-9-28-33-43-69-43-74 0-108 51-108 125 0 46 24 75 72 75" id="aC"/><path d="M111-194c62-3 86 47 72 106H45c-7 38 6 69 45 68 27-1 43-14 53-32l24 11C152-15 129 4 87 4 38 3 12-23 12-71c0-70 32-119 99-123zm44 81c14-66-71-72-95-28-4 8-8 17-11 28h106" id="aD"/><path d="M6 0l50-261h32L37 0H6" id="aE"/><g id="l"><use transform="matrix(0.08641975308641975,0,0,0.08641975308641975,0,0)" xlink:href="#aC"/><use transform="matrix(0.08641975308641975,0,0,0.08641975308641975,22.382716049382715,0)" xlink:href="#aD"/><use transform="matrix(0.08641975308641975,0,0,0.08641975308641975,39.666666666666664,0)" xlink:href="#aE"/><use transform="matrix(0.08641975308641975,0,0,0.08641975308641975,46.49382716049382,0)" xlink:href="#aE"/></g><g id="m"><use transform="matrix(0.08641975308641975,0,0,0.08641975308641975,0,0)" xlink:href="#al"/><use transform="matrix(0.08641975308641975,0,0,0.08641975308641975,17.28395061728395,0)" xlink:href="#aB"/><use transform="matrix(0.08641975308641975,0,0,0.08641975308641975,34.5679012345679,0)" xlink:href="#ay"/><use transform="matrix(0.08641975308641975,0,0,0.08641975308641975,50.123456790123456,0)" xlink:href="#ai"/><use transform="matrix(0.08641975308641975,0,0,0.08641975308641975,67.4074074074074,0)" xlink:href="#aj"/><use transform="matrix(0.08641975308641975,0,0,0.08641975308641975,84.69135802469135,0)" xlink:href="#av"/><use transform="matrix(0.08641975308641975,0,0,0.08641975308641975,100.24691358024691,0)" xlink:href="#at"/><use transform="matrix(0.08641975308641975,0,0,0.08641975308641975,117.53086419753086,0)" xlink:href="#ao"/><use transform="matrix(0.08641975308641975,0,0,0.08641975308641975,124.35802469135801,0)" xlink:href="#ai"/><use transform="matrix(0.08641975308641975,0,0,0.08641975308641975,141.64197530864197,0)" xlink:href="#ak"/><use transform="matrix(0.08641975308641975,0,0,0.08641975308641975,150.28395061728395,0)" xlink:href="#al"/><use transform="matrix(0.08641975308641975,0,0,0.08641975308641975,167.5679012345679,0)" xlink:href="#av"/></g><g id="n"><use transform="matrix(0.08641975308641975,0,0,0.08641975308641975,0,0)" xlink:href="#av"/><use transform="matrix(0.08641975308641975,0,0,0.08641975308641975,15.555555555555555,0)" xlink:href="#al"/><use transform="matrix(0.08641975308641975,0,0,0.08641975308641975,32.839506172839506,0)" xlink:href="#aw"/><use transform="matrix(0.08641975308641975,0,0,0.08641975308641975,48.395061728395056,0)" xlink:href="#al"/><use transform="matrix(0.08641975308641975,0,0,0.08641975308641975,65.67901234567901,0)" xlink:href="#am"/><use transform="matrix(0.08641975308641975,0,0,0.08641975308641975,75.96296296296296,0)" xlink:href="#ai"/><use transform="matrix(0.08641975308641975,0,0,0.08641975308641975,93.24691358024691,0)" xlink:href="#ao"/></g><g id="o"><use transform="matrix(0.08641975308641975,0,0,0.08641975308641975,0,0)" xlink:href="#av"/><use transform="matrix(0.08641975308641975,0,0,0.08641975308641975,15.555555555555555,0)" xlink:href="#al"/><use transform="matrix(0.08641975308641975,0,0,0.08641975308641975,32.839506172839506,0)" xlink:href="#am"/><use transform="matrix(0.08641975308641975,0,0,0.08641975308641975,43.123456790123456,0)" xlink:href="#aw"/><use transform="matrix(0.08641975308641975,0,0,0.08641975308641975,58.679012345679006,0)" xlink:href="#ax"/><use transform="matrix(0.08641975308641975,0,0,0.08641975308641975,65.50617283950618,0)" xlink:href="#ay"/><use transform="matrix(0.08641975308641975,0,0,0.08641975308641975,81.06172839506173,0)" xlink:href="#al"/><use transform="matrix(0.08641975308641975,0,0,0.08641975308641975,98.3456790123457,0)" xlink:href="#av"/></g><path d="M106-169C34-169 62-67 57 0H25v-261h32l-1 103c12-21 28-36 61-36 89 0 53 116 60 194h-32v-121c2-32-8-49-39-48" id="aF"/><g id="p"><use transform="matrix(0.08641975308641975,0,0,0.08641975308641975,0,0)" xlink:href="#aq"/><use transform="matrix(0.08641975308641975,0,0,0.08641975308641975,22.382716049382715,0)" xlink:href="#aF"/><use transform="matrix(0.08641975308641975,0,0,0.08641975308641975,39.666666666666664,0)" xlink:href="#ax"/><use transform="matrix(0.08641975308641975,0,0,0.08641975308641975,46.49382716049382,0)" xlink:href="#ay"/><use transform="matrix(0.08641975308641975,0,0,0.08641975308641975,62.04938271604938,0)" xlink:href="#aF"/></g><g id="q"><use transform="matrix(0.08641975308641975,0,0,0.08641975308641975,0,0)" xlink:href="#ai"/><use transform="matrix(0.08641975308641975,0,0,0.08641975308641975,17.28395061728395,0)" xlink:href="#am"/><use transform="matrix(0.08641975308641975,0,0,0.08641975308641975,27.5679012345679,0)" xlink:href="#al"/></g><g id="r"><use transform="matrix(0.08641975308641975,0,0,0.08641975308641975,0,0)" xlink:href="#av"/><use transform="matrix(0.08641975308641975,0,0,0.08641975308641975,15.555555555555555,0)" xlink:href="#ay"/><use transform="matrix(0.08641975308641975,0,0,0.08641975308641975,31.11111111111111,0)" xlink:href="#ai"/><use transform="matrix(0.08641975308641975,0,0,0.08641975308641975,48.395061728395056,0)" xlink:href="#ao"/><use transform="matrix(0.08641975308641975,0,0,0.08641975308641975,55.22222222222222,0)" xlink:href="#al"/><use transform="matrix(0.08641975308641975,0,0,0.08641975308641975,72.50617283950618,0)" xlink:href="#ah"/></g><g id="s"><use transform="matrix(0.08641975308641975,0,0,0.08641975308641975,0,0)" xlink:href="#ai"/><use transform="matrix(0.08641975308641975,0,0,0.08641975308641975,17.28395061728395,0)" xlink:href="#aB"/><use transform="matrix(0.08641975308641975,0,0,0.08641975308641975,34.5679012345679,0)" xlink:href="#ah"/></g><path d="M100-194c62-1 85 37 85 99 1 63-27 99-86 99S16-35 15-95c0-66 28-99 85-99zM99-20c44 1 53-31 53-75 0-43-8-75-51-75s-53 32-53 75 10 74 51 75" id="aG"/><g id="t"><use transform="matrix(0.08641975308641975,0,0,0.08641975308641975,0,0)" xlink:href="#ah"/><use transform="matrix(0.08641975308641975,0,0,0.08641975308641975,17.28395061728395,0)" xlink:href="#al"/><use transform="matrix(0.08641975308641975,0,0,0.08641975308641975,34.5679012345679,0)" xlink:href="#aj"/><use transform="matrix(0.08641975308641975,0,0,0.08641975308641975,51.85185185185185,0)" xlink:href="#ao"/><use transform="matrix(0.08641975308641975,0,0,0.08641975308641975,58.679012345679006,0)" xlink:href="#aG"/><use transform="matrix(0.08641975308641975,0,0,0.08641975308641975,75.96296296296296,0)" xlink:href="#ar"/><use transform="matrix(0.08641975308641975,0,0,0.08641975308641975,91.51851851851852,0)" xlink:href="#al"/><use transform="matrix(0.08641975308641975,0,0,0.08641975308641975,108.80246913580247,0)" xlink:href="#ah"/></g><g id="u"><use transform="matrix(0.08641975308641975,0,0,0.08641975308641975,0,0)" xlink:href="#ak"/><use transform="matrix(0.08641975308641975,0,0,0.08641975308641975,8.641975308641975,0)" xlink:href="#aG"/><use transform="matrix(0.08641975308641975,0,0,0.08641975308641975,25.925925925925924,0)" xlink:href="#aA"/><use transform="matrix(0.08641975308641975,0,0,0.08641975308641975,43.20987654320987,0)" xlink:href="#al"/><use transform="matrix(0.08641975308641975,0,0,0.08641975308641975,60.49382716049382,0)" xlink:href="#ak"/><use transform="matrix(0.08641975308641975,0,0,0.08641975308641975,69.1358024691358,0)" xlink:href="#aF"/><use transform="matrix(0.08641975308641975,0,0,0.08641975308641975,86.41975308641975,0)" xlink:href="#al"/><use transform="matrix(0.08641975308641975,0,0,0.08641975308641975,103.7037037037037,0)" xlink:href="#am"/></g><path d="M127-220V0H93v-220H8v-28h204v28h-85" id="aH"/><g id="v"><use transform="matrix(0.08641975308641975,0,0,0.08641975308641975,0,0)" xlink:href="#aH"/><use transform="matrix(0.08641975308641975,0,0,0.08641975308641975,18.925925925925924,0)" xlink:href="#aF"/><use transform="matrix(0.08641975308641975,0,0,0.08641975308641975,36.20987654320987,0)" xlink:href="#al"/></g><g id="w"><use transform="matrix(0.08641975308641975,0,0,0.08641975308641975,0,0)" xlink:href="#aC"/><use transform="matrix(0.08641975308641975,0,0,0.08641975308641975,22.382716049382715,0)" xlink:href="#aD"/><use transform="matrix(0.08641975308641975,0,0,0.08641975308641975,39.666666666666664,0)" xlink:href="#aE"/><use transform="matrix(0.08641975308641975,0,0,0.08641975308641975,46.49382716049382,0)" xlink:href="#aE"/></g><path d="M52-101C46-14 166-7 216-51l9-45h-74l6-28h105l-18 87C217-12 181 4 130 4 60 4 18-31 18-101c0-106 78-167 188-146 30 6 48 27 59 54l-34 9c-10-26-31-41-67-40-75 1-107 50-112 123" id="aI"/><path d="M165-48c-4 18 1 34 23 27l-3 20c-29 8-62 0-52-35h-2C116-14 99 4 63 4 30 4 8-16 8-49c0-68 71-67 138-67 10-26 0-56-31-54-26 1-42 9-47 31l-32-5c8-67 160-71 144 15-5 28-9 54-15 81zM42-50c3 52 80 24 89-6 7-12 7-24 11-38-47 1-103-4-100 44" id="aJ"/><path d="M51-54c-9 22 5 41 31 30L79-1C43 14 10-4 19-52l22-115H19l5-23h22l19-43h21l-9 43h35l-4 23H73" id="aK"/><path d="M188 0h-37l-8-164L71 0H34L18-190h31l8 164 75-164h34l8 164 74-164h31" id="aL"/><path d="M198-190L69 30C53 58 25 83-20 72c4-11-1-27 19-22 33-1 43-29 59-52L20-190h32L79-34l84-156h35" id="aM"/><g id="x"><use transform="matrix(0.08641975308641975,0,0,0.08641975308641975,0,0)" xlink:href="#aI"/><use transform="matrix(0.08641975308641975,0,0,0.08641975308641975,24.197530864197528,0)" xlink:href="#aJ"/><use transform="matrix(0.08641975308641975,0,0,0.08641975308641975,41.48148148148148,0)" xlink:href="#aK"/><use transform="matrix(0.08641975308641975,0,0,0.08641975308641975,50.123456790123456,0)" xlink:href="#aD"/><use transform="matrix(0.08641975308641975,0,0,0.08641975308641975,67.4074074074074,0)" xlink:href="#aL"/><use transform="matrix(0.08641975308641975,0,0,0.08641975308641975,89.79012345679011,0)" xlink:href="#aJ"/><use transform="matrix(0.08641975308641975,0,0,0.08641975308641975,107.07407407407406,0)" xlink:href="#aM"/></g><g id="y"><use transform="matrix(0.08641975308641975,0,0,0.08641975308641975,0,0)" xlink:href="#aF"/><use transform="matrix(0.08641975308641975,0,0,0.08641975308641975,17.28395061728395,0)" xlink:href="#ax"/><use transform="matrix(0.08641975308641975,0,0,0.08641975308641975,24.111111111111104,0)" xlink:href="#ah"/><use transform="matrix(0.08641975308641975,0,0,0.08641975308641975,41.395061728395056,0)" xlink:href="#al"/><use transform="matrix(0.08641975308641975,0,0,0.08641975308641975,58.679012345679006,0)" xlink:href="#av"/></g><g id="z"><use transform="matrix(0.08641975308641975,0,0,0.08641975308641975,0,0)" xlink:href="#ak"/><use transform="matrix(0.08641975308641975,0,0,0.08641975308641975,8.641975308641975,0)" xlink:href="#aF"/><use transform="matrix(0.08641975308641975,0,0,0.08641975308641975,25.925925925925924,0)" xlink:href="#al"/></g><path d="M47-170H22l-4-78h33" id="aN"/><g id="A"><use transform="matrix(0.08641975308641975,0,0,0.08641975308641975,0,0)" xlink:href="#aC"/><use transform="matrix(0.08641975308641975,0,0,0.08641975308641975,22.382716049382715,0)" xlink:href="#aD"/><use transform="matrix(0.08641975308641975,0,0,0.08641975308641975,39.666666666666664,0)" xlink:href="#aE"/><use transform="matrix(0.08641975308641975,0,0,0.08641975308641975,46.49382716049382,0)" xlink:href="#aE"/><use transform="matrix(0.08641975308641975,0,0,0.08641975308641975,53.32098765432099,0)" xlink:href="#aN"/><use transform="matrix(0.08641975308641975,0,0,0.08641975308641975,59.197530864197525,0)" xlink:href="#av"/></g><g id="B"><use transform="matrix(0.08641975308641975,0,0,0.08641975308641975,0,0)" xlink:href="#ay"/><use transform="matrix(0.08641975308641975,0,0,0.08641975308641975,15.555555555555555,0)" xlink:href="#aG"/><use transform="matrix(0.08641975308641975,0,0,0.08641975308641975,32.839506172839506,0)" xlink:href="#aB"/><use transform="matrix(0.08641975308641975,0,0,0.08641975308641975,50.123456790123456,0)" xlink:href="#ak"/><use transform="matrix(0.08641975308641975,0,0,0.08641975308641975,58.76543209876543,0)" xlink:href="#al"/><use transform="matrix(0.08641975308641975,0,0,0.08641975308641975,76.04938271604938,0)" xlink:href="#aB"/><use transform="matrix(0.08641975308641975,0,0,0.08641975308641975,93.33333333333333,0)" xlink:href="#ak"/><use transform="matrix(0.08641975308641975,0,0,0.08641975308641975,101.9753086419753,0)" xlink:href="#av"/></g><path d="M101-234c-31-9-42 10-38 44h38v23H63V0H32v-167H5v-23h27c-7-52 17-82 69-68v24" id="aO"/><path d="M210-169c-67 3-38 105-44 169h-31v-121c0-29-5-50-35-48C34-165 62-65 56 0H25l-1-190h30c1 10-1 24 2 32 10-44 99-50 107 0 11-21 27-35 58-36 85-2 47 119 55 194h-31v-121c0-29-5-49-35-48" id="aP"/><g id="C"><use transform="matrix(0.08641975308641975,0,0,0.08641975308641975,0,0)" xlink:href="#aO"/><use transform="matrix(0.08641975308641975,0,0,0.08641975308641975,8.641975308641975,0)" xlink:href="#am"/><use transform="matrix(0.08641975308641975,0,0,0.08641975308641975,18.925925925925924,0)" xlink:href="#aG"/><use transform="matrix(0.08641975308641975,0,0,0.08641975308641975,36.20987654320987,0)" xlink:href="#aP"/></g><g id="D"><use transform="matrix(0.08641975308641975,0,0,0.08641975308641975,0,0)" xlink:href="#ax"/><use transform="matrix(0.08641975308641975,0,0,0.08641975308641975,6.82716049382716,0)" xlink:href="#ak"/><use transform="matrix(0.08641975308641975,0,0,0.08641975308641975,15.469135802469134,0)" xlink:href="#av"/></g><g id="E"><use transform="matrix(0.08641975308641975,0,0,0.08641975308641975,0,0)" xlink:href="#ay"/><use transform="matrix(0.08641975308641975,0,0,0.08641975308641975,15.555555555555555,0)" xlink:href="#ao"/><use transform="matrix(0.08641975308641975,0,0,0.08641975308641975,22.382716049382715,0)" xlink:href="#ax"/><use transform="matrix(0.08641975308641975,0,0,0.08641975308641975,29.209876543209877,0)" xlink:href="#al"/><use transform="matrix(0.08641975308641975,0,0,0.08641975308641975,46.49382716049382,0)" xlink:href="#aB"/><use transform="matrix(0.08641975308641975,0,0,0.08641975308641975,63.77777777777777,0)" xlink:href="#ak"/><use transform="matrix(0.08641975308641975,0,0,0.08641975308641975,72.41975308641975,0)" xlink:href="#av"/></g><g id="F"><use transform="matrix(0.08641975308641975,0,0,0.08641975308641975,0,0)" xlink:href="#aq"/><use transform="matrix(0.08641975308641975,0,0,0.08641975308641975,22.382716049382715,0)" xlink:href="#aF"/><use transform="matrix(0.08641975308641975,0,0,0.08641975308641975,39.666666666666664,0)" xlink:href="#ax"/><use transform="matrix(0.08641975308641975,0,0,0.08641975308641975,46.49382716049382,0)" xlink:href="#ay"/><use transform="matrix(0.08641975308641975,0,0,0.08641975308641975,62.04938271604938,0)" xlink:href="#aF"/></g><g id="G"><use transform="matrix(0.08641975308641975,0,0,0.08641975308641975,0,0)" xlink:href="#ak"/><use transform="matrix(0.08641975308641975,0,0,0.08641975308641975,8.641975308641975,0)" xlink:href="#am"/><use transform="matrix(0.08641975308641975,0,0,0.08641975308641975,18.925925925925924,0)" xlink:href="#al"/><use transform="matrix(0.08641975308641975,0,0,0.08641975308641975,36.20987654320987,0)" xlink:href="#ai"/><use transform="matrix(0.08641975308641975,0,0,0.08641975308641975,53.49382716049382,0)" xlink:href="#ak"/></g><g id="H"><use transform="matrix(0.08641975308641975,0,0,0.08641975308641975,0,0)" xlink:href="#ai"/><use transform="matrix(0.08641975308641975,0,0,0.08641975308641975,17.28395061728395,0)" xlink:href="#av"/></g><use transform="matrix(0.08641975308641975,0,0,0.08641975308641975,0,0)" xlink:href="#ai" id="I"/><g id="J"><use transform="matrix(0.08641975308641975,0,0,0.08641975308641975,0,0)" xlink:href="#av"/><use transform="matrix(0.08641975308641975,0,0,0.08641975308641975,15.555555555555555,0)" xlink:href="#ax"/><use transform="matrix(0.08641975308641975,0,0,0.08641975308641975,22.382716049382715,0)" xlink:href="#aB"/><use transform="matrix(0.08641975308641975,0,0,0.08641975308641975,39.666666666666664,0)" xlink:href="#aA"/><use transform="matrix(0.08641975308641975,0,0,0.08641975308641975,56.95061728395061,0)" xlink:href="#ao"/><use transform="matrix(0.08641975308641975,0,0,0.08641975308641975,63.77777777777777,0)" xlink:href="#al"/></g><g id="K"><use transform="matrix(0.08641975308641975,0,0,0.08641975308641975,0,0)" xlink:href="#av"/><use transform="matrix(0.08641975308641975,0,0,0.08641975308641975,15.555555555555555,0)" xlink:href="#al"/><use transform="matrix(0.08641975308641975,0,0,0.08641975308641975,32.839506172839506,0)" xlink:href="#am"/><use transform="matrix(0.08641975308641975,0,0,0.08641975308641975,43.123456790123456,0)" xlink:href="#aw"/><use transform="matrix(0.08641975308641975,0,0,0.08641975308641975,58.679012345679006,0)" xlink:href="#ax"/><use transform="matrix(0.08641975308641975,0,0,0.08641975308641975,65.50617283950618,0)" xlink:href="#ay"/><use transform="matrix(0.08641975308641975,0,0,0.08641975308641975,81.06172839506173,0)" xlink:href="#al"/></g><use transform="matrix(0.08641975308641975,0,0,0.08641975308641975,0,0)" xlink:href="#ag" id="L"/><path d="M16-82v-28h88v28H16" id="aQ"/><g id="M"><use transform="matrix(0.08641975308641975,0,0,0.08641975308641975,0,0)" xlink:href="#aO"/><use transform="matrix(0.08641975308641975,0,0,0.08641975308641975,8.641975308641975,0)" xlink:href="#at"/><use transform="matrix(0.08641975308641975,0,0,0.08641975308641975,25.925925925925924,0)" xlink:href="#ao"/><use transform="matrix(0.08641975308641975,0,0,0.08641975308641975,32.75308641975308,0)" xlink:href="#ao"/><use transform="matrix(0.08641975308641975,0,0,0.08641975308641975,39.58024691358024,0)" xlink:href="#aQ"/><use transform="matrix(0.08641975308641975,0,0,0.08641975308641975,49.86419753086418,0)" xlink:href="#aO"/><use transform="matrix(0.08641975308641975,0,0,0.08641975308641975,58.506172839506156,0)" xlink:href="#al"/><use transform="matrix(0.08641975308641975,0,0,0.08641975308641975,75.79012345679011,0)" xlink:href="#ai"/><use transform="matrix(0.08641975308641975,0,0,0.08641975308641975,93.07407407407406,0)" xlink:href="#ak"/><use transform="matrix(0.08641975308641975,0,0,0.08641975308641975,101.71604938271605,0)" xlink:href="#at"/><use transform="matrix(0.08641975308641975,0,0,0.08641975308641975,119,0)" xlink:href="#am"/><use transform="matrix(0.08641975308641975,0,0,0.08641975308641975,129.28395061728395,0)" xlink:href="#al"/><use transform="matrix(0.08641975308641975,0,0,0.08641975308641975,146.5679012345679,0)" xlink:href="#ah"/></g><g id="N"><use transform="matrix(0.08641975308641975,0,0,0.08641975308641975,0,0)" xlink:href="#aC"/><use transform="matrix(0.08641975308641975,0,0,0.08641975308641975,22.382716049382715,0)" xlink:href="#aD"/><use transform="matrix(0.08641975308641975,0,0,0.08641975308641975,39.666666666666664,0)" xlink:href="#aE"/><use transform="matrix(0.08641975308641975,0,0,0.08641975308641975,46.49382716049382,0)" xlink:href="#aE"/></g><g id="O"><use transform="matrix(0.08641975308641975,0,0,0.08641975308641975,0,0)" xlink:href="#al"/><use transform="matrix(0.08641975308641975,0,0,0.08641975308641975,17.28395061728395,0)" xlink:href="#aP"/><use transform="matrix(0.08641975308641975,0,0,0.08641975308641975,43.123456790123456,0)" xlink:href="#aj"/><use transform="matrix(0.08641975308641975,0,0,0.08641975308641975,60.407407407407405,0)" xlink:href="#ao"/><use transform="matrix(0.08641975308641975,0,0,0.08641975308641975,67.23456790123457,0)" xlink:href="#aG"/><use transform="matrix(0.08641975308641975,0,0,0.08641975308641975,84.51851851851852,0)" xlink:href="#ar"/><use transform="matrix(0.08641975308641975,0,0,0.08641975308641975,100.07407407407406,0)" xlink:href="#av"/></g><path d="M187 0l-14-72H61L19 0h-37l149-248h38L221 0h-34zm-19-99l-22-123L76-99h92" id="aR"/><path d="M133-28C103 26-5 8 13-77c13-62 24-115 90-117 29-1 46 15 56 35l19-102h32L160 0h-30zM45-64c-2 27 10 43 35 43 54-1 69-50 69-103 0-29-15-46-42-46-53-1-58 58-62 106" id="aS"/><path d="M67-162c32-53 139-36 121 50C175-51 163 2 97 4 68 4 52-11 42-31 38 6 28 39 22 75H-9l50-265h29c-1 10 0 20-3 28zm89 36c0-26-10-43-35-43-54 0-67 50-69 103-1 29 14 45 42 46 53 0 62-58 62-106" id="aT"/><path d="M66-151c12-25 30-51 66-40l-6 26C45-176 58-65 38 0H6l36-190h30" id="aU"/><path d="M55-144c13 50 104 24 104 88C159 21 15 23 1-39l26-10c6 40 102 42 102-4-13-50-104-23-104-87 0-71 143-71 148-8l-29 4c-5-35-85-37-89 0" id="aV"/><g id="P"><use transform="matrix(0.08641975308641975,0,0,0.08641975308641975,0,0)" xlink:href="#aR"/><use transform="matrix(0.08641975308641975,0,0,0.08641975308641975,20.74074074074074,0)" xlink:href="#aS"/><use transform="matrix(0.08641975308641975,0,0,0.08641975308641975,38.02469135802469,0)" xlink:href="#aJ"/><use transform="matrix(0.08641975308641975,0,0,0.08641975308641975,55.30864197530864,0)" xlink:href="#aT"/><use transform="matrix(0.08641975308641975,0,0,0.08641975308641975,72.59259259259258,0)" xlink:href="#aK"/><use transform="matrix(0.08641975308641975,0,0,0.08641975308641975,81.23456790123456,0)" xlink:href="#aD"/><use transform="matrix(0.08641975308641975,0,0,0.08641975308641975,98.51851851851852,0)" xlink:href="#aU"/><use transform="matrix(0.08641975308641975,0,0,0.08641975308641975,108.80246913580247,0)" xlink:href="#aV"/></g><g id="Q"><use transform="matrix(0.08641975308641975,0,0,0.08641975308641975,0,0)" xlink:href="#aO"/><use transform="matrix(0.08641975308641975,0,0,0.08641975308641975,8.641975308641975,0)" xlink:href="#aG"/><use transform="matrix(0.08641975308641975,0,0,0.08641975308641975,25.925925925925924,0)" xlink:href="#am"/></g><g id="R"><use transform="matrix(0.08641975308641975,0,0,0.08641975308641975,0,0)" xlink:href="#aG"/><use transform="matrix(0.08641975308641975,0,0,0.08641975308641975,17.28395061728395,0)" xlink:href="#at"/><use transform="matrix(0.08641975308641975,0,0,0.08641975308641975,34.5679012345679,0)" xlink:href="#ak"/><use transform="matrix(0.08641975308641975,0,0,0.08641975308641975,43.20987654320987,0)" xlink:href="#aA"/><use transform="matrix(0.08641975308641975,0,0,0.08641975308641975,60.49382716049382,0)" xlink:href="#aG"/><use transform="matrix(0.08641975308641975,0,0,0.08641975308641975,77.77777777777777,0)" xlink:href="#ax"/><use transform="matrix(0.08641975308641975,0,0,0.08641975308641975,84.60493827160494,0)" xlink:href="#aB"/><use transform="matrix(0.08641975308641975,0,0,0.08641975308641975,101.88888888888889,0)" xlink:href="#aA"/></g><g id="S"><use transform="matrix(0.08641975308641975,0,0,0.08641975308641975,0,0)" xlink:href="#ay"/><use transform="matrix(0.08641975308641975,0,0,0.08641975308641975,15.555555555555555,0)" xlink:href="#aG"/><use transform="matrix(0.08641975308641975,0,0,0.08641975308641975,32.839506172839506,0)" xlink:href="#aP"/><use transform="matrix(0.08641975308641975,0,0,0.08641975308641975,58.679012345679006,0)" xlink:href="#aP"/><use transform="matrix(0.08641975308641975,0,0,0.08641975308641975,84.51851851851852,0)" xlink:href="#at"/><use transform="matrix(0.08641975308641975,0,0,0.08641975308641975,101.80246913580247,0)" xlink:href="#aB"/><use transform="matrix(0.08641975308641975,0,0,0.08641975308641975,119.08641975308642,0)" xlink:href="#ax"/><use transform="matrix(0.08641975308641975,0,0,0.08641975308641975,125.91358024691357,0)" xlink:href="#ay"/><use transform="matrix(0.08641975308641975,0,0,0.08641975308641975,141.46913580246914,0)" xlink:href="#ai"/><use transform="matrix(0.08641975308641975,0,0,0.08641975308641975,158.7530864197531,0)" xlink:href="#ak"/><use transform="matrix(0.08641975308641975,0,0,0.08641975308641975,167.39506172839506,0)" xlink:href="#ax"/><use transform="matrix(0.08641975308641975,0,0,0.08641975308641975,174.22222222222223,0)" xlink:href="#aG"/><use transform="matrix(0.08641975308641975,0,0,0.08641975308641975,191.50617283950615,0)" xlink:href="#aB"/></g><path d="M33 0v-38h34V0H33" id="aW"/><g id="T"><use transform="matrix(0.08641975308641975,0,0,0.08641975308641975,0,0)" xlink:href="#aW"/><use transform="matrix(0.08641975308641975,0,0,0.08641975308641975,8.641975308641975,0)" xlink:href="#aW"/><use transform="matrix(0.08641975308641975,0,0,0.08641975308641975,17.28395061728395,0)" xlink:href="#aW"/></g><g id="U"><use transform="matrix(0.08641975308641975,0,0,0.08641975308641975,0,0)" xlink:href="#aW"/><use transform="matrix(0.08641975308641975,0,0,0.08641975308641975,8.641975308641975,0)" xlink:href="#aW"/><use transform="matrix(0.08641975308641975,0,0,0.08641975308641975,17.28395061728395,0)" xlink:href="#aW"/></g><g id="V"><use transform="matrix(0.08641975308641975,0,0,0.08641975308641975,0,0)" xlink:href="#ai"/><use transform="matrix(0.08641975308641975,0,0,0.08641975308641975,17.28395061728395,0)" xlink:href="#aB"/><use transform="matrix(0.08641975308641975,0,0,0.08641975308641975,34.5679012345679,0)" xlink:href="#ah"/></g><g id="W"><use transform="matrix(0.08641975308641975,0,0,0.08641975308641975,0,0)" xlink:href="#aP"/><use transform="matrix(0.08641975308641975,0,0,0.08641975308641975,25.839506172839506,0)" xlink:href="#ai"/><use transform="matrix(0.08641975308641975,0,0,0.08641975308641975,43.123456790123456,0)" xlink:href="#ar"/></g><g id="X"><use transform="matrix(0.08641975308641975,0,0,0.08641975308641975,0,0)" xlink:href="#ai"/><use transform="matrix(0.08641975308641975,0,0,0.08641975308641975,17.28395061728395,0)" xlink:href="#ao"/><use transform="matrix(0.08641975308641975,0,0,0.08641975308641975,24.111111111111104,0)" xlink:href="#av"/><use transform="matrix(0.08641975308641975,0,0,0.08641975308641975,39.666666666666664,0)" xlink:href="#aG"/></g><g id="Y"><use transform="matrix(0.08641975308641975,0,0,0.08641975308641975,0,0)" xlink:href="#ao"/><use transform="matrix(0.08641975308641975,0,0,0.08641975308641975,6.82716049382716,0)" xlink:href="#al"/><use transform="matrix(0.08641975308641975,0,0,0.08641975308641975,24.111111111111104,0)" xlink:href="#ak"/></g><g id="Z"><use transform="matrix(0.08641975308641975,0,0,0.08641975308641975,0,0)" xlink:href="#ax"/><use transform="matrix(0.08641975308641975,0,0,0.08641975308641975,6.82716049382716,0)" xlink:href="#ak"/><use transform="matrix(0.08641975308641975,0,0,0.08641975308641975,15.469135802469134,0)" xlink:href="#av"/></g><g id="aa"><use transform="matrix(0.08641975308641975,0,0,0.08641975308641975,0,0)" xlink:href="#av"/><use transform="matrix(0.08641975308641975,0,0,0.08641975308641975,15.555555555555555,0)" xlink:href="#at"/><use transform="matrix(0.08641975308641975,0,0,0.08641975308641975,32.839506172839506,0)" xlink:href="#aj"/><use transform="matrix(0.08641975308641975,0,0,0.08641975308641975,50.123456790123456,0)" xlink:href="#aj"/><use transform="matrix(0.08641975308641975,0,0,0.08641975308641975,67.4074074074074,0)" xlink:href="#ao"/><use transform="matrix(0.08641975308641975,0,0,0.08641975308641975,74.23456790123457,0)" xlink:href="#ar"/></g><path d="M238-179c0 84-86 86-175 82L45 0H11l48-248c82 0 179-12 179 69zm-34 1c0-53-64-42-116-43l-19 98c63 0 135 9 135-55" id="aX"/><path d="M67 3c-93-2-31-127-26-193h32L48-50c-3 39 53 32 70 12 30-34 30-101 43-152h32L157 0h-30c1-10 6-24 4-33-14 20-29 37-64 36" id="aY"/><path d="M103-194c29 0 47 14 56 36 2-11 5-23 8-32h30L160-5C157 61 82 97 21 62 9 55 4 45 1 30l28-7c7 42 83 31 92-3 4-16 9-38 13-55-13 20-29 36-62 36-40 0-60-25-60-64 0-71 23-131 91-131zm4 24c-53 0-58 54-61 104-2 27 10 44 36 44 49 0 65-50 67-102 1-29-15-46-42-46" id="aZ"/><path d="M50-231l6-30h32l-6 30H50zM6 0l37-190h31L37 0H6" id="ba"/><path d="M67-158c22-48 132-52 116 29L158 0h-32l25-140c3-38-53-32-70-12C52-117 51-52 38 0H6l36-190h30" id="bb"/><g id="ab"><use transform="matrix(0.08641975308641975,0,0,0.08641975308641975,0,0)" xlink:href="#aX"/><use transform="matrix(0.08641975308641975,0,0,0.08641975308641975,20.74074074074074,0)" xlink:href="#aE"/><use transform="matrix(0.08641975308641975,0,0,0.08641975308641975,27.5679012345679,0)" xlink:href="#aY"/><use transform="matrix(0.08641975308641975,0,0,0.08641975308641975,44.85185185185185,0)" xlink:href="#aZ"/><use transform="matrix(0.08641975308641975,0,0,0.08641975308641975,62.1358024691358,0)" xlink:href="#ba"/><use transform="matrix(0.08641975308641975,0,0,0.08641975308641975,68.96296296296296,0)" xlink:href="#bb"/><use transform="matrix(0.08641975308641975,0,0,0.08641975308641975,86.24691358024691,0)" xlink:href="#aV"/></g><g id="ac"><use transform="matrix(0.08641975308641975,0,0,0.08641975308641975,0,0)" xlink:href="#aq"/><use transform="matrix(0.08641975308641975,0,0,0.08641975308641975,22.382716049382715,0)" xlink:href="#ax"/><use transform="matrix(0.08641975308641975,0,0,0.08641975308641975,29.209876543209877,0)" xlink:href="#ak"/><use transform="matrix(0.08641975308641975,0,0,0.08641975308641975,37.85185185185185,0)" xlink:href="#aF"/></g><g id="ad"><use transform="matrix(0.08641975308641975,0,0,0.08641975308641975,0,0)" xlink:href="#ak"/><use transform="matrix(0.08641975308641975,0,0,0.08641975308641975,8.641975308641975,0)" xlink:href="#aF"/><use transform="matrix(0.08641975308641975,0,0,0.08641975308641975,25.925925925925924,0)" xlink:href="#al"/><use transform="matrix(0.08641975308641975,0,0,0.08641975308641975,43.20987654320987,0)" xlink:href="#ax"/><use transform="matrix(0.08641975308641975,0,0,0.08641975308641975,50.03703703703703,0)" xlink:href="#am"/></g><g id="ae"><use transform="matrix(0.08641975308641975,0,0,0.08641975308641975,0,0)" xlink:href="#au"/><use transform="matrix(0.08641975308641975,0,0,0.08641975308641975,17.28395061728395,0)" xlink:href="#at"/><use transform="matrix(0.08641975308641975,0,0,0.08641975308641975,34.5679012345679,0)" xlink:href="#av"/><use transform="matrix(0.08641975308641975,0,0,0.08641975308641975,50.123456790123456,0)" xlink:href="#ax"/><use transform="matrix(0.08641975308641975,0,0,0.08641975308641975,56.95061728395061,0)" xlink:href="#aB"/><use transform="matrix(0.08641975308641975,0,0,0.08641975308641975,74.23456790123456,0)" xlink:href="#al"/><use transform="matrix(0.08641975308641975,0,0,0.08641975308641975,91.51851851851852,0)" xlink:href="#av"/><use transform="matrix(0.08641975308641975,0,0,0.08641975308641975,107.07407407407406,0)" xlink:href="#av"/></g><g id="af"><use transform="matrix(0.08641975308641975,0,0,0.08641975308641975,0,0)" xlink:href="#ao"/><use transform="matrix(0.08641975308641975,0,0,0.08641975308641975,6.82716049382716,0)" xlink:href="#aG"/><use transform="matrix(0.08641975308641975,0,0,0.08641975308641975,24.111111111111104,0)" xlink:href="#aA"/><use transform="matrix(0.08641975308641975,0,0,0.08641975308641975,41.395061728395056,0)" xlink:href="#ax"/><use transform="matrix(0.08641975308641975,0,0,0.08641975308641975,48.22222222222221,0)" xlink:href="#ay"/></g></defs></g></svg>