<svg xmlns="http://www.w3.org/2000/svg" xmlns:xlink="http://www.w3.org/1999/xlink" xmlns:lucid="lucid" width="1240.5" height="243"><g transform="translate(-161.0000909265279 -598.5)" lucid:page-tab-id="0_0"><path d="M600 705a6 6 0 0 1 6-6h42a6 6 0 0 0 6-6v-8a2.3 2.3 0 0 1 4-1.54l28 31.08a6.67 6.67 0 0 1 0 8.92l-28 31.08a2.3 2.3 0 0 1-4-1.54v-8a6 6 0 0 0-6-6h-42a6 6 0 0 1-6-6z" fill="#fc9432"/><path d="M1200 645a6 6 0 0 1 6-6h188a6 6 0 0 1 6 6v148a6 6 0 0 1-6 6h-188a6 6 0 0 1-6-6z" stroke="#000" stroke-opacity="0" stroke-width="3" fill="#fff" fill-opacity="0"/><use xlink:href="#a" transform="matrix(1,0,0,1,1205,644) translate(4.518518518518519 29.576388888888893)"/><use xlink:href="#b" transform="matrix(1,0,0,1,1205,644) translate(8.666666666666657 66.90972222222223)"/><use xlink:href="#c" transform="matrix(1,0,0,1,1205,644) translate(131.20987654320987 66.90972222222223)"/><use xlink:href="#d" transform="matrix(1,0,0,1,1205,644) translate(27.722222222222214 104.24305555555557)"/><use xlink:href="#e" transform="matrix(1,0,0,1,1205,644) translate(70.9320987654321 104.24305555555557)"/><use xlink:href="#f" transform="matrix(1,0,0,1,1205,644) translate(134.70987654320987 104.24305555555557)"/><use xlink:href="#g" transform="matrix(1,0,0,1,1205,644) translate(42.37037037037037 141.5763888888889)"/><path d="M1102.5 719h2.9m3.86 0h5.8m3.85 0h5.8m3.86 0h5.8m3.85 0h5.8m3.86 0h5.8m3.85 0h5.8m3.86 0h5.78m3.87 0h5.8m3.86 0h5.78m3.87 0h2.9" stroke="#3a414a" stroke-width="2" fill="none"/><path d="M1102.53 719.98h-1.03V718h1.03zM1200 719.98h-1.03V718h1.03z" stroke="#3a414a" stroke-width=".05" fill="#3a414a"/><path d="M162.5 700a20 20 0 0 1 20-20h80a20 20 0 0 1 20 20v40a20 20 0 0 1-20 20h-80a20 20 0 0 1-20-20z" stroke="#000" stroke-width="3" fill="url(#h)"/><use xlink:href="#i" transform="matrix(1,0,0,1,167.5000909265279,685.0000321637431) translate(46.85185185185185 39.24305555555556)"/><path d="M340 700a20 20 0 0 1 20-20h20a20 20 0 0 1 20 20v40a20 20 0 0 1-20 20h-20a20 20 0 0 1-20-20z" stroke="#000" stroke-width="3" fill="url(#j)"/><use xlink:href="#k" transform="matrix(1,0,0,1,345.0000469298244,685.0000241228073) translate(16.85185185185185 39.24305555555556)"/><path d="M440 700a20 20 0 0 1 20-20h20a20 20 0 0 1 20 20v40a20 20 0 0 1-20 20h-20a20 20 0 0 1-20-20z" stroke="#000" stroke-width="3" fill="url(#l)"/><use xlink:href="#m" transform="matrix(1,0,0,1,445,685.0000080409358) translate(16.20679012345679 39.24305555555556)"/><path d="M470 762.5V780" stroke="#000" stroke-width="2" fill="none"/><path d="M470.98 762.53h-1.96v-1.03h1.96z" stroke="#000" stroke-width=".05"/><path d="M470 795.26L465.37 781h9.26z" stroke="#000" stroke-width="2"/><path d="M162.5 820a20 20 0 0 1 20-20H480a20 20 0 0 1 20 20 20 20 0 0 1-20 20H182.5a20 20 0 0 1-20-20z" stroke="#000" stroke-width="3" fill="#ced4db"/><use xlink:href="#n" transform="matrix(1,0,0,1,167.5000909265279,805) translate(137.73648148148146 21.430555555555557)"/><path d="M370 762.5V780" stroke="#000" stroke-width="2" fill="none"/><path d="M370.98 762.53h-1.96v-1.03h1.96z" stroke="#000" stroke-width=".05"/><path d="M370 795.26L365.37 781h9.26z" stroke="#000" stroke-width="2"/><path d="M222.5 762.5V780" stroke="#000" stroke-width="2" fill="none"/><path d="M223.47 762.53h-1.94v-1.03h1.94z" stroke="#000" stroke-width=".05"/><path d="M222.5 795.26L217.87 781h9.26z" stroke="#000" stroke-width="2"/><path d="M162.5 620a20 20 0 0 1 20-20H480a20 20 0 0 1 20 20 20 20 0 0 1-20 20H182.5a20 20 0 0 1-20-20z" stroke="#000" stroke-width="3" fill="url(#o)"/><use xlink:href="#p" transform="matrix(1,0,0,1,167.5000909265279,605) translate(105.85685185185183 21.430555555555557)"/><path d="M222.5 642.5V660" stroke="#000" stroke-width="2" fill="none"/><path d="M223.47 642.53h-1.94v-1.03h1.94z" stroke="#000" stroke-width=".05"/><path d="M222.5 675.26L217.87 661h9.26z" stroke="#000" stroke-width="2"/><path d="M370 642.5V660" stroke="#000" stroke-width="2" fill="none"/><path d="M370.98 642.53h-1.96v-1.03h1.96z" stroke="#000" stroke-width=".05"/><path d="M370 675.26L365.37 661h9.26z" stroke="#000" stroke-width="2"/><path d="M470 642.5V660" stroke="#000" stroke-width="2" fill="none"/><path d="M470.98 642.53h-1.96v-1.03h1.96z" stroke="#000" stroke-width=".05"/><path d="M470 675.26L465.37 661h9.26z" stroke="#000" stroke-width="2"/><path d="M760 700a20 20 0 0 1 20-20h40a20 20 0 0 1 20 20v40a20 20 0 0 1-20 20h-40a20 20 0 0 1-20-20z" stroke="#000" stroke-width="3" fill="url(#q)"/><use xlink:href="#r" transform="matrix(1,0,0,1,765,685.0000241228073) translate(20.061728395061728 39.24305555555556)"/><path d="M880 700a20 20 0 0 1 20-20h40a20 20 0 0 1 20 20v40a20 20 0 0 1-20 20h-40a20 20 0 0 1-20-20z" stroke="#000" stroke-width="3" fill="url(#s)"/><use xlink:href="#t" transform="matrix(1,0,0,1,885,685.0000160818715) translate(20.061728395061728 39.24305555555556)"/><path d="M1020 699a20 20 0 0 1 20-20h40a20 20 0 0 1 20 20v40a20 20 0 0 1-20 20h-40a20 20 0 0 1-20-20z" stroke="#000" stroke-width="3" fill="url(#u)"/><use xlink:href="#v" transform="matrix(1,0,0,1,1025,684.0000160818715) translate(18.05864197530864 39.24305555555556)"/><path d="M1060 761.5V780" stroke="#000" stroke-width="2" fill="none"/><path d="M1060.97 761.53h-1.94v-1.03h1.94z" stroke="#000" stroke-width=".05"/><path d="M1060 795.26l-4.63-14.26h9.27z" stroke="#000" stroke-width="2"/><path d="M760 820a20 20 0 0 1 20-20h300a20 20 0 0 1 20 20 20 20 0 0 1-20 20H780a20 20 0 0 1-20-20z" stroke="#000" stroke-width="3" fill="#ced4db"/><use xlink:href="#n" transform="matrix(1,0,0,1,765,805.0000080409358) translate(139.23648148148146 21.430555555555557)"/><path d="M920 762.5V780" stroke="#000" stroke-width="2" fill="none"/><path d="M920.98 762.53H919v-1.03H921z" stroke="#000" stroke-width=".05"/><path d="M920 795.26L915.37 781h9.26z" stroke="#000" stroke-width="2"/><path d="M800 762.5V780" stroke="#000" stroke-width="2" fill="none"/><path d="M800.98 762.53H799v-1.03H801z" stroke="#000" stroke-width=".05"/><path d="M800 795.26L795.37 781h9.26z" stroke="#000" stroke-width="2"/><path d="M760 620a20 20 0 0 1 20-20h300a20 20 0 0 1 20 20 20 20 0 0 1-20 20H780a20 20 0 0 1-20-20z" stroke="#000" stroke-width="3" fill="url(#w)"/><use xlink:href="#p" transform="matrix(1,0,0,1,765,605.0000080409358) translate(107.35685185185183 21.430555555555557)"/><path d="M800 642.5V660" stroke="#000" stroke-width="2" fill="none"/><path d="M800.98 642.53H799v-1.03H801z" stroke="#000" stroke-width=".05"/><path d="M800 675.26L795.37 661h9.26z" stroke="#000" stroke-width="2"/><path d="M920 642.5V660" stroke="#000" stroke-width="2" fill="none"/><path d="M920.98 642.53H919v-1.03H921z" stroke="#000" stroke-width=".05"/><path d="M920 675.26L915.37 661h9.26z" stroke="#000" stroke-width="2"/><path d="M1060 642.5V659" stroke="#000" stroke-width="2" fill="none"/><path d="M1060.97 642.53h-1.94v-1.03h1.94z" stroke="#000" stroke-width=".05"/><path d="M1060 674.26l-4.63-14.26h9.27z" stroke="#000" stroke-width="2"/><path d="M222.5 679.5v9m0 9v18m0 9v18m0 9v9" stroke="#fc9432" stroke-width="2" fill="none"/><path d="M223.47 679.53h-1.94v-1.03h1.94zM223.47 761.5h-1.94v-1.03h1.94z" stroke="#fc9432" stroke-width=".05" fill="#fc9432"/><path d="M402.5 701H420" stroke="#000" stroke-width="2" fill="none"/><path d="M402.53 701.98h-1.03V700h1.03z" stroke="#000" stroke-width=".05"/><path d="M435.26 701L421 705.63v-9.26z" stroke="#000" stroke-width="2"/><path d="M437.58 741.03h-17.65" stroke="#000" stroke-width="2" fill="none"/><path d="M438.5 740.06l.15 1.95h-1.1v-1.94h.95z" stroke="#000" stroke-width=".05"/><path d="M404.66 741.03l14.26-4.63v9.27z" stroke="#000" stroke-width="2"/><defs><path d="M30-248c118-7 216 8 213 122C240-48 200 0 122 0H30v-248zM63-27c89 8 146-16 146-99s-60-101-146-95v194" id="x"/><path d="M100-194c62-1 85 37 85 99 1 63-27 99-86 99S16-35 15-95c0-66 28-99 85-99zM99-20c44 1 53-31 53-75 0-43-8-75-51-75s-53 32-53 75 10 74 51 75" id="y"/><path d="M210-169c-67 3-38 105-44 169h-31v-121c0-29-5-50-35-48C34-165 62-65 56 0H25l-1-190h30c1 10-1 24 2 32 10-44 99-50 107 0 11-21 27-35 58-36 85-2 47 119 55 194h-31v-121c0-29-5-49-35-48" id="z"/><path d="M141-36C126-15 110 5 73 4 37 3 15-17 15-53c-1-64 63-63 125-63 3-35-9-54-41-54-24 1-41 7-42 31l-33-3c5-37 33-52 76-52 45 0 72 20 72 64v82c-1 20 7 32 28 27v20c-31 9-61-2-59-35zM48-53c0 20 12 33 32 33 41-3 63-29 60-74-43 2-92-5-92 41" id="A"/><path d="M24-231v-30h32v30H24zM24 0v-190h32V0H24" id="B"/><path d="M117-194c89-4 53 116 60 194h-32v-121c0-31-8-49-39-48C34-167 62-67 57 0H25l-1-190h30c1 10-1 24 2 32 11-22 29-35 61-36" id="C"/><path d="M16-82v-28h88v28H16" id="D"/><path d="M24 0v-261h32V0H24" id="E"/><path d="M100-194c63 0 86 42 84 106H49c0 40 14 67 53 68 26 1 43-12 49-29l28 8c-11 28-37 45-77 45C44 4 14-33 15-96c1-61 26-98 85-98zm52 81c6-60-76-77-97-28-3 7-6 17-6 28h103" id="F"/><path d="M108 0H70L1-190h34L89-25l56-165h34" id="G"/><g id="a"><use transform="matrix(0.08641975308641976,0,0,0.08641975308641976,0,0)" xlink:href="#x"/><use transform="matrix(0.08641975308641976,0,0,0.08641975308641976,22.38271604938272,0)" xlink:href="#y"/><use transform="matrix(0.08641975308641976,0,0,0.08641975308641976,39.66666666666667,0)" xlink:href="#z"/><use transform="matrix(0.08641975308641976,0,0,0.08641975308641976,65.50617283950618,0)" xlink:href="#A"/><use transform="matrix(0.08641975308641976,0,0,0.08641975308641976,82.79012345679013,0)" xlink:href="#B"/><use transform="matrix(0.08641975308641976,0,0,0.08641975308641976,89.61728395061729,0)" xlink:href="#C"/><use transform="matrix(0.08641975308641976,0,0,0.08641975308641976,106.90123456790124,0)" xlink:href="#D"/><use transform="matrix(0.08641975308641976,0,0,0.08641975308641976,117.18518518518519,0)" xlink:href="#E"/><use transform="matrix(0.08641975308641976,0,0,0.08641975308641976,124.01234567901236,0)" xlink:href="#F"/><use transform="matrix(0.08641975308641976,0,0,0.08641975308641976,141.2962962962963,0)" xlink:href="#G"/><use transform="matrix(0.08641975308641976,0,0,0.08641975308641976,156.85185185185185,0)" xlink:href="#F"/><use transform="matrix(0.08641975308641976,0,0,0.08641975308641976,174.1358024691358,0)" xlink:href="#E"/></g><path d="M135-143c-3-34-86-38-87 0 15 53 115 12 119 90S17 21 10-45l28-5c4 36 97 45 98 0-10-56-113-15-118-90-4-57 82-63 122-42 12 7 21 19 24 35" id="H"/><path d="M114-163C36-179 61-72 57 0H25l-1-190h30c1 12-1 29 2 39 6-27 23-49 58-41v29" id="I"/><path d="M96-169c-40 0-48 33-48 73s9 75 48 75c24 0 41-14 43-38l32 2c-6 37-31 61-74 61-59 0-76-41-82-99-10-93 101-131 147-64 4 7 5 14 7 22l-32 3c-4-21-16-35-41-35" id="J"/><g id="b"><use transform="matrix(0.08641975308641976,0,0,0.08641975308641976,0,0)" xlink:href="#H"/><use transform="matrix(0.08641975308641976,0,0,0.08641975308641976,15.555555555555557,0)" xlink:href="#F"/><use transform="matrix(0.08641975308641976,0,0,0.08641975308641976,32.839506172839506,0)" xlink:href="#I"/><use transform="matrix(0.08641975308641976,0,0,0.08641975308641976,43.123456790123456,0)" xlink:href="#G"/><use transform="matrix(0.08641975308641976,0,0,0.08641975308641976,58.679012345679006,0)" xlink:href="#B"/><use transform="matrix(0.08641975308641976,0,0,0.08641975308641976,65.50617283950618,0)" xlink:href="#J"/><use transform="matrix(0.08641975308641976,0,0,0.08641975308641976,81.06172839506173,0)" xlink:href="#F"/><use transform="matrix(0.08641975308641976,0,0,0.08641975308641976,98.34567901234568,0)" xlink:href="#H"/></g><g id="c"><use transform="matrix(0.08641975308641976,0,0,0.08641975308641976,0,0)" xlink:href="#J"/><use transform="matrix(0.08641975308641976,0,0,0.08641975308641976,15.555555555555557,0)" xlink:href="#A"/><use transform="matrix(0.08641975308641976,0,0,0.08641975308641976,32.839506172839506,0)" xlink:href="#C"/></g><path d="M115-194c53 0 69 39 70 98 0 66-23 100-70 100C84 3 66-7 56-30L54 0H23l1-261h32v101c10-23 28-34 59-34zm-8 174c40 0 45-34 45-75 0-40-5-75-45-74-42 0-51 32-51 76 0 43 10 73 51 73" id="K"/><g id="d"><use transform="matrix(0.08641975308641976,0,0,0.08641975308641976,0,0)" xlink:href="#K"/><use transform="matrix(0.08641975308641976,0,0,0.08641975308641976,17.283950617283953,0)" xlink:href="#F"/></g><path d="M115-194c55 1 70 41 70 98S169 2 115 4C84 4 66-9 55-30l1 105H24l-1-265h31l2 30c10-21 28-34 59-34zm-8 174c40 0 45-34 45-75s-6-73-45-74c-42 0-51 32-51 76 0 43 10 73 51 73" id="L"/><path d="M59-47c-2 24 18 29 38 22v24C64 9 27 4 27-40v-127H5v-23h24l9-43h21v43h35v23H59v120" id="M"/><g id="e"><use transform="matrix(0.08641975308641976,0,0,0.08641975308641976,0,0)" xlink:href="#H"/><use transform="matrix(0.08641975308641976,0,0,0.08641975308641976,15.555555555555557,0)" xlink:href="#L"/><use transform="matrix(0.08641975308641976,0,0,0.08641975308641976,32.839506172839506,0)" xlink:href="#E"/><use transform="matrix(0.08641975308641976,0,0,0.08641975308641976,39.66666666666667,0)" xlink:href="#B"/><use transform="matrix(0.08641975308641976,0,0,0.08641975308641976,46.49382716049383,0)" xlink:href="#M"/></g><g id="f"><use transform="matrix(0.08641975308641976,0,0,0.08641975308641976,0,0)" xlink:href="#y"/><use transform="matrix(0.08641975308641976,0,0,0.08641975308641976,17.283950617283953,0)" xlink:href="#I"/></g><path d="M177-190C167-65 218 103 67 71c-23-6-38-20-44-43l32-5c15 47 100 32 89-28v-30C133-14 115 1 83 1 29 1 15-40 15-95c0-56 16-97 71-98 29-1 48 16 59 35 1-10 0-23 2-32h30zM94-22c36 0 50-32 50-73 0-42-14-75-50-75-39 0-46 34-46 75s6 73 46 73" id="N"/><path d="M85-194c31 0 48 13 60 33l-1-100h32l1 261h-30c-2-10 0-23-3-31C134-8 116 4 85 4 32 4 16-35 15-94c0-66 23-100 70-100zm9 24c-40 0-46 34-46 75 0 40 6 74 45 74 42 0 51-32 51-76 0-42-9-74-50-73" id="O"/><g id="g"><use transform="matrix(0.08641975308641976,0,0,0.08641975308641976,0,0)" xlink:href="#z"/><use transform="matrix(0.08641975308641976,0,0,0.08641975308641976,25.83950617283951,0)" xlink:href="#F"/><use transform="matrix(0.08641975308641976,0,0,0.08641975308641976,43.12345679012346,0)" xlink:href="#I"/><use transform="matrix(0.08641975308641976,0,0,0.08641975308641976,53.40740740740741,0)" xlink:href="#N"/><use transform="matrix(0.08641975308641976,0,0,0.08641975308641976,70.69135802469137,0)" xlink:href="#F"/><use transform="matrix(0.08641975308641976,0,0,0.08641975308641976,87.97530864197532,0)" xlink:href="#O"/></g><linearGradient gradientUnits="userSpaceOnUse" id="h" x1="162.5" y1="760" x2="162.5" y2="680"><stop offset="19.93%" stop-color="#fff"/><stop offset="27.17%" stop-color="#cfe4ff"/></linearGradient><path d="M205 0l-28-72H64L36 0H1l101-248h38L239 0h-34zm-38-99l-47-123c-12 45-31 82-46 123h93" id="P"/><use transform="matrix(0.06790123456790124,0,0,0.06790123456790124,0,0)" xlink:href="#P" id="i"/><linearGradient gradientUnits="userSpaceOnUse" id="j" x1="340" y1="760" x2="340" y2="680"><stop offset="19.93%" stop-color="#fff"/><stop offset="27.17%" stop-color="#cfe4ff"/></linearGradient><path d="M160-131c35 5 61 23 61 61C221 17 115-2 30 0v-248c76 3 177-17 177 60 0 33-19 50-47 57zm-97-11c50-1 110 9 110-42 0-47-63-36-110-37v79zm0 115c55-2 124 14 124-45 0-56-70-42-124-44v89" id="Q"/><use transform="matrix(0.06790123456790124,0,0,0.06790123456790124,0,0)" xlink:href="#Q" id="k"/><linearGradient gradientUnits="userSpaceOnUse" id="l" x1="440" y1="760" x2="440" y2="680"><stop offset="19.93%" stop-color="#fff"/><stop offset="27.17%" stop-color="#cfe4ff"/></linearGradient><path d="M212-179c-10-28-35-45-73-45-59 0-87 40-87 99 0 60 29 101 89 101 43 0 62-24 78-52l27 14C228-24 195 4 139 4 59 4 22-46 18-125c-6-104 99-153 187-111 19 9 31 26 39 46" id="R"/><use transform="matrix(0.06790123456790124,0,0,0.06790123456790124,0,0)" xlink:href="#R" id="m"/><g id="n"><use transform="matrix(0.06790123456790124,0,0,0.06790123456790124,0,0)" xlink:href="#x"/><use transform="matrix(0.06790123456790124,0,0,0.06790123456790124,17.58641975308642,0)" xlink:href="#A"/><use transform="matrix(0.06790123456790124,0,0,0.06790123456790124,31.16666666666667,0)" xlink:href="#M"/><use transform="matrix(0.06790123456790124,0,0,0.06790123456790124,37.9567901234568,0)" xlink:href="#A"/></g><linearGradient gradientUnits="userSpaceOnUse" id="o" x1="162.5" y1="600" x2="162.5" y2="640"><stop offset="31.52%" stop-color="#fff"/><stop offset="62.68%" stop-color="#c3f7c8"/></linearGradient><path d="M33 0v-248h34V0H33" id="S"/><g id="p"><use transform="matrix(0.06790123456790124,0,0,0.06790123456790124,0,0)" xlink:href="#S"/><use transform="matrix(0.06790123456790124,0,0,0.06790123456790124,6.790123456790124,0)" xlink:href="#C"/><use transform="matrix(0.06790123456790124,0,0,0.06790123456790124,20.370370370370374,0)" xlink:href="#M"/><use transform="matrix(0.06790123456790124,0,0,0.06790123456790124,27.160493827160497,0)" xlink:href="#F"/><use transform="matrix(0.06790123456790124,0,0,0.06790123456790124,40.74074074074075,0)" xlink:href="#N"/><use transform="matrix(0.06790123456790124,0,0,0.06790123456790124,54.320987654320994,0)" xlink:href="#I"/><use transform="matrix(0.06790123456790124,0,0,0.06790123456790124,62.40123456790124,0)" xlink:href="#A"/><use transform="matrix(0.06790123456790124,0,0,0.06790123456790124,75.9814814814815,0)" xlink:href="#M"/><use transform="matrix(0.06790123456790124,0,0,0.06790123456790124,82.77160493827162,0)" xlink:href="#B"/><use transform="matrix(0.06790123456790124,0,0,0.06790123456790124,88.13580246913583,0)" xlink:href="#y"/><use transform="matrix(0.06790123456790124,0,0,0.06790123456790124,101.71604938271608,0)" xlink:href="#C"/></g><linearGradient gradientUnits="userSpaceOnUse" id="q" x1="760" y1="760" x2="760" y2="680"><stop offset="19.93%" stop-color="#fff"/><stop offset="27.17%" stop-color="#cfe4ff"/></linearGradient><path d="M27 0v-27h64v-190l-56 39v-29l58-41h29v221h61V0H27" id="T"/><g id="r"><use transform="matrix(0.06790123456790124,0,0,0.06790123456790124,0,0)" xlink:href="#P"/><use transform="matrix(0.06790123456790124,0,0,0.06790123456790124,16.296296296296298,0)" xlink:href="#T"/></g><linearGradient gradientUnits="userSpaceOnUse" id="s" x1="880" y1="760" x2="880" y2="680"><stop offset="19.93%" stop-color="#fff"/><stop offset="27.17%" stop-color="#cfe4ff"/></linearGradient><path d="M101-251c82-7 93 87 43 132L82-64C71-53 59-42 53-27h129V0H18c2-99 128-94 128-182 0-28-16-43-45-43s-46 15-49 41l-32-3c6-41 34-60 81-64" id="U"/><g id="t"><use transform="matrix(0.06790123456790124,0,0,0.06790123456790124,0,0)" xlink:href="#P"/><use transform="matrix(0.06790123456790124,0,0,0.06790123456790124,16.296296296296298,0)" xlink:href="#U"/></g><linearGradient gradientUnits="userSpaceOnUse" id="u" x1="1020" y1="759" x2="1020" y2="679"><stop offset="19.93%" stop-color="#fff"/><stop offset="27.17%" stop-color="#cfe4ff"/></linearGradient><g id="v"><use transform="matrix(0.06790123456790124,0,0,0.06790123456790124,0,0)" xlink:href="#Q"/><use transform="matrix(0.06790123456790124,0,0,0.06790123456790124,16.296296296296298,0)" xlink:href="#R"/></g><linearGradient gradientUnits="userSpaceOnUse" id="w" x1="760" y1="600" x2="760" y2="640"><stop offset="31.52%" stop-color="#fff"/><stop offset="62.68%" stop-color="#c3f7c8"/></linearGradient></defs></g></svg>