<svg xmlns="http://www.w3.org/2000/svg" xmlns:xlink="http://www.w3.org/1999/xlink" xmlns:lucid="lucid" width="1253" height="264"><g transform="translate(-378.5 -558.5)" lucid:page-tab-id="0_0"><path d="M860 780a20 20 0 0 1 20-20h20a20 20 0 0 1 20 20 20 20 0 0 1-20 20h-20a20 20 0 0 1-20-20z" stroke="#9391ff" stroke-width="3" fill="#cfe4ff"/><use xlink:href="#a" transform="matrix(1,0,0,1,865,765) translate(8.708703703703703 21.430555555555557)"/><path d="M720 780a20 20 0 0 1 20-20h20a20 20 0 0 1 20 20 20 20 0 0 1-20 20h-20a20 20 0 0 1-20-20z" stroke="#00c2a8" stroke-width="3" fill="#cfe4ff"/><use xlink:href="#b" transform="matrix(1,0,0,1,725,765) translate(8.708703703703703 21.430555555555557)"/><path d="M680 580a20 20 0 0 1 20-20h200a20 20 0 0 1 20 20v120a20 20 0 0 1-20 20H700a20 20 0 0 1-20-20z" stroke="#000" stroke-width="3" fill="url(#c)"/><use xlink:href="#d" transform="matrix(1,0,0,1,685,565) translate(81.38271604938271 81.13888888888889)"/><path d="M680 800a20 20 0 0 1 20-20h20a20 20 0 0 1 20 20 20 20 0 0 1-20 20h-20a20 20 0 0 1-20-20z" stroke="#54c45e" stroke-width="3" fill="#cfe4ff"/><use xlink:href="#e" transform="matrix(1,0,0,1,685,785) translate(9.625370370370371 21.430555555555557)"/><path d="M820 800a20 20 0 0 1 20-20h20a20 20 0 0 1 20 20 20 20 0 0 1-20 20h-20a20 20 0 0 1-20-20z" stroke="#6db1ff" stroke-width="3" fill="#cfe4ff"/><use xlink:href="#f" transform="matrix(1,0,0,1,825,785) translate(8.708703703703703 21.430555555555557)"/><path d="M863.87 738.96l-13.54 38.6" stroke="#1071e5" stroke-width="2" fill="none"/><path d="M868.93 724.55l-.35 15-8.75-3.07z" stroke="#1071e5" stroke-width="2" fill="#fff"/><path d="M851.26 777.86l-.23.64h-2.06l.45-1.3z" stroke="#1071e5" stroke-width=".05" fill="#1071e5"/><path d="M724.87 738.96l-13.54 38.6" stroke="#008a0e" stroke-width="2" fill="none"/><path d="M729.93 724.55l-.35 15-8.75-3.07z" stroke="#008a0e" stroke-width="2" fill="#fff"/><path d="M712.26 777.86l-.23.64h-2.06l.45-1.3z" stroke="#008a0e" stroke-width=".05" fill="#008a0e"/><path d="M380 566a6 6 0 0 1 6-6h208a6 6 0 0 1 6 6v108a6 6 0 0 1-6 6H386a6 6 0 0 1-6-6z" stroke="#000" stroke-opacity="0" stroke-width="3" fill="#fff" fill-opacity="0"/><use xlink:href="#g" transform="matrix(1,0,0,1,385,565) translate(49.77777777777777 28.357638888888893)"/><use xlink:href="#h" transform="matrix(1,0,0,1,385,565) translate(77.4320987654321 28.357638888888893)"/><use xlink:href="#i" transform="matrix(1,0,0,1,385,565) translate(4.061728395061721 65.69097222222223)"/><use xlink:href="#j" transform="matrix(1,0,0,1,385,565) translate(171.37037037037038 65.69097222222223)"/><use xlink:href="#k" transform="matrix(1,0,0,1,385,565) translate(2.2037037037036953 103.02430555555557)"/><use xlink:href="#l" transform="matrix(1,0,0,1,385,565) translate(60.96913580246913 103.02430555555557)"/><use xlink:href="#m" transform="matrix(1,0,0,1,385,565) translate(95.53703703703704 103.02430555555557)"/><use xlink:href="#n" transform="matrix(1,0,0,1,385,565) translate(147.3888888888889 103.02430555555557)"/><path d="M703.5 720h53M703.6 720H700M756.4 720h3.6" stroke="#008a0e" stroke-width="7" fill="none"/><path d="M843.5 720h53M843.6 720H840M896.4 720h3.6" stroke="#1071e5" stroke-width="7" fill="none"/><path d="M738.8 737.78l10.72 19.84" stroke="#008a0e" stroke-width="2" fill="none"/><path d="M731.54 724.35l10.86 10.34-8.15 4.4z" stroke="#008a0e" stroke-width="2" fill="#fff"/><path d="M751.1 758.5h-2.2l-.25-.44 1.72-.93z" stroke="#008a0e" stroke-width=".05" fill="#008a0e"/><path d="M878.8 737.78l10.72 19.84" stroke="#1071e5" stroke-width="2" fill="none"/><path d="M871.54 724.35l10.86 10.34-8.15 4.4z" stroke="#1071e5" stroke-width="2" fill="#fff"/><path d="M891.1 758.5h-2.2l-.25-.44 1.72-.93z" stroke="#1071e5" stroke-width=".05" fill="#1071e5"/><path d="M600.92 666.22l2.75 1.14m3.66 1.53l5.5 2.28m3.65 1.52l5.5 2.3m3.66 1.52l5.5 2.28m3.65 1.53l5.5 2.3m3.65 1.5l5.5 2.3m3.65 1.53l5.5 2.3m3.65 1.5l5.5 2.3m3.66 1.53l5.5 2.27m3.66 1.53l5.5 2.3m3.66 1.5l5.5 2.3m3.65 1.53l5.5 2.3m3.65 1.5l5.5 2.3m3.66 1.53l5.5 2.3m3.65 1.5l2.75 1.15" stroke="#000" stroke-width="2" fill="none"/><path d="M601.32 665.33l-.75 1.8-.57-.24v-2.12z" stroke="#000" stroke-width=".05"/><path d="M729.05 719.6l.95.4" stroke="#000" stroke-width="2" fill="none"/><path d="M380 705a6 6 0 0 1 6-6h208a6 6 0 0 1 6 6v110a6 6 0 0 1-6 6H386a6 6 0 0 1-6-6z" stroke="#000" stroke-opacity="0" stroke-width="3" fill="#fff" fill-opacity="0"/><use xlink:href="#o" transform="matrix(1,0,0,1,385,704) translate(52.37037037037037 28.420138888888893)"/><use xlink:href="#p" transform="matrix(1,0,0,1,385,704) translate(9.203703703703695 65.75347222222223)"/><use xlink:href="#q" transform="matrix(1,0,0,1,385,704) translate(116.19135802469135 65.75347222222223)"/><use xlink:href="#r" transform="matrix(1,0,0,1,385,704) translate(11.709876543209859 103.08680555555557)"/><use xlink:href="#s" transform="matrix(1,0,0,1,385,704) translate(63.56172839506172 103.08680555555557)"/><use xlink:href="#t" transform="matrix(1,0,0,1,385,704) translate(148.16666666666669 103.08680555555557)"/><path d="M601 760.17l2.93.5m3.93.65l5.9 1m3.92.65l5.9 1m3.92.65l5.9 1m3.92.66l5.9 1m3.92.65l5.9 1m3.92.65l5.9 1m3.92.65l5.9 1m3.93.65l5.9 1m3.93.65l5.9 1m3.92.66l5.9.98m3.92.66l2.94.5" stroke="#000" stroke-width="2" fill="none"/><path d="M601.17 759.2l-.32 1.93-.85-.14v-2zM713.12 778.04l-.08.46h-4.08l.2-1.13z" stroke="#000" stroke-width=".05"/><path d="M601 758.5h2.96m3.95 0h5.93m3.94 0h5.92m3.94 0h5.92m3.95 0h5.93m3.94 0h5.92m3.94 0h5.92m3.95 0h5.93m3.94 0h5.92m3.94 0h5.92m3.95 0h5.93m3.94 0h5.92m3.94 0h5.92m3.95 0h5.93m3.94 0h5.92m3.94 0H749" stroke="#000" stroke-width="2" fill="none"/><path d="M601.03 759.48H600v-1.96h1.03zM753 758.5h-4.03v-.98H753z" stroke="#000" stroke-width=".05"/><path d="M1020.86 581a20 20 0 0 1 20-20H1240a20 20 0 0 1 20 20v60a20 20 0 0 1-20 20h-199.14a20 20 0 0 1-20-20z" stroke="#000" stroke-width="3" fill="url(#u)"/><use xlink:href="#v" transform="matrix(1,0,0,1,1025.8547802122775,566) translate(81.38271604938271 50.20138888888889)"/><path d="M1210.38 681l-.36 17.5" stroke="#1071e5" stroke-width="2" fill="none"/><path d="M1210.7 665.74l4.34 14.35-9.27-.2z" stroke="#1071e5" stroke-width="2" fill="#fff"/><path d="M1211 698.5l-.03 1h-1.94l.02-1.05z" stroke="#1071e5" stroke-width=".05" fill="#1071e5"/><path d="M1069.6 681l.38 17.5" stroke="#008a0e" stroke-width="2" fill="none"/><path d="M1069.3 665.74l4.92 14.16-9.26.2z" stroke="#008a0e" stroke-width="2" fill="#fff"/><path d="M1070.97 699.5h-1.94l-.03-1 1.95-.05z" stroke="#008a0e" stroke-width=".05" fill="#008a0e"/><path d="M1040 721a20 20 0 0 1 20-20h20a20 20 0 0 1 20 20 20 20 0 0 1-20 20h-20a20 20 0 0 1-20-20z" stroke="#000" stroke-width="3" fill="url(#w)" transform="matrix(-1,1.2246467991473532e-16,-1.2246467991473532e-16,-1,2140,1442)"/><use xlink:href="#x" transform="matrix(1,-2.4492935982947064e-16,2.4492935982947064e-16,1,1045.0000000000002,706) translate(1.91858024691358 19.555555555555557)"/><path d="M1180 721a20 20 0 0 1 20-20h20a20 20 0 0 1 20 20 20 20 0 0 1-20 20h-20a20 20 0 0 1-20-20z" stroke="#000" stroke-width="3" fill="url(#y)" transform="matrix(-1,1.2246467991473532e-16,-1.2246467991473532e-16,-1,2420,1442)"/><use xlink:href="#z" transform="matrix(1,-2.4492935982947064e-16,2.4492935982947064e-16,1,1185.0000000000002,705.9999999999999) translate(1.91858024691358 19.555555555555557)"/><path d="M1120 801a20 20 0 0 1-20 20h-59.15a20 20 0 0 1-20-20 20 20 0 0 1 20-20H1100a20 20 0 0 1 20 20z" stroke="#ba23f6" stroke-width="3" fill="#dfe3e8"/><use xlink:href="#A" transform="matrix(1,-2.4492935982947064e-16,2.4492935982947064e-16,1,1025.8547802122785,786) translate(16.020432098765433 21.430555555555557)"/><use xlink:href="#B" transform="matrix(1,-2.4492935982947064e-16,2.4492935982947064e-16,1,1025.8547802122785,786) translate(56.69327160493827 21.430555555555557)"/><path d="M1260 801a20 20 0 0 1-20 20h-59.15a20 20 0 0 1-20-20 20 20 0 0 1 20-20H1240a20 20 0 0 1 20 20z" stroke="#82755b" stroke-width="3" fill="#fff"/><use xlink:href="#C" transform="matrix(1,-2.4492935982947064e-16,2.4492935982947064e-16,1,1165.854780212278,785.9999999999999) translate(16.699444444444445 21.430555555555557)"/><use xlink:href="#D" transform="matrix(1,-2.4492935982947064e-16,2.4492935982947064e-16,1,1165.854780212278,785.9999999999999) translate(56.014259259259255 21.430555555555557)"/><path d="M1070.67 762.5v-19" stroke="#ba23f6" stroke-width="2" fill="none"/><path d="M1070.67 777.76l-4.64-14.26h9.27z" stroke="#ba23f6" stroke-width="2" fill="#fff"/><path d="M1071.64 743.53h-1.95v-1.03h1.94z" stroke="#ba23f6" stroke-width=".05" fill="#ba23f6"/><path d="M1210.06 743.5l.2 17.5" stroke="#82755b" stroke-width="2" fill="none"/><path d="M1211.03 743.5l-1.95.04v-1.04h1.94z" stroke="#82755b" stroke-width=".05" fill="#82755b"/><path d="M1210.45 776.26l-4.8-14.2 9.26-.12z" stroke="#82755b" stroke-width="2" fill="#fff"/><path d="M1023.5 781h93M1023.6 781h-3.6M1116.4 781h3.6" stroke="#ba23f6" stroke-width="7" fill="none"/><path d="M1163.5 781h93M1163.6 781h-3.6M1256.4 781h3.6" stroke="#82755b" stroke-width="7" fill="none"/><path d="M1043.5 661h53M1043.6 661h-3.6M1096.4 661h3.6" stroke="#008a0e" stroke-width="7" fill="none"/><path d="M1183.5 661h53M1183.6 661h-3.6M1236.4 661h3.6" stroke="#1071e5" stroke-width="7" fill="none"/><path d="M1330 745a6 6 0 0 1 6-6h288a6 6 0 0 1 6 6v69a6 6 0 0 1-6 6h-288a6 6 0 0 1-6-6z" stroke="#000" stroke-opacity="0" stroke-width="3" fill="#fff" fill-opacity="0"/><use xlink:href="#E" transform="matrix(1,0,0,1,1335,744) translate(18.956790123456784 27.138888888888893)"/><use xlink:href="#F" transform="matrix(1,0,0,1,1335,744) translate(44.882716049382715 27.138888888888893)"/><use xlink:href="#r" transform="matrix(1,0,0,1,1335,744) translate(158.78395061728395 27.138888888888893)"/><use xlink:href="#G" transform="matrix(1,0,0,1,1335,744) translate(210.63580246913583 27.138888888888893)"/><use xlink:href="#H" transform="matrix(1,0,0,1,1335,744) translate(5.129629629629619 64.47222222222223)"/><use xlink:href="#I" transform="matrix(1,0,0,1,1335,744) translate(75.82098765432099 64.47222222222223)"/><use xlink:href="#J" transform="matrix(1,0,0,1,1335,744) translate(115.48765432098766 64.47222222222223)"/><path d="M1211.73 662.78l2.94.85m3.9 1.14l5.9 1.7m3.9 1.14l5.88 1.72m3.92 1.13l5.88 1.7m3.9 1.14l5.9 1.7m3.9 1.13l5.88 1.7m3.92 1.15l5.88 1.7m3.9 1.14l5.9 1.7m3.9 1.14l5.88 1.7m3.93 1.14l5.88 1.7m3.92 1.14l5.88 1.7m3.92 1.14l5.87 1.7m3.9 1.15l5.88 1.7m3.92 1.14l2.94.85" stroke="#000" stroke-width="2" fill="none"/><path d="M1211.48 663.72l-3.87-1.12.05-.1h4.2zM1340 699v2l-1.26-.35.55-1.87z" stroke="#000" stroke-width=".05"/><path d="M1340 566a6 6 0 0 1 6-6h268a6 6 0 0 1 6 6v148a6 6 0 0 1-6 6h-268a6 6 0 0 1-6-6z" stroke="#000" stroke-opacity="0" stroke-width="3" fill="#fff" fill-opacity="0"/><g><use xlink:href="#K" transform="matrix(1,0,0,1,1345,565) translate(58.99382716049382 29.576388888888893)"/><use xlink:href="#L" transform="matrix(1,0,0,1,1345,565) translate(105.6604938271605 29.576388888888893)"/><use xlink:href="#M" transform="matrix(1,0,0,1,1345,565) translate(4.635802469135797 66.90972222222223)"/><use xlink:href="#N" transform="matrix(1,0,0,1,1345,565) translate(147.91975308641975 66.90972222222223)"/><use xlink:href="#O" transform="matrix(1,0,0,1,1345,565) translate(21.487654320987644 104.24305555555557)"/><use xlink:href="#P" transform="matrix(1,0,0,1,1345,565) translate(47.413580246913575 104.24305555555557)"/><use xlink:href="#Q" transform="matrix(1,0,0,1,1345,565) translate(137.89506172839506 104.24305555555557)"/><use xlink:href="#R" transform="matrix(1,0,0,1,1345,565) translate(196.6604938271605 104.24305555555557)"/><use xlink:href="#S" transform="matrix(1,0,0,1,1345,565) translate(28.790123456790113 141.5763888888889)"/><use xlink:href="#T" transform="matrix(1,0,0,1,1345,565) translate(72 141.5763888888889)"/><use xlink:href="#U" transform="matrix(1,0,0,1,1345,565) translate(191.08641975308643 141.5763888888889)"/></g><path d="M1211.85 780.47l2.54-1.6m3.4-2.13l5.08-3.2m3.4-2.13l5.1-3.2m3.38-2.12l5.1-3.2m3.4-2.13l5.08-3.2m3.4-2.13l5.1-3.2m3.38-2.13l5.1-3.2m3.4-2.14l5.08-3.2m3.4-2.13l5.1-3.2m3.38-2.13l5.1-3.2m3.4-2.12l5.08-3.2m3.4-2.13l5.1-3.2m3.4-2.13l5.08-3.2m3.4-2.13l5.08-3.2m3.4-2.14l5.1-3.2m3.4-2.13l2.53-1.6M1211.87 780.46l-.87.54" stroke="#000" stroke-width="2" fill="none"/><path d="M1340 701.15l-.35.22-1.04-1.65 1.4-.87z" stroke="#000" stroke-width=".05"/><path d="M850 697.33a6 6 0 0 1 6-6h28a6 6 0 0 1 6 6v8a6 6 0 0 1-6 6h-28a6 6 0 0 1-6-6z" stroke="#000" stroke-opacity="0" stroke-width="2" fill="#fff" fill-opacity="0"/><g><use xlink:href="#V" transform="matrix(1,0,0,1,854.9999750000425,696.3333333333721) translate(-2.401234567901234 17.777777777777775)"/></g><path d="M710.67 697.33a6 6 0 0 1 6-6h28a6 6 0 0 1 6 6v8a6 6 0 0 1-6 6h-28a6 6 0 0 1-6-6z" stroke="#000" stroke-opacity="0" stroke-width="2" fill="#fff" fill-opacity="0"/><g><use xlink:href="#W" transform="matrix(1,0,0,1,715.6666416666703,696.3333333333721) translate(-2.401234567901234 17.777777777777775)"/></g><path d="M1188.67 639.33a6 6 0 0 1 6-6h28a6 6 0 0 1 6 6v8a6 6 0 0 1-6 6h-28a6 6 0 0 1-6-6z" stroke="#000" stroke-opacity="0" stroke-width="2" fill="#fff" fill-opacity="0"/><g><use xlink:href="#V" transform="matrix(1,0,0,1,1193.6666416666703,638.3333333333721) translate(-2.401234567901234 17.777777777777775)"/></g><path d="M1050 639.33a6 6 0 0 1 6-6h28a6 6 0 0 1 6 6v8a6 6 0 0 1-6 6h-28a6 6 0 0 1-6-6z" stroke="#000" stroke-opacity="0" stroke-width="2" fill="#fff" fill-opacity="0"/><g><use xlink:href="#W" transform="matrix(1,0,0,1,1054.9999750000425,638.3333333333721) translate(-2.401234567901234 17.777777777777775)"/></g><path d="M1076.33 758.67a6 6 0 0 1 6-6h28a6 6 0 0 1 6 6v8a6 6 0 0 1-6 6h-28a6 6 0 0 1-6-6z" stroke="#000" stroke-opacity="0" stroke-width="2" fill="#fff" fill-opacity="0"/><g><use xlink:href="#X" transform="matrix(1,0,0,1,1081.3333083332982,757.6666666666279) translate(-2.9876543209876516 17.777777777777775)"/></g><path d="M1163.67 758.67a6 6 0 0 1 6-6h28a6 6 0 0 1 6 6v8a6 6 0 0 1-6 6h-28a6 6 0 0 1-6-6z" stroke="#000" stroke-opacity="0" stroke-width="2" fill="#fff" fill-opacity="0"/><g><use xlink:href="#Y" transform="matrix(1,0,0,1,1168.6666416666703,757.6666666666279) translate(-2.9876543209876516 17.777777777777775)"/></g><defs><path d="M30-248c87 1 191-15 191 75 0 78-77 80-158 76V0H30v-248zm33 125c57 0 124 11 124-50 0-59-68-47-124-48v98" id="Z"/><path d="M137-103V0h-34v-103L8-248h37l75 118 75-118h37" id="aa"/><g id="a"><use transform="matrix(0.06790123456790124,0,0,0.06790123456790124,0,0)" xlink:href="#Z"/><use transform="matrix(0.06790123456790124,0,0,0.06790123456790124,16.296296296296298,0)" xlink:href="#aa"/></g><path d="M160-131c35 5 61 23 61 61C221 17 115-2 30 0v-248c76 3 177-17 177 60 0 33-19 50-47 57zm-97-11c50-1 110 9 110-42 0-47-63-36-110-37v79zm0 115c55-2 124 14 124-45 0-56-70-42-124-44v89" id="ab"/><g id="b"><use transform="matrix(0.06790123456790124,0,0,0.06790123456790124,0,0)" xlink:href="#Z"/><use transform="matrix(0.06790123456790124,0,0,0.06790123456790124,16.296296296296298,0)" xlink:href="#ab"/></g><linearGradient gradientUnits="userSpaceOnUse" id="c" x1="680" y1="720" x2="680" y2="560"><stop offset="19.2%" stop-color="#ced4db"/><stop offset="26.45%" stop-color="#fff"/><stop offset="45.29%" stop-color="#fff"/><stop offset="52.54%" stop-color="#cfe4ff"/><stop offset="73.91%" stop-color="#cfe4ff"/><stop offset="82.97%" stop-color="#c3f7c8"/></linearGradient><path d="M212-179c-10-28-35-45-73-45-59 0-87 40-87 99 0 60 29 101 89 101 43 0 62-24 78-52l27 14C228-24 195 4 139 4 59 4 22-46 18-125c-6-104 99-153 187-111 19 9 31 26 39 46" id="ac"/><path d="M100-194c62-1 85 37 85 99 1 63-27 99-86 99S16-35 15-95c0-66 28-99 85-99zM99-20c44 1 53-31 53-75 0-43-8-75-51-75s-53 32-53 75 10 74 51 75" id="ad"/><path d="M114-163C36-179 61-72 57 0H25l-1-190h30c1 12-1 29 2 39 6-27 23-49 58-41v29" id="ae"/><path d="M100-194c63 0 86 42 84 106H49c0 40 14 67 53 68 26 1 43-12 49-29l28 8c-11 28-37 45-77 45C44 4 14-33 15-96c1-61 26-98 85-98zm52 81c6-60-76-77-97-28-3 7-6 17-6 28h103" id="af"/><g id="d"><use transform="matrix(0.08641975308641976,0,0,0.08641975308641976,0,0)" xlink:href="#ac"/><use transform="matrix(0.08641975308641976,0,0,0.08641975308641976,22.38271604938272,0)" xlink:href="#ad"/><use transform="matrix(0.08641975308641976,0,0,0.08641975308641976,39.66666666666667,0)" xlink:href="#ae"/><use transform="matrix(0.08641975308641976,0,0,0.08641975308641976,49.95061728395062,0)" xlink:href="#af"/></g><path d="M205 0l-28-72H64L36 0H1l101-248h38L239 0h-34zm-38-99l-47-123c-12 45-31 82-46 123h93" id="ag"/><g id="e"><use transform="matrix(0.06790123456790124,0,0,0.06790123456790124,0,0)" xlink:href="#Z"/><use transform="matrix(0.06790123456790124,0,0,0.06790123456790124,14.462962962962964,0)" xlink:href="#ag"/></g><path d="M195 0l-74-108L45 0H8l94-129-87-119h37l69 98 67-98h37l-84 118L233 0h-38" id="ah"/><g id="f"><use transform="matrix(0.06790123456790124,0,0,0.06790123456790124,0,0)" xlink:href="#Z"/><use transform="matrix(0.06790123456790124,0,0,0.06790123456790124,16.296296296296298,0)" xlink:href="#ah"/></g><use transform="matrix(0.08641975308641976,0,0,0.08641975308641976,0,0)" xlink:href="#ag" id="g"/><path d="M115-194c55 1 70 41 70 98S169 2 115 4C84 4 66-9 55-30l1 105H24l-1-265h31l2 30c10-21 28-34 59-34zm-8 174c40 0 45-34 45-75s-6-73-45-74c-42 0-51 32-51 76 0 43 10 73 51 73" id="ai"/><path d="M24 0v-261h32V0H24" id="aj"/><path d="M84 4C-5 8 30-112 23-190h32v120c0 31 7 50 39 49 72-2 45-101 50-169h31l1 190h-30c-1-10 1-25-2-33-11 22-28 36-60 37" id="ak"/><path d="M177-190C167-65 218 103 67 71c-23-6-38-20-44-43l32-5c15 47 100 32 89-28v-30C133-14 115 1 83 1 29 1 15-40 15-95c0-56 16-97 71-98 29-1 48 16 59 35 1-10 0-23 2-32h30zM94-22c36 0 50-32 50-73 0-42-14-75-50-75-39 0-46 34-46 75s6 73 46 73" id="al"/><path d="M24-231v-30h32v30H24zM24 0v-190h32V0H24" id="am"/><path d="M117-194c89-4 53 116 60 194h-32v-121c0-31-8-49-39-48C34-167 62-67 57 0H25l-1-190h30c1 10-1 24 2 32 11-22 29-35 61-36" id="an"/><g id="h"><use transform="matrix(0.08641975308641976,0,0,0.08641975308641976,0,0)" xlink:href="#ai"/><use transform="matrix(0.08641975308641976,0,0,0.08641975308641976,17.283950617283953,0)" xlink:href="#aj"/><use transform="matrix(0.08641975308641976,0,0,0.08641975308641976,24.111111111111114,0)" xlink:href="#ak"/><use transform="matrix(0.08641975308641976,0,0,0.08641975308641976,41.39506172839506,0)" xlink:href="#al"/><use transform="matrix(0.08641975308641976,0,0,0.08641975308641976,58.679012345679006,0)" xlink:href="#am"/><use transform="matrix(0.08641975308641976,0,0,0.08641975308641976,65.50617283950618,0)" xlink:href="#an"/></g><path d="M210-169c-67 3-38 105-44 169h-31v-121c0-29-5-50-35-48C34-165 62-65 56 0H25l-1-190h30c1 10-1 24 2 32 10-44 99-50 107 0 11-21 27-35 58-36 85-2 47 119 55 194h-31v-121c0-29-5-49-35-48" id="ao"/><path d="M59-47c-2 24 18 29 38 22v24C64 9 27 4 27-40v-127H5v-23h24l9-43h21v43h35v23H59v120" id="ap"/><path d="M135-143c-3-34-86-38-87 0 15 53 115 12 119 90S17 21 10-45l28-5c4 36 97 45 98 0-10-56-113-15-118-90-4-57 82-63 122-42 12 7 21 19 24 35" id="aq"/><g id="i"><use transform="matrix(0.08641975308641976,0,0,0.08641975308641976,0,0)" xlink:href="#am"/><use transform="matrix(0.08641975308641976,0,0,0.08641975308641976,6.8271604938271615,0)" xlink:href="#ao"/><use transform="matrix(0.08641975308641976,0,0,0.08641975308641976,32.66666666666667,0)" xlink:href="#ai"/><use transform="matrix(0.08641975308641976,0,0,0.08641975308641976,49.95061728395062,0)" xlink:href="#aj"/><use transform="matrix(0.08641975308641976,0,0,0.08641975308641976,56.777777777777786,0)" xlink:href="#af"/><use transform="matrix(0.08641975308641976,0,0,0.08641975308641976,74.06172839506173,0)" xlink:href="#ao"/><use transform="matrix(0.08641975308641976,0,0,0.08641975308641976,99.90123456790124,0)" xlink:href="#af"/><use transform="matrix(0.08641975308641976,0,0,0.08641975308641976,117.18518518518519,0)" xlink:href="#an"/><use transform="matrix(0.08641975308641976,0,0,0.08641975308641976,134.46913580246914,0)" xlink:href="#ap"/><use transform="matrix(0.08641975308641976,0,0,0.08641975308641976,143.11111111111111,0)" xlink:href="#aq"/></g><path d="M141-36C126-15 110 5 73 4 37 3 15-17 15-53c-1-64 63-63 125-63 3-35-9-54-41-54-24 1-41 7-42 31l-33-3c5-37 33-52 76-52 45 0 72 20 72 64v82c-1 20 7 32 28 27v20c-31 9-61-2-59-35zM48-53c0 20 12 33 32 33 41-3 63-29 60-74-43 2-92-5-92 41" id="ar"/><g id="j"><use transform="matrix(0.08641975308641976,0,0,0.08641975308641976,0,0)" xlink:href="#ar"/><use transform="matrix(0.08641975308641976,0,0,0.08641975308641976,17.283950617283953,0)" xlink:href="#an"/></g><path d="M185-189c-5-48-123-54-124 2 14 75 158 14 163 119 3 78-121 87-175 55-17-10-28-26-33-46l33-7c5 56 141 63 141-1 0-78-155-14-162-118-5-82 145-84 179-34 5 7 8 16 11 25" id="as"/><path d="M33 0v-248h34V0H33" id="at"/><g id="k"><use transform="matrix(0.08641975308641976,0,0,0.08641975308641976,0,0)" xlink:href="#as"/><use transform="matrix(0.08641975308641976,0,0,0.08641975308641976,20.740740740740744,0)" xlink:href="#Z"/><use transform="matrix(0.08641975308641976,0,0,0.08641975308641976,41.48148148148149,0)" xlink:href="#at"/></g><path d="M101-234c-31-9-42 10-38 44h38v23H63V0H32v-167H5v-23h27c-7-52 17-82 69-68v24" id="au"/><g id="l"><use transform="matrix(0.08641975308641976,0,0,0.08641975308641976,0,0)" xlink:href="#ad"/><use transform="matrix(0.08641975308641976,0,0,0.08641975308641976,17.283950617283953,0)" xlink:href="#au"/></g><path d="M106-169C34-169 62-67 57 0H25v-261h32l-1 103c12-21 28-36 61-36 89 0 53 116 60 194h-32v-121c2-32-8-49-39-48" id="av"/><g id="m"><use transform="matrix(0.08641975308641976,0,0,0.08641975308641976,0,0)" xlink:href="#ap"/><use transform="matrix(0.08641975308641976,0,0,0.08641975308641976,8.641975308641976,0)" xlink:href="#av"/><use transform="matrix(0.08641975308641976,0,0,0.08641975308641976,25.925925925925927,0)" xlink:href="#af"/></g><path d="M96-169c-40 0-48 33-48 73s9 75 48 75c24 0 41-14 43-38l32 2c-6 37-31 61-74 61-59 0-76-41-82-99-10-93 101-131 147-64 4 7 5 14 7 22l-32 3c-4-21-16-35-41-35" id="aw"/><g id="n"><use transform="matrix(0.08641975308641976,0,0,0.08641975308641976,0,0)" xlink:href="#aw"/><use transform="matrix(0.08641975308641976,0,0,0.08641975308641976,15.555555555555557,0)" xlink:href="#ad"/><use transform="matrix(0.08641975308641976,0,0,0.08641975308641976,32.839506172839506,0)" xlink:href="#ae"/><use transform="matrix(0.08641975308641976,0,0,0.08641975308641976,43.123456790123456,0)" xlink:href="#af"/></g><path d="M108 0H70L1-190h34L89-25l56-165h34" id="ax"/><g id="o"><use transform="matrix(0.08641975308641976,0,0,0.08641975308641976,0,0)" xlink:href="#as"/><use transform="matrix(0.08641975308641976,0,0,0.08641975308641976,20.740740740740744,0)" xlink:href="#af"/><use transform="matrix(0.08641975308641976,0,0,0.08641975308641976,38.0246913580247,0)" xlink:href="#ax"/><use transform="matrix(0.08641975308641976,0,0,0.08641975308641976,53.580246913580254,0)" xlink:href="#af"/><use transform="matrix(0.08641975308641976,0,0,0.08641975308641976,70.8641975308642,0)" xlink:href="#ae"/><use transform="matrix(0.08641975308641976,0,0,0.08641975308641976,81.14814814814815,0)" xlink:href="#ar"/><use transform="matrix(0.08641975308641976,0,0,0.08641975308641976,98.43209876543212,0)" xlink:href="#aj"/></g><g id="p"><use transform="matrix(0.08641975308641976,0,0,0.08641975308641976,0,0)" xlink:href="#ai"/><use transform="matrix(0.08641975308641976,0,0,0.08641975308641976,17.283950617283953,0)" xlink:href="#aj"/><use transform="matrix(0.08641975308641976,0,0,0.08641975308641976,24.111111111111114,0)" xlink:href="#ak"/><use transform="matrix(0.08641975308641976,0,0,0.08641975308641976,41.39506172839506,0)" xlink:href="#al"/><use transform="matrix(0.08641975308641976,0,0,0.08641975308641976,58.679012345679006,0)" xlink:href="#am"/><use transform="matrix(0.08641975308641976,0,0,0.08641975308641976,65.50617283950618,0)" xlink:href="#an"/><use transform="matrix(0.08641975308641976,0,0,0.08641975308641976,82.79012345679013,0)" xlink:href="#aq"/></g><g id="q"><use transform="matrix(0.08641975308641976,0,0,0.08641975308641976,0,0)" xlink:href="#ao"/><use transform="matrix(0.08641975308641976,0,0,0.08641975308641976,25.83950617283951,0)" xlink:href="#ar"/><use transform="matrix(0.08641975308641976,0,0,0.08641975308641976,43.12345679012346,0)" xlink:href="#ap"/><use transform="matrix(0.08641975308641976,0,0,0.08641975308641976,51.76543209876544,0)" xlink:href="#aw"/><use transform="matrix(0.08641975308641976,0,0,0.08641975308641976,67.32098765432099,0)" xlink:href="#av"/></g><g id="r"><use transform="matrix(0.08641975308641976,0,0,0.08641975308641976,0,0)" xlink:href="#ap"/><use transform="matrix(0.08641975308641976,0,0,0.08641975308641976,8.641975308641976,0)" xlink:href="#av"/><use transform="matrix(0.08641975308641976,0,0,0.08641975308641976,25.925925925925927,0)" xlink:href="#af"/></g><g id="s"><use transform="matrix(0.08641975308641976,0,0,0.08641975308641976,0,0)" xlink:href="#aq"/><use transform="matrix(0.08641975308641976,0,0,0.08641975308641976,15.555555555555557,0)" xlink:href="#ar"/><use transform="matrix(0.08641975308641976,0,0,0.08641975308641976,32.839506172839506,0)" xlink:href="#ao"/><use transform="matrix(0.08641975308641976,0,0,0.08641975308641976,58.679012345679006,0)" xlink:href="#af"/></g><g id="t"><use transform="matrix(0.08641975308641976,0,0,0.08641975308641976,0,0)" xlink:href="#as"/><use transform="matrix(0.08641975308641976,0,0,0.08641975308641976,20.740740740740744,0)" xlink:href="#Z"/><use transform="matrix(0.08641975308641976,0,0,0.08641975308641976,41.48148148148149,0)" xlink:href="#at"/></g><linearGradient gradientUnits="userSpaceOnUse" id="u" x1="1020.85" y1="561" x2="1020.85" y2="661"><stop offset="23.91%" stop-color="#c3f7c8"/><stop offset="39.49%" stop-color="#cfe4ff"/></linearGradient><g id="v"><use transform="matrix(0.08641975308641976,0,0,0.08641975308641976,0,0)" xlink:href="#ac"/><use transform="matrix(0.08641975308641976,0,0,0.08641975308641976,22.38271604938272,0)" xlink:href="#ad"/><use transform="matrix(0.08641975308641976,0,0,0.08641975308641976,39.66666666666667,0)" xlink:href="#ae"/><use transform="matrix(0.08641975308641976,0,0,0.08641975308641976,49.95061728395062,0)" xlink:href="#af"/></g><linearGradient gradientUnits="userSpaceOnUse" id="w" x1="1040" y1="701" x2="1040" y2="741"><stop offset="38.21%" stop-color="#fff"/><stop offset="58.21%" stop-color="#cfe4ff"/></linearGradient><path d="M85-194c31 0 48 13 60 33l-1-100h32l1 261h-30c-2-10 0-23-3-31C134-8 116 4 85 4 32 4 16-35 15-94c0-66 23-100 70-100zm9 24c-40 0-46 34-46 75 0 40 6 74 45 74 42 0 51-32 51-76 0-42-9-74-50-73" id="ay"/><g id="x"><use transform="matrix(0.06790123456790124,0,0,0.06790123456790124,0,0)" xlink:href="#ag"/><use transform="matrix(0.06790123456790124,0,0,0.06790123456790124,16.296296296296298,0)" xlink:href="#ay"/><use transform="matrix(0.06790123456790124,0,0,0.06790123456790124,29.876543209876544,0)" xlink:href="#ag"/></g><linearGradient gradientUnits="userSpaceOnUse" id="y" x1="1180" y1="701" x2="1180" y2="741"><stop offset="38.21%" stop-color="#fff"/><stop offset="58.21%" stop-color="#cfe4ff"/></linearGradient><g id="z"><use transform="matrix(0.06790123456790124,0,0,0.06790123456790124,0,0)" xlink:href="#ag"/><use transform="matrix(0.06790123456790124,0,0,0.06790123456790124,16.296296296296298,0)" xlink:href="#ay"/><use transform="matrix(0.06790123456790124,0,0,0.06790123456790124,29.876543209876544,0)" xlink:href="#ah"/></g><path d="M30-248c118-7 216 8 213 122C240-48 200 0 122 0H30v-248zM63-27c89 8 146-16 146-99s-60-101-146-95v194" id="az"/><g id="A"><use transform="matrix(0.06790123456790123,0,0,0.06790123456790123,0,0)" xlink:href="#az"/><use transform="matrix(0.06790123456790123,0,0,0.06790123456790123,17.586419753086417,0)" xlink:href="#ab"/></g><use transform="matrix(0.06790123456790123,0,0,0.06790123456790123,0,0)" xlink:href="#ag" id="B"/><path d="M30 0v-248h33v221h125V0H30" id="aA"/><path d="M115-194c53 0 69 39 70 98 0 66-23 100-70 100C84 3 66-7 56-30L54 0H23l1-261h32v101c10-23 28-34 59-34zm-8 174c40 0 45-34 45-75 0-40-5-75-45-74-42 0-51 32-51 76 0 43 10 73 51 73" id="aB"/><g id="C"><use transform="matrix(0.06790123456790123,0,0,0.06790123456790123,0,0)" xlink:href="#aA"/><use transform="matrix(0.06790123456790123,0,0,0.06790123456790123,13.580246913580247,0)" xlink:href="#am"/><use transform="matrix(0.06790123456790123,0,0,0.06790123456790123,18.944444444444443,0)" xlink:href="#aB"/></g><use transform="matrix(0.06790123456790123,0,0,0.06790123456790123,0,0)" xlink:href="#ah" id="D"/><g id="E"><use transform="matrix(0.08641975308641976,0,0,0.08641975308641976,0,0)" xlink:href="#at"/><use transform="matrix(0.08641975308641976,0,0,0.08641975308641976,8.641975308641976,0)" xlink:href="#ap"/></g><g id="F"><use transform="matrix(0.08641975308641976,0,0,0.08641975308641976,0,0)" xlink:href="#am"/><use transform="matrix(0.08641975308641976,0,0,0.08641975308641976,6.8271604938271615,0)" xlink:href="#aq"/><use transform="matrix(0.08641975308641976,0,0,0.08641975308641976,22.38271604938272,0)" xlink:href="#ad"/><use transform="matrix(0.08641975308641976,0,0,0.08641975308641976,39.66666666666667,0)" xlink:href="#aj"/><use transform="matrix(0.08641975308641976,0,0,0.08641975308641976,46.49382716049383,0)" xlink:href="#ar"/><use transform="matrix(0.08641975308641976,0,0,0.08641975308641976,63.777777777777786,0)" xlink:href="#ap"/><use transform="matrix(0.08641975308641976,0,0,0.08641975308641976,72.41975308641976,0)" xlink:href="#af"/><use transform="matrix(0.08641975308641976,0,0,0.08641975308641976,89.70370370370371,0)" xlink:href="#aq"/></g><g id="G"><use transform="matrix(0.08641975308641976,0,0,0.08641975308641976,0,0)" xlink:href="#aw"/><use transform="matrix(0.08641975308641976,0,0,0.08641975308641976,15.555555555555557,0)" xlink:href="#ad"/><use transform="matrix(0.08641975308641976,0,0,0.08641975308641976,32.839506172839506,0)" xlink:href="#ae"/><use transform="matrix(0.08641975308641976,0,0,0.08641975308641976,43.123456790123456,0)" xlink:href="#af"/></g><g id="H"><use transform="matrix(0.08641975308641976,0,0,0.08641975308641976,0,0)" xlink:href="#au"/><use transform="matrix(0.08641975308641976,0,0,0.08641975308641976,8.641975308641976,0)" xlink:href="#ae"/><use transform="matrix(0.08641975308641976,0,0,0.08641975308641976,18.925925925925927,0)" xlink:href="#ad"/><use transform="matrix(0.08641975308641976,0,0,0.08641975308641976,36.20987654320988,0)" xlink:href="#ao"/></g><g id="I"><use transform="matrix(0.08641975308641976,0,0,0.08641975308641976,0,0)" xlink:href="#am"/><use transform="matrix(0.08641975308641976,0,0,0.08641975308641976,6.8271604938271615,0)" xlink:href="#ap"/><use transform="matrix(0.08641975308641976,0,0,0.08641975308641976,15.469135802469138,0)" xlink:href="#aq"/></g><path d="M179-190L93 31C79 59 56 82 12 73V49c39 6 53-20 64-50L1-190h34L92-34l54-156h33" id="aC"/><g id="J"><use transform="matrix(0.08641975308641976,0,0,0.08641975308641976,0,0)" xlink:href="#ay"/><use transform="matrix(0.08641975308641976,0,0,0.08641975308641976,17.283950617283953,0)" xlink:href="#af"/><use transform="matrix(0.08641975308641976,0,0,0.08641975308641976,34.567901234567906,0)" xlink:href="#ai"/><use transform="matrix(0.08641975308641976,0,0,0.08641975308641976,51.851851851851855,0)" xlink:href="#af"/><use transform="matrix(0.08641975308641976,0,0,0.08641975308641976,69.13580246913581,0)" xlink:href="#an"/><use transform="matrix(0.08641975308641976,0,0,0.08641975308641976,86.41975308641976,0)" xlink:href="#ay"/><use transform="matrix(0.08641975308641976,0,0,0.08641975308641976,103.70370370370371,0)" xlink:href="#af"/><use transform="matrix(0.08641975308641976,0,0,0.08641975308641976,120.98765432098767,0)" xlink:href="#an"/><use transform="matrix(0.08641975308641976,0,0,0.08641975308641976,138.27160493827162,0)" xlink:href="#aw"/><use transform="matrix(0.08641975308641976,0,0,0.08641975308641976,153.8271604938272,0)" xlink:href="#aC"/></g><g id="K"><use transform="matrix(0.08641975308641976,0,0,0.08641975308641976,0,0)" xlink:href="#ag"/><use transform="matrix(0.08641975308641976,0,0,0.08641975308641976,20.740740740740744,0)" xlink:href="#an"/></g><g id="L"><use transform="matrix(0.08641975308641976,0,0,0.08641975308641976,0,0)" xlink:href="#ar"/><use transform="matrix(0.08641975308641976,0,0,0.08641975308641976,17.283950617283953,0)" xlink:href="#ay"/><use transform="matrix(0.08641975308641976,0,0,0.08641975308641976,34.567901234567906,0)" xlink:href="#ar"/><use transform="matrix(0.08641975308641976,0,0,0.08641975308641976,51.851851851851855,0)" xlink:href="#ai"/><use transform="matrix(0.08641975308641976,0,0,0.08641975308641976,69.13580246913581,0)" xlink:href="#ap"/><use transform="matrix(0.08641975308641976,0,0,0.08641975308641976,77.77777777777779,0)" xlink:href="#af"/><use transform="matrix(0.08641975308641976,0,0,0.08641975308641976,95.06172839506173,0)" xlink:href="#ae"/></g><g id="M"><use transform="matrix(0.08641975308641976,0,0,0.08641975308641976,0,0)" xlink:href="#ap"/><use transform="matrix(0.08641975308641976,0,0,0.08641975308641976,8.641975308641976,0)" xlink:href="#ae"/><use transform="matrix(0.08641975308641976,0,0,0.08641975308641976,18.925925925925927,0)" xlink:href="#ar"/><use transform="matrix(0.08641975308641976,0,0,0.08641975308641976,36.20987654320988,0)" xlink:href="#an"/><use transform="matrix(0.08641975308641976,0,0,0.08641975308641976,53.49382716049383,0)" xlink:href="#aq"/><use transform="matrix(0.08641975308641976,0,0,0.08641975308641976,69.0493827160494,0)" xlink:href="#aj"/><use transform="matrix(0.08641975308641976,0,0,0.08641975308641976,75.87654320987656,0)" xlink:href="#ar"/><use transform="matrix(0.08641975308641976,0,0,0.08641975308641976,93.16049382716051,0)" xlink:href="#ap"/><use transform="matrix(0.08641975308641976,0,0,0.08641975308641976,101.80246913580248,0)" xlink:href="#af"/><use transform="matrix(0.08641975308641976,0,0,0.08641975308641976,119.08641975308643,0)" xlink:href="#aq"/></g><path d="M206 0h-36l-40-164L89 0H53L-1-190h32L70-26l43-164h34l41 164 42-164h31" id="aD"/><g id="N"><use transform="matrix(0.08641975308641976,0,0,0.08641975308641976,0,0)" xlink:href="#aB"/><use transform="matrix(0.08641975308641976,0,0,0.08641975308641976,17.283950617283953,0)" xlink:href="#af"/><use transform="matrix(0.08641975308641976,0,0,0.08641975308641976,34.567901234567906,0)" xlink:href="#ap"/><use transform="matrix(0.08641975308641976,0,0,0.08641975308641976,43.20987654320988,0)" xlink:href="#aD"/><use transform="matrix(0.08641975308641976,0,0,0.08641975308641976,65.5925925925926,0)" xlink:href="#af"/><use transform="matrix(0.08641975308641976,0,0,0.08641975308641976,82.87654320987654,0)" xlink:href="#af"/><use transform="matrix(0.08641975308641976,0,0,0.08641975308641976,100.16049382716048,0)" xlink:href="#an"/></g><use transform="matrix(0.08641975308641976,0,0,0.08641975308641976,0,0)" xlink:href="#ar" id="O"/><path d="M47-170H22l-4-78h33" id="aE"/><g id="P"><use transform="matrix(0.08641975308641976,0,0,0.08641975308641976,0,0)" xlink:href="#aw"/><use transform="matrix(0.08641975308641976,0,0,0.08641975308641976,15.555555555555557,0)" xlink:href="#ad"/><use transform="matrix(0.08641975308641976,0,0,0.08641975308641976,32.839506172839506,0)" xlink:href="#ae"/><use transform="matrix(0.08641975308641976,0,0,0.08641975308641976,43.123456790123456,0)" xlink:href="#af"/><use transform="matrix(0.08641975308641976,0,0,0.08641975308641976,60.407407407407405,0)" xlink:href="#aE"/><use transform="matrix(0.08641975308641976,0,0,0.08641975308641976,66.28395061728395,0)" xlink:href="#aq"/></g><g id="Q"><use transform="matrix(0.08641975308641976,0,0,0.08641975308641976,0,0)" xlink:href="#as"/><use transform="matrix(0.08641975308641976,0,0,0.08641975308641976,20.740740740740744,0)" xlink:href="#Z"/><use transform="matrix(0.08641975308641976,0,0,0.08641975308641976,41.48148148148149,0)" xlink:href="#at"/></g><g id="R"><use transform="matrix(0.08641975308641976,0,0,0.08641975308641976,0,0)" xlink:href="#ar"/><use transform="matrix(0.08641975308641976,0,0,0.08641975308641976,17.283950617283953,0)" xlink:href="#an"/><use transform="matrix(0.08641975308641976,0,0,0.08641975308641976,34.567901234567906,0)" xlink:href="#ay"/></g><g id="S"><use transform="matrix(0.08641975308641976,0,0,0.08641975308641976,0,0)" xlink:href="#ar"/><use transform="matrix(0.08641975308641976,0,0,0.08641975308641976,17.283950617283953,0)" xlink:href="#an"/></g><path d="M141 0L90-78 38 0H4l68-98-65-92h35l48 74 47-74h35l-64 92 68 98h-35" id="aF"/><g id="T"><use transform="matrix(0.08641975308641976,0,0,0.08641975308641976,0,0)" xlink:href="#af"/><use transform="matrix(0.08641975308641976,0,0,0.08641975308641976,17.283950617283953,0)" xlink:href="#aF"/><use transform="matrix(0.08641975308641976,0,0,0.08641975308641976,32.839506172839506,0)" xlink:href="#ap"/><use transform="matrix(0.08641975308641976,0,0,0.08641975308641976,41.48148148148148,0)" xlink:href="#af"/><use transform="matrix(0.08641975308641976,0,0,0.08641975308641976,58.76543209876543,0)" xlink:href="#ae"/><use transform="matrix(0.08641975308641976,0,0,0.08641975308641976,69.04938271604938,0)" xlink:href="#an"/><use transform="matrix(0.08641975308641976,0,0,0.08641975308641976,86.33333333333333,0)" xlink:href="#ar"/><use transform="matrix(0.08641975308641976,0,0,0.08641975308641976,103.61728395061728,0)" xlink:href="#aj"/></g><g id="U"><use transform="matrix(0.08641975308641976,0,0,0.08641975308641976,0,0)" xlink:href="#ag"/><use transform="matrix(0.08641975308641976,0,0,0.08641975308641976,20.740740740740744,0)" xlink:href="#Z"/><use transform="matrix(0.08641975308641976,0,0,0.08641975308641976,41.48148148148149,0)" xlink:href="#at"/></g><path fill="#1071e5" d="M169-182c-1-43-94-46-97-3 18 66 151 10 154 114 3 95-165 93-204 36-6-8-10-19-12-30l50-8c3 46 112 56 116 5-17-69-150-10-154-114-4-87 153-88 188-35 5 8 8 18 10 28" id="aG"/><path fill="#1071e5" d="M24-248c93 1 206-16 204 79-1 75-69 88-152 82V0H24v-248zm52 121c47 0 100 7 100-41 0-47-54-39-100-39v80" id="aH"/><path fill="#1071e5" d="M24 0v-248h52V0H24" id="aI"/><g id="V"><use transform="matrix(0.061728395061728385,0,0,0.061728395061728385,0,0)" xlink:href="#aG"/><use transform="matrix(0.061728395061728385,0,0,0.061728395061728385,14.814814814814813,0)" xlink:href="#aH"/><use transform="matrix(0.061728395061728385,0,0,0.061728395061728385,29.629629629629626,0)" xlink:href="#aI"/></g><path fill="#008a0e" d="M169-182c-1-43-94-46-97-3 18 66 151 10 154 114 3 95-165 93-204 36-6-8-10-19-12-30l50-8c3 46 112 56 116 5-17-69-150-10-154-114-4-87 153-88 188-35 5 8 8 18 10 28" id="aJ"/><path fill="#008a0e" d="M24-248c93 1 206-16 204 79-1 75-69 88-152 82V0H24v-248zm52 121c47 0 100 7 100-41 0-47-54-39-100-39v80" id="aK"/><path fill="#008a0e" d="M24 0v-248h52V0H24" id="aL"/><g id="W"><use transform="matrix(0.061728395061728385,0,0,0.061728395061728385,0,0)" xlink:href="#aJ"/><use transform="matrix(0.061728395061728385,0,0,0.061728395061728385,14.814814814814813,0)" xlink:href="#aK"/><use transform="matrix(0.061728395061728385,0,0,0.061728395061728385,29.629629629629626,0)" xlink:href="#aL"/></g><path fill="#ba23f6" d="M199 0l-22-63H83L61 0H9l90-248h61L250 0h-51zm-33-102l-36-108c-10 38-24 72-36 108h72" id="aM"/><path fill="#ba23f6" d="M24-248c93 1 206-16 204 79-1 75-69 88-152 82V0H24v-248zm52 121c47 0 100 7 100-41 0-47-54-39-100-39v80" id="aN"/><path fill="#ba23f6" d="M24 0v-248h52V0H24" id="aO"/><g id="X"><use transform="matrix(0.061728395061728385,0,0,0.061728395061728385,0,0)" xlink:href="#aM"/><use transform="matrix(0.061728395061728385,0,0,0.061728395061728385,15.987654320987652,0)" xlink:href="#aN"/><use transform="matrix(0.061728395061728385,0,0,0.061728395061728385,30.802469135802465,0)" xlink:href="#aO"/></g><path fill="#82755b" d="M199 0l-22-63H83L61 0H9l90-248h61L250 0h-51zm-33-102l-36-108c-10 38-24 72-36 108h72" id="aP"/><path fill="#82755b" d="M24-248c93 1 206-16 204 79-1 75-69 88-152 82V0H24v-248zm52 121c47 0 100 7 100-41 0-47-54-39-100-39v80" id="aQ"/><path fill="#82755b" d="M24 0v-248h52V0H24" id="aR"/><g id="Y"><use transform="matrix(0.061728395061728385,0,0,0.061728395061728385,0,0)" xlink:href="#aP"/><use transform="matrix(0.061728395061728385,0,0,0.061728395061728385,15.987654320987652,0)" xlink:href="#aQ"/><use transform="matrix(0.061728395061728385,0,0,0.061728395061728385,30.802469135802465,0)" xlink:href="#aR"/></g></defs></g></svg>