<svg xmlns="http://www.w3.org/2000/svg" xmlns:xlink="http://www.w3.org/1999/xlink" xmlns:lucid="lucid" width="1363" height="366.5"><g transform="translate(-118.5 -498.5)" lucid:page-tab-id="0_0"><path d="M420 799.33a20 20 0 0 1 20-20h160a20 20 0 0 1 20 20 20 20 0 0 1-20 20H440a20 20 0 0 1-20-20z" stroke="#008a0e" stroke-width="3" fill="#ced4db"/><use xlink:href="#a" transform="matrix(1,0,0,1,425.0000500000001,784.3333333333331) translate(47.504999999999995 19.65277777777778)"/><path d="M420 679a19 19 0 0 1 19-19h162a19 19 0 0 1 19 19 19 19 0 0 1-19 19H439a19 19 0 0 1-19-19z" stroke="#1071e5" stroke-width="3" fill="url(#b)"/><use xlink:href="#c" transform="matrix(1,0,0,1,425.0000500000001,665) translate(51.795123456790115 19.59027777777778)"/><path d="M520 721.5v-21" stroke="#008a0e" stroke-width="2" fill="none"/><path d="M520 736.76l-4.63-14.26h9.26z" stroke="#008a0e" stroke-width="2" fill="#fff"/><path d="M520.98 700.53H519v-1.03H521z" stroke="#008a0e" stroke-width=".05" fill="#008a0e"/><path d="M420 560a20 20 0 0 1 20-20h160a20 20 0 0 1 20 20 20 20 0 0 1-20 20H440a20 20 0 0 1-20-20z" stroke="#000" stroke-width="3" fill="#fff"/><use xlink:href="#d" transform="matrix(1,0,0,1,425.00002500000005,545) translate(50.62228395061727 19.65277777777778)"/><path d="M520 604.16V582.5" stroke="#1071e5" stroke-width="2" fill="none"/><path d="M520 619.43l-4.63-14.26h9.26z" stroke="#1071e5" stroke-width="2" fill="#fff"/><path d="M520.98 582.53H519v-1.03H521z" stroke="#1071e5" stroke-width=".05" fill="#1071e5"/><path d="M616.5 622.67h-193M616.4 622.67h3.6M423.6 622.67H420" stroke="#1071e5" stroke-width="7" fill="none"/><path d="M616.5 740h-193M616.4 740h3.6M423.6 740H420" stroke="#008a0e" stroke-width="7" fill="none"/><path d="M120 604.73a6 6 0 0 1 6-6h208a6 6 0 0 1 6 6v148a6 6 0 0 1-6 6H126a6 6 0 0 1-6-6z" stroke="#000" stroke-opacity="0" stroke-width="3" fill="#fff" fill-opacity="0"/><use xlink:href="#e" transform="matrix(1,0,0,1,125,603.7333334662662) translate(19.4876543209877 43.63888888888888)"/><use xlink:href="#f" transform="matrix(1,0,0,1,125,603.7333334662662) translate(121.37654320987653 43.63888888888888)"/><use xlink:href="#g" transform="matrix(1,0,0,1,125,603.7333334662662) translate(33.44444444444447 80.9722222222222)"/><use xlink:href="#h" transform="matrix(1,0,0,1,125,603.7333334662662) translate(7.388888888888943 118.30555555555551)"/><use xlink:href="#i" transform="matrix(1,0,0,1,125,603.7333334662662) translate(136.9320987654321 118.30555555555551)"/><path d="M419.05 620.3l-2.93.9m-3.9 1.2l-5.87 1.82m-3.9 1.2l-5.86 1.82m-3.9 1.2l-5.87 1.8m-3.9 1.22l-5.86 1.8m-3.9 1.22l-5.86 1.8m-3.9 1.2l-5.85 1.82m-3.9 1.2l-5.86 1.82m-3.92 1.2l-2.93.9M419.02 620.3l.98-.3" stroke="#000" stroke-width="2" fill="none"/><path d="M341.27 645.36l-1.27.4v-2.05l.7-.2z" stroke="#000" stroke-width=".05"/><path d="M531.1 715.33a6 6 0 0 1 6-6h28a6 6 0 0 1 6 6v8a6 6 0 0 1-6 6h-28a6 6 0 0 1-6-6z" stroke="#000" stroke-opacity="0" stroke-width="2" fill="#fff" fill-opacity="0"/><use xlink:href="#j" transform="matrix(1,0,0,1,536.1049382716049,714.3333333333334) translate(-7.808641975308639 17.777777777777775)"/><path d="M522.67 597.33a6 6 0 0 1 6-6h28a6 6 0 0 1 6 6v8a6 6 0 0 1-6 6h-28a6 6 0 0 1-6-6z" stroke="#000" stroke-opacity="0" stroke-width="2" fill="#fff" fill-opacity="0"/><use xlink:href="#k" transform="matrix(1,0,0,1,527.6666666666667,596.3333333333334) translate(-2.9876543209876516 17.777777777777775)"/><path d="M520 758.5v18.33" stroke="#008a0e" stroke-width="2" fill="none"/><path d="M520 743.24l4.63 14.26h-9.26z" stroke="#008a0e" stroke-width="2" fill="#fff"/><path d="M520.98 777.83H519v-1.02H521z" stroke="#008a0e" stroke-width=".05" fill="#008a0e"/><path d="M520 641.17v16.33" stroke="#1071e5" stroke-width="2" fill="none"/><path d="M520 625.9l4.63 14.27h-9.26z" stroke="#1071e5" stroke-width="2" fill="#fff"/><path d="M520.98 658.5H519v-1.03H521z" stroke="#1071e5" stroke-width=".05" fill="#1071e5"/><path d="M820 520a20 20 0 0 1 20-20h220a20 20 0 0 1 20 20v100a20 20 0 0 1-20 20H840a20 20 0 0 1-20-20z" fill-opacity="0"/><path d="M818.5 520a1.5 1.5 0 0 1 1.5-1.5 1.5 1.5 0 0 1 1.5 1.5 1.5 1.5 0 0 1-1.5 1.5 1.5 1.5 0 0 1-1.5-1.5m2.73-9.96a1.5 1.5 0 0 1 1.5-1.5 1.5 1.5 0 0 1 1.5 1.5 1.5 1.5 0 0 1-1.5 1.5 1.5 1.5 0 0 1-1.5-1.5V510m7.3-7.26a1.5 1.5 0 0 1 1.5-1.5 1.5 1.5 0 0 1 1.5 1.5 1.5 1.5 0 0 1-1.5 1.5 1.5 1.5 0 0 1-1.5-1.5v-.03m9.97-2.7a1.5 1.5 0 0 1 1.5-1.5 1.5 1.5 0 0 1 1.5 1.5 1.5 1.5 0 0 1-1.5 1.5 1.5 1.5 0 0 1-1.5-1.5m12.22 0a1.5 1.5 0 0 1 1.5-1.5 1.5 1.5 0 0 1 1.5 1.5 1.5 1.5 0 0 1-1.5 1.5 1.5 1.5 0 0 1-1.5-1.5m12.23 0a1.5 1.5 0 0 1 1.5-1.5 1.5 1.5 0 0 1 1.5 1.5 1.5 1.5 0 0 1-1.5 1.5 1.5 1.5 0 0 1-1.5-1.5m12.22 0a1.5 1.5 0 0 1 1.5-1.5 1.5 1.5 0 0 1 1.5 1.5 1.5 1.5 0 0 1-1.5 1.5 1.5 1.5 0 0 1-1.5-1.5m12.22 0a1.5 1.5 0 0 1 1.5-1.5 1.5 1.5 0 0 1 1.5 1.5 1.5 1.5 0 0 1-1.5 1.5 1.5 1.5 0 0 1-1.5-1.5m12.2 0a1.5 1.5 0 0 1 1.5-1.5 1.5 1.5 0 0 1 1.5 1.5 1.5 1.5 0 0 1-1.5 1.5 1.5 1.5 0 0 1-1.5-1.5m12.23 0a1.5 1.5 0 0 1 1.5-1.5 1.5 1.5 0 0 1 1.5 1.5 1.5 1.5 0 0 1-1.5 1.5 1.5 1.5 0 0 1-1.5-1.5m12.23 0a1.5 1.5 0 0 1 1.5-1.5 1.5 1.5 0 0 1 1.5 1.5 1.5 1.5 0 0 1-1.5 1.5 1.5 1.5 0 0 1-1.5-1.5m12.22 0a1.5 1.5 0 0 1 1.5-1.5 1.5 1.5 0 0 1 1.5 1.5 1.5 1.5 0 0 1-1.5 1.5 1.5 1.5 0 0 1-1.5-1.5m12.22 0a1.5 1.5 0 0 1 1.5-1.5 1.5 1.5 0 0 1 1.5 1.5 1.5 1.5 0 0 1-1.5 1.5 1.5 1.5 0 0 1-1.5-1.5m12.22 0a1.5 1.5 0 0 1 1.5-1.5 1.5 1.5 0 0 1 1.5 1.5 1.5 1.5 0 0 1-1.5 1.5 1.5 1.5 0 0 1-1.5-1.5m12.23 0a1.5 1.5 0 0 1 1.5-1.5 1.5 1.5 0 0 1 1.5 1.5 1.5 1.5 0 0 1-1.5 1.5 1.5 1.5 0 0 1-1.5-1.5m12.22 0a1.5 1.5 0 0 1 1.5-1.5 1.5 1.5 0 0 1 1.5 1.5 1.5 1.5 0 0 1-1.5 1.5 1.5 1.5 0 0 1-1.5-1.5m12.22 0a1.5 1.5 0 0 1 1.5-1.5 1.5 1.5 0 0 1 1.5 1.5 1.5 1.5 0 0 1-1.5 1.5 1.5 1.5 0 0 1-1.5-1.5m12.2 0a1.5 1.5 0 0 1 1.5-1.5 1.5 1.5 0 0 1 1.5 1.5 1.5 1.5 0 0 1-1.5 1.5 1.5 1.5 0 0 1-1.5-1.5m12.23 0a1.5 1.5 0 0 1 1.5-1.5 1.5 1.5 0 0 1 1.5 1.5 1.5 1.5 0 0 1-1.5 1.5 1.5 1.5 0 0 1-1.5-1.5m12.23 0a1.5 1.5 0 0 1 1.5-1.5 1.5 1.5 0 0 1 1.5 1.5 1.5 1.5 0 0 1-1.5 1.5 1.5 1.5 0 0 1-1.5-1.5m12.22 0a1.5 1.5 0 0 1 1.5-1.5 1.5 1.5 0 0 1 1.5 1.5 1.5 1.5 0 0 1-1.5 1.5 1.5 1.5 0 0 1-1.5-1.5m12.22 0a1.5 1.5 0 0 1 1.5-1.5 1.5 1.5 0 0 1 1.5 1.5 1.5 1.5 0 0 1-1.5 1.5 1.5 1.5 0 0 1-1.5-1.5m9.97 2.74a1.5 1.5 0 0 1 1.5-1.5 1.5 1.5 0 0 1 1.5 1.5 1.5 1.5 0 0 1-1.5 1.5 1.5 1.5 0 0 1-1.5-1.5v-.03m7.3 7.34a1.5 1.5 0 0 1 1.5-1.5 1.5 1.5 0 0 1 1.5 1.5 1.5 1.5 0 0 1-1.5 1.5 1.5 1.5 0 0 1-1.5-1.5V510m2.73 10a1.5 1.5 0 0 1 1.5-1.5 1.5 1.5 0 0 1 1.5 1.5 1.5 1.5 0 0 1-1.5 1.5 1.5 1.5 0 0 1-1.5-1.5m0 12.5a1.5 1.5 0 0 1 1.5-1.5 1.5 1.5 0 0 1 1.5 1.5 1.5 1.5 0 0 1-1.5 1.5 1.5 1.5 0 0 1-1.5-1.5m0 12.5a1.5 1.5 0 0 1 1.5-1.5 1.5 1.5 0 0 1 1.5 1.5 1.5 1.5 0 0 1-1.5 1.5 1.5 1.5 0 0 1-1.5-1.5m0 12.5a1.5 1.5 0 0 1 1.5-1.5 1.5 1.5 0 0 1 1.5 1.5 1.5 1.5 0 0 1-1.5 1.5 1.5 1.5 0 0 1-1.5-1.5m0 12.5a1.5 1.5 0 0 1 1.5-1.5 1.5 1.5 0 0 1 1.5 1.5 1.5 1.5 0 0 1-1.5 1.5 1.5 1.5 0 0 1-1.5-1.5m0 12.5a1.5 1.5 0 0 1 1.5-1.5 1.5 1.5 0 0 1 1.5 1.5 1.5 1.5 0 0 1-1.5 1.5 1.5 1.5 0 0 1-1.5-1.5m0 12.5a1.5 1.5 0 0 1 1.5-1.5 1.5 1.5 0 0 1 1.5 1.5 1.5 1.5 0 0 1-1.5 1.5 1.5 1.5 0 0 1-1.5-1.5m0 12.5a1.5 1.5 0 0 1 1.5-1.5 1.5 1.5 0 0 1 1.5 1.5 1.5 1.5 0 0 1-1.5 1.5 1.5 1.5 0 0 1-1.5-1.5m0 12.5a1.5 1.5 0 0 1 1.5-1.5 1.5 1.5 0 0 1 1.5 1.5 1.5 1.5 0 0 1-1.5 1.5 1.5 1.5 0 0 1-1.5-1.5m-2.73 10v-.03a1.5 1.5 0 0 1 1.5-1.5 1.5 1.5 0 0 1 1.5 1.5 1.5 1.5 0 0 1-1.5 1.5 1.5 1.5 0 0 1-1.5-1.5m-7.3 7.32v-.03a1.5 1.5 0 0 1 1.5-1.5 1.5 1.5 0 0 1 1.5 1.5 1.5 1.5 0 0 1-1.5 1.5 1.5 1.5 0 0 1-1.5-1.5m-9.97 2.75V640a1.5 1.5 0 0 1 1.5-1.5 1.5 1.5 0 0 1 1.5 1.5 1.5 1.5 0 0 1-1.5 1.5 1.5 1.5 0 0 1-1.5-1.5m-12.22 0a1.5 1.5 0 0 1 1.5-1.5 1.5 1.5 0 0 1 1.5 1.5 1.5 1.5 0 0 1-1.5 1.5 1.5 1.5 0 0 1-1.5-1.5m-12.22 0a1.5 1.5 0 0 1 1.5-1.5 1.5 1.5 0 0 1 1.5 1.5 1.5 1.5 0 0 1-1.5 1.5 1.5 1.5 0 0 1-1.5-1.5m-12.23 0a1.5 1.5 0 0 1 1.5-1.5 1.5 1.5 0 0 1 1.5 1.5 1.5 1.5 0 0 1-1.5 1.5 1.5 1.5 0 0 1-1.5-1.5m-12.22 0a1.5 1.5 0 0 1 1.5-1.5 1.5 1.5 0 0 1 1.5 1.5 1.5 1.5 0 0 1-1.5 1.5 1.5 1.5 0 0 1-1.5-1.5m-12.2 0a1.5 1.5 0 0 1 1.5-1.5 1.5 1.5 0 0 1 1.5 1.5 1.5 1.5 0 0 1-1.5 1.5 1.5 1.5 0 0 1-1.5-1.5m-12.23 0a1.5 1.5 0 0 1 1.5-1.5 1.5 1.5 0 0 1 1.5 1.5 1.5 1.5 0 0 1-1.5 1.5 1.5 1.5 0 0 1-1.5-1.5m-12.22 0a1.5 1.5 0 0 1 1.5-1.5 1.5 1.5 0 0 1 1.5 1.5 1.5 1.5 0 0 1-1.5 1.5 1.5 1.5 0 0 1-1.5-1.5m-12.23 0a1.5 1.5 0 0 1 1.5-1.5 1.5 1.5 0 0 1 1.5 1.5 1.5 1.5 0 0 1-1.5 1.5 1.5 1.5 0 0 1-1.5-1.5m-12.22 0a1.5 1.5 0 0 1 1.5-1.5 1.5 1.5 0 0 1 1.5 1.5 1.5 1.5 0 0 1-1.5 1.5 1.5 1.5 0 0 1-1.5-1.5m-12.22 0a1.5 1.5 0 0 1 1.5-1.5 1.5 1.5 0 0 1 1.5 1.5 1.5 1.5 0 0 1-1.5 1.5 1.5 1.5 0 0 1-1.5-1.5m-12.22 0a1.5 1.5 0 0 1 1.5-1.5 1.5 1.5 0 0 1 1.5 1.5 1.5 1.5 0 0 1-1.5 1.5 1.5 1.5 0 0 1-1.5-1.5m-12.23 0a1.5 1.5 0 0 1 1.5-1.5 1.5 1.5 0 0 1 1.5 1.5 1.5 1.5 0 0 1-1.5 1.5 1.5 1.5 0 0 1-1.5-1.5m-12.22 0a1.5 1.5 0 0 1 1.5-1.5 1.5 1.5 0 0 1 1.5 1.5 1.5 1.5 0 0 1-1.5 1.5 1.5 1.5 0 0 1-1.5-1.5m-12.2 0a1.5 1.5 0 0 1 1.5-1.5 1.5 1.5 0 0 1 1.5 1.5 1.5 1.5 0 0 1-1.5 1.5 1.5 1.5 0 0 1-1.5-1.5m-12.23 0a1.5 1.5 0 0 1 1.5-1.5 1.5 1.5 0 0 1 1.5 1.5 1.5 1.5 0 0 1-1.5 1.5 1.5 1.5 0 0 1-1.5-1.5m-12.22 0a1.5 1.5 0 0 1 1.5-1.5 1.5 1.5 0 0 1 1.5 1.5 1.5 1.5 0 0 1-1.5 1.5 1.5 1.5 0 0 1-1.5-1.5m-12.23 0a1.5 1.5 0 0 1 1.5-1.5 1.5 1.5 0 0 1 1.5 1.5 1.5 1.5 0 0 1-1.5 1.5 1.5 1.5 0 0 1-1.5-1.5m-12.22 0a1.5 1.5 0 0 1 1.5-1.5 1.5 1.5 0 0 1 1.5 1.5 1.5 1.5 0 0 1-1.5 1.5 1.5 1.5 0 0 1-1.5-1.5m-9.97-2.7v-.03a1.5 1.5 0 0 1 1.5-1.5 1.5 1.5 0 0 1 1.5 1.5 1.5 1.5 0 0 1-1.5 1.5 1.5 1.5 0 0 1-1.5-1.5m-7.3-7.28v-.03a1.5 1.5 0 0 1 1.5-1.5 1.5 1.5 0 0 1 1.5 1.5 1.5 1.5 0 0 1-1.5 1.5 1.5 1.5 0 0 1-1.5-1.5M818.5 620a1.5 1.5 0 0 1 1.5-1.5 1.5 1.5 0 0 1 1.5 1.5 1.5 1.5 0 0 1-1.5 1.5 1.5 1.5 0 0 1-1.5-1.5m0-12.5a1.5 1.5 0 0 1 1.5-1.5 1.5 1.5 0 0 1 1.5 1.5 1.5 1.5 0 0 1-1.5 1.5 1.5 1.5 0 0 1-1.5-1.5m0-12.5a1.5 1.5 0 0 1 1.5-1.5 1.5 1.5 0 0 1 1.5 1.5 1.5 1.5 0 0 1-1.5 1.5 1.5 1.5 0 0 1-1.5-1.5m0-12.5a1.5 1.5 0 0 1 1.5-1.5 1.5 1.5 0 0 1 1.5 1.5 1.5 1.5 0 0 1-1.5 1.5 1.5 1.5 0 0 1-1.5-1.5m0-12.5a1.5 1.5 0 0 1 1.5-1.5 1.5 1.5 0 0 1 1.5 1.5 1.5 1.5 0 0 1-1.5 1.5 1.5 1.5 0 0 1-1.5-1.5m0-12.5a1.5 1.5 0 0 1 1.5-1.5 1.5 1.5 0 0 1 1.5 1.5 1.5 1.5 0 0 1-1.5 1.5 1.5 1.5 0 0 1-1.5-1.5m0-12.5a1.5 1.5 0 0 1 1.5-1.5 1.5 1.5 0 0 1 1.5 1.5 1.5 1.5 0 0 1-1.5 1.5 1.5 1.5 0 0 1-1.5-1.5m0-12.5a1.5 1.5 0 0 1 1.5-1.5 1.5 1.5 0 0 1 1.5 1.5 1.5 1.5 0 0 1-1.5 1.5 1.5 1.5 0 0 1-1.5-1.5"/><path d="M820 740a20 20 0 0 1 20-20h220a20 20 0 0 1 20 20v100a20 20 0 0 1-20 20H840a20 20 0 0 1-20-20z" fill-opacity="0"/><path d="M818.5 740a1.5 1.5 0 0 1 1.5-1.5 1.5 1.5 0 0 1 1.5 1.5 1.5 1.5 0 0 1-1.5 1.5 1.5 1.5 0 0 1-1.5-1.5m2.73-9.96a1.5 1.5 0 0 1 1.5-1.5 1.5 1.5 0 0 1 1.5 1.5 1.5 1.5 0 0 1-1.5 1.5 1.5 1.5 0 0 1-1.5-1.5V730m7.3-7.26a1.5 1.5 0 0 1 1.5-1.5 1.5 1.5 0 0 1 1.5 1.5 1.5 1.5 0 0 1-1.5 1.5 1.5 1.5 0 0 1-1.5-1.5v-.03m9.97-2.7a1.5 1.5 0 0 1 1.5-1.5 1.5 1.5 0 0 1 1.5 1.5 1.5 1.5 0 0 1-1.5 1.5 1.5 1.5 0 0 1-1.5-1.5m12.22 0a1.5 1.5 0 0 1 1.5-1.5 1.5 1.5 0 0 1 1.5 1.5 1.5 1.5 0 0 1-1.5 1.5 1.5 1.5 0 0 1-1.5-1.5m12.23 0a1.5 1.5 0 0 1 1.5-1.5 1.5 1.5 0 0 1 1.5 1.5 1.5 1.5 0 0 1-1.5 1.5 1.5 1.5 0 0 1-1.5-1.5m12.22 0a1.5 1.5 0 0 1 1.5-1.5 1.5 1.5 0 0 1 1.5 1.5 1.5 1.5 0 0 1-1.5 1.5 1.5 1.5 0 0 1-1.5-1.5m12.22 0a1.5 1.5 0 0 1 1.5-1.5 1.5 1.5 0 0 1 1.5 1.5 1.5 1.5 0 0 1-1.5 1.5 1.5 1.5 0 0 1-1.5-1.5m12.2 0a1.5 1.5 0 0 1 1.5-1.5 1.5 1.5 0 0 1 1.5 1.5 1.5 1.5 0 0 1-1.5 1.5 1.5 1.5 0 0 1-1.5-1.5m12.23 0a1.5 1.5 0 0 1 1.5-1.5 1.5 1.5 0 0 1 1.5 1.5 1.5 1.5 0 0 1-1.5 1.5 1.5 1.5 0 0 1-1.5-1.5m12.23 0a1.5 1.5 0 0 1 1.5-1.5 1.5 1.5 0 0 1 1.5 1.5 1.5 1.5 0 0 1-1.5 1.5 1.5 1.5 0 0 1-1.5-1.5m12.22 0a1.5 1.5 0 0 1 1.5-1.5 1.5 1.5 0 0 1 1.5 1.5 1.5 1.5 0 0 1-1.5 1.5 1.5 1.5 0 0 1-1.5-1.5m12.22 0a1.5 1.5 0 0 1 1.5-1.5 1.5 1.5 0 0 1 1.5 1.5 1.5 1.5 0 0 1-1.5 1.5 1.5 1.5 0 0 1-1.5-1.5m12.22 0a1.5 1.5 0 0 1 1.5-1.5 1.5 1.5 0 0 1 1.5 1.5 1.5 1.5 0 0 1-1.5 1.5 1.5 1.5 0 0 1-1.5-1.5m12.23 0a1.5 1.5 0 0 1 1.5-1.5 1.5 1.5 0 0 1 1.5 1.5 1.5 1.5 0 0 1-1.5 1.5 1.5 1.5 0 0 1-1.5-1.5m12.22 0a1.5 1.5 0 0 1 1.5-1.5 1.5 1.5 0 0 1 1.5 1.5 1.5 1.5 0 0 1-1.5 1.5 1.5 1.5 0 0 1-1.5-1.5m12.22 0a1.5 1.5 0 0 1 1.5-1.5 1.5 1.5 0 0 1 1.5 1.5 1.5 1.5 0 0 1-1.5 1.5 1.5 1.5 0 0 1-1.5-1.5m12.2 0a1.5 1.5 0 0 1 1.5-1.5 1.5 1.5 0 0 1 1.5 1.5 1.5 1.5 0 0 1-1.5 1.5 1.5 1.5 0 0 1-1.5-1.5m12.23 0a1.5 1.5 0 0 1 1.5-1.5 1.5 1.5 0 0 1 1.5 1.5 1.5 1.5 0 0 1-1.5 1.5 1.5 1.5 0 0 1-1.5-1.5m12.23 0a1.5 1.5 0 0 1 1.5-1.5 1.5 1.5 0 0 1 1.5 1.5 1.5 1.5 0 0 1-1.5 1.5 1.5 1.5 0 0 1-1.5-1.5m12.22 0a1.5 1.5 0 0 1 1.5-1.5 1.5 1.5 0 0 1 1.5 1.5 1.5 1.5 0 0 1-1.5 1.5 1.5 1.5 0 0 1-1.5-1.5m12.22 0a1.5 1.5 0 0 1 1.5-1.5 1.5 1.5 0 0 1 1.5 1.5 1.5 1.5 0 0 1-1.5 1.5 1.5 1.5 0 0 1-1.5-1.5m9.97 2.74a1.5 1.5 0 0 1 1.5-1.5 1.5 1.5 0 0 1 1.5 1.5 1.5 1.5 0 0 1-1.5 1.5 1.5 1.5 0 0 1-1.5-1.5v-.03m7.3 7.34a1.5 1.5 0 0 1 1.5-1.5 1.5 1.5 0 0 1 1.5 1.5 1.5 1.5 0 0 1-1.5 1.5 1.5 1.5 0 0 1-1.5-1.5V730m2.73 10a1.5 1.5 0 0 1 1.5-1.5 1.5 1.5 0 0 1 1.5 1.5 1.5 1.5 0 0 1-1.5 1.5 1.5 1.5 0 0 1-1.5-1.5m0 12.5a1.5 1.5 0 0 1 1.5-1.5 1.5 1.5 0 0 1 1.5 1.5 1.5 1.5 0 0 1-1.5 1.5 1.5 1.5 0 0 1-1.5-1.5m0 12.5a1.5 1.5 0 0 1 1.5-1.5 1.5 1.5 0 0 1 1.5 1.5 1.5 1.5 0 0 1-1.5 1.5 1.5 1.5 0 0 1-1.5-1.5m0 12.5a1.5 1.5 0 0 1 1.5-1.5 1.5 1.5 0 0 1 1.5 1.5 1.5 1.5 0 0 1-1.5 1.5 1.5 1.5 0 0 1-1.5-1.5m0 12.5a1.5 1.5 0 0 1 1.5-1.5 1.5 1.5 0 0 1 1.5 1.5 1.5 1.5 0 0 1-1.5 1.5 1.5 1.5 0 0 1-1.5-1.5m0 12.5a1.5 1.5 0 0 1 1.5-1.5 1.5 1.5 0 0 1 1.5 1.5 1.5 1.5 0 0 1-1.5 1.5 1.5 1.5 0 0 1-1.5-1.5m0 12.5a1.5 1.5 0 0 1 1.5-1.5 1.5 1.5 0 0 1 1.5 1.5 1.5 1.5 0 0 1-1.5 1.5 1.5 1.5 0 0 1-1.5-1.5m0 12.5a1.5 1.5 0 0 1 1.5-1.5 1.5 1.5 0 0 1 1.5 1.5 1.5 1.5 0 0 1-1.5 1.5 1.5 1.5 0 0 1-1.5-1.5m0 12.5a1.5 1.5 0 0 1 1.5-1.5 1.5 1.5 0 0 1 1.5 1.5 1.5 1.5 0 0 1-1.5 1.5 1.5 1.5 0 0 1-1.5-1.5m-2.73 10v-.03a1.5 1.5 0 0 1 1.5-1.5 1.5 1.5 0 0 1 1.5 1.5 1.5 1.5 0 0 1-1.5 1.5 1.5 1.5 0 0 1-1.5-1.5m-7.3 7.32v-.03a1.5 1.5 0 0 1 1.5-1.5 1.5 1.5 0 0 1 1.5 1.5 1.5 1.5 0 0 1-1.5 1.5 1.5 1.5 0 0 1-1.5-1.5m-9.97 2.75V860a1.5 1.5 0 0 1 1.5-1.5 1.5 1.5 0 0 1 1.5 1.5 1.5 1.5 0 0 1-1.5 1.5 1.5 1.5 0 0 1-1.5-1.5m-12.22 0a1.5 1.5 0 0 1 1.5-1.5 1.5 1.5 0 0 1 1.5 1.5 1.5 1.5 0 0 1-1.5 1.5 1.5 1.5 0 0 1-1.5-1.5m-12.22 0a1.5 1.5 0 0 1 1.5-1.5 1.5 1.5 0 0 1 1.5 1.5 1.5 1.5 0 0 1-1.5 1.5 1.5 1.5 0 0 1-1.5-1.5m-12.23 0a1.5 1.5 0 0 1 1.5-1.5 1.5 1.5 0 0 1 1.5 1.5 1.5 1.5 0 0 1-1.5 1.5 1.5 1.5 0 0 1-1.5-1.5m-12.22 0a1.5 1.5 0 0 1 1.5-1.5 1.5 1.5 0 0 1 1.5 1.5 1.5 1.5 0 0 1-1.5 1.5 1.5 1.5 0 0 1-1.5-1.5m-12.2 0a1.5 1.5 0 0 1 1.5-1.5 1.5 1.5 0 0 1 1.5 1.5 1.5 1.5 0 0 1-1.5 1.5 1.5 1.5 0 0 1-1.5-1.5m-12.23 0a1.5 1.5 0 0 1 1.5-1.5 1.5 1.5 0 0 1 1.5 1.5 1.5 1.5 0 0 1-1.5 1.5 1.5 1.5 0 0 1-1.5-1.5m-12.22 0a1.5 1.5 0 0 1 1.5-1.5 1.5 1.5 0 0 1 1.5 1.5 1.5 1.5 0 0 1-1.5 1.5 1.5 1.5 0 0 1-1.5-1.5m-12.23 0a1.5 1.5 0 0 1 1.5-1.5 1.5 1.5 0 0 1 1.5 1.5 1.5 1.5 0 0 1-1.5 1.5 1.5 1.5 0 0 1-1.5-1.5m-12.22 0a1.5 1.5 0 0 1 1.5-1.5 1.5 1.5 0 0 1 1.5 1.5 1.5 1.5 0 0 1-1.5 1.5 1.5 1.5 0 0 1-1.5-1.5m-12.22 0a1.5 1.5 0 0 1 1.5-1.5 1.5 1.5 0 0 1 1.5 1.5 1.5 1.5 0 0 1-1.5 1.5 1.5 1.5 0 0 1-1.5-1.5m-12.22 0a1.5 1.5 0 0 1 1.5-1.5 1.5 1.5 0 0 1 1.5 1.5 1.5 1.5 0 0 1-1.5 1.5 1.5 1.5 0 0 1-1.5-1.5m-12.23 0a1.5 1.5 0 0 1 1.5-1.5 1.5 1.5 0 0 1 1.5 1.5 1.5 1.5 0 0 1-1.5 1.5 1.5 1.5 0 0 1-1.5-1.5m-12.22 0a1.5 1.5 0 0 1 1.5-1.5 1.5 1.5 0 0 1 1.5 1.5 1.5 1.5 0 0 1-1.5 1.5 1.5 1.5 0 0 1-1.5-1.5m-12.2 0a1.5 1.5 0 0 1 1.5-1.5 1.5 1.5 0 0 1 1.5 1.5 1.5 1.5 0 0 1-1.5 1.5 1.5 1.5 0 0 1-1.5-1.5m-12.23 0a1.5 1.5 0 0 1 1.5-1.5 1.5 1.5 0 0 1 1.5 1.5 1.5 1.5 0 0 1-1.5 1.5 1.5 1.5 0 0 1-1.5-1.5m-12.22 0a1.5 1.5 0 0 1 1.5-1.5 1.5 1.5 0 0 1 1.5 1.5 1.5 1.5 0 0 1-1.5 1.5 1.5 1.5 0 0 1-1.5-1.5m-12.23 0a1.5 1.5 0 0 1 1.5-1.5 1.5 1.5 0 0 1 1.5 1.5 1.5 1.5 0 0 1-1.5 1.5 1.5 1.5 0 0 1-1.5-1.5m-12.22 0a1.5 1.5 0 0 1 1.5-1.5 1.5 1.5 0 0 1 1.5 1.5 1.5 1.5 0 0 1-1.5 1.5 1.5 1.5 0 0 1-1.5-1.5m-9.97-2.7v-.03a1.5 1.5 0 0 1 1.5-1.5 1.5 1.5 0 0 1 1.5 1.5 1.5 1.5 0 0 1-1.5 1.5 1.5 1.5 0 0 1-1.5-1.5m-7.3-7.28v-.03a1.5 1.5 0 0 1 1.5-1.5 1.5 1.5 0 0 1 1.5 1.5 1.5 1.5 0 0 1-1.5 1.5 1.5 1.5 0 0 1-1.5-1.5M818.5 840a1.5 1.5 0 0 1 1.5-1.5 1.5 1.5 0 0 1 1.5 1.5 1.5 1.5 0 0 1-1.5 1.5 1.5 1.5 0 0 1-1.5-1.5m0-12.5a1.5 1.5 0 0 1 1.5-1.5 1.5 1.5 0 0 1 1.5 1.5 1.5 1.5 0 0 1-1.5 1.5 1.5 1.5 0 0 1-1.5-1.5m0-12.5a1.5 1.5 0 0 1 1.5-1.5 1.5 1.5 0 0 1 1.5 1.5 1.5 1.5 0 0 1-1.5 1.5 1.5 1.5 0 0 1-1.5-1.5m0-12.5a1.5 1.5 0 0 1 1.5-1.5 1.5 1.5 0 0 1 1.5 1.5 1.5 1.5 0 0 1-1.5 1.5 1.5 1.5 0 0 1-1.5-1.5m0-12.5a1.5 1.5 0 0 1 1.5-1.5 1.5 1.5 0 0 1 1.5 1.5 1.5 1.5 0 0 1-1.5 1.5 1.5 1.5 0 0 1-1.5-1.5m0-12.5a1.5 1.5 0 0 1 1.5-1.5 1.5 1.5 0 0 1 1.5 1.5 1.5 1.5 0 0 1-1.5 1.5 1.5 1.5 0 0 1-1.5-1.5m0-12.5a1.5 1.5 0 0 1 1.5-1.5 1.5 1.5 0 0 1 1.5 1.5 1.5 1.5 0 0 1-1.5 1.5 1.5 1.5 0 0 1-1.5-1.5m0-12.5a1.5 1.5 0 0 1 1.5-1.5 1.5 1.5 0 0 1 1.5 1.5 1.5 1.5 0 0 1-1.5 1.5 1.5 1.5 0 0 1-1.5-1.5"/><path d="M720 760a20 20 0 0 1 20-20h20a20 20 0 0 1 20 20v60a20 20 0 0 1-20 20h-20a20 20 0 0 1-20-20z" stroke="#008a0e" stroke-width="3" fill="url(#l)"/><path d="M920 759.68a20 20 0 0 1 20-20h20a20 20 0 0 1 20 20V820a20 20 0 0 1-20 20h-20a20 20 0 0 1-20-20z" stroke="#000" stroke-width="3" fill="url(#m)"/><path d="M1120 760a20 20 0 0 1 20-20h20a20 20 0 0 1 20 20v60a20 20 0 0 1-20 20h-20a20 20 0 0 1-20-20z" stroke="#1071e5" stroke-width="3" fill="url(#n)"/><path d="M1120 836.5v-93" stroke="#1071e5" stroke-width="7" fill="none"/><path d="M1123.47 840h-6.94v-3.6h6.94z" stroke="#1071e5" stroke-width=".05" fill="#1071e5"/><path d="M1120 743.6V740" stroke="#1071e5" stroke-width="7" fill="none"/><path d="M780 836.5v-93" stroke="#008a0e" stroke-width="7" fill="none"/><path d="M783.48 840h-6.96v-3.6h6.96z" stroke="#008a0e" stroke-width=".05" fill="#008a0e"/><path d="M780 743.6V740" stroke="#008a0e" stroke-width="7" fill="none"/><path d="M800 790.08l37.5-.1" stroke="#008a0e" stroke-width="2" fill="none"/><path d="M784.74 790.12l14.25-4.67v9.27z" stroke="#008a0e" stroke-width="2" fill="#fff"/><path d="M838.5 790.95h-1.02V789h1.02z" stroke="#008a0e" stroke-width=".05" fill="#008a0e"/><path d="M1100 790.28l-37.5.3" stroke="#1071e5" stroke-width="2" fill="none"/><path d="M1115.26 790.16l-14.22 4.75-.08-9.26z" stroke="#1071e5" stroke-width="2" fill="#fff"/><path d="M1062.53 791.55h-1.03v-1.94h1.02z" stroke="#1071e5" stroke-width=".05" fill="#1071e5"/><path d="M1020 759.68a20 20 0 0 1 20-20 20 20 0 0 1 20 20v60a20 20 0 0 1-20 20 20 20 0 0 1-20-20z" stroke="#000" stroke-width="3" fill="#fff"/><use xlink:href="#o" transform="matrix(-1.8369701987210297e-16,-1,1,-1.8369701987210297e-16,1025,834.6843792060344) translate(6.146975308641972 19.65277777777778)"/><path d="M840 759.37a20 20 0 0 1 20-20 20 20 0 0 1 20 20v60.3a20 20 0 0 1-20 20 20 20 0 0 1-20-20z" stroke="#000" stroke-width="3" fill="#fff"/><use xlink:href="#o" transform="matrix(-1.8369701987210297e-16,-1,1,-1.8369701987210297e-16,845,834.6843792060342) translate(6.646975308641972 19.65277777777778)"/><path d="M920 836.5v-93M920 836.4v3.6M920 743.6V740" stroke="#000" stroke-width="7" fill="none"/><path d="M901.5 789.48l-19 .04" stroke="#000" stroke-width="2" fill="none"/><path d="M916.76 789.45l-14.25 4.66v-9.26z" stroke="#000" stroke-width="2" fill="#fff"/><path d="M882.53 790.5h-1.03v-1.95h1.02z" stroke="#000" stroke-width=".05"/><path d="M1000 789.68h17.5" stroke="#000" stroke-width="2" fill="none"/><path d="M984.74 789.68l14.26-4.63v9.27z" stroke="#000" stroke-width="2" fill="#fff"/><path d="M1018.5 790.66h-1.03v-1.95h1.03z" stroke="#000" stroke-width=".05"/><path d="M980 836.5v-93M980 836.4v3.6M980 743.6V740" stroke="#000" stroke-width="7" fill="none"/><path d="M1020 540.9a20 20 0 0 1 20-20 20 20 0 0 1 20 20V600a20 20 0 0 1-20 20 20 20 0 0 1-20-20z" stroke="#000" stroke-width="3" fill="#ced4db"/><use xlink:href="#p" transform="matrix(-1.8369701987210297e-16,-1,1,-1.8369701987210297e-16,1025,614.9999999999999) translate(20.70870370370371 19.65277777777778)"/><path d="M720 540a20 20 0 0 1 20-20h20a20 20 0 0 1 20 20v60a20 20 0 0 1-20 20h-20a20 20 0 0 1-20-20z" stroke="#008a0e" stroke-width="3" fill="url(#q)"/><path d="M920 539.68a20 20 0 0 1 20-20h20a20 20 0 0 1 20 20V600a20 20 0 0 1-20 20h-20a20 20 0 0 1-20-20z" stroke="#000" stroke-width="3" fill="url(#r)"/><path d="M1120 540a20 20 0 0 1 20-20h20a20 20 0 0 1 20 20v60a20 20 0 0 1-20 20h-20a20 20 0 0 1-20-20z" stroke="#1071e5" stroke-width="3" fill="url(#s)"/><path d="M1120 616.5v-93" stroke="#1071e5" stroke-width="7" fill="none"/><path d="M1123.47 620h-6.94v-3.6h6.94z" stroke="#1071e5" stroke-width=".05" fill="#1071e5"/><path d="M1120 523.6V520" stroke="#1071e5" stroke-width="7" fill="none"/><path d="M780 616.5v-93" stroke="#008a0e" stroke-width="7" fill="none"/><path d="M783.48 620h-6.96v-3.6h6.96z" stroke="#008a0e" stroke-width=".05" fill="#008a0e"/><path d="M780 523.6V520" stroke="#008a0e" stroke-width="7" fill="none"/><path d="M800 570.1l37.5-.1" stroke="#008a0e" stroke-width="2" fill="none"/><path d="M784.74 570.13l14.25-4.67v9.27z" stroke="#008a0e" stroke-width="2" fill="#fff"/><path d="M838.5 570.98h-1.02v-1.95h1.02z" stroke="#008a0e" stroke-width=".05" fill="#008a0e"/><path d="M1100 570.24l-37.5.2" stroke="#1071e5" stroke-width="2" fill="none"/><path d="M1115.26 570.16l-14.24 4.7-.05-9.26z" stroke="#1071e5" stroke-width="2" fill="#fff"/><path d="M1062.53 571.4l-1.03.02v-1.95h1.02z" stroke="#1071e5" stroke-width=".05" fill="#1071e5"/><path d="M920 616.5v-93M920 616.4v3.6M920 523.6V520" stroke="#000" stroke-width="7" fill="none"/><path d="M901.5 569.7l-19 .28" stroke="#000" stroke-width="2" fill="none"/><path d="M916.76 569.5l-14.2 4.83-.13-9.27z" stroke="#000" stroke-width="2" fill="#fff"/><path d="M882.54 570.96h-1.04v-1.94h1z" stroke="#000" stroke-width=".05"/><path d="M1000 570.06l17.5.36" stroke="#000" stroke-width="2" fill="none"/><path d="M984.74 569.75l14.35-4.34-.2 9.28z" stroke="#000" stroke-width="2" fill="#fff"/><path d="M1018.5 569.47v1.95l-1.04-.02.03-1.95z" stroke="#000" stroke-width=".05"/><path d="M980 616.5v-93M980 616.4v3.6M980 523.6V520" stroke="#000" stroke-width="7" fill="none"/><path d="M840 540.44a20 20 0 0 1 20-20 20 20 0 0 1 20 20v59.12a20 20 0 0 1-20 20 20 20 0 0 1-20-20z" stroke="#000" stroke-width="3" fill="#ced4db"/><use xlink:href="#p" transform="matrix(-1.8369701987210297e-16,-1,1,-1.8369701987210297e-16,845,614.5567289414743) translate(20.70870370370371 19.65277777777778)"/><path d="M419.05 739.7l-2.93-.95m-3.9-1.26l-5.86-1.9m-3.9-1.26l-5.86-1.9m-3.9-1.25l-5.87-1.9m-3.9-1.25l-5.86-1.9m-3.9-1.25l-5.86-1.9m-3.9-1.25l-5.85-1.9m-3.9-1.25l-5.86-1.9m-3.92-1.25l-2.93-.94M419.02 739.68l.98.32" stroke="#000" stroke-width="2" fill="none"/><path d="M341.27 713.6l-.6 1.85-.67-.22v-2.05z" stroke="#000" stroke-width=".05"/><path d="M1260 586.67a6 6 0 0 1 6-6h208a6 6 0 0 1 6 6v184.66a6 6 0 0 1-6 6h-208a6 6 0 0 1-6-6z" stroke="#000" stroke-opacity="0" stroke-width="3" fill="#fff" fill-opacity="0"/><use xlink:href="#t" transform="matrix(1,0,0,1,1265,585.6666666666667) translate(42.00000000000004 30.73263888888888)"/><use xlink:href="#u" transform="matrix(1,0,0,1,1265,585.6666666666667) translate(69.65432098765434 30.73263888888888)"/><use xlink:href="#v" transform="matrix(1,0,0,1,1265,585.6666666666667) translate(54.05555555555558 68.0659722222222)"/><use xlink:href="#w" transform="matrix(1,0,0,1,1265,585.6666666666667) translate(121.37654320987653 68.0659722222222)"/><use xlink:href="#x" transform="matrix(1,0,0,1,1265,585.6666666666667) translate(8.339506172839549 105.39930555555551)"/><use xlink:href="#y" transform="matrix(1,0,0,1,1265,585.6666666666667) translate(146.52469135802468 105.39930555555551)"/><use xlink:href="#z" transform="matrix(1,0,0,1,1265,585.6666666666667) translate(14.734567901234612 142.73263888888883)"/><use xlink:href="#A" transform="matrix(1,0,0,1,1265,585.6666666666667) translate(113.08024691358025 142.73263888888883)"/><use xlink:href="#B" transform="matrix(1,0,0,1,1265,585.6666666666667) translate(24.71604938271608 180.06597222222214)"/><use xlink:href="#C" transform="matrix(1,0,0,1,1265,585.6666666666667) translate(60.92592592592594 180.06597222222214)"/><path d="M1259.06 679.35l-2.82 1.06m-3.76 1.4l-5.64 2.13m-3.77 1.4l-5.64 2.12m-3.76 1.4l-5.65 2.12m-3.76 1.4l-5.64 2.12m-3.77 1.4l-5.64 2.1m-3.75 1.4l-5.65 2.13m-3.76 1.4l-5.64 2.12m-3.77 1.4l-5.64 2.12m-3.77 1.4l-5.65 2.12m-3.76 1.4l-5.64 2.1m-3.77 1.4l-5.63 2.13m-3.76 1.4l-5.64 2.12m-3.76 1.4l-5.64 2.12m-3.77 1.4l-5.65 2.1m-3.76 1.42l-5.65 2.1m-3.77 1.4l-5.64 2.12m-3.77 1.4l-5.64 2.12m-3.76 1.4l-5.64 2.12m-3.77 1.4l-5.64 2.12m-3.76 1.4l-5.65 2.12m-3.75 1.4l-2.82 1.07" stroke="#000" stroke-width="2" fill="none"/><path d="M1260 680.04l-.62.23-.68-1.82 1.3-.5zM1061.9 754.17l-1.08.4-.37-1.53-.14-.36.9-.33z" stroke="#000" stroke-width=".05"/><path d="M1100 846a6 6 0 0 1 6-6h28a6 6 0 0 1 6 6v8a6 6 0 0 1-6 6h-28a6 6 0 0 1-6-6z" stroke="#000" stroke-opacity="0" stroke-width="2" fill="#fff" fill-opacity="0"/><g><use xlink:href="#k" transform="matrix(1,0,0,1,1105,845) translate(-2.9876543209876516 17.777777777777775)"/></g><path d="M1100 626a6 6 0 0 1 6-6h28a6 6 0 0 1 6 6v8a6 6 0 0 1-6 6h-28a6 6 0 0 1-6-6z" stroke="#000" stroke-opacity="0" stroke-width="2" fill="#fff" fill-opacity="0"/><g><use xlink:href="#k" transform="matrix(1,0,0,1,1105,625) translate(-2.9876543209876516 17.777777777777775)"/></g><path d="M760 846a6 6 0 0 1 6-6h28a6 6 0 0 1 6 6v8a6 6 0 0 1-6 6h-28a6 6 0 0 1-6-6z" stroke="#000" stroke-opacity="0" stroke-width="2" fill="#fff" fill-opacity="0"/><g><use xlink:href="#D" transform="matrix(1,0,0,1,765,845) translate(-2.9876543209876516 17.777777777777775)"/></g><path d="M760 626a6 6 0 0 1 6-6h28a6 6 0 0 1 6 6v8a6 6 0 0 1-6 6h-28a6 6 0 0 1-6-6z" stroke="#000" stroke-opacity="0" stroke-width="2" fill="#fff" fill-opacity="0"/><g><use xlink:href="#E" transform="matrix(1,0,0,1,765,625) translate(-2.9876543209876516 17.777777777777775)"/></g><path d="M1259.06 678.66l-2.83-1.02m-3.77-1.36l-5.65-2.03m-3.76-1.36l-5.65-2.04m-3.78-1.36l-5.65-2.04m-3.77-1.36l-5.65-2.03m-3.77-1.36l-5.65-2.03m-3.77-1.35l-5.65-2.04m-3.76-1.36l-5.65-2.03m-3.78-1.37l-5.65-2.04m-3.77-1.37l-5.65-2.03m-3.77-1.36l-5.65-2.04m-3.77-1.36l-5.65-2.03m-3.76-1.35l-5.65-2.04m-3.78-1.34l-5.65-2.04m-3.77-1.36l-5.65-2.03m-3.77-1.36l-5.66-2.04m-3.76-1.36l-5.66-2.03m-3.77-1.36l-5.65-2.04m-3.77-1.35l-5.64-2.05m-3.77-1.36l-5.66-2.04m-3.77-1.36l-5.65-2.04m-3.77-1.36l-2.82-1" stroke="#000" stroke-width="2" fill="none"/><path d="M1260 677.96v2.08l-1.3-.47.67-1.84zM1061.58 606.48l-.66 1.83-1-.35.53-1.3.13-.53z" stroke="#000" stroke-width=".05"/><defs><path d="M30-248c118-7 216 8 213 122C240-48 200 0 122 0H30v-248zM63-27c89 8 146-16 146-99s-60-101-146-95v194" id="F"/><path d="M141-36C126-15 110 5 73 4 37 3 15-17 15-53c-1-64 63-63 125-63 3-35-9-54-41-54-24 1-41 7-42 31l-33-3c5-37 33-52 76-52 45 0 72 20 72 64v82c-1 20 7 32 28 27v20c-31 9-61-2-59-35zM48-53c0 20 12 33 32 33 41-3 63-29 60-74-43 2-92-5-92 41" id="G"/><path d="M59-47c-2 24 18 29 38 22v24C64 9 27 4 27-40v-127H5v-23h24l9-43h21v43h35v23H59v120" id="H"/><path d="M115-194c53 0 69 39 70 98 0 66-23 100-70 100C84 3 66-7 56-30L54 0H23l1-261h32v101c10-23 28-34 59-34zm-8 174c40 0 45-34 45-75 0-40-5-75-45-74-42 0-51 32-51 76 0 43 10 73 51 73" id="I"/><path d="M135-143c-3-34-86-38-87 0 15 53 115 12 119 90S17 21 10-45l28-5c4 36 97 45 98 0-10-56-113-15-118-90-4-57 82-63 122-42 12 7 21 19 24 35" id="J"/><path d="M100-194c63 0 86 42 84 106H49c0 40 14 67 53 68 26 1 43-12 49-29l28 8c-11 28-37 45-77 45C44 4 14-33 15-96c1-61 26-98 85-98zm52 81c6-60-76-77-97-28-3 7-6 17-6 28h103" id="K"/><g id="a"><use transform="matrix(0.06172839506172839,0,0,0.06172839506172839,0,0)" xlink:href="#F"/><use transform="matrix(0.06172839506172839,0,0,0.06172839506172839,15.987654320987653,0)" xlink:href="#G"/><use transform="matrix(0.06172839506172839,0,0,0.06172839506172839,28.333333333333332,0)" xlink:href="#H"/><use transform="matrix(0.06172839506172839,0,0,0.06172839506172839,34.50617283950617,0)" xlink:href="#G"/><use transform="matrix(0.06172839506172839,0,0,0.06172839506172839,46.85185185185185,0)" xlink:href="#I"/><use transform="matrix(0.06172839506172839,0,0,0.06172839506172839,59.197530864197525,0)" xlink:href="#G"/><use transform="matrix(0.06172839506172839,0,0,0.06172839506172839,71.5432098765432,0)" xlink:href="#J"/><use transform="matrix(0.06172839506172839,0,0,0.06172839506172839,82.65432098765432,0)" xlink:href="#K"/></g><linearGradient gradientUnits="userSpaceOnUse" id="b" x1="420" y1="698" x2="420" y2="660"><stop offset="16.3%" stop-color="#fff"/><stop offset="27.17%" stop-color="#cfe4ff"/><stop offset="68.12%" stop-color="#cfe4ff"/><stop offset="79.71%" stop-color="#c3f7c8"/></linearGradient><path d="M160-131c35 5 61 23 61 61C221 17 115-2 30 0v-248c76 3 177-17 177 60 0 33-19 50-47 57zm-97-11c50-1 110 9 110-42 0-47-63-36-110-37v79zm0 115c55-2 124 14 124-45 0-56-70-42-124-44v89" id="L"/><path d="M96-169c-40 0-48 33-48 73s9 75 48 75c24 0 41-14 43-38l32 2c-6 37-31 61-74 61-59 0-76-41-82-99-10-93 101-131 147-64 4 7 5 14 7 22l-32 3c-4-21-16-35-41-35" id="M"/><path d="M143 0L79-87 56-68V0H24v-261h32v163l83-92h37l-77 82L181 0h-38" id="N"/><path d="M117-194c89-4 53 116 60 194h-32v-121c0-31-8-49-39-48C34-167 62-67 57 0H25l-1-190h30c1 10-1 24 2 32 11-22 29-35 61-36" id="O"/><path d="M85-194c31 0 48 13 60 33l-1-100h32l1 261h-30c-2-10 0-23-3-31C134-8 116 4 85 4 32 4 16-35 15-94c0-66 23-100 70-100zm9 24c-40 0-46 34-46 75 0 40 6 74 45 74 42 0 51-32 51-76 0-42-9-74-50-73" id="P"/><g id="c"><use transform="matrix(0.06172839506172839,0,0,0.06172839506172839,0,0)" xlink:href="#L"/><use transform="matrix(0.06172839506172839,0,0,0.06172839506172839,14.814814814814813,0)" xlink:href="#G"/><use transform="matrix(0.06172839506172839,0,0,0.06172839506172839,27.160493827160494,0)" xlink:href="#M"/><use transform="matrix(0.06172839506172839,0,0,0.06172839506172839,38.27160493827161,0)" xlink:href="#N"/><use transform="matrix(0.06172839506172839,0,0,0.06172839506172839,49.38271604938272,0)" xlink:href="#K"/><use transform="matrix(0.06172839506172839,0,0,0.06172839506172839,61.7283950617284,0)" xlink:href="#O"/><use transform="matrix(0.06172839506172839,0,0,0.06172839506172839,74.07407407407408,0)" xlink:href="#P"/></g><path d="M63-220v92h138v28H63V0H30v-248h175v28H63" id="Q"/><path d="M114-163C36-179 61-72 57 0H25l-1-190h30c1 12-1 29 2 39 6-27 23-49 58-41v29" id="R"/><path d="M100-194c62-1 85 37 85 99 1 63-27 99-86 99S16-35 15-95c0-66 28-99 85-99zM99-20c44 1 53-31 53-75 0-43-8-75-51-75s-53 32-53 75 10 74 51 75" id="S"/><g id="d"><use transform="matrix(0.06172839506172839,0,0,0.06172839506172839,0,0)" xlink:href="#Q"/><use transform="matrix(0.06172839506172839,0,0,0.06172839506172839,13.518518518518517,0)" xlink:href="#R"/><use transform="matrix(0.06172839506172839,0,0,0.06172839506172839,20.864197530864196,0)" xlink:href="#S"/><use transform="matrix(0.06172839506172839,0,0,0.06172839506172839,33.20987654320987,0)" xlink:href="#O"/><use transform="matrix(0.06172839506172839,0,0,0.06172839506172839,45.55555555555555,0)" xlink:href="#H"/><use transform="matrix(0.06172839506172839,0,0,0.06172839506172839,51.72839506172839,0)" xlink:href="#K"/><use transform="matrix(0.06172839506172839,0,0,0.06172839506172839,64.07407407407408,0)" xlink:href="#O"/><use transform="matrix(0.06172839506172839,0,0,0.06172839506172839,76.41975308641976,0)" xlink:href="#P"/></g><path d="M11 0l48-248h34L50-27h125l-5 27H11" id="T"/><path d="M165-48c-4 18 1 34 23 27l-3 20c-29 8-62 0-52-35h-2C116-14 99 4 63 4 30 4 8-16 8-49c0-68 71-67 138-67 10-26 0-56-31-54-26 1-42 9-47 31l-32-5c8-67 160-71 144 15-5 28-9 54-15 81zM42-50c3 52 80 24 89-6 7-12 7-24 11-38-47 1-103-4-100 44" id="U"/><path d="M198-190L69 30C53 58 25 83-20 72c4-11-1-27 19-22 33-1 43-29 59-52L20-190h32L79-34l84-156h35" id="V"/><path d="M111-194c62-3 86 47 72 106H45c-7 38 6 69 45 68 27-1 43-14 53-32l24 11C152-15 129 4 87 4 38 3 12-23 12-71c0-70 32-119 99-123zm44 81c14-66-71-72-95-28-4 8-8 17-11 28h106" id="W"/><path d="M66-151c12-25 30-51 66-40l-6 26C45-176 58-65 38 0H6l36-190h30" id="X"/><path d="M55-144c13 50 104 24 104 88C159 21 15 23 1-39l26-10c6 40 102 42 102-4-13-50-104-23-104-87 0-71 143-71 148-8l-29 4c-5-35-85-37-89 0" id="Y"/><g id="e"><use transform="matrix(0.0864197530864197,0,0,0.0864197530864197,0,0)" xlink:href="#T"/><use transform="matrix(0.0864197530864197,0,0,0.0864197530864197,17.283950617283942,0)" xlink:href="#U"/><use transform="matrix(0.0864197530864197,0,0,0.0864197530864197,34.567901234567884,0)" xlink:href="#V"/><use transform="matrix(0.0864197530864197,0,0,0.0864197530864197,50.12345679012343,0)" xlink:href="#W"/><use transform="matrix(0.0864197530864197,0,0,0.0864197530864197,67.40740740740736,0)" xlink:href="#X"/><use transform="matrix(0.0864197530864197,0,0,0.0864197530864197,77.69135802469131,0)" xlink:href="#Y"/></g><path d="M101-234c-31-9-42 10-38 44h38v23H63V0H32v-167H5v-23h27c-7-52 17-82 69-68v24" id="Z"/><g id="f"><use transform="matrix(0.0864197530864197,0,0,0.0864197530864197,0,0)" xlink:href="#S"/><use transform="matrix(0.0864197530864197,0,0,0.0864197530864197,17.283950617283942,0)" xlink:href="#Z"/><use transform="matrix(0.0864197530864197,0,0,0.0864197530864197,25.925925925925913,0)" xlink:href="#H"/><use transform="matrix(0.0864197530864197,0,0,0.0864197530864197,34.567901234567884,0)" xlink:href="#K"/><use transform="matrix(0.0864197530864197,0,0,0.0864197530864197,51.851851851851826,0)" xlink:href="#O"/></g><path d="M24-231v-30h32v30H24zM24 0v-190h32V0H24" id="aa"/><path d="M210-169c-67 3-38 105-44 169h-31v-121c0-29-5-50-35-48C34-165 62-65 56 0H25l-1-190h30c1 10-1 24 2 32 10-44 99-50 107 0 11-21 27-35 58-36 85-2 47 119 55 194h-31v-121c0-29-5-49-35-48" id="ab"/><path d="M115-194c55 1 70 41 70 98S169 2 115 4C84 4 66-9 55-30l1 105H24l-1-265h31l2 30c10-21 28-34 59-34zm-8 174c40 0 45-34 45-75s-6-73-45-74c-42 0-51 32-51 76 0 43 10 73 51 73" id="ac"/><path d="M24 0v-261h32V0H24" id="ad"/><g id="g"><use transform="matrix(0.0864197530864197,0,0,0.0864197530864197,0,0)" xlink:href="#aa"/><use transform="matrix(0.0864197530864197,0,0,0.0864197530864197,6.827160493827157,0)" xlink:href="#ab"/><use transform="matrix(0.0864197530864197,0,0,0.0864197530864197,32.66666666666665,0)" xlink:href="#ac"/><use transform="matrix(0.0864197530864197,0,0,0.0864197530864197,49.95061728395059,0)" xlink:href="#ad"/><use transform="matrix(0.0864197530864197,0,0,0.0864197530864197,56.77777777777775,0)" xlink:href="#K"/><use transform="matrix(0.0864197530864197,0,0,0.0864197530864197,74.06172839506169,0)" xlink:href="#ab"/><use transform="matrix(0.0864197530864197,0,0,0.0864197530864197,99.90123456790118,0)" xlink:href="#K"/><use transform="matrix(0.0864197530864197,0,0,0.0864197530864197,117.18518518518515,0)" xlink:href="#O"/><use transform="matrix(0.0864197530864197,0,0,0.0864197530864197,134.46913580246908,0)" xlink:href="#H"/></g><g id="h"><use transform="matrix(0.0864197530864197,0,0,0.0864197530864197,0,0)" xlink:href="#J"/><use transform="matrix(0.0864197530864197,0,0,0.0864197530864197,15.555555555555546,0)" xlink:href="#H"/><use transform="matrix(0.0864197530864197,0,0,0.0864197530864197,24.197530864197518,0)" xlink:href="#G"/><use transform="matrix(0.0864197530864197,0,0,0.0864197530864197,41.48148148148146,0)" xlink:href="#O"/><use transform="matrix(0.0864197530864197,0,0,0.0864197530864197,58.7654320987654,0)" xlink:href="#P"/><use transform="matrix(0.0864197530864197,0,0,0.0864197530864197,76.04938271604934,0)" xlink:href="#G"/><use transform="matrix(0.0864197530864197,0,0,0.0864197530864197,93.33333333333329,0)" xlink:href="#R"/><use transform="matrix(0.0864197530864197,0,0,0.0864197530864197,103.61728395061724,0)" xlink:href="#P"/></g><path d="M205 0l-28-72H64L36 0H1l101-248h38L239 0h-34zm-38-99l-47-123c-12 45-31 82-46 123h93" id="ae"/><path d="M30-248c87 1 191-15 191 75 0 78-77 80-158 76V0H30v-248zm33 125c57 0 124 11 124-50 0-59-68-47-124-48v98" id="af"/><path d="M33 0v-248h34V0H33" id="ag"/><g id="i"><use transform="matrix(0.0864197530864197,0,0,0.0864197530864197,0,0)" xlink:href="#ae"/><use transform="matrix(0.0864197530864197,0,0,0.0864197530864197,20.74074074074073,0)" xlink:href="#af"/><use transform="matrix(0.0864197530864197,0,0,0.0864197530864197,41.48148148148146,0)" xlink:href="#ag"/><use transform="matrix(0.0864197530864197,0,0,0.0864197530864197,50.12345679012343,0)" xlink:href="#J"/></g><path fill="#008a0e" d="M169-182c-1-43-94-46-97-3 18 66 151 10 154 114 3 95-165 93-204 36-6-8-10-19-12-30l50-8c3 46 112 56 116 5-17-69-150-10-154-114-4-87 153-88 188-35 5 8 8 18 10 28" id="ah"/><path fill="#008a0e" d="M140-251c80 0 125 45 125 126 0 70-33 111-92 124 6 28 34 38 68 31l-1 36C177 83 129 55 120 2 51-6 15-50 15-125c0-81 44-126 125-126zm-1 214c52 0 73-35 73-88 0-50-21-86-72-86-52 0-73 35-73 86s22 88 72 88" id="ai"/><path fill="#008a0e" d="M24 0v-248h52v208h133V0H24" id="aj"/><g id="j"><use transform="matrix(0.061728395061728385,0,0,0.061728395061728385,0,0)" xlink:href="#ah"/><use transform="matrix(0.061728395061728385,0,0,0.061728395061728385,14.814814814814813,0)" xlink:href="#ai"/><use transform="matrix(0.061728395061728385,0,0,0.061728395061728385,32.09876543209876,0)" xlink:href="#aj"/></g><path fill="#1071e5" d="M199 0l-22-63H83L61 0H9l90-248h61L250 0h-51zm-33-102l-36-108c-10 38-24 72-36 108h72" id="ak"/><path fill="#1071e5" d="M24-248c93 1 206-16 204 79-1 75-69 88-152 82V0H24v-248zm52 121c47 0 100 7 100-41 0-47-54-39-100-39v80" id="al"/><path fill="#1071e5" d="M24 0v-248h52V0H24" id="am"/><g id="k"><use transform="matrix(0.061728395061728385,0,0,0.061728395061728385,0,0)" xlink:href="#ak"/><use transform="matrix(0.061728395061728385,0,0,0.061728395061728385,15.987654320987652,0)" xlink:href="#al"/><use transform="matrix(0.061728395061728385,0,0,0.061728395061728385,30.802469135802465,0)" xlink:href="#am"/></g><linearGradient gradientUnits="userSpaceOnUse" id="l" x1="720" y1="840" x2="720" y2="740"><stop offset="19.2%" stop-color="#ced4db"/><stop offset="26.45%" stop-color="#fff"/><stop offset="45.29%" stop-color="#fff"/><stop offset="52.54%" stop-color="#cfe4ff"/><stop offset="73.91%" stop-color="#cfe4ff"/><stop offset="82.97%" stop-color="#c3f7c8"/></linearGradient><linearGradient gradientUnits="userSpaceOnUse" id="m" x1="920" y1="840" x2="920" y2="739.68"><stop offset="19.2%" stop-color="#ced4db"/><stop offset="26.45%" stop-color="#fff"/><stop offset="45.29%" stop-color="#fff"/><stop offset="52.54%" stop-color="#cfe4ff"/><stop offset="73.91%" stop-color="#cfe4ff"/><stop offset="82.97%" stop-color="#c3f7c8"/></linearGradient><linearGradient gradientUnits="userSpaceOnUse" id="n" x1="1120" y1="840" x2="1120" y2="740"><stop offset="19.2%" stop-color="#ced4db"/><stop offset="26.45%" stop-color="#fff"/><stop offset="45.29%" stop-color="#fff"/><stop offset="52.54%" stop-color="#cfe4ff"/><stop offset="73.91%" stop-color="#cfe4ff"/><stop offset="82.97%" stop-color="#c3f7c8"/></linearGradient><g id="o"><use transform="matrix(0.06172839506172839,0,0,0.06172839506172839,0,0)" xlink:href="#ae"/><use transform="matrix(0.06172839506172839,0,0,0.06172839506172839,14.814814814814813,0)" xlink:href="#P"/><use transform="matrix(0.06172839506172839,0,0,0.06172839506172839,27.160493827160494,0)" xlink:href="#G"/><use transform="matrix(0.06172839506172839,0,0,0.06172839506172839,39.50617283950617,0)" xlink:href="#ac"/><use transform="matrix(0.06172839506172839,0,0,0.06172839506172839,51.85185185185185,0)" xlink:href="#H"/><use transform="matrix(0.06172839506172839,0,0,0.06172839506172839,58.02469135802469,0)" xlink:href="#K"/><use transform="matrix(0.06172839506172839,0,0,0.06172839506172839,70.37037037037037,0)" xlink:href="#R"/></g><path d="M137 0h-34L2-248h35l83 218 83-218h36" id="an"/><path d="M206 0h-36l-40-164L89 0H53L-1-190h32L70-26l43-164h34l41 164 42-164h31" id="ao"/><g id="p"><use transform="matrix(0.06172839506172839,0,0,0.06172839506172839,0,0)" xlink:href="#an"/><use transform="matrix(0.06172839506172839,0,0,0.06172839506172839,14.382716049382715,0)" xlink:href="#aa"/><use transform="matrix(0.06172839506172839,0,0,0.06172839506172839,19.25925925925926,0)" xlink:href="#K"/><use transform="matrix(0.06172839506172839,0,0,0.06172839506172839,31.604938271604937,0)" xlink:href="#ao"/></g><linearGradient gradientUnits="userSpaceOnUse" id="q" x1="720" y1="620" x2="720" y2="520"><stop offset="19.2%" stop-color="#ced4db"/><stop offset="26.45%" stop-color="#fff"/><stop offset="45.29%" stop-color="#fff"/><stop offset="52.54%" stop-color="#cfe4ff"/><stop offset="73.91%" stop-color="#cfe4ff"/><stop offset="82.97%" stop-color="#c3f7c8"/></linearGradient><linearGradient gradientUnits="userSpaceOnUse" id="r" x1="920" y1="620" x2="920" y2="519.68"><stop offset="19.2%" stop-color="#ced4db"/><stop offset="26.45%" stop-color="#fff"/><stop offset="45.29%" stop-color="#fff"/><stop offset="52.54%" stop-color="#cfe4ff"/><stop offset="73.91%" stop-color="#cfe4ff"/><stop offset="82.97%" stop-color="#c3f7c8"/></linearGradient><linearGradient gradientUnits="userSpaceOnUse" id="s" x1="1120" y1="620" x2="1120" y2="520"><stop offset="19.2%" stop-color="#ced4db"/><stop offset="26.45%" stop-color="#fff"/><stop offset="45.29%" stop-color="#fff"/><stop offset="52.54%" stop-color="#cfe4ff"/><stop offset="73.91%" stop-color="#cfe4ff"/><stop offset="82.97%" stop-color="#c3f7c8"/></linearGradient><use transform="matrix(0.0864197530864197,0,0,0.0864197530864197,0,0)" xlink:href="#ae" id="t"/><path d="M108 0H70L1-190h34L89-25l56-165h34" id="ap"/><g id="u"><use transform="matrix(0.0864197530864197,0,0,0.0864197530864197,0,0)" xlink:href="#J"/><use transform="matrix(0.0864197530864197,0,0,0.0864197530864197,15.555555555555546,0)" xlink:href="#K"/><use transform="matrix(0.0864197530864197,0,0,0.0864197530864197,32.83950617283949,0)" xlink:href="#R"/><use transform="matrix(0.0864197530864197,0,0,0.0864197530864197,43.12345679012344,0)" xlink:href="#ap"/><use transform="matrix(0.0864197530864197,0,0,0.0864197530864197,58.679012345678984,0)" xlink:href="#aa"/><use transform="matrix(0.0864197530864197,0,0,0.0864197530864197,65.50617283950614,0)" xlink:href="#M"/><use transform="matrix(0.0864197530864197,0,0,0.0864197530864197,81.06172839506168,0)" xlink:href="#K"/></g><path d="M179-190L93 31C79 59 56 82 12 73V49c39 6 53-20 64-50L1-190h34L92-34l54-156h33" id="aq"/><g id="v"><use transform="matrix(0.0864197530864197,0,0,0.0864197530864197,0,0)" xlink:href="#ab"/><use transform="matrix(0.0864197530864197,0,0,0.0864197530864197,25.839506172839492,0)" xlink:href="#G"/><use transform="matrix(0.0864197530864197,0,0,0.0864197530864197,43.123456790123434,0)" xlink:href="#aq"/></g><g id="w"><use transform="matrix(0.0864197530864197,0,0,0.0864197530864197,0,0)" xlink:href="#I"/><use transform="matrix(0.0864197530864197,0,0,0.0864197530864197,17.283950617283942,0)" xlink:href="#K"/></g><g id="x"><use transform="matrix(0.0864197530864197,0,0,0.0864197530864197,0,0)" xlink:href="#ac"/><use transform="matrix(0.0864197530864197,0,0,0.0864197530864197,17.283950617283942,0)" xlink:href="#R"/><use transform="matrix(0.0864197530864197,0,0,0.0864197530864197,27.567901234567888,0)" xlink:href="#S"/><use transform="matrix(0.0864197530864197,0,0,0.0864197530864197,44.85185185185184,0)" xlink:href="#H"/><use transform="matrix(0.0864197530864197,0,0,0.0864197530864197,53.49382716049381,0)" xlink:href="#K"/><use transform="matrix(0.0864197530864197,0,0,0.0864197530864197,70.77777777777774,0)" xlink:href="#M"/><use transform="matrix(0.0864197530864197,0,0,0.0864197530864197,86.33333333333329,0)" xlink:href="#H"/><use transform="matrix(0.0864197530864197,0,0,0.0864197530864197,94.97530864197526,0)" xlink:href="#K"/><use transform="matrix(0.0864197530864197,0,0,0.0864197530864197,112.25925925925922,0)" xlink:href="#P"/></g><path d="M106-169C34-169 62-67 57 0H25v-261h32l-1 103c12-21 28-36 61-36 89 0 53 116 60 194h-32v-121c2-32-8-49-39-48" id="ar"/><g id="y"><use transform="matrix(0.0864197530864197,0,0,0.0864197530864197,0,0)" xlink:href="#ao"/><use transform="matrix(0.0864197530864197,0,0,0.0864197530864197,22.382716049382704,0)" xlink:href="#aa"/><use transform="matrix(0.0864197530864197,0,0,0.0864197530864197,29.209876543209862,0)" xlink:href="#H"/><use transform="matrix(0.0864197530864197,0,0,0.0864197530864197,37.85185185185183,0)" xlink:href="#ar"/></g><path d="M125-24c46 0 70-25 89-51l25 16C214-24 183 4 123 4 8 4-5-146 60-208c32-50 158-61 191-5 5 7 9 14 11 22l-32 10c-9-28-33-43-69-43-74 0-108 51-108 125 0 46 24 75 72 75" id="as"/><path d="M24-61C-1-165 59-251 163-251c67 1 105 36 105 101 0 88-46 140-124 152 2 33 24 47 60 39l-3 23c-50 15-89-11-89-61-46-3-79-26-88-64zm210-73c6-55-18-91-72-90-77 1-111 51-111 125 0 49 24 75 73 75 72 0 103-45 110-110" id="at"/><path d="M249-183c0 48-29 72-75 77L221 0h-36l-43-103H65L45 0H11l48-248c83 2 190-17 190 65zm-34 3c0-55-74-39-127-41l-18 92c63-1 145 13 145-51" id="au"/><path d="M194-120c59 52 2 134-86 124-53-6-90-18-98-63l31-7c8 30 29 43 70 43 46 0 84-17 71-62-32-43-135-20-137-98-3-89 178-90 191-16l-30 9c-8-48-127-53-127 5 0 53 81 35 115 65" id="av"/><g id="z"><use transform="matrix(0.0864197530864197,0,0,0.0864197530864197,0,0)" xlink:href="#as"/><use transform="matrix(0.0864197530864197,0,0,0.0864197530864197,22.382716049382704,0)" xlink:href="#at"/><use transform="matrix(0.0864197530864197,0,0,0.0864197530864197,46.58024691358022,0)" xlink:href="#au"/><use transform="matrix(0.0864197530864197,0,0,0.0864197530864197,68.96296296296293,0)" xlink:href="#av"/></g><path d="M119 0H84L31-248h34l41 218 126-218h36" id="aw"/><path d="M50-231l6-30h32l-6 30H50zM6 0l37-190h31L37 0H6" id="ax"/><path d="M188 0h-37l-8-164L71 0H34L18-190h31l8 164 75-164h34l8 164 74-164h31" id="ay"/><g id="A"><use transform="matrix(0.0864197530864197,0,0,0.0864197530864197,0,0)" xlink:href="#aw"/><use transform="matrix(0.0864197530864197,0,0,0.0864197530864197,20.135802469135793,0)" xlink:href="#ax"/><use transform="matrix(0.0864197530864197,0,0,0.0864197530864197,26.962962962962955,0)" xlink:href="#W"/><use transform="matrix(0.0864197530864197,0,0,0.0864197530864197,44.2469135802469,0)" xlink:href="#ay"/><use transform="matrix(0.0864197530864197,0,0,0.0864197530864197,66.6296296296296,0)" xlink:href="#Y"/></g><g id="B"><use transform="matrix(0.0864197530864197,0,0,0.0864197530864197,0,0)" xlink:href="#S"/><use transform="matrix(0.0864197530864197,0,0,0.0864197530864197,17.283950617283942,0)" xlink:href="#R"/></g><path d="M187 0l-14-72H61L19 0h-37l149-248h38L221 0h-34zm-19-99l-22-123L76-99h92" id="az"/><path d="M133-28C103 26-5 8 13-77c13-62 24-115 90-117 29-1 46 15 56 35l19-102h32L160 0h-30zM45-64c-2 27 10 43 35 43 54-1 69-50 69-103 0-29-15-46-42-46-53-1-58 58-62 106" id="aA"/><path d="M67-162c32-53 139-36 121 50C175-51 163 2 97 4 68 4 52-11 42-31 38 6 28 39 22 75H-9l50-265h29c-1 10 0 20-3 28zm89 36c0-26-10-43-35-43-54 0-67 50-69 103-1 29 14 45 42 46 53 0 62-58 62-106" id="aB"/><path d="M51-54c-9 22 5 41 31 30L79-1C43 14 10-4 19-52l22-115H19l5-23h22l19-43h21l-9 43h35l-4 23H73" id="aC"/><g id="C"><use transform="matrix(0.0864197530864197,0,0,0.0864197530864197,0,0)" xlink:href="#az"/><use transform="matrix(0.0864197530864197,0,0,0.0864197530864197,20.74074074074073,0)" xlink:href="#aA"/><use transform="matrix(0.0864197530864197,0,0,0.0864197530864197,38.02469135802467,0)" xlink:href="#U"/><use transform="matrix(0.0864197530864197,0,0,0.0864197530864197,55.30864197530861,0)" xlink:href="#aB"/><use transform="matrix(0.0864197530864197,0,0,0.0864197530864197,72.59259259259255,0)" xlink:href="#aC"/><use transform="matrix(0.0864197530864197,0,0,0.0864197530864197,81.23456790123453,0)" xlink:href="#W"/><use transform="matrix(0.0864197530864197,0,0,0.0864197530864197,98.51851851851849,0)" xlink:href="#X"/><use transform="matrix(0.0864197530864197,0,0,0.0864197530864197,108.80246913580243,0)" xlink:href="#Y"/></g><path fill="#008a0e" d="M199 0l-22-63H83L61 0H9l90-248h61L250 0h-51zm-33-102l-36-108c-10 38-24 72-36 108h72" id="aD"/><path fill="#008a0e" d="M24-248c93 1 206-16 204 79-1 75-69 88-152 82V0H24v-248zm52 121c47 0 100 7 100-41 0-47-54-39-100-39v80" id="aE"/><path fill="#008a0e" d="M24 0v-248h52V0H24" id="aF"/><g id="D"><use transform="matrix(0.061728395061728385,0,0,0.061728395061728385,0,0)" xlink:href="#aD"/><use transform="matrix(0.061728395061728385,0,0,0.061728395061728385,15.987654320987652,0)" xlink:href="#aE"/><use transform="matrix(0.061728395061728385,0,0,0.061728395061728385,30.802469135802465,0)" xlink:href="#aF"/></g><g id="E"><use transform="matrix(0.061728395061728385,0,0,0.061728395061728385,0,0)" xlink:href="#aD"/><use transform="matrix(0.061728395061728385,0,0,0.061728395061728385,15.987654320987652,0)" xlink:href="#aE"/><use transform="matrix(0.061728395061728385,0,0,0.061728395061728385,30.802469135802465,0)" xlink:href="#aF"/></g></defs></g></svg>