<svg xmlns="http://www.w3.org/2000/svg" xmlns:xlink="http://www.w3.org/1999/xlink" xmlns:lucid="lucid" width="803.92" height="603"><g transform="translate(-378.5 -638.4999999999998)" lucid:page-tab-id="0_0"><path d="M800 780a20 20 0 0 1 20-20h340a20 20 0 0 1 20 20v60a20 20 0 0 1-20 20H820a20 20 0 0 1-20-20z" fill="#ced4db" fill-opacity=".35"/><path d="M798.5 780a1.5 1.5 0 0 1 1.5-1.5 1.5 1.5 0 0 1 1.5 1.5 1.5 1.5 0 0 1-1.5 1.5 1.5 1.5 0 0 1-1.5-1.5m2.73-9.96a1.5 1.5 0 0 1 1.5-1.5 1.5 1.5 0 0 1 1.5 1.5 1.5 1.5 0 0 1-1.5 1.5 1.5 1.5 0 0 1-1.5-1.5V770m7.3-7.26a1.5 1.5 0 0 1 1.5-1.5 1.5 1.5 0 0 1 1.5 1.5 1.5 1.5 0 0 1-1.5 1.5 1.5 1.5 0 0 1-1.5-1.5v-.03m9.97-2.7a1.5 1.5 0 0 1 1.5-1.5 1.5 1.5 0 0 1 1.5 1.5 1.5 1.5 0 0 1-1.5 1.5 1.5 1.5 0 0 1-1.5-1.5m12.14 0a1.5 1.5 0 0 1 1.5-1.5 1.5 1.5 0 0 1 1.5 1.5 1.5 1.5 0 0 1-1.5 1.5 1.5 1.5 0 0 1-1.5-1.5m12.15 0a1.5 1.5 0 0 1 1.5-1.5 1.5 1.5 0 0 1 1.5 1.5 1.5 1.5 0 0 1-1.5 1.5 1.5 1.5 0 0 1-1.5-1.5m12.13 0a1.5 1.5 0 0 1 1.5-1.5 1.5 1.5 0 0 1 1.5 1.5 1.5 1.5 0 0 1-1.5 1.5 1.5 1.5 0 0 1-1.5-1.5m12.14 0a1.5 1.5 0 0 1 1.5-1.5 1.5 1.5 0 0 1 1.5 1.5 1.5 1.5 0 0 1-1.5 1.5 1.5 1.5 0 0 1-1.5-1.5m12.14 0a1.5 1.5 0 0 1 1.5-1.5 1.5 1.5 0 0 1 1.5 1.5 1.5 1.5 0 0 1-1.5 1.5 1.5 1.5 0 0 1-1.5-1.5m12.16 0a1.5 1.5 0 0 1 1.5-1.5 1.5 1.5 0 0 1 1.5 1.5 1.5 1.5 0 0 1-1.5 1.5 1.5 1.5 0 0 1-1.5-1.5m12.14 0a1.5 1.5 0 0 1 1.5-1.5 1.5 1.5 0 0 1 1.5 1.5 1.5 1.5 0 0 1-1.5 1.5 1.5 1.5 0 0 1-1.5-1.5m12.14 0a1.5 1.5 0 0 1 1.5-1.5 1.5 1.5 0 0 1 1.5 1.5 1.5 1.5 0 0 1-1.5 1.5 1.5 1.5 0 0 1-1.5-1.5m12.15 0a1.5 1.5 0 0 1 1.5-1.5 1.5 1.5 0 0 1 1.5 1.5 1.5 1.5 0 0 1-1.5 1.5 1.5 1.5 0 0 1-1.5-1.5m12.13 0a1.5 1.5 0 0 1 1.5-1.5 1.5 1.5 0 0 1 1.5 1.5 1.5 1.5 0 0 1-1.5 1.5 1.5 1.5 0 0 1-1.5-1.5m12.14 0a1.5 1.5 0 0 1 1.5-1.5 1.5 1.5 0 0 1 1.5 1.5 1.5 1.5 0 0 1-1.5 1.5 1.5 1.5 0 0 1-1.5-1.5m12.14 0a1.5 1.5 0 0 1 1.5-1.5 1.5 1.5 0 0 1 1.5 1.5 1.5 1.5 0 0 1-1.5 1.5 1.5 1.5 0 0 1-1.5-1.5m12.16 0a1.5 1.5 0 0 1 1.5-1.5 1.5 1.5 0 0 1 1.5 1.5 1.5 1.5 0 0 1-1.5 1.5 1.5 1.5 0 0 1-1.5-1.5m12.14 0a1.5 1.5 0 0 1 1.5-1.5 1.5 1.5 0 0 1 1.5 1.5 1.5 1.5 0 0 1-1.5 1.5 1.5 1.5 0 0 1-1.5-1.5m12.14 0a1.5 1.5 0 0 1 1.5-1.5 1.5 1.5 0 0 1 1.5 1.5 1.5 1.5 0 0 1-1.5 1.5 1.5 1.5 0 0 1-1.5-1.5m12.15 0a1.5 1.5 0 0 1 1.5-1.5 1.5 1.5 0 0 1 1.5 1.5 1.5 1.5 0 0 1-1.5 1.5 1.5 1.5 0 0 1-1.5-1.5m12.13 0a1.5 1.5 0 0 1 1.5-1.5 1.5 1.5 0 0 1 1.5 1.5 1.5 1.5 0 0 1-1.5 1.5 1.5 1.5 0 0 1-1.5-1.5m12.14 0a1.5 1.5 0 0 1 1.5-1.5 1.5 1.5 0 0 1 1.5 1.5 1.5 1.5 0 0 1-1.5 1.5 1.5 1.5 0 0 1-1.5-1.5m12.14 0a1.5 1.5 0 0 1 1.5-1.5 1.5 1.5 0 0 1 1.5 1.5 1.5 1.5 0 0 1-1.5 1.5 1.5 1.5 0 0 1-1.5-1.5m12.16 0a1.5 1.5 0 0 1 1.5-1.5 1.5 1.5 0 0 1 1.5 1.5 1.5 1.5 0 0 1-1.5 1.5 1.5 1.5 0 0 1-1.5-1.5m12.14 0a1.5 1.5 0 0 1 1.5-1.5 1.5 1.5 0 0 1 1.5 1.5 1.5 1.5 0 0 1-1.5 1.5 1.5 1.5 0 0 1-1.5-1.5m12.14 0a1.5 1.5 0 0 1 1.5-1.5 1.5 1.5 0 0 1 1.5 1.5 1.5 1.5 0 0 1-1.5 1.5 1.5 1.5 0 0 1-1.5-1.5m12.15 0a1.5 1.5 0 0 1 1.5-1.5 1.5 1.5 0 0 1 1.5 1.5 1.5 1.5 0 0 1-1.5 1.5 1.5 1.5 0 0 1-1.5-1.5m12.13 0a1.5 1.5 0 0 1 1.5-1.5 1.5 1.5 0 0 1 1.5 1.5 1.5 1.5 0 0 1-1.5 1.5 1.5 1.5 0 0 1-1.5-1.5m12.14 0a1.5 1.5 0 0 1 1.5-1.5 1.5 1.5 0 0 1 1.5 1.5 1.5 1.5 0 0 1-1.5 1.5 1.5 1.5 0 0 1-1.5-1.5m12.14 0a1.5 1.5 0 0 1 1.5-1.5 1.5 1.5 0 0 1 1.5 1.5 1.5 1.5 0 0 1-1.5 1.5 1.5 1.5 0 0 1-1.5-1.5m12.16 0a1.5 1.5 0 0 1 1.5-1.5 1.5 1.5 0 0 1 1.5 1.5 1.5 1.5 0 0 1-1.5 1.5 1.5 1.5 0 0 1-1.5-1.5m12.14 0a1.5 1.5 0 0 1 1.5-1.5 1.5 1.5 0 0 1 1.5 1.5 1.5 1.5 0 0 1-1.5 1.5 1.5 1.5 0 0 1-1.5-1.5m9.97 2.74a1.5 1.5 0 0 1 1.5-1.5 1.5 1.5 0 0 1 1.5 1.5 1.5 1.5 0 0 1-1.5 1.5 1.5 1.5 0 0 1-1.5-1.5v-.03m7.3 7.34a1.5 1.5 0 0 1 1.5-1.5 1.5 1.5 0 0 1 1.5 1.5 1.5 1.5 0 0 1-1.5 1.5 1.5 1.5 0 0 1-1.5-1.5V770m2.73 10a1.5 1.5 0 0 1 1.5-1.5 1.5 1.5 0 0 1 1.5 1.5 1.5 1.5 0 0 1-1.5 1.5 1.5 1.5 0 0 1-1.5-1.5m0 12a1.5 1.5 0 0 1 1.5-1.5 1.5 1.5 0 0 1 1.5 1.5 1.5 1.5 0 0 1-1.5 1.5 1.5 1.5 0 0 1-1.5-1.5m0 12a1.5 1.5 0 0 1 1.5-1.5 1.5 1.5 0 0 1 1.5 1.5 1.5 1.5 0 0 1-1.5 1.5 1.5 1.5 0 0 1-1.5-1.5m0 12a1.5 1.5 0 0 1 1.5-1.5 1.5 1.5 0 0 1 1.5 1.5 1.5 1.5 0 0 1-1.5 1.5 1.5 1.5 0 0 1-1.5-1.5m0 12a1.5 1.5 0 0 1 1.5-1.5 1.5 1.5 0 0 1 1.5 1.5 1.5 1.5 0 0 1-1.5 1.5 1.5 1.5 0 0 1-1.5-1.5m0 12a1.5 1.5 0 0 1 1.5-1.5 1.5 1.5 0 0 1 1.5 1.5 1.5 1.5 0 0 1-1.5 1.5 1.5 1.5 0 0 1-1.5-1.5m-2.73 10v-.03a1.5 1.5 0 0 1 1.5-1.5 1.5 1.5 0 0 1 1.5 1.5 1.5 1.5 0 0 1-1.5 1.5 1.5 1.5 0 0 1-1.5-1.5m-7.3 7.32v-.03a1.5 1.5 0 0 1 1.5-1.5 1.5 1.5 0 0 1 1.5 1.5 1.5 1.5 0 0 1-1.5 1.5 1.5 1.5 0 0 1-1.5-1.5m-9.97 2.75V860a1.5 1.5 0 0 1 1.5-1.5 1.5 1.5 0 0 1 1.5 1.5 1.5 1.5 0 0 1-1.5 1.5 1.5 1.5 0 0 1-1.5-1.5m-12.14 0a1.5 1.5 0 0 1 1.5-1.5 1.5 1.5 0 0 1 1.5 1.5 1.5 1.5 0 0 1-1.5 1.5 1.5 1.5 0 0 1-1.5-1.5m-12.15 0a1.5 1.5 0 0 1 1.5-1.5 1.5 1.5 0 0 1 1.5 1.5 1.5 1.5 0 0 1-1.5 1.5 1.5 1.5 0 0 1-1.5-1.5m-12.13 0a1.5 1.5 0 0 1 1.5-1.5 1.5 1.5 0 0 1 1.5 1.5 1.5 1.5 0 0 1-1.5 1.5 1.5 1.5 0 0 1-1.5-1.5m-12.14 0a1.5 1.5 0 0 1 1.5-1.5 1.5 1.5 0 0 1 1.5 1.5 1.5 1.5 0 0 1-1.5 1.5 1.5 1.5 0 0 1-1.5-1.5m-12.14 0a1.5 1.5 0 0 1 1.5-1.5 1.5 1.5 0 0 1 1.5 1.5 1.5 1.5 0 0 1-1.5 1.5 1.5 1.5 0 0 1-1.5-1.5m-12.16 0a1.5 1.5 0 0 1 1.5-1.5 1.5 1.5 0 0 1 1.5 1.5 1.5 1.5 0 0 1-1.5 1.5 1.5 1.5 0 0 1-1.5-1.5m-12.14 0a1.5 1.5 0 0 1 1.5-1.5 1.5 1.5 0 0 1 1.5 1.5 1.5 1.5 0 0 1-1.5 1.5 1.5 1.5 0 0 1-1.5-1.5m-12.14 0a1.5 1.5 0 0 1 1.5-1.5 1.5 1.5 0 0 1 1.5 1.5 1.5 1.5 0 0 1-1.5 1.5 1.5 1.5 0 0 1-1.5-1.5m-12.15 0a1.5 1.5 0 0 1 1.5-1.5 1.5 1.5 0 0 1 1.5 1.5 1.5 1.5 0 0 1-1.5 1.5 1.5 1.5 0 0 1-1.5-1.5m-12.13 0a1.5 1.5 0 0 1 1.5-1.5 1.5 1.5 0 0 1 1.5 1.5 1.5 1.5 0 0 1-1.5 1.5 1.5 1.5 0 0 1-1.5-1.5m-12.14 0a1.5 1.5 0 0 1 1.5-1.5 1.5 1.5 0 0 1 1.5 1.5 1.5 1.5 0 0 1-1.5 1.5 1.5 1.5 0 0 1-1.5-1.5m-12.14 0a1.5 1.5 0 0 1 1.5-1.5 1.5 1.5 0 0 1 1.5 1.5 1.5 1.5 0 0 1-1.5 1.5 1.5 1.5 0 0 1-1.5-1.5m-12.16 0a1.5 1.5 0 0 1 1.5-1.5 1.5 1.5 0 0 1 1.5 1.5 1.5 1.5 0 0 1-1.5 1.5 1.5 1.5 0 0 1-1.5-1.5m-12.14 0a1.5 1.5 0 0 1 1.5-1.5 1.5 1.5 0 0 1 1.5 1.5 1.5 1.5 0 0 1-1.5 1.5 1.5 1.5 0 0 1-1.5-1.5m-12.14 0a1.5 1.5 0 0 1 1.5-1.5 1.5 1.5 0 0 1 1.5 1.5 1.5 1.5 0 0 1-1.5 1.5 1.5 1.5 0 0 1-1.5-1.5m-12.15 0a1.5 1.5 0 0 1 1.5-1.5 1.5 1.5 0 0 1 1.5 1.5 1.5 1.5 0 0 1-1.5 1.5 1.5 1.5 0 0 1-1.5-1.5m-12.13 0a1.5 1.5 0 0 1 1.5-1.5 1.5 1.5 0 0 1 1.5 1.5 1.5 1.5 0 0 1-1.5 1.5 1.5 1.5 0 0 1-1.5-1.5m-12.14 0a1.5 1.5 0 0 1 1.5-1.5 1.5 1.5 0 0 1 1.5 1.5 1.5 1.5 0 0 1-1.5 1.5 1.5 1.5 0 0 1-1.5-1.5m-12.14 0a1.5 1.5 0 0 1 1.5-1.5 1.5 1.5 0 0 1 1.5 1.5 1.5 1.5 0 0 1-1.5 1.5 1.5 1.5 0 0 1-1.5-1.5m-12.16 0a1.5 1.5 0 0 1 1.5-1.5 1.5 1.5 0 0 1 1.5 1.5 1.5 1.5 0 0 1-1.5 1.5 1.5 1.5 0 0 1-1.5-1.5m-12.14 0a1.5 1.5 0 0 1 1.5-1.5 1.5 1.5 0 0 1 1.5 1.5 1.5 1.5 0 0 1-1.5 1.5 1.5 1.5 0 0 1-1.5-1.5m-12.14 0a1.5 1.5 0 0 1 1.5-1.5 1.5 1.5 0 0 1 1.5 1.5 1.5 1.5 0 0 1-1.5 1.5 1.5 1.5 0 0 1-1.5-1.5m-12.15 0a1.5 1.5 0 0 1 1.5-1.5 1.5 1.5 0 0 1 1.5 1.5 1.5 1.5 0 0 1-1.5 1.5 1.5 1.5 0 0 1-1.5-1.5m-12.13 0a1.5 1.5 0 0 1 1.5-1.5 1.5 1.5 0 0 1 1.5 1.5 1.5 1.5 0 0 1-1.5 1.5 1.5 1.5 0 0 1-1.5-1.5m-12.14 0a1.5 1.5 0 0 1 1.5-1.5 1.5 1.5 0 0 1 1.5 1.5 1.5 1.5 0 0 1-1.5 1.5 1.5 1.5 0 0 1-1.5-1.5m-12.14 0a1.5 1.5 0 0 1 1.5-1.5 1.5 1.5 0 0 1 1.5 1.5 1.5 1.5 0 0 1-1.5 1.5 1.5 1.5 0 0 1-1.5-1.5m-12.16 0a1.5 1.5 0 0 1 1.5-1.5 1.5 1.5 0 0 1 1.5 1.5 1.5 1.5 0 0 1-1.5 1.5 1.5 1.5 0 0 1-1.5-1.5m-12.14 0a1.5 1.5 0 0 1 1.5-1.5 1.5 1.5 0 0 1 1.5 1.5 1.5 1.5 0 0 1-1.5 1.5 1.5 1.5 0 0 1-1.5-1.5m-9.97-2.7v-.03a1.5 1.5 0 0 1 1.5-1.5 1.5 1.5 0 0 1 1.5 1.5 1.5 1.5 0 0 1-1.5 1.5 1.5 1.5 0 0 1-1.5-1.5m-7.3-7.28v-.03a1.5 1.5 0 0 1 1.5-1.5 1.5 1.5 0 0 1 1.5 1.5 1.5 1.5 0 0 1-1.5 1.5 1.5 1.5 0 0 1-1.5-1.5M798.5 840a1.5 1.5 0 0 1 1.5-1.5 1.5 1.5 0 0 1 1.5 1.5 1.5 1.5 0 0 1-1.5 1.5 1.5 1.5 0 0 1-1.5-1.5m0-12a1.5 1.5 0 0 1 1.5-1.5 1.5 1.5 0 0 1 1.5 1.5 1.5 1.5 0 0 1-1.5 1.5 1.5 1.5 0 0 1-1.5-1.5m0-12a1.5 1.5 0 0 1 1.5-1.5 1.5 1.5 0 0 1 1.5 1.5 1.5 1.5 0 0 1-1.5 1.5 1.5 1.5 0 0 1-1.5-1.5m0-12a1.5 1.5 0 0 1 1.5-1.5 1.5 1.5 0 0 1 1.5 1.5 1.5 1.5 0 0 1-1.5 1.5 1.5 1.5 0 0 1-1.5-1.5m0-12a1.5 1.5 0 0 1 1.5-1.5 1.5 1.5 0 0 1 1.5 1.5 1.5 1.5 0 0 1-1.5 1.5 1.5 1.5 0 0 1-1.5-1.5"/><path d="M380 820a20 20 0 0 1 20-20h300a20 20 0 0 1 20 20v20a20 20 0 0 1-20 20H400a20 20 0 0 1-20-20z" stroke="#000" stroke-width="3" fill="#ced4db"/><path d="M400 660a20 20 0 0 1 20-20h20a20 20 0 0 1 20 20v80a20 20 0 0 1-20 20h-20a20 20 0 0 1-20-20z" stroke="#000" stroke-width="3" fill="url(#a)"/><use xlink:href="#b" transform="matrix(-1.8369701987210297e-16,-1,1,-1.8369701987210297e-16,404.99999999999994,754.9999999999999) translate(2.783950617283949 28.930555555555557)"/><use xlink:href="#c" transform="matrix(-1.8369701987210297e-16,-1,1,-1.8369701987210297e-16,404.99999999999994,754.9999999999999) translate(90.91975308641976 28.930555555555557)"/><path d="M520 660a20 20 0 0 1 20-20h20a20 20 0 0 1 20 20v80a20 20 0 0 1-20 20h-20a20 20 0 0 1-20-20z" stroke="#000" stroke-width="3" fill="url(#d)"/><use xlink:href="#b" transform="matrix(-1.8369701987210297e-16,-1,1,-1.8369701987210297e-16,525,755.0000000000001) translate(2.783950617283949 28.930555555555557)"/><use xlink:href="#e" transform="matrix(-1.8369701987210297e-16,-1,1,-1.8369701987210297e-16,525,755.0000000000001) translate(90.91975308641976 28.930555555555557)"/><path d="M542.62 802.65l-111.68-40.8" stroke="#cc4e00" stroke-width="2" fill="none"/><path d="M556.96 807.9l-15-.55 3.2-8.7z" stroke="#cc4e00" stroke-width="2" fill="#cc4e00"/><path d="M430.63 762.77l-3.47-1.27h3.93z" stroke="#cc4e00" stroke-width=".05" fill="#cc4e00"/><path d="M529.88 793.36l19.6-31" stroke="#008573" stroke-width="2" fill="none"/><path d="M521.73 806.26l3.7-14.53 7.84 4.95z" stroke="#008573" stroke-width="2" fill="#008573"/><path d="M550.28 762.9l-1.65-1.05.22-.35h2.3z" stroke="#008573" stroke-width=".05" fill="#008573"/><path d="M640 660a20 20 0 0 1 20-20h20a20 20 0 0 1 20 20v80a20 20 0 0 1-20 20h-20a20 20 0 0 1-20-20z" stroke="#000" stroke-width="3" fill="url(#f)"/><use xlink:href="#b" transform="matrix(-1.8369701987210297e-16,-1,1,-1.8369701987210297e-16,645,754.9999999999999) translate(3.496913580246911 28.930555555555557)"/><use xlink:href="#g" transform="matrix(-1.8369701987210297e-16,-1,1,-1.8369701987210297e-16,645,754.9999999999999) translate(91.63271604938272 28.930555555555557)"/><path d="M530 810h20v40h-20z" stroke="#000" stroke-width="2" fill="url(#h)"/><use xlink:href="#i" transform="matrix(1,0,0,1,535,815) translate(-2.4074074074074066 19.944444444444443)"/><path d="M550 810h20v40h-20z" stroke="#000" stroke-width="2" fill="url(#j)"/><use xlink:href="#k" transform="matrix(1,0,0,1,555,815) translate(-2.9938271604938267 19.944444444444443)"/><path d="M570 810h20v40h-20z" stroke="#000" stroke-width="2" fill="url(#l)"/><use xlink:href="#m" transform="matrix(1,0,0,1,575,815) translate(-2.9938271604938267 19.944444444444443)"/><path d="M510 810h20v40h-20z" stroke="#000" stroke-width="2" fill="url(#n)"/><use xlink:href="#o" transform="matrix(1,0,0,1,515,815) translate(-2.4074074074074066 19.944444444444443)"/><path d="M590 810h20v40h-20zM490 810h20v40h-20z" stroke="#000" stroke-width="2" fill="#fff"/><path d="M596.36 800.36l72.76-38.4" stroke="#cc4e00" stroke-width="2" fill="none"/><path d="M582.86 807.5l10.46-10.77 4.32 8.2z" stroke="#cc4e00" stroke-width="2" fill="#cc4e00"/><path d="M669.55 762.84l-.7-1.34h3.24z" stroke="#cc4e00" stroke-width=".05" fill="#cc4e00"/><path d="M919.08 780a20 20 0 0 1 20-20H1040a20 20 0 0 1 20 20v60a20 20 0 0 1-20 20H939.08a20 20 0 0 1-20-20z" stroke="#000" stroke-width="3" fill="#ced4db"/><path d="M820 660a20 20 0 0 1 20-20h20a20 20 0 0 1 20 20v80a20 20 0 0 1-20 20h-20a20 20 0 0 1-20-20z" stroke="#000" stroke-width="3" fill="url(#p)"/><use xlink:href="#b" transform="matrix(-1.8369701987210297e-16,-1,1,-1.8369701987210297e-16,825,755.0000000000001) translate(2.783950617283949 28.930555555555557)"/><use xlink:href="#c" transform="matrix(-1.8369701987210297e-16,-1,1,-1.8369701987210297e-16,825,755.0000000000001) translate(90.91975308641976 28.930555555555557)"/><path d="M960 660a20 20 0 0 1 20-20h20a20 20 0 0 1 20 20v80a20 20 0 0 1-20 20h-20a20 20 0 0 1-20-20z" stroke="#000" stroke-width="3" fill="url(#q)"/><use xlink:href="#b" transform="matrix(-1.8369701987210297e-16,-1,1,-1.8369701987210297e-16,965,755.0000000000001) translate(2.783950617283949 28.930555555555557)"/><use xlink:href="#e" transform="matrix(-1.8369701987210297e-16,-1,1,-1.8369701987210297e-16,965,755.0000000000001) translate(90.91975308641976 28.930555555555557)"/><path d="M1099.08 660a20 20 0 0 1 20-20h20a20 20 0 0 1 20 20v80a20 20 0 0 1-20 20h-20a20 20 0 0 1-20-20z" stroke="#000" stroke-width="3" fill="url(#r)"/><use xlink:href="#b" transform="matrix(-1.8369701987210297e-16,-1,1,-1.8369701987210297e-16,1104.0833459375006,755) translate(3.496913580246911 28.930555555555557)"/><use xlink:href="#g" transform="matrix(-1.8369701987210297e-16,-1,1,-1.8369701987210297e-16,1104.0833459375006,755) translate(91.63271604938272 28.930555555555557)"/><path d="M970 810h20v40h-20z" stroke="#000" stroke-width="2" fill="url(#s)"/><use xlink:href="#i" transform="matrix(1,0,0,1,975.0000000000001,814.9999999999998) translate(-2.4074074074074066 19.944444444444443)"/><path d="M990 810h20v40h-20z" stroke="#000" stroke-width="2" fill="url(#t)"/><use xlink:href="#u" transform="matrix(1,0,0,1,995.0000000000001,814.9999999999998) translate(-2.9938271604938267 19.944444444444443)"/><path d="M1010 810h20v40h-20z" stroke="#000" stroke-width="2" fill="url(#v)"/><use xlink:href="#w" transform="matrix(1,0,0,1,1015.0000000000001,814.9999999999998) translate(-2.9938271604938267 19.944444444444443)"/><path d="M950 810h20v40h-20z" stroke="#000" stroke-width="2" fill="url(#x)"/><use xlink:href="#o" transform="matrix(1,0,0,1,955.0000000000001,814.9999999999998) translate(-2.4074074074074066 19.944444444444443)"/><path d="M1030 810h20v40h-20zM930 810h20v40h-20z" stroke="#000" stroke-width="2" fill="#fff"/><path d="M800 780a20 20 0 0 1 20-20h60a20 20 0 0 1 20 20v60a20 20 0 0 1-20 20h-60a20 20 0 0 1-20-20z" stroke="#000" stroke-width="3" fill="#ced4db"/><path d="M850 770h20v40h-20z" stroke="#000" stroke-width="2" fill="url(#y)"/><use xlink:href="#k" transform="matrix(1,0,0,1,855,774.9999999999998) translate(-2.9938271604938267 19.944444444444443)"/><path d="M830 770h20v40h-20z" stroke="#000" stroke-width="2" fill="url(#z)"/><use xlink:href="#A" transform="matrix(1,0,0,1,835,774.9999999999998) translate(-2.4074074074074066 19.944444444444443)"/><path d="M870 770h20v40h-20zM810 770h20v40h-20z" stroke="#000" stroke-width="2" fill="#fff"/><path d="M1080 780a20 20 0 0 1 20-20h60a20 20 0 0 1 20 20v60a20 20 0 0 1-20 20h-60a20 20 0 0 1-20-20z" stroke="#000" stroke-width="3" fill="#ced4db"/><path d="M1130 770h20v40h-20z" stroke="#000" stroke-width="2" fill="url(#B)"/><use xlink:href="#m" transform="matrix(1,0,0,1,1135,774.9999999999998) translate(-2.9938271604938267 19.944444444444443)"/><path d="M1110 770h20v40h-20z" stroke="#000" stroke-width="2" fill="url(#C)"/><use xlink:href="#i" transform="matrix(1,0,0,1,1115,774.9999999999998) translate(-2.4074074074074066 19.944444444444443)"/><path d="M1150 770h20v40h-20zM1090 770h20v40h-20z" stroke="#000" stroke-width="2" fill="#fff"/><path d="M380 1140a20 20 0 0 1 20-20h300a20 20 0 0 1 20 20v20a20 20 0 0 1-20 20H400a20 20 0 0 1-20-20z" stroke="#000" stroke-width="3" fill="#ced4db"/><path d="M400 980a20 20 0 0 1 20-20h20a20 20 0 0 1 20 20v80a20 20 0 0 1-20 20h-20a20 20 0 0 1-20-20z" stroke="#000" stroke-width="3" fill="url(#D)"/><use xlink:href="#b" transform="matrix(-1.8369701987210297e-16,-1,1,-1.8369701987210297e-16,404.9999999999999,1075) translate(2.783950617283949 28.930555555555557)"/><use xlink:href="#c" transform="matrix(-1.8369701987210297e-16,-1,1,-1.8369701987210297e-16,404.9999999999999,1075) translate(90.91975308641976 28.930555555555557)"/><path d="M520 980a20 20 0 0 1 20-20h20a20 20 0 0 1 20 20v80a20 20 0 0 1-20 20h-20a20 20 0 0 1-20-20z" stroke="#000" stroke-width="3" fill="url(#E)"/><use xlink:href="#b" transform="matrix(-1.8369701987210297e-16,-1,1,-1.8369701987210297e-16,525,1075) translate(2.783950617283949 28.930555555555557)"/><use xlink:href="#e" transform="matrix(-1.8369701987210297e-16,-1,1,-1.8369701987210297e-16,525,1075) translate(90.91975308641976 28.930555555555557)"/><path d="M523.15 1114.63l26.22-32.35" stroke="#008573" stroke-width="2" fill="none"/><path d="M513.54 1126.5l5.38-14.02 7.2 5.84z" stroke="#008573" stroke-width="2" fill="#008573"/><path d="M550.1 1082.9l-1.5-1.22.14-.18h2.5z" stroke="#008573" stroke-width=".05" fill="#008573"/><path d="M640 980a20 20 0 0 1 20-20h20a20 20 0 0 1 20 20v80a20 20 0 0 1-20 20h-20a20 20 0 0 1-20-20z" stroke="#000" stroke-width="3" fill="url(#F)"/><use xlink:href="#b" transform="matrix(-1.8369701987210297e-16,-1,1,-1.8369701987210297e-16,645,1075) translate(3.496913580246911 28.930555555555557)"/><use xlink:href="#g" transform="matrix(-1.8369701987210297e-16,-1,1,-1.8369701987210297e-16,645,1075) translate(91.63271604938272 28.930555555555557)"/><path d="M635.58 1115.92l33.7-33.7" stroke="#cc4e00" stroke-width="2" fill="none"/><path d="M624.8 1126.7l6.8-13.35 6.55 6.55z" stroke="#cc4e00" stroke-width="2" fill="#cc4e00"/><path d="M669.96 1082.9l-1.38-1.36.04-.04h2.76z" stroke="#cc4e00" stroke-width=".05" fill="#cc4e00"/><path d="M521.5 1130h20v40h-20z" stroke="#000" stroke-width="2" fill="url(#G)"/><use xlink:href="#k" transform="matrix(1,0,0,1,526.5,1135.0000000000005) translate(-2.9938271604938267 19.944444444444443)"/><path d="M501.5 1130h20v40h-20z" stroke="#000" stroke-width="2" fill="url(#H)"/><use xlink:href="#o" transform="matrix(1,0,0,1,506.49999999999994,1135.0000000000005) translate(-2.4074074074074066 19.944444444444443)"/><path d="M541.5 1130h20v40h-20zM481.5 1130h20v40h-20z" stroke="#000" stroke-width="2" fill="#fff"/><path d="M613 1130h20v40h-20z" stroke="#000" stroke-width="2" fill="url(#I)"/><use xlink:href="#m" transform="matrix(1,0,0,1,618,1135) translate(-2.9938271604938267 19.944444444444443)"/><path d="M593 1130h20v40h-20z" stroke="#000" stroke-width="2" fill="url(#J)"/><use xlink:href="#i" transform="matrix(1,0,0,1,598,1135) translate(-2.4074074074074066 19.944444444444443)"/><path d="M633 1130h20v40h-20zM573 1130h20v40h-20z" stroke="#000" stroke-width="2" fill="#fff"/><path d="M514.74 1121.16l-83.83-39.24" stroke="#cc4e00" stroke-width="2" fill="none"/><path d="M528.57 1127.63l-14.9-1.85 3.94-8.4z" stroke="#cc4e00" stroke-width="2" fill="#cc4e00"/><path d="M430.52 1082.82l-2.82-1.32h3.43z" stroke="#cc4e00" stroke-width=".05" fill="#cc4e00"/><path d="M800 1140a20 20 0 0 1 20-20h340a20 20 0 0 1 20 20v20a20 20 0 0 1-20 20H820a20 20 0 0 1-20-20z" stroke="#000" stroke-width="3" fill="#ced4db"/><path d="M820 980a20 20 0 0 1 20-20h20a20 20 0 0 1 20 20v80a20 20 0 0 1-20 20h-20a20 20 0 0 1-20-20z" stroke="#000" stroke-width="3" fill="url(#K)"/><use xlink:href="#b" transform="matrix(-1.8369701987210297e-16,-1,1,-1.8369701987210297e-16,825,1075) translate(2.783950617283949 28.930555555555557)"/><use xlink:href="#c" transform="matrix(-1.8369701987210297e-16,-1,1,-1.8369701987210297e-16,825,1075) translate(90.91975308641976 28.930555555555557)"/><path d="M960 980a20 20 0 0 1 20-20h20a20 20 0 0 1 20 20v80a20 20 0 0 1-20 20h-20a20 20 0 0 1-20-20z" stroke="#000" stroke-width="3" fill="url(#L)"/><use xlink:href="#b" transform="matrix(-1.8369701987210297e-16,-1,1,-1.8369701987210297e-16,965,1075) translate(2.783950617283949 28.930555555555557)"/><use xlink:href="#e" transform="matrix(-1.8369701987210297e-16,-1,1,-1.8369701987210297e-16,965,1075) translate(90.91975308641976 28.930555555555557)"/><path d="M943.67 1117.62l45.54-35.5" stroke="#008573" stroke-width="2" fill="none"/><path d="M931.63 1127l8.4-12.42 5.7 7.3z" stroke="#008573" stroke-width="2" fill="#008573"/><path d="M989.8 1082.9l-1.1-1.4h2.9z" stroke="#008573" stroke-width=".05" fill="#008573"/><path d="M1099.08 980a20 20 0 0 1 20-20h20a20 20 0 0 1 20 20v80a20 20 0 0 1-20 20h-20a20 20 0 0 1-20-20z" stroke="#000" stroke-width="3" fill="url(#M)"/><use xlink:href="#b" transform="matrix(-1.8369701987210297e-16,-1,1,-1.8369701987210297e-16,1104.0833459375006,1075) translate(3.496913580246911 28.930555555555557)"/><use xlink:href="#g" transform="matrix(-1.8369701987210297e-16,-1,1,-1.8369701987210297e-16,1104.0833459375006,1075) translate(91.63271604938272 28.930555555555557)"/><path d="M1101 1114.85l27.44-32.58" stroke="#cc4e00" stroke-width="2" fill="none"/><path d="M1091.17 1126.53l5.64-13.9 7.1 5.97z" stroke="#cc4e00" stroke-width="2" fill="#cc4e00"/><path d="M1129.17 1082.9l-1.5-1.24.14-.16h2.56z" stroke="#cc4e00" stroke-width=".05" fill="#cc4e00"/><path d="M1031.1 1124.7l-180.13-42.97" stroke="#cc4e00" stroke-width="2" fill="none"/><path d="M1045.94 1128.25l-14.96 1.2 2.15-9.02z" stroke="#cc4e00" stroke-width="2" fill="#cc4e00"/><path d="M850.77 1082.7l-3.9-.95.05-.25h4.13z" stroke="#cc4e00" stroke-width=".05" fill="#cc4e00"/><path d="M589.22 1116.65l-38.48-34.48" stroke="#008573" stroke-width="2" fill="none"/><path d="M600.6 1126.84l-13.73-6.07 6.2-6.9z" stroke="#008573" stroke-width="2" fill="#008573"/><path d="M550.1 1082.9l-1.56-1.4h2.84z" stroke="#008573" stroke-width=".05" fill="#008573"/><path d="M909.08 1130h40v40h-40z" stroke="#000" stroke-width="2" fill="url(#N)"/><use xlink:href="#O" transform="matrix(1,0,0,1,914.0833459375001,1135.0000000000011) translate(-2.283950617283949 19.944444444444443)"/><path d="M949.08 1130h40v40h-40z" stroke="#000" stroke-width="2" fill="url(#P)"/><use xlink:href="#Q" transform="matrix(1,0,0,1,954.0833459375002,1135.000000000001) translate(-2.283950617283949 19.944444444444443)"/><path d="M989.08 1130h40v40h-40z" stroke="#000" stroke-width="2" fill="url(#R)"/><use xlink:href="#S" transform="matrix(1,0,0,1,994.0833459375003,1135.000000000001) translate(-4.1358024691358 19.944444444444443)"/><path d="M1029.08 1130h40v40h-40z" stroke="#000" stroke-width="2" fill="url(#T)"/><use xlink:href="#U" transform="matrix(1,0,0,1,1034.0833459375003,1135.0000000000007) translate(-2.8703703703703702 19.944444444444443)"/><path d="M1069.08 1130h40v40h-40z" stroke="#000" stroke-width="2" fill="url(#V)"/><use xlink:href="#W" transform="matrix(1,0,0,1,1074.0833459375006,1135.0000000000011) translate(-2.3703703703703702 19.944444444444443)"/><path d="M869.08 1130h40v40h-40z" stroke="#000" stroke-width="2" fill="url(#X)"/><use xlink:href="#Y" transform="matrix(1,0,0,1,874.0833459374999,1135.0000000000011) translate(-2.401234567901234 19.944444444444443)"/><path d="M829.08 1130h40v40h-40zM1109.08 1130h40v40h-40z" stroke="#000" stroke-width="2" fill="#fff"/><path d="M430 810h20v40h-20z" stroke="#000" stroke-width="2" fill="url(#Z)"/><use xlink:href="#aa" transform="matrix(1,0,0,1,434.9999999999999,815) translate(-3.6419753086419746 19.944444444444443)"/><path d="M410 810h20v40h-20z" stroke="#000" stroke-width="2" fill="url(#ab)"/><use xlink:href="#ac" transform="matrix(1,0,0,1,414.9999999999999,815) translate(-2.4074074074074066 19.944444444444443)"/><path d="M450 810h20v40h-20zM390 810h20v40h-20z" stroke="#000" stroke-width="2" fill="#fff"/><path d="M423.8 790.9l6-28.42" stroke="#008573" stroke-width="2" fill="none"/><path d="M420.67 805.83l-1.6-14.9 9.07 1.9z" stroke="#008573" stroke-width="2" fill="#008573"/><path d="M430.74 762.7l-1.9-.4.16-.8h2z" stroke="#008573" stroke-width=".05" fill="#008573"/><path d="M457 801.66l92.08-39.76" stroke="#cc4e00" stroke-width="2" fill="none"/><path d="M442.97 807.72l11.26-9.9 3.67 8.5z" stroke="#cc4e00" stroke-width="2" fill="#cc4e00"/><path d="M549.45 762.8l-.57-1.3h3.58z" stroke="#cc4e00" stroke-width=".05" fill="#cc4e00"/><path d="M670 810h20v40h-20zM650 810h20v40h-20z" stroke="#000" stroke-width="2" fill="#fff"/><path d="M670 790.5v-28" stroke="#008573" stroke-width="2" fill="none"/><path d="M670 805.76l-4.63-14.26h9.26z" stroke="#008573" stroke-width="2" fill="#008573"/><path d="M670.98 762.53H669v-1.03H671z" stroke="#008573" stroke-width=".05" fill="#008573"/><path d="M990 770h20v40h-20z" stroke="#000" stroke-width="2" fill="url(#ad)"/><use xlink:href="#aa" transform="matrix(1,0,0,1,995.0000000000002,775) translate(-3.6419753086419746 19.944444444444443)"/><path d="M970 770h20v40h-20z" stroke="#000" stroke-width="2" fill="url(#ae)"/><use xlink:href="#af" transform="matrix(1,0,0,1,975.0000000000002,775) translate(-2.4074074074074066 19.944444444444443)"/><path d="M1010 770h20v40h-20zM950 770h20v40h-20z" stroke="#000" stroke-width="2" fill="#fff"/><path d="M850 810h20v40h-20z" stroke="#000" stroke-width="2" fill="url(#ag)"/><use xlink:href="#ah" transform="matrix(1,0,0,1,855,815) translate(-3.6419753086419746 19.944444444444443)"/><path d="M830 810h20v40h-20z" stroke="#000" stroke-width="2" fill="url(#ai)"/><use xlink:href="#ac" transform="matrix(1,0,0,1,835,815) translate(-2.4074074074074066 19.944444444444443)"/><path d="M870 810h20v40h-20zM810 810h20v40h-20zM1129.08 810h20v40h-20zM1109.08 810h20v40h-20z" stroke="#000" stroke-width="2" fill="#fff"/><path d="M843.66 792.86l6.14-30.38" stroke="#008573" stroke-width="2" fill="none"/><path d="M840.64 807.83l-1.72-14.9 9.1 1.83z" stroke="#008573" stroke-width="2" fill="#008573"/><path d="M850.75 762.7l-1.9-.4.15-.8h2z" stroke="#008573" stroke-width=".05" fill="#008573"/><path d="M984.58 800.9a1 1 0 0 1 1-1 1 1 0 0 1 1 1 1 1 0 0 1-1 1 1 1 0 0 1-1-1m-3.7-1.36a1 1 0 0 1 1-1 1 1 0 0 1 1 1 1 1 0 0 1-1 1 1 1 0 0 1-1-1v-.02m-3.78-1.12a1 1 0 0 1 1-1 1 1 0 0 1 1 1 1 1 0 0 1-1 1 1 1 0 0 1-1-1v-.02m-3.83-.95a1 1 0 0 1 1-1 1 1 0 0 1 1 1 1 1 0 0 1-1 1 1 1 0 0 1-1-1v-.02m-3.85-.82a1 1 0 0 1 1-1 1 1 0 0 1 1 1 1 1 0 0 1-1 1 1 1 0 0 1-1-1v-.02m-3.88-.68a1 1 0 0 1 1-1 1 1 0 0 1 1 1 1 1 0 0 1-1 1 1 1 0 0 1-1-1v-.02m-3.9-.6a1 1 0 0 1 1-1 1 1 0 0 1 1 1 1 1 0 0 1-1 1 1 1 0 0 1-1-1m-3.9-.53a1 1 0 0 1 1-1 1 1 0 0 1 1 1 1 1 0 0 1-1 1 1 1 0 0 1-1-1v-.02m-3.94-.42a1 1 0 0 1 1-1 1 1 0 0 1 1 1 1 1 0 0 1-1 1 1 1 0 0 1-1-1v-.02m-3.92-.36a1 1 0 0 1 1-1 1 1 0 0 1 1 1 1 1 0 0 1-1 1 1 1 0 0 1-1-1v-.02m-3.93-.36a1 1 0 0 1 1-1 1 1 0 0 1 1 1 1 1 0 0 1-1 1 1 1 0 0 1-1-1m-3.94-.26a1 1 0 0 1 1-1 1 1 0 0 1 1 1 1 1 0 0 1-1 1 1 1 0 0 1-1-1v-.02m-3.93-.2a1 1 0 0 1 1-1 1 1 0 0 1 1 1 1 1 0 0 1-1 1 1 1 0 0 1-1-1m-3.94-.2a1 1 0 0 1 1-1 1 1 0 0 1 1 1 1 1 0 0 1-1 1 1 1 0 0 1-1-1v-.02m-3.95-.2a1 1 0 0 1 1-1 1 1 0 0 1 1 1 1 1 0 0 1-1 1 1 1 0 0 1-1-1m-3.94-.18a1 1 0 0 1 1-1 1 1 0 0 1 1 1 1 1 0 0 1-1 1 1 1 0 0 1-1-1v-.02m-3.94 0v-.02a1 1 0 0 1 1-1 1 1 0 0 1 1 1 1 1 0 0 1-1 1 1 1 0 0 1-1-1m-3.95-.02a1 1 0 0 1 1-1 1 1 0 0 1 1 1 1 1 0 0 1-1 1 1 1 0 0 1-1-1v-.02m-3.95 0v-.02a1 1 0 0 1 1-1 1 1 0 0 1 1 1 1 1 0 0 1-1 1 1 1 0 0 1-1-1m-3.94-.02a1 1 0 0 1 1-1 1 1 0 0 1 1 1 1 1 0 0 1-1 1 1 1 0 0 1-1-1v-.02m-3.95 0v-.02a1 1 0 0 1 1-1 1 1 0 0 1 1 1 1 1 0 0 1-1 1 1 1 0 0 1-1-1m-3.94-.02a1 1 0 0 1 1-1 1 1 0 0 1 1 1 1 1 0 0 1-1 1 1 1 0 0 1-1-1v-.02m-3.95 0v-.02a1 1 0 0 1 1-1 1 1 0 0 1 1 1 1 1 0 0 1-1 1 1 1 0 0 1-1-1m-3.93-.02a1 1 0 0 1 1-1 1 1 0 0 1 1 1 1 1 0 0 1-1 1 1 1 0 0 1-1-1v-.02m-3.95 0v-.02a1 1 0 0 1 1-1 1 1 0 0 1 1 1 1 1 0 0 1-1 1 1 1 0 0 1-1-1m-3.95-.02a1 1 0 0 1 1-1 1 1 0 0 1 1 1 1 1 0 0 1-1 1 1 1 0 0 1-1-1v-.02m-3.94 0v-.02a1 1 0 0 1 1-1 1 1 0 0 1 1 1 1 1 0 0 1-1 1 1 1 0 0 1-1-1m-3.95-.02a1 1 0 0 1 1-1 1 1 0 0 1 1 1 1 1 0 0 1-1 1 1 1 0 0 1-1-1v-.02m-3.95 0v-.02a1 1 0 0 1 1-1 1 1 0 0 1 1 1 1 1 0 0 1-1 1 1 1 0 0 1-1-1M988.25 798.14a1 1 0 0 1 1-1 1 1 0 0 1 1 1 1 1 0 0 1-1 1 1 1 0 0 1-1-1v-.02m-3.64-1.5a1 1 0 0 1 1-1 1 1 0 0 1 1 1 1 1 0 0 1-1 1 1 1 0 0 1-1-1v-.02m-3.72-1.25a1 1 0 0 1 1-1 1 1 0 0 1 1 1 1 1 0 0 1-1 1 1 1 0 0 1-1-1v-.02m-3.8-1.08a1 1 0 0 1 1-1 1 1 0 0 1 1 1 1 1 0 0 1-1 1 1 1 0 0 1-1-1m-3.82-.93a1 1 0 0 1 1-1 1 1 0 0 1 1 1 1 1 0 0 1-1 1 1 1 0 0 1-1-1v-.02m-3.86-.8a1 1 0 0 1 1-1 1 1 0 0 1 1 1 1 1 0 0 1-1 1 1 1 0 0 1-1-1m-3.88-.7a1 1 0 0 1 1-1 1 1 0 0 1 1 1 1 1 0 0 1-1 1 1 1 0 0 1-1-1m-3.9-.57a1 1 0 0 1 1-1 1 1 0 0 1 1 1 1 1 0 0 1-1 1 1 1 0 0 1-1-1v-.02m-3.9-.5v-.02a1 1 0 0 1 1-1 1 1 0 0 1 1 1 1 1 0 0 1-1 1 1 1 0 0 1-1-1m-3.93-.42a1 1 0 0 1 1-1 1 1 0 0 1 1 1 1 1 0 0 1-1 1 1 1 0 0 1-1-1v-.02m-3.94-.36a1 1 0 0 1 1-1 1 1 0 0 1 1 1 1 1 0 0 1-1 1 1 1 0 0 1-1-1v-.02m-3.93-.36a1 1 0 0 1 1-1 1 1 0 0 1 1 1 1 1 0 0 1-1 1 1 1 0 0 1-1-1m-3.93-.25a1 1 0 0 1 1-1 1 1 0 0 1 1 1 1 1 0 0 1-1 1 1 1 0 0 1-1-1m-3.94-.2a1 1 0 0 1 1-1 1 1 0 0 1 1 1 1 1 0 0 1-1 1 1 1 0 0 1-1-1V789m-3.94-.2a1 1 0 0 1 1-1 1 1 0 0 1 1 1 1 1 0 0 1-1 1 1 1 0 0 1-1-1v-.02m-3.94-.18a1 1 0 0 1 1-1 1 1 0 0 1 1 1 1 1 0 0 1-1 1 1 1 0 0 1-1-1v-.02m-3.94-.16a1 1 0 0 1 1-1 1 1 0 0 1 1 1 1 1 0 0 1-1 1 1 1 0 0 1-1-1v-.02m-3.94 0v-.02a1 1 0 0 1 1-1 1 1 0 0 1 1 1 1 1 0 0 1-1 1 1 1 0 0 1-1-1m-3.95-.02a1 1 0 0 1 1-1 1 1 0 0 1 1 1 1 1 0 0 1-1 1 1 1 0 0 1-1-1v-.02m-3.94 0v-.02a1 1 0 0 1 1-1 1 1 0 0 1 1 1 1 1 0 0 1-1 1 1 1 0 0 1-1-1m-3.94-.02a1 1 0 0 1 1-1 1 1 0 0 1 1 1 1 1 0 0 1-1 1 1 1 0 0 1-1-1v-.02m-3.94 0v-.02a1 1 0 0 1 1-1 1 1 0 0 1 1 1 1 1 0 0 1-1 1 1 1 0 0 1-1-1m-3.95-.02a1 1 0 0 1 1-1 1 1 0 0 1 1 1 1 1 0 0 1-1 1 1 1 0 0 1-1-1v-.02m-3.94 0v-.02a1 1 0 0 1 1-1 1 1 0 0 1 1 1 1 1 0 0 1-1 1 1 1 0 0 1-1-1m-3.95-.02a1 1 0 0 1 1-1 1 1 0 0 1 1 1 1 1 0 0 1-1 1 1 1 0 0 1-1-1v-.02m-3.94 0v-.02a1 1 0 0 1 1-1 1 1 0 0 1 1 1 1 1 0 0 1-1 1 1 1 0 0 1-1-1m-3.95-.02a1 1 0 0 1 1-1 1 1 0 0 1 1 1 1 1 0 0 1-1 1 1 1 0 0 1-1-1v-.02m-3.95 0v-.02a1 1 0 0 1 1-1 1 1 0 0 1 1 1 1 1 0 0 1-1 1 1 1 0 0 1-1-1m-3.95-.02a1 1 0 0 1 1-1 1 1 0 0 1 1 1 1 1 0 0 1-1 1 1 1 0 0 1-1-1v-.02m-3.94 0v-.02a1 1 0 0 1 1-1 1 1 0 0 1 1 1 1 1 0 0 1-1 1 1 1 0 0 1-1-1" fill="#1071e5"/><path d="M998.4 807.8l-14.88-1.86 9.05-11.96z" stroke="#1071e5" stroke-width="2" fill="#fff"/><path d="M872.02 791.03l-.02 1.95h-1V791zM872.05 787.03l-.02 1.95H871V787z" stroke="#1071e5" stroke-width=".05" fill="#1071e5"/><path d="M870.65 800.36a1 1 0 0 1 1-1 1 1 0 0 1 1 1 1 1 0 0 1-1 1 1 1 0 0 1-1-1v-.02m3.6-1.7a1 1 0 0 1 1-1 1 1 0 0 1 1 1 1 1 0 0 1-1 1 1 1 0 0 1-1-1v-.02m3.7-1.5v-.02a1 1 0 0 1 1-1 1 1 0 0 1 1 1 1 1 0 0 1-1 1 1 1 0 0 1-1-1m3.77-1.35a1 1 0 0 1 1-1 1 1 0 0 1 1 1 1 1 0 0 1-1 1 1 1 0 0 1-1-1v-.02m3.8-1.18a1 1 0 0 1 1-1 1 1 0 0 1 1 1 1 1 0 0 1-1 1 1 1 0 0 1-1-1v-.02m3.87-1.03a1 1 0 0 1 1-1 1 1 0 0 1 1 1 1 1 0 0 1-1 1 1 1 0 0 1-1-1v-.02m3.88-.9a1 1 0 0 1 1-1 1 1 0 0 1 1 1 1 1 0 0 1-1 1 1 1 0 0 1-1-1v-.03m3.92-.8a1 1 0 0 1 1-1 1 1 0 0 1 1 1 1 1 0 0 1-1 1 1 1 0 0 1-1-1v-.02m3.94-.65a1 1 0 0 1 1-1 1 1 0 0 1 1 1 1 1 0 0 1-1 1 1 1 0 0 1-1-1v-.02m3.95-.6a1 1 0 0 1 1-1 1 1 0 0 1 1 1 1 1 0 0 1-1 1 1 1 0 0 1-1-1v-.02m3.96-.48a1 1 0 0 1 1-1 1 1 0 0 1 1 1 1 1 0 0 1-1 1 1 1 0 0 1-1-1v-.02m3.97-.45v-.02a1 1 0 0 1 1-1 1 1 0 0 1 1 1 1 1 0 0 1-1 1 1 1 0 0 1-1-1m4-.3v-.02a1 1 0 0 1 1-1 1 1 0 0 1 1 1 1 1 0 0 1-1 1 1 1 0 0 1-1-1m3.98-.32a1 1 0 0 1 1-1 1 1 0 0 1 1 1 1 1 0 0 1-1 1 1 1 0 0 1-1-1v-.02m4-.23v-.02a1 1 0 0 1 1-1 1 1 0 0 1 1 1 1 1 0 0 1-1 1 1 1 0 0 1-1-1m4-.15a1 1 0 0 1 1-1 1 1 0 0 1 1 1 1 1 0 0 1-1 1 1 1 0 0 1-1-1m4-.15a1 1 0 0 1 1-1 1 1 0 0 1 1 1 1 1 0 0 1-1 1 1 1 0 0 1-1-1v-.02m4-.13a1 1 0 0 1 1-1 1 1 0 0 1 1 1 1 1 0 0 1-1 1 1 1 0 0 1-1-1v-.02m4-.04a1 1 0 0 1 1-1 1 1 0 0 1 1 1 1 1 0 0 1-1 1 1 1 0 0 1-1-1v-.02m4 .02a1 1 0 0 1 1-1 1 1 0 0 1 1 1 1 1 0 0 1-1 1 1 1 0 0 1-1-1v-.02m4 0a1 1 0 0 1 1-1 1 1 0 0 1 1 1 1 1 0 0 1-1 1 1 1 0 0 1-1-1m4 0a1 1 0 0 1 1-1 1 1 0 0 1 1 1 1 1 0 0 1-1 1 1 1 0 0 1-1-1m4 0a1 1 0 0 1 1-1 1 1 0 0 1 1 1 1 1 0 0 1-1 1 1 1 0 0 1-1-1m4 0a1 1 0 0 1 1-1 1 1 0 0 1 1 1 1 1 0 0 1-1 1 1 1 0 0 1-1-1V788m4 .02a1 1 0 0 1 1-1 1 1 0 0 1 1 1 1 1 0 0 1-1 1 1 1 0 0 1-1-1V788m4 0a1 1 0 0 1 1-1 1 1 0 0 1 1 1 1 1 0 0 1-1 1 1 1 0 0 1-1-1m4 0a1 1 0 0 1 1-1 1 1 0 0 1 1 1 1 1 0 0 1-1 1 1 1 0 0 1-1-1m4 0a1 1 0 0 1 1-1 1 1 0 0 1 1 1 1 1 0 0 1-1 1 1 1 0 0 1-1-1V788m4 .02a1 1 0 0 1 1-1 1 1 0 0 1 1 1 1 1 0 0 1-1 1 1 1 0 0 1-1-1V788m4 0a1 1 0 0 1 1-1 1 1 0 0 1 1 1 1 1 0 0 1-1 1 1 1 0 0 1-1-1M873.47 803.43a1 1 0 0 1 1-1 1 1 0 0 1 1 1 1 1 0 0 1-1 1 1 1 0 0 1-1-1v-.02m3.67-1.66a1 1 0 0 1 1-1 1 1 0 0 1 1 1 1 1 0 0 1-1 1 1 1 0 0 1-1-1v-.02m3.75-1.46a1 1 0 0 1 1-1 1 1 0 0 1 1 1 1 1 0 0 1-1 1 1 1 0 0 1-1-1v-.02m3.8-1.27a1 1 0 0 1 1-1 1 1 0 0 1 1 1 1 1 0 0 1-1 1 1 1 0 0 1-1-1v-.02m3.88-1.12a1 1 0 0 1 1-1 1 1 0 0 1 1 1 1 1 0 0 1-1 1 1 1 0 0 1-1-1v-.02m3.9-.96a1 1 0 0 1 1-1 1 1 0 0 1 1 1 1 1 0 0 1-1 1 1 1 0 0 1-1-1v-.02m3.96-.82a1 1 0 0 1 1-1 1 1 0 0 1 1 1 1 1 0 0 1-1 1 1 1 0 0 1-1-1v-.02m3.97-.72a1 1 0 0 1 1-1 1 1 0 0 1 1 1 1 1 0 0 1-1 1 1 1 0 0 1-1-1v-.02m4-.65v-.02a1 1 0 0 1 1-1 1 1 0 0 1 1 1 1 1 0 0 1-1 1 1 1 0 0 1-1-1m4-.5a1 1 0 0 1 1-1 1 1 0 0 1 1 1 1 1 0 0 1-1 1 1 1 0 0 1-1-1v-.02m4-.48a1 1 0 0 1 1-1 1 1 0 0 1 1 1 1 1 0 0 1-1 1 1 1 0 0 1-1-1v-.02m4-.33a1 1 0 0 1 1-1 1 1 0 0 1 1 1 1 1 0 0 1-1 1 1 1 0 0 1-1-1v-.02m4.03-.3a1 1 0 0 1 1-1 1 1 0 0 1 1 1 1 1 0 0 1-1 1 1 1 0 0 1-1-1v-.02m4.03-.27a1 1 0 0 1 1-1 1 1 0 0 1 1 1 1 1 0 0 1-1 1 1 1 0 0 1-1-1m4.03-.14a1 1 0 0 1 1-1 1 1 0 0 1 1 1 1 1 0 0 1-1 1 1 1 0 0 1-1-1v-.02m4.02-.14a1 1 0 0 1 1-1 1 1 0 0 1 1 1 1 1 0 0 1-1 1 1 1 0 0 1-1-1v-.02m4.03-.13a1 1 0 0 1 1-1 1 1 0 0 1 1 1 1 1 0 0 1-1 1 1 1 0 0 1-1-1v-.02m4.04-.07a1 1 0 0 1 1-1 1 1 0 0 1 1 1 1 1 0 0 1-1 1 1 1 0 0 1-1-1v-.02m4.02.02a1 1 0 0 1 1-1 1 1 0 0 1 1 1 1 1 0 0 1-1 1 1 1 0 0 1-1-1v-.02m4.03 0a1 1 0 0 1 1-1 1 1 0 0 1 1 1 1 1 0 0 1-1 1 1 1 0 0 1-1-1m4.04 0a1 1 0 0 1 1-1 1 1 0 0 1 1 1 1 1 0 0 1-1 1 1 1 0 0 1-1-1m4.02 0a1 1 0 0 1 1-1 1 1 0 0 1 1 1 1 1 0 0 1-1 1 1 1 0 0 1-1-1m4.04 0a1 1 0 0 1 1-1 1 1 0 0 1 1 1 1 1 0 0 1-1 1 1 1 0 0 1-1-1V792m4.03.02a1 1 0 0 1 1-1 1 1 0 0 1 1 1 1 1 0 0 1-1 1 1 1 0 0 1-1-1V792m4.03 0a1 1 0 0 1 1-1 1 1 0 0 1 1 1 1 1 0 0 1-1 1 1 1 0 0 1-1-1m4.03 0a1 1 0 0 1 1-1 1 1 0 0 1 1 1 1 1 0 0 1-1 1 1 1 0 0 1-1-1m4.04 0a1 1 0 0 1 1-1 1 1 0 0 1 1 1 1 1 0 0 1-1 1 1 1 0 0 1-1-1V792m4.03.02a1 1 0 0 1 1-1 1 1 0 0 1 1 1 1 1 0 0 1-1 1 1 1 0 0 1-1-1V792m4.04 0a1 1 0 0 1 1-1 1 1 0 0 1 1 1 1 1 0 0 1-1 1 1 1 0 0 1-1-1" fill="#1071e5"/><path d="M861.64 809.86l6.36-13.6 8.6 12.3z" stroke="#1071e5" stroke-width="2" fill="#fff"/><path d="M991 788.98h-1.03v-1.95H991zM991 792.98h-1.02v-1.95H991z" stroke="#1071e5" stroke-width=".05" fill="#1071e5"/><path d="M969.34 793.03l19.7-33.67" stroke="#008573" stroke-width="2" fill="none"/><path d="M961.63 806.2l3.2-14.65 8 4.68z" stroke="#008573" stroke-width="2" fill="#008573"/><path d="M989.87 759.88l-1.7-1 .24-.38h2.27z" stroke="#008573" stroke-width=".05" fill="#008573"/><path d="M1028.76 798.7v-.02a1 1 0 0 1 1-1 1 1 0 0 1 1 1 1 1 0 0 1-1 1 1 1 0 0 1-1-1m3.4-2.14a1 1 0 0 1 1-1 1 1 0 0 1 1 1 1 1 0 0 1-1 1 1 1 0 0 1-1-1v-.02m3.53-1.88a1 1 0 0 1 1-1 1 1 0 0 1 1 1 1 1 0 0 1-1 1 1 1 0 0 1-1-1v-.02m3.66-1.62a1 1 0 0 1 1-1 1 1 0 0 1 1 1 1 1 0 0 1-1 1 1 1 0 0 1-1-1v-.02m3.76-1.4a1 1 0 0 1 1-1 1 1 0 0 1 1 1 1 1 0 0 1-1 1 1 1 0 0 1-1-1m3.83-1.2v-.02a1 1 0 0 1 1-1 1 1 0 0 1 1 1 1 1 0 0 1-1 1 1 1 0 0 1-1-1m3.88-1v-.02a1 1 0 0 1 1-1 1 1 0 0 1 1 1 1 1 0 0 1-1 1 1 1 0 0 1-1-1m3.93-.84a1 1 0 0 1 1-1 1 1 0 0 1 1 1 1 1 0 0 1-1 1 1 1 0 0 1-1-1v-.02m3.96-.66v-.02a1 1 0 0 1 1-1 1 1 0 0 1 1 1 1 1 0 0 1-1 1 1 1 0 0 1-1-1m3.98-.55a1 1 0 0 1 1-1 1 1 0 0 1 1 1 1 1 0 0 1-1 1 1 1 0 0 1-1-1v-.02m4-.4v-.02a1 1 0 0 1 1-1 1 1 0 0 1 1 1 1 1 0 0 1-1 1 1 1 0 0 1-1-1m4-.27a1 1 0 0 1 1-1 1 1 0 0 1 1 1 1 1 0 0 1-1 1 1 1 0 0 1-1-1v-.02m4-.2v-.02a1 1 0 0 1 1-1 1 1 0 0 1 1 1 1 1 0 0 1-1 1 1 1 0 0 1-1-1m4.03-.07a1 1 0 0 1 1-1 1 1 0 0 1 1 1 1 1 0 0 1-1 1 1 1 0 0 1-1-1m4-.05a1 1 0 0 1 1-1 1 1 0 0 1 1 1 1 1 0 0 1-1 1 1 1 0 0 1-1-1v-.02m4.03.07a1 1 0 0 1 1-1 1 1 0 0 1 1 1 1 1 0 0 1-1 1 1 1 0 0 1-1-1v-.02m4.02.15a1 1 0 0 1 1-1 1 1 0 0 1 1 1 1 1 0 0 1-1 1 1 1 0 0 1-1-1v-.02m4.02.16a1 1 0 0 1 1-1 1 1 0 0 1 1 1 1 1 0 0 1-1 1 1 1 0 0 1-1-1v-.02m4 .17a1 1 0 0 1 1-1 1 1 0 0 1 1 1 1 1 0 0 1-1 1 1 1 0 0 1-1-1m4.02.25a1 1 0 0 1 1-1 1 1 0 0 1 1 1 1 1 0 0 1-1 1 1 1 0 0 1-1-1v-.02m4 .25a1 1 0 0 1 1-1 1 1 0 0 1 1 1 1 1 0 0 1-1 1 1 1 0 0 1-1-1v-.02m4.03.25a1 1 0 0 1 1-1 1 1 0 0 1 1 1 1 1 0 0 1-1 1 1 1 0 0 1-1-1m4 .24a1 1 0 0 1 1-1 1 1 0 0 1 1 1 1 1 0 0 1-1 1 1 1 0 0 1-1-1v-.02m4.02.25a1 1 0 0 1 1-1 1 1 0 0 1 1 1 1 1 0 0 1-1 1 1 1 0 0 1-1-1v-.02m4 .25a1 1 0 0 1 1-1 1 1 0 0 1 1 1 1 1 0 0 1-1 1 1 1 0 0 1-1-1v-.02m4.03.1v-.02a1 1 0 0 1 1-1 1 1 0 0 1 1 1 1 1 0 0 1-1 1 1 1 0 0 1-1-1M1032.13 801.25a1 1 0 0 1 1-1 1 1 0 0 1 1 1 1 1 0 0 1-1 1 1 1 0 0 1-1-1v-.02m3.47-2.04v-.02a1 1 0 0 1 1-1 1 1 0 0 1 1 1 1 1 0 0 1-1 1 1 1 0 0 1-1-1m3.63-1.76a1 1 0 0 1 1-1 1 1 0 0 1 1 1 1 1 0 0 1-1 1 1 1 0 0 1-1-1v-.02m3.73-1.52a1 1 0 0 1 1-1 1 1 0 0 1 1 1 1 1 0 0 1-1 1 1 1 0 0 1-1-1v-.02m3.83-1.27v-.02a1 1 0 0 1 1-1 1 1 0 0 1 1 1 1 1 0 0 1-1 1 1 1 0 0 1-1-1m3.88-1.07a1 1 0 0 1 1-1 1 1 0 0 1 1 1 1 1 0 0 1-1 1 1 1 0 0 1-1-1m3.93-.9a1 1 0 0 1 1-1 1 1 0 0 1 1 1 1 1 0 0 1-1 1 1 1 0 0 1-1-1m4-.72a1 1 0 0 1 1-1 1 1 0 0 1 1 1 1 1 0 0 1-1 1 1 1 0 0 1-1-1v-.02m3.98-.57v-.02a1 1 0 0 1 1-1 1 1 0 0 1 1 1 1 1 0 0 1-1 1 1 1 0 0 1-1-1m4.02-.42a1 1 0 0 1 1-1 1 1 0 0 1 1 1 1 1 0 0 1-1 1 1 1 0 0 1-1-1v-.02m4.02-.3a1 1 0 0 1 1-1 1 1 0 0 1 1 1 1 1 0 0 1-1 1 1 1 0 0 1-1-1v-.02m4.03-.22a1 1 0 0 1 1-1 1 1 0 0 1 1 1 1 1 0 0 1-1 1 1 1 0 0 1-1-1v-.02m4.04-.07a1 1 0 0 1 1-1 1 1 0 0 1 1 1 1 1 0 0 1-1 1 1 1 0 0 1-1-1m4.03-.05a1 1 0 0 1 1-1 1 1 0 0 1 1 1 1 1 0 0 1-1 1 1 1 0 0 1-1-1v-.02m4.04.08a1 1 0 0 1 1-1 1 1 0 0 1 1 1 1 1 0 0 1-1 1 1 1 0 0 1-1-1m4.03.14a1 1 0 0 1 1-1 1 1 0 0 1 1 1 1 1 0 0 1-1 1 1 1 0 0 1-1-1v-.02m4.04.15a1 1 0 0 1 1-1 1 1 0 0 1 1 1 1 1 0 0 1-1 1 1 1 0 0 1-1-1v-.02m4.04.17a1 1 0 0 1 1-1 1 1 0 0 1 1 1 1 1 0 0 1-1 1 1 1 0 0 1-1-1v-.02m4.03.26a1 1 0 0 1 1-1 1 1 0 0 1 1 1 1 1 0 0 1-1 1 1 1 0 0 1-1-1v-.02m4.04.25v-.02a1 1 0 0 1 1-1 1 1 0 0 1 1 1 1 1 0 0 1-1 1 1 1 0 0 1-1-1m4.03.24a1 1 0 0 1 1-1 1 1 0 0 1 1 1 1 1 0 0 1-1 1 1 1 0 0 1-1-1v-.02m4.04.26a1 1 0 0 1 1-1 1 1 0 0 1 1 1 1 1 0 0 1-1 1 1 1 0 0 1-1-1v-.02m4.04.25v-.02a1 1 0 0 1 1-1 1 1 0 0 1 1 1 1 1 0 0 1-1 1 1 1 0 0 1-1-1m4.03.24a1 1 0 0 1 1-1 1 1 0 0 1 1 1 1 1 0 0 1-1 1 1 1 0 0 1-1-1V792" fill="#1071e5"/><path d="M1021.44 809.6l4.13-14.4 10.42 10.77z" stroke="#1071e5" stroke-width="2" fill="#fff"/><path d="M1129 788.97l-1.08.06-.1-1.95 1.18-.06zM1129 792.98l-.87.04-.1-1.94.97-.05z" stroke="#1071e5" stroke-width=".05" fill="#1071e5"/><path d="M430 1130h20v40h-20z" stroke="#000" stroke-width="2" fill="url(#aj)"/><use xlink:href="#aa" transform="matrix(1,0,0,1,434.9999999999999,1134.9999999999998) translate(-3.6419753086419746 19.944444444444443)"/><path d="M410 1130h20v40h-20z" stroke="#000" stroke-width="2" fill="url(#ak)"/><use xlink:href="#ac" transform="matrix(1,0,0,1,414.9999999999999,1134.9999999999998) translate(-2.4074074074074066 19.944444444444443)"/><path d="M450 1130h20v40h-20zM390 1130h20v40h-20z" stroke="#000" stroke-width="2" fill="#fff"/><path d="M423.8 1110.9l6-28.42" stroke="#008573" stroke-width="2" fill="none"/><path d="M420.67 1125.83l-1.6-14.9 9.07 1.9z" stroke="#008573" stroke-width="2" fill="#008573"/><path d="M430.74 1082.7l-1.9-.4.16-.8h2z" stroke="#008573" stroke-width=".05" fill="#008573"/><path d="M457 1121.66l92.08-39.76" stroke="#cc4e00" stroke-width="2" fill="none"/><path d="M442.97 1127.72l11.26-9.9 3.67 8.5z" stroke="#cc4e00" stroke-width="2" fill="#cc4e00"/><path d="M549.45 1082.8l-.57-1.3h3.58z" stroke="#cc4e00" stroke-width=".05" fill="#cc4e00"/><path d="M1002.2 1111.83l-11.83-29.4" stroke="#cc4e00" stroke-width="2" fill="none"/><path d="M1007.88 1126l-9.62-11.5 8.6-3.47z" stroke="#cc4e00" stroke-width="2" fill="#cc4e00"/><path d="M991.3 1082.1l-1.82.72-.53-1.32h2.1z" stroke="#cc4e00" stroke-width=".05" fill="#cc4e00"/><path d="M877.33 1114.7l-26.7-32.43" stroke="#008573" stroke-width="2" fill="none"/><path d="M887.03 1126.5l-12.65-8.07 7.16-5.9z" stroke="#008573" stroke-width="2" fill="#008573"/><path d="M851.4 1081.67l-1.5 1.24-1.16-1.4h2.52z" stroke="#008573" stroke-width=".05" fill="#008573"/><path d="M1142.6 1112.08l-13.1-29.66" stroke="#008573" stroke-width="2" fill="none"/><path d="M1148.78 1126.04l-10-11.17 8.47-3.75z" stroke="#008573" stroke-width="2" fill="#008573"/><path d="M1130.4 1082.04l-1.8.8-.58-1.34h2.13z" stroke="#008573" stroke-width=".05" fill="#008573"/><path d="M401.6 798a6 6 0 0 1-4.44-7.24l6.47-27.24a6 6 0 0 1 7.22-4.45l7.78 1.85a6 6 0 0 1 4.45 7.22l-6.47 27.25a6 6 0 0 1-7.2 4.44z" stroke="#000" stroke-opacity="0" stroke-width="2" fill="#fff" fill-opacity="0"/><use xlink:href="#al" transform="matrix(0.23106741079376872,-0.9729377429563845,0.9729377429563845,0.23106741079376872,401.7894300210484,792.8921923214472) translate(-3.7407407407407334 14.222222222222218)"/><path d="M507.36 791.8a6 6 0 0 1-1.56-8.34l15.83-23.1a6 6 0 0 1 8.35-1.55l6.6 4.53a6 6 0 0 1 1.55 8.34l-15.83 23.1a6 6 0 0 1-8.35 1.55z" stroke="#000" stroke-opacity="0" stroke-width="2" fill="#fff" fill-opacity="0"/><use xlink:href="#al" transform="matrix(0.5654842060744227,-0.8247591240358484,0.8247591240358484,0.5654842060744227,509.35915666449273,787.1078701964336) translate(-3.7407407407407334 14.222222222222218)"/><path d="M672.92 799.72a6 6 0 0 1-6-6v-28a6 6 0 0 1 6-6h8a6 6 0 0 1 6 6v28a6 6 0 0 1-6 6z" stroke="#000" stroke-opacity="0" stroke-width="2" fill="#fff" fill-opacity="0"/><use xlink:href="#al" transform="matrix(6.123233995736766e-17,-1,1,6.123233995736766e-17,671.9209537713157,794.7172578969628) translate(-3.7407407407407334 14.222222222222218)"/><path d="M458.46 754.04a6 6 0 0 1 7.73-3.5l26.2 9.84a6 6 0 0 1 3.5 7.72l-2.8 7.5a6 6 0 0 1-7.73 3.5l-26.22-9.84a6 6 0 0 1-3.5-7.73z" stroke="#000" stroke-opacity="0" stroke-width="2" fill="#fff" fill-opacity="0"/><use xlink:href="#am" transform="matrix(0.9361508776761209,0.35159854127431817,-0.35159854127431817,0.9361508776761209,463.49178751271614,754.8619587006324) translate(-5.71604938271604 14.222222222222218)"/><path d="M434.73 791.03a6 6 0 0 1 3.07-7.9l25.63-11.3a6 6 0 0 1 7.9 3.07l3.23 7.32a6 6 0 0 1-3.07 7.9l-25.63 11.3a6 6 0 0 1-7.9-3.07z" stroke="#000" stroke-opacity="0" stroke-width="2" fill="#fff" fill-opacity="0"/><use xlink:href="#am" transform="matrix(0.9150570850990786,-0.40332434963683717,0.40332434963683717,0.9150570850990786,438.9050602762272,788.1007322359662) translate(-5.71604938271604 14.222222222222218)"/><path d="M598.7 777.7a6 6 0 0 1 2.5-8.1l24.8-13.02a6 6 0 0 1 8.1 2.52l3.72 7.08a6 6 0 0 1-2.52 8.1l-24.8 13.03a6 6 0 0 1-8.1-2.5z" stroke="#000" stroke-opacity="0" stroke-width="2" fill="#fff" fill-opacity="0"/><use xlink:href="#am" transform="matrix(0.8851800673342299,-0.4652485877401114,0.4652485877401114,0.8851800673342299,602.6502850662878,774.4938738873436) translate(-5.71604938271604 14.222222222222218)"/><path d="M903.3 791.7a6 6 0 0 1 6-6h28a6 6 0 0 1 6 6v8a6 6 0 0 1-6 6h-28a6 6 0 0 1-6-6z" stroke="#000" stroke-opacity="0" stroke-width="2" fill="#fff" fill-opacity="0"/><use xlink:href="#an" transform="matrix(1,0,0,1,908.300745994392,790.6883882683546) translate(-5.69135802469135 14.222222222222218)"/><path d="M850 761.5l.7.7" stroke="#cc4e00" stroke-width="2" fill="none"/><path d="M855.2 766.7l-13.35-6.8 6.55-6.55z" stroke="#cc4e00" stroke-width="2" fill="#cc4e00"/><path d="M851.4 761.54l-1.36 1.38-1.42-1.42h2.76z" stroke="#cc4e00" stroke-width=".05" fill="#cc4e00"/><path d="M989.53 758.53l.7.7" stroke="#cc4e00" stroke-width="2" fill="none"/><path d="M997.7 766.7l-13.35-6.8 6.55-6.55z" stroke="#cc4e00" stroke-width="2" fill="#cc4e00"/><path d="M990.25 759.25l-.72-.72" stroke="#cc4e00" stroke-width="2" fill="none"/><path d="M1039.53 793.33a6 6 0 0 1 6-6h28a6 6 0 0 1 6 6v8a6 6 0 0 1-6 6h-28a6 6 0 0 1-6-6z" stroke="#000" stroke-opacity="0" stroke-width="2" fill="#fff" fill-opacity="0"/><use xlink:href="#an" transform="matrix(1,0,0,1,1044.5246913580245,792.3333333333334) translate(-5.69135802469135 14.222222222222218)"/><path d="M1130 792.5v-33" stroke="#008573" stroke-width="2" fill="none"/><path d="M1130 807.76l-4.63-14.26h9.27z" stroke="#008573" stroke-width="2" fill="#008573"/><path d="M1130.97 759.53h-1.94v-1.03h1.94z" stroke="#008573" stroke-width=".05" fill="#008573"/><path d="M1131 761.5l.7.7" stroke="#cc4e00" stroke-width="2" fill="none"/><path d="M1136.2 766.7l-13.35-6.8 6.55-6.55z" stroke="#cc4e00" stroke-width="2" fill="#cc4e00"/><path d="M1132.4 761.54l-1.36 1.38-1.42-1.42h2.76z" stroke="#cc4e00" stroke-width=".05" fill="#cc4e00"/><path d="M380 866a6 6 0 0 1 6-6h328a6 6 0 0 1 6 6v48a6 6 0 0 1-6 6H386a6 6 0 0 1-6-6z" stroke="#000" stroke-opacity="0" stroke-width="3" fill="#fff" fill-opacity="0"/><g><use xlink:href="#ao" transform="matrix(1,0,0,1,385,864.9999999999998) translate(35.259259259259295 30.895833333333325)"/><use xlink:href="#ap" transform="matrix(1,0,0,1,385,864.9999999999998) translate(60.888888888888914 30.895833333333325)"/><use xlink:href="#aq" transform="matrix(1,0,0,1,385,864.9999999999998) translate(151.1111111111111 30.895833333333325)"/><use xlink:href="#ar" transform="matrix(1,0,0,1,385,864.9999999999998) translate(199.9259259259259 30.895833333333325)"/></g><path d="M799.08 866a6 6 0 0 1 6-6H1174a6 6 0 0 1 6 6v48a6 6 0 0 1-6 6H805.08a6 6 0 0 1-6-6z" stroke="#000" stroke-opacity="0" stroke-width="3" fill="#fff" fill-opacity="0"/><g><use xlink:href="#as" transform="matrix(1,0,0,1,804.0833459375002,865) translate(25.981481481481552 30.895833333333325)"/><use xlink:href="#at" transform="matrix(1,0,0,1,804.0833459375002,865) translate(98.27777777777781 30.895833333333325)"/><use xlink:href="#au" transform="matrix(1,0,0,1,804.0833459375002,865) translate(152.94444444444446 30.895833333333325)"/><use xlink:href="#av" transform="matrix(1,0,0,1,804.0833459375002,865) translate(247.38888888888886 30.895833333333325)"/></g><path d="M380 1186a6 6 0 0 1 6-6h328a6 6 0 0 1 6 6v48a6 6 0 0 1-6 6H386a6 6 0 0 1-6-6z" stroke="#000" stroke-opacity="0" stroke-width="3" fill="#fff" fill-opacity="0"/><g><use xlink:href="#ao" transform="matrix(1,0,0,1,385,1185) translate(30.222222222222285 30.895833333333325)"/><use xlink:href="#ap" transform="matrix(1,0,0,1,385,1185) translate(55.851851851851904 30.895833333333325)"/><use xlink:href="#aq" transform="matrix(1,0,0,1,385,1185) translate(146.07407407407408 30.895833333333325)"/><use xlink:href="#aw" transform="matrix(1,0,0,1,385,1185) translate(194.88888888888889 30.895833333333325)"/></g><path d="M800 1186a6 6 0 0 1 6-6h368.92a6 6 0 0 1 6 6v48a6 6 0 0 1-6 6H806a6 6 0 0 1-6-6z" stroke="#000" stroke-opacity="0" stroke-width="3" fill="#fff" fill-opacity="0"/><g><use xlink:href="#ao" transform="matrix(1,0,0,1,805,1185) translate(36.57407407407413 30.895833333333325)"/><use xlink:href="#ax" transform="matrix(1,0,0,1,805,1185) translate(62.20370370370375 30.895833333333325)"/><use xlink:href="#ay" transform="matrix(1,0,0,1,805,1185) translate(149.462962962963 30.895833333333325)"/><use xlink:href="#az" transform="matrix(1,0,0,1,805,1185) translate(251.6111111111111 30.895833333333325)"/></g><defs><linearGradient gradientUnits="userSpaceOnUse" id="a" x1="400" y1="760" x2="400" y2="640"><stop offset="19.2%" stop-color="#ced4db"/><stop offset="26.45%" stop-color="#fff"/><stop offset="34.06%" stop-color="#fff"/><stop offset="42.03%" stop-color="#cfe4ff"/><stop offset="68.84%" stop-color="#cfe4ff"/><stop offset="78.62%" stop-color="#c3f7c8"/></linearGradient><path d="M185-189c-5-48-123-54-124 2 14 75 158 14 163 119 3 78-121 87-175 55-17-10-28-26-33-46l33-7c5 56 141 63 141-1 0-78-155-14-162-118-5-82 145-84 179-34 5 7 8 16 11 25" id="aA"/><path d="M100-194c63 0 86 42 84 106H49c0 40 14 67 53 68 26 1 43-12 49-29l28 8c-11 28-37 45-77 45C44 4 14-33 15-96c1-61 26-98 85-98zm52 81c6-60-76-77-97-28-3 7-6 17-6 28h103" id="aB"/><path d="M114-163C36-179 61-72 57 0H25l-1-190h30c1 12-1 29 2 39 6-27 23-49 58-41v29" id="aC"/><path d="M108 0H70L1-190h34L89-25l56-165h34" id="aD"/><path d="M24-231v-30h32v30H24zM24 0v-190h32V0H24" id="aE"/><path d="M96-169c-40 0-48 33-48 73s9 75 48 75c24 0 41-14 43-38l32 2c-6 37-31 61-74 61-59 0-76-41-82-99-10-93 101-131 147-64 4 7 5 14 7 22l-32 3c-4-21-16-35-41-35" id="aF"/><g id="b"><use transform="matrix(0.06790123456790124,0,0,0.06790123456790124,0,0)" xlink:href="#aA"/><use transform="matrix(0.06790123456790124,0,0,0.06790123456790124,16.296296296296298,0)" xlink:href="#aB"/><use transform="matrix(0.06790123456790124,0,0,0.06790123456790124,29.876543209876544,0)" xlink:href="#aC"/><use transform="matrix(0.06790123456790124,0,0,0.06790123456790124,37.95679012345679,0)" xlink:href="#aD"/><use transform="matrix(0.06790123456790124,0,0,0.06790123456790124,50.17901234567901,0)" xlink:href="#aE"/><use transform="matrix(0.06790123456790124,0,0,0.06790123456790124,55.54320987654321,0)" xlink:href="#aF"/><use transform="matrix(0.06790123456790124,0,0,0.06790123456790124,67.76543209876543,0)" xlink:href="#aB"/></g><path d="M195 0l-74-108L45 0H8l94-129-87-119h37l69 98 67-98h37l-84 118L233 0h-38" id="aG"/><use transform="matrix(0.06790123456790124,0,0,0.06790123456790124,0,0)" xlink:href="#aG" id="c"/><linearGradient gradientUnits="userSpaceOnUse" id="d" x1="520" y1="760" x2="520" y2="640"><stop offset="19.2%" stop-color="#ced4db"/><stop offset="26.45%" stop-color="#fff"/><stop offset="34.06%" stop-color="#fff"/><stop offset="42.03%" stop-color="#cfe4ff"/><stop offset="68.84%" stop-color="#cfe4ff"/><stop offset="78.62%" stop-color="#c3f7c8"/></linearGradient><path d="M137-103V0h-34v-103L8-248h37l75 118 75-118h37" id="aH"/><use transform="matrix(0.06790123456790124,0,0,0.06790123456790124,0,0)" xlink:href="#aH" id="e"/><linearGradient gradientUnits="userSpaceOnUse" id="f" x1="640" y1="760" x2="640" y2="640"><stop offset="19.2%" stop-color="#ced4db"/><stop offset="26.45%" stop-color="#fff"/><stop offset="34.06%" stop-color="#fff"/><stop offset="42.03%" stop-color="#cfe4ff"/><stop offset="68.84%" stop-color="#cfe4ff"/><stop offset="78.62%" stop-color="#c3f7c8"/></linearGradient><path d="M209 0H11v-25l151-195H24v-28h176v25L50-27h159V0" id="aI"/><use transform="matrix(0.06790123456790124,0,0,0.06790123456790124,0,0)" xlink:href="#aI" id="g"/><linearGradient gradientUnits="userSpaceOnUse" id="h" x1="530" y1="810" x2="530" y2="850"><stop offset="19.29%" stop-color="#fff"/><stop offset="23.21%" stop-color="#ced4db"/><stop offset="66.79%" stop-color="#ced4db"/><stop offset="73.57%" stop-color="#fff"/></linearGradient><path d="M160-131c35 5 61 23 61 61C221 17 115-2 30 0v-248c76 3 177-17 177 60 0 33-19 50-47 57zm-97-11c50-1 110 9 110-42 0-47-63-36-110-37v79zm0 115c55-2 124 14 124-45 0-56-70-42-124-44v89" id="aJ"/><use transform="matrix(0.06172839506172839,0,0,0.06172839506172839,0,0)" xlink:href="#aJ" id="i"/><linearGradient gradientUnits="userSpaceOnUse" id="j" x1="550" y1="810" x2="550" y2="850"><stop offset="19.29%" stop-color="#fff"/><stop offset="23.21%" stop-color="#ced4db"/><stop offset="66.79%" stop-color="#ced4db"/><stop offset="73.57%" stop-color="#fff"/></linearGradient><path fill="#cc4e00" d="M212-179c-10-28-35-45-73-45-59 0-87 40-87 99 0 60 29 101 89 101 43 0 62-24 78-52l27 14C228-24 195 4 139 4 59 4 22-46 18-125c-6-104 99-153 187-111 19 9 31 26 39 46" id="aK"/><use transform="matrix(0.06172839506172839,0,0,0.06172839506172839,0,0)" xlink:href="#aK" id="k"/><linearGradient gradientUnits="userSpaceOnUse" id="l" x1="570" y1="810" x2="570" y2="850"><stop offset="19.29%" stop-color="#fff"/><stop offset="23.21%" stop-color="#ced4db"/><stop offset="66.79%" stop-color="#ced4db"/><stop offset="73.57%" stop-color="#fff"/></linearGradient><path fill="#cc4e00" d="M30-248c118-7 216 8 213 122C240-48 200 0 122 0H30v-248zM63-27c89 8 146-16 146-99s-60-101-146-95v194" id="aL"/><use transform="matrix(0.06172839506172839,0,0,0.06172839506172839,0,0)" xlink:href="#aL" id="m"/><linearGradient gradientUnits="userSpaceOnUse" id="n" x1="510" y1="810" x2="510" y2="850"><stop offset="19.29%" stop-color="#fff"/><stop offset="23.21%" stop-color="#ced4db"/><stop offset="66.79%" stop-color="#ced4db"/><stop offset="73.57%" stop-color="#fff"/></linearGradient><path fill="#008573" d="M205 0l-28-72H64L36 0H1l101-248h38L239 0h-34zm-38-99l-47-123c-12 45-31 82-46 123h93" id="aM"/><use transform="matrix(0.06172839506172839,0,0,0.06172839506172839,0,0)" xlink:href="#aM" id="o"/><linearGradient gradientUnits="userSpaceOnUse" id="p" x1="820" y1="760" x2="820" y2="640"><stop offset="19.2%" stop-color="#ced4db"/><stop offset="26.45%" stop-color="#fff"/><stop offset="34.06%" stop-color="#fff"/><stop offset="42.03%" stop-color="#cfe4ff"/><stop offset="68.84%" stop-color="#cfe4ff"/><stop offset="78.62%" stop-color="#c3f7c8"/></linearGradient><linearGradient gradientUnits="userSpaceOnUse" id="q" x1="960" y1="760" x2="960" y2="640"><stop offset="19.2%" stop-color="#ced4db"/><stop offset="26.45%" stop-color="#fff"/><stop offset="34.06%" stop-color="#fff"/><stop offset="42.03%" stop-color="#cfe4ff"/><stop offset="68.84%" stop-color="#cfe4ff"/><stop offset="78.62%" stop-color="#c3f7c8"/></linearGradient><linearGradient gradientUnits="userSpaceOnUse" id="r" x1="1099.08" y1="760" x2="1099.08" y2="640"><stop offset="19.2%" stop-color="#ced4db"/><stop offset="26.45%" stop-color="#fff"/><stop offset="34.06%" stop-color="#fff"/><stop offset="42.03%" stop-color="#cfe4ff"/><stop offset="68.84%" stop-color="#cfe4ff"/><stop offset="78.62%" stop-color="#c3f7c8"/></linearGradient><linearGradient gradientUnits="userSpaceOnUse" id="s" x1="970" y1="810" x2="970" y2="850"><stop offset="19.29%" stop-color="#fff"/><stop offset="23.21%" stop-color="#ced4db"/><stop offset="66.79%" stop-color="#ced4db"/><stop offset="73.57%" stop-color="#fff"/></linearGradient><linearGradient gradientUnits="userSpaceOnUse" id="t" x1="990" y1="810" x2="990" y2="850"><stop offset="19.29%" stop-color="#fff"/><stop offset="23.21%" stop-color="#ced4db"/><stop offset="66.79%" stop-color="#ced4db"/><stop offset="73.57%" stop-color="#fff"/></linearGradient><path d="M212-179c-10-28-35-45-73-45-59 0-87 40-87 99 0 60 29 101 89 101 43 0 62-24 78-52l27 14C228-24 195 4 139 4 59 4 22-46 18-125c-6-104 99-153 187-111 19 9 31 26 39 46" id="aN"/><use transform="matrix(0.06172839506172839,0,0,0.06172839506172839,0,0)" xlink:href="#aN" id="u"/><linearGradient gradientUnits="userSpaceOnUse" id="v" x1="1010" y1="810" x2="1010" y2="850"><stop offset="19.29%" stop-color="#fff"/><stop offset="23.21%" stop-color="#ced4db"/><stop offset="66.79%" stop-color="#ced4db"/><stop offset="73.57%" stop-color="#fff"/></linearGradient><path d="M30-248c118-7 216 8 213 122C240-48 200 0 122 0H30v-248zM63-27c89 8 146-16 146-99s-60-101-146-95v194" id="aO"/><use transform="matrix(0.06172839506172839,0,0,0.06172839506172839,0,0)" xlink:href="#aO" id="w"/><linearGradient gradientUnits="userSpaceOnUse" id="x" x1="950" y1="810" x2="950" y2="850"><stop offset="19.29%" stop-color="#fff"/><stop offset="23.21%" stop-color="#ced4db"/><stop offset="66.79%" stop-color="#ced4db"/><stop offset="73.57%" stop-color="#fff"/></linearGradient><linearGradient gradientUnits="userSpaceOnUse" id="y" x1="850" y1="770" x2="850" y2="810"><stop offset="19.29%" stop-color="#fff"/><stop offset="23.21%" stop-color="#ced4db"/><stop offset="66.79%" stop-color="#ced4db"/><stop offset="73.57%" stop-color="#fff"/></linearGradient><linearGradient gradientUnits="userSpaceOnUse" id="z" x1="830" y1="770" x2="830" y2="810"><stop offset="19.29%" stop-color="#fff"/><stop offset="23.21%" stop-color="#ced4db"/><stop offset="66.79%" stop-color="#ced4db"/><stop offset="73.57%" stop-color="#fff"/></linearGradient><path d="M205 0l-28-72H64L36 0H1l101-248h38L239 0h-34zm-38-99l-47-123c-12 45-31 82-46 123h93" id="aP"/><use transform="matrix(0.06172839506172839,0,0,0.06172839506172839,0,0)" xlink:href="#aP" id="A"/><linearGradient gradientUnits="userSpaceOnUse" id="B" x1="1130" y1="770" x2="1130" y2="810"><stop offset="19.29%" stop-color="#fff"/><stop offset="23.21%" stop-color="#ced4db"/><stop offset="66.79%" stop-color="#ced4db"/><stop offset="73.57%" stop-color="#fff"/></linearGradient><linearGradient gradientUnits="userSpaceOnUse" id="C" x1="1110" y1="770" x2="1110" y2="810"><stop offset="19.29%" stop-color="#fff"/><stop offset="23.21%" stop-color="#ced4db"/><stop offset="66.79%" stop-color="#ced4db"/><stop offset="73.57%" stop-color="#fff"/></linearGradient><linearGradient gradientUnits="userSpaceOnUse" id="D" x1="400" y1="1080" x2="400" y2="960"><stop offset="19.2%" stop-color="#ced4db"/><stop offset="26.45%" stop-color="#fff"/><stop offset="34.06%" stop-color="#fff"/><stop offset="42.03%" stop-color="#cfe4ff"/><stop offset="68.84%" stop-color="#cfe4ff"/><stop offset="78.62%" stop-color="#c3f7c8"/></linearGradient><linearGradient gradientUnits="userSpaceOnUse" id="E" x1="520" y1="1080" x2="520" y2="960"><stop offset="19.2%" stop-color="#ced4db"/><stop offset="26.45%" stop-color="#fff"/><stop offset="34.06%" stop-color="#fff"/><stop offset="42.03%" stop-color="#cfe4ff"/><stop offset="68.84%" stop-color="#cfe4ff"/><stop offset="78.62%" stop-color="#c3f7c8"/></linearGradient><linearGradient gradientUnits="userSpaceOnUse" id="F" x1="640" y1="1080" x2="640" y2="960"><stop offset="19.2%" stop-color="#ced4db"/><stop offset="26.45%" stop-color="#fff"/><stop offset="34.06%" stop-color="#fff"/><stop offset="42.03%" stop-color="#cfe4ff"/><stop offset="68.84%" stop-color="#cfe4ff"/><stop offset="78.62%" stop-color="#c3f7c8"/></linearGradient><linearGradient gradientUnits="userSpaceOnUse" id="G" x1="521.5" y1="1130" x2="521.5" y2="1170"><stop offset="19.29%" stop-color="#fff"/><stop offset="23.21%" stop-color="#ced4db"/><stop offset="66.79%" stop-color="#ced4db"/><stop offset="73.57%" stop-color="#fff"/></linearGradient><linearGradient gradientUnits="userSpaceOnUse" id="H" x1="501.5" y1="1130" x2="501.5" y2="1170"><stop offset="19.29%" stop-color="#fff"/><stop offset="23.21%" stop-color="#ced4db"/><stop offset="66.79%" stop-color="#ced4db"/><stop offset="73.57%" stop-color="#fff"/></linearGradient><linearGradient gradientUnits="userSpaceOnUse" id="I" x1="613" y1="1130" x2="613" y2="1170"><stop offset="19.29%" stop-color="#fff"/><stop offset="23.21%" stop-color="#ced4db"/><stop offset="66.79%" stop-color="#ced4db"/><stop offset="73.57%" stop-color="#fff"/></linearGradient><linearGradient gradientUnits="userSpaceOnUse" id="J" x1="593" y1="1130" x2="593" y2="1170"><stop offset="19.29%" stop-color="#fff"/><stop offset="23.21%" stop-color="#ced4db"/><stop offset="66.79%" stop-color="#ced4db"/><stop offset="73.57%" stop-color="#fff"/></linearGradient><linearGradient gradientUnits="userSpaceOnUse" id="K" x1="820" y1="1080" x2="820" y2="960"><stop offset="19.2%" stop-color="#ced4db"/><stop offset="26.45%" stop-color="#fff"/><stop offset="34.06%" stop-color="#fff"/><stop offset="42.03%" stop-color="#cfe4ff"/><stop offset="68.84%" stop-color="#cfe4ff"/><stop offset="78.62%" stop-color="#c3f7c8"/></linearGradient><linearGradient gradientUnits="userSpaceOnUse" id="L" x1="960" y1="1080" x2="960" y2="960"><stop offset="19.2%" stop-color="#ced4db"/><stop offset="26.45%" stop-color="#fff"/><stop offset="34.06%" stop-color="#fff"/><stop offset="42.03%" stop-color="#cfe4ff"/><stop offset="68.84%" stop-color="#cfe4ff"/><stop offset="78.62%" stop-color="#c3f7c8"/></linearGradient><linearGradient gradientUnits="userSpaceOnUse" id="M" x1="1099.08" y1="1080" x2="1099.08" y2="960"><stop offset="19.2%" stop-color="#ced4db"/><stop offset="26.45%" stop-color="#fff"/><stop offset="34.06%" stop-color="#fff"/><stop offset="42.03%" stop-color="#cfe4ff"/><stop offset="68.84%" stop-color="#cfe4ff"/><stop offset="78.62%" stop-color="#c3f7c8"/></linearGradient><linearGradient gradientUnits="userSpaceOnUse" id="N" x1="909.08" y1="1130" x2="909.08" y2="1170"><stop offset="19.29%" stop-color="#fff"/><stop offset="23.21%" stop-color="#ced4db"/><stop offset="66.79%" stop-color="#ced4db"/><stop offset="73.57%" stop-color="#fff"/></linearGradient><path fill="#008573" d="M137-103V0h-34v-103L8-248h37l75 118 75-118h37" id="aQ"/><path fill="#008573" d="M33-154v-36h34v36H33zM33 0v-36h34V0H33" id="aR"/><g id="O"><use transform="matrix(0.06172839506172839,0,0,0.06172839506172839,0,0)" xlink:href="#aQ"/><use transform="matrix(0.06172839506172839,0,0,0.06172839506172839,13.580246913580245,0)" xlink:href="#aR"/><use transform="matrix(0.06172839506172839,0,0,0.06172839506172839,19.753086419753085,0)" xlink:href="#aM"/></g><linearGradient gradientUnits="userSpaceOnUse" id="P" x1="949.08" y1="1130" x2="949.08" y2="1170"><stop offset="19.29%" stop-color="#fff"/><stop offset="23.21%" stop-color="#ced4db"/><stop offset="66.79%" stop-color="#ced4db"/><stop offset="73.57%" stop-color="#fff"/></linearGradient><path d="M33-154v-36h34v36H33zM33 0v-36h34V0H33" id="aS"/><g id="Q"><use transform="matrix(0.06172839506172839,0,0,0.06172839506172839,0,0)" xlink:href="#aH"/><use transform="matrix(0.06172839506172839,0,0,0.06172839506172839,13.580246913580245,0)" xlink:href="#aS"/><use transform="matrix(0.06172839506172839,0,0,0.06172839506172839,19.753086419753085,0)" xlink:href="#aJ"/></g><linearGradient gradientUnits="userSpaceOnUse" id="R" x1="989.08" y1="1130" x2="989.08" y2="1170"><stop offset="19.29%" stop-color="#fff"/><stop offset="23.21%" stop-color="#ced4db"/><stop offset="66.79%" stop-color="#ced4db"/><stop offset="73.57%" stop-color="#fff"/></linearGradient><path fill="#cc4e00" d="M195 0l-74-108L45 0H8l94-129-87-119h37l69 98 67-98h37l-84 118L233 0h-38" id="aT"/><path fill="#cc4e00" d="M33-154v-36h34v36H33zM33 0v-36h34V0H33" id="aU"/><path fill="#cc4e00" d="M140-251c81 0 123 46 123 126C263-53 228-8 163 1c7 30 30 48 69 40v23c-55 16-95-15-103-61C56-3 17-48 17-125c0-80 42-126 123-126zm0 227c63 0 89-41 89-101s-29-99-89-99c-61 0-89 39-89 99S79-25 140-24" id="aV"/><g id="S"><use transform="matrix(0.06172839506172839,0,0,0.06172839506172839,0,0)" xlink:href="#aT"/><use transform="matrix(0.06172839506172839,0,0,0.06172839506172839,14.814814814814813,0)" xlink:href="#aU"/><use transform="matrix(0.06172839506172839,0,0,0.06172839506172839,20.98765432098765,0)" xlink:href="#aV"/></g><linearGradient gradientUnits="userSpaceOnUse" id="T" x1="1029.08" y1="1130" x2="1029.08" y2="1170"><stop offset="19.29%" stop-color="#fff"/><stop offset="23.21%" stop-color="#ced4db"/><stop offset="66.79%" stop-color="#ced4db"/><stop offset="73.57%" stop-color="#fff"/></linearGradient><path fill="#cc4e00" d="M137-103V0h-34v-103L8-248h37l75 118 75-118h37" id="aW"/><g id="U"><use transform="matrix(0.06172839506172839,0,0,0.06172839506172839,0,0)" xlink:href="#aW"/><use transform="matrix(0.06172839506172839,0,0,0.06172839506172839,13.580246913580245,0)" xlink:href="#aU"/><use transform="matrix(0.06172839506172839,0,0,0.06172839506172839,19.753086419753085,0)" xlink:href="#aK"/></g><linearGradient gradientUnits="userSpaceOnUse" id="V" x1="1069.08" y1="1130" x2="1069.08" y2="1170"><stop offset="19.29%" stop-color="#fff"/><stop offset="23.21%" stop-color="#ced4db"/><stop offset="66.79%" stop-color="#ced4db"/><stop offset="73.57%" stop-color="#fff"/></linearGradient><g id="W"><use transform="matrix(0.06172839506172839,0,0,0.06172839506172839,0,0)" xlink:href="#aW"/><use transform="matrix(0.06172839506172839,0,0,0.06172839506172839,13.580246913580245,0)" xlink:href="#aU"/><use transform="matrix(0.06172839506172839,0,0,0.06172839506172839,19.753086419753085,0)" xlink:href="#aL"/></g><linearGradient gradientUnits="userSpaceOnUse" id="X" x1="869.08" y1="1130" x2="869.08" y2="1170"><stop offset="19.29%" stop-color="#fff"/><stop offset="23.21%" stop-color="#ced4db"/><stop offset="66.79%" stop-color="#ced4db"/><stop offset="73.57%" stop-color="#fff"/></linearGradient><path fill="#008573" d="M195 0l-74-108L45 0H8l94-129-87-119h37l69 98 67-98h37l-84 118L233 0h-38" id="aX"/><path fill="#008573" d="M30-248c87 1 191-15 191 75 0 78-77 80-158 76V0H30v-248zm33 125c57 0 124 11 124-50 0-59-68-47-124-48v98" id="aY"/><g id="Y"><use transform="matrix(0.06172839506172839,0,0,0.06172839506172839,0,0)" xlink:href="#aX"/><use transform="matrix(0.06172839506172839,0,0,0.06172839506172839,14.814814814814813,0)" xlink:href="#aR"/><use transform="matrix(0.06172839506172839,0,0,0.06172839506172839,20.98765432098765,0)" xlink:href="#aY"/></g><linearGradient gradientUnits="userSpaceOnUse" id="Z" x1="430" y1="810" x2="430" y2="850"><stop offset="19.29%" stop-color="#fff"/><stop offset="23.21%" stop-color="#ced4db"/><stop offset="66.79%" stop-color="#ced4db"/><stop offset="73.57%" stop-color="#fff"/></linearGradient><use transform="matrix(0.06172839506172839,0,0,0.06172839506172839,0,0)" xlink:href="#aV" id="aa"/><linearGradient gradientUnits="userSpaceOnUse" id="ab" x1="410" y1="810" x2="410" y2="850"><stop offset="19.29%" stop-color="#fff"/><stop offset="23.21%" stop-color="#ced4db"/><stop offset="66.79%" stop-color="#ced4db"/><stop offset="73.57%" stop-color="#fff"/></linearGradient><use transform="matrix(0.06172839506172839,0,0,0.06172839506172839,0,0)" xlink:href="#aY" id="ac"/><linearGradient gradientUnits="userSpaceOnUse" id="ad" x1="990" y1="770" x2="990" y2="810"><stop offset="19.29%" stop-color="#fff"/><stop offset="23.21%" stop-color="#ced4db"/><stop offset="66.79%" stop-color="#ced4db"/><stop offset="73.57%" stop-color="#fff"/></linearGradient><linearGradient gradientUnits="userSpaceOnUse" id="ae" x1="970" y1="770" x2="970" y2="810"><stop offset="19.29%" stop-color="#fff"/><stop offset="23.21%" stop-color="#ced4db"/><stop offset="66.79%" stop-color="#ced4db"/><stop offset="73.57%" stop-color="#fff"/></linearGradient><path d="M30-248c87 1 191-15 191 75 0 78-77 80-158 76V0H30v-248zm33 125c57 0 124 11 124-50 0-59-68-47-124-48v98" id="aZ"/><use transform="matrix(0.06172839506172839,0,0,0.06172839506172839,0,0)" xlink:href="#aZ" id="af"/><linearGradient gradientUnits="userSpaceOnUse" id="ag" x1="850" y1="810" x2="850" y2="850"><stop offset="19.29%" stop-color="#fff"/><stop offset="23.21%" stop-color="#ced4db"/><stop offset="66.79%" stop-color="#ced4db"/><stop offset="73.57%" stop-color="#fff"/></linearGradient><path d="M140-251c81 0 123 46 123 126C263-53 228-8 163 1c7 30 30 48 69 40v23c-55 16-95-15-103-61C56-3 17-48 17-125c0-80 42-126 123-126zm0 227c63 0 89-41 89-101s-29-99-89-99c-61 0-89 39-89 99S79-25 140-24" id="ba"/><use transform="matrix(0.06172839506172839,0,0,0.06172839506172839,0,0)" xlink:href="#ba" id="ah"/><linearGradient gradientUnits="userSpaceOnUse" id="ai" x1="830" y1="810" x2="830" y2="850"><stop offset="19.29%" stop-color="#fff"/><stop offset="23.21%" stop-color="#ced4db"/><stop offset="66.79%" stop-color="#ced4db"/><stop offset="73.57%" stop-color="#fff"/></linearGradient><linearGradient gradientUnits="userSpaceOnUse" id="aj" x1="430" y1="1130" x2="430" y2="1170"><stop offset="19.29%" stop-color="#fff"/><stop offset="23.21%" stop-color="#ced4db"/><stop offset="66.79%" stop-color="#ced4db"/><stop offset="73.57%" stop-color="#fff"/></linearGradient><linearGradient gradientUnits="userSpaceOnUse" id="ak" x1="410" y1="1130" x2="410" y2="1170"><stop offset="19.29%" stop-color="#fff"/><stop offset="23.21%" stop-color="#ced4db"/><stop offset="66.79%" stop-color="#ced4db"/><stop offset="73.57%" stop-color="#fff"/></linearGradient><path fill="#008573" d="M135-150c-39-12-60 13-60 57V0H25l-1-190h47c2 13-1 29 3 40 6-28 27-53 61-41v41" id="bb"/><path fill="#008573" d="M185-48c-13 30-37 53-82 52C43 2 14-33 14-96s30-98 90-98c62 0 83 45 84 108H66c0 31 8 55 39 56 18 0 30-7 34-22zm-45-69c5-46-57-63-70-21-2 6-4 13-4 21h74" id="bc"/><path fill="#008573" d="M133-34C117-15 103 5 69 4 32 3 11-16 11-54c-1-60 55-63 116-61 1-26-3-47-28-47-18 1-26 9-28 27l-52-2c7-38 36-58 82-57s74 22 75 68l1 82c-1 14 12 18 25 15v27c-30 8-71 5-69-32zm-48 3c29 0 43-24 42-57-32 0-66-3-65 30 0 17 8 27 23 27" id="bd"/><path fill="#008573" d="M88-194c31-1 46 15 58 34l-1-101h50l1 261h-48c-2-10 0-23-3-31C134-8 116 4 84 4 32 4 16-41 15-95c0-56 19-97 73-99zm17 164c33 0 40-30 41-66 1-37-9-64-41-64s-38 30-39 65c0 43 13 65 39 65" id="be"/><g id="al"><use transform="matrix(0.0493827160493827,0,0,0.0493827160493827,0,0)" xlink:href="#bb"/><use transform="matrix(0.0493827160493827,0,0,0.0493827160493827,6.913580246913578,0)" xlink:href="#bc"/><use transform="matrix(0.0493827160493827,0,0,0.0493827160493827,16.790123456790116,0)" xlink:href="#bd"/><use transform="matrix(0.0493827160493827,0,0,0.0493827160493827,26.666666666666657,0)" xlink:href="#be"/></g><path fill="#cc4e00" d="M231 0h-52l-39-155L100 0H48L-1-190h46L77-45c9-52 24-97 36-145h53l37 145 32-145h46" id="bf"/><path fill="#cc4e00" d="M135-150c-39-12-60 13-60 57V0H25l-1-190h47c2 13-1 29 3 40 6-28 27-53 61-41v41" id="bg"/><path fill="#cc4e00" d="M25-224v-37h50v37H25zM25 0v-190h50V0H25" id="bh"/><path fill="#cc4e00" d="M115-3C79 11 28 4 28-45v-112H4v-33h27l15-45h31v45h36v33H77v99c-1 23 16 31 38 25v30" id="bi"/><path fill="#cc4e00" d="M185-48c-13 30-37 53-82 52C43 2 14-33 14-96s30-98 90-98c62 0 83 45 84 108H66c0 31 8 55 39 56 18 0 30-7 34-22zm-45-69c5-46-57-63-70-21-2 6-4 13-4 21h74" id="bj"/><g id="am"><use transform="matrix(0.0493827160493827,0,0,0.0493827160493827,0,0)" xlink:href="#bf"/><use transform="matrix(0.0493827160493827,0,0,0.0493827160493827,13.827160493827156,0)" xlink:href="#bg"/><use transform="matrix(0.0493827160493827,0,0,0.0493827160493827,20.740740740740733,0)" xlink:href="#bh"/><use transform="matrix(0.0493827160493827,0,0,0.0493827160493827,25.679012345679002,0)" xlink:href="#bi"/><use transform="matrix(0.0493827160493827,0,0,0.0493827160493827,31.555555555555546,0)" xlink:href="#bj"/></g><path fill="#1071e5" d="M190-63c-7 42-38 67-86 67-59 0-84-38-90-98-12-110 154-137 174-36l-49 2c-2-19-15-32-35-32-30 0-35 28-38 64-6 74 65 87 74 30" id="bk"/><path fill="#1071e5" d="M110-194c64 0 96 36 96 99 0 64-35 99-97 99-61 0-95-36-95-99 0-62 34-99 96-99zm-1 164c35 0 45-28 45-65 0-40-10-65-43-65-34 0-45 26-45 65 0 36 10 65 43 65" id="bl"/><path fill="#1071e5" d="M135-194c53 0 70 44 70 98 0 56-19 98-73 100-31 1-45-17-59-34 3 33 2 69 2 105H25l-1-265h48c2 10 0 23 3 31 11-24 29-35 60-35zM114-30c33 0 39-31 40-66 0-38-9-64-40-64-56 0-55 130 0 130" id="bm"/><path fill="#1071e5" d="M123 10C108 53 80 86 19 72V37c35 8 53-11 59-39L3-190h52l48 148c12-52 28-100 44-148h51" id="bn"/><g id="an"><use transform="matrix(0.0493827160493827,0,0,0.0493827160493827,0,0)" xlink:href="#bk"/><use transform="matrix(0.0493827160493827,0,0,0.0493827160493827,9.876543209876539,0)" xlink:href="#bl"/><use transform="matrix(0.0493827160493827,0,0,0.0493827160493827,20.69135802469135,0)" xlink:href="#bm"/><use transform="matrix(0.0493827160493827,0,0,0.0493827160493827,31.506172839506164,0)" xlink:href="#bn"/></g><path d="M183 0l-10-63H79L44 0H-7l138-248h61L234 0h-51zm-14-102l-15-108c-16 38-36 73-55 108h70" id="bo"/><use transform="matrix(0.07407407407407404,0,0,0.07407407407407404,0,0)" xlink:href="#bo" id="ao"/><path d="M23-63C-1-167 59-251 163-251c68 0 111 34 111 101 0 87-44 137-119 151 2 31 28 37 61 31l-8 34c-54 13-105-9-105-64-40-7-72-29-80-65zm197-70c4-46-15-77-59-77-65 0-88 46-91 108-2 41 22 65 60 65 60 0 84-40 90-96" id="bp"/><path d="M69 3c-96 0-34-126-28-193h49L65-57c6 42 62 18 71-6 14-38 17-86 28-127h50L178 0h-47c0-11 4-26 3-33-14 20-30 37-65 36" id="bq"/><path d="M114-194c63-2 87 48 72 110H63c-3 28 1 55 31 54 21-1 32-13 37-29l44 13C160-14 137 4 91 4 41 4 11-22 11-73c0-71 33-119 103-121zm30 77c14-47-50-61-67-22-3 6-6 13-8 22h75" id="br"/><g id="ap"><use transform="matrix(0.07407407407407404,0,0,0.07407407407407404,0,0)" xlink:href="#bp"/><use transform="matrix(0.07407407407407404,0,0,0.07407407407407404,20.740740740740733,0)" xlink:href="#bq"/><use transform="matrix(0.07407407407407404,0,0,0.07407407407407404,36.96296296296295,0)" xlink:href="#br"/><use transform="matrix(0.07407407407407404,0,0,0.07407407407407404,51.77777777777776,0)" xlink:href="#bq"/><use transform="matrix(0.07407407407407404,0,0,0.07407407407407404,67.99999999999997,0)" xlink:href="#br"/></g><path d="M156-122c2-23-7-37-28-37-47 0-58 44-58 89 0 24 12 40 36 40 43 0 47-49 50-92zM-8 75l50-265h48c0 10-3 24-3 30 22-50 127-45 121 29-6 73-21 135-92 135-29 0-46-14-55-35L41 75H-8" id="bs"/><path d="M84-151c13-25 34-51 72-40l-8 41C67-170 71-64 56 0H6l36-190h47" id="bt"/><g id="aq"><use transform="matrix(0.07407407407407404,0,0,0.07407407407407404,0,0)" xlink:href="#bs"/><use transform="matrix(0.07407407407407404,0,0,0.07407407407407404,16.222222222222214,0)" xlink:href="#br"/><use transform="matrix(0.07407407407407404,0,0,0.07407407407407404,31.037037037037024,0)" xlink:href="#bt"/></g><path d="M178-136c88 48 22 151-73 140C49-3 12-15 4-64l51-9c1 50 111 53 115 3-16-63-132-20-133-112 0-93 190-91 199-10l-50 12c-4-41-93-50-97-4 7 38 59 32 89 48" id="bu"/><path d="M109 0H50L19-190h51L86-37l77-153h54" id="bv"/><path d="M50-224l7-37h49l-7 37H50zM6 0l37-190h49L55 0H6" id="bw"/><path d="M67-101c-8 29-7 73 27 71 23-2 32-16 39-37l48 9C170-19 141 4 91 4 36 4 7-28 12-86c6-75 61-124 140-103 26 7 40 29 43 59l-50 4c-1-20-9-34-29-34-35 0-41 29-49 59" id="bx"/><g id="ar"><use transform="matrix(0.07407407407407404,0,0,0.07407407407407404,0,0)" xlink:href="#bu"/><use transform="matrix(0.07407407407407404,0,0,0.07407407407407404,17.77777777777777,0)" xlink:href="#br"/><use transform="matrix(0.07407407407407404,0,0,0.07407407407407404,32.59259259259258,0)" xlink:href="#bt"/><use transform="matrix(0.07407407407407404,0,0,0.07407407407407404,42.96296296296295,0)" xlink:href="#bv"/><use transform="matrix(0.07407407407407404,0,0,0.07407407407407404,57.777777777777764,0)" xlink:href="#bw"/><use transform="matrix(0.07407407407407404,0,0,0.07407407407407404,65.18518518518516,0)" xlink:href="#bx"/><use transform="matrix(0.07407407407407404,0,0,0.07407407407407404,79.99999999999997,0)" xlink:href="#br"/></g><path d="M6 0l48-248h52L58 0H6" id="by"/><path d="M151-194c95 0 34 128 28 194h-49l25-134c0-29-45-25-59-9C67-111 69-48 56 0H6l36-190h47l-4 32c15-20 33-36 66-36" id="bz"/><path d="M72-63c-8 23 5 39 32 30L98-1C54 14 12-6 23-64l18-93H15l7-33h28l24-45h31l-8 45h35l-6 33H90" id="bA"/><g id="as"><use transform="matrix(0.07407407407407404,0,0,0.07407407407407404,0,0)" xlink:href="#by"/><use transform="matrix(0.07407407407407404,0,0,0.07407407407407404,7.407407407407404,0)" xlink:href="#bz"/><use transform="matrix(0.07407407407407404,0,0,0.07407407407407404,23.62962962962962,0)" xlink:href="#bs"/><use transform="matrix(0.07407407407407404,0,0,0.07407407407407404,39.85185185185183,0)" xlink:href="#bq"/><use transform="matrix(0.07407407407407404,0,0,0.07407407407407404,56.07407407407405,0)" xlink:href="#bA"/></g><path d="M166-52c-4 17 5 29 24 23l-3 27c-30 11-74 1-67-34C105-15 91 4 56 4 23 4 3-15 2-49c0-64 63-67 128-67 10-22 3-53-29-45-13 3-22 10-25 24l-46-5c5-64 156-77 153 0-1 33-11 60-17 90zM97-88c-44-9-64 57-19 57 31 0 42-28 47-57H97" id="bB"/><path d="M132-28C118-9 101 4 69 4 30 4 10-23 10-62c0-70 24-129 92-132 31-1 47 14 56 35l19-102h49L179 0h-49zM62-69c0 22 7 39 29 39 45-2 54-45 57-90 2-27-10-40-33-40-44 0-53 48-53 91" id="bC"/><g id="at"><use transform="matrix(0.07407407407407404,0,0,0.07407407407407404,0,0)" xlink:href="#bB"/><use transform="matrix(0.07407407407407404,0,0,0.07407407407407404,14.814814814814808,0)" xlink:href="#bz"/><use transform="matrix(0.07407407407407404,0,0,0.07407407407407404,31.037037037037024,0)" xlink:href="#bC"/></g><path d="M18-101c0-91 52-150 145-150 68 0 111 34 111 101C274-54 221 4 128 4 59 4 18-33 18-101zm202-32c4-46-15-77-59-77-65 0-88 46-91 108-2 41 22 65 60 65 60 0 84-40 90-96" id="bD"/><g id="au"><use transform="matrix(0.07407407407407404,0,0,0.07407407407407404,0,0)" xlink:href="#bD"/><use transform="matrix(0.07407407407407404,0,0,0.07407407407407404,20.740740740740733,0)" xlink:href="#bq"/><use transform="matrix(0.07407407407407404,0,0,0.07407407407407404,36.96296296296295,0)" xlink:href="#bA"/><use transform="matrix(0.07407407407407404,0,0,0.07407407407407404,45.77777777777776,0)" xlink:href="#bs"/><use transform="matrix(0.07407407407407404,0,0,0.07407407407407404,61.99999999999997,0)" xlink:href="#bq"/><use transform="matrix(0.07407407407407404,0,0,0.07407407407407404,78.22222222222219,0)" xlink:href="#bA"/></g><path d="M144-137c-1-29-70-35-71-2 16 41 103 10 103 80C176 9 79 16 32-9 18-17 9-31 4-48l44-6c3 32 80 36 82 1-15-42-103-11-103-82 0-77 157-79 161-8" id="bE"/><g id="av"><use transform="matrix(0.07407407407407404,0,0,0.07407407407407404,0,0)" xlink:href="#bp"/><use transform="matrix(0.07407407407407404,0,0,0.07407407407407404,20.740740740740733,0)" xlink:href="#bq"/><use transform="matrix(0.07407407407407404,0,0,0.07407407407407404,36.96296296296295,0)" xlink:href="#br"/><use transform="matrix(0.07407407407407404,0,0,0.07407407407407404,51.77777777777776,0)" xlink:href="#bq"/><use transform="matrix(0.07407407407407404,0,0,0.07407407407407404,67.99999999999997,0)" xlink:href="#br"/><use transform="matrix(0.07407407407407404,0,0,0.07407407407407404,82.81481481481478,0)" xlink:href="#bE"/></g><path d="M161-211c-63 0-91 46-91 110 0 39 17 65 58 64 38-1 60-20 74-45l40 20C220-23 184 0 125 4 9 13-10-144 57-208c33-50 166-62 196-1 4 8 9 18 11 27l-48 12c-6-24-25-41-55-41" id="bF"/><path d="M150-105c8-23 8-54-22-51-68 7-54 98-72 156H6l50-261h50L85-158c15-20 33-36 66-36 95 0 34 128 28 194h-49" id="bG"/><path d="M6 0l51-261h49L55 0H6" id="bH"/><g id="aw"><use transform="matrix(0.07407407407407404,0,0,0.07407407407407404,0,0)" xlink:href="#bF"/><use transform="matrix(0.07407407407407404,0,0,0.07407407407407404,19.185185185185176,0)" xlink:href="#bG"/><use transform="matrix(0.07407407407407404,0,0,0.07407407407407404,35.40740740740739,0)" xlink:href="#bB"/><use transform="matrix(0.07407407407407404,0,0,0.07407407407407404,50.2222222222222,0)" xlink:href="#bz"/><use transform="matrix(0.07407407407407404,0,0,0.07407407407407404,66.44444444444441,0)" xlink:href="#bz"/><use transform="matrix(0.07407407407407404,0,0,0.07407407407407404,82.66666666666663,0)" xlink:href="#br"/><use transform="matrix(0.07407407407407404,0,0,0.07407407407407404,97.48148148148144,0)" xlink:href="#bH"/></g><path d="M45-171c29-32 103-29 114 14 2-11 5-23 8-33h47L176-2c-3 70-92 96-155 64C9 56 1 42-1 25l50-5c2 28 48 27 63 11 13-13 20-45 21-66-13 20-30 35-62 36-87 3-60-134-26-172zM94-35c41-3 55-43 55-86 0-24-12-39-35-39-43 0-51 48-51 90 0 22 9 37 31 35" id="bI"/><g id="ax"><use transform="matrix(0.07407407407407404,0,0,0.07407407407407404,0,0)" xlink:href="#bu"/><use transform="matrix(0.07407407407407404,0,0,0.07407407407407404,17.77777777777777,0)" xlink:href="#bw"/><use transform="matrix(0.07407407407407404,0,0,0.07407407407407404,25.185185185185173,0)" xlink:href="#bz"/><use transform="matrix(0.07407407407407404,0,0,0.07407407407407404,41.40740740740739,0)" xlink:href="#bI"/><use transform="matrix(0.07407407407407404,0,0,0.07407407407407404,57.629629629629605,0)" xlink:href="#bH"/><use transform="matrix(0.07407407407407404,0,0,0.07407407407407404,65.03703703703701,0)" xlink:href="#br"/></g><path d="M100 10C77 47 50 87-15 72l7-35c37 9 51-18 65-41L20-190h51L89-44l73-146h53" id="bJ"/><path d="M255-194c90 0 29 129 24 194h-49l25-136c-7-39-53-14-60 9-12 38-18 85-28 127h-49l25-136c2-29-39-23-50-7C69-108 68-47 56 0H6l36-190h48c-1 10-6 24-4 32 12-20 27-36 57-36s46 15 50 41c14-21 29-41 62-41" id="bK"/><g id="ay"><use transform="matrix(0.07407407407407404,0,0,0.07407407407407404,0,0)" xlink:href="#bu"/><use transform="matrix(0.07407407407407404,0,0,0.07407407407407404,17.77777777777777,0)" xlink:href="#bJ"/><use transform="matrix(0.07407407407407404,0,0,0.07407407407407404,32.59259259259258,0)" xlink:href="#bE"/><use transform="matrix(0.07407407407407404,0,0,0.07407407407407404,47.40740740740739,0)" xlink:href="#bA"/><use transform="matrix(0.07407407407407404,0,0,0.07407407407407404,56.2222222222222,0)" xlink:href="#br"/><use transform="matrix(0.07407407407407404,0,0,0.07407407407407404,71.03703703703701,0)" xlink:href="#bK"/></g><g id="az"><use transform="matrix(0.07407407407407404,0,0,0.07407407407407404,0,0)" xlink:href="#bp"/><use transform="matrix(0.07407407407407404,0,0,0.07407407407407404,20.740740740740733,0)" xlink:href="#bq"/><use transform="matrix(0.07407407407407404,0,0,0.07407407407407404,36.96296296296295,0)" xlink:href="#br"/><use transform="matrix(0.07407407407407404,0,0,0.07407407407407404,51.77777777777776,0)" xlink:href="#bq"/><use transform="matrix(0.07407407407407404,0,0,0.07407407407407404,67.99999999999997,0)" xlink:href="#br"/></g></defs></g></svg>