<svg xmlns="http://www.w3.org/2000/svg" xmlns:xlink="http://www.w3.org/1999/xlink" xmlns:lucid="lucid" width="1123" height="403"><g transform="translate(-478.5 -578.5)" lucid:page-tab-id="0_0"><path d="M660 620a20 20 0 0 1 20-20h100a20 20 0 0 1 20 20v220a20 20 0 0 1-20 20H680a20 20 0 0 1-20-20z" fill-opacity="0"/><path d="M658.5 620a1.5 1.5 0 0 1 1.5-1.5 1.5 1.5 0 0 1 1.5 1.5 1.5 1.5 0 0 1-1.5 1.5 1.5 1.5 0 0 1-1.5-1.5m2.73-9.96a1.5 1.5 0 0 1 1.5-1.5 1.5 1.5 0 0 1 1.5 1.5 1.5 1.5 0 0 1-1.5 1.5 1.5 1.5 0 0 1-1.5-1.5V610m7.3-7.26a1.5 1.5 0 0 1 1.5-1.5 1.5 1.5 0 0 1 1.5 1.5 1.5 1.5 0 0 1-1.5 1.5 1.5 1.5 0 0 1-1.5-1.5v-.03m9.97-2.7a1.5 1.5 0 0 1 1.5-1.5 1.5 1.5 0 0 1 1.5 1.5 1.5 1.5 0 0 1-1.5 1.5 1.5 1.5 0 0 1-1.5-1.5m12.5 0a1.5 1.5 0 0 1 1.5-1.5 1.5 1.5 0 0 1 1.5 1.5 1.5 1.5 0 0 1-1.5 1.5 1.5 1.5 0 0 1-1.5-1.5m12.5 0a1.5 1.5 0 0 1 1.5-1.5 1.5 1.5 0 0 1 1.5 1.5 1.5 1.5 0 0 1-1.5 1.5 1.5 1.5 0 0 1-1.5-1.5m12.5 0a1.5 1.5 0 0 1 1.5-1.5 1.5 1.5 0 0 1 1.5 1.5 1.5 1.5 0 0 1-1.5 1.5 1.5 1.5 0 0 1-1.5-1.5m12.5 0a1.5 1.5 0 0 1 1.5-1.5 1.5 1.5 0 0 1 1.5 1.5 1.5 1.5 0 0 1-1.5 1.5 1.5 1.5 0 0 1-1.5-1.5m12.5 0a1.5 1.5 0 0 1 1.5-1.5 1.5 1.5 0 0 1 1.5 1.5 1.5 1.5 0 0 1-1.5 1.5 1.5 1.5 0 0 1-1.5-1.5m12.5 0a1.5 1.5 0 0 1 1.5-1.5 1.5 1.5 0 0 1 1.5 1.5 1.5 1.5 0 0 1-1.5 1.5 1.5 1.5 0 0 1-1.5-1.5m12.5 0a1.5 1.5 0 0 1 1.5-1.5 1.5 1.5 0 0 1 1.5 1.5 1.5 1.5 0 0 1-1.5 1.5 1.5 1.5 0 0 1-1.5-1.5m12.5 0a1.5 1.5 0 0 1 1.5-1.5 1.5 1.5 0 0 1 1.5 1.5 1.5 1.5 0 0 1-1.5 1.5 1.5 1.5 0 0 1-1.5-1.5m9.97 2.74a1.5 1.5 0 0 1 1.5-1.5 1.5 1.5 0 0 1 1.5 1.5 1.5 1.5 0 0 1-1.5 1.5 1.5 1.5 0 0 1-1.5-1.5v-.03m7.3 7.34a1.5 1.5 0 0 1 1.5-1.5 1.5 1.5 0 0 1 1.5 1.5 1.5 1.5 0 0 1-1.5 1.5 1.5 1.5 0 0 1-1.5-1.5V610m2.73 10a1.5 1.5 0 0 1 1.5-1.5 1.5 1.5 0 0 1 1.5 1.5 1.5 1.5 0 0 1-1.5 1.5 1.5 1.5 0 0 1-1.5-1.5m0 12.24v-.02a1.5 1.5 0 0 1 1.5-1.5 1.5 1.5 0 0 1 1.5 1.5 1.5 1.5 0 0 1-1.5 1.5 1.5 1.5 0 0 1-1.5-1.5m0 12.24v-.02a1.5 1.5 0 0 1 1.5-1.5 1.5 1.5 0 0 1 1.5 1.5 1.5 1.5 0 0 1-1.5 1.5 1.5 1.5 0 0 1-1.5-1.5m0 12.24a1.5 1.5 0 0 1 1.5-1.5 1.5 1.5 0 0 1 1.5 1.5 1.5 1.5 0 0 1-1.5 1.5 1.5 1.5 0 0 1-1.5-1.5v-.03m0 12.25a1.5 1.5 0 0 1 1.5-1.5 1.5 1.5 0 0 1 1.5 1.5 1.5 1.5 0 0 1-1.5 1.5 1.5 1.5 0 0 1-1.5-1.5v-.03m0 12.26v-.02a1.5 1.5 0 0 1 1.5-1.5 1.5 1.5 0 0 1 1.5 1.5 1.5 1.5 0 0 1-1.5 1.5 1.5 1.5 0 0 1-1.5-1.5m0 12.25v-.02a1.5 1.5 0 0 1 1.5-1.5 1.5 1.5 0 0 1 1.5 1.5 1.5 1.5 0 0 1-1.5 1.5 1.5 1.5 0 0 1-1.5-1.5m0 12.24a1.5 1.5 0 0 1 1.5-1.5 1.5 1.5 0 0 1 1.5 1.5 1.5 1.5 0 0 1-1.5 1.5 1.5 1.5 0 0 1-1.5-1.5v-.03m0 12.25v-.02a1.5 1.5 0 0 1 1.5-1.5 1.5 1.5 0 0 1 1.5 1.5 1.5 1.5 0 0 1-1.5 1.5 1.5 1.5 0 0 1-1.5-1.5v-.02m0 12.25a1.5 1.5 0 0 1 1.5-1.5 1.5 1.5 0 0 1 1.5 1.5 1.5 1.5 0 0 1-1.5 1.5 1.5 1.5 0 0 1-1.5-1.5m0 12.24v-.02a1.5 1.5 0 0 1 1.5-1.5 1.5 1.5 0 0 1 1.5 1.5 1.5 1.5 0 0 1-1.5 1.5 1.5 1.5 0 0 1-1.5-1.5m0 12.24v-.02a1.5 1.5 0 0 1 1.5-1.5 1.5 1.5 0 0 1 1.5 1.5 1.5 1.5 0 0 1-1.5 1.5 1.5 1.5 0 0 1-1.5-1.5m0 12.24a1.5 1.5 0 0 1 1.5-1.5 1.5 1.5 0 0 1 1.5 1.5 1.5 1.5 0 0 1-1.5 1.5 1.5 1.5 0 0 1-1.5-1.5v-.03m0 12.25a1.5 1.5 0 0 1 1.5-1.5 1.5 1.5 0 0 1 1.5 1.5 1.5 1.5 0 0 1-1.5 1.5 1.5 1.5 0 0 1-1.5-1.5v-.03m0 12.26v-.02a1.5 1.5 0 0 1 1.5-1.5 1.5 1.5 0 0 1 1.5 1.5 1.5 1.5 0 0 1-1.5 1.5 1.5 1.5 0 0 1-1.5-1.5m0 12.25v-.02a1.5 1.5 0 0 1 1.5-1.5 1.5 1.5 0 0 1 1.5 1.5 1.5 1.5 0 0 1-1.5 1.5 1.5 1.5 0 0 1-1.5-1.5m0 12.24a1.5 1.5 0 0 1 1.5-1.5 1.5 1.5 0 0 1 1.5 1.5 1.5 1.5 0 0 1-1.5 1.5 1.5 1.5 0 0 1-1.5-1.5v-.03m0 12.25v-.02a1.5 1.5 0 0 1 1.5-1.5 1.5 1.5 0 0 1 1.5 1.5 1.5 1.5 0 0 1-1.5 1.5 1.5 1.5 0 0 1-1.5-1.5v-.02m0 12.25a1.5 1.5 0 0 1 1.5-1.5 1.5 1.5 0 0 1 1.5 1.5 1.5 1.5 0 0 1-1.5 1.5 1.5 1.5 0 0 1-1.5-1.5m-2.73 10v-.03a1.5 1.5 0 0 1 1.5-1.5 1.5 1.5 0 0 1 1.5 1.5 1.5 1.5 0 0 1-1.5 1.5 1.5 1.5 0 0 1-1.5-1.5m-7.3 7.32v-.03a1.5 1.5 0 0 1 1.5-1.5 1.5 1.5 0 0 1 1.5 1.5 1.5 1.5 0 0 1-1.5 1.5 1.5 1.5 0 0 1-1.5-1.5M778.5 860V860a1.5 1.5 0 0 1 1.5-1.5 1.5 1.5 0 0 1 1.5 1.5 1.5 1.5 0 0 1-1.5 1.5 1.5 1.5 0 0 1-1.5-1.5m-12.5 0a1.5 1.5 0 0 1 1.5-1.5 1.5 1.5 0 0 1 1.5 1.5 1.5 1.5 0 0 1-1.5 1.5 1.5 1.5 0 0 1-1.5-1.5m-12.5 0a1.5 1.5 0 0 1 1.5-1.5 1.5 1.5 0 0 1 1.5 1.5 1.5 1.5 0 0 1-1.5 1.5 1.5 1.5 0 0 1-1.5-1.5m-12.5 0a1.5 1.5 0 0 1 1.5-1.5 1.5 1.5 0 0 1 1.5 1.5 1.5 1.5 0 0 1-1.5 1.5 1.5 1.5 0 0 1-1.5-1.5m-12.5 0a1.5 1.5 0 0 1 1.5-1.5 1.5 1.5 0 0 1 1.5 1.5 1.5 1.5 0 0 1-1.5 1.5 1.5 1.5 0 0 1-1.5-1.5m-12.5 0a1.5 1.5 0 0 1 1.5-1.5 1.5 1.5 0 0 1 1.5 1.5 1.5 1.5 0 0 1-1.5 1.5 1.5 1.5 0 0 1-1.5-1.5m-12.5 0a1.5 1.5 0 0 1 1.5-1.5 1.5 1.5 0 0 1 1.5 1.5 1.5 1.5 0 0 1-1.5 1.5 1.5 1.5 0 0 1-1.5-1.5m-12.5 0a1.5 1.5 0 0 1 1.5-1.5 1.5 1.5 0 0 1 1.5 1.5 1.5 1.5 0 0 1-1.5 1.5 1.5 1.5 0 0 1-1.5-1.5m-12.5 0a1.5 1.5 0 0 1 1.5-1.5 1.5 1.5 0 0 1 1.5 1.5 1.5 1.5 0 0 1-1.5 1.5 1.5 1.5 0 0 1-1.5-1.5m-9.97-2.7v-.03a1.5 1.5 0 0 1 1.5-1.5 1.5 1.5 0 0 1 1.5 1.5 1.5 1.5 0 0 1-1.5 1.5 1.5 1.5 0 0 1-1.5-1.5m-7.3-7.28v-.03a1.5 1.5 0 0 1 1.5-1.5 1.5 1.5 0 0 1 1.5 1.5 1.5 1.5 0 0 1-1.5 1.5 1.5 1.5 0 0 1-1.5-1.5M658.5 840a1.5 1.5 0 0 1 1.5-1.5 1.5 1.5 0 0 1 1.5 1.5 1.5 1.5 0 0 1-1.5 1.5 1.5 1.5 0 0 1-1.5-1.5m0-12.2v-.02a1.5 1.5 0 0 1 1.5-1.5 1.5 1.5 0 0 1 1.5 1.5 1.5 1.5 0 0 1-1.5 1.5 1.5 1.5 0 0 1-1.5-1.5v-.02m0-12.2a1.5 1.5 0 0 1 1.5-1.5 1.5 1.5 0 0 1 1.5 1.5 1.5 1.5 0 0 1-1.5 1.5 1.5 1.5 0 0 1-1.5-1.5v-.02m0-12.2a1.5 1.5 0 0 1 1.5-1.5 1.5 1.5 0 0 1 1.5 1.5 1.5 1.5 0 0 1-1.5 1.5 1.5 1.5 0 0 1-1.5-1.5v-.02m0-12.2a1.5 1.5 0 0 1 1.5-1.5 1.5 1.5 0 0 1 1.5 1.5 1.5 1.5 0 0 1-1.5 1.5 1.5 1.5 0 0 1-1.5-1.5v-.02m0-12.2a1.5 1.5 0 0 1 1.5-1.5 1.5 1.5 0 0 1 1.5 1.5 1.5 1.5 0 0 1-1.5 1.5 1.5 1.5 0 0 1-1.5-1.5v-.03m0-12.2a1.5 1.5 0 0 1 1.5-1.5 1.5 1.5 0 0 1 1.5 1.5 1.5 1.5 0 0 1-1.5 1.5 1.5 1.5 0 0 1-1.5-1.5v-.02m0-12.2a1.5 1.5 0 0 1 1.5-1.5 1.5 1.5 0 0 1 1.5 1.5 1.5 1.5 0 0 1-1.5 1.5 1.5 1.5 0 0 1-1.5-1.5v-.02m0-12.2a1.5 1.5 0 0 1 1.5-1.5 1.5 1.5 0 0 1 1.5 1.5 1.5 1.5 0 0 1-1.5 1.5 1.5 1.5 0 0 1-1.5-1.5v-.02m0-12.2a1.5 1.5 0 0 1 1.5-1.5 1.5 1.5 0 0 1 1.5 1.5 1.5 1.5 0 0 1-1.5 1.5 1.5 1.5 0 0 1-1.5-1.5m0-12.2v-.02a1.5 1.5 0 0 1 1.5-1.5 1.5 1.5 0 0 1 1.5 1.5 1.5 1.5 0 0 1-1.5 1.5 1.5 1.5 0 0 1-1.5-1.5v-.02m0-12.2a1.5 1.5 0 0 1 1.5-1.5 1.5 1.5 0 0 1 1.5 1.5 1.5 1.5 0 0 1-1.5 1.5 1.5 1.5 0 0 1-1.5-1.5v-.02m0-12.2a1.5 1.5 0 0 1 1.5-1.5 1.5 1.5 0 0 1 1.5 1.5 1.5 1.5 0 0 1-1.5 1.5 1.5 1.5 0 0 1-1.5-1.5v-.02m0-12.2a1.5 1.5 0 0 1 1.5-1.5 1.5 1.5 0 0 1 1.5 1.5 1.5 1.5 0 0 1-1.5 1.5 1.5 1.5 0 0 1-1.5-1.5v-.02m0-12.2a1.5 1.5 0 0 1 1.5-1.5 1.5 1.5 0 0 1 1.5 1.5 1.5 1.5 0 0 1-1.5 1.5 1.5 1.5 0 0 1-1.5-1.5v-.03m0-12.2a1.5 1.5 0 0 1 1.5-1.5 1.5 1.5 0 0 1 1.5 1.5 1.5 1.5 0 0 1-1.5 1.5 1.5 1.5 0 0 1-1.5-1.5v-.02m0-12.2a1.5 1.5 0 0 1 1.5-1.5 1.5 1.5 0 0 1 1.5 1.5 1.5 1.5 0 0 1-1.5 1.5 1.5 1.5 0 0 1-1.5-1.5v-.02m0-12.2a1.5 1.5 0 0 1 1.5-1.5 1.5 1.5 0 0 1 1.5 1.5 1.5 1.5 0 0 1-1.5 1.5 1.5 1.5 0 0 1-1.5-1.5v-.02"/><path d="M680 820a20 20 0 0 1 20-20h60a20 20 0 0 1 20 20 20 20 0 0 1-20 20h-60a20 20 0 0 1-20-20z" stroke="#000" stroke-width="3" fill="#ced4db"/><use xlink:href="#a" transform="matrix(1,0,0,1,685,805) translate(19.236481481481476 21.430555555555557)"/><path d="M730 640v-17.5" stroke="#000" stroke-width="2" fill="none"/><path d="M730 655.26L725.37 641h9.26z" stroke="#000" stroke-width="2"/><path d="M730.98 622.53H729v-1.03H731z" stroke="#000" stroke-width=".05"/><path d="M680 680a20 20 0 0 1 20-20h60a20 20 0 0 1 20 20v60a20 20 0 0 1-20 20h-60a20 20 0 0 1-20-20z" stroke="#000" stroke-width="3" fill="url(#b)"/><use xlink:href="#c" transform="matrix(1,0,0,1,685,665) translate(3.0030864197530747 50.49305555555556)"/><path d="M680 600a20 20 0 0 1 20-20h60a20 20 0 0 1 20 20 20 20 0 0 1-20 20h-60a20 20 0 0 1-20-20z" stroke="#000" stroke-width="3" fill="#c3f7c8"/><use xlink:href="#d" transform="matrix(1,0,0,1,685,585) translate(23.276604938271603 21.430555555555557)"/><path d="M730 780v-17.5" stroke="#000" stroke-width="2" fill="none"/><path d="M730 795.26L725.37 781h9.26z" stroke="#000" stroke-width="2"/><path d="M730.98 762.53H729v-1.03H731z" stroke="#000" stroke-width=".05"/><path d="M480 620a20 20 0 0 1 20-20h100a20 20 0 0 1 20 20v220a20 20 0 0 1-20 20H500a20 20 0 0 1-20-20z" fill-opacity="0"/><path d="M478.5 620a1.5 1.5 0 0 1 1.5-1.5 1.5 1.5 0 0 1 1.5 1.5 1.5 1.5 0 0 1-1.5 1.5 1.5 1.5 0 0 1-1.5-1.5m2.73-9.96a1.5 1.5 0 0 1 1.5-1.5 1.5 1.5 0 0 1 1.5 1.5 1.5 1.5 0 0 1-1.5 1.5 1.5 1.5 0 0 1-1.5-1.5V610m7.3-7.26a1.5 1.5 0 0 1 1.5-1.5 1.5 1.5 0 0 1 1.5 1.5 1.5 1.5 0 0 1-1.5 1.5 1.5 1.5 0 0 1-1.5-1.5v-.03m9.97-2.7a1.5 1.5 0 0 1 1.5-1.5 1.5 1.5 0 0 1 1.5 1.5 1.5 1.5 0 0 1-1.5 1.5 1.5 1.5 0 0 1-1.5-1.5m12.5 0a1.5 1.5 0 0 1 1.5-1.5 1.5 1.5 0 0 1 1.5 1.5 1.5 1.5 0 0 1-1.5 1.5 1.5 1.5 0 0 1-1.5-1.5m12.5 0a1.5 1.5 0 0 1 1.5-1.5 1.5 1.5 0 0 1 1.5 1.5 1.5 1.5 0 0 1-1.5 1.5 1.5 1.5 0 0 1-1.5-1.5m12.5 0a1.5 1.5 0 0 1 1.5-1.5 1.5 1.5 0 0 1 1.5 1.5 1.5 1.5 0 0 1-1.5 1.5 1.5 1.5 0 0 1-1.5-1.5m12.5 0a1.5 1.5 0 0 1 1.5-1.5 1.5 1.5 0 0 1 1.5 1.5 1.5 1.5 0 0 1-1.5 1.5 1.5 1.5 0 0 1-1.5-1.5m12.5 0a1.5 1.5 0 0 1 1.5-1.5 1.5 1.5 0 0 1 1.5 1.5 1.5 1.5 0 0 1-1.5 1.5 1.5 1.5 0 0 1-1.5-1.5m12.5 0a1.5 1.5 0 0 1 1.5-1.5 1.5 1.5 0 0 1 1.5 1.5 1.5 1.5 0 0 1-1.5 1.5 1.5 1.5 0 0 1-1.5-1.5m12.5 0a1.5 1.5 0 0 1 1.5-1.5 1.5 1.5 0 0 1 1.5 1.5 1.5 1.5 0 0 1-1.5 1.5 1.5 1.5 0 0 1-1.5-1.5m12.5 0a1.5 1.5 0 0 1 1.5-1.5 1.5 1.5 0 0 1 1.5 1.5 1.5 1.5 0 0 1-1.5 1.5 1.5 1.5 0 0 1-1.5-1.5m9.97 2.74a1.5 1.5 0 0 1 1.5-1.5 1.5 1.5 0 0 1 1.5 1.5 1.5 1.5 0 0 1-1.5 1.5 1.5 1.5 0 0 1-1.5-1.5v-.03m7.3 7.34a1.5 1.5 0 0 1 1.5-1.5 1.5 1.5 0 0 1 1.5 1.5 1.5 1.5 0 0 1-1.5 1.5 1.5 1.5 0 0 1-1.5-1.5V610m2.73 10a1.5 1.5 0 0 1 1.5-1.5 1.5 1.5 0 0 1 1.5 1.5 1.5 1.5 0 0 1-1.5 1.5 1.5 1.5 0 0 1-1.5-1.5m0 12.24v-.02a1.5 1.5 0 0 1 1.5-1.5 1.5 1.5 0 0 1 1.5 1.5 1.5 1.5 0 0 1-1.5 1.5 1.5 1.5 0 0 1-1.5-1.5m0 12.24v-.02a1.5 1.5 0 0 1 1.5-1.5 1.5 1.5 0 0 1 1.5 1.5 1.5 1.5 0 0 1-1.5 1.5 1.5 1.5 0 0 1-1.5-1.5m0 12.24a1.5 1.5 0 0 1 1.5-1.5 1.5 1.5 0 0 1 1.5 1.5 1.5 1.5 0 0 1-1.5 1.5 1.5 1.5 0 0 1-1.5-1.5v-.03m0 12.25a1.5 1.5 0 0 1 1.5-1.5 1.5 1.5 0 0 1 1.5 1.5 1.5 1.5 0 0 1-1.5 1.5 1.5 1.5 0 0 1-1.5-1.5v-.03m0 12.26v-.02a1.5 1.5 0 0 1 1.5-1.5 1.5 1.5 0 0 1 1.5 1.5 1.5 1.5 0 0 1-1.5 1.5 1.5 1.5 0 0 1-1.5-1.5m0 12.25v-.02a1.5 1.5 0 0 1 1.5-1.5 1.5 1.5 0 0 1 1.5 1.5 1.5 1.5 0 0 1-1.5 1.5 1.5 1.5 0 0 1-1.5-1.5m0 12.24a1.5 1.5 0 0 1 1.5-1.5 1.5 1.5 0 0 1 1.5 1.5 1.5 1.5 0 0 1-1.5 1.5 1.5 1.5 0 0 1-1.5-1.5v-.03m0 12.25v-.02a1.5 1.5 0 0 1 1.5-1.5 1.5 1.5 0 0 1 1.5 1.5 1.5 1.5 0 0 1-1.5 1.5 1.5 1.5 0 0 1-1.5-1.5v-.02m0 12.25a1.5 1.5 0 0 1 1.5-1.5 1.5 1.5 0 0 1 1.5 1.5 1.5 1.5 0 0 1-1.5 1.5 1.5 1.5 0 0 1-1.5-1.5m0 12.24v-.02a1.5 1.5 0 0 1 1.5-1.5 1.5 1.5 0 0 1 1.5 1.5 1.5 1.5 0 0 1-1.5 1.5 1.5 1.5 0 0 1-1.5-1.5m0 12.24v-.02a1.5 1.5 0 0 1 1.5-1.5 1.5 1.5 0 0 1 1.5 1.5 1.5 1.5 0 0 1-1.5 1.5 1.5 1.5 0 0 1-1.5-1.5m0 12.24a1.5 1.5 0 0 1 1.5-1.5 1.5 1.5 0 0 1 1.5 1.5 1.5 1.5 0 0 1-1.5 1.5 1.5 1.5 0 0 1-1.5-1.5v-.03m0 12.25a1.5 1.5 0 0 1 1.5-1.5 1.5 1.5 0 0 1 1.5 1.5 1.5 1.5 0 0 1-1.5 1.5 1.5 1.5 0 0 1-1.5-1.5v-.03m0 12.26v-.02a1.5 1.5 0 0 1 1.5-1.5 1.5 1.5 0 0 1 1.5 1.5 1.5 1.5 0 0 1-1.5 1.5 1.5 1.5 0 0 1-1.5-1.5m0 12.25v-.02a1.5 1.5 0 0 1 1.5-1.5 1.5 1.5 0 0 1 1.5 1.5 1.5 1.5 0 0 1-1.5 1.5 1.5 1.5 0 0 1-1.5-1.5m0 12.24a1.5 1.5 0 0 1 1.5-1.5 1.5 1.5 0 0 1 1.5 1.5 1.5 1.5 0 0 1-1.5 1.5 1.5 1.5 0 0 1-1.5-1.5v-.03m0 12.25v-.02a1.5 1.5 0 0 1 1.5-1.5 1.5 1.5 0 0 1 1.5 1.5 1.5 1.5 0 0 1-1.5 1.5 1.5 1.5 0 0 1-1.5-1.5v-.02m0 12.25a1.5 1.5 0 0 1 1.5-1.5 1.5 1.5 0 0 1 1.5 1.5 1.5 1.5 0 0 1-1.5 1.5 1.5 1.5 0 0 1-1.5-1.5m-2.73 10v-.03a1.5 1.5 0 0 1 1.5-1.5 1.5 1.5 0 0 1 1.5 1.5 1.5 1.5 0 0 1-1.5 1.5 1.5 1.5 0 0 1-1.5-1.5m-7.3 7.32v-.03a1.5 1.5 0 0 1 1.5-1.5 1.5 1.5 0 0 1 1.5 1.5 1.5 1.5 0 0 1-1.5 1.5 1.5 1.5 0 0 1-1.5-1.5M598.5 860V860a1.5 1.5 0 0 1 1.5-1.5 1.5 1.5 0 0 1 1.5 1.5 1.5 1.5 0 0 1-1.5 1.5 1.5 1.5 0 0 1-1.5-1.5m-12.5 0a1.5 1.5 0 0 1 1.5-1.5 1.5 1.5 0 0 1 1.5 1.5 1.5 1.5 0 0 1-1.5 1.5 1.5 1.5 0 0 1-1.5-1.5m-12.5 0a1.5 1.5 0 0 1 1.5-1.5 1.5 1.5 0 0 1 1.5 1.5 1.5 1.5 0 0 1-1.5 1.5 1.5 1.5 0 0 1-1.5-1.5m-12.5 0a1.5 1.5 0 0 1 1.5-1.5 1.5 1.5 0 0 1 1.5 1.5 1.5 1.5 0 0 1-1.5 1.5 1.5 1.5 0 0 1-1.5-1.5m-12.5 0a1.5 1.5 0 0 1 1.5-1.5 1.5 1.5 0 0 1 1.5 1.5 1.5 1.5 0 0 1-1.5 1.5 1.5 1.5 0 0 1-1.5-1.5m-12.5 0a1.5 1.5 0 0 1 1.5-1.5 1.5 1.5 0 0 1 1.5 1.5 1.5 1.5 0 0 1-1.5 1.5 1.5 1.5 0 0 1-1.5-1.5m-12.5 0a1.5 1.5 0 0 1 1.5-1.5 1.5 1.5 0 0 1 1.5 1.5 1.5 1.5 0 0 1-1.5 1.5 1.5 1.5 0 0 1-1.5-1.5m-12.5 0a1.5 1.5 0 0 1 1.5-1.5 1.5 1.5 0 0 1 1.5 1.5 1.5 1.5 0 0 1-1.5 1.5 1.5 1.5 0 0 1-1.5-1.5m-12.5 0a1.5 1.5 0 0 1 1.5-1.5 1.5 1.5 0 0 1 1.5 1.5 1.5 1.5 0 0 1-1.5 1.5 1.5 1.5 0 0 1-1.5-1.5m-9.97-2.7v-.03a1.5 1.5 0 0 1 1.5-1.5 1.5 1.5 0 0 1 1.5 1.5 1.5 1.5 0 0 1-1.5 1.5 1.5 1.5 0 0 1-1.5-1.5m-7.3-7.28v-.03a1.5 1.5 0 0 1 1.5-1.5 1.5 1.5 0 0 1 1.5 1.5 1.5 1.5 0 0 1-1.5 1.5 1.5 1.5 0 0 1-1.5-1.5M478.5 840a1.5 1.5 0 0 1 1.5-1.5 1.5 1.5 0 0 1 1.5 1.5 1.5 1.5 0 0 1-1.5 1.5 1.5 1.5 0 0 1-1.5-1.5m0-12.2v-.02a1.5 1.5 0 0 1 1.5-1.5 1.5 1.5 0 0 1 1.5 1.5 1.5 1.5 0 0 1-1.5 1.5 1.5 1.5 0 0 1-1.5-1.5v-.02m0-12.2a1.5 1.5 0 0 1 1.5-1.5 1.5 1.5 0 0 1 1.5 1.5 1.5 1.5 0 0 1-1.5 1.5 1.5 1.5 0 0 1-1.5-1.5v-.02m0-12.2a1.5 1.5 0 0 1 1.5-1.5 1.5 1.5 0 0 1 1.5 1.5 1.5 1.5 0 0 1-1.5 1.5 1.5 1.5 0 0 1-1.5-1.5v-.02m0-12.2a1.5 1.5 0 0 1 1.5-1.5 1.5 1.5 0 0 1 1.5 1.5 1.5 1.5 0 0 1-1.5 1.5 1.5 1.5 0 0 1-1.5-1.5v-.02m0-12.2a1.5 1.5 0 0 1 1.5-1.5 1.5 1.5 0 0 1 1.5 1.5 1.5 1.5 0 0 1-1.5 1.5 1.5 1.5 0 0 1-1.5-1.5v-.03m0-12.2a1.5 1.5 0 0 1 1.5-1.5 1.5 1.5 0 0 1 1.5 1.5 1.5 1.5 0 0 1-1.5 1.5 1.5 1.5 0 0 1-1.5-1.5v-.02m0-12.2a1.5 1.5 0 0 1 1.5-1.5 1.5 1.5 0 0 1 1.5 1.5 1.5 1.5 0 0 1-1.5 1.5 1.5 1.5 0 0 1-1.5-1.5v-.02m0-12.2a1.5 1.5 0 0 1 1.5-1.5 1.5 1.5 0 0 1 1.5 1.5 1.5 1.5 0 0 1-1.5 1.5 1.5 1.5 0 0 1-1.5-1.5v-.02m0-12.2a1.5 1.5 0 0 1 1.5-1.5 1.5 1.5 0 0 1 1.5 1.5 1.5 1.5 0 0 1-1.5 1.5 1.5 1.5 0 0 1-1.5-1.5m0-12.2v-.02a1.5 1.5 0 0 1 1.5-1.5 1.5 1.5 0 0 1 1.5 1.5 1.5 1.5 0 0 1-1.5 1.5 1.5 1.5 0 0 1-1.5-1.5v-.02m0-12.2a1.5 1.5 0 0 1 1.5-1.5 1.5 1.5 0 0 1 1.5 1.5 1.5 1.5 0 0 1-1.5 1.5 1.5 1.5 0 0 1-1.5-1.5v-.02m0-12.2a1.5 1.5 0 0 1 1.5-1.5 1.5 1.5 0 0 1 1.5 1.5 1.5 1.5 0 0 1-1.5 1.5 1.5 1.5 0 0 1-1.5-1.5v-.02m0-12.2a1.5 1.5 0 0 1 1.5-1.5 1.5 1.5 0 0 1 1.5 1.5 1.5 1.5 0 0 1-1.5 1.5 1.5 1.5 0 0 1-1.5-1.5v-.02m0-12.2a1.5 1.5 0 0 1 1.5-1.5 1.5 1.5 0 0 1 1.5 1.5 1.5 1.5 0 0 1-1.5 1.5 1.5 1.5 0 0 1-1.5-1.5v-.03m0-12.2a1.5 1.5 0 0 1 1.5-1.5 1.5 1.5 0 0 1 1.5 1.5 1.5 1.5 0 0 1-1.5 1.5 1.5 1.5 0 0 1-1.5-1.5v-.02m0-12.2a1.5 1.5 0 0 1 1.5-1.5 1.5 1.5 0 0 1 1.5 1.5 1.5 1.5 0 0 1-1.5 1.5 1.5 1.5 0 0 1-1.5-1.5v-.02m0-12.2a1.5 1.5 0 0 1 1.5-1.5 1.5 1.5 0 0 1 1.5 1.5 1.5 1.5 0 0 1-1.5 1.5 1.5 1.5 0 0 1-1.5-1.5v-.02"/><path d="M500 820a20 20 0 0 1 20-20h60a20 20 0 0 1 20 20 20 20 0 0 1-20 20h-60a20 20 0 0 1-20-20z" stroke="#000" stroke-width="3" fill="#ced4db"/><use xlink:href="#a" transform="matrix(1,0,0,1,505,805) translate(19.236481481481476 21.430555555555557)"/><path d="M550 640v-17.5" stroke="#000" stroke-width="2" fill="none"/><path d="M550 655.26L545.37 641h9.26z" stroke="#000" stroke-width="2"/><path d="M550.98 622.53H549v-1.03H551z" stroke="#000" stroke-width=".05"/><path d="M500 680a20 20 0 0 1 20-20h60a20 20 0 0 1 20 20v60a20 20 0 0 1-20 20h-60a20 20 0 0 1-20-20z" stroke="#000" stroke-width="3" fill="url(#e)"/><use xlink:href="#c" transform="matrix(1,0,0,1,505,665) translate(3.0030864197530747 50.49305555555556)"/><path d="M500 600a20 20 0 0 1 20-20h60a20 20 0 0 1 20 20 20 20 0 0 1-20 20h-60a20 20 0 0 1-20-20z" stroke="#000" stroke-width="3" fill="#c3f7c8"/><use xlink:href="#d" transform="matrix(1,0,0,1,505,585) translate(23.276604938271603 21.430555555555557)"/><path d="M550 780v-17.5" stroke="#000" stroke-width="2" fill="none"/><path d="M550 795.26L545.37 781h9.26z" stroke="#000" stroke-width="2"/><path d="M550.98 762.53H549v-1.03H551z" stroke="#000" stroke-width=".05"/><path d="M660 600h-40" stroke="#000" stroke-width="2" fill="none"/><path d="M675.26 600L661 604.63v-9.26zM604.74 600l14.27-4.63v9.26z" stroke="#000" stroke-width="2"/><path d="M661.5 822a1 1 0 0 1 1-1 1 1 0 0 1 1 1 1 1 0 0 1-1 1 1 1 0 0 1-1-1m-4 0a1 1 0 0 1 1-1 1 1 0 0 1 1 1 1 1 0 0 1-1 1 1 1 0 0 1-1-1m-4 0a1 1 0 0 1 1-1 1 1 0 0 1 1 1 1 1 0 0 1-1 1 1 1 0 0 1-1-1m-4 0a1 1 0 0 1 1-1 1 1 0 0 1 1 1 1 1 0 0 1-1 1 1 1 0 0 1-1-1m-4 0a1 1 0 0 1 1-1 1 1 0 0 1 1 1 1 1 0 0 1-1 1 1 1 0 0 1-1-1m-4 0a1 1 0 0 1 1-1 1 1 0 0 1 1 1 1 1 0 0 1-1 1 1 1 0 0 1-1-1m-4 0a1 1 0 0 1 1-1 1 1 0 0 1 1 1 1 1 0 0 1-1 1 1 1 0 0 1-1-1m-4 0a1 1 0 0 1 1-1 1 1 0 0 1 1 1 1 1 0 0 1-1 1 1 1 0 0 1-1-1m-4 0a1 1 0 0 1 1-1 1 1 0 0 1 1 1 1 1 0 0 1-1 1 1 1 0 0 1-1-1m-4 0a1 1 0 0 1 1-1 1 1 0 0 1 1 1 1 1 0 0 1-1 1 1 1 0 0 1-1-1m-4 0a1 1 0 0 1 1-1 1 1 0 0 1 1 1 1 1 0 0 1-1 1 1 1 0 0 1-1-1m-4 0a1 1 0 0 1 1-1 1 1 0 0 1 1 1 1 1 0 0 1-1 1 1 1 0 0 1-1-1m-4 0a1 1 0 0 1 1-1 1 1 0 0 1 1 1 1 1 0 0 1-1 1 1 1 0 0 1-1-1m-4 0a1 1 0 0 1 1-1 1 1 0 0 1 1 1 1 1 0 0 1-1 1 1 1 0 0 1-1-1m-4 0a1 1 0 0 1 1-1 1 1 0 0 1 1 1 1 1 0 0 1-1 1 1 1 0 0 1-1-1M661.5 818a1 1 0 0 1 1-1 1 1 0 0 1 1 1 1 1 0 0 1-1 1 1 1 0 0 1-1-1m-4 0a1 1 0 0 1 1-1 1 1 0 0 1 1 1 1 1 0 0 1-1 1 1 1 0 0 1-1-1m-4 0a1 1 0 0 1 1-1 1 1 0 0 1 1 1 1 1 0 0 1-1 1 1 1 0 0 1-1-1m-4 0a1 1 0 0 1 1-1 1 1 0 0 1 1 1 1 1 0 0 1-1 1 1 1 0 0 1-1-1m-4 0a1 1 0 0 1 1-1 1 1 0 0 1 1 1 1 1 0 0 1-1 1 1 1 0 0 1-1-1m-4 0a1 1 0 0 1 1-1 1 1 0 0 1 1 1 1 1 0 0 1-1 1 1 1 0 0 1-1-1m-4 0a1 1 0 0 1 1-1 1 1 0 0 1 1 1 1 1 0 0 1-1 1 1 1 0 0 1-1-1m-4 0a1 1 0 0 1 1-1 1 1 0 0 1 1 1 1 1 0 0 1-1 1 1 1 0 0 1-1-1m-4 0a1 1 0 0 1 1-1 1 1 0 0 1 1 1 1 1 0 0 1-1 1 1 1 0 0 1-1-1m-4 0a1 1 0 0 1 1-1 1 1 0 0 1 1 1 1 1 0 0 1-1 1 1 1 0 0 1-1-1m-4 0a1 1 0 0 1 1-1 1 1 0 0 1 1 1 1 1 0 0 1-1 1 1 1 0 0 1-1-1m-4 0a1 1 0 0 1 1-1 1 1 0 0 1 1 1 1 1 0 0 1-1 1 1 1 0 0 1-1-1m-4 0a1 1 0 0 1 1-1 1 1 0 0 1 1 1 1 1 0 0 1-1 1 1 1 0 0 1-1-1m-4 0a1 1 0 0 1 1-1 1 1 0 0 1 1 1 1 1 0 0 1-1 1 1 1 0 0 1-1-1m-4 0a1 1 0 0 1 1-1 1 1 0 0 1 1 1 1 1 0 0 1-1 1 1 1 0 0 1-1-1" fill="#ba23f6"/><path d="M676.5 820l-13 7.5v-15z" stroke="#ba23f6" stroke-width="2" fill="#fff"/><path d="M602.53 822.98h-1.26l.15-1.96h1.1zM602.53 818.98h-1.1l-.16-1.96h1.26z" stroke="#ba23f6" stroke-width=".05" fill="#ba23f6"/><path d="M480 886a6 6 0 0 1 6-6h308a6 6 0 0 1 6 6v88a6 6 0 0 1-6 6H486a6 6 0 0 1-6-6z" stroke="#000" stroke-opacity="0" stroke-width="3" fill="#fff" fill-opacity="0"/><use xlink:href="#f" transform="matrix(1,0,0,1,485,885) translate(76.13580246913583 31.288194444444436)"/><use xlink:href="#g" transform="matrix(1,0,0,1,485,885) translate(59.444444444444485 73.95486111111109)"/><path d="M1058.5 620a20 20 0 0 1 20-20h100a20 20 0 0 1 20 20v220a20 20 0 0 1-20 20h-100a20 20 0 0 1-20-20z" fill-opacity="0"/><path d="M1057 620a1.5 1.5 0 0 1 1.5-1.5 1.5 1.5 0 0 1 1.5 1.5 1.5 1.5 0 0 1-1.5 1.5 1.5 1.5 0 0 1-1.5-1.5m2.73-9.96a1.5 1.5 0 0 1 1.5-1.5 1.5 1.5 0 0 1 1.5 1.5 1.5 1.5 0 0 1-1.5 1.5 1.5 1.5 0 0 1-1.5-1.5V610m7.3-7.26a1.5 1.5 0 0 1 1.5-1.5 1.5 1.5 0 0 1 1.5 1.5 1.5 1.5 0 0 1-1.5 1.5 1.5 1.5 0 0 1-1.5-1.5v-.03m9.97-2.7a1.5 1.5 0 0 1 1.5-1.5 1.5 1.5 0 0 1 1.5 1.5 1.5 1.5 0 0 1-1.5 1.5 1.5 1.5 0 0 1-1.5-1.5m12.5 0a1.5 1.5 0 0 1 1.5-1.5 1.5 1.5 0 0 1 1.5 1.5 1.5 1.5 0 0 1-1.5 1.5 1.5 1.5 0 0 1-1.5-1.5m12.5 0a1.5 1.5 0 0 1 1.5-1.5 1.5 1.5 0 0 1 1.5 1.5 1.5 1.5 0 0 1-1.5 1.5 1.5 1.5 0 0 1-1.5-1.5m12.5 0a1.5 1.5 0 0 1 1.5-1.5 1.5 1.5 0 0 1 1.5 1.5 1.5 1.5 0 0 1-1.5 1.5 1.5 1.5 0 0 1-1.5-1.5m12.5 0a1.5 1.5 0 0 1 1.5-1.5 1.5 1.5 0 0 1 1.5 1.5 1.5 1.5 0 0 1-1.5 1.5 1.5 1.5 0 0 1-1.5-1.5m12.5 0a1.5 1.5 0 0 1 1.5-1.5 1.5 1.5 0 0 1 1.5 1.5 1.5 1.5 0 0 1-1.5 1.5 1.5 1.5 0 0 1-1.5-1.5m12.5 0a1.5 1.5 0 0 1 1.5-1.5 1.5 1.5 0 0 1 1.5 1.5 1.5 1.5 0 0 1-1.5 1.5 1.5 1.5 0 0 1-1.5-1.5m12.5 0a1.5 1.5 0 0 1 1.5-1.5 1.5 1.5 0 0 1 1.5 1.5 1.5 1.5 0 0 1-1.5 1.5 1.5 1.5 0 0 1-1.5-1.5m12.5 0a1.5 1.5 0 0 1 1.5-1.5 1.5 1.5 0 0 1 1.5 1.5 1.5 1.5 0 0 1-1.5 1.5 1.5 1.5 0 0 1-1.5-1.5m9.97 2.74a1.5 1.5 0 0 1 1.5-1.5 1.5 1.5 0 0 1 1.5 1.5 1.5 1.5 0 0 1-1.5 1.5 1.5 1.5 0 0 1-1.5-1.5v-.03m7.3 7.34a1.5 1.5 0 0 1 1.5-1.5 1.5 1.5 0 0 1 1.5 1.5 1.5 1.5 0 0 1-1.5 1.5 1.5 1.5 0 0 1-1.5-1.5V610m2.73 10a1.5 1.5 0 0 1 1.5-1.5 1.5 1.5 0 0 1 1.5 1.5 1.5 1.5 0 0 1-1.5 1.5 1.5 1.5 0 0 1-1.5-1.5m0 12.24v-.02a1.5 1.5 0 0 1 1.5-1.5 1.5 1.5 0 0 1 1.5 1.5 1.5 1.5 0 0 1-1.5 1.5 1.5 1.5 0 0 1-1.5-1.5m0 12.24v-.02a1.5 1.5 0 0 1 1.5-1.5 1.5 1.5 0 0 1 1.5 1.5 1.5 1.5 0 0 1-1.5 1.5 1.5 1.5 0 0 1-1.5-1.5m0 12.24a1.5 1.5 0 0 1 1.5-1.5 1.5 1.5 0 0 1 1.5 1.5 1.5 1.5 0 0 1-1.5 1.5 1.5 1.5 0 0 1-1.5-1.5v-.03m0 12.25a1.5 1.5 0 0 1 1.5-1.5 1.5 1.5 0 0 1 1.5 1.5 1.5 1.5 0 0 1-1.5 1.5 1.5 1.5 0 0 1-1.5-1.5v-.03m0 12.26v-.02a1.5 1.5 0 0 1 1.5-1.5 1.5 1.5 0 0 1 1.5 1.5 1.5 1.5 0 0 1-1.5 1.5 1.5 1.5 0 0 1-1.5-1.5m0 12.25v-.02a1.5 1.5 0 0 1 1.5-1.5 1.5 1.5 0 0 1 1.5 1.5 1.5 1.5 0 0 1-1.5 1.5 1.5 1.5 0 0 1-1.5-1.5m0 12.24a1.5 1.5 0 0 1 1.5-1.5 1.5 1.5 0 0 1 1.5 1.5 1.5 1.5 0 0 1-1.5 1.5 1.5 1.5 0 0 1-1.5-1.5v-.03m0 12.25v-.02a1.5 1.5 0 0 1 1.5-1.5 1.5 1.5 0 0 1 1.5 1.5 1.5 1.5 0 0 1-1.5 1.5 1.5 1.5 0 0 1-1.5-1.5v-.02m0 12.25a1.5 1.5 0 0 1 1.5-1.5 1.5 1.5 0 0 1 1.5 1.5 1.5 1.5 0 0 1-1.5 1.5 1.5 1.5 0 0 1-1.5-1.5m0 12.24v-.02a1.5 1.5 0 0 1 1.5-1.5 1.5 1.5 0 0 1 1.5 1.5 1.5 1.5 0 0 1-1.5 1.5 1.5 1.5 0 0 1-1.5-1.5m0 12.24v-.02a1.5 1.5 0 0 1 1.5-1.5 1.5 1.5 0 0 1 1.5 1.5 1.5 1.5 0 0 1-1.5 1.5 1.5 1.5 0 0 1-1.5-1.5m0 12.24a1.5 1.5 0 0 1 1.5-1.5 1.5 1.5 0 0 1 1.5 1.5 1.5 1.5 0 0 1-1.5 1.5 1.5 1.5 0 0 1-1.5-1.5v-.03m0 12.25a1.5 1.5 0 0 1 1.5-1.5 1.5 1.5 0 0 1 1.5 1.5 1.5 1.5 0 0 1-1.5 1.5 1.5 1.5 0 0 1-1.5-1.5v-.03m0 12.26v-.02a1.5 1.5 0 0 1 1.5-1.5 1.5 1.5 0 0 1 1.5 1.5 1.5 1.5 0 0 1-1.5 1.5 1.5 1.5 0 0 1-1.5-1.5m0 12.25v-.02a1.5 1.5 0 0 1 1.5-1.5 1.5 1.5 0 0 1 1.5 1.5 1.5 1.5 0 0 1-1.5 1.5 1.5 1.5 0 0 1-1.5-1.5m0 12.24a1.5 1.5 0 0 1 1.5-1.5 1.5 1.5 0 0 1 1.5 1.5 1.5 1.5 0 0 1-1.5 1.5 1.5 1.5 0 0 1-1.5-1.5v-.03m0 12.25v-.02a1.5 1.5 0 0 1 1.5-1.5 1.5 1.5 0 0 1 1.5 1.5 1.5 1.5 0 0 1-1.5 1.5 1.5 1.5 0 0 1-1.5-1.5v-.02m0 12.25a1.5 1.5 0 0 1 1.5-1.5 1.5 1.5 0 0 1 1.5 1.5 1.5 1.5 0 0 1-1.5 1.5 1.5 1.5 0 0 1-1.5-1.5m-2.73 10v-.03a1.5 1.5 0 0 1 1.5-1.5 1.5 1.5 0 0 1 1.5 1.5 1.5 1.5 0 0 1-1.5 1.5 1.5 1.5 0 0 1-1.5-1.5m-7.3 7.32v-.03a1.5 1.5 0 0 1 1.5-1.5 1.5 1.5 0 0 1 1.5 1.5 1.5 1.5 0 0 1-1.5 1.5 1.5 1.5 0 0 1-1.5-1.5M1177 860V860a1.5 1.5 0 0 1 1.5-1.5 1.5 1.5 0 0 1 1.5 1.5 1.5 1.5 0 0 1-1.5 1.5 1.5 1.5 0 0 1-1.5-1.5m-12.5 0a1.5 1.5 0 0 1 1.5-1.5 1.5 1.5 0 0 1 1.5 1.5 1.5 1.5 0 0 1-1.5 1.5 1.5 1.5 0 0 1-1.5-1.5m-12.5 0a1.5 1.5 0 0 1 1.5-1.5 1.5 1.5 0 0 1 1.5 1.5 1.5 1.5 0 0 1-1.5 1.5 1.5 1.5 0 0 1-1.5-1.5m-12.5 0a1.5 1.5 0 0 1 1.5-1.5 1.5 1.5 0 0 1 1.5 1.5 1.5 1.5 0 0 1-1.5 1.5 1.5 1.5 0 0 1-1.5-1.5m-12.5 0a1.5 1.5 0 0 1 1.5-1.5 1.5 1.5 0 0 1 1.5 1.5 1.5 1.5 0 0 1-1.5 1.5 1.5 1.5 0 0 1-1.5-1.5m-12.5 0a1.5 1.5 0 0 1 1.5-1.5 1.5 1.5 0 0 1 1.5 1.5 1.5 1.5 0 0 1-1.5 1.5 1.5 1.5 0 0 1-1.5-1.5m-12.5 0a1.5 1.5 0 0 1 1.5-1.5 1.5 1.5 0 0 1 1.5 1.5 1.5 1.5 0 0 1-1.5 1.5 1.5 1.5 0 0 1-1.5-1.5m-12.5 0a1.5 1.5 0 0 1 1.5-1.5 1.5 1.5 0 0 1 1.5 1.5 1.5 1.5 0 0 1-1.5 1.5 1.5 1.5 0 0 1-1.5-1.5m-12.5 0a1.5 1.5 0 0 1 1.5-1.5 1.5 1.5 0 0 1 1.5 1.5 1.5 1.5 0 0 1-1.5 1.5 1.5 1.5 0 0 1-1.5-1.5m-9.97-2.7v-.03a1.5 1.5 0 0 1 1.5-1.5 1.5 1.5 0 0 1 1.5 1.5 1.5 1.5 0 0 1-1.5 1.5 1.5 1.5 0 0 1-1.5-1.5m-7.3-7.28v-.03a1.5 1.5 0 0 1 1.5-1.5 1.5 1.5 0 0 1 1.5 1.5 1.5 1.5 0 0 1-1.5 1.5 1.5 1.5 0 0 1-1.5-1.5M1057 840a1.5 1.5 0 0 1 1.5-1.5 1.5 1.5 0 0 1 1.5 1.5 1.5 1.5 0 0 1-1.5 1.5 1.5 1.5 0 0 1-1.5-1.5m0-12.2v-.02a1.5 1.5 0 0 1 1.5-1.5 1.5 1.5 0 0 1 1.5 1.5 1.5 1.5 0 0 1-1.5 1.5 1.5 1.5 0 0 1-1.5-1.5v-.02m0-12.2a1.5 1.5 0 0 1 1.5-1.5 1.5 1.5 0 0 1 1.5 1.5 1.5 1.5 0 0 1-1.5 1.5 1.5 1.5 0 0 1-1.5-1.5v-.02m0-12.2a1.5 1.5 0 0 1 1.5-1.5 1.5 1.5 0 0 1 1.5 1.5 1.5 1.5 0 0 1-1.5 1.5 1.5 1.5 0 0 1-1.5-1.5v-.02m0-12.2a1.5 1.5 0 0 1 1.5-1.5 1.5 1.5 0 0 1 1.5 1.5 1.5 1.5 0 0 1-1.5 1.5 1.5 1.5 0 0 1-1.5-1.5v-.02m0-12.2a1.5 1.5 0 0 1 1.5-1.5 1.5 1.5 0 0 1 1.5 1.5 1.5 1.5 0 0 1-1.5 1.5 1.5 1.5 0 0 1-1.5-1.5v-.03m0-12.2a1.5 1.5 0 0 1 1.5-1.5 1.5 1.5 0 0 1 1.5 1.5 1.5 1.5 0 0 1-1.5 1.5 1.5 1.5 0 0 1-1.5-1.5v-.02m0-12.2a1.5 1.5 0 0 1 1.5-1.5 1.5 1.5 0 0 1 1.5 1.5 1.5 1.5 0 0 1-1.5 1.5 1.5 1.5 0 0 1-1.5-1.5v-.02m0-12.2a1.5 1.5 0 0 1 1.5-1.5 1.5 1.5 0 0 1 1.5 1.5 1.5 1.5 0 0 1-1.5 1.5 1.5 1.5 0 0 1-1.5-1.5v-.02m0-12.2a1.5 1.5 0 0 1 1.5-1.5 1.5 1.5 0 0 1 1.5 1.5 1.5 1.5 0 0 1-1.5 1.5 1.5 1.5 0 0 1-1.5-1.5m0-12.2v-.02a1.5 1.5 0 0 1 1.5-1.5 1.5 1.5 0 0 1 1.5 1.5 1.5 1.5 0 0 1-1.5 1.5 1.5 1.5 0 0 1-1.5-1.5v-.02m0-12.2a1.5 1.5 0 0 1 1.5-1.5 1.5 1.5 0 0 1 1.5 1.5 1.5 1.5 0 0 1-1.5 1.5 1.5 1.5 0 0 1-1.5-1.5v-.02m0-12.2a1.5 1.5 0 0 1 1.5-1.5 1.5 1.5 0 0 1 1.5 1.5 1.5 1.5 0 0 1-1.5 1.5 1.5 1.5 0 0 1-1.5-1.5v-.02m0-12.2a1.5 1.5 0 0 1 1.5-1.5 1.5 1.5 0 0 1 1.5 1.5 1.5 1.5 0 0 1-1.5 1.5 1.5 1.5 0 0 1-1.5-1.5v-.02m0-12.2a1.5 1.5 0 0 1 1.5-1.5 1.5 1.5 0 0 1 1.5 1.5 1.5 1.5 0 0 1-1.5 1.5 1.5 1.5 0 0 1-1.5-1.5v-.03m0-12.2a1.5 1.5 0 0 1 1.5-1.5 1.5 1.5 0 0 1 1.5 1.5 1.5 1.5 0 0 1-1.5 1.5 1.5 1.5 0 0 1-1.5-1.5v-.02m0-12.2a1.5 1.5 0 0 1 1.5-1.5 1.5 1.5 0 0 1 1.5 1.5 1.5 1.5 0 0 1-1.5 1.5 1.5 1.5 0 0 1-1.5-1.5v-.02m0-12.2a1.5 1.5 0 0 1 1.5-1.5 1.5 1.5 0 0 1 1.5 1.5 1.5 1.5 0 0 1-1.5 1.5 1.5 1.5 0 0 1-1.5-1.5v-.02"/><path d="M1078.5 820a20 20 0 0 1 20-20h60a20 20 0 0 1 20 20 20 20 0 0 1-20 20h-60a20 20 0 0 1-20-20z" stroke="#000" stroke-width="3" fill="url(#h)"/><use xlink:href="#a" transform="matrix(1,0,0,1,1083.5000027916672,805) translate(19.236481481481476 21.430555555555557)"/><path d="M1128.5 640v-17.5" stroke="#000" stroke-width="2" fill="none"/><path d="M1128.5 655.26l-4.63-14.26h9.27z" stroke="#000" stroke-width="2"/><path d="M1129.47 622.53h-1.94v-1.03h1.94z" stroke="#000" stroke-width=".05"/><path d="M1078.5 680a20 20 0 0 1 20-20h60a20 20 0 0 1 20 20v60a20 20 0 0 1-20 20h-60a20 20 0 0 1-20-20z" stroke="#000" stroke-width="3" fill="url(#i)"/><use xlink:href="#c" transform="matrix(1,0,0,1,1083.5000027916672,665) translate(3.0030864197530747 50.49305555555556)"/><path d="M1078.5 600a20 20 0 0 1 20-20h60a20 20 0 0 1 20 20 20 20 0 0 1-20 20h-60a20 20 0 0 1-20-20z" stroke="#000" stroke-width="3" fill="#c3f7c8"/><use xlink:href="#d" transform="matrix(1,0,0,1,1083.5000027916672,585) translate(23.276604938271603 21.430555555555557)"/><path d="M1128.5 780v-17.5" stroke="#000" stroke-width="2" fill="none"/><path d="M1128.5 795.26l-4.63-14.26h9.27z" stroke="#000" stroke-width="2"/><path d="M1129.47 762.53h-1.94v-1.03h1.94z" stroke="#000" stroke-width=".05"/><path d="M880 620a20 20 0 0 1 20-20h100a20 20 0 0 1 20 20v220a20 20 0 0 1-20 20H900a20 20 0 0 1-20-20z" fill-opacity="0"/><path d="M878.5 620a1.5 1.5 0 0 1 1.5-1.5 1.5 1.5 0 0 1 1.5 1.5 1.5 1.5 0 0 1-1.5 1.5 1.5 1.5 0 0 1-1.5-1.5m2.73-9.96a1.5 1.5 0 0 1 1.5-1.5 1.5 1.5 0 0 1 1.5 1.5 1.5 1.5 0 0 1-1.5 1.5 1.5 1.5 0 0 1-1.5-1.5V610m7.3-7.26a1.5 1.5 0 0 1 1.5-1.5 1.5 1.5 0 0 1 1.5 1.5 1.5 1.5 0 0 1-1.5 1.5 1.5 1.5 0 0 1-1.5-1.5v-.03m9.97-2.7a1.5 1.5 0 0 1 1.5-1.5 1.5 1.5 0 0 1 1.5 1.5 1.5 1.5 0 0 1-1.5 1.5 1.5 1.5 0 0 1-1.5-1.5m12.5 0a1.5 1.5 0 0 1 1.5-1.5 1.5 1.5 0 0 1 1.5 1.5 1.5 1.5 0 0 1-1.5 1.5 1.5 1.5 0 0 1-1.5-1.5m12.5 0a1.5 1.5 0 0 1 1.5-1.5 1.5 1.5 0 0 1 1.5 1.5 1.5 1.5 0 0 1-1.5 1.5 1.5 1.5 0 0 1-1.5-1.5m12.5 0a1.5 1.5 0 0 1 1.5-1.5 1.5 1.5 0 0 1 1.5 1.5 1.5 1.5 0 0 1-1.5 1.5 1.5 1.5 0 0 1-1.5-1.5m12.5 0a1.5 1.5 0 0 1 1.5-1.5 1.5 1.5 0 0 1 1.5 1.5 1.5 1.5 0 0 1-1.5 1.5 1.5 1.5 0 0 1-1.5-1.5m12.5 0a1.5 1.5 0 0 1 1.5-1.5 1.5 1.5 0 0 1 1.5 1.5 1.5 1.5 0 0 1-1.5 1.5 1.5 1.5 0 0 1-1.5-1.5m12.5 0a1.5 1.5 0 0 1 1.5-1.5 1.5 1.5 0 0 1 1.5 1.5 1.5 1.5 0 0 1-1.5 1.5 1.5 1.5 0 0 1-1.5-1.5m12.5 0a1.5 1.5 0 0 1 1.5-1.5 1.5 1.5 0 0 1 1.5 1.5 1.5 1.5 0 0 1-1.5 1.5 1.5 1.5 0 0 1-1.5-1.5m12.5 0a1.5 1.5 0 0 1 1.5-1.5 1.5 1.5 0 0 1 1.5 1.5 1.5 1.5 0 0 1-1.5 1.5 1.5 1.5 0 0 1-1.5-1.5m9.97 2.74a1.5 1.5 0 0 1 1.5-1.5 1.5 1.5 0 0 1 1.5 1.5 1.5 1.5 0 0 1-1.5 1.5 1.5 1.5 0 0 1-1.5-1.5v-.03m7.3 7.34a1.5 1.5 0 0 1 1.5-1.5 1.5 1.5 0 0 1 1.5 1.5 1.5 1.5 0 0 1-1.5 1.5 1.5 1.5 0 0 1-1.5-1.5V610m2.73 10a1.5 1.5 0 0 1 1.5-1.5 1.5 1.5 0 0 1 1.5 1.5 1.5 1.5 0 0 1-1.5 1.5 1.5 1.5 0 0 1-1.5-1.5m0 12.24v-.02a1.5 1.5 0 0 1 1.5-1.5 1.5 1.5 0 0 1 1.5 1.5 1.5 1.5 0 0 1-1.5 1.5 1.5 1.5 0 0 1-1.5-1.5m0 12.24v-.02a1.5 1.5 0 0 1 1.5-1.5 1.5 1.5 0 0 1 1.5 1.5 1.5 1.5 0 0 1-1.5 1.5 1.5 1.5 0 0 1-1.5-1.5m0 12.24a1.5 1.5 0 0 1 1.5-1.5 1.5 1.5 0 0 1 1.5 1.5 1.5 1.5 0 0 1-1.5 1.5 1.5 1.5 0 0 1-1.5-1.5v-.03m0 12.25a1.5 1.5 0 0 1 1.5-1.5 1.5 1.5 0 0 1 1.5 1.5 1.5 1.5 0 0 1-1.5 1.5 1.5 1.5 0 0 1-1.5-1.5v-.03m0 12.26v-.02a1.5 1.5 0 0 1 1.5-1.5 1.5 1.5 0 0 1 1.5 1.5 1.5 1.5 0 0 1-1.5 1.5 1.5 1.5 0 0 1-1.5-1.5m0 12.25v-.02a1.5 1.5 0 0 1 1.5-1.5 1.5 1.5 0 0 1 1.5 1.5 1.5 1.5 0 0 1-1.5 1.5 1.5 1.5 0 0 1-1.5-1.5m0 12.24a1.5 1.5 0 0 1 1.5-1.5 1.5 1.5 0 0 1 1.5 1.5 1.5 1.5 0 0 1-1.5 1.5 1.5 1.5 0 0 1-1.5-1.5v-.03m0 12.25v-.02a1.5 1.5 0 0 1 1.5-1.5 1.5 1.5 0 0 1 1.5 1.5 1.5 1.5 0 0 1-1.5 1.5 1.5 1.5 0 0 1-1.5-1.5v-.02m0 12.25a1.5 1.5 0 0 1 1.5-1.5 1.5 1.5 0 0 1 1.5 1.5 1.5 1.5 0 0 1-1.5 1.5 1.5 1.5 0 0 1-1.5-1.5m0 12.24v-.02a1.5 1.5 0 0 1 1.5-1.5 1.5 1.5 0 0 1 1.5 1.5 1.5 1.5 0 0 1-1.5 1.5 1.5 1.5 0 0 1-1.5-1.5m0 12.24v-.02a1.5 1.5 0 0 1 1.5-1.5 1.5 1.5 0 0 1 1.5 1.5 1.5 1.5 0 0 1-1.5 1.5 1.5 1.5 0 0 1-1.5-1.5m0 12.24a1.5 1.5 0 0 1 1.5-1.5 1.5 1.5 0 0 1 1.5 1.5 1.5 1.5 0 0 1-1.5 1.5 1.5 1.5 0 0 1-1.5-1.5v-.03m0 12.25a1.5 1.5 0 0 1 1.5-1.5 1.5 1.5 0 0 1 1.5 1.5 1.5 1.5 0 0 1-1.5 1.5 1.5 1.5 0 0 1-1.5-1.5v-.03m0 12.26v-.02a1.5 1.5 0 0 1 1.5-1.5 1.5 1.5 0 0 1 1.5 1.5 1.5 1.5 0 0 1-1.5 1.5 1.5 1.5 0 0 1-1.5-1.5m0 12.25v-.02a1.5 1.5 0 0 1 1.5-1.5 1.5 1.5 0 0 1 1.5 1.5 1.5 1.5 0 0 1-1.5 1.5 1.5 1.5 0 0 1-1.5-1.5m0 12.24a1.5 1.5 0 0 1 1.5-1.5 1.5 1.5 0 0 1 1.5 1.5 1.5 1.5 0 0 1-1.5 1.5 1.5 1.5 0 0 1-1.5-1.5v-.03m0 12.25v-.02a1.5 1.5 0 0 1 1.5-1.5 1.5 1.5 0 0 1 1.5 1.5 1.5 1.5 0 0 1-1.5 1.5 1.5 1.5 0 0 1-1.5-1.5v-.02m0 12.25a1.5 1.5 0 0 1 1.5-1.5 1.5 1.5 0 0 1 1.5 1.5 1.5 1.5 0 0 1-1.5 1.5 1.5 1.5 0 0 1-1.5-1.5m-2.73 10v-.03a1.5 1.5 0 0 1 1.5-1.5 1.5 1.5 0 0 1 1.5 1.5 1.5 1.5 0 0 1-1.5 1.5 1.5 1.5 0 0 1-1.5-1.5m-7.3 7.32v-.03a1.5 1.5 0 0 1 1.5-1.5 1.5 1.5 0 0 1 1.5 1.5 1.5 1.5 0 0 1-1.5 1.5 1.5 1.5 0 0 1-1.5-1.5M998.5 860V860a1.5 1.5 0 0 1 1.5-1.5 1.5 1.5 0 0 1 1.5 1.5 1.5 1.5 0 0 1-1.5 1.5 1.5 1.5 0 0 1-1.5-1.5m-12.5 0a1.5 1.5 0 0 1 1.5-1.5 1.5 1.5 0 0 1 1.5 1.5 1.5 1.5 0 0 1-1.5 1.5 1.5 1.5 0 0 1-1.5-1.5m-12.5 0a1.5 1.5 0 0 1 1.5-1.5 1.5 1.5 0 0 1 1.5 1.5 1.5 1.5 0 0 1-1.5 1.5 1.5 1.5 0 0 1-1.5-1.5m-12.5 0a1.5 1.5 0 0 1 1.5-1.5 1.5 1.5 0 0 1 1.5 1.5 1.5 1.5 0 0 1-1.5 1.5 1.5 1.5 0 0 1-1.5-1.5m-12.5 0a1.5 1.5 0 0 1 1.5-1.5 1.5 1.5 0 0 1 1.5 1.5 1.5 1.5 0 0 1-1.5 1.5 1.5 1.5 0 0 1-1.5-1.5m-12.5 0a1.5 1.5 0 0 1 1.5-1.5 1.5 1.5 0 0 1 1.5 1.5 1.5 1.5 0 0 1-1.5 1.5 1.5 1.5 0 0 1-1.5-1.5m-12.5 0a1.5 1.5 0 0 1 1.5-1.5 1.5 1.5 0 0 1 1.5 1.5 1.5 1.5 0 0 1-1.5 1.5 1.5 1.5 0 0 1-1.5-1.5m-12.5 0a1.5 1.5 0 0 1 1.5-1.5 1.5 1.5 0 0 1 1.5 1.5 1.5 1.5 0 0 1-1.5 1.5 1.5 1.5 0 0 1-1.5-1.5m-12.5 0a1.5 1.5 0 0 1 1.5-1.5 1.5 1.5 0 0 1 1.5 1.5 1.5 1.5 0 0 1-1.5 1.5 1.5 1.5 0 0 1-1.5-1.5m-9.97-2.7v-.03a1.5 1.5 0 0 1 1.5-1.5 1.5 1.5 0 0 1 1.5 1.5 1.5 1.5 0 0 1-1.5 1.5 1.5 1.5 0 0 1-1.5-1.5m-7.3-7.28v-.03a1.5 1.5 0 0 1 1.5-1.5 1.5 1.5 0 0 1 1.5 1.5 1.5 1.5 0 0 1-1.5 1.5 1.5 1.5 0 0 1-1.5-1.5M878.5 840a1.5 1.5 0 0 1 1.5-1.5 1.5 1.5 0 0 1 1.5 1.5 1.5 1.5 0 0 1-1.5 1.5 1.5 1.5 0 0 1-1.5-1.5m0-12.2v-.02a1.5 1.5 0 0 1 1.5-1.5 1.5 1.5 0 0 1 1.5 1.5 1.5 1.5 0 0 1-1.5 1.5 1.5 1.5 0 0 1-1.5-1.5v-.02m0-12.2a1.5 1.5 0 0 1 1.5-1.5 1.5 1.5 0 0 1 1.5 1.5 1.5 1.5 0 0 1-1.5 1.5 1.5 1.5 0 0 1-1.5-1.5v-.02m0-12.2a1.5 1.5 0 0 1 1.5-1.5 1.5 1.5 0 0 1 1.5 1.5 1.5 1.5 0 0 1-1.5 1.5 1.5 1.5 0 0 1-1.5-1.5v-.02m0-12.2a1.5 1.5 0 0 1 1.5-1.5 1.5 1.5 0 0 1 1.5 1.5 1.5 1.5 0 0 1-1.5 1.5 1.5 1.5 0 0 1-1.5-1.5v-.02m0-12.2a1.5 1.5 0 0 1 1.5-1.5 1.5 1.5 0 0 1 1.5 1.5 1.5 1.5 0 0 1-1.5 1.5 1.5 1.5 0 0 1-1.5-1.5v-.03m0-12.2a1.5 1.5 0 0 1 1.5-1.5 1.5 1.5 0 0 1 1.5 1.5 1.5 1.5 0 0 1-1.5 1.5 1.5 1.5 0 0 1-1.5-1.5v-.02m0-12.2a1.5 1.5 0 0 1 1.5-1.5 1.5 1.5 0 0 1 1.5 1.5 1.5 1.5 0 0 1-1.5 1.5 1.5 1.5 0 0 1-1.5-1.5v-.02m0-12.2a1.5 1.5 0 0 1 1.5-1.5 1.5 1.5 0 0 1 1.5 1.5 1.5 1.5 0 0 1-1.5 1.5 1.5 1.5 0 0 1-1.5-1.5v-.02m0-12.2a1.5 1.5 0 0 1 1.5-1.5 1.5 1.5 0 0 1 1.5 1.5 1.5 1.5 0 0 1-1.5 1.5 1.5 1.5 0 0 1-1.5-1.5m0-12.2v-.02a1.5 1.5 0 0 1 1.5-1.5 1.5 1.5 0 0 1 1.5 1.5 1.5 1.5 0 0 1-1.5 1.5 1.5 1.5 0 0 1-1.5-1.5v-.02m0-12.2a1.5 1.5 0 0 1 1.5-1.5 1.5 1.5 0 0 1 1.5 1.5 1.5 1.5 0 0 1-1.5 1.5 1.5 1.5 0 0 1-1.5-1.5v-.02m0-12.2a1.5 1.5 0 0 1 1.5-1.5 1.5 1.5 0 0 1 1.5 1.5 1.5 1.5 0 0 1-1.5 1.5 1.5 1.5 0 0 1-1.5-1.5v-.02m0-12.2a1.5 1.5 0 0 1 1.5-1.5 1.5 1.5 0 0 1 1.5 1.5 1.5 1.5 0 0 1-1.5 1.5 1.5 1.5 0 0 1-1.5-1.5v-.02m0-12.2a1.5 1.5 0 0 1 1.5-1.5 1.5 1.5 0 0 1 1.5 1.5 1.5 1.5 0 0 1-1.5 1.5 1.5 1.5 0 0 1-1.5-1.5v-.03m0-12.2a1.5 1.5 0 0 1 1.5-1.5 1.5 1.5 0 0 1 1.5 1.5 1.5 1.5 0 0 1-1.5 1.5 1.5 1.5 0 0 1-1.5-1.5v-.02m0-12.2a1.5 1.5 0 0 1 1.5-1.5 1.5 1.5 0 0 1 1.5 1.5 1.5 1.5 0 0 1-1.5 1.5 1.5 1.5 0 0 1-1.5-1.5v-.02m0-12.2a1.5 1.5 0 0 1 1.5-1.5 1.5 1.5 0 0 1 1.5 1.5 1.5 1.5 0 0 1-1.5 1.5 1.5 1.5 0 0 1-1.5-1.5v-.02"/><path d="M900 820a20 20 0 0 1 20-20h60a20 20 0 0 1 20 20 20 20 0 0 1-20 20h-60a20 20 0 0 1-20-20z" stroke="#000" stroke-width="3" fill="#ced4db"/><use xlink:href="#a" transform="matrix(1,0,0,1,905,805) translate(19.236481481481476 21.430555555555557)"/><path d="M950 640v-17.5" stroke="#000" stroke-width="2" fill="none"/><path d="M950 655.26L945.37 641h9.26z" stroke="#000" stroke-width="2"/><path d="M950.98 622.53H949v-1.03H951z" stroke="#000" stroke-width=".05"/><path d="M900 680a20 20 0 0 1 20-20h60a20 20 0 0 1 20 20v60a20 20 0 0 1-20 20h-60a20 20 0 0 1-20-20z" stroke="#000" stroke-width="3" fill="url(#j)"/><use xlink:href="#c" transform="matrix(1,0,0,1,905,665) translate(3.0030864197530747 50.49305555555556)"/><path d="M900 600a20 20 0 0 1 20-20h60a20 20 0 0 1 20 20 20 20 0 0 1-20 20h-60a20 20 0 0 1-20-20z" stroke="#000" stroke-width="3" fill="#c3f7c8"/><use xlink:href="#d" transform="matrix(1,0,0,1,905,585) translate(23.276604938271603 21.430555555555557)"/><path d="M950 780v-17.5" stroke="#000" stroke-width="2" fill="none"/><path d="M950 795.26L945.37 781h9.26z" stroke="#000" stroke-width="2"/><path d="M950.98 762.53H949v-1.03H951z" stroke="#000" stroke-width=".05"/><path d="M1058.5 600H1020" stroke="#000" stroke-width="2" fill="none"/><path d="M1073.76 600l-14.27 4.63v-9.26zM1004.74 600l14.27-4.63v9.26z" stroke="#000" stroke-width="2"/><path d="M1078.68 792.27a1 1 0 0 1 1-1 1 1 0 0 1 1 1 1 1 0 0 1-1 1 1 1 0 0 1-1-1v-.02m-3.4-2.08a1 1 0 0 1 1-1 1 1 0 0 1 1 1 1 1 0 0 1-1 1 1 1 0 0 1-1-1v-.02m-3.43-2.08a1 1 0 0 1 1-1 1 1 0 0 1 1 1 1 1 0 0 1-1 1 1 1 0 0 1-1-1v-.02m-3.4-2.1a1 1 0 0 1 1-1 1 1 0 0 1 1 1 1 1 0 0 1-1 1 1 1 0 0 1-1-1m-3.42-2.1a1 1 0 0 1 1-1 1 1 0 0 1 1 1 1 1 0 0 1-1 1 1 1 0 0 1-1-1m-3.42-2.1a1 1 0 0 1 1-1 1 1 0 0 1 1 1 1 1 0 0 1-1 1 1 1 0 0 1-1-1m-3.4-2.1a1 1 0 0 1 1-1 1 1 0 0 1 1 1 1 1 0 0 1-1 1 1 1 0 0 1-1-1v-.02m-3.4-2.08a1 1 0 0 1 1-1 1 1 0 0 1 1 1 1 1 0 0 1-1 1 1 1 0 0 1-1-1v-.02m-3.43-2.08a1 1 0 0 1 1-1 1 1 0 0 1 1 1 1 1 0 0 1-1 1 1 1 0 0 1-1-1v-.02m-3.4-2.1a1 1 0 0 1 1-1 1 1 0 0 1 1 1 1 1 0 0 1-1 1 1 1 0 0 1-1-1m-3.42-2.1a1 1 0 0 1 1-1 1 1 0 0 1 1 1 1 1 0 0 1-1 1 1 1 0 0 1-1-1m-3.4-2.1h-.02a1 1 0 0 1 1-1 1 1 0 0 1 1 1 1 1 0 0 1-1 1 1 1 0 0 1-1-1m-3.4-2.1a1 1 0 0 1 1-1 1 1 0 0 1 1 1 1 1 0 0 1-1 1 1 1 0 0 1-1-1V767m-3.42-2.07a1 1 0 0 1 1-1 1 1 0 0 1 1 1 1 1 0 0 1-1 1 1 1 0 0 1-1-1v-.02m-3.4-2.07a1 1 0 0 1 1-1 1 1 0 0 1 1 1 1 1 0 0 1-1 1 1 1 0 0 1-1-1v-.02m-3.42-2.08a1 1 0 0 1 1-1 1 1 0 0 1 1 1 1 1 0 0 1-1 1 1 1 0 0 1-1-1v-.02m-3.4-2.08a1 1 0 0 1 1-1 1 1 0 0 1 1 1 1 1 0 0 1-1 1 1 1 0 0 1-1-1v-.02m-3.42-2.08a1 1 0 0 1 1-1 1 1 0 0 1 1 1 1 1 0 0 1-1 1 1 1 0 0 1-1-1v-.02m-3.42-2.1a1 1 0 0 1 1-1 1 1 0 0 1 1 1 1 1 0 0 1-1 1 1 1 0 0 1-1-1m-3.4-2.1a1 1 0 0 1 1-1 1 1 0 0 1 1 1 1 1 0 0 1-1 1 1 1 0 0 1-1-1m-3.42-2.1a1 1 0 0 1 1-1 1 1 0 0 1 1 1 1 1 0 0 1-1 1 1 1 0 0 1-1-1m-3.42-2.1a1 1 0 0 1 1-1 1 1 0 0 1 1 1 1 1 0 0 1-1 1 1 1 0 0 1-1-1v-.02m-3.4-2.08a1 1 0 0 1 1-1 1 1 0 0 1 1 1 1 1 0 0 1-1 1 1 1 0 0 1-1-1v-.02m-3.42-2.08a1 1 0 0 1 1-1 1 1 0 0 1 1 1 1 1 0 0 1-1 1 1 1 0 0 1-1-1v-.02M1080.78 788.87a1 1 0 0 1 1-1 1 1 0 0 1 1 1 1 1 0 0 1-1 1 1 1 0 0 1-1-1v-.02m-3.4-2.08h-.02a1 1 0 0 1 1-1 1 1 0 0 1 1 1 1 1 0 0 1-1 1 1 1 0 0 1-1-1v-.02m-3.4-2.1a1 1 0 0 1 1-1 1 1 0 0 1 1 1 1 1 0 0 1-1 1 1 1 0 0 1-1-1m-3.42-2.1a1 1 0 0 1 1-1 1 1 0 0 1 1 1 1 1 0 0 1-1 1 1 1 0 0 1-1-1m-3.4-2.1a1 1 0 0 1 1-1 1 1 0 0 1 1 1 1 1 0 0 1-1 1 1 1 0 0 1-1-1v-.02m-3.43-2.08a1 1 0 0 1 1-1 1 1 0 0 1 1 1 1 1 0 0 1-1 1 1 1 0 0 1-1-1v-.02m-3.4-2.08a1 1 0 0 1 1-1 1 1 0 0 1 1 1 1 1 0 0 1-1 1 1 1 0 0 1-1-1v-.02m-3.4-2.1a1 1 0 0 1 1-1 1 1 0 0 1 1 1 1 1 0 0 1-1 1 1 1 0 0 1-1-1m-3.43-2.1a1 1 0 0 1 1-1 1 1 0 0 1 1 1 1 1 0 0 1-1 1 1 1 0 0 1-1-1m-3.4-2.1a1 1 0 0 1 1-1 1 1 0 0 1 1 1 1 1 0 0 1-1 1 1 1 0 0 1-1-1m-3.42-2.1a1 1 0 0 1 1-1 1 1 0 0 1 1 1 1 1 0 0 1-1 1 1 1 0 0 1-1-1m-3.42-2.1a1 1 0 0 1 1-1 1 1 0 0 1 1 1 1 1 0 0 1-1 1 1 1 0 0 1-1-1v-.02m-3.4-2.07a1 1 0 0 1 1-1 1 1 0 0 1 1 1 1 1 0 0 1-1 1 1 1 0 0 1-1-1v-.02m-3.42-2.08a1 1 0 0 1 1-1 1 1 0 0 1 1 1 1 1 0 0 1-1 1 1 1 0 0 1-1-1m-3.4-2.1a1 1 0 0 1 1-1 1 1 0 0 1 1 1 1 1 0 0 1-1 1 1 1 0 0 1-1-1v-.02m-3.42-2.08a1 1 0 0 1 1-1 1 1 0 0 1 1 1 1 1 0 0 1-1 1 1 1 0 0 1-1-1v-.02m-3.4-2.08a1 1 0 0 1 1-1 1 1 0 0 1 1 1 1 1 0 0 1-1 1 1 1 0 0 1-1-1v-.02m-3.43-2.1a1 1 0 0 1 1-1 1 1 0 0 1 1 1 1 1 0 0 1-1 1 1 1 0 0 1-1-1m-3.4-2.1a1 1 0 0 1 1-1 1 1 0 0 1 1 1 1 1 0 0 1-1 1 1 1 0 0 1-1-1m-3.42-2.1a1 1 0 0 1 1-1 1 1 0 0 1 1 1 1 1 0 0 1-1 1 1 1 0 0 1-1-1m-3.42-2.1a1 1 0 0 1 1-1 1 1 0 0 1 1 1 1 1 0 0 1-1 1 1 1 0 0 1-1-1v-.02m-3.4-2.08a1 1 0 0 1 1-1 1 1 0 0 1 1 1 1 1 0 0 1-1 1 1 1 0 0 1-1-1v-.02m-3.4-2.1a1 1 0 0 1 1-1 1 1 0 0 1 1 1 1 1 0 0 1-1 1 1 1 0 0 1-1-1" fill="#ba23f6"/><path d="M1092.64 797.9l-15-.43 7.88-12.77z" stroke="#ba23f6" stroke-width="2" fill="#fff"/><path d="M1001.7 743.07l-.64 1.06.18-.77.04-.55zM1003.8 739.66l-1 1.67-1.34-.82.04-.44v-1.82z" stroke="#ba23f6" stroke-width=".05" fill="#ba23f6"/><path d="M880 886a6 6 0 0 1 6-6h308a6 6 0 0 1 6 6v88a6 6 0 0 1-6 6H886a6 6 0 0 1-6-6z" stroke="#000" stroke-opacity="0" stroke-width="3" fill="#fff" fill-opacity="0"/><use xlink:href="#k" transform="matrix(1,0,0,1,885,885) translate(23.938271604938336 31.288194444444436)"/><use xlink:href="#l" transform="matrix(1,0,0,1,885,885) translate(130.40740740740745 31.288194444444436)"/><use xlink:href="#m" transform="matrix(1,0,0,1,885,885) translate(223.04938271604937 31.288194444444436)"/><use xlink:href="#n" transform="matrix(1,0,0,1,885,885) translate(266.3086419753086 31.288194444444436)"/><use xlink:href="#o" transform="matrix(1,0,0,1,885,885) translate(76.13580246913583 73.95486111111109)"/><path d="M1460 620a20 20 0 0 1 20-20h100a20 20 0 0 1 20 20v220a20 20 0 0 1-20 20h-100a20 20 0 0 1-20-20z" fill-opacity="0"/><path d="M1458.5 620a1.5 1.5 0 0 1 1.5-1.5 1.5 1.5 0 0 1 1.5 1.5 1.5 1.5 0 0 1-1.5 1.5 1.5 1.5 0 0 1-1.5-1.5m2.73-9.96a1.5 1.5 0 0 1 1.5-1.5 1.5 1.5 0 0 1 1.5 1.5 1.5 1.5 0 0 1-1.5 1.5 1.5 1.5 0 0 1-1.5-1.5V610m7.3-7.26a1.5 1.5 0 0 1 1.5-1.5 1.5 1.5 0 0 1 1.5 1.5 1.5 1.5 0 0 1-1.5 1.5 1.5 1.5 0 0 1-1.5-1.5v-.03m9.97-2.7a1.5 1.5 0 0 1 1.5-1.5 1.5 1.5 0 0 1 1.5 1.5 1.5 1.5 0 0 1-1.5 1.5 1.5 1.5 0 0 1-1.5-1.5m12.5 0a1.5 1.5 0 0 1 1.5-1.5 1.5 1.5 0 0 1 1.5 1.5 1.5 1.5 0 0 1-1.5 1.5 1.5 1.5 0 0 1-1.5-1.5m12.5 0a1.5 1.5 0 0 1 1.5-1.5 1.5 1.5 0 0 1 1.5 1.5 1.5 1.5 0 0 1-1.5 1.5 1.5 1.5 0 0 1-1.5-1.5m12.5 0a1.5 1.5 0 0 1 1.5-1.5 1.5 1.5 0 0 1 1.5 1.5 1.5 1.5 0 0 1-1.5 1.5 1.5 1.5 0 0 1-1.5-1.5m12.5 0a1.5 1.5 0 0 1 1.5-1.5 1.5 1.5 0 0 1 1.5 1.5 1.5 1.5 0 0 1-1.5 1.5 1.5 1.5 0 0 1-1.5-1.5m12.5 0a1.5 1.5 0 0 1 1.5-1.5 1.5 1.5 0 0 1 1.5 1.5 1.5 1.5 0 0 1-1.5 1.5 1.5 1.5 0 0 1-1.5-1.5m12.5 0a1.5 1.5 0 0 1 1.5-1.5 1.5 1.5 0 0 1 1.5 1.5 1.5 1.5 0 0 1-1.5 1.5 1.5 1.5 0 0 1-1.5-1.5m12.5 0a1.5 1.5 0 0 1 1.5-1.5 1.5 1.5 0 0 1 1.5 1.5 1.5 1.5 0 0 1-1.5 1.5 1.5 1.5 0 0 1-1.5-1.5m12.5 0a1.5 1.5 0 0 1 1.5-1.5 1.5 1.5 0 0 1 1.5 1.5 1.5 1.5 0 0 1-1.5 1.5 1.5 1.5 0 0 1-1.5-1.5m9.97 2.74a1.5 1.5 0 0 1 1.5-1.5 1.5 1.5 0 0 1 1.5 1.5 1.5 1.5 0 0 1-1.5 1.5 1.5 1.5 0 0 1-1.5-1.5v-.03m7.3 7.34a1.5 1.5 0 0 1 1.5-1.5 1.5 1.5 0 0 1 1.5 1.5 1.5 1.5 0 0 1-1.5 1.5 1.5 1.5 0 0 1-1.5-1.5V610m2.73 10a1.5 1.5 0 0 1 1.5-1.5 1.5 1.5 0 0 1 1.5 1.5 1.5 1.5 0 0 1-1.5 1.5 1.5 1.5 0 0 1-1.5-1.5m0 12.24v-.02a1.5 1.5 0 0 1 1.5-1.5 1.5 1.5 0 0 1 1.5 1.5 1.5 1.5 0 0 1-1.5 1.5 1.5 1.5 0 0 1-1.5-1.5m0 12.24v-.02a1.5 1.5 0 0 1 1.5-1.5 1.5 1.5 0 0 1 1.5 1.5 1.5 1.5 0 0 1-1.5 1.5 1.5 1.5 0 0 1-1.5-1.5m0 12.24a1.5 1.5 0 0 1 1.5-1.5 1.5 1.5 0 0 1 1.5 1.5 1.5 1.5 0 0 1-1.5 1.5 1.5 1.5 0 0 1-1.5-1.5v-.03m0 12.25a1.5 1.5 0 0 1 1.5-1.5 1.5 1.5 0 0 1 1.5 1.5 1.5 1.5 0 0 1-1.5 1.5 1.5 1.5 0 0 1-1.5-1.5v-.03m0 12.26v-.02a1.5 1.5 0 0 1 1.5-1.5 1.5 1.5 0 0 1 1.5 1.5 1.5 1.5 0 0 1-1.5 1.5 1.5 1.5 0 0 1-1.5-1.5m0 12.25v-.02a1.5 1.5 0 0 1 1.5-1.5 1.5 1.5 0 0 1 1.5 1.5 1.5 1.5 0 0 1-1.5 1.5 1.5 1.5 0 0 1-1.5-1.5m0 12.24a1.5 1.5 0 0 1 1.5-1.5 1.5 1.5 0 0 1 1.5 1.5 1.5 1.5 0 0 1-1.5 1.5 1.5 1.5 0 0 1-1.5-1.5v-.03m0 12.25v-.02a1.5 1.5 0 0 1 1.5-1.5 1.5 1.5 0 0 1 1.5 1.5 1.5 1.5 0 0 1-1.5 1.5 1.5 1.5 0 0 1-1.5-1.5v-.02m0 12.25a1.5 1.5 0 0 1 1.5-1.5 1.5 1.5 0 0 1 1.5 1.5 1.5 1.5 0 0 1-1.5 1.5 1.5 1.5 0 0 1-1.5-1.5m0 12.24v-.02a1.5 1.5 0 0 1 1.5-1.5 1.5 1.5 0 0 1 1.5 1.5 1.5 1.5 0 0 1-1.5 1.5 1.5 1.5 0 0 1-1.5-1.5m0 12.24v-.02a1.5 1.5 0 0 1 1.5-1.5 1.5 1.5 0 0 1 1.5 1.5 1.5 1.5 0 0 1-1.5 1.5 1.5 1.5 0 0 1-1.5-1.5m0 12.24a1.5 1.5 0 0 1 1.5-1.5 1.5 1.5 0 0 1 1.5 1.5 1.5 1.5 0 0 1-1.5 1.5 1.5 1.5 0 0 1-1.5-1.5v-.03m0 12.25a1.5 1.5 0 0 1 1.5-1.5 1.5 1.5 0 0 1 1.5 1.5 1.5 1.5 0 0 1-1.5 1.5 1.5 1.5 0 0 1-1.5-1.5v-.03m0 12.26v-.02a1.5 1.5 0 0 1 1.5-1.5 1.5 1.5 0 0 1 1.5 1.5 1.5 1.5 0 0 1-1.5 1.5 1.5 1.5 0 0 1-1.5-1.5m0 12.25v-.02a1.5 1.5 0 0 1 1.5-1.5 1.5 1.5 0 0 1 1.5 1.5 1.5 1.5 0 0 1-1.5 1.5 1.5 1.5 0 0 1-1.5-1.5m0 12.24a1.5 1.5 0 0 1 1.5-1.5 1.5 1.5 0 0 1 1.5 1.5 1.5 1.5 0 0 1-1.5 1.5 1.5 1.5 0 0 1-1.5-1.5v-.03m0 12.25v-.02a1.5 1.5 0 0 1 1.5-1.5 1.5 1.5 0 0 1 1.5 1.5 1.5 1.5 0 0 1-1.5 1.5 1.5 1.5 0 0 1-1.5-1.5v-.02m0 12.25a1.5 1.5 0 0 1 1.5-1.5 1.5 1.5 0 0 1 1.5 1.5 1.5 1.5 0 0 1-1.5 1.5 1.5 1.5 0 0 1-1.5-1.5m-2.73 10v-.03a1.5 1.5 0 0 1 1.5-1.5 1.5 1.5 0 0 1 1.5 1.5 1.5 1.5 0 0 1-1.5 1.5 1.5 1.5 0 0 1-1.5-1.5m-7.3 7.32v-.03a1.5 1.5 0 0 1 1.5-1.5 1.5 1.5 0 0 1 1.5 1.5 1.5 1.5 0 0 1-1.5 1.5 1.5 1.5 0 0 1-1.5-1.5m-9.97 2.75V860a1.5 1.5 0 0 1 1.5-1.5 1.5 1.5 0 0 1 1.5 1.5 1.5 1.5 0 0 1-1.5 1.5 1.5 1.5 0 0 1-1.5-1.5m-12.5 0a1.5 1.5 0 0 1 1.5-1.5 1.5 1.5 0 0 1 1.5 1.5 1.5 1.5 0 0 1-1.5 1.5 1.5 1.5 0 0 1-1.5-1.5m-12.5 0a1.5 1.5 0 0 1 1.5-1.5 1.5 1.5 0 0 1 1.5 1.5 1.5 1.5 0 0 1-1.5 1.5 1.5 1.5 0 0 1-1.5-1.5m-12.5 0a1.5 1.5 0 0 1 1.5-1.5 1.5 1.5 0 0 1 1.5 1.5 1.5 1.5 0 0 1-1.5 1.5 1.5 1.5 0 0 1-1.5-1.5m-12.5 0a1.5 1.5 0 0 1 1.5-1.5 1.5 1.5 0 0 1 1.5 1.5 1.5 1.5 0 0 1-1.5 1.5 1.5 1.5 0 0 1-1.5-1.5m-12.5 0a1.5 1.5 0 0 1 1.5-1.5 1.5 1.5 0 0 1 1.5 1.5 1.5 1.5 0 0 1-1.5 1.5 1.5 1.5 0 0 1-1.5-1.5m-12.5 0a1.5 1.5 0 0 1 1.5-1.5 1.5 1.5 0 0 1 1.5 1.5 1.5 1.5 0 0 1-1.5 1.5 1.5 1.5 0 0 1-1.5-1.5m-12.5 0a1.5 1.5 0 0 1 1.5-1.5 1.5 1.5 0 0 1 1.5 1.5 1.5 1.5 0 0 1-1.5 1.5 1.5 1.5 0 0 1-1.5-1.5m-12.5 0a1.5 1.5 0 0 1 1.5-1.5 1.5 1.5 0 0 1 1.5 1.5 1.5 1.5 0 0 1-1.5 1.5 1.5 1.5 0 0 1-1.5-1.5m-9.97-2.7v-.03a1.5 1.5 0 0 1 1.5-1.5 1.5 1.5 0 0 1 1.5 1.5 1.5 1.5 0 0 1-1.5 1.5 1.5 1.5 0 0 1-1.5-1.5m-7.3-7.28v-.03a1.5 1.5 0 0 1 1.5-1.5 1.5 1.5 0 0 1 1.5 1.5 1.5 1.5 0 0 1-1.5 1.5 1.5 1.5 0 0 1-1.5-1.5m-2.73-9.96a1.5 1.5 0 0 1 1.5-1.5 1.5 1.5 0 0 1 1.5 1.5 1.5 1.5 0 0 1-1.5 1.5 1.5 1.5 0 0 1-1.5-1.5m0-12.2v-.02a1.5 1.5 0 0 1 1.5-1.5 1.5 1.5 0 0 1 1.5 1.5 1.5 1.5 0 0 1-1.5 1.5 1.5 1.5 0 0 1-1.5-1.5v-.02m0-12.2a1.5 1.5 0 0 1 1.5-1.5 1.5 1.5 0 0 1 1.5 1.5 1.5 1.5 0 0 1-1.5 1.5 1.5 1.5 0 0 1-1.5-1.5v-.02m0-12.2a1.5 1.5 0 0 1 1.5-1.5 1.5 1.5 0 0 1 1.5 1.5 1.5 1.5 0 0 1-1.5 1.5 1.5 1.5 0 0 1-1.5-1.5v-.02m0-12.2a1.5 1.5 0 0 1 1.5-1.5 1.5 1.5 0 0 1 1.5 1.5 1.5 1.5 0 0 1-1.5 1.5 1.5 1.5 0 0 1-1.5-1.5v-.02m0-12.2a1.5 1.5 0 0 1 1.5-1.5 1.5 1.5 0 0 1 1.5 1.5 1.5 1.5 0 0 1-1.5 1.5 1.5 1.5 0 0 1-1.5-1.5v-.03m0-12.2a1.5 1.5 0 0 1 1.5-1.5 1.5 1.5 0 0 1 1.5 1.5 1.5 1.5 0 0 1-1.5 1.5 1.5 1.5 0 0 1-1.5-1.5v-.02m0-12.2a1.5 1.5 0 0 1 1.5-1.5 1.5 1.5 0 0 1 1.5 1.5 1.5 1.5 0 0 1-1.5 1.5 1.5 1.5 0 0 1-1.5-1.5v-.02m0-12.2a1.5 1.5 0 0 1 1.5-1.5 1.5 1.5 0 0 1 1.5 1.5 1.5 1.5 0 0 1-1.5 1.5 1.5 1.5 0 0 1-1.5-1.5v-.02m0-12.2a1.5 1.5 0 0 1 1.5-1.5 1.5 1.5 0 0 1 1.5 1.5 1.5 1.5 0 0 1-1.5 1.5 1.5 1.5 0 0 1-1.5-1.5m0-12.2v-.02a1.5 1.5 0 0 1 1.5-1.5 1.5 1.5 0 0 1 1.5 1.5 1.5 1.5 0 0 1-1.5 1.5 1.5 1.5 0 0 1-1.5-1.5v-.02m0-12.2a1.5 1.5 0 0 1 1.5-1.5 1.5 1.5 0 0 1 1.5 1.5 1.5 1.5 0 0 1-1.5 1.5 1.5 1.5 0 0 1-1.5-1.5v-.02m0-12.2a1.5 1.5 0 0 1 1.5-1.5 1.5 1.5 0 0 1 1.5 1.5 1.5 1.5 0 0 1-1.5 1.5 1.5 1.5 0 0 1-1.5-1.5v-.02m0-12.2a1.5 1.5 0 0 1 1.5-1.5 1.5 1.5 0 0 1 1.5 1.5 1.5 1.5 0 0 1-1.5 1.5 1.5 1.5 0 0 1-1.5-1.5v-.02m0-12.2a1.5 1.5 0 0 1 1.5-1.5 1.5 1.5 0 0 1 1.5 1.5 1.5 1.5 0 0 1-1.5 1.5 1.5 1.5 0 0 1-1.5-1.5v-.03m0-12.2a1.5 1.5 0 0 1 1.5-1.5 1.5 1.5 0 0 1 1.5 1.5 1.5 1.5 0 0 1-1.5 1.5 1.5 1.5 0 0 1-1.5-1.5v-.02m0-12.2a1.5 1.5 0 0 1 1.5-1.5 1.5 1.5 0 0 1 1.5 1.5 1.5 1.5 0 0 1-1.5 1.5 1.5 1.5 0 0 1-1.5-1.5v-.02m0-12.2a1.5 1.5 0 0 1 1.5-1.5 1.5 1.5 0 0 1 1.5 1.5 1.5 1.5 0 0 1-1.5 1.5 1.5 1.5 0 0 1-1.5-1.5v-.02"/><path d="M1480 820a20 20 0 0 1 20-20h60a20 20 0 0 1 20 20 20 20 0 0 1-20 20h-60a20 20 0 0 1-20-20z" stroke="#000" stroke-width="3" fill="#ced4db"/><use xlink:href="#a" transform="matrix(1,0,0,1,1485,805) translate(19.236481481481476 21.430555555555557)"/><path d="M1530 640v-17.5" stroke="#000" stroke-width="2" fill="none"/><path d="M1530 655.26l-4.63-14.26h9.27z" stroke="#000" stroke-width="2"/><path d="M1530.97 622.53h-1.94v-1.03h1.94z" stroke="#000" stroke-width=".05"/><path d="M1480 680a20 20 0 0 1 20-20h60a20 20 0 0 1 20 20v60a20 20 0 0 1-20 20h-60a20 20 0 0 1-20-20z" stroke="#000" stroke-width="3" fill="url(#p)"/><use xlink:href="#c" transform="matrix(1,0,0,1,1485,665) translate(3.0030864197530747 50.49305555555556)"/><path d="M1480 600a20 20 0 0 1 20-20h60a20 20 0 0 1 20 20 20 20 0 0 1-20 20h-60a20 20 0 0 1-20-20z" stroke="#000" stroke-width="3" fill="#c3f7c8"/><use xlink:href="#d" transform="matrix(1,0,0,1,1485,585) translate(23.276604938271603 21.430555555555557)"/><path d="M1530 780v-17.5" stroke="#000" stroke-width="2" fill="none"/><path d="M1530 795.26l-4.63-14.26h9.27z" stroke="#000" stroke-width="2"/><path d="M1530.97 762.53h-1.94v-1.03h1.94z" stroke="#000" stroke-width=".05"/><path d="M1280 620a20 20 0 0 1 20-20h100a20 20 0 0 1 20 20v220a20 20 0 0 1-20 20h-100a20 20 0 0 1-20-20z" fill-opacity="0"/><path d="M1278.5 620a1.5 1.5 0 0 1 1.5-1.5 1.5 1.5 0 0 1 1.5 1.5 1.5 1.5 0 0 1-1.5 1.5 1.5 1.5 0 0 1-1.5-1.5m2.73-9.96a1.5 1.5 0 0 1 1.5-1.5 1.5 1.5 0 0 1 1.5 1.5 1.5 1.5 0 0 1-1.5 1.5 1.5 1.5 0 0 1-1.5-1.5V610m7.3-7.26a1.5 1.5 0 0 1 1.5-1.5 1.5 1.5 0 0 1 1.5 1.5 1.5 1.5 0 0 1-1.5 1.5 1.5 1.5 0 0 1-1.5-1.5v-.03m9.97-2.7a1.5 1.5 0 0 1 1.5-1.5 1.5 1.5 0 0 1 1.5 1.5 1.5 1.5 0 0 1-1.5 1.5 1.5 1.5 0 0 1-1.5-1.5m12.5 0a1.5 1.5 0 0 1 1.5-1.5 1.5 1.5 0 0 1 1.5 1.5 1.5 1.5 0 0 1-1.5 1.5 1.5 1.5 0 0 1-1.5-1.5m12.5 0a1.5 1.5 0 0 1 1.5-1.5 1.5 1.5 0 0 1 1.5 1.5 1.5 1.5 0 0 1-1.5 1.5 1.5 1.5 0 0 1-1.5-1.5m12.5 0a1.5 1.5 0 0 1 1.5-1.5 1.5 1.5 0 0 1 1.5 1.5 1.5 1.5 0 0 1-1.5 1.5 1.5 1.5 0 0 1-1.5-1.5m12.5 0a1.5 1.5 0 0 1 1.5-1.5 1.5 1.5 0 0 1 1.5 1.5 1.5 1.5 0 0 1-1.5 1.5 1.5 1.5 0 0 1-1.5-1.5m12.5 0a1.5 1.5 0 0 1 1.5-1.5 1.5 1.5 0 0 1 1.5 1.5 1.5 1.5 0 0 1-1.5 1.5 1.5 1.5 0 0 1-1.5-1.5m12.5 0a1.5 1.5 0 0 1 1.5-1.5 1.5 1.5 0 0 1 1.5 1.5 1.5 1.5 0 0 1-1.5 1.5 1.5 1.5 0 0 1-1.5-1.5m12.5 0a1.5 1.5 0 0 1 1.5-1.5 1.5 1.5 0 0 1 1.5 1.5 1.5 1.5 0 0 1-1.5 1.5 1.5 1.5 0 0 1-1.5-1.5m12.5 0a1.5 1.5 0 0 1 1.5-1.5 1.5 1.5 0 0 1 1.5 1.5 1.5 1.5 0 0 1-1.5 1.5 1.5 1.5 0 0 1-1.5-1.5m9.97 2.74a1.5 1.5 0 0 1 1.5-1.5 1.5 1.5 0 0 1 1.5 1.5 1.5 1.5 0 0 1-1.5 1.5 1.5 1.5 0 0 1-1.5-1.5v-.03m7.3 7.34a1.5 1.5 0 0 1 1.5-1.5 1.5 1.5 0 0 1 1.5 1.5 1.5 1.5 0 0 1-1.5 1.5 1.5 1.5 0 0 1-1.5-1.5V610m2.73 10a1.5 1.5 0 0 1 1.5-1.5 1.5 1.5 0 0 1 1.5 1.5 1.5 1.5 0 0 1-1.5 1.5 1.5 1.5 0 0 1-1.5-1.5m0 12.24v-.02a1.5 1.5 0 0 1 1.5-1.5 1.5 1.5 0 0 1 1.5 1.5 1.5 1.5 0 0 1-1.5 1.5 1.5 1.5 0 0 1-1.5-1.5m0 12.24v-.02a1.5 1.5 0 0 1 1.5-1.5 1.5 1.5 0 0 1 1.5 1.5 1.5 1.5 0 0 1-1.5 1.5 1.5 1.5 0 0 1-1.5-1.5m0 12.24a1.5 1.5 0 0 1 1.5-1.5 1.5 1.5 0 0 1 1.5 1.5 1.5 1.5 0 0 1-1.5 1.5 1.5 1.5 0 0 1-1.5-1.5v-.03m0 12.25a1.5 1.5 0 0 1 1.5-1.5 1.5 1.5 0 0 1 1.5 1.5 1.5 1.5 0 0 1-1.5 1.5 1.5 1.5 0 0 1-1.5-1.5v-.03m0 12.26v-.02a1.5 1.5 0 0 1 1.5-1.5 1.5 1.5 0 0 1 1.5 1.5 1.5 1.5 0 0 1-1.5 1.5 1.5 1.5 0 0 1-1.5-1.5m0 12.25v-.02a1.5 1.5 0 0 1 1.5-1.5 1.5 1.5 0 0 1 1.5 1.5 1.5 1.5 0 0 1-1.5 1.5 1.5 1.5 0 0 1-1.5-1.5m0 12.24a1.5 1.5 0 0 1 1.5-1.5 1.5 1.5 0 0 1 1.5 1.5 1.5 1.5 0 0 1-1.5 1.5 1.5 1.5 0 0 1-1.5-1.5v-.03m0 12.25v-.02a1.5 1.5 0 0 1 1.5-1.5 1.5 1.5 0 0 1 1.5 1.5 1.5 1.5 0 0 1-1.5 1.5 1.5 1.5 0 0 1-1.5-1.5v-.02m0 12.25a1.5 1.5 0 0 1 1.5-1.5 1.5 1.5 0 0 1 1.5 1.5 1.5 1.5 0 0 1-1.5 1.5 1.5 1.5 0 0 1-1.5-1.5m0 12.24v-.02a1.5 1.5 0 0 1 1.5-1.5 1.5 1.5 0 0 1 1.5 1.5 1.5 1.5 0 0 1-1.5 1.5 1.5 1.5 0 0 1-1.5-1.5m0 12.24v-.02a1.5 1.5 0 0 1 1.5-1.5 1.5 1.5 0 0 1 1.5 1.5 1.5 1.5 0 0 1-1.5 1.5 1.5 1.5 0 0 1-1.5-1.5m0 12.24a1.5 1.5 0 0 1 1.5-1.5 1.5 1.5 0 0 1 1.5 1.5 1.5 1.5 0 0 1-1.5 1.5 1.5 1.5 0 0 1-1.5-1.5v-.03m0 12.25a1.5 1.5 0 0 1 1.5-1.5 1.5 1.5 0 0 1 1.5 1.5 1.5 1.5 0 0 1-1.5 1.5 1.5 1.5 0 0 1-1.5-1.5v-.03m0 12.26v-.02a1.5 1.5 0 0 1 1.5-1.5 1.5 1.5 0 0 1 1.5 1.5 1.5 1.5 0 0 1-1.5 1.5 1.5 1.5 0 0 1-1.5-1.5m0 12.25v-.02a1.5 1.5 0 0 1 1.5-1.5 1.5 1.5 0 0 1 1.5 1.5 1.5 1.5 0 0 1-1.5 1.5 1.5 1.5 0 0 1-1.5-1.5m0 12.24a1.5 1.5 0 0 1 1.5-1.5 1.5 1.5 0 0 1 1.5 1.5 1.5 1.5 0 0 1-1.5 1.5 1.5 1.5 0 0 1-1.5-1.5v-.03m0 12.25v-.02a1.5 1.5 0 0 1 1.5-1.5 1.5 1.5 0 0 1 1.5 1.5 1.5 1.5 0 0 1-1.5 1.5 1.5 1.5 0 0 1-1.5-1.5v-.02m0 12.25a1.5 1.5 0 0 1 1.5-1.5 1.5 1.5 0 0 1 1.5 1.5 1.5 1.5 0 0 1-1.5 1.5 1.5 1.5 0 0 1-1.5-1.5m-2.73 10v-.03a1.5 1.5 0 0 1 1.5-1.5 1.5 1.5 0 0 1 1.5 1.5 1.5 1.5 0 0 1-1.5 1.5 1.5 1.5 0 0 1-1.5-1.5m-7.3 7.32v-.03a1.5 1.5 0 0 1 1.5-1.5 1.5 1.5 0 0 1 1.5 1.5 1.5 1.5 0 0 1-1.5 1.5 1.5 1.5 0 0 1-1.5-1.5m-9.97 2.75V860a1.5 1.5 0 0 1 1.5-1.5 1.5 1.5 0 0 1 1.5 1.5 1.5 1.5 0 0 1-1.5 1.5 1.5 1.5 0 0 1-1.5-1.5m-12.5 0a1.5 1.5 0 0 1 1.5-1.5 1.5 1.5 0 0 1 1.5 1.5 1.5 1.5 0 0 1-1.5 1.5 1.5 1.5 0 0 1-1.5-1.5m-12.5 0a1.5 1.5 0 0 1 1.5-1.5 1.5 1.5 0 0 1 1.5 1.5 1.5 1.5 0 0 1-1.5 1.5 1.5 1.5 0 0 1-1.5-1.5m-12.5 0a1.5 1.5 0 0 1 1.5-1.5 1.5 1.5 0 0 1 1.5 1.5 1.5 1.5 0 0 1-1.5 1.5 1.5 1.5 0 0 1-1.5-1.5m-12.5 0a1.5 1.5 0 0 1 1.5-1.5 1.5 1.5 0 0 1 1.5 1.5 1.5 1.5 0 0 1-1.5 1.5 1.5 1.5 0 0 1-1.5-1.5m-12.5 0a1.5 1.5 0 0 1 1.5-1.5 1.5 1.5 0 0 1 1.5 1.5 1.5 1.5 0 0 1-1.5 1.5 1.5 1.5 0 0 1-1.5-1.5m-12.5 0a1.5 1.5 0 0 1 1.5-1.5 1.5 1.5 0 0 1 1.5 1.5 1.5 1.5 0 0 1-1.5 1.5 1.5 1.5 0 0 1-1.5-1.5m-12.5 0a1.5 1.5 0 0 1 1.5-1.5 1.5 1.5 0 0 1 1.5 1.5 1.5 1.5 0 0 1-1.5 1.5 1.5 1.5 0 0 1-1.5-1.5m-12.5 0a1.5 1.5 0 0 1 1.5-1.5 1.5 1.5 0 0 1 1.5 1.5 1.5 1.5 0 0 1-1.5 1.5 1.5 1.5 0 0 1-1.5-1.5m-9.97-2.7v-.03a1.5 1.5 0 0 1 1.5-1.5 1.5 1.5 0 0 1 1.5 1.5 1.5 1.5 0 0 1-1.5 1.5 1.5 1.5 0 0 1-1.5-1.5m-7.3-7.28v-.03a1.5 1.5 0 0 1 1.5-1.5 1.5 1.5 0 0 1 1.5 1.5 1.5 1.5 0 0 1-1.5 1.5 1.5 1.5 0 0 1-1.5-1.5m-2.73-9.96a1.5 1.5 0 0 1 1.5-1.5 1.5 1.5 0 0 1 1.5 1.5 1.5 1.5 0 0 1-1.5 1.5 1.5 1.5 0 0 1-1.5-1.5m0-12.2v-.02a1.5 1.5 0 0 1 1.5-1.5 1.5 1.5 0 0 1 1.5 1.5 1.5 1.5 0 0 1-1.5 1.5 1.5 1.5 0 0 1-1.5-1.5v-.02m0-12.2a1.5 1.5 0 0 1 1.5-1.5 1.5 1.5 0 0 1 1.5 1.5 1.5 1.5 0 0 1-1.5 1.5 1.5 1.5 0 0 1-1.5-1.5v-.02m0-12.2a1.5 1.5 0 0 1 1.5-1.5 1.5 1.5 0 0 1 1.5 1.5 1.5 1.5 0 0 1-1.5 1.5 1.5 1.5 0 0 1-1.5-1.5v-.02m0-12.2a1.5 1.5 0 0 1 1.5-1.5 1.5 1.5 0 0 1 1.5 1.5 1.5 1.5 0 0 1-1.5 1.5 1.5 1.5 0 0 1-1.5-1.5v-.02m0-12.2a1.5 1.5 0 0 1 1.5-1.5 1.5 1.5 0 0 1 1.5 1.5 1.5 1.5 0 0 1-1.5 1.5 1.5 1.5 0 0 1-1.5-1.5v-.03m0-12.2a1.5 1.5 0 0 1 1.5-1.5 1.5 1.5 0 0 1 1.5 1.5 1.5 1.5 0 0 1-1.5 1.5 1.5 1.5 0 0 1-1.5-1.5v-.02m0-12.2a1.5 1.5 0 0 1 1.5-1.5 1.5 1.5 0 0 1 1.5 1.5 1.5 1.5 0 0 1-1.5 1.5 1.5 1.5 0 0 1-1.5-1.5v-.02m0-12.2a1.5 1.5 0 0 1 1.5-1.5 1.5 1.5 0 0 1 1.5 1.5 1.5 1.5 0 0 1-1.5 1.5 1.5 1.5 0 0 1-1.5-1.5v-.02m0-12.2a1.5 1.5 0 0 1 1.5-1.5 1.5 1.5 0 0 1 1.5 1.5 1.5 1.5 0 0 1-1.5 1.5 1.5 1.5 0 0 1-1.5-1.5m0-12.2v-.02a1.5 1.5 0 0 1 1.5-1.5 1.5 1.5 0 0 1 1.5 1.5 1.5 1.5 0 0 1-1.5 1.5 1.5 1.5 0 0 1-1.5-1.5v-.02m0-12.2a1.5 1.5 0 0 1 1.5-1.5 1.5 1.5 0 0 1 1.5 1.5 1.5 1.5 0 0 1-1.5 1.5 1.5 1.5 0 0 1-1.5-1.5v-.02m0-12.2a1.5 1.5 0 0 1 1.5-1.5 1.5 1.5 0 0 1 1.5 1.5 1.5 1.5 0 0 1-1.5 1.5 1.5 1.5 0 0 1-1.5-1.5v-.02m0-12.2a1.5 1.5 0 0 1 1.5-1.5 1.5 1.5 0 0 1 1.5 1.5 1.5 1.5 0 0 1-1.5 1.5 1.5 1.5 0 0 1-1.5-1.5v-.02m0-12.2a1.5 1.5 0 0 1 1.5-1.5 1.5 1.5 0 0 1 1.5 1.5 1.5 1.5 0 0 1-1.5 1.5 1.5 1.5 0 0 1-1.5-1.5v-.03m0-12.2a1.5 1.5 0 0 1 1.5-1.5 1.5 1.5 0 0 1 1.5 1.5 1.5 1.5 0 0 1-1.5 1.5 1.5 1.5 0 0 1-1.5-1.5v-.02m0-12.2a1.5 1.5 0 0 1 1.5-1.5 1.5 1.5 0 0 1 1.5 1.5 1.5 1.5 0 0 1-1.5 1.5 1.5 1.5 0 0 1-1.5-1.5v-.02m0-12.2a1.5 1.5 0 0 1 1.5-1.5 1.5 1.5 0 0 1 1.5 1.5 1.5 1.5 0 0 1-1.5 1.5 1.5 1.5 0 0 1-1.5-1.5v-.02"/><path d="M1300 820a20 20 0 0 1 20-20h60a20 20 0 0 1 20 20 20 20 0 0 1-20 20h-60a20 20 0 0 1-20-20z" stroke="#000" stroke-width="3" fill="#ced4db"/><use xlink:href="#a" transform="matrix(1,0,0,1,1305,805) translate(19.236481481481476 21.430555555555557)"/><path d="M1350 640v-17.5" stroke="#000" stroke-width="2" fill="none"/><path d="M1350 655.26l-4.63-14.26h9.27z" stroke="#000" stroke-width="2"/><path d="M1350.97 622.53h-1.94v-1.03h1.94z" stroke="#000" stroke-width=".05"/><path d="M1300 680a20 20 0 0 1 20-20h60a20 20 0 0 1 20 20v60a20 20 0 0 1-20 20h-60a20 20 0 0 1-20-20z" stroke="#000" stroke-width="3" fill="url(#q)"/><use xlink:href="#c" transform="matrix(1,0,0,1,1305,665) translate(3.0030864197530747 50.49305555555556)"/><path d="M1300 600a20 20 0 0 1 20-20h60a20 20 0 0 1 20 20 20 20 0 0 1-20 20h-60a20 20 0 0 1-20-20z" stroke="#000" stroke-width="3" fill="#c3f7c8"/><use xlink:href="#d" transform="matrix(1,0,0,1,1305,585) translate(23.276604938271603 21.430555555555557)"/><path d="M1350 780v-17.5" stroke="#000" stroke-width="2" fill="none"/><path d="M1350 795.26l-4.63-14.26h9.27z" stroke="#000" stroke-width="2"/><path d="M1350.97 762.53h-1.94v-1.03h1.94z" stroke="#000" stroke-width=".05"/><path d="M1460 600h-40" stroke="#000" stroke-width="2" fill="none"/><path d="M1475.26 600l-14.27 4.63v-9.26zM1404.74 600l14.27-4.63v9.26z" stroke="#000" stroke-width="2"/><path d="M1461.5 712a1 1 0 0 1 1-1 1 1 0 0 1 1 1 1 1 0 0 1-1 1 1 1 0 0 1-1-1m-4 0a1 1 0 0 1 1-1 1 1 0 0 1 1 1 1 1 0 0 1-1 1 1 1 0 0 1-1-1m-4 0a1 1 0 0 1 1-1 1 1 0 0 1 1 1 1 1 0 0 1-1 1 1 1 0 0 1-1-1m-4 0a1 1 0 0 1 1-1 1 1 0 0 1 1 1 1 1 0 0 1-1 1 1 1 0 0 1-1-1m-4 0a1 1 0 0 1 1-1 1 1 0 0 1 1 1 1 1 0 0 1-1 1 1 1 0 0 1-1-1m-4 0a1 1 0 0 1 1-1 1 1 0 0 1 1 1 1 1 0 0 1-1 1 1 1 0 0 1-1-1m-4 0a1 1 0 0 1 1-1 1 1 0 0 1 1 1 1 1 0 0 1-1 1 1 1 0 0 1-1-1m-4 0a1 1 0 0 1 1-1 1 1 0 0 1 1 1 1 1 0 0 1-1 1 1 1 0 0 1-1-1m-4 0a1 1 0 0 1 1-1 1 1 0 0 1 1 1 1 1 0 0 1-1 1 1 1 0 0 1-1-1m-4 0a1 1 0 0 1 1-1 1 1 0 0 1 1 1 1 1 0 0 1-1 1 1 1 0 0 1-1-1m-4 0a1 1 0 0 1 1-1 1 1 0 0 1 1 1 1 1 0 0 1-1 1 1 1 0 0 1-1-1m-4 0a1 1 0 0 1 1-1 1 1 0 0 1 1 1 1 1 0 0 1-1 1 1 1 0 0 1-1-1m-4 0a1 1 0 0 1 1-1 1 1 0 0 1 1 1 1 1 0 0 1-1 1 1 1 0 0 1-1-1m-4 0a1 1 0 0 1 1-1 1 1 0 0 1 1 1 1 1 0 0 1-1 1 1 1 0 0 1-1-1m-4 0a1 1 0 0 1 1-1 1 1 0 0 1 1 1 1 1 0 0 1-1 1 1 1 0 0 1-1-1M1461.5 708a1 1 0 0 1 1-1 1 1 0 0 1 1 1 1 1 0 0 1-1 1 1 1 0 0 1-1-1m-4 0a1 1 0 0 1 1-1 1 1 0 0 1 1 1 1 1 0 0 1-1 1 1 1 0 0 1-1-1m-4 0a1 1 0 0 1 1-1 1 1 0 0 1 1 1 1 1 0 0 1-1 1 1 1 0 0 1-1-1m-4 0a1 1 0 0 1 1-1 1 1 0 0 1 1 1 1 1 0 0 1-1 1 1 1 0 0 1-1-1m-4 0a1 1 0 0 1 1-1 1 1 0 0 1 1 1 1 1 0 0 1-1 1 1 1 0 0 1-1-1m-4 0a1 1 0 0 1 1-1 1 1 0 0 1 1 1 1 1 0 0 1-1 1 1 1 0 0 1-1-1m-4 0a1 1 0 0 1 1-1 1 1 0 0 1 1 1 1 1 0 0 1-1 1 1 1 0 0 1-1-1m-4 0a1 1 0 0 1 1-1 1 1 0 0 1 1 1 1 1 0 0 1-1 1 1 1 0 0 1-1-1m-4 0a1 1 0 0 1 1-1 1 1 0 0 1 1 1 1 1 0 0 1-1 1 1 1 0 0 1-1-1m-4 0a1 1 0 0 1 1-1 1 1 0 0 1 1 1 1 1 0 0 1-1 1 1 1 0 0 1-1-1m-4 0a1 1 0 0 1 1-1 1 1 0 0 1 1 1 1 1 0 0 1-1 1 1 1 0 0 1-1-1m-4 0a1 1 0 0 1 1-1 1 1 0 0 1 1 1 1 1 0 0 1-1 1 1 1 0 0 1-1-1m-4 0a1 1 0 0 1 1-1 1 1 0 0 1 1 1 1 1 0 0 1-1 1 1 1 0 0 1-1-1m-4 0a1 1 0 0 1 1-1 1 1 0 0 1 1 1 1 1 0 0 1-1 1 1 1 0 0 1-1-1m-4 0a1 1 0 0 1 1-1 1 1 0 0 1 1 1 1 1 0 0 1-1 1 1 1 0 0 1-1-1" fill="#ba23f6"/><path d="M1476.5 710l-13 7.5v-15z" stroke="#ba23f6" stroke-width="2" fill="#fff"/><path d="M1402.53 712.98h-1.03V711h1.03zM1402.53 708.98h-1.03V707h1.03z" stroke="#ba23f6" stroke-width=".05" fill="#ba23f6"/><path d="M1280 886a6 6 0 0 1 6-6h308a6 6 0 0 1 6 6v88a6 6 0 0 1-6 6h-308a6 6 0 0 1-6-6z" stroke="#000" stroke-opacity="0" stroke-width="3" fill="#fff" fill-opacity="0"/><g><use xlink:href="#k" transform="matrix(1,0,0,1,1285,885) translate(24.92592592592598 31.288194444444436)"/><use xlink:href="#r" transform="matrix(1,0,0,1,1285,885) translate(131.3950617283951 31.288194444444436)"/><use xlink:href="#s" transform="matrix(1,0,0,1,1285,885) translate(6.012345679012412 73.95486111111109)"/><use xlink:href="#t" transform="matrix(1,0,0,1,1285,885) translate(157.8148148148148 73.95486111111109)"/></g><defs><path d="M30-248c118-7 216 8 213 122C240-48 200 0 122 0H30v-248zM63-27c89 8 146-16 146-99s-60-101-146-95v194" id="u"/><path d="M141-36C126-15 110 5 73 4 37 3 15-17 15-53c-1-64 63-63 125-63 3-35-9-54-41-54-24 1-41 7-42 31l-33-3c5-37 33-52 76-52 45 0 72 20 72 64v82c-1 20 7 32 28 27v20c-31 9-61-2-59-35zM48-53c0 20 12 33 32 33 41-3 63-29 60-74-43 2-92-5-92 41" id="v"/><path d="M59-47c-2 24 18 29 38 22v24C64 9 27 4 27-40v-127H5v-23h24l9-43h21v43h35v23H59v120" id="w"/><g id="a"><use transform="matrix(0.06790123456790124,0,0,0.06790123456790124,0,0)" xlink:href="#u"/><use transform="matrix(0.06790123456790124,0,0,0.06790123456790124,17.58641975308642,0)" xlink:href="#v"/><use transform="matrix(0.06790123456790124,0,0,0.06790123456790124,31.16666666666667,0)" xlink:href="#w"/><use transform="matrix(0.06790123456790124,0,0,0.06790123456790124,37.9567901234568,0)" xlink:href="#v"/></g><linearGradient gradientUnits="userSpaceOnUse" id="b" x1="680" y1="760" x2="680" y2="660"><stop offset="18.48%" stop-color="#fff"/><stop offset="24.28%" stop-color="#cfe4ff"/></linearGradient><path d="M100-194c62-1 85 37 85 99 1 63-27 99-86 99S16-35 15-95c0-66 28-99 85-99zM99-20c44 1 53-31 53-75 0-43-8-75-51-75s-53 32-53 75 10 74 51 75" id="x"/><path d="M210-169c-67 3-38 105-44 169h-31v-121c0-29-5-50-35-48C34-165 62-65 56 0H25l-1-190h30c1 10-1 24 2 32 10-44 99-50 107 0 11-21 27-35 58-36 85-2 47 119 55 194h-31v-121c0-29-5-49-35-48" id="y"/><path d="M24-231v-30h32v30H24zM24 0v-190h32V0H24" id="z"/><path d="M117-194c89-4 53 116 60 194h-32v-121c0-31-8-49-39-48C34-167 62-67 57 0H25l-1-190h30c1 10-1 24 2 32 11-22 29-35 61-36" id="A"/><g id="c"><use transform="matrix(0.06790123456790124,0,0,0.06790123456790124,0,0)" xlink:href="#u"/><use transform="matrix(0.06790123456790124,0,0,0.06790123456790124,17.58641975308642,0)" xlink:href="#x"/><use transform="matrix(0.06790123456790124,0,0,0.06790123456790124,31.16666666666667,0)" xlink:href="#y"/><use transform="matrix(0.06790123456790124,0,0,0.06790123456790124,51.46913580246915,0)" xlink:href="#v"/><use transform="matrix(0.06790123456790124,0,0,0.06790123456790124,65.0493827160494,0)" xlink:href="#z"/><use transform="matrix(0.06790123456790124,0,0,0.06790123456790124,70.4135802469136,0)" xlink:href="#A"/></g><path d="M205 0l-28-72H64L36 0H1l101-248h38L239 0h-34zm-38-99l-47-123c-12 45-31 82-46 123h93" id="B"/><path d="M115-194c55 1 70 41 70 98S169 2 115 4C84 4 66-9 55-30l1 105H24l-1-265h31l2 30c10-21 28-34 59-34zm-8 174c40 0 45-34 45-75s-6-73-45-74c-42 0-51 32-51 76 0 43 10 73 51 73" id="C"/><g id="d"><use transform="matrix(0.06790123456790124,0,0,0.06790123456790124,0,0)" xlink:href="#B"/><use transform="matrix(0.06790123456790124,0,0,0.06790123456790124,16.296296296296298,0)" xlink:href="#C"/><use transform="matrix(0.06790123456790124,0,0,0.06790123456790124,29.876543209876544,0)" xlink:href="#C"/></g><linearGradient gradientUnits="userSpaceOnUse" id="e" x1="500" y1="760" x2="500" y2="660"><stop offset="18.48%" stop-color="#fff"/><stop offset="24.28%" stop-color="#cfe4ff"/></linearGradient><path d="M250-142C247-53 197 0 108 0H6l48-248c105-5 200 3 196 106zm-49 2c1-57-42-72-103-68L66-40c84 6 135-22 135-100" id="D"/><path d="M166-52c-4 17 5 29 24 23l-3 27c-30 11-74 1-67-34C105-15 91 4 56 4 23 4 3-15 2-49c0-64 63-67 128-67 10-22 3-53-29-45-13 3-22 10-25 24l-46-5c5-64 156-77 153 0-1 33-11 60-17 90zM97-88c-44-9-64 57-19 57 31 0 42-28 47-57H97" id="E"/><path d="M72-63c-8 23 5 39 32 30L98-1C54 14 12-6 23-64l18-93H15l7-33h28l24-45h31l-8 45h35l-6 33H90" id="F"/><path d="M87-160c15-17 32-34 63-34 99 1 59 172-1 192-36 12-78 0-87-29L54 0H6l52-261h49zm71 38c0-24-5-37-29-37-46 0-55 46-57 89-1 25 12 40 35 40 44 0 51-50 51-92" id="G"/><path d="M144-137c-1-29-70-35-71-2 16 41 103 10 103 80C176 9 79 16 32-9 18-17 9-31 4-48l44-6c3 32 80 36 82 1-15-42-103-11-103-82 0-77 157-79 161-8" id="H"/><path d="M114-194c63-2 87 48 72 110H63c-3 28 1 55 31 54 21-1 32-13 37-29l44 13C160-14 137 4 91 4 41 4 11-22 11-73c0-71 33-119 103-121zm30 77c14-47-50-61-67-22-3 6-6 13-8 22h75" id="I"/><g id="f"><use transform="matrix(0.0987654320987654,0,0,0.0987654320987654,0,0)" xlink:href="#D"/><use transform="matrix(0.0987654320987654,0,0,0.0987654320987654,25.58024691358024,0)" xlink:href="#E"/><use transform="matrix(0.0987654320987654,0,0,0.0987654320987654,45.333333333333314,0)" xlink:href="#F"/><use transform="matrix(0.0987654320987654,0,0,0.0987654320987654,57.0864197530864,0)" xlink:href="#E"/><use transform="matrix(0.0987654320987654,0,0,0.0987654320987654,76.83950617283948,0)" xlink:href="#G"/><use transform="matrix(0.0987654320987654,0,0,0.0987654320987654,98.4691358024691,0)" xlink:href="#E"/><use transform="matrix(0.0987654320987654,0,0,0.0987654320987654,118.22222222222219,0)" xlink:href="#H"/><use transform="matrix(0.0987654320987654,0,0,0.0987654320987654,137.97530864197526,0)" xlink:href="#I"/></g><path d="M258-177c0 46-32 67-71 75L235 0h-57l-41-94H76L58 0H6l48-248c89 2 204-19 204 71zm-53 3c0-46-63-30-107-33l-14 73c51-2 120 13 121-40" id="J"/><path d="M156-122c2-23-7-37-28-37-47 0-58 44-58 89 0 24 12 40 36 40 43 0 47-49 50-92zM-8 75l50-265h48c0 10-3 24-3 30 22-50 127-45 121 29-6 73-21 135-92 135-29 0-46-14-55-35L41 75H-8" id="K"/><path d="M6 0l51-261h49L55 0H6" id="L"/><path d="M50-224l7-37h49l-7 37H50zM6 0l37-190h49L55 0H6" id="M"/><path d="M67-101c-8 29-7 73 27 71 23-2 32-16 39-37l48 9C170-19 141 4 91 4 36 4 7-28 12-86c6-75 61-124 140-103 26 7 40 29 43 59l-50 4c-1-20-9-34-29-34-35 0-41 29-49 59" id="N"/><path d="M124-194c51 0 84 22 84 74C207-44 167 4 94 4 43 4 11-23 11-74c0-74 41-120 113-120zM99-30c46 0 58-42 58-86 0-27-11-44-37-44-44 0-55 40-57 84-1 27 10 45 36 46" id="O"/><path d="M151-194c95 0 34 128 28 194h-49l25-134c0-29-45-25-59-9C67-111 69-48 56 0H6l36-190h47l-4 32c15-20 33-36 66-36" id="P"/><g id="g"><use transform="matrix(0.0987654320987654,0,0,0.0987654320987654,0,0)" xlink:href="#J"/><use transform="matrix(0.0987654320987654,0,0,0.0987654320987654,25.58024691358024,0)" xlink:href="#I"/><use transform="matrix(0.0987654320987654,0,0,0.0987654320987654,45.333333333333314,0)" xlink:href="#K"/><use transform="matrix(0.0987654320987654,0,0,0.0987654320987654,66.96296296296293,0)" xlink:href="#L"/><use transform="matrix(0.0987654320987654,0,0,0.0987654320987654,76.83950617283948,0)" xlink:href="#M"/><use transform="matrix(0.0987654320987654,0,0,0.0987654320987654,86.71604938271602,0)" xlink:href="#N"/><use transform="matrix(0.0987654320987654,0,0,0.0987654320987654,106.4691358024691,0)" xlink:href="#E"/><use transform="matrix(0.0987654320987654,0,0,0.0987654320987654,126.22222222222219,0)" xlink:href="#F"/><use transform="matrix(0.0987654320987654,0,0,0.0987654320987654,137.97530864197526,0)" xlink:href="#M"/><use transform="matrix(0.0987654320987654,0,0,0.0987654320987654,147.8518518518518,0)" xlink:href="#O"/><use transform="matrix(0.0987654320987654,0,0,0.0987654320987654,169.4814814814814,0)" xlink:href="#P"/></g><linearGradient gradientUnits="userSpaceOnUse" id="h" x1="1078.5" y1="800" x2="1078.5" y2="840"><stop offset="24.64%" stop-color="#cfe4ff"/><stop offset="39.64%" stop-color="#ced4db"/></linearGradient><linearGradient gradientUnits="userSpaceOnUse" id="i" x1="1078.5" y1="760" x2="1078.5" y2="660"><stop offset="18.48%" stop-color="#fff"/><stop offset="24.28%" stop-color="#cfe4ff"/></linearGradient><linearGradient gradientUnits="userSpaceOnUse" id="j" x1="900" y1="760" x2="900" y2="660"><stop offset="18.48%" stop-color="#fff"/><stop offset="24.28%" stop-color="#cfe4ff"/></linearGradient><path d="M6 0l48-248h195l-8 40H98l-12 63h132l-7 40H79L66-40h150l-8 40H6" id="Q"/><path d="M109 0H50L19-190h51L86-37l77-153h54" id="R"/><g id="k"><use transform="matrix(0.0987654320987654,0,0,0.0987654320987654,0,0)" xlink:href="#Q"/><use transform="matrix(0.0987654320987654,0,0,0.0987654320987654,23.703703703703695,0)" xlink:href="#R"/><use transform="matrix(0.0987654320987654,0,0,0.0987654320987654,43.45679012345677,0)" xlink:href="#I"/><use transform="matrix(0.0987654320987654,0,0,0.0987654320987654,63.209876543209845,0)" xlink:href="#P"/><use transform="matrix(0.0987654320987654,0,0,0.0987654320987654,84.83950617283946,0)" xlink:href="#F"/></g><path d="M98-208l-15 77h118l-8 40H76L58 0H6l48-248h174l-8 40H98" id="S"/><path d="M132-28C118-9 101 4 69 4 30 4 10-23 10-62c0-70 24-129 92-132 31-1 47 14 56 35l19-102h49L179 0h-49zM62-69c0 22 7 39 29 39 45-2 54-45 57-90 2-27-10-40-33-40-44 0-53 48-53 91" id="T"/><g id="l"><use transform="matrix(0.0987654320987654,0,0,0.0987654320987654,0,0)" xlink:href="#S"/><use transform="matrix(0.0987654320987654,0,0,0.0987654320987654,21.629629629629623,0)" xlink:href="#I"/><use transform="matrix(0.0987654320987654,0,0,0.0987654320987654,41.3827160493827,0)" xlink:href="#I"/><use transform="matrix(0.0987654320987654,0,0,0.0987654320987654,61.13580246913578,0)" xlink:href="#T"/></g><g id="m"><use transform="matrix(0.0987654320987654,0,0,0.0987654320987654,0,0)" xlink:href="#F"/><use transform="matrix(0.0987654320987654,0,0,0.0987654320987654,11.753086419753082,0)" xlink:href="#O"/></g><use transform="matrix(0.0987654320987654,0,0,0.0987654320987654,0,0)" xlink:href="#E" id="n"/><g id="o"><use transform="matrix(0.0987654320987654,0,0,0.0987654320987654,0,0)" xlink:href="#D"/><use transform="matrix(0.0987654320987654,0,0,0.0987654320987654,25.58024691358024,0)" xlink:href="#E"/><use transform="matrix(0.0987654320987654,0,0,0.0987654320987654,45.333333333333314,0)" xlink:href="#F"/><use transform="matrix(0.0987654320987654,0,0,0.0987654320987654,57.0864197530864,0)" xlink:href="#E"/><use transform="matrix(0.0987654320987654,0,0,0.0987654320987654,76.83950617283948,0)" xlink:href="#G"/><use transform="matrix(0.0987654320987654,0,0,0.0987654320987654,98.4691358024691,0)" xlink:href="#E"/><use transform="matrix(0.0987654320987654,0,0,0.0987654320987654,118.22222222222219,0)" xlink:href="#H"/><use transform="matrix(0.0987654320987654,0,0,0.0987654320987654,137.97530864197526,0)" xlink:href="#I"/></g><linearGradient gradientUnits="userSpaceOnUse" id="p" x1="1480" y1="760" x2="1480" y2="660"><stop offset="18.48%" stop-color="#fff"/><stop offset="24.28%" stop-color="#cfe4ff"/></linearGradient><linearGradient gradientUnits="userSpaceOnUse" id="q" x1="1300" y1="760" x2="1300" y2="660"><stop offset="18.48%" stop-color="#fff"/><stop offset="24.28%" stop-color="#cfe4ff"/></linearGradient><path d="M178-136c88 48 22 151-73 140C49-3 12-15 4-64l51-9c1 50 111 53 115 3-16-63-132-20-133-112 0-93 190-91 199-10l-50 12c-4-41-93-50-97-4 7 38 59 32 89 48" id="U"/><path d="M69 3c-96 0-34-126-28-193h49L65-57c6 42 62 18 71-6 14-38 17-86 28-127h50L178 0h-47c0-11 4-26 3-33-14 20-30 37-65 36" id="V"/><path d="M84-151c13-25 34-51 72-40l-8 41C67-170 71-64 56 0H6l36-190h47" id="W"/><path d="M45-171c29-32 103-29 114 14 2-11 5-23 8-33h47L176-2c-3 70-92 96-155 64C9 56 1 42-1 25l50-5c2 28 48 27 63 11 13-13 20-45 21-66-13 20-30 35-62 36-87 3-60-134-26-172zM94-35c41-3 55-43 55-86 0-24-12-39-35-39-43 0-51 48-51 90 0 22 9 37 31 35" id="X"/><g id="r"><use transform="matrix(0.0987654320987654,0,0,0.0987654320987654,0,0)" xlink:href="#U"/><use transform="matrix(0.0987654320987654,0,0,0.0987654320987654,23.703703703703695,0)" xlink:href="#O"/><use transform="matrix(0.0987654320987654,0,0,0.0987654320987654,45.333333333333314,0)" xlink:href="#V"/><use transform="matrix(0.0987654320987654,0,0,0.0987654320987654,66.96296296296293,0)" xlink:href="#W"/><use transform="matrix(0.0987654320987654,0,0,0.0987654320987654,80.79012345679008,0)" xlink:href="#N"/><use transform="matrix(0.0987654320987654,0,0,0.0987654320987654,100.54320987654316,0)" xlink:href="#M"/><use transform="matrix(0.0987654320987654,0,0,0.0987654320987654,110.41975308641969,0)" xlink:href="#P"/><use transform="matrix(0.0987654320987654,0,0,0.0987654320987654,132.04938271604934,0)" xlink:href="#X"/></g><path d="M212 0h-52l-8-156L82 0H30L17-190h46l2 145 66-145h53l8 145 60-145h47" id="Y"/><g id="s"><use transform="matrix(0.0987654320987654,0,0,0.0987654320987654,0,0)" xlink:href="#G"/><use transform="matrix(0.0987654320987654,0,0,0.0987654320987654,21.629629629629623,0)" xlink:href="#I"/><use transform="matrix(0.0987654320987654,0,0,0.0987654320987654,41.3827160493827,0)" xlink:href="#F"/><use transform="matrix(0.0987654320987654,0,0,0.0987654320987654,53.13580246913578,0)" xlink:href="#Y"/><use transform="matrix(0.0987654320987654,0,0,0.0987654320987654,80.7901234567901,0)" xlink:href="#I"/><use transform="matrix(0.0987654320987654,0,0,0.0987654320987654,100.54320987654317,0)" xlink:href="#I"/><use transform="matrix(0.0987654320987654,0,0,0.0987654320987654,120.29629629629626,0)" xlink:href="#P"/></g><g id="t"><use transform="matrix(0.0987654320987654,0,0,0.0987654320987654,0,0)" xlink:href="#U"/><use transform="matrix(0.0987654320987654,0,0,0.0987654320987654,23.703703703703695,0)" xlink:href="#I"/><use transform="matrix(0.0987654320987654,0,0,0.0987654320987654,43.45679012345677,0)" xlink:href="#W"/><use transform="matrix(0.0987654320987654,0,0,0.0987654320987654,57.28395061728393,0)" xlink:href="#R"/><use transform="matrix(0.0987654320987654,0,0,0.0987654320987654,77.03703703703701,0)" xlink:href="#M"/><use transform="matrix(0.0987654320987654,0,0,0.0987654320987654,86.91358024691355,0)" xlink:href="#N"/><use transform="matrix(0.0987654320987654,0,0,0.0987654320987654,106.66666666666663,0)" xlink:href="#I"/><use transform="matrix(0.0987654320987654,0,0,0.0987654320987654,126.41975308641972,0)" xlink:href="#H"/></g></defs></g></svg>