<svg xmlns="http://www.w3.org/2000/svg" xmlns:xlink="http://www.w3.org/1999/xlink" xmlns:lucid="lucid" width="207" height="203.5"><g transform="translate(-796.5 -538.5)" lucid:page-tab-id="0_0"><path d="M800 720.5a20 20 0 0 1 20-20h160a20 20 0 0 1 20 20 20 20 0 0 1-20 20H820a20 20 0 0 1-20-20z" stroke="#000" stroke-width="3" fill="#ced4db"/><use xlink:href="#a" transform="matrix(1,0,0,1,805.0000500000001,705.5000499999953) translate(42.754999999999995 21.430555555555557)"/><path d="M800 639a19.67 19.67 0 0 1 19.67-19.67h160.66A19.67 19.67 0 0 1 1000 639a19.67 19.67 0 0 1-19.67 19.67H819.67A19.67 19.67 0 0 1 800 639z" stroke="#000" stroke-width="3" fill="#fff"/><use xlink:href="#b" transform="matrix(1,0,0,1,805.0000500000001,624.3333333333334) translate(66.55438271604939 21.430555555555557)"/><path d="M900 680.5v-19.33" stroke="#008a0e" stroke-width="2" fill="none"/><path d="M900 695.76l-4.63-14.26h9.26z" stroke="#008a0e" stroke-width="2" fill="#fff"/><path d="M900.98 661.2H899v-1.03H901z" stroke="#008a0e" stroke-width=".05" fill="#008a0e"/><path d="M800 560a20 20 0 0 1 20-20h160a20 20 0 0 1 20 20 20 20 0 0 1-20 20H820a20 20 0 0 1-20-20z" stroke="#000" stroke-width="3" fill="url(#c)"/><use xlink:href="#d" transform="matrix(1,0,0,1,805.0000500000001,545) translate(35.353765432098754 21.430555555555557)"/><path d="M900 599.33V582.5" stroke="#1071e5" stroke-width="2" fill="none"/><path d="M900 614.6l-4.63-14.27h9.26z" stroke="#1071e5" stroke-width="2" fill="#fff"/><path d="M900.98 582.53H899v-1.03H901z" stroke="#1071e5" stroke-width=".05" fill="#1071e5"/><path d="M996.5 620h-193M996.4 620h3.6M803.6 620H800" stroke="#1071e5" stroke-width="7" fill="none"/><path d="M996.5 700h-193M996.4 700h3.6M803.6 700H800" stroke="#008a0e" stroke-width="7" fill="none"/><path d="M911.1 675.33a6 6 0 0 1 6-6h28a6 6 0 0 1 6 6v8a6 6 0 0 1-6 6h-28a6 6 0 0 1-6-6z" stroke="#000" stroke-opacity="0" stroke-width="2" fill="#fff" fill-opacity="0"/><use xlink:href="#e" transform="matrix(1,0,0,1,916.1049382716049,674.3333333333334) translate(-7.808641975308639 17.777777777777775)"/><path d="M823.33 597.33a6 6 0 0 1 6-6h128a6 6 0 0 1 6 6v8a6 6 0 0 1-6 6h-128a6 6 0 0 1-6-6z" stroke="#000" stroke-opacity="0" stroke-width="2" fill="#fff" fill-opacity="0"/><use xlink:href="#f" transform="matrix(1,0,0,1,828.3333833333335,596.3333333333333) translate(11.3888888888889 17.777777777777775)"/><use xlink:href="#g" transform="matrix(1,0,0,1,828.3333833333335,596.3333333333333) translate(81.6358024691358 17.777777777777775)"/><defs><path d="M30-248c118-7 216 8 213 122C240-48 200 0 122 0H30v-248zM63-27c89 8 146-16 146-99s-60-101-146-95v194" id="h"/><path d="M141-36C126-15 110 5 73 4 37 3 15-17 15-53c-1-64 63-63 125-63 3-35-9-54-41-54-24 1-41 7-42 31l-33-3c5-37 33-52 76-52 45 0 72 20 72 64v82c-1 20 7 32 28 27v20c-31 9-61-2-59-35zM48-53c0 20 12 33 32 33 41-3 63-29 60-74-43 2-92-5-92 41" id="i"/><path d="M59-47c-2 24 18 29 38 22v24C64 9 27 4 27-40v-127H5v-23h24l9-43h21v43h35v23H59v120" id="j"/><path d="M115-194c53 0 69 39 70 98 0 66-23 100-70 100C84 3 66-7 56-30L54 0H23l1-261h32v101c10-23 28-34 59-34zm-8 174c40 0 45-34 45-75 0-40-5-75-45-74-42 0-51 32-51 76 0 43 10 73 51 73" id="k"/><path d="M135-143c-3-34-86-38-87 0 15 53 115 12 119 90S17 21 10-45l28-5c4 36 97 45 98 0-10-56-113-15-118-90-4-57 82-63 122-42 12 7 21 19 24 35" id="l"/><path d="M100-194c63 0 86 42 84 106H49c0 40 14 67 53 68 26 1 43-12 49-29l28 8c-11 28-37 45-77 45C44 4 14-33 15-96c1-61 26-98 85-98zm52 81c6-60-76-77-97-28-3 7-6 17-6 28h103" id="m"/><g id="a"><use transform="matrix(0.06790123456790123,0,0,0.06790123456790123,0,0)" xlink:href="#h"/><use transform="matrix(0.06790123456790123,0,0,0.06790123456790123,17.586419753086417,0)" xlink:href="#i"/><use transform="matrix(0.06790123456790123,0,0,0.06790123456790123,31.166666666666664,0)" xlink:href="#j"/><use transform="matrix(0.06790123456790123,0,0,0.06790123456790123,37.95679012345679,0)" xlink:href="#i"/><use transform="matrix(0.06790123456790123,0,0,0.06790123456790123,51.53703703703703,0)" xlink:href="#k"/><use transform="matrix(0.06790123456790123,0,0,0.06790123456790123,65.11728395061728,0)" xlink:href="#i"/><use transform="matrix(0.06790123456790123,0,0,0.06790123456790123,78.69753086419752,0)" xlink:href="#l"/><use transform="matrix(0.06790123456790123,0,0,0.06790123456790123,90.91975308641975,0)" xlink:href="#m"/></g><path d="M140-251c81 0 123 46 123 126C263-46 219 4 140 4 59 4 17-45 17-125s42-126 123-126zm0 227c63 0 89-41 89-101s-29-99-89-99c-61 0-89 39-89 99S79-25 140-24" id="n"/><path d="M233-177c-1 41-23 64-60 70L243 0h-38l-65-103H63V0H30v-248c88 3 205-21 203 71zM63-129c60-2 137 13 137-47 0-61-80-42-137-45v92" id="o"/><path d="M240 0l2-218c-23 76-54 145-80 218h-23L58-218 59 0H30v-248h44l77 211c21-75 51-140 76-211h43V0h-30" id="p"/><g id="b"><use transform="matrix(0.06790123456790123,0,0,0.06790123456790123,0,0)" xlink:href="#n"/><use transform="matrix(0.06790123456790123,0,0,0.06790123456790123,19.012345679012345,0)" xlink:href="#o"/><use transform="matrix(0.06790123456790123,0,0,0.06790123456790123,36.59876543209876,0)" xlink:href="#p"/></g><linearGradient gradientUnits="userSpaceOnUse" id="c" x1="800" y1="540" x2="800" y2="580"><stop offset="34.42%" stop-color="#c3f7c8"/><stop offset="54.71%" stop-color="#cfe4ff"/></linearGradient><path d="M205 0l-28-72H64L36 0H1l101-248h38L239 0h-34zm-38-99l-47-123c-12 45-31 82-46 123h93" id="q"/><path d="M115-194c55 1 70 41 70 98S169 2 115 4C84 4 66-9 55-30l1 105H24l-1-265h31l2 30c10-21 28-34 59-34zm-8 174c40 0 45-34 45-75s-6-73-45-74c-42 0-51 32-51 76 0 43 10 73 51 73" id="r"/><path d="M24 0v-261h32V0H24" id="s"/><path d="M24-231v-30h32v30H24zM24 0v-190h32V0H24" id="t"/><path d="M96-169c-40 0-48 33-48 73s9 75 48 75c24 0 41-14 43-38l32 2c-6 37-31 61-74 61-59 0-76-41-82-99-10-93 101-131 147-64 4 7 5 14 7 22l-32 3c-4-21-16-35-41-35" id="u"/><path d="M100-194c62-1 85 37 85 99 1 63-27 99-86 99S16-35 15-95c0-66 28-99 85-99zM99-20c44 1 53-31 53-75 0-43-8-75-51-75s-53 32-53 75 10 74 51 75" id="v"/><path d="M117-194c89-4 53 116 60 194h-32v-121c0-31-8-49-39-48C34-167 62-67 57 0H25l-1-190h30c1 10-1 24 2 32 11-22 29-35 61-36" id="w"/><g id="d"><use transform="matrix(0.06790123456790123,0,0,0.06790123456790123,0,0)" xlink:href="#q"/><use transform="matrix(0.06790123456790123,0,0,0.06790123456790123,16.296296296296294,0)" xlink:href="#r"/><use transform="matrix(0.06790123456790123,0,0,0.06790123456790123,29.87654320987654,0)" xlink:href="#r"/><use transform="matrix(0.06790123456790123,0,0,0.06790123456790123,43.456790123456784,0)" xlink:href="#s"/><use transform="matrix(0.06790123456790123,0,0,0.06790123456790123,48.82098765432098,0)" xlink:href="#t"/><use transform="matrix(0.06790123456790123,0,0,0.06790123456790123,54.185185185185176,0)" xlink:href="#u"/><use transform="matrix(0.06790123456790123,0,0,0.06790123456790123,66.40740740740739,0)" xlink:href="#i"/><use transform="matrix(0.06790123456790123,0,0,0.06790123456790123,79.98765432098764,0)" xlink:href="#j"/><use transform="matrix(0.06790123456790123,0,0,0.06790123456790123,86.77777777777777,0)" xlink:href="#t"/><use transform="matrix(0.06790123456790123,0,0,0.06790123456790123,92.14197530864197,0)" xlink:href="#v"/><use transform="matrix(0.06790123456790123,0,0,0.06790123456790123,105.72222222222223,0)" xlink:href="#w"/></g><path fill="#008a0e" d="M169-182c-1-43-94-46-97-3 18 66 151 10 154 114 3 95-165 93-204 36-6-8-10-19-12-30l50-8c3 46 112 56 116 5-17-69-150-10-154-114-4-87 153-88 188-35 5 8 8 18 10 28" id="x"/><path fill="#008a0e" d="M140-251c80 0 125 45 125 126 0 70-33 111-92 124 6 28 34 38 68 31l-1 36C177 83 129 55 120 2 51-6 15-50 15-125c0-81 44-126 125-126zm-1 214c52 0 73-35 73-88 0-50-21-86-72-86-52 0-73 35-73 86s22 88 72 88" id="y"/><path fill="#008a0e" d="M24 0v-248h52v208h133V0H24" id="z"/><g id="e"><use transform="matrix(0.061728395061728385,0,0,0.061728395061728385,0,0)" xlink:href="#x"/><use transform="matrix(0.061728395061728385,0,0,0.061728395061728385,14.814814814814813,0)" xlink:href="#y"/><use transform="matrix(0.061728395061728385,0,0,0.061728395061728385,32.09876543209876,0)" xlink:href="#z"/></g><path fill="#1071e5" d="M140-251c80 0 125 45 125 126S219 4 139 4C58 4 15-44 15-125s44-126 125-126zm-1 214c52 0 73-35 73-88 0-50-21-86-72-86-52 0-73 35-73 86s22 88 72 88" id="A"/><path fill="#1071e5" d="M240-174c0 40-23 61-54 70L253 0h-59l-57-94H76V0H24v-248c93 4 217-23 216 74zM76-134c48-2 112 12 112-38 0-48-66-32-112-35v73" id="B"/><path fill="#1071e5" d="M230 0l2-204L168 0h-37L68-204 70 0H24v-248h70l56 185 57-185h69V0h-46" id="C"/><g id="f"><use transform="matrix(0.061728395061728385,0,0,0.061728395061728385,0,0)" xlink:href="#A"/><use transform="matrix(0.061728395061728385,0,0,0.061728395061728385,17.28395061728395,0)" xlink:href="#B"/><use transform="matrix(0.061728395061728385,0,0,0.061728395061728385,33.2716049382716,0)" xlink:href="#C"/></g><path fill="#1071e5" d="M199 0l-22-63H83L61 0H9l90-248h61L250 0h-51zm-33-102l-36-108c-10 38-24 72-36 108h72" id="D"/><path fill="#1071e5" d="M24-248c93 1 206-16 204 79-1 75-69 88-152 82V0H24v-248zm52 121c47 0 100 7 100-41 0-47-54-39-100-39v80" id="E"/><path fill="#1071e5" d="M24 0v-248h52V0H24" id="F"/><g id="g"><use transform="matrix(0.061728395061728385,0,0,0.061728395061728385,0,0)" xlink:href="#D"/><use transform="matrix(0.061728395061728385,0,0,0.061728395061728385,15.987654320987652,0)" xlink:href="#E"/><use transform="matrix(0.061728395061728385,0,0,0.061728395061728385,30.802469135802465,0)" xlink:href="#F"/></g></defs></g></svg>