<svg xmlns="http://www.w3.org/2000/svg" xmlns:xlink="http://www.w3.org/1999/xlink" xmlns:lucid="lucid" width="286" height="243"><g transform="translate(-618.5 -558.4999839181285)" lucid:page-tab-id="0_0"><path d="M660 580a20 20 0 0 1 20-20h160a20 20 0 0 1 20 20v160a20 20 0 0 1-20 20H680a20 20 0 0 1-20-20z" stroke="#000" stroke-width="3" fill="url(#a)"/><path d="M640 600a20 20 0 0 1 20-20h160a20 20 0 0 1 20 20v160a20 20 0 0 1-20 20H660a20 20 0 0 1-20-20z" stroke="#000" stroke-width="3" fill="url(#b)"/><path d="M620 620a20 20 0 0 1 20-20h160a20 20 0 0 1 20 20v160a20 20 0 0 1-20 20H640a20 20 0 0 1-20-20z" stroke="#000" stroke-width="3" fill="url(#c)"/><use xlink:href="#d" transform="matrix(1,0,0,1,625,604.9999839181285) translate(33.51851851851852 98.52083333333334)"/><use xlink:href="#e" transform="matrix(1,0,0,1,625,604.9999839181285) translate(141.66666666666666 98.52083333333334)"/><path d="M855.66 678h3m3.97 0h5.98m4 0h5.97m3.98 0h5.98m3.98 0h3a4 4 0 0 0 4-4v-2.4m0-3.2V666a4 4 0 0 0-4-4h-2.98m-3.96 0h-5.96m-3.96 0h-2.98M855.66 682h3m3.97 0h5.98m4 0h5.97m3.98 0h5.98m3.98 0h3l1.25-.1 1.22-.3 1.16-.47m3.5-3.5l.48-1.16.3-1.22.1-1.25v-2.4m0-3.2V666l-.1-1.25-.3-1.22-.47-1.16m-3.5-3.5l-1.16-.48-1.22-.3-1.25-.1h-2.98m-3.96 0h-5.96m-3.96 0h-2.98M860.82 690l-17.32-10 17.32-10m-17.32 10h8.5M880.82 670l-17.32-10 17.32-10m-17.32 10h8.5" stroke="#000" stroke-width="2" fill="none"/><path d="M835.66 698h3m3.98 0h6m3.98 0h5.98m4 0h5.97m4 0h5.97m4 0h5.98m4 0h2.98a4 4 0 0 0 4-4v-2.8m0-3.73v-5.6m0-3.74v-5.6m0-3.73V666a4 4 0 0 0-4-4h-2.98m-3.96 0h-5.96m-3.96 0h-2.98M835.66 702h3m3.98 0h6m3.98 0h5.98m4 0h5.97m4 0h5.97m4 0h5.98m4 0h2.98l1.25-.1 1.22-.3 1.16-.47m3.5-3.5l.48-1.16.3-1.22.1-1.25v-2.8m0-3.73v-5.6m0-3.74v-5.6m0-3.73V666l-.1-1.25-.3-1.22-.47-1.16m-3.5-3.5l-1.16-.48-1.22-.3-1.25-.1h-2.98m-3.96 0h-5.96m-3.96 0h-2.98M840.82 710l-17.32-10 17.32-10m-17.32 10h8.5M880.82 670l-17.32-10 17.32-10m-17.32 10h8.5M855.66 678h2.98m3.96 0h5.96m3.96 0h2.98l1.25.1 1.22.3 1.16.47m3.5 3.5l.48 1.16.3 1.22.1 1.25v2.4m0 3.2v2.4l-.1 1.25-.3 1.22-.47 1.16m-3.5 3.5l-1.16.48-1.22.3-1.25.1h-3m-3.97 0h-5.98m-3.98 0h-5.98m-4 0h-5.97m-3.98 0h-3M855.66 682h2.98m3.96 0h5.96m3.96 0h2.98a4 4 0 0 1 4 4v2.4m0 3.2v2.4a4 4 0 0 1-4 4h-3m-3.97 0h-5.98m-3.98 0h-5.98m-4 0h-5.97m-3.98 0h-3M860.82 690l-17.32-10 17.32-10m-17.32 10h8.5" stroke="#000" stroke-width="2" fill="none"/><path d="M840.82 710l-17.32-10 17.32-10m-17.32 10h8.5" stroke="#000" stroke-width="2" fill="none"/><defs><linearGradient gradientUnits="userSpaceOnUse" id="a" x1="660" y1="760" x2="660" y2="560"><stop offset="19.2%" stop-color="#ced4db"/><stop offset="26.45%" stop-color="#fff"/><stop offset="45.29%" stop-color="#fff"/><stop offset="52.54%" stop-color="#cfe4ff"/><stop offset="73.91%" stop-color="#cfe4ff"/><stop offset="82.97%" stop-color="#c3f7c8"/></linearGradient><linearGradient gradientUnits="userSpaceOnUse" id="b" x1="640" y1="780" x2="640" y2="580"><stop offset="19.2%" stop-color="#ced4db"/><stop offset="26.45%" stop-color="#fff"/><stop offset="45.29%" stop-color="#fff"/><stop offset="52.54%" stop-color="#cfe4ff"/><stop offset="73.91%" stop-color="#cfe4ff"/><stop offset="82.97%" stop-color="#c3f7c8"/></linearGradient><linearGradient gradientUnits="userSpaceOnUse" id="c" x1="620" y1="800" x2="620" y2="600"><stop offset="19.2%" stop-color="#ced4db"/><stop offset="26.45%" stop-color="#fff"/><stop offset="45.29%" stop-color="#fff"/><stop offset="52.54%" stop-color="#cfe4ff"/><stop offset="73.91%" stop-color="#cfe4ff"/><stop offset="82.97%" stop-color="#c3f7c8"/></linearGradient><path d="M33 0v-248h34V0H33" id="f"/><path d="M117-194c89-4 53 116 60 194h-32v-121c0-31-8-49-39-48C34-167 62-67 57 0H25l-1-190h30c1 10-1 24 2 32 11-22 29-35 61-36" id="g"/><path d="M135-143c-3-34-86-38-87 0 15 53 115 12 119 90S17 21 10-45l28-5c4 36 97 45 98 0-10-56-113-15-118-90-4-57 82-63 122-42 12 7 21 19 24 35" id="h"/><path d="M59-47c-2 24 18 29 38 22v24C64 9 27 4 27-40v-127H5v-23h24l9-43h21v43h35v23H59v120" id="i"/><path d="M141-36C126-15 110 5 73 4 37 3 15-17 15-53c-1-64 63-63 125-63 3-35-9-54-41-54-24 1-41 7-42 31l-33-3c5-37 33-52 76-52 45 0 72 20 72 64v82c-1 20 7 32 28 27v20c-31 9-61-2-59-35zM48-53c0 20 12 33 32 33 41-3 63-29 60-74-43 2-92-5-92 41" id="j"/><path d="M96-169c-40 0-48 33-48 73s9 75 48 75c24 0 41-14 43-38l32 2c-6 37-31 61-74 61-59 0-76-41-82-99-10-93 101-131 147-64 4 7 5 14 7 22l-32 3c-4-21-16-35-41-35" id="k"/><path d="M100-194c63 0 86 42 84 106H49c0 40 14 67 53 68 26 1 43-12 49-29l28 8c-11 28-37 45-77 45C44 4 14-33 15-96c1-61 26-98 85-98zm52 81c6-60-76-77-97-28-3 7-6 17-6 28h103" id="l"/><g id="d"><use transform="matrix(0.07407407407407408,0,0,0.07407407407407408,0,0)" xlink:href="#f"/><use transform="matrix(0.07407407407407408,0,0,0.07407407407407408,7.407407407407408,0)" xlink:href="#g"/><use transform="matrix(0.07407407407407408,0,0,0.07407407407407408,22.222222222222225,0)" xlink:href="#h"/><use transform="matrix(0.07407407407407408,0,0,0.07407407407407408,35.55555555555556,0)" xlink:href="#i"/><use transform="matrix(0.07407407407407408,0,0,0.07407407407407408,42.96296296296296,0)" xlink:href="#j"/><use transform="matrix(0.07407407407407408,0,0,0.07407407407407408,57.77777777777778,0)" xlink:href="#g"/><use transform="matrix(0.07407407407407408,0,0,0.07407407407407408,72.5925925925926,0)" xlink:href="#k"/><use transform="matrix(0.07407407407407408,0,0,0.07407407407407408,85.92592592592592,0)" xlink:href="#l"/></g><path d="M27 0v-27h64v-190l-56 39v-29l58-41h29v221h61V0H27" id="m"/><use transform="matrix(0.07407407407407408,0,0,0.07407407407407408,0,0)" xlink:href="#m" id="e"/></defs></g></svg>