<svg xmlns="http://www.w3.org/2000/svg" xmlns:xlink="http://www.w3.org/1999/xlink" xmlns:lucid="lucid" width="622.65" height="627.94"><g transform="translate(-478.5 -195.68126984783376)" lucid:page-tab-id="0_0"><path d="M839.65 748.8a6 6 0 0 1 6-6h248a6 6 0 0 1 6 6v67.32a6 6 0 0 1-6 6h-248a6 6 0 0 1-6-6z" stroke="#000" stroke-opacity="0" stroke-width="3" fill="#fff" fill-opacity="0"/><use xlink:href="#a" transform="matrix(1,0,0,1,844.6537026513352,747.7901615472988) translate(1.4506172839506632 41.569444444444436)"/><path d="M480 748.8a6 6 0 0 1 6-6h266.15a6 6 0 0 1 6 6V814a6 6 0 0 1-6 6H486a6 6 0 0 1-6-6z" stroke="#000" stroke-opacity="0" stroke-width="3" fill="#fff" fill-opacity="0"/><use xlink:href="#b" transform="matrix(1,0,0,1,485,747.7901615472986) translate(47.73456790123461 41.194444444444436)"/><path d="M480 445.3a6 6 0 0 1 6-6h268.8a6 6 0 0 1 6 6v71.07a6 6 0 0 1-6 6H486a6 6 0 0 1-6-6z" stroke="#000" stroke-opacity="0" stroke-width="3" fill="#fff" fill-opacity="0"/><use xlink:href="#c" transform="matrix(1,0,0,1,485,444.2971913571669) translate(72.53703703703707 44.631944444444436)"/><path d="M880 445.3a6 6 0 0 1 6-6h168a6 6 0 0 1 6 6v67.25a6 6 0 0 1-6 6H886a6 6 0 0 1-6-6z" stroke="#000" stroke-opacity="0" stroke-width="3" fill="#fff" fill-opacity="0"/><use xlink:href="#d" transform="matrix(1,0,0,1,885.0000000000001,444.2971913571669) translate(-3.740740740740705 42.11111111111111)"/><path d="M480 340.04a20 20 0 0 1 20-20h60a20 20 0 0 1 20 20v2a20 20 0 0 1-20 20h-60a20 20 0 0 1-20-20z" stroke="#000" stroke-width="3" fill="url(#e)"/><path d="M480 221.5a20 20 0 0 1 20-20h241.5a20 20 0 0 1 20 20v37.92a20 20 0 0 1-20 20H500a20 20 0 0 1-20-20z" stroke="#000" stroke-width="3" fill="url(#f)"/><path d="M480 398.3h100v42H480z" stroke="#000" stroke-width="3" fill="#979ea8"/><path d="M533 380.53v14.77M527 380.53v14.77M520 383.86l10-17.32 10 17.32m-10-17.32v8.5" stroke="#ba23f6" stroke-width="3" fill="none"/><path d="M534.48 396.8h-2.96v-1.54h2.96zM528.48 396.8h-2.96v-1.54h2.96z" stroke="#ba23f6" stroke-width=".05" fill="#ba23f6"/><path d="M661.5 340.04a20 20 0 0 1 20-20h60a20 20 0 0 1 20 20v2a20 20 0 0 1-20 20h-60a20 20 0 0 1-20-20z" stroke="#000" stroke-width="3" fill="url(#g)"/><path d="M661.5 398.3h100v42h-100z" stroke="#000" stroke-width="3" fill="#979ea8"/><path d="M714.5 365.04v14.77M708.5 365.04v14.77" stroke="#ba23f6" stroke-width="3" fill="none"/><path d="M715.98 365.08H713v-1.54H716zM709.98 365.08H707v-1.54H710z" stroke="#ba23f6" stroke-width=".05" fill="#ba23f6"/><path d="M721.5 376.48l-10 17.32-10-17.32m10 17.32v-8.5M533 297.9v19.14M527 297.9v19.14M520 301.24l10-17.32 10 17.32m-10-17.32v8.5" stroke="#ba23f6" stroke-width="3" fill="none"/><path d="M534.48 318.54h-2.96V317h2.96zM528.48 318.54h-2.96V317h2.96z" stroke="#ba23f6" stroke-width=".05" fill="#ba23f6"/><path d="M714.5 282.42v19.13M708.5 282.42v19.13" stroke="#ba23f6" stroke-width="3" fill="none"/><path d="M715.98 282.46H713v-1.54H716zM709.98 282.46H707v-1.54H710z" stroke="#ba23f6" stroke-width=".05" fill="#ba23f6"/><path d="M721.5 298.22l-10 17.32-10-17.32m10 17.32v-8.5" stroke="#ba23f6" stroke-width="3" fill="none"/><path d="M558.73 239H681.5v42H558.73z" stroke="#000" fill="#ced4db"/><path d="M530 339.16v22.88" stroke="#ba23f6" stroke-width="3" fill="none"/><path d="M530 323.4l4.63 14.26h-9.26z" stroke="#ba23f6" stroke-width="3" fill="#fff"/><path d="M531.48 363.54h-2.96V362h2.96z" stroke="#ba23f6" stroke-width=".05" fill="#ba23f6"/><path d="M711.5 342.92v-22.88" stroke="#ba23f6" stroke-width="3" fill="none"/><path d="M711.5 358.7l-4.63-14.28h9.26z" stroke="#ba23f6" stroke-width="3" fill="#fff"/><path d="M712.98 320.08H710v-1.54H713z" stroke="#ba23f6" stroke-width=".05" fill="#ba23f6"/><path d="M605.5 224l-2.56-1.92-3.13-2.08-3-1.77-2.88-1.5-2.77-1.23-2.67-1.02-2.56-.82-2.46-.64-2.36-.48-2.28-.33-2.2-.2-2.13-.06-2.08.05-2 .15-1.95.26-1.9.38-1.87.46-1.82.57-1.8.67-1.75.77-1.74.88-1.73 1-1.7 1.1-1.68 1.24-1.7 1.38-1.66 1.53-1.66 1.7-1.65 1.9-1.64 2.13-1.64 2.36-1.62 2.65-1.6 2.97-1.55 3.34-1.53 3.78-1.45 4.28-1.35 4.88-1.22 5.57-1.04 6.43-.77 7.43-.37 7.66" stroke="#ba23f6" stroke-width="3" stroke-linejoin="round" fill="none"/><path d="M616.67 235.08l-13.4-6.76 6.54-6.58z" stroke="#ba23f6" stroke-width="3" fill="#fff"/><path d="M531.5 279.4l-.02 1.52h-2.96l.04-1.57z" stroke="#ba23f6" stroke-width=".05" fill="#ba23f6"/><path d="M620.77 237.15l.53-1.12 1.28-2.32 1.37-2.18 1.44-2.06 1.52-1.94 1.6-1.82 1.7-1.7 1.74-1.6 1.83-1.5 1.88-1.4 1.97-1.26 2.02-1.16 2.1-1.05 2.14-.94 2.2-.83 2.26-.7 2.3-.58 2.33-.46 2.36-.33 2.4-.2 2.4-.06 2.43.07 2.42.2 2.42.34 2.42.47 2.4.6 2.37.74 2.35.87 2.32 1.02 2.28 1.14 2.23 1.28 2.2 1.4 2.14 1.57 2.1 1.7 2.03 1.86 1.98 2 1.9 2.18 1.86 2.34 1.8 2.52 1.7 2.72 1.6 2.93 1.54 3.16 1.42 3.43 1.3 3.7 1.2 4 1 4.37.35 1.9" stroke="#ba23f6" stroke-width="3" stroke-linejoin="round" fill="none"/><path d="M622.1 237.75l-.35.75h-3.27l.97-2.03z" stroke="#ba23f6" stroke-width=".05" fill="#ba23f6"/><path d="M711.13 276.08l-5.73-13.87 9.24-.7z" stroke="#ba23f6" stroke-width="3" fill="#fff"/><path d="M859.65 319.9a20 20 0 0 1 20-20h180a20 20 0 0 1 20 20v99.4a20 20 0 0 1-20 20h-180a20 20 0 0 1-20-20z" stroke="#000" stroke-width="3" fill="url(#h)"/><path d="M860 221.5a20 20 0 0 1 20-20h179.65a20 20 0 0 1 20 20v18.4a20 20 0 0 1-20 20H880a20 20 0 0 1-20-20z" stroke="#000" stroke-width="3" fill="url(#i)"/><path d="M912.3 262.9v18.5M906.3 262.9v18.5" stroke="#ba23f6" stroke-width="3" fill="none"/><path d="M913.76 262.94h-2.95v-1.54h2.96zM907.76 262.94h-2.95v-1.54h2.96z" stroke="#ba23f6" stroke-width=".05" fill="#ba23f6"/><path d="M919.3 278.08l-10 17.32-10-17.32m10 17.32v-8.5" stroke="#ba23f6" stroke-width="3" fill="none"/><path d="M1029.73 318.92l-.4 2.45-.97 4.6-1.07 4.22-1.18 3.9-1.25 3.6-1.3 3.34-1.4 3.1-1.4 2.9-1.48 2.67-1.52 2.52-1.54 2.33-1.57 2.17-1.6 2.03-1.63 1.9-1.66 1.77-1.68 1.65-1.7 1.54-1.73 1.45-1.75 1.33-1.77 1.24-1.8 1.14-1.8 1.06-1.85.97-1.87.87-1.9.8-1.9.7-1.93.64-1.97.57-1.98.47-2 .4-2.05.3-2.06.2-2.08.14-2.1.05-2.13-.04-2.15-.14-2.17-.22-2.17-.32-2.2-.4-2.2-.53-2.24-.62-2.24-.72-2.23-.83-2.24-.93-2.24-1.05-2.23-1.16-2.2-1.28-2.22-1.4-2.16-1.5-2.16-1.63-2.13-1.76-2.1-1.88-2.05-2-2-2.14-1.97-2.27-1.9-2.4-1.86-2.53-1.8-2.68-1.7-2.82-1.65-2.97-1.56-3.13-1.47-3.28-1.38-3.45-1.27-3.63-1.15-3.8-1.04-4-.9-4.2-.75-4.4-.6-4.64-.4-4.88-.13-2.45" stroke="#ba23f6" stroke-width="3" stroke-linejoin="round" fill="none"/><path d="M1031.14 303.24l3.34 14.62-9.23-.83z" stroke="#ba23f6" stroke-width="3" fill="#fff"/><path d="M910.35 299.87l-2.95.14-.08-1.6h2.96z" stroke="#ba23f6" stroke-width=".05" fill="#ba23f6"/><path d="M1033.95 278.42l-.17 18.5M1027.95 278.36l-.17 18.5M1020.92 281.63l10.17-17.23 9.82 17.4m-9.83-17.4l-.1 8.5" stroke="#ba23f6" stroke-width="3" fill="none"/><path d="M1035.26 296.9l-.02 1.5h-2.95v-1.52zM1029.26 296.85l-.02 1.55h-2.95v-1.58z" stroke="#ba23f6" stroke-width=".05" fill="#ba23f6"/><path d="M902.23 242.03l-14.8-40.62" stroke="#ba23f6" stroke-width="3" fill="none"/><path d="M907.62 256.84l-9.24-11.82 8.7-3.17z" stroke="#ba23f6" stroke-width="3" fill="#fff"/><path d="M888.83 200.94l-2.78 1-.7-1.94h3.13z" stroke="#ba23f6" stroke-width=".05" fill="#ba23f6"/><path d="M925.7 219.22L909.82 260" stroke="#ba23f6" stroke-width="3" fill="none"/><path d="M931.4 204.52l-.84 14.98-8.64-3.36z" stroke="#ba23f6" stroke-width="3" fill="#fff"/><path d="M911.22 260.5l-.35.9h-3.17l.77-1.97z" stroke="#ba23f6" stroke-width=".05" fill="#ba23f6"/><path d="M1048 219.15L1031.67 260" stroke="#ba23f6" stroke-width="3" fill="none"/><path d="M1053.85 204.5l-1 14.97-8.6-3.43z" stroke="#ba23f6" stroke-width="3" fill="#fff"/><path d="M1033.06 260.52l-.36.88h-3.17l.8-1.98z" stroke="#ba23f6" stroke-width=".05" fill="#ba23f6"/><path d="M558.73 561.5a20 20 0 0 1 20-20h1.5a20 20 0 0 1 20 20v80.62a20 20 0 0 1-20 20h-1.5a20 20 0 0 1-20-20zM637.92 561.5a20 20 0 0 1 20-20h1.5a20 20 0 0 1 20 20v80.62a20 20 0 0 1-20 20h-1.5a20 20 0 0 1-20-20z" stroke="#000" stroke-width="3" fill="#cfe4ff"/><path d="M620.43 604.8h-17.2M620.43 598.8h-17.2" stroke="#ba23f6" stroke-width="3" fill="none"/><path d="M634.92 601.8l-13 7.5v-15z" stroke="#ba23f6" stroke-width="3" fill="#fff"/><path d="M603.27 606.3h-1.54v-2.96h1.54zM603.27 600.3h-1.54v-2.96h1.54z" stroke="#ba23f6" stroke-width=".05" fill="#ba23f6"/><path d="M480 642.84a20 20 0 0 1 20-20h1.5a20 20 0 0 1 20 20v80.62a20 20 0 0 1-20 20H500a20 20 0 0 1-20-20z" stroke="#000" stroke-width="3" fill="#fff"/><path d="M547.22 639.45l-21.02 21.72M542.9 635.28l-21 21.72" stroke="#ba23f6" stroke-width="3" fill="none"/><path d="M555.14 626.95l-3.64 14.55-10.78-10.43z" stroke="#ba23f6" stroke-width="3" fill="#fff"/><path d="M527.3 662.17l-3.17 3.26-1.13-1.1v-1.98l2.17-2.23z" stroke="#ba23f6" stroke-width=".05" fill="#ba23f6"/><path stroke="#ba23f6" stroke-width=".05" fill="#ba23f6"/><path d="M720 642.84a20 20 0 0 1 20-20h1.5a20 20 0 0 1 20 20v80.62a20 20 0 0 1-20 20H740a20 20 0 0 1-20-20z" stroke="#000" stroke-width="3" fill="#fff"/><path d="M703.97 650.92l-24.1-23.87M708.2 646.66l-24.1-23.88" stroke="#ba23f6" stroke-width="3" fill="none"/><path d="M716.37 659l-14.5-3.83 10.55-10.65z" stroke="#ba23f6" stroke-width="3" fill="#fff"/><path d="M680.94 626.03l-.02.02V626zM685.17 621.76l-2.08 2.1-2.18-2.15v-2.1l1.02-1.03z" stroke="#ba23f6" stroke-width=".05" fill="#ba23f6"/><path d="M662.6 615.33l-24.84-12.83" stroke="#ba23f6" stroke-width="3" fill="none"/><path d="M676.6 622.57l-14.8-2.43 4.26-8.24z" stroke="#ba23f6" stroke-width="3" fill="#fff"/><path d="M638.47 601.2l-1.36 2.63-.68-.36v-3.32z" stroke="#ba23f6" stroke-width=".05" fill="#ba23f6"/><path d="M583.4 611.27l-24.84 12.84" stroke="#ba23f6" stroke-width="3" fill="none"/><path d="M597.42 604.04l-10.55 10.66-4.25-8.23z" stroke="#ba23f6" stroke-width="3" fill="#fff"/><path d="M559.27 625.4l-2.04 1.06v-3.32l.7-.36z" stroke="#ba23f6" stroke-width=".05" fill="#ba23f6"/><path d="M859.65 561.5a20 20 0 0 1 20-20h180a20 20 0 0 1 20 20v82.66a20 20 0 0 1-20 20h-180a20 20 0 0 1-20-20z" stroke="#000" stroke-width="3" fill="url(#j)"/><path d="M892.84 646.45l-.3-.78-4.62-13.5-3.18-10.8-2.38-9.5-1.84-8.96-1.45-8.96-1.14-9.54-.83-10.9-.47-13.8.13-17.98" stroke="#ba23f6" stroke-width="3" stroke-linejoin="round" fill="none"/><path d="M898.58 661.14l-9.5-11.6 8.63-3.37z" stroke="#ba23f6" stroke-width="3" fill="#fff"/><path d="M878.23 541.77l-2.95-.02v-1.25l1-.24 1.96-.15z" stroke="#ba23f6" stroke-width=".05" fill="#ba23f6"/><path d="M859.65 701.8h220v42h-220z" stroke="#000" stroke-width="3" fill="#979ea8"/><path d="M935.9 647.42l-5.23-30.7-4.16-13.37-2.34-5.07-1.5-2.38-1.08-1.28-.82-.75-.66-.47-.56-.3-.5-.18-.46-.1-.44-.05-.43.02-.43.06-.46.14-.5.23-.56.35-.67.55-.83.88-1.08 1.5-1.53 2.85-2.36 6.22-3.98 16.98-4.84 42.12" stroke="#ba23f6" stroke-width="2" stroke-linejoin="round" fill="none"/><path d="M938.45 662.47l-6.96-13.3 9.13-1.54z" stroke="#ba23f6" stroke-width="2" fill="#fff"/><path d="M901.43 664.76l-.1.9h-1.97l.13-1.13z" stroke="#ba23f6" stroke-width=".05" fill="#ba23f6"/><path d="M998.18 645.15l-1.96-18.93-4.27-22.8-3.7-13.54-3.05-8.37-2.48-5.38-2.03-3.62-1.7-2.5-1.45-1.8-1.24-1.3-1.08-1-.98-.73-.88-.57-.82-.43-.76-.33-.72-.24-.7-.17-.66-.1-.66-.06h-.65l-.67.06-.67.12-.7.17-.7.25-.76.33-.8.44-.9.57-.95.75-1.08.98-1.22 1.32-1.4 1.78-1.66 2.5-1.98 3.54-2.36 5.26-2.85 8.03-3.35 12.7-3.68 20.54-3.2 33.4-.4 8.17" stroke="#ba23f6" stroke-width="3" stroke-linejoin="round" fill="none"/><path d="M999.8 660.83l-6.07-13.7 9.22-.97z" stroke="#ba23f6" stroke-width="3" fill="#fff"/><path d="M940.54 664.2l-.07 1.46h-2.95l.08-1.6z" stroke="#ba23f6" stroke-width=".05" fill="#ba23f6"/><path d="M1036.85 645.33l-4.5-26.6-4.3-14.07-2.5-5.57-1.66-2.68-1.18-1.46-.9-.86-.72-.55-.6-.34-.56-.22-.5-.13-.46-.07h-.46l-.45.05-.48.1-.52.2-.56.3-.64.45-.76.7-.96 1.12-1.26 1.94-1.8 3.7-2.77 8.18-4.48 22.28-3.38 32.37" stroke="#ba23f6" stroke-width="3" stroke-linejoin="round" fill="none"/><path d="M1039.5 660.88l-6.97-13.3 9.14-1.54z" stroke="#ba23f6" stroke-width="3" fill="#fff"/><path d="M1001.94 664.3l-.15 1.36h-2.97l.17-1.68z" stroke="#ba23f6" stroke-width=".05" fill="#ba23f6"/><path d="M1058.64 560.6l-1.08 22.54-1.66 16.96-1.95 13.8-2.24 12.2-2.55 11.23-2.88 10.57-3.22 10.13-2.24 6.22" stroke="#ba23f6" stroke-width="3" stroke-linejoin="round" fill="none"/><path d="M1059.4 544.85l3.94 14.47-9.26-.44z" stroke="#ba23f6" stroke-width="3" fill="#fff"/><path d="M1042.2 664.72l-.33.94h-3.14l.7-1.94z" stroke="#ba23f6" stroke-width=".05" fill="#ba23f6"/><path d="M899.76 679.67l-.08-12.5" stroke="#ba23f6" stroke-width="3" fill="none"/><path d="M899.86 695.44l-4.73-14.24 9.27-.06z" stroke="#ba23f6" stroke-width="3" fill="#ba23f6"/><path d="M901.16 667.2h-2.95v-1.54h2.95z" stroke="#ba23f6" stroke-width=".05" fill="#ba23f6"/><path d="M939.03 679.67l-.03-12.5" stroke="#ba23f6" stroke-width="3" fill="none"/><path d="M939.08 695.44l-4.68-14.26 9.27-.02z" stroke="#ba23f6" stroke-width="3" fill="#ba23f6"/><path d="M940.48 667.2h-2.96v-1.54h2.95z" stroke="#ba23f6" stroke-width=".05" fill="#ba23f6"/><path d="M1000.27 679.67l.04-12.5" stroke="#ba23f6" stroke-width="3" fill="none"/><path d="M1000.23 695.44l-4.6-14.28 9.27.02z" stroke="#ba23f6" stroke-width="3" fill="#ba23f6"/><path d="M1001.78 667.2h-2.95v-1.54h2.96z" stroke="#ba23f6" stroke-width=".05" fill="#ba23f6"/><path d="M1040.2 679.67l.1-12.5" stroke="#ba23f6" stroke-width="3" fill="none"/><path d="M1040.12 695.44l-4.55-14.3 9.27.06z" stroke="#ba23f6" stroke-width="3" fill="#ba23f6"/><path d="M1041.77 667.2h-2.95v-1.54h2.96z" stroke="#ba23f6" stroke-width=".05" fill="#ba23f6"/><defs><path d="M161-211c-63 0-91 46-91 110 0 39 17 65 58 64 38-1 60-20 74-45l40 20C220-23 184 0 125 4 9 13-10-144 57-208c33-50 166-62 196-1 4 8 9 18 11 27l-48 12c-6-24-25-41-55-41" id="k"/><path d="M124-194c51 0 84 22 84 74C207-44 167 4 94 4 43 4 11-23 11-74c0-74 41-120 113-120zM99-30c46 0 58-42 58-86 0-27-11-44-37-44-44 0-55 40-57 84-1 27 10 45 36 46" id="l"/><path d="M255-194c90 0 29 129 24 194h-49l25-136c-7-39-53-14-60 9-12 38-18 85-28 127h-49l25-136c2-29-39-23-50-7C69-108 68-47 56 0H6l36-190h48c-1 10-6 24-4 32 12-20 27-36 57-36s46 15 50 41c14-21 29-41 62-41" id="m"/><path d="M156-122c2-23-7-37-28-37-47 0-58 44-58 89 0 24 12 40 36 40 43 0 47-49 50-92zM-8 75l50-265h48c0 10-3 24-3 30 22-50 127-45 121 29-6 73-21 135-92 135-29 0-46-14-55-35L41 75H-8" id="n"/><path d="M69 3c-96 0-34-126-28-193h49L65-57c6 42 62 18 71-6 14-38 17-86 28-127h50L178 0h-47c0-11 4-26 3-33-14 20-30 37-65 36" id="o"/><path d="M72-63c-8 23 5 39 32 30L98-1C54 14 12-6 23-64l18-93H15l7-33h28l24-45h31l-8 45h35l-6 33H90" id="p"/><path d="M166-52c-4 17 5 29 24 23l-3 27c-30 11-74 1-67-34C105-15 91 4 56 4 23 4 3-15 2-49c0-64 63-67 128-67 10-22 3-53-29-45-13 3-22 10-25 24l-46-5c5-64 156-77 153 0-1 33-11 60-17 90zM97-88c-44-9-64 57-19 57 31 0 42-28 47-57H97" id="q"/><path d="M50-224l7-37h49l-7 37H50zM6 0l37-190h49L55 0H6" id="r"/><path d="M151-194c95 0 34 128 28 194h-49l25-134c0-29-45-25-59-9C67-111 69-48 56 0H6l36-190h47l-4 32c15-20 33-36 66-36" id="s"/><path d="M6 0l51-261h49L55 0H6" id="t"/><g id="a"><use transform="matrix(0.0987654320987654,0,0,0.0987654320987654,0,0)" xlink:href="#k"/><use transform="matrix(0.0987654320987654,0,0,0.0987654320987654,25.58024691358024,0)" xlink:href="#l"/><use transform="matrix(0.0987654320987654,0,0,0.0987654320987654,47.20987654320986,0)" xlink:href="#m"/><use transform="matrix(0.0987654320987654,0,0,0.0987654320987654,78.81481481481478,0)" xlink:href="#n"/><use transform="matrix(0.0987654320987654,0,0,0.0987654320987654,100.4444444444444,0)" xlink:href="#o"/><use transform="matrix(0.0987654320987654,0,0,0.0987654320987654,122.074074074074,0)" xlink:href="#p"/><use transform="matrix(0.0987654320987654,0,0,0.0987654320987654,133.8271604938271,0)" xlink:href="#q"/><use transform="matrix(0.0987654320987654,0,0,0.0987654320987654,153.5802469135802,0)" xlink:href="#p"/><use transform="matrix(0.0987654320987654,0,0,0.0987654320987654,165.3333333333333,0)" xlink:href="#r"/><use transform="matrix(0.0987654320987654,0,0,0.0987654320987654,175.20987654320982,0)" xlink:href="#l"/><use transform="matrix(0.0987654320987654,0,0,0.0987654320987654,196.83950617283944,0)" xlink:href="#s"/><use transform="matrix(0.0987654320987654,0,0,0.0987654320987654,218.46913580246905,0)" xlink:href="#q"/><use transform="matrix(0.0987654320987654,0,0,0.0987654320987654,238.22222222222214,0)" xlink:href="#t"/></g><path d="M178-136c88 48 22 151-73 140C49-3 12-15 4-64l51-9c1 50 111 53 115 3-16-63-132-20-133-112 0-93 190-91 199-10l-50 12c-4-41-93-50-97-4 7 38 59 32 89 48" id="u"/><path d="M84-151c13-25 34-51 72-40l-8 41C67-170 71-64 56 0H6l36-190h47" id="v"/><path d="M114-194c63-2 87 48 72 110H63c-3 28 1 55 31 54 21-1 32-13 37-29l44 13C160-14 137 4 91 4 41 4 11-22 11-73c0-71 33-119 103-121zm30 77c14-47-50-61-67-22-3 6-6 13-8 22h75" id="w"/><path d="M45-171c29-32 103-29 114 14 2-11 5-23 8-33h47L176-2c-3 70-92 96-155 64C9 56 1 42-1 25l50-5c2 28 48 27 63 11 13-13 20-45 21-66-13 20-30 35-62 36-87 3-60-134-26-172zM94-35c41-3 55-43 55-86 0-24-12-39-35-39-43 0-51 48-51 90 0 22 9 37 31 35" id="x"/><g id="b"><use transform="matrix(0.0987654320987654,0,0,0.0987654320987654,0,0)" xlink:href="#u"/><use transform="matrix(0.0987654320987654,0,0,0.0987654320987654,23.703703703703695,0)" xlink:href="#p"/><use transform="matrix(0.0987654320987654,0,0,0.0987654320987654,35.45679012345678,0)" xlink:href="#v"/><use transform="matrix(0.0987654320987654,0,0,0.0987654320987654,49.283950617283935,0)" xlink:href="#w"/><use transform="matrix(0.0987654320987654,0,0,0.0987654320987654,69.03703703703701,0)" xlink:href="#q"/><use transform="matrix(0.0987654320987654,0,0,0.0987654320987654,88.79012345679008,0)" xlink:href="#m"/><use transform="matrix(0.0987654320987654,0,0,0.0987654320987654,120.39506172839499,0)" xlink:href="#r"/><use transform="matrix(0.0987654320987654,0,0,0.0987654320987654,130.27160493827154,0)" xlink:href="#s"/><use transform="matrix(0.0987654320987654,0,0,0.0987654320987654,151.90123456790116,0)" xlink:href="#x"/></g><g id="c"><use transform="matrix(0.0987654320987654,0,0,0.0987654320987654,0,0)" xlink:href="#k"/><use transform="matrix(0.0987654320987654,0,0,0.0987654320987654,25.58024691358024,0)" xlink:href="#l"/><use transform="matrix(0.0987654320987654,0,0,0.0987654320987654,47.20987654320986,0)" xlink:href="#s"/><use transform="matrix(0.0987654320987654,0,0,0.0987654320987654,68.83950617283948,0)" xlink:href="#p"/><use transform="matrix(0.0987654320987654,0,0,0.0987654320987654,80.59259259259255,0)" xlink:href="#v"/><use transform="matrix(0.0987654320987654,0,0,0.0987654320987654,94.4197530864197,0)" xlink:href="#l"/><use transform="matrix(0.0987654320987654,0,0,0.0987654320987654,116.04938271604932,0)" xlink:href="#t"/></g><path d="M6 0l48-248h52L58 0H6" id="y"/><path d="M67-101c-8 29-7 73 27 71 23-2 32-16 39-37l48 9C170-19 141 4 91 4 36 4 7-28 12-86c6-75 61-124 140-103 26 7 40 29 43 59l-50 4c-1-20-9-34-29-34-35 0-41 29-49 59" id="z"/><path d="M109 0H50L19-190h51L86-37l77-153h54" id="A"/><g id="d"><use transform="matrix(0.0987654320987654,0,0,0.0987654320987654,0,0)" xlink:href="#y"/><use transform="matrix(0.0987654320987654,0,0,0.0987654320987654,9.876543209876539,0)" xlink:href="#s"/><use transform="matrix(0.0987654320987654,0,0,0.0987654320987654,31.506172839506164,0)" xlink:href="#p"/><use transform="matrix(0.0987654320987654,0,0,0.0987654320987654,43.259259259259245,0)" xlink:href="#w"/><use transform="matrix(0.0987654320987654,0,0,0.0987654320987654,63.01234567901233,0)" xlink:href="#v"/><use transform="matrix(0.0987654320987654,0,0,0.0987654320987654,76.83950617283948,0)" xlink:href="#q"/><use transform="matrix(0.0987654320987654,0,0,0.0987654320987654,96.59259259259255,0)" xlink:href="#z"/><use transform="matrix(0.0987654320987654,0,0,0.0987654320987654,116.34567901234561,0)" xlink:href="#p"/><use transform="matrix(0.0987654320987654,0,0,0.0987654320987654,128.0987654320987,0)" xlink:href="#r"/><use transform="matrix(0.0987654320987654,0,0,0.0987654320987654,137.97530864197523,0)" xlink:href="#A"/><use transform="matrix(0.0987654320987654,0,0,0.0987654320987654,157.72839506172832,0)" xlink:href="#w"/></g><linearGradient gradientUnits="userSpaceOnUse" id="e" x1="480" y1="362.04" x2="480" y2="320.04"><stop offset="27.9%" stop-color="#ced4db"/><stop offset="35.87%" stop-color="#fff"/></linearGradient><linearGradient gradientUnits="userSpaceOnUse" id="f" x1="480" y1="279.42" x2="480" y2="201.5"><stop offset="39.49%" stop-color="#cfe4ff"/><stop offset="54.71%" stop-color="#c3f7c8"/></linearGradient><linearGradient gradientUnits="userSpaceOnUse" id="g" x1="661.5" y1="362.04" x2="661.5" y2="320.04"><stop offset="27.9%" stop-color="#ced4db"/><stop offset="35.87%" stop-color="#fff"/></linearGradient><linearGradient gradientUnits="userSpaceOnUse" id="h" x1="859.65" y1="439.3" x2="859.65" y2="299.9"><stop offset="19.93%" stop-color="#ced4db"/><stop offset="27.17%" stop-color="#cfe4ff"/><stop offset="68.12%" stop-color="#cfe4ff"/><stop offset="75%" stop-color="#c3f7c8"/></linearGradient><linearGradient gradientUnits="userSpaceOnUse" id="i" x1="860" y1="201.5" x2="860" y2="259.9"><stop offset="60.51%" stop-color="#fff"/><stop offset="86.59%" stop-color="#ced4db"/></linearGradient><linearGradient gradientUnits="userSpaceOnUse" id="j" x1="859.65" y1="664.16" x2="859.65" y2="541.5"><stop offset="15.22%" stop-color="#ced4db"/><stop offset="24.28%" stop-color="#fff"/><stop offset="41.3%" stop-color="#fff"/><stop offset="51.81%" stop-color="#cfe4ff"/><stop offset="74.28%" stop-color="#cfe4ff"/><stop offset="82.97%" stop-color="#c3f7c8"/></linearGradient></defs></g></svg>