<svg xmlns="http://www.w3.org/2000/svg" xmlns:lucid="lucid" width="262.62" height="263"><g lucid:page-tab-id="0_0"><path d="M41.03 183.5a20 20 0 0 1 20-20h20a20 20 0 0 1 20 20v2a20 20 0 0 1-20 20h-20a20 20 0 0 1-20-20zM1.5 102.5a20 20 0 0 1 20-20h219.53a20 20 0 0 1 20 20v2a20 20 0 0 1-20 20H21.5a20 20 0 0 1-20-20z" stroke="#000" stroke-width="3" fill="#fff"/><path d="M1.5 21.5a20 20 0 0 1 20-20h219.62a20 20 0 0 1 20 20v2a20 20 0 0 1-20 20H21.5a20 20 0 0 1-20-20z" stroke="#000" stroke-width="3" fill="#c3f7c8"/><path d="M131.3 62.5V46" stroke="#000" stroke-width="2" fill="none"/><path d="M131.28 77.76l-4.63-14.26h9.27z" stroke="#000" stroke-width="2" fill="#fff"/><path d="M132.27 46.03h-1.95V45h1.95z" stroke="#000" stroke-width=".05"/><path d="M41.03 207.25h60v40h-60z" stroke="#000" stroke-width="3" fill="#979ea8"/><path d="M1.5 201.5a20 20 0 0 1 20-20h19.53a20 20 0 0 1 20 20v2a20 20 0 0 1-20 20H21.5a20 20 0 0 1-20-20z" stroke="#000" stroke-width="3" fill="#fff"/><path d="M204.97 142.38l-13.56 38.68" stroke="#ba23f6" stroke-width="2" fill="none"/><path d="M210 127.97l-.33 15-8.75-3.07z" stroke="#ba23f6" stroke-width="2" fill="#fff"/><path d="M192.34 181.35l-.22.65h-2.07l.45-1.3z" stroke="#ba23f6" stroke-width=".05" fill="#ba23f6"/><path d="M8.78 82.75l243.5-.25M8.87 82.75h-3.6M252.2 82.5h3.58" stroke="#000" stroke-width="7" fill="none"/><path d="M44.93 143.34L31.6 179.06" stroke="#ba23f6" stroke-width="2" fill="none"/><path d="M50.26 129.03l-.64 15-8.68-3.25z" stroke="#ba23f6" stroke-width="2" fill="#fff"/><path d="M32.54 179.38l-.23.62h-2.08l.5-1.3z" stroke="#ba23f6" stroke-width=".05" fill="#ba23f6"/><path d="M184.58 124.92h53M184.67 124.92h-3.6M237.5 124.92h3.58" stroke="#ba23f6" stroke-width="7" fill="none"/><path d="M1.5 222.5h60v39h-60z" stroke="#000" stroke-width="3" fill="#979ea8"/><path d="M60.25 142.24l10.3 18.88" stroke="#ba23f6" stroke-width="2" fill="none"/><path d="M52.94 128.84l10.9 10.3-8.14 4.44z" stroke="#ba23f6" stroke-width="2" fill="#fff"/><path d="M72.14 162h-2.22l-.24-.43 1.72-.94z" stroke="#ba23f6" stroke-width=".05" fill="#ba23f6"/><path d="M201.12 183.5a20 20 0 0 1 20-20h19.9a20 20 0 0 1 20 20v1.75a20 20 0 0 1-20 20h-19.9a20 20 0 0 1-20-20z" stroke="#000" stroke-width="3" fill="#fff"/><path d="M219.4 141.07l11.2 20.06" stroke="#ba23f6" stroke-width="2" fill="none"/><path d="M211.94 127.74l11 10.2-8.1 4.52z" stroke="#ba23f6" stroke-width="2" fill="#fff"/><path d="M232.2 162h-2.24l-.24-.42 1.7-.95z" stroke="#ba23f6" stroke-width=".05" fill="#ba23f6"/><path d="M201.12 205.5h59.9v41.75h-59.9z" stroke="#000" stroke-width="3" fill="#979ea8"/><path d="M161.08 203a19.5 19.5 0 0 1 19.5-19.5h21a19.5 19.5 0 0 1 19.5 19.5 19.5 19.5 0 0 1-19.5 19.5h-21a19.5 19.5 0 0 1-19.5-19.5z" stroke="#000" stroke-width="3" fill="#fff"/><path d="M161.08 222.5h60v39h-60z" stroke="#000" stroke-width="3" fill="#979ea8"/><path d="M24.53 124.5h54M24.62 124.5h-3.6M78.44 124.5h3.6" stroke="#ba23f6" stroke-width="7" fill="none"/></g></svg>