<svg xmlns="http://www.w3.org/2000/svg" xmlns:xlink="http://www.w3.org/1999/xlink" xmlns:lucid="lucid" width="763" height="703.62"><g transform="translate(-698.5 -298.5)" lucid:page-tab-id="0_0"><path d="M700 520a20 20 0 0 1 20-20h260a20 20 0 0 1 20 20 20 20 0 0 1-20 20H720a20 20 0 0 1-20-20z" stroke="#000" stroke-width="3" fill="#ced4db"/><path d="M700 400.5a20 20 0 0 1 20-20h260a20 20 0 0 1 20 20V440a20 20 0 0 1-20 20H720a20 20 0 0 1-20-20z" stroke="#000" stroke-width="3" fill="url(#a)"/><path d="M700 320a20 20 0 0 1 20-20h260a20 20 0 0 1 20 20v2a20 20 0 0 1-20 20H720a20 20 0 0 1-20-20z" stroke="#000" stroke-width="3" fill="#c3f7c8"/><path d="M850 477.88V463" stroke="#000" stroke-width="3" fill="none"/><path d="M850 493.65l-4.63-14.27h9.26z" stroke="#000" stroke-width="3"/><path d="M851.48 463.04h-2.96v-1.54h2.96z" stroke="#000" stroke-width=".05"/><path d="M850 358.38V345" stroke="#000" stroke-width="3" fill="none"/><path d="M850 374.15l-4.63-14.27h9.26z" stroke="#000" stroke-width="3"/><path d="M851.48 345.04h-2.96v-1.54h2.96z" stroke="#000" stroke-width=".05"/><path d="M700 566a6 6 0 0 1 6-6h284.92a6 6 0 0 1 6 6v49a6 6 0 0 1-6 6H706a6 6 0 0 1-6-6z" stroke="#000" stroke-opacity="0" stroke-width="3" fill="#fff" fill-opacity="0"/><use xlink:href="#b" transform="matrix(1,0,0,1,705,565) translate(86.26543209876546 31.694444444444436)"/><path d="M1100 360a20 20 0 0 1 20-20h40a20 20 0 0 1 20 20v160a20 20 0 0 1-20 20h-40a20 20 0 0 1-20-20z" stroke="#000" stroke-width="3" fill="url(#c)"/><path d="M1240 359.38a20 20 0 0 1 20-20h40a20 20 0 0 1 20 20v160a20 20 0 0 1-20 20h-40a20 20 0 0 1-20-20z" stroke="#000" stroke-width="3" fill="url(#d)"/><path d="M1380 359.38a20 20 0 0 1 20-20h40a20 20 0 0 1 20 20v160a20 20 0 0 1-20 20h-40a20 20 0 0 1-20-20z" stroke="#000" stroke-width="3" fill="url(#e)"/><path d="M1221.54 442.56l-23.02.25M1221.48 436.56l-23.02.25M1218.07 429.6l17.43 9.8-17.2 10.2m17.2-10.2l-8.5.1M1201.93 449.78l-17.43-9.8 17.2-10.2m-17.2 10.2l8.5-.1M1361.5 442.38h-23M1361.5 436.38h-23M1358.18 429.38l17.32 10-17.32 10m17.32-10h-8.5M1341.82 449.38l-17.32-10 17.32-10m-17.32 10h8.5" stroke="#000" stroke-width="3" fill="none"/><path d="M1100 565a6 6 0 0 1 6-6h308a6 6 0 0 1 6 6v49a6 6 0 0 1-6 6h-308a6 6 0 0 1-6-6z" stroke="#000" stroke-opacity="0" stroke-width="3" fill="#fff" fill-opacity="0"/><use xlink:href="#f" transform="matrix(1,0,0,1,1105,563.9999919590641) translate(81.91358024691361 31.694444444444436)"/><path d="M720 780.62a20 20 0 0 1 20-20h40a20 20 0 0 1 20 20v20a20 20 0 0 1-20 20h-40a20 20 0 0 1-20-20z" stroke="#000" stroke-width="3" fill="url(#g)"/><path d="M900 780.62a20 20 0 0 1 20-20h40a20 20 0 0 1 20 20v20a20 20 0 0 1-20 20h-40a20 20 0 0 1-20-20z" stroke="#000" stroke-width="3" fill="url(#h)"/><path d="M781.85 680.62a20 20 0 0 1 20-20h100a20 20 0 0 1 20 20v17.67a20 20 0 0 1-20 20h-100a20 20 0 0 1-20-20z" stroke="#000" stroke-width="3" fill="url(#i)"/><path d="M853.2 720.4l67.97 30.32" stroke="#000" stroke-width="3" fill="none"/><path d="M852.65 721.76l-4.14-1.85.06-.1h4.97z" stroke="#000" stroke-width=".05"/><path d="M935.57 757.15l-14.92-1.58 3.78-8.47z" stroke="#000" stroke-width="3"/><path d="M850.47 720.38L778.97 751" stroke="#000" stroke-width="3" fill="none"/><path d="M855.18 719.97l-4.17 1.78-.83-1.96h4.94z" stroke="#000" stroke-width=".05"/><path d="M764.46 757.2l11.3-9.86 3.64 8.52z" stroke="#000" stroke-width="3"/><path d="M960 880.62a20 20 0 0 1 20-20 20 20 0 0 1 20 20v20a20 20 0 0 1-20 20 20 20 0 0 1-20-20z" stroke="#000" stroke-width="3" fill="url(#j)"/><path d="M881.85 880.62a20 20 0 0 1 20-20 20 20 0 0 1 20 20v20a20 20 0 0 1-20 20 20 20 0 0 1-20-20z" stroke="#000" stroke-width="3" fill="url(#k)"/><path d="M780 880.62a20 20 0 0 1 20-20 20 20 0 0 1 20 20v20a20 20 0 0 1-20 20 20 20 0 0 1-20-20z" stroke="#000" stroke-width="3" fill="url(#l)"/><path d="M700 880.62a20 20 0 0 1 20-20 20 20 0 0 1 20 20v20a20 20 0 0 1-20 20 20 20 0 0 1-20-20z" stroke="#000" stroke-width="3" fill="url(#m)"/><path d="M941.1 823.14l23.76 21.98" stroke="#000" stroke-width="3" fill="none"/><path d="M940.13 824.25l-2.3-2.13h4.27z" stroke="#000" stroke-width=".05"/><path d="M976.44 855.82l-13.62-6.28 6.3-6.8z" stroke="#000" stroke-width="3"/><path d="M938.92 823.17l-22.27 21.6" stroke="#000" stroke-width="3" fill="none"/><path d="M939.92 824.25l-2.05-2.1v-.03h4.25z" stroke="#000" stroke-width=".05"/><path d="M905.33 855.74l7.02-13.26 6.45 6.66z" stroke="#000" stroke-width="3"/><path d="M761.1 823.14l23.76 21.98" stroke="#000" stroke-width="3" fill="none"/><path d="M760.13 824.25l-2.3-2.13h4.27z" stroke="#000" stroke-width=".05"/><path d="M796.44 855.82l-13.62-6.28 6.3-6.8z" stroke="#000" stroke-width="3"/><path d="M758.9 823.14l-23.76 21.98" stroke="#000" stroke-width="3" fill="none"/><path d="M759.87 824.25l-1.97-2.13h4.27z" stroke="#000" stroke-width=".05"/><path d="M723.56 855.82l7.33-13.1 6.28 6.82z" stroke="#000" stroke-width="3"/><path d="M700 946a6 6 0 0 1 6-6h288a6 6 0 0 1 6 6v48a6 6 0 0 1-6 6H706a6 6 0 0 1-6-6z" stroke="#000" stroke-opacity="0" stroke-width="3" fill="#fff" fill-opacity="0"/><use xlink:href="#n" transform="matrix(1,0,0,1,705,945) translate(63.123456790123484 31.631944444444436)"/><path d="M1179.3 680a20 20 0 0 1 20-20h1.5a20 20 0 0 1 20 20v80.62a20 20 0 0 1-20 20h-1.5a20 20 0 0 1-20-20zM1260 680a20 20 0 0 1 20-20h1.5a20 20 0 0 1 20 20v80.62a20 20 0 0 1-20 20h-1.5a20 20 0 0 1-20-20zM1338.5 680a20 20 0 0 1 20-20h1.5a20 20 0 0 1 20 20v80.62a20 20 0 0 1-20 20h-1.5a20 20 0 0 1-20-20z" stroke="#000" stroke-width="3" fill="#cfe4ff"/><path d="M1241 723.3h-17.2M1241 717.3h-17.2" stroke="#008a0e" stroke-width="3" fill="none"/><path d="M1255.5 720.3l-13 7.5v-15z" stroke="#008a0e" stroke-width="3" fill="#fff"/><path d="M1223.85 724.8h-1.54v-2.96h1.55zM1223.85 718.8h-1.54v-2.96h1.55z" stroke="#008a0e" stroke-width=".05" fill="#008a0e"/><path d="M1319.5 723.3h-15M1319.5 717.3h-15" stroke="#008a0e" stroke-width="3" fill="none"/><path d="M1334 720.3l-13 7.5v-15z" stroke="#008a0e" stroke-width="3" fill="#fff"/><path d="M1304.54 724.8H1303v-2.96h1.54zM1304.54 718.8H1303v-2.96h1.54z" stroke="#008a0e" stroke-width=".05" fill="#008a0e"/><path d="M1100 820a20 20 0 0 1 20-20h1.5a20 20 0 0 1 20 20v80.62a20 20 0 0 1-20 20h-1.5a20 20 0 0 1-20-20z" stroke="#000" stroke-width="3" fill="#fff"/><path d="M1171.8 776.3l-25.45 44.9M1166.58 773.33l-25.45 44.92" stroke="#008a0e" stroke-width="3" fill="none"/><path d="M1176.33 762.2l.12 15-13.05-7.4z" stroke="#008a0e" stroke-width="3" fill="#fff"/><path d="M1147.65 821.9l-2.24 3.95-2.4-1.37v-.35l2.1-3.68z" stroke="#008a0e" stroke-width=".05" fill="#008a0e"/><path stroke="#008a0e" stroke-width=".05" fill="#008a0e"/><path d="M1418.5 820a20 20 0 0 1 20-20h1.5a20 20 0 0 1 20 20v80.62a20 20 0 0 1-20 20h-1.5a20 20 0 0 1-20-20z" stroke="#000" stroke-width="3" fill="#fff"/><path d="M1405.72 807.68l-26.08-45.64M1410.93 804.7l-26.08-45.64" stroke="#008a0e" stroke-width="3" fill="none"/><path d="M1415.5 818.77l-12.94-7.56 13.02-7.43z" stroke="#008a0e" stroke-width="3" fill="#fff"/><path stroke="#008a0e" stroke-width=".05" fill="#008a0e"/><path d="M1386.15 758.37l-2.56 1.46-2.1-3.65v-.4l2.4-1.36z" stroke="#008a0e" stroke-width=".05" fill="#008a0e"/><path d="M1100 946a6 6 0 0 1 6-6h308.75a6 6 0 0 1 6 6v48.62a6 6 0 0 1-6 6H1106a6 6 0 0 1-6-6z" stroke="#000" stroke-opacity="0" stroke-width="3" fill="#fff" fill-opacity="0"/><use xlink:href="#o" transform="matrix(1,0,0,1,1105,945) translate(87.45061728395063 31.631944444444436)"/><path d="M1417 320.9V316a3 3 0 0 0-3-3h-268a3 3 0 0 0-3 3v5.5" stroke="#000" stroke-width="3" fill="none"/><path d="M1423 320.9V316a9 9 0 0 0-9-9h-268a9 9 0 0 0-9 9v5.5" stroke="#000" stroke-width="3" fill="none"/><path d="M1430 317.56l-10 17.32-10-17.32m10 17.32v-8.5M1150 318.18l-10 17.32-10-17.32m10 17.32V327" stroke="#000" stroke-width="3" fill="none"/><defs><linearGradient gradientUnits="userSpaceOnUse" id="a" x1="700" y1="460" x2="700" y2="380.5"><stop offset="18.48%" stop-color="#fff"/><stop offset="24.28%" stop-color="#cfe4ff"/></linearGradient><path d="M6 0l48-248h52L66-40h133l-8 40H6" id="p"/><path d="M166-52c-4 17 5 29 24 23l-3 27c-30 11-74 1-67-34C105-15 91 4 56 4 23 4 3-15 2-49c0-64 63-67 128-67 10-22 3-53-29-45-13 3-22 10-25 24l-46-5c5-64 156-77 153 0-1 33-11 60-17 90zM97-88c-44-9-64 57-19 57 31 0 42-28 47-57H97" id="q"/><path d="M100 10C77 47 50 87-15 72l7-35c37 9 51-18 65-41L20-190h51L89-44l73-146h53" id="r"/><path d="M114-194c63-2 87 48 72 110H63c-3 28 1 55 31 54 21-1 32-13 37-29l44 13C160-14 137 4 91 4 41 4 11-22 11-73c0-71 33-119 103-121zm30 77c14-47-50-61-67-22-3 6-6 13-8 22h75" id="s"/><path d="M84-151c13-25 34-51 72-40l-8 41C67-170 71-64 56 0H6l36-190h47" id="t"/><path d="M144-137c-1-29-70-35-71-2 16 41 103 10 103 80C176 9 79 16 32-9 18-17 9-31 4-48l44-6c3 32 80 36 82 1-15-42-103-11-103-82 0-77 157-79 161-8" id="u"/><g id="b"><use transform="matrix(0.0987654320987654,0,0,0.0987654320987654,0,0)" xlink:href="#p"/><use transform="matrix(0.0987654320987654,0,0,0.0987654320987654,21.629629629629623,0)" xlink:href="#q"/><use transform="matrix(0.0987654320987654,0,0,0.0987654320987654,41.3827160493827,0)" xlink:href="#r"/><use transform="matrix(0.0987654320987654,0,0,0.0987654320987654,61.13580246913578,0)" xlink:href="#s"/><use transform="matrix(0.0987654320987654,0,0,0.0987654320987654,80.88888888888886,0)" xlink:href="#t"/><use transform="matrix(0.0987654320987654,0,0,0.0987654320987654,94.71604938271601,0)" xlink:href="#u"/></g><linearGradient gradientUnits="userSpaceOnUse" id="c" x1="1100" y1="540" x2="1100" y2="340"><stop offset="19.2%" stop-color="#ced4db"/><stop offset="26.45%" stop-color="#fff"/><stop offset="45.29%" stop-color="#fff"/><stop offset="52.54%" stop-color="#cfe4ff"/><stop offset="73.91%" stop-color="#cfe4ff"/><stop offset="82.97%" stop-color="#c3f7c8"/></linearGradient><linearGradient gradientUnits="userSpaceOnUse" id="d" x1="1240" y1="539.38" x2="1240" y2="339.38"><stop offset="19.2%" stop-color="#ced4db"/><stop offset="26.45%" stop-color="#fff"/><stop offset="45.29%" stop-color="#fff"/><stop offset="52.54%" stop-color="#cfe4ff"/><stop offset="73.91%" stop-color="#cfe4ff"/><stop offset="82.97%" stop-color="#c3f7c8"/></linearGradient><linearGradient gradientUnits="userSpaceOnUse" id="e" x1="1380" y1="539.38" x2="1380" y2="339.38"><stop offset="19.2%" stop-color="#ced4db"/><stop offset="26.45%" stop-color="#fff"/><stop offset="45.29%" stop-color="#fff"/><stop offset="52.54%" stop-color="#cfe4ff"/><stop offset="73.91%" stop-color="#cfe4ff"/><stop offset="82.97%" stop-color="#c3f7c8"/></linearGradient><path d="M178-136c88 48 22 151-73 140C49-3 12-15 4-64l51-9c1 50 111 53 115 3-16-63-132-20-133-112 0-93 190-91 199-10l-50 12c-4-41-93-50-97-4 7 38 59 32 89 48" id="v"/><path d="M109 0H50L19-190h51L86-37l77-153h54" id="w"/><path d="M50-224l7-37h49l-7 37H50zM6 0l37-190h49L55 0H6" id="x"/><path d="M67-101c-8 29-7 73 27 71 23-2 32-16 39-37l48 9C170-19 141 4 91 4 36 4 7-28 12-86c6-75 61-124 140-103 26 7 40 29 43 59l-50 4c-1-20-9-34-29-34-35 0-41 29-49 59" id="y"/><g id="f"><use transform="matrix(0.0987654320987654,0,0,0.0987654320987654,0,0)" xlink:href="#v"/><use transform="matrix(0.0987654320987654,0,0,0.0987654320987654,23.703703703703695,0)" xlink:href="#s"/><use transform="matrix(0.0987654320987654,0,0,0.0987654320987654,43.45679012345677,0)" xlink:href="#t"/><use transform="matrix(0.0987654320987654,0,0,0.0987654320987654,57.28395061728393,0)" xlink:href="#w"/><use transform="matrix(0.0987654320987654,0,0,0.0987654320987654,77.03703703703701,0)" xlink:href="#x"/><use transform="matrix(0.0987654320987654,0,0,0.0987654320987654,86.91358024691355,0)" xlink:href="#y"/><use transform="matrix(0.0987654320987654,0,0,0.0987654320987654,106.66666666666663,0)" xlink:href="#s"/><use transform="matrix(0.0987654320987654,0,0,0.0987654320987654,126.41975308641972,0)" xlink:href="#u"/></g><linearGradient gradientUnits="userSpaceOnUse" id="g" x1="720" y1="820.62" x2="720" y2="760.62"><stop offset="17.5%" stop-color="#ced4db"/><stop offset="23.93%" stop-color="#fff"/><stop offset="44.29%" stop-color="#fff"/><stop offset="52.14%" stop-color="#cfe4ff"/><stop offset="71.74%" stop-color="#cfe4ff"/><stop offset="84.42%" stop-color="#c3f7c8"/></linearGradient><linearGradient gradientUnits="userSpaceOnUse" id="h" x1="900" y1="820.62" x2="900" y2="760.62"><stop offset="17.5%" stop-color="#ced4db"/><stop offset="23.93%" stop-color="#fff"/><stop offset="44.29%" stop-color="#fff"/><stop offset="52.14%" stop-color="#cfe4ff"/><stop offset="71.74%" stop-color="#cfe4ff"/><stop offset="84.42%" stop-color="#c3f7c8"/></linearGradient><linearGradient gradientUnits="userSpaceOnUse" id="i" x1="781.85" y1="660.62" x2="781.85" y2="718.29"><stop offset="56.16%" stop-color="#c3f7c8"/><stop offset="75.72%" stop-color="#cfe4ff"/></linearGradient><linearGradient gradientUnits="userSpaceOnUse" id="j" x1="960" y1="920.62" x2="960" y2="860.62"><stop offset="27.9%" stop-color="#ced4db"/><stop offset="36.07%" stop-color="#fff"/><stop offset="66.79%" stop-color="#fff"/><stop offset="75.36%" stop-color="#cfe4ff"/></linearGradient><linearGradient gradientUnits="userSpaceOnUse" id="k" x1="881.85" y1="920.62" x2="881.85" y2="860.62"><stop offset="27.9%" stop-color="#ced4db"/><stop offset="36.07%" stop-color="#fff"/><stop offset="66.79%" stop-color="#fff"/><stop offset="75.36%" stop-color="#cfe4ff"/></linearGradient><linearGradient gradientUnits="userSpaceOnUse" id="l" x1="780" y1="920.62" x2="780" y2="860.62"><stop offset="27.9%" stop-color="#ced4db"/><stop offset="36.07%" stop-color="#fff"/><stop offset="66.79%" stop-color="#fff"/><stop offset="75.36%" stop-color="#cfe4ff"/></linearGradient><linearGradient gradientUnits="userSpaceOnUse" id="m" x1="700" y1="920.62" x2="700" y2="860.62"><stop offset="27.9%" stop-color="#ced4db"/><stop offset="36.07%" stop-color="#fff"/><stop offset="66.79%" stop-color="#fff"/><stop offset="75.36%" stop-color="#cfe4ff"/></linearGradient><path d="M168 0l21-106H79L58 0H6l48-248h52l-19 99h110l19-99h50L218 0h-50" id="z"/><path d="M150-105c8-23 8-54-22-51-68 7-54 98-72 156H6l50-261h50L85-158c15-20 33-36 66-36 95 0 34 128 28 194h-49" id="A"/><g id="n"><use transform="matrix(0.0987654320987654,0,0,0.0987654320987654,0,0)" xlink:href="#z"/><use transform="matrix(0.0987654320987654,0,0,0.0987654320987654,25.58024691358024,0)" xlink:href="#x"/><use transform="matrix(0.0987654320987654,0,0,0.0987654320987654,35.45679012345678,0)" xlink:href="#s"/><use transform="matrix(0.0987654320987654,0,0,0.0987654320987654,55.20987654320986,0)" xlink:href="#t"/><use transform="matrix(0.0987654320987654,0,0,0.0987654320987654,69.03703703703701,0)" xlink:href="#q"/><use transform="matrix(0.0987654320987654,0,0,0.0987654320987654,88.79012345679008,0)" xlink:href="#t"/><use transform="matrix(0.0987654320987654,0,0,0.0987654320987654,102.61728395061722,0)" xlink:href="#y"/><use transform="matrix(0.0987654320987654,0,0,0.0987654320987654,122.37037037037031,0)" xlink:href="#A"/><use transform="matrix(0.0987654320987654,0,0,0.0987654320987654,143.99999999999994,0)" xlink:href="#r"/></g><path d="M241-173c-1 82-78 91-166 86L58 0H6l48-248c87 0 188-12 187 75zm-53 2c0-43-48-36-90-36l-15 80c50 0 105 7 105-44" id="B"/><path d="M156-122c2-23-7-37-28-37-47 0-58 44-58 89 0 24 12 40 36 40 43 0 47-49 50-92zM-8 75l50-265h48c0 10-3 24-3 30 22-50 127-45 121 29-6 73-21 135-92 135-29 0-46-14-55-35L41 75H-8" id="C"/><path d="M6 0l51-261h49L55 0H6" id="D"/><path d="M151-194c95 0 34 128 28 194h-49l25-134c0-29-45-25-59-9C67-111 69-48 56 0H6l36-190h47l-4 32c15-20 33-36 66-36" id="E"/><g id="o"><use transform="matrix(0.0987654320987654,0,0,0.0987654320987654,0,0)" xlink:href="#B"/><use transform="matrix(0.0987654320987654,0,0,0.0987654320987654,23.703703703703695,0)" xlink:href="#x"/><use transform="matrix(0.0987654320987654,0,0,0.0987654320987654,33.58024691358023,0)" xlink:href="#C"/><use transform="matrix(0.0987654320987654,0,0,0.0987654320987654,55.20987654320986,0)" xlink:href="#s"/><use transform="matrix(0.0987654320987654,0,0,0.0987654320987654,74.96296296296293,0)" xlink:href="#D"/><use transform="matrix(0.0987654320987654,0,0,0.0987654320987654,84.83950617283948,0)" xlink:href="#x"/><use transform="matrix(0.0987654320987654,0,0,0.0987654320987654,94.71604938271602,0)" xlink:href="#E"/><use transform="matrix(0.0987654320987654,0,0,0.0987654320987654,116.34567901234564,0)" xlink:href="#s"/></g></defs></g></svg>