<svg xmlns="http://www.w3.org/2000/svg" xmlns:lucid="lucid" width="443" height="343"><g transform="translate(-498.5 -398.5)" lucid:page-tab-id="0_0"><path d="M520 560a20 20 0 0 1 20-20h140a20 20 0 0 1 20 20v40a20 20 0 0 1-20 20H540a20 20 0 0 1-20-20z" stroke="#000" stroke-width="3" fill="url(#a)"/><path d="M820 560a20 20 0 0 1 20-20h60a20 20 0 0 1 20 20v40a20 20 0 0 1-20 20h-60a20 20 0 0 1-20-20z" stroke="#000" stroke-width="3" fill="url(#b)"/><path d="M660 420a20 20 0 0 1 20-20h140a20 20 0 0 1 20 20v40a20 20 0 0 1-20 20H680a20 20 0 0 1-20-20z" stroke="#000" stroke-width="3" fill="url(#c)"/><path d="M763.65 485.77l94.42 44.85M761.93 489.38l94.42 44.85M763.16 498.82l-11.35-16.46 19.94-1.6m-19.93 1.6l7.68 3.64M856.84 521.18l11.35 16.46-19.94 1.6m19.93-1.6L860.5 534M737.64 488.7L623.87 535M736.13 485l-113.77 46.3M728.34 479.52l19.8 2.73-12.26 15.8m12.27-15.8l-7.88 3.2M631.66 540.48l-19.8-2.73 12.26-15.8m-12.27 15.8l7.88-3.2" stroke="#1071e5" stroke-width="2" fill="none"/><path d="M500 700a20 20 0 0 1 20-20 20 20 0 0 1 20 20v20a20 20 0 0 1-20 20 20 20 0 0 1-20-20z" stroke="#000" stroke-width="3" fill="url(#d)"/><path d="M900 700a20 20 0 0 1 20-20 20 20 0 0 1 20 20v20a20 20 0 0 1-20 20 20 20 0 0 1-20-20z" stroke="#000" stroke-width="3" fill="url(#e)"/><path d="M800 700a20 20 0 0 1 20-20 20 20 0 0 1 20 20v20a20 20 0 0 1-20 20 20 20 0 0 1-20-20z" stroke="#000" stroke-width="3" fill="url(#f)"/><path d="M680 700a20 20 0 0 1 20-20 20 20 0 0 1 20 20v20a20 20 0 0 1-20 20 20 20 0 0 1-20-20z" stroke="#000" stroke-width="3" fill="url(#g)"/><path d="M590 700a20 20 0 0 1 20-20 20 20 0 0 1 20 20v20a20 20 0 0 1-20 20 20 20 0 0 1-20-20z" stroke="#000" stroke-width="3" fill="url(#h)"/><path d="M880.84 630.83l31.32 35.7M877.84 633.46l31.32 35.7M875.22 642.62l-3.9-19.62 18.94 6.43M871.32 623l5.6 6.4M914.78 657.38l3.9 19.6-18.94-6.4m18.94 6.4l-5.6-6.38M862.16 633.46l-31.32 35.7M859.16 630.83l-31.32 35.7M849.74 629.43l18.94-6.43-3.9 19.62m3.9-19.62l-5.6 6.4M840.26 670.57L821.32 677l3.9-19.62m-3.9 19.6l5.6-6.38M623.03 627.4l66.08 41.83M620.9 630.77l66.07 41.84M620.97 640.3l-9.28-17.73 19.97.82m-19.98-.83l7.17 4.55M689.03 659.7l9.28 17.72-19.97-.8m19.98.8l-7.17-4.54M612 635.66v28.68M608 635.66v28.68M600 640.82l10-17.32 10 17.32m-10-17.32v8.5M620 659.17l-10 17.33-10-17.33m10 17.33V668M599.1 630.77l-66.07 41.84M596.97 627.4l-66.08 41.83M588.33 623.4l19.98-.83-9.27 17.7m9.28-17.7l-7.17 4.55M541.67 676.6l-19.98.82 9.27-17.7m-9.28 17.7l7.17-4.54" stroke="#1071e5" stroke-width="2" fill="none"/><defs><linearGradient gradientUnits="userSpaceOnUse" id="a" x1="520" y1="620" x2="520" y2="540"><stop offset="17.5%" stop-color="#ced4db"/><stop offset="23.93%" stop-color="#fff"/><stop offset="44.29%" stop-color="#fff"/><stop offset="52.14%" stop-color="#cfe4ff"/><stop offset="71.74%" stop-color="#cfe4ff"/><stop offset="84.42%" stop-color="#c3f7c8"/></linearGradient><linearGradient gradientUnits="userSpaceOnUse" id="b" x1="820" y1="620" x2="820" y2="540"><stop offset="17.5%" stop-color="#ced4db"/><stop offset="23.93%" stop-color="#fff"/><stop offset="44.29%" stop-color="#fff"/><stop offset="52.14%" stop-color="#cfe4ff"/><stop offset="71.74%" stop-color="#cfe4ff"/><stop offset="84.42%" stop-color="#c3f7c8"/></linearGradient><linearGradient gradientUnits="userSpaceOnUse" id="c" x1="660" y1="400" x2="660" y2="480"><stop offset="56.16%" stop-color="#c3f7c8"/><stop offset="75.72%" stop-color="#cfe4ff"/></linearGradient><linearGradient gradientUnits="userSpaceOnUse" id="d" x1="500" y1="740" x2="500" y2="680"><stop offset="27.9%" stop-color="#ced4db"/><stop offset="36.07%" stop-color="#fff"/><stop offset="66.79%" stop-color="#fff"/><stop offset="75.36%" stop-color="#cfe4ff"/></linearGradient><linearGradient gradientUnits="userSpaceOnUse" id="e" x1="900" y1="740" x2="900" y2="680"><stop offset="27.9%" stop-color="#ced4db"/><stop offset="36.07%" stop-color="#fff"/><stop offset="66.79%" stop-color="#fff"/><stop offset="75.36%" stop-color="#cfe4ff"/></linearGradient><linearGradient gradientUnits="userSpaceOnUse" id="f" x1="800" y1="740" x2="800" y2="680"><stop offset="27.9%" stop-color="#ced4db"/><stop offset="36.07%" stop-color="#fff"/><stop offset="66.79%" stop-color="#fff"/><stop offset="75.36%" stop-color="#cfe4ff"/></linearGradient><linearGradient gradientUnits="userSpaceOnUse" id="g" x1="680" y1="740" x2="680" y2="680"><stop offset="27.9%" stop-color="#ced4db"/><stop offset="36.07%" stop-color="#fff"/><stop offset="66.79%" stop-color="#fff"/><stop offset="75.36%" stop-color="#cfe4ff"/></linearGradient><linearGradient gradientUnits="userSpaceOnUse" id="h" x1="590" y1="740" x2="590" y2="680"><stop offset="27.9%" stop-color="#ced4db"/><stop offset="36.07%" stop-color="#fff"/><stop offset="66.79%" stop-color="#fff"/><stop offset="75.36%" stop-color="#cfe4ff"/></linearGradient></defs></g></svg>