<svg xmlns="http://www.w3.org/2000/svg" xmlns:lucid="lucid" width="403" height="343"><g transform="translate(-498.5 -398.5)" lucid:page-tab-id="0_0"><path d="M520 560a20 20 0 0 1 20-20h120a20 20 0 0 1 20 20v40a20 20 0 0 1-20 20H540a20 20 0 0 1-20-20z" stroke="#000" stroke-width="3" fill="url(#a)"/><path d="M780 560a20 20 0 0 1 20-20h60a20 20 0 0 1 20 20v40a20 20 0 0 1-20 20h-60a20 20 0 0 1-20-20z" stroke="#000" stroke-width="3" fill="url(#b)"/><path d="M660 420a20 20 0 0 1 20-20h100a20 20 0 0 1 20 20v40a20 20 0 0 1-20 20H680a20 20 0 0 1-20-20z" stroke="#000" stroke-width="3" fill="url(#c)"/><path d="M743.3 486.77l75.4 42.98M741.3 490.25l75.4 42.98M741.83 499.75l-10.1-17.26 20-.12m-20 .1l7.4 4.22M818.17 520.25l10.1 17.26-20 .12m20-.1l-7.4-4.22M717.84 489.02l-104.07 45.63M716.23 485.36l-104.07 45.62M708.3 480.1l19.87 2.2-11.85 16.12m11.85-16.12l-7.8 3.42M621.7 539.9l-19.87-2.2 11.85-16.12m-11.85 16.12l7.8-3.42" stroke="#1071e5" stroke-width="2" fill="none"/><path d="M500 700a20 20 0 0 1 20-20 20 20 0 0 1 20 20v20a20 20 0 0 1-20 20 20 20 0 0 1-20-20z" stroke="#000" stroke-width="3" fill="url(#d)"/><path d="M860 700a20 20 0 0 1 20-20 20 20 0 0 1 20 20v20a20 20 0 0 1-20 20 20 20 0 0 1-20-20z" stroke="#000" stroke-width="3" fill="url(#e)"/><path d="M760 700a20 20 0 0 1 20-20 20 20 0 0 1 20 20v20a20 20 0 0 1-20 20 20 20 0 0 1-20-20z" stroke="#000" stroke-width="3" fill="url(#f)"/><path d="M660 700a20 20 0 0 1 20-20 20 20 0 0 1 20 20v20a20 20 0 0 1-20 20 20 20 0 0 1-20-20z" stroke="#000" stroke-width="3" fill="url(#g)"/><path d="M580 700a20 20 0 0 1 20-20 20 20 0 0 1 20 20v20a20 20 0 0 1-20 20 20 20 0 0 1-20-20z" stroke="#000" stroke-width="3" fill="url(#h)"/><path d="M840.84 630.83l31.32 35.7M837.84 633.46l31.32 35.7M835.22 642.62l-3.9-19.62 18.94 6.43M831.32 623l5.6 6.4M874.78 657.38l3.9 19.6-18.94-6.4m18.94 6.4l-5.6-6.38M822.16 633.46l-31.32 35.7M819.16 630.83l-31.32 35.7M809.74 629.43l18.94-6.43-3.9 19.62m3.9-19.62l-5.6 6.4M800.26 670.57L781.32 677l3.9-19.62m-3.9 19.6l5.6-6.38M612.7 628.1l56.93 40.55M610.37 631.35l56.94 40.56M609.93 640.86l-8.3-18.2 19.9 1.9m-19.9-1.9l6.92 4.93M670.07 659.14l8.3 18.2-19.9-1.9m19.9 1.9l-6.92-4.94M602 635.66v28.68M598 635.66v28.68" stroke="#1071e5" stroke-width="2" fill="none"/><path d="M590 640.82l10-17.32 10 17.32m-10-17.32v8.5M610 659.17l-10 17.33-10-17.33m10 17.33V668M589.63 631.35L532.7 671.9M587.3 628.1l-56.93 40.55" stroke="#1071e5" stroke-width="2" fill="none"/><path d="M578.46 624.57l19.9-1.9-8.3 18.2m8.3-18.2l-6.9 4.92M541.54 675.43l-19.9 1.9 8.3-18.2m-8.3 18.2l6.9-4.93" stroke="#1071e5" stroke-width="2" fill="none"/><defs><linearGradient gradientUnits="userSpaceOnUse" id="a" x1="520" y1="620" x2="520" y2="540"><stop offset="17.5%" stop-color="#ced4db"/><stop offset="23.93%" stop-color="#fff"/><stop offset="44.29%" stop-color="#fff"/><stop offset="52.14%" stop-color="#cfe4ff"/><stop offset="71.74%" stop-color="#cfe4ff"/><stop offset="84.42%" stop-color="#c3f7c8"/></linearGradient><linearGradient gradientUnits="userSpaceOnUse" id="b" x1="780" y1="620" x2="780" y2="540"><stop offset="17.5%" stop-color="#ced4db"/><stop offset="23.93%" stop-color="#fff"/><stop offset="44.29%" stop-color="#fff"/><stop offset="52.14%" stop-color="#cfe4ff"/><stop offset="71.74%" stop-color="#cfe4ff"/><stop offset="84.42%" stop-color="#c3f7c8"/></linearGradient><linearGradient gradientUnits="userSpaceOnUse" id="c" x1="660" y1="400" x2="660" y2="480"><stop offset="56.16%" stop-color="#c3f7c8"/><stop offset="75.72%" stop-color="#cfe4ff"/></linearGradient><linearGradient gradientUnits="userSpaceOnUse" id="d" x1="500" y1="740" x2="500" y2="680"><stop offset="27.9%" stop-color="#ced4db"/><stop offset="36.07%" stop-color="#fff"/><stop offset="66.79%" stop-color="#fff"/><stop offset="75.36%" stop-color="#cfe4ff"/></linearGradient><linearGradient gradientUnits="userSpaceOnUse" id="e" x1="860" y1="740" x2="860" y2="680"><stop offset="27.9%" stop-color="#ced4db"/><stop offset="36.07%" stop-color="#fff"/><stop offset="66.79%" stop-color="#fff"/><stop offset="75.36%" stop-color="#cfe4ff"/></linearGradient><linearGradient gradientUnits="userSpaceOnUse" id="f" x1="760" y1="740" x2="760" y2="680"><stop offset="27.9%" stop-color="#ced4db"/><stop offset="36.07%" stop-color="#fff"/><stop offset="66.79%" stop-color="#fff"/><stop offset="75.36%" stop-color="#cfe4ff"/></linearGradient><linearGradient gradientUnits="userSpaceOnUse" id="g" x1="660" y1="740" x2="660" y2="680"><stop offset="27.9%" stop-color="#ced4db"/><stop offset="36.07%" stop-color="#fff"/><stop offset="66.79%" stop-color="#fff"/><stop offset="75.36%" stop-color="#cfe4ff"/></linearGradient><linearGradient gradientUnits="userSpaceOnUse" id="h" x1="580" y1="740" x2="580" y2="680"><stop offset="27.9%" stop-color="#ced4db"/><stop offset="36.07%" stop-color="#fff"/><stop offset="66.79%" stop-color="#fff"/><stop offset="75.36%" stop-color="#cfe4ff"/></linearGradient></defs></g></svg>