<svg xmlns="http://www.w3.org/2000/svg" xmlns:lucid="lucid" width="1185" height="1123.67"><g transform="translate(-597.5 161.16666666666669)" lucid:page-tab-id="0_0"><path d="M600 300.72a20 20 0 0 1 20-20h200a20 20 0 0 1 20 20V500a20 20 0 0 1-20 20H620a20 20 0 0 1-20-20z" stroke="#000" stroke-width="5" fill="url(#a)"/><path d="M810.7 193.53a6 6 0 0 1-2.54-8.1l19.43-37.23a6 6 0 0 0-2.56-8.1l-7.1-3.7a2.3 2.3 0 0 1 .5-4.27l40.5-10.43a6.67 6.67 0 0 1 7.9 4.13L881.46 165a2.3 2.3 0 0 1-3.22 2.85l-7.1-3.7a6 6 0 0 0-8.1 2.54l-19.4 37.23a6 6 0 0 1-8.1 2.55zM1514 355.36a6 6 0 0 1 6 6v42a6 6 0 0 0 6 6h8a2.3 2.3 0 0 1 1.54 4l-31.08 28a6.67 6.67 0 0 1-8.92 0l-31.08-28a2.3 2.3 0 0 1 1.54-4h8a6 6 0 0 0 6-6v-42a6 6 0 0 1 6-6zM1305 758.07a6 6 0 0 1-3.17 7.88l-38.62 16.5a6 6 0 0 0-3.15 7.88l3.14 7.36a2.3 2.3 0 0 1-3.1 2.98l-37.93-17.58a6.67 6.67 0 0 1-3.5-8.2l13.5-39.58a2.3 2.3 0 0 1 4.3-.16l3.14 7.36a6 6 0 0 0 7.9 3.16l38.6-16.5a6 6 0 0 1 7.88 3.15zM1225.56 12.23a6 6 0 0 1 8-2.85l37.95 17.98a6 6 0 0 0 8-2.85l3.43-7.22a2.3 2.3 0 0 1 4.28.33l12 40.07a6.67 6.67 0 0 1-3.83 8.06l-38.6 16.1a2.3 2.3 0 0 1-2.96-3.1l3.44-7.23a6 6 0 0 0-2.86-8l-37.95-17.97a6 6 0 0 1-2.85-8zM860.5 684.9a6 6 0 0 1-8.3-1.78l-22.85-35.23a6 6 0 0 0-8.3-1.77l-6.7 4.35a2.3 2.3 0 0 1-3.5-2.53l10.86-40.38a6.67 6.67 0 0 1 7.5-4.86l41.3 6.56a2.3 2.3 0 0 1 .88 4.2l-6.7 4.36a6 6 0 0 0-1.78 8.3l22.87 35.23a6 6 0 0 1-1.77 8.3z" fill="#fc9432"/><path d="M920 61.33a20 20 0 0 1 20-20h200a20 20 0 0 1 20 20v20a20 20 0 0 1-20 20H940a20 20 0 0 1-20-20z" stroke="#000" stroke-width="5" fill="url(#b)"/><path d="M920-54.17a20 20 0 0 1 20-20h200a20 20 0 0 1 20 20v35.5a20 20 0 0 1-20 20H940a20 20 0 0 1-20-20z" stroke="#000" stroke-width="5" fill="url(#c)"/><path d="M920.05-138.67a20 20 0 0 1 20-20h200a20 20 0 0 1 20 20 20 20 0 0 1-20 20h-200a20 20 0 0 1-20-20z" stroke="#000" stroke-width="5" fill="#c3f7c8"/><path d="M1040 18.2V5.34" stroke="#000" stroke-width="3" fill="none"/><path d="M1040 33.98l-4.63-14.27h9.27z" stroke="#000" stroke-width="3"/><path d="M1041.47 5.37h-2.94V3.83h2.94z" stroke="#000" stroke-width=".05"/><path d="M1040-97.3v-17.37" stroke="#000" stroke-width="3" fill="none"/><path d="M1040-81.52l-4.64-14.27h9.27z" stroke="#000" stroke-width="3"/><path d="M1041.47-114.63h-2.95v-1.54h2.95z" stroke="#000" stroke-width=".05"/><path d="M1660 21.33a20 20 0 0 1 20-20h80a20 20 0 0 1 20 20v260a20 20 0 0 1-20 20h-80a20 20 0 0 1-20-20z" fill-opacity="0"/><path d="M1657.5 21.36v-.03a2.5 2.5 0 0 1 2.5-2.5 2.5 2.5 0 0 1 2.5 2.5 2.5 2.5 0 0 1-2.5 2.5 2.5 2.5 0 0 1-2.5-2.5v-.02m5.86-14.08V7.2a2.5 2.5 0 0 1 2.5-2.5 2.5 2.5 0 0 1 2.5 2.5 2.5 2.5 0 0 1-2.5 2.5 2.5 2.5 0 0 1-2.5-2.5v-.03m14.14-5.8v-.04a2.5 2.5 0 0 1 2.5-2.5 2.5 2.5 0 0 1 2.5 2.5 2.5 2.5 0 0 1-2.5 2.5 2.5 2.5 0 0 1-2.5-2.5V1.3m20 .06v-.03a2.5 2.5 0 0 1 2.5-2.5 2.5 2.5 0 0 1 2.5 2.5 2.5 2.5 0 0 1-2.5 2.5 2.5 2.5 0 0 1-2.5-2.5V1.3m20 .06v-.03a2.5 2.5 0 0 1 2.5-2.5 2.5 2.5 0 0 1 2.5 2.5 2.5 2.5 0 0 1-2.5 2.5 2.5 2.5 0 0 1-2.5-2.5V1.3m20 .06v-.03a2.5 2.5 0 0 1 2.5-2.5 2.5 2.5 0 0 1 2.5 2.5 2.5 2.5 0 0 1-2.5 2.5 2.5 2.5 0 0 1-2.5-2.5V1.3m20 .06v-.03a2.5 2.5 0 0 1 2.5-2.5 2.5 2.5 0 0 1 2.5 2.5 2.5 2.5 0 0 1-2.5 2.5 2.5 2.5 0 0 1-2.5-2.5V1.3m14.14 5.92V7.2a2.5 2.5 0 0 1 2.5-2.5 2.5 2.5 0 0 1 2.5 2.5 2.5 2.5 0 0 1-2.5 2.5 2.5 2.5 0 0 1-2.5-2.5v-.03m5.86 14.2v-.04a2.5 2.5 0 0 1 2.5-2.5 2.5 2.5 0 0 1 2.5 2.5 2.5 2.5 0 0 1-2.5 2.5 2.5 2.5 0 0 1-2.5-2.5v-.02m0 20.06v-.03a2.5 2.5 0 0 1 2.5-2.5 2.5 2.5 0 0 1 2.5 2.5 2.5 2.5 0 0 1-2.5 2.5 2.5 2.5 0 0 1-2.5-2.5v-.02m0 20.06v-.03a2.5 2.5 0 0 1 2.5-2.5 2.5 2.5 0 0 1 2.5 2.5 2.5 2.5 0 0 1-2.5 2.5 2.5 2.5 0 0 1-2.5-2.5v-.02m0 20.06v-.03a2.5 2.5 0 0 1 2.5-2.5 2.5 2.5 0 0 1 2.5 2.5 2.5 2.5 0 0 1-2.5 2.5 2.5 2.5 0 0 1-2.5-2.5v-.02m0 20.06v-.03a2.5 2.5 0 0 1 2.5-2.5 2.5 2.5 0 0 1 2.5 2.5 2.5 2.5 0 0 1-2.5 2.5 2.5 2.5 0 0 1-2.5-2.5v-.02m0 20.06v-.03a2.5 2.5 0 0 1 2.5-2.5 2.5 2.5 0 0 1 2.5 2.5 2.5 2.5 0 0 1-2.5 2.5 2.5 2.5 0 0 1-2.5-2.5v-.02m0 20.06v-.03a2.5 2.5 0 0 1 2.5-2.5 2.5 2.5 0 0 1 2.5 2.5 2.5 2.5 0 0 1-2.5 2.5 2.5 2.5 0 0 1-2.5-2.5v-.02m0 20.06v-.03a2.5 2.5 0 0 1 2.5-2.5 2.5 2.5 0 0 1 2.5 2.5 2.5 2.5 0 0 1-2.5 2.5 2.5 2.5 0 0 1-2.5-2.5v-.02m0 20.06v-.03a2.5 2.5 0 0 1 2.5-2.5 2.5 2.5 0 0 1 2.5 2.5 2.5 2.5 0 0 1-2.5 2.5 2.5 2.5 0 0 1-2.5-2.5v-.02m0 20.06v-.03a2.5 2.5 0 0 1 2.5-2.5 2.5 2.5 0 0 1 2.5 2.5 2.5 2.5 0 0 1-2.5 2.5 2.5 2.5 0 0 1-2.5-2.5v-.02m0 20.06v-.03a2.5 2.5 0 0 1 2.5-2.5 2.5 2.5 0 0 1 2.5 2.5 2.5 2.5 0 0 1-2.5 2.5 2.5 2.5 0 0 1-2.5-2.5v-.02m0 20.06v-.03a2.5 2.5 0 0 1 2.5-2.5 2.5 2.5 0 0 1 2.5 2.5 2.5 2.5 0 0 1-2.5 2.5 2.5 2.5 0 0 1-2.5-2.5v-.02m0 20.06v-.03a2.5 2.5 0 0 1 2.5-2.5 2.5 2.5 0 0 1 2.5 2.5 2.5 2.5 0 0 1-2.5 2.5 2.5 2.5 0 0 1-2.5-2.5v-.02m0 20.06v-.03a2.5 2.5 0 0 1 2.5-2.5 2.5 2.5 0 0 1 2.5 2.5 2.5 2.5 0 0 1-2.5 2.5 2.5 2.5 0 0 1-2.5-2.5v-.02m-5.86 14.2v-.02a2.5 2.5 0 0 1 2.5-2.5 2.5 2.5 0 0 1 2.5 2.5 2.5 2.5 0 0 1-2.5 2.5 2.5 2.5 0 0 1-2.5-2.5v-.03m-14.14 5.9v-.02a2.5 2.5 0 0 1 2.5-2.5 2.5 2.5 0 0 1 2.5 2.5 2.5 2.5 0 0 1-2.5 2.5 2.5 2.5 0 0 1-2.5-2.5v-.02m-20 .06v-.03a2.5 2.5 0 0 1 2.5-2.5 2.5 2.5 0 0 1 2.5 2.5 2.5 2.5 0 0 1-2.5 2.5 2.5 2.5 0 0 1-2.5-2.5v-.02m-20 .06v-.03a2.5 2.5 0 0 1 2.5-2.5 2.5 2.5 0 0 1 2.5 2.5 2.5 2.5 0 0 1-2.5 2.5 2.5 2.5 0 0 1-2.5-2.5v-.02m-20 .06v-.03a2.5 2.5 0 0 1 2.5-2.5 2.5 2.5 0 0 1 2.5 2.5 2.5 2.5 0 0 1-2.5 2.5 2.5 2.5 0 0 1-2.5-2.5v-.02m-20 .06v-.03a2.5 2.5 0 0 1 2.5-2.5 2.5 2.5 0 0 1 2.5 2.5 2.5 2.5 0 0 1-2.5 2.5 2.5 2.5 0 0 1-2.5-2.5v-.02m-14.14-5.8v-.02a2.5 2.5 0 0 1 2.5-2.5 2.5 2.5 0 0 1 2.5 2.5 2.5 2.5 0 0 1-2.5 2.5 2.5 2.5 0 0 1-2.5-2.5v-.03m-5.86-14.1v-.02a2.5 2.5 0 0 1 2.5-2.5 2.5 2.5 0 0 1 2.5 2.5 2.5 2.5 0 0 1-2.5 2.5 2.5 2.5 0 0 1-2.5-2.5v-.02m0-19.94v-.03a2.5 2.5 0 0 1 2.5-2.5 2.5 2.5 0 0 1 2.5 2.5 2.5 2.5 0 0 1-2.5 2.5 2.5 2.5 0 0 1-2.5-2.5v-.02m0-19.94v-.03a2.5 2.5 0 0 1 2.5-2.5 2.5 2.5 0 0 1 2.5 2.5 2.5 2.5 0 0 1-2.5 2.5 2.5 2.5 0 0 1-2.5-2.5v-.02m0-19.94v-.03a2.5 2.5 0 0 1 2.5-2.5 2.5 2.5 0 0 1 2.5 2.5 2.5 2.5 0 0 1-2.5 2.5 2.5 2.5 0 0 1-2.5-2.5v-.02m0-19.94v-.03a2.5 2.5 0 0 1 2.5-2.5 2.5 2.5 0 0 1 2.5 2.5 2.5 2.5 0 0 1-2.5 2.5 2.5 2.5 0 0 1-2.5-2.5v-.02m0-19.94v-.03a2.5 2.5 0 0 1 2.5-2.5 2.5 2.5 0 0 1 2.5 2.5 2.5 2.5 0 0 1-2.5 2.5 2.5 2.5 0 0 1-2.5-2.5v-.02m0-19.94v-.03a2.5 2.5 0 0 1 2.5-2.5 2.5 2.5 0 0 1 2.5 2.5 2.5 2.5 0 0 1-2.5 2.5 2.5 2.5 0 0 1-2.5-2.5v-.02m0-19.94v-.03a2.5 2.5 0 0 1 2.5-2.5 2.5 2.5 0 0 1 2.5 2.5 2.5 2.5 0 0 1-2.5 2.5 2.5 2.5 0 0 1-2.5-2.5v-.02m0-19.94v-.03a2.5 2.5 0 0 1 2.5-2.5 2.5 2.5 0 0 1 2.5 2.5 2.5 2.5 0 0 1-2.5 2.5 2.5 2.5 0 0 1-2.5-2.5v-.02m0-19.94v-.03a2.5 2.5 0 0 1 2.5-2.5 2.5 2.5 0 0 1 2.5 2.5 2.5 2.5 0 0 1-2.5 2.5 2.5 2.5 0 0 1-2.5-2.5v-.02m0-19.94v-.03a2.5 2.5 0 0 1 2.5-2.5 2.5 2.5 0 0 1 2.5 2.5 2.5 2.5 0 0 1-2.5 2.5 2.5 2.5 0 0 1-2.5-2.5v-.02m0-19.94v-.03a2.5 2.5 0 0 1 2.5-2.5 2.5 2.5 0 0 1 2.5 2.5 2.5 2.5 0 0 1-2.5 2.5 2.5 2.5 0 0 1-2.5-2.5v-.02m0-19.94v-.03a2.5 2.5 0 0 1 2.5-2.5 2.5 2.5 0 0 1 2.5 2.5 2.5 2.5 0 0 1-2.5 2.5 2.5 2.5 0 0 1-2.5-2.5v-.02"/><path d="M1680 261.33a20 20 0 0 1 20-20h40a20 20 0 0 1 20 20 20 20 0 0 1-20 20h-40a20 20 0 0 1-20-20z" stroke="#000" stroke-width="5" fill="#ced4db"/><path d="M1720 78.2V65.34" stroke="#000" stroke-width="3" fill="none"/><path d="M1720 93.98l-4.63-14.27h9.27z" stroke="#000" stroke-width="3"/><path d="M1721.47 65.37h-2.94v-1.54h2.94z" stroke="#000" stroke-width=".05"/><path d="M1680 121.33a20 20 0 0 1 20-20h40a20 20 0 0 1 20 20v60a20 20 0 0 1-20 20h-40a20 20 0 0 1-20-20z" stroke="#000" stroke-width="5" fill="url(#d)"/><path d="M1680 41.33a20 20 0 0 1 20-20h40a20 20 0 0 1 20 20 20 20 0 0 1-20 20h-40a20 20 0 0 1-20-20z" stroke="#000" stroke-width="5" fill="#c3f7c8"/><path d="M1720 218.2v-12.87" stroke="#000" stroke-width="3" fill="none"/><path d="M1720 233.98l-4.63-14.27h9.27z" stroke="#000" stroke-width="3"/><path d="M1721.47 205.37h-2.94v-1.54h2.94z" stroke="#000" stroke-width=".05"/><path d="M1500 21.33a20 20 0 0 1 20-20h80a20 20 0 0 1 20 20v260a20 20 0 0 1-20 20h-80a20 20 0 0 1-20-20z" fill-opacity="0"/><path d="M1497.5 21.36v-.03a2.5 2.5 0 0 1 2.5-2.5 2.5 2.5 0 0 1 2.5 2.5 2.5 2.5 0 0 1-2.5 2.5 2.5 2.5 0 0 1-2.5-2.5v-.02m5.86-14.08V7.2a2.5 2.5 0 0 1 2.5-2.5 2.5 2.5 0 0 1 2.5 2.5 2.5 2.5 0 0 1-2.5 2.5 2.5 2.5 0 0 1-2.5-2.5v-.03m14.14-5.8v-.04a2.5 2.5 0 0 1 2.5-2.5 2.5 2.5 0 0 1 2.5 2.5 2.5 2.5 0 0 1-2.5 2.5 2.5 2.5 0 0 1-2.5-2.5V1.3m20 .06v-.03a2.5 2.5 0 0 1 2.5-2.5 2.5 2.5 0 0 1 2.5 2.5 2.5 2.5 0 0 1-2.5 2.5 2.5 2.5 0 0 1-2.5-2.5V1.3m20 .06v-.03a2.5 2.5 0 0 1 2.5-2.5 2.5 2.5 0 0 1 2.5 2.5 2.5 2.5 0 0 1-2.5 2.5 2.5 2.5 0 0 1-2.5-2.5V1.3m20 .06v-.03a2.5 2.5 0 0 1 2.5-2.5 2.5 2.5 0 0 1 2.5 2.5 2.5 2.5 0 0 1-2.5 2.5 2.5 2.5 0 0 1-2.5-2.5V1.3m20 .06v-.03a2.5 2.5 0 0 1 2.5-2.5 2.5 2.5 0 0 1 2.5 2.5 2.5 2.5 0 0 1-2.5 2.5 2.5 2.5 0 0 1-2.5-2.5V1.3m14.14 5.92V7.2a2.5 2.5 0 0 1 2.5-2.5 2.5 2.5 0 0 1 2.5 2.5 2.5 2.5 0 0 1-2.5 2.5 2.5 2.5 0 0 1-2.5-2.5v-.03m5.86 14.2v-.04a2.5 2.5 0 0 1 2.5-2.5 2.5 2.5 0 0 1 2.5 2.5 2.5 2.5 0 0 1-2.5 2.5 2.5 2.5 0 0 1-2.5-2.5v-.02m0 20.06v-.03a2.5 2.5 0 0 1 2.5-2.5 2.5 2.5 0 0 1 2.5 2.5 2.5 2.5 0 0 1-2.5 2.5 2.5 2.5 0 0 1-2.5-2.5v-.02m0 20.06v-.03a2.5 2.5 0 0 1 2.5-2.5 2.5 2.5 0 0 1 2.5 2.5 2.5 2.5 0 0 1-2.5 2.5 2.5 2.5 0 0 1-2.5-2.5v-.02m0 20.06v-.03a2.5 2.5 0 0 1 2.5-2.5 2.5 2.5 0 0 1 2.5 2.5 2.5 2.5 0 0 1-2.5 2.5 2.5 2.5 0 0 1-2.5-2.5v-.02m0 20.06v-.03a2.5 2.5 0 0 1 2.5-2.5 2.5 2.5 0 0 1 2.5 2.5 2.5 2.5 0 0 1-2.5 2.5 2.5 2.5 0 0 1-2.5-2.5v-.02m0 20.06v-.03a2.5 2.5 0 0 1 2.5-2.5 2.5 2.5 0 0 1 2.5 2.5 2.5 2.5 0 0 1-2.5 2.5 2.5 2.5 0 0 1-2.5-2.5v-.02m0 20.06v-.03a2.5 2.5 0 0 1 2.5-2.5 2.5 2.5 0 0 1 2.5 2.5 2.5 2.5 0 0 1-2.5 2.5 2.5 2.5 0 0 1-2.5-2.5v-.02m0 20.06v-.03a2.5 2.5 0 0 1 2.5-2.5 2.5 2.5 0 0 1 2.5 2.5 2.5 2.5 0 0 1-2.5 2.5 2.5 2.5 0 0 1-2.5-2.5v-.02m0 20.06v-.03a2.5 2.5 0 0 1 2.5-2.5 2.5 2.5 0 0 1 2.5 2.5 2.5 2.5 0 0 1-2.5 2.5 2.5 2.5 0 0 1-2.5-2.5v-.02m0 20.06v-.03a2.5 2.5 0 0 1 2.5-2.5 2.5 2.5 0 0 1 2.5 2.5 2.5 2.5 0 0 1-2.5 2.5 2.5 2.5 0 0 1-2.5-2.5v-.02m0 20.06v-.03a2.5 2.5 0 0 1 2.5-2.5 2.5 2.5 0 0 1 2.5 2.5 2.5 2.5 0 0 1-2.5 2.5 2.5 2.5 0 0 1-2.5-2.5v-.02m0 20.06v-.03a2.5 2.5 0 0 1 2.5-2.5 2.5 2.5 0 0 1 2.5 2.5 2.5 2.5 0 0 1-2.5 2.5 2.5 2.5 0 0 1-2.5-2.5v-.02m0 20.06v-.03a2.5 2.5 0 0 1 2.5-2.5 2.5 2.5 0 0 1 2.5 2.5 2.5 2.5 0 0 1-2.5 2.5 2.5 2.5 0 0 1-2.5-2.5v-.02m0 20.06v-.03a2.5 2.5 0 0 1 2.5-2.5 2.5 2.5 0 0 1 2.5 2.5 2.5 2.5 0 0 1-2.5 2.5 2.5 2.5 0 0 1-2.5-2.5v-.02m-5.86 14.2v-.02a2.5 2.5 0 0 1 2.5-2.5 2.5 2.5 0 0 1 2.5 2.5 2.5 2.5 0 0 1-2.5 2.5 2.5 2.5 0 0 1-2.5-2.5v-.03m-14.14 5.9v-.02a2.5 2.5 0 0 1 2.5-2.5 2.5 2.5 0 0 1 2.5 2.5 2.5 2.5 0 0 1-2.5 2.5 2.5 2.5 0 0 1-2.5-2.5v-.02m-20 .06v-.03a2.5 2.5 0 0 1 2.5-2.5 2.5 2.5 0 0 1 2.5 2.5 2.5 2.5 0 0 1-2.5 2.5 2.5 2.5 0 0 1-2.5-2.5v-.02m-20 .06v-.03a2.5 2.5 0 0 1 2.5-2.5 2.5 2.5 0 0 1 2.5 2.5 2.5 2.5 0 0 1-2.5 2.5 2.5 2.5 0 0 1-2.5-2.5v-.02m-20 .06v-.03a2.5 2.5 0 0 1 2.5-2.5 2.5 2.5 0 0 1 2.5 2.5 2.5 2.5 0 0 1-2.5 2.5 2.5 2.5 0 0 1-2.5-2.5v-.02m-20 .06v-.03a2.5 2.5 0 0 1 2.5-2.5 2.5 2.5 0 0 1 2.5 2.5 2.5 2.5 0 0 1-2.5 2.5 2.5 2.5 0 0 1-2.5-2.5v-.02m-14.14-5.8v-.02a2.5 2.5 0 0 1 2.5-2.5 2.5 2.5 0 0 1 2.5 2.5 2.5 2.5 0 0 1-2.5 2.5 2.5 2.5 0 0 1-2.5-2.5v-.03m-5.86-14.1v-.02a2.5 2.5 0 0 1 2.5-2.5 2.5 2.5 0 0 1 2.5 2.5 2.5 2.5 0 0 1-2.5 2.5 2.5 2.5 0 0 1-2.5-2.5v-.02m0-19.94v-.03a2.5 2.5 0 0 1 2.5-2.5 2.5 2.5 0 0 1 2.5 2.5 2.5 2.5 0 0 1-2.5 2.5 2.5 2.5 0 0 1-2.5-2.5v-.02m0-19.94v-.03a2.5 2.5 0 0 1 2.5-2.5 2.5 2.5 0 0 1 2.5 2.5 2.5 2.5 0 0 1-2.5 2.5 2.5 2.5 0 0 1-2.5-2.5v-.02m0-19.94v-.03a2.5 2.5 0 0 1 2.5-2.5 2.5 2.5 0 0 1 2.5 2.5 2.5 2.5 0 0 1-2.5 2.5 2.5 2.5 0 0 1-2.5-2.5v-.02m0-19.94v-.03a2.5 2.5 0 0 1 2.5-2.5 2.5 2.5 0 0 1 2.5 2.5 2.5 2.5 0 0 1-2.5 2.5 2.5 2.5 0 0 1-2.5-2.5v-.02m0-19.94v-.03a2.5 2.5 0 0 1 2.5-2.5 2.5 2.5 0 0 1 2.5 2.5 2.5 2.5 0 0 1-2.5 2.5 2.5 2.5 0 0 1-2.5-2.5v-.02m0-19.94v-.03a2.5 2.5 0 0 1 2.5-2.5 2.5 2.5 0 0 1 2.5 2.5 2.5 2.5 0 0 1-2.5 2.5 2.5 2.5 0 0 1-2.5-2.5v-.02m0-19.94v-.03a2.5 2.5 0 0 1 2.5-2.5 2.5 2.5 0 0 1 2.5 2.5 2.5 2.5 0 0 1-2.5 2.5 2.5 2.5 0 0 1-2.5-2.5v-.02m0-19.94v-.03a2.5 2.5 0 0 1 2.5-2.5 2.5 2.5 0 0 1 2.5 2.5 2.5 2.5 0 0 1-2.5 2.5 2.5 2.5 0 0 1-2.5-2.5v-.02m0-19.94v-.03a2.5 2.5 0 0 1 2.5-2.5 2.5 2.5 0 0 1 2.5 2.5 2.5 2.5 0 0 1-2.5 2.5 2.5 2.5 0 0 1-2.5-2.5v-.02m0-19.94v-.03a2.5 2.5 0 0 1 2.5-2.5 2.5 2.5 0 0 1 2.5 2.5 2.5 2.5 0 0 1-2.5 2.5 2.5 2.5 0 0 1-2.5-2.5v-.02m0-19.94v-.03a2.5 2.5 0 0 1 2.5-2.5 2.5 2.5 0 0 1 2.5 2.5 2.5 2.5 0 0 1-2.5 2.5 2.5 2.5 0 0 1-2.5-2.5v-.02m0-19.94v-.03a2.5 2.5 0 0 1 2.5-2.5 2.5 2.5 0 0 1 2.5 2.5 2.5 2.5 0 0 1-2.5 2.5 2.5 2.5 0 0 1-2.5-2.5v-.02"/><path d="M1520 261.33a20 20 0 0 1 20-20h40a20 20 0 0 1 20 20 20 20 0 0 1-20 20h-40a20 20 0 0 1-20-20z" stroke="#000" stroke-width="5" fill="#ced4db"/><path d="M1560 78.2V65.34" stroke="#000" stroke-width="3" fill="none"/><path d="M1560 93.98l-4.63-14.27h9.27z" stroke="#000" stroke-width="3"/><path d="M1561.47 65.37h-2.94v-1.54h2.94z" stroke="#000" stroke-width=".05"/><path d="M1520 121.33a20 20 0 0 1 20-20h40a20 20 0 0 1 20 20v60a20 20 0 0 1-20 20h-40a20 20 0 0 1-20-20z" stroke="#000" stroke-width="5" fill="url(#e)"/><path d="M1520 41.33a20 20 0 0 1 20-20h40a20 20 0 0 1 20 20 20 20 0 0 1-20 20h-40a20 20 0 0 1-20-20z" stroke="#000" stroke-width="5" fill="#c3f7c8"/><path d="M1560 218.2v-12.87" stroke="#000" stroke-width="3" fill="none"/><path d="M1560 233.98l-4.63-14.27h9.27z" stroke="#000" stroke-width="3"/><path d="M1561.47 205.37h-2.94v-1.54h2.94z" stroke="#000" stroke-width=".05"/><path d="M1340 21.33a20 20 0 0 1 20-20h80a20 20 0 0 1 20 20v260a20 20 0 0 1-20 20h-80a20 20 0 0 1-20-20z" fill-opacity="0"/><path d="M1337.5 21.36v-.03a2.5 2.5 0 0 1 2.5-2.5 2.5 2.5 0 0 1 2.5 2.5 2.5 2.5 0 0 1-2.5 2.5 2.5 2.5 0 0 1-2.5-2.5v-.02m5.86-14.08V7.2a2.5 2.5 0 0 1 2.5-2.5 2.5 2.5 0 0 1 2.5 2.5 2.5 2.5 0 0 1-2.5 2.5 2.5 2.5 0 0 1-2.5-2.5v-.03m14.14-5.8v-.04a2.5 2.5 0 0 1 2.5-2.5 2.5 2.5 0 0 1 2.5 2.5 2.5 2.5 0 0 1-2.5 2.5 2.5 2.5 0 0 1-2.5-2.5V1.3m20 .06v-.03a2.5 2.5 0 0 1 2.5-2.5 2.5 2.5 0 0 1 2.5 2.5 2.5 2.5 0 0 1-2.5 2.5 2.5 2.5 0 0 1-2.5-2.5V1.3m20 .06v-.03a2.5 2.5 0 0 1 2.5-2.5 2.5 2.5 0 0 1 2.5 2.5 2.5 2.5 0 0 1-2.5 2.5 2.5 2.5 0 0 1-2.5-2.5V1.3m20 .06v-.03a2.5 2.5 0 0 1 2.5-2.5 2.5 2.5 0 0 1 2.5 2.5 2.5 2.5 0 0 1-2.5 2.5 2.5 2.5 0 0 1-2.5-2.5V1.3m20 .06v-.03a2.5 2.5 0 0 1 2.5-2.5 2.5 2.5 0 0 1 2.5 2.5 2.5 2.5 0 0 1-2.5 2.5 2.5 2.5 0 0 1-2.5-2.5V1.3m14.14 5.92V7.2a2.5 2.5 0 0 1 2.5-2.5 2.5 2.5 0 0 1 2.5 2.5 2.5 2.5 0 0 1-2.5 2.5 2.5 2.5 0 0 1-2.5-2.5v-.03m5.86 14.2v-.04a2.5 2.5 0 0 1 2.5-2.5 2.5 2.5 0 0 1 2.5 2.5 2.5 2.5 0 0 1-2.5 2.5 2.5 2.5 0 0 1-2.5-2.5v-.02m0 20.06v-.03a2.5 2.5 0 0 1 2.5-2.5 2.5 2.5 0 0 1 2.5 2.5 2.5 2.5 0 0 1-2.5 2.5 2.5 2.5 0 0 1-2.5-2.5v-.02m0 20.06v-.03a2.5 2.5 0 0 1 2.5-2.5 2.5 2.5 0 0 1 2.5 2.5 2.5 2.5 0 0 1-2.5 2.5 2.5 2.5 0 0 1-2.5-2.5v-.02m0 20.06v-.03a2.5 2.5 0 0 1 2.5-2.5 2.5 2.5 0 0 1 2.5 2.5 2.5 2.5 0 0 1-2.5 2.5 2.5 2.5 0 0 1-2.5-2.5v-.02m0 20.06v-.03a2.5 2.5 0 0 1 2.5-2.5 2.5 2.5 0 0 1 2.5 2.5 2.5 2.5 0 0 1-2.5 2.5 2.5 2.5 0 0 1-2.5-2.5v-.02m0 20.06v-.03a2.5 2.5 0 0 1 2.5-2.5 2.5 2.5 0 0 1 2.5 2.5 2.5 2.5 0 0 1-2.5 2.5 2.5 2.5 0 0 1-2.5-2.5v-.02m0 20.06v-.03a2.5 2.5 0 0 1 2.5-2.5 2.5 2.5 0 0 1 2.5 2.5 2.5 2.5 0 0 1-2.5 2.5 2.5 2.5 0 0 1-2.5-2.5v-.02m0 20.06v-.03a2.5 2.5 0 0 1 2.5-2.5 2.5 2.5 0 0 1 2.5 2.5 2.5 2.5 0 0 1-2.5 2.5 2.5 2.5 0 0 1-2.5-2.5v-.02m0 20.06v-.03a2.5 2.5 0 0 1 2.5-2.5 2.5 2.5 0 0 1 2.5 2.5 2.5 2.5 0 0 1-2.5 2.5 2.5 2.5 0 0 1-2.5-2.5v-.02m0 20.06v-.03a2.5 2.5 0 0 1 2.5-2.5 2.5 2.5 0 0 1 2.5 2.5 2.5 2.5 0 0 1-2.5 2.5 2.5 2.5 0 0 1-2.5-2.5v-.02m0 20.06v-.03a2.5 2.5 0 0 1 2.5-2.5 2.5 2.5 0 0 1 2.5 2.5 2.5 2.5 0 0 1-2.5 2.5 2.5 2.5 0 0 1-2.5-2.5v-.02m0 20.06v-.03a2.5 2.5 0 0 1 2.5-2.5 2.5 2.5 0 0 1 2.5 2.5 2.5 2.5 0 0 1-2.5 2.5 2.5 2.5 0 0 1-2.5-2.5v-.02m0 20.06v-.03a2.5 2.5 0 0 1 2.5-2.5 2.5 2.5 0 0 1 2.5 2.5 2.5 2.5 0 0 1-2.5 2.5 2.5 2.5 0 0 1-2.5-2.5v-.02m0 20.06v-.03a2.5 2.5 0 0 1 2.5-2.5 2.5 2.5 0 0 1 2.5 2.5 2.5 2.5 0 0 1-2.5 2.5 2.5 2.5 0 0 1-2.5-2.5v-.02m-5.86 14.2v-.02a2.5 2.5 0 0 1 2.5-2.5 2.5 2.5 0 0 1 2.5 2.5 2.5 2.5 0 0 1-2.5 2.5 2.5 2.5 0 0 1-2.5-2.5v-.03m-14.14 5.9v-.02a2.5 2.5 0 0 1 2.5-2.5 2.5 2.5 0 0 1 2.5 2.5 2.5 2.5 0 0 1-2.5 2.5 2.5 2.5 0 0 1-2.5-2.5v-.02m-20 .06v-.03a2.5 2.5 0 0 1 2.5-2.5 2.5 2.5 0 0 1 2.5 2.5 2.5 2.5 0 0 1-2.5 2.5 2.5 2.5 0 0 1-2.5-2.5v-.02m-20 .06v-.03a2.5 2.5 0 0 1 2.5-2.5 2.5 2.5 0 0 1 2.5 2.5 2.5 2.5 0 0 1-2.5 2.5 2.5 2.5 0 0 1-2.5-2.5v-.02m-20 .06v-.03a2.5 2.5 0 0 1 2.5-2.5 2.5 2.5 0 0 1 2.5 2.5 2.5 2.5 0 0 1-2.5 2.5 2.5 2.5 0 0 1-2.5-2.5v-.02m-20 .06v-.03a2.5 2.5 0 0 1 2.5-2.5 2.5 2.5 0 0 1 2.5 2.5 2.5 2.5 0 0 1-2.5 2.5 2.5 2.5 0 0 1-2.5-2.5v-.02m-14.14-5.8v-.02a2.5 2.5 0 0 1 2.5-2.5 2.5 2.5 0 0 1 2.5 2.5 2.5 2.5 0 0 1-2.5 2.5 2.5 2.5 0 0 1-2.5-2.5v-.03m-5.86-14.1v-.02a2.5 2.5 0 0 1 2.5-2.5 2.5 2.5 0 0 1 2.5 2.5 2.5 2.5 0 0 1-2.5 2.5 2.5 2.5 0 0 1-2.5-2.5v-.02m0-19.94v-.03a2.5 2.5 0 0 1 2.5-2.5 2.5 2.5 0 0 1 2.5 2.5 2.5 2.5 0 0 1-2.5 2.5 2.5 2.5 0 0 1-2.5-2.5v-.02m0-19.94v-.03a2.5 2.5 0 0 1 2.5-2.5 2.5 2.5 0 0 1 2.5 2.5 2.5 2.5 0 0 1-2.5 2.5 2.5 2.5 0 0 1-2.5-2.5v-.02m0-19.94v-.03a2.5 2.5 0 0 1 2.5-2.5 2.5 2.5 0 0 1 2.5 2.5 2.5 2.5 0 0 1-2.5 2.5 2.5 2.5 0 0 1-2.5-2.5v-.02m0-19.94v-.03a2.5 2.5 0 0 1 2.5-2.5 2.5 2.5 0 0 1 2.5 2.5 2.5 2.5 0 0 1-2.5 2.5 2.5 2.5 0 0 1-2.5-2.5v-.02m0-19.94v-.03a2.5 2.5 0 0 1 2.5-2.5 2.5 2.5 0 0 1 2.5 2.5 2.5 2.5 0 0 1-2.5 2.5 2.5 2.5 0 0 1-2.5-2.5v-.02m0-19.94v-.03a2.5 2.5 0 0 1 2.5-2.5 2.5 2.5 0 0 1 2.5 2.5 2.5 2.5 0 0 1-2.5 2.5 2.5 2.5 0 0 1-2.5-2.5v-.02m0-19.94v-.03a2.5 2.5 0 0 1 2.5-2.5 2.5 2.5 0 0 1 2.5 2.5 2.5 2.5 0 0 1-2.5 2.5 2.5 2.5 0 0 1-2.5-2.5v-.02m0-19.94v-.03a2.5 2.5 0 0 1 2.5-2.5 2.5 2.5 0 0 1 2.5 2.5 2.5 2.5 0 0 1-2.5 2.5 2.5 2.5 0 0 1-2.5-2.5v-.02m0-19.94v-.03a2.5 2.5 0 0 1 2.5-2.5 2.5 2.5 0 0 1 2.5 2.5 2.5 2.5 0 0 1-2.5 2.5 2.5 2.5 0 0 1-2.5-2.5v-.02m0-19.94v-.03a2.5 2.5 0 0 1 2.5-2.5 2.5 2.5 0 0 1 2.5 2.5 2.5 2.5 0 0 1-2.5 2.5 2.5 2.5 0 0 1-2.5-2.5v-.02m0-19.94v-.03a2.5 2.5 0 0 1 2.5-2.5 2.5 2.5 0 0 1 2.5 2.5 2.5 2.5 0 0 1-2.5 2.5 2.5 2.5 0 0 1-2.5-2.5v-.02m0-19.94v-.03a2.5 2.5 0 0 1 2.5-2.5 2.5 2.5 0 0 1 2.5 2.5 2.5 2.5 0 0 1-2.5 2.5 2.5 2.5 0 0 1-2.5-2.5v-.02"/><path d="M1360 261.33a20 20 0 0 1 20-20h40a20 20 0 0 1 20 20 20 20 0 0 1-20 20h-40a20 20 0 0 1-20-20z" stroke="#000" stroke-width="5" fill="#ced4db"/><path d="M1400.44 78.2l.08-12.87" stroke="#000" stroke-width="3" fill="none"/><path d="M1400.35 93.98l-4.55-14.3 9.27.06z" stroke="#000" stroke-width="3"/><path d="M1402 65.38l-2.95-.02v-1.53h2.96z" stroke="#000" stroke-width=".05"/><path d="M1360 121.33a20 20 0 0 1 20-20h40a20 20 0 0 1 20 20v60a20 20 0 0 1-20 20h-40a20 20 0 0 1-20-20z" stroke="#000" stroke-width="5" fill="url(#f)"/><path d="M1360.67 41.33a20 20 0 0 1 20-20h40a20 20 0 0 1 20 20 20 20 0 0 1-20 20h-40a20 20 0 0 1-20-20z" stroke="#000" stroke-width="5" fill="#c3f7c8"/><path d="M1400 218.2v-12.87" stroke="#000" stroke-width="3" fill="none"/><path d="M1400 233.98l-4.63-14.27h9.27z" stroke="#000" stroke-width="3"/><path d="M1401.47 205.37h-2.94v-1.54h2.94z" stroke="#000" stroke-width=".05"/><path d="M1506.16 41.33h-51.65M1497.17 31.33l17.32 10-17.33 10m17.32-10h-8.5M1463.5 51.33l-17.33-10 17.32-10m-17.33 10h8.5M1666.16 41.33h-52.32M1657.17 31.33l17.32 10-17.33 10m17.32-10h-8.5M1622.83 51.33l-17.32-10 17.33-10m-17.32 10h8.5" stroke="#000" stroke-width="3" fill="none"/><path d="M1615.24 759.9a20 20 0 0 1 20-20h120a20 20 0 0 1 20 20 20 20 0 0 1-20 20h-120a20 20 0 0 1-20-20z" stroke="#000" stroke-width="5" fill="#ced4db"/><path d="M1615.24 619.9a20 20 0 0 1 20-20 20 20 0 0 1 20 20v60a20 20 0 0 1-20 20 20 20 0 0 1-20-20z" stroke="#000" stroke-width="5" fill="url(#g)"/><path d="M1615.24 519.9a20 20 0 0 1 20-20h120a20 20 0 0 1 20 20v20a20 20 0 0 1-20 20h-120a20 20 0 0 1-20-20z" stroke="#000" stroke-width="5" fill="url(#h)"/><path d="M1635.24 716.77V703.9" stroke="#000" stroke-width="3" fill="none"/><path d="M1635.24 732.53l-4.64-14.26h9.27z" stroke="#000" stroke-width="3"/><path d="M1635.24 702.4l1.47-.12v1.65h-2.94v-1.65z" stroke="#000" stroke-width=".05"/><path d="M1475.66 759.9a20 20 0 0 1 20-20h40.66a20 20 0 0 1 20 20 20 20 0 0 1-20 20h-40.66a20 20 0 0 1-20-20z" stroke="#000" stroke-width="5" fill="#ced4db"/><path d="M1516 586.06v-32.34M1526 577.07l-10 17.32-10-17.33m10 17.32v-8.5M1506 562.7l10-17.3 10 17.3m-10-17.3v8.5" stroke="#000" stroke-width="3" fill="none"/><path d="M1476.74 619.9a20 20 0 0 1 20-20h38.5a20 20 0 0 1 20 20v60a20 20 0 0 1-20 20h-38.5a20 20 0 0 1-20-20z" stroke="#000" stroke-width="5" fill="url(#i)"/><path d="M1516 716.77V703.9" stroke="#000" stroke-width="3" fill="none"/><path d="M1516 732.53l-4.65-14.26h9.27z" stroke="#000" stroke-width="3"/><path d="M1517.46 703.93h-2.95v-1.54h2.96z" stroke="#000" stroke-width=".05"/><path d="M1354.57 759.9a20 20 0 0 1 20-20h40.67a20 20 0 0 1 20 20 20 20 0 0 1-20 20h-40.67a20 20 0 0 1-20-20z" stroke="#000" stroke-width="5" fill="#ced4db"/><path d="M1396.64 586.06v-32.34M1406.64 577.07l-10 17.32-10-17.33m10 17.32v-8.5M1386.64 562.7l10-17.3 10 17.3m-10-17.3v8.5" stroke="#000" stroke-width="3" fill="none"/><path d="M1355.24 619.9a20 20 0 0 1 20-20h40a20 20 0 0 1 20 20v60a20 20 0 0 1-20 20h-40a20 20 0 0 1-20-20z" stroke="#000" stroke-width="5" fill="url(#j)"/><path d="M1354.57 519.9a20 20 0 0 1 20-20h160.67a20 20 0 0 1 20 20 20 20 0 0 1-20 20h-160.67a20 20 0 0 1-20-20z" stroke="#000" stroke-width="5" fill="#c3f7c8"/><path d="M1395.1 716.77l.13-12.88" stroke="#000" stroke-width="3" fill="none"/><path d="M1394.95 732.53l-4.5-14.3 9.27.08z" stroke="#000" stroke-width="3"/><path d="M1396.7 703.94l-2.95-.03v-1.5h2.96z" stroke="#000" stroke-width=".05"/><path d="M1601.4 519.8l-33.33.06M1592.4 509.8l17.34 9.97-17.3 10.04m17.3-10.03l-8.5.02M1577.1 529.84l-17.36-9.96 17.3-10.03m-17.3 10.03l8.5-.02" stroke="#000" stroke-width="3" fill="none"/><path d="M1675.24 619.9a20 20 0 0 1 20-20 20 20 0 0 1 20 20v60a20 20 0 0 1-20 20 20 20 0 0 1-20-20z" stroke="#000" stroke-width="5" fill="url(#k)"/><path d="M1735.24 619.9a20 20 0 0 1 20-20 20 20 0 0 1 20 20v60a20 20 0 0 1-20 20 20 20 0 0 1-20-20z" stroke="#000" stroke-width="5" fill="url(#l)"/><path d="M1695.24 716.77V703.9" stroke="#000" stroke-width="3" fill="none"/><path d="M1695.24 732.53l-4.64-14.26h9.27z" stroke="#000" stroke-width="3"/><path d="M1695.24 702.4l1.47-.12v1.65h-2.94v-1.65z" stroke="#000" stroke-width=".05"/><path d="M1755.24 716.77V703.9" stroke="#000" stroke-width="3" fill="none"/><path d="M1755.24 732.53l-4.64-14.26h9.27z" stroke="#000" stroke-width="3"/><path d="M1755.24 702.4l1.47-.12v1.65h-2.94v-1.65z" stroke="#000" stroke-width=".05"/><path d="M1635.24 576.76V563.9" stroke="#000" stroke-width="3" fill="none"/><path d="M1635.24 592.53l-4.64-14.27h9.27z" stroke="#000" stroke-width="3"/><path d="M1635.14 562.4h1.57v1.53h-2.94v-1.65z" stroke="#000" stroke-width=".05"/><path d="M1695.24 576.76V563.9" stroke="#000" stroke-width="3" fill="none"/><path d="M1695.24 592.53l-4.64-14.27h9.27z" stroke="#000" stroke-width="3"/><path d="M1696.7 563.93h-2.94v-1.54h2.95z" stroke="#000" stroke-width=".05"/><path d="M1755.24 576.76V563.9" stroke="#000" stroke-width="3" fill="none"/><path d="M1755.24 592.53l-4.64-14.27h9.27z" stroke="#000" stroke-width="3"/><path d="M1756.7 563.93h-2.94v-1.54h1.58l1.37-.12z" stroke="#000" stroke-width=".05"/><path d="M1576.32 759.9h34.9" stroke="#000" stroke-width="3" fill="none"/><path d="M1561.83 759.9l13-7.5v15z" stroke="#000" stroke-width="3" fill="#fff"/><path d="M1612.73 759.9l.12 1.46h-1.66v-2.95h1.65z" stroke="#000" stroke-width=".05"/><path d="M1060.28 940a20 20 0 0 1 20-20h61.36a20 20 0 0 1 20 20 20 20 0 0 1-20 20h-61.36a20 20 0 0 1-20-20zM921.92 940a20 20 0 0 1 20-20h61.36a20 20 0 0 1 20 20 20 20 0 0 1-20 20h-61.36a20 20 0 0 1-20-20z" stroke="#000" stroke-width="5" fill="#ced4db"/><path d="M920.28 800a20 20 0 0 1 20-20h201.36a20 20 0 0 1 20 20v60a20 20 0 0 1-20 20H940.28a20 20 0 0 1-20-20z" stroke="#000" stroke-width="5" fill="url(#m)"/><path d="M920.28 720a20 20 0 0 1 20-20h201.36a20 20 0 0 1 20 20 20 20 0 0 1-20 20H940.28a20 20 0 0 1-20-20z" stroke="#000" stroke-width="5" fill="#c3f7c8"/><path d="M972.6 896.88V884" stroke="#000" stroke-width="3" fill="none"/><path d="M972.6 912.65l-4.63-14.27h9.27z" stroke="#000" stroke-width="3"/><path d="M974.08 884.04h-2.95v-1.54h2.95z" stroke="#000" stroke-width=".05"/><path d="M1110.96 896.88V884" stroke="#000" stroke-width="3" fill="none"/><path d="M1110.96 912.65l-4.63-14.27h9.27z" stroke="#000" stroke-width="3"/><path d="M1112.44 884.04h-2.95v-1.54h2.94z" stroke="#000" stroke-width=".05"/><path d="M1040.96 756.88V744" stroke="#000" stroke-width="3" fill="none"/><path d="M1040.96 772.65l-4.63-14.27h9.27z" stroke="#000" stroke-width="3"/><path d="M1042.44 744.04h-2.95v-1.54h2.94z" stroke="#000" stroke-width=".05"/><path d="M1043.28 940h13" stroke="#000" stroke-width="3" fill="none"/><path d="M1028.8 940l12.98-7.5v15z" stroke="#000" stroke-width="3" fill="#fff"/><path d="M1057.78 940l.1 1.48h-1.64v-2.96h1.65z" stroke="#000" stroke-width=".05"/><defs><linearGradient gradientUnits="userSpaceOnUse" id="a" x1="600" y1="520" x2="600" y2="280.72"><stop offset="19.2%" stop-color="#ced4db"/><stop offset="26.45%" stop-color="#fff"/><stop offset="45.29%" stop-color="#fff"/><stop offset="52.54%" stop-color="#cfe4ff"/><stop offset="73.91%" stop-color="#cfe4ff"/><stop offset="82.97%" stop-color="#c3f7c8"/></linearGradient><linearGradient gradientUnits="userSpaceOnUse" id="b" x1="920" y1="41.33" x2="920" y2="101.33"><stop offset="36.34%" stop-color="#fff"/><stop offset="53.33%" stop-color="#ced4db"/></linearGradient><linearGradient gradientUnits="userSpaceOnUse" id="c" x1="920" y1="1.33" x2="920" y2="-74.17"><stop offset="18.48%" stop-color="#fff"/><stop offset="29.03%" stop-color="#cfe4ff"/></linearGradient><linearGradient gradientUnits="userSpaceOnUse" id="d" x1="1680" y1="201.33" x2="1680" y2="101.33"><stop offset="18.48%" stop-color="#fff"/><stop offset="24.28%" stop-color="#cfe4ff"/></linearGradient><linearGradient gradientUnits="userSpaceOnUse" id="e" x1="1520" y1="201.33" x2="1520" y2="101.33"><stop offset="18.48%" stop-color="#fff"/><stop offset="24.28%" stop-color="#cfe4ff"/></linearGradient><linearGradient gradientUnits="userSpaceOnUse" id="f" x1="1360" y1="201.33" x2="1360" y2="101.33"><stop offset="18.48%" stop-color="#fff"/><stop offset="24.28%" stop-color="#cfe4ff"/></linearGradient><linearGradient gradientUnits="userSpaceOnUse" id="g" x1="1615.24" y1="699.89" x2="1615.24" y2="599.89"><stop offset="18.48%" stop-color="#fff"/><stop offset="24.28%" stop-color="#cfe4ff"/></linearGradient><linearGradient gradientUnits="userSpaceOnUse" id="h" x1="1615.24" y1="499.89" x2="1615.24" y2="559.89"><stop offset="60.14%" stop-color="#c3f7c8"/><stop offset="82.61%" stop-color="#cfe4ff"/></linearGradient><linearGradient gradientUnits="userSpaceOnUse" id="i" x1="1476.74" y1="699.89" x2="1476.74" y2="599.89"><stop offset="18.48%" stop-color="#fff"/><stop offset="24.28%" stop-color="#cfe4ff"/></linearGradient><linearGradient gradientUnits="userSpaceOnUse" id="j" x1="1355.24" y1="699.89" x2="1355.24" y2="599.89"><stop offset="18.48%" stop-color="#fff"/><stop offset="24.28%" stop-color="#cfe4ff"/></linearGradient><linearGradient gradientUnits="userSpaceOnUse" id="k" x1="1675.24" y1="699.89" x2="1675.24" y2="599.89"><stop offset="18.48%" stop-color="#fff"/><stop offset="24.28%" stop-color="#cfe4ff"/></linearGradient><linearGradient gradientUnits="userSpaceOnUse" id="l" x1="1735.24" y1="699.89" x2="1735.24" y2="599.89"><stop offset="18.48%" stop-color="#fff"/><stop offset="24.28%" stop-color="#cfe4ff"/></linearGradient><linearGradient gradientUnits="userSpaceOnUse" id="m" x1="920.28" y1="880" x2="920.28" y2="780"><stop offset="18.48%" stop-color="#fff"/><stop offset="24.28%" stop-color="#cfe4ff"/></linearGradient></defs></g></svg>