<svg xmlns="http://www.w3.org/2000/svg" xmlns:xlink="http://www.w3.org/1999/xlink" xmlns:lucid="lucid" width="375.05" height="363"><g transform="translate(-586.4538459413117 -298.5)" lucid:page-tab-id="0_0"><path d="M592.1 622.75a6 6 0 0 1 0-8.5l75.63-75.6a6 6 0 0 1 8.5 0l19.53 19.53a6 6 0 0 1 0 8.5l-75.62 75.6a6 6 0 0 1-8.5 0z" stroke="#000" stroke-opacity="0" stroke-width="2" fill="#fff" fill-opacity="0"/><use xlink:href="#a" transform="matrix(0.7071067811865476,-0.7071067811865475,0.7071067811865475,0.7071067811865476,594.9391273155502,618.5056274847713) translate(-3.1296296296296404 21.333333333333336)"/><path d="M701.5 560h247.17M701.54 560H700M939.68 550L957 560l-17.32 10M957 560h-8.5M700 558.5V311.33M700 558.46V560M690 320.32L700 303l10 17.32M700 303v8.5M698.94 561.06L608 652M698.9 561.1l1.1-1.1M621.44 652.7l-19.32 5.18 5.18-19.32m-5.18 19.32l6-6" stroke="#000" stroke-width="3" fill="none"/><path d="M666 520a6 6 0 0 1-6-6V306a6 6 0 0 1 6-6h28a6 6 0 0 1 6 6v208a6 6 0 0 1-6 6z" stroke="#000" stroke-opacity="0" stroke-width="2" fill="#fff" fill-opacity="0"/><use xlink:href="#b" transform="matrix(6.123233995736766e-17,-1,1,6.123233995736766e-17,665,515.0000000000001) translate(20.740740740740748 23.270833333333336)"/><path d="M760 566a6 6 0 0 1 6-6h188a6 6 0 0 1 6 6v28a6 6 0 0 1-6 6H766a6 6 0 0 1-6-6z" stroke="#000" stroke-opacity="0" stroke-width="2" fill="#fff" fill-opacity="0"/><use xlink:href="#c" transform="matrix(1,0,0,1,765,565) translate(22.592592592592567 23.208333333333336)"/><path d="M730 350.67a20 20 0 0 1 20-20h160a20 20 0 0 1 20 20v160a20 20 0 0 1-20 20H750a20 20 0 0 1-20-20z" stroke="#000" fill="#dedeff" fill-opacity=".5"/><use xlink:href="#d" transform="matrix(1,0,0,1,735,335.6666666666667) translate(47.8 51.78208333333333)"/><use xlink:href="#e" transform="matrix(1,0,0,1,735,335.6666666666667) translate(19.426666666666662 109.64875)"/><use xlink:href="#f" transform="matrix(1,0,0,1,735,335.6666666666667) translate(49.559999999999995 167.51541666666668)"/><defs><path fill="#008573" d="M169-182c-1-43-94-46-97-3 18 66 151 10 154 114 3 95-165 93-204 36-6-8-10-19-12-30l50-8c3 46 112 56 116 5-17-69-150-10-154-114-4-87 153-88 188-35 5 8 8 18 10 28" id="g"/><path fill="#008573" d="M114-157C55-157 80-60 75 0H25v-261h50l-1 109c12-26 28-41 61-42 86-1 58 113 63 194h-50c-7-57 23-157-34-157" id="h"/><path fill="#008573" d="M133-34C117-15 103 5 69 4 32 3 11-16 11-54c-1-60 55-63 116-61 1-26-3-47-28-47-18 1-26 9-28 27l-52-2c7-38 36-58 82-57s74 22 75 68l1 82c-1 14 12 18 25 15v27c-30 8-71 5-69-32zm-48 3c29 0 43-24 42-57-32 0-66-3-65 30 0 17 8 27 23 27" id="i"/><path fill="#008573" d="M135-150c-39-12-60 13-60 57V0H25l-1-190h47c2 13-1 29 3 40 6-28 27-53 61-41v41" id="j"/><path fill="#008573" d="M88-194c31-1 46 15 58 34l-1-101h50l1 261h-48c-2-10 0-23-3-31C134-8 116 4 84 4 32 4 16-41 15-95c0-56 19-97 73-99zm17 164c33 0 40-30 41-66 1-37-9-64-41-64s-38 30-39 65c0 43 13 65 39 65" id="k"/><path fill="#008573" d="M25-224v-37h50v37H25zM25 0v-190h50V0H25" id="l"/><path fill="#008573" d="M135-194c87-1 58 113 63 194h-50c-7-57 23-157-34-157-59 0-34 97-39 157H25l-1-190h47c2 12-1 28 3 38 12-26 28-41 61-42" id="m"/><path fill="#008573" d="M195-6C206 82 75 100 31 46c-4-6-6-13-8-21l49-6c3 16 16 24 34 25 40 0 42-37 40-79-11 22-30 35-61 35-53 0-70-43-70-97 0-56 18-96 73-97 30 0 46 14 59 34l2-30h47zm-90-29c32 0 41-27 41-63 0-35-9-62-40-62-32 0-39 29-40 63 0 36 9 62 39 62" id="n"/><g id="a"><use transform="matrix(0.07407407407407408,0,0,0.07407407407407408,0,0)" xlink:href="#g"/><use transform="matrix(0.07407407407407408,0,0,0.07407407407407408,17.77777777777778,0)" xlink:href="#h"/><use transform="matrix(0.07407407407407408,0,0,0.07407407407407408,34,0)" xlink:href="#i"/><use transform="matrix(0.07407407407407408,0,0,0.07407407407407408,48.81481481481481,0)" xlink:href="#j"/><use transform="matrix(0.07407407407407408,0,0,0.07407407407407408,59.18518518518519,0)" xlink:href="#k"/><use transform="matrix(0.07407407407407408,0,0,0.07407407407407408,75.40740740740742,0)" xlink:href="#l"/><use transform="matrix(0.07407407407407408,0,0,0.07407407407407408,82.81481481481482,0)" xlink:href="#m"/><use transform="matrix(0.07407407407407408,0,0,0.07407407407407408,99.03703703703705,0)" xlink:href="#n"/></g><path fill="#008573" d="M199 0l-22-63H83L61 0H9l90-248h61L250 0h-51zm-33-102l-36-108c-10 38-24 72-36 108h72" id="o"/><path fill="#008573" d="M135-194c52 0 70 43 70 98 0 56-19 99-73 100-30 1-46-15-58-35L72 0H24l1-261h50v104c11-23 29-37 60-37zM114-30c31 0 40-27 40-66 0-37-7-63-39-63s-41 28-41 65c0 36 8 64 40 64" id="p"/><path fill="#008573" d="M137-138c1-29-70-34-71-4 15 46 118 7 119 86 1 83-164 76-172 9l43-7c4 19 20 25 44 25 33 8 57-30 24-41C81-84 22-81 20-136c-2-80 154-74 161-7" id="q"/><path fill="#008573" d="M115-3C79 11 28 4 28-45v-112H4v-33h27l15-45h31v45h36v33H77v99c-1 23 16 31 38 25v30" id="r"/><path fill="#008573" d="M190-63c-7 42-38 67-86 67-59 0-84-38-90-98-12-110 154-137 174-36l-49 2c-2-19-15-32-35-32-30 0-35 28-38 64-6 74 65 87 74 30" id="s"/><path fill="#008573" d="M185-48c-13 30-37 53-82 52C43 2 14-33 14-96s30-98 90-98c62 0 83 45 84 108H66c0 31 8 55 39 56 18 0 30-7 34-22zm-45-69c5-46-57-63-70-21-2 6-4 13-4 21h74" id="t"/><g id="b"><use transform="matrix(0.07407407407407408,0,0,0.07407407407407408,0,0)" xlink:href="#o"/><use transform="matrix(0.07407407407407408,0,0,0.07407407407407408,19.185185185185187,0)" xlink:href="#p"/><use transform="matrix(0.07407407407407408,0,0,0.07407407407407408,35.40740740740741,0)" xlink:href="#q"/><use transform="matrix(0.07407407407407408,0,0,0.07407407407407408,50.22222222222223,0)" xlink:href="#r"/><use transform="matrix(0.07407407407407408,0,0,0.07407407407407408,59.037037037037045,0)" xlink:href="#j"/><use transform="matrix(0.07407407407407408,0,0,0.07407407407407408,69.40740740740742,0)" xlink:href="#i"/><use transform="matrix(0.07407407407407408,0,0,0.07407407407407408,84.22222222222223,0)" xlink:href="#s"/><use transform="matrix(0.07407407407407408,0,0,0.07407407407407408,99.03703703703704,0)" xlink:href="#r"/><use transform="matrix(0.07407407407407408,0,0,0.07407407407407408,107.85185185185185,0)" xlink:href="#m"/><use transform="matrix(0.07407407407407408,0,0,0.07407407407407408,124.07407407407408,0)" xlink:href="#t"/><use transform="matrix(0.07407407407407408,0,0,0.07407407407407408,138.88888888888889,0)" xlink:href="#q"/><use transform="matrix(0.07407407407407408,0,0,0.07407407407407408,153.7037037037037,0)" xlink:href="#q"/></g><path fill="#008573" d="M85 4C-2 5 27-109 22-190h50c7 57-23 150 33 157 60-5 35-97 40-157h50l1 190h-47c-2-12 1-28-3-38-12 25-28 42-61 42" id="u"/><path fill="#008573" d="M110-194c64 0 96 36 96 99 0 64-35 99-97 99-61 0-95-36-95-99 0-62 34-99 96-99zm-1 164c35 0 45-28 45-65 0-40-10-65-43-65-34 0-45 26-45 65 0 36 10 65 43 65" id="v"/><path fill="#008573" d="M220-157c-53 9-28 100-34 157h-49v-107c1-27-5-49-29-50C55-147 81-57 75 0H25l-1-190h47c2 12-1 28 3 38 10-53 101-56 108 0 13-22 24-43 59-42 82 1 51 116 57 194h-49v-107c-1-25-5-48-29-50" id="w"/><g id="c"><use transform="matrix(0.07407407407407408,0,0,0.07407407407407408,0,0)" xlink:href="#g"/><use transform="matrix(0.07407407407407408,0,0,0.07407407407407408,17.77777777777778,0)" xlink:href="#u"/><use transform="matrix(0.07407407407407408,0,0,0.07407407407407408,34,0)" xlink:href="#p"/><use transform="matrix(0.07407407407407408,0,0,0.07407407407407408,50.22222222222223,0)" xlink:href="#k"/><use transform="matrix(0.07407407407407408,0,0,0.07407407407407408,66.44444444444446,0)" xlink:href="#v"/><use transform="matrix(0.07407407407407408,0,0,0.07407407407407408,82.66666666666667,0)" xlink:href="#w"/><use transform="matrix(0.07407407407407408,0,0,0.07407407407407408,106.3703703703704,0)" xlink:href="#i"/><use transform="matrix(0.07407407407407408,0,0,0.07407407407407408,121.18518518518522,0)" xlink:href="#l"/><use transform="matrix(0.07407407407407408,0,0,0.07407407407407408,128.59259259259264,0)" xlink:href="#m"/></g><path fill="#ba23f6" d="M388-700l-39 100c8 44 16 87 21 134 24-46 51-90 77-134l3-100h199l-94 100-151 238-56 262L372 0H147l66-100 56-260-55-240-52-100h226" id="x"/><path fill="#ba23f6" d="M351-446l-5-26h-89l-15 24-72 339 5 21h91l13-21zM70 0L50-83l83-393 55-84h264l20 83-83 394-56 83H70" id="y"/><path fill="#ba23f6" d="M387-476l-20-84h170l-56 83-83 394-56 83H99L79-83l83-393-20-84h190l-56 84-78 367 6 21h92l13-21" id="z"/><path fill="#ba23f6" d="M248-314h101c25-32 25-88 38-132l-6-26H272l5 22zm88 109l-5-21H229L181 0H29l56-83 83-393-20-84h340l20 83-27 130-30 47-61 30 43 29 15 50-23 108 20 83H330l-21-82" id="A"/><g id="d"><use transform="matrix(0.05333333333333334,0,0,0.05333333333333334,0,0)" xlink:href="#x"/><use transform="matrix(0.05333333333333334,0,0,0.05333333333333334,24.32,0)" xlink:href="#y"/><use transform="matrix(0.05333333333333334,0,0,0.05333333333333334,45.81333333333333,0)" xlink:href="#z"/><use transform="matrix(0.05333333333333334,0,0,0.05333333333333334,69.38666666666667,0)" xlink:href="#A"/></g><path fill="#ba23f6" d="M242-314h105c26-31 26-88 39-132l-7-26H266l5 22zm166 88H223L193-84l19 84H28l56-83 83-393-20-84h332l20 83-35 168" id="B"/><path fill="#ba23f6" d="M197-193h73l-4-152zM225 0l48-84-1-20H157l-9 20 13 84H-2l64-84 186-394-7-82h136l11 476 28 84H225" id="C"/><path fill="#ba23f6" d="M428-396l-63-38 8-38h-35L256-84l19 84H87l56-84 82-388h-33l-8 38-79 38 35-164h323" id="D"/><path fill="#ba23f6" d="M473-560l-28 131-65-43H272l4 16-26 122h31l82-41-37 171-64-42h-31l-30 144-9 14h107l83-42L354 0H27l56-84 83-392-20-84h327" id="E"/><path fill="#ba23f6" d="M549-560l-57 84L391 0h-84l-94-306v19L170-84l19 84H29l56-84 83-392-20-84h121l91 311c14-77 32-151 47-227l-21-84h163" id="F"/><g id="e"><use transform="matrix(0.05333333333333334,0,0,0.05333333333333334,0,0)" xlink:href="#B"/><use transform="matrix(0.05333333333333334,0,0,0.05333333333333334,21.973333333333336,0)" xlink:href="#C"/><use transform="matrix(0.05333333333333334,0,0,0.05333333333333334,42.93333333333334,0)" xlink:href="#D"/><use transform="matrix(0.05333333333333334,0,0,0.05333333333333334,62.34666666666667,0)" xlink:href="#D"/><use transform="matrix(0.05333333333333334,0,0,0.05333333333333334,81.76,0)" xlink:href="#E"/><use transform="matrix(0.05333333333333334,0,0,0.05333333333333334,101.86666666666667,0)" xlink:href="#A"/><use transform="matrix(0.05333333333333334,0,0,0.05333333333333334,126.88000000000001,0)" xlink:href="#F"/></g><path fill="#ba23f6" d="M572-560l-57 84-83 392 19 84H269l56-84 34-162H227L193-84l18 84H29l56-84 83-392-20-84h184l-56 84-30 142h132l30-142-20-84h184" id="G"/><g id="f"><use transform="matrix(0.05333333333333334,0,0,0.05333333333333334,0,0)" xlink:href="#G"/><use transform="matrix(0.05333333333333334,0,0,0.05333333333333334,25.653333333333336,0)" xlink:href="#E"/><use transform="matrix(0.05333333333333334,0,0,0.05333333333333334,45.760000000000005,0)" xlink:href="#A"/><use transform="matrix(0.05333333333333334,0,0,0.05333333333333334,70.77333333333334,0)" xlink:href="#E"/></g></defs></g></svg>