<svg xmlns="http://www.w3.org/2000/svg" xmlns:lucid="lucid" width="303" height="343"><g transform="translate(-598.5 -398.5)" lucid:page-tab-id="0_0"><path d="M600 500a20 20 0 0 1 20-20h260a20 20 0 0 1 20 20v140a20 20 0 0 1-20 20H620a20 20 0 0 1-20-20z" stroke="#000" stroke-width="3" fill="url(#a)"/><path d="M620 420a20 20 0 0 1 20-20h60a20 20 0 0 1 20 20 20 20 0 0 1-20 20h-60a20 20 0 0 1-20-20zM780 420a20 20 0 0 1 20-20h60a20 20 0 0 1 20 20 20 20 0 0 1-20 20h-60a20 20 0 0 1-20-20z" stroke="#1071e5" stroke-width="3" fill="#c3f7c8"/><path d="M667.66 477.5l-.08-17.5" stroke="#1071e5" stroke-width="2" fill="none"/><path d="M668.64 478.5h-1.95v-1.02h1.94z" stroke="#1071e5" stroke-width=".05" fill="#1071e5"/><path d="M667.5 444.74l4.72 14.24-9.27.04z" stroke="#1071e5" stroke-width="2" fill="#1071e5"/><path d="M829.84 477.5l.08-17.5" stroke="#1071e5" stroke-width="2" fill="none"/><path d="M830.82 477.48v1.02h-1.96v-1.03z" stroke="#1071e5" stroke-width=".05" fill="#1071e5"/><path d="M830 444.74l4.56 14.28-9.27-.04z" stroke="#1071e5" stroke-width="2" fill="#1071e5"/><path d="M600 720a20 20 0 0 1 20-20h20a20 20 0 0 1 20 20 20 20 0 0 1-20 20h-20a20 20 0 0 1-20-20z" stroke="#1071e5" stroke-width="3" fill="#fff"/><path d="M720 720a20 20 0 0 1 20-20h20a20 20 0 0 1 20 20 20 20 0 0 1-20 20h-20a20 20 0 0 1-20-20z" stroke="#1071e5" stroke-width="3" fill="#cfe4ff"/><path d="M840 720a20 20 0 0 1 20-20h20a20 20 0 0 1 20 20 20 20 0 0 1-20 20h-20a20 20 0 0 1-20-20z" stroke="#1071e5" stroke-width="3" fill="#fff"/><path d="M750 662.5V680" stroke="#1071e5" stroke-width="2" fill="none"/><path d="M750.98 662.53H749v-1.03H751z" stroke="#1071e5" stroke-width=".05" fill="#1071e5"/><path d="M750 695.26L745.37 681h9.26z" stroke="#1071e5" stroke-width="2" fill="#1071e5"/><path d="M869.76 662.5l.12 17.5" stroke="#1071e5" stroke-width="2" fill="none"/><path d="M870.74 662.52h-1.95l-.02-1.02h1.95z" stroke="#1071e5" stroke-width=".05" fill="#1071e5"/><path d="M869.98 695.26l-4.73-14.23 9.27-.06z" stroke="#1071e5" stroke-width="2" fill="#1071e5"/><path d="M631.24 662.5l-.12 17.5" stroke="#1071e5" stroke-width="2" fill="none"/><path d="M632.2 662.53h-1.94v-1.03h1.96z" stroke="#1071e5" stroke-width=".05" fill="#1071e5"/><path d="M631.02 695.26l-4.54-14.3 9.27.07z" stroke="#1071e5" stroke-width="2" fill="#1071e5"/><defs><linearGradient gradientUnits="userSpaceOnUse" id="a" x1="600" y1="660" x2="600" y2="480"><stop offset="19.2%" stop-color="#ced4db"/><stop offset="26.45%" stop-color="#fff"/><stop offset="45.29%" stop-color="#fff"/><stop offset="52.54%" stop-color="#cfe4ff"/><stop offset="73.91%" stop-color="#cfe4ff"/><stop offset="82.97%" stop-color="#c3f7c8"/></linearGradient></defs></g></svg>