<svg xmlns="http://www.w3.org/2000/svg" xmlns:xlink="http://www.w3.org/1999/xlink" xmlns:lucid="lucid" width="363" height="305"><g transform="translate(-498.5 -198.5)" lucid:page-tab-id="0_0"><path d="M500 460a20 20 0 0 1 20-20h320a20 20 0 0 1 20 20v22a20 20 0 0 1-20 20H520a20 20 0 0 1-20-20z" stroke="#1071e5" stroke-width="3" fill="#ced4db"/><use xlink:href="#a" transform="matrix(1,0,0,1,505,445) translate(146.88888888888889 31.083333333333336)"/><path d="M500 220a20 20 0 0 1 20-20h320a20 20 0 0 1 20 20v20a20 20 0 0 1-20 20H520a20 20 0 0 1-20-20z" stroke="#1071e5" stroke-width="3" fill="url(#b)"/><use xlink:href="#c" transform="matrix(1,0,0,1,505,205) translate(112.11111111111111 30.708333333333336)"/><path d="M640 320a20 20 0 0 1 20-20h40a20 20 0 0 1 20 20v60a20 20 0 0 1-20 20h-40a20 20 0 0 1-20-20z" stroke="#000" stroke-width="3" fill="url(#d)"/><path d="M500 320a20 20 0 0 1 20-20h40a20 20 0 0 1 20 20v60a20 20 0 0 1-20 20h-40a20 20 0 0 1-20-20z" stroke="#000" stroke-width="3" fill="url(#e)"/><path d="M780 320a20 20 0 0 1 20-20h40a20 20 0 0 1 20 20v60a20 20 0 0 1-20 20h-40a20 20 0 0 1-20-20z" stroke="#000" stroke-width="3" fill="url(#f)"/><path d="M820 402.5V420" stroke="#000" stroke-width="2" fill="none"/><path d="M820.98 402.53H819v-1.03H821z" stroke="#000" stroke-width=".05"/><path d="M820 435.26L815.37 421h9.26z" stroke="#000" stroke-width="2"/><path d="M680 402.5V420" stroke="#000" stroke-width="2" fill="none"/><path d="M680.98 402.53H679v-1.03H681z" stroke="#000" stroke-width=".05"/><path d="M680 435.26L675.37 421h9.26z" stroke="#000" stroke-width="2"/><path d="M540 402.5V420" stroke="#000" stroke-width="2" fill="none"/><path d="M540.98 402.53H539v-1.03H541z" stroke="#000" stroke-width=".05"/><path d="M540 435.26L535.37 421h9.26z" stroke="#000" stroke-width="2"/><path d="M820 262.5V280" stroke="#000" stroke-width="2" fill="none"/><path d="M820.98 262.53H819v-1.03H821z" stroke="#000" stroke-width=".05"/><path d="M820 295.26L815.37 281h9.26z" stroke="#000" stroke-width="2"/><path d="M680 262.5V280" stroke="#000" stroke-width="2" fill="none"/><path d="M680.98 262.53H679v-1.03H681z" stroke="#000" stroke-width=".05"/><path d="M680 295.26L675.37 281h9.26z" stroke="#000" stroke-width="2"/><path d="M540 262.5V280" stroke="#000" stroke-width="2" fill="none"/><path d="M540.98 262.53H539v-1.03H541z" stroke="#000" stroke-width=".05"/><path d="M540 295.26L535.37 281h9.26z" stroke="#000" stroke-width="2"/><defs><path d="M248-139C247-14 144 9 11 0l48-248c105-6 190 8 189 109zm-34 0c1-70-52-87-126-82L50-27c98 7 163-21 164-112" id="g"/><path d="M165-48c-4 18 1 34 23 27l-3 20c-29 8-62 0-52-35h-2C116-14 99 4 63 4 30 4 8-16 8-49c0-68 71-67 138-67 10-26 0-56-31-54-26 1-42 9-47 31l-32-5c8-67 160-71 144 15-5 28-9 54-15 81zM42-50c3 52 80 24 89-6 7-12 7-24 11-38-47 1-103-4-100 44" id="h"/><path d="M51-54c-9 22 5 41 31 30L79-1C43 14 10-4 19-52l22-115H19l5-23h22l19-43h21l-9 43h35l-4 23H73" id="i"/><g id="a"><use transform="matrix(0.07407407407407408,0,0,0.07407407407407408,0,0)" xlink:href="#g"/><use transform="matrix(0.07407407407407408,0,0,0.07407407407407408,19.185185185185187,0)" xlink:href="#h"/><use transform="matrix(0.07407407407407408,0,0,0.07407407407407408,34,0)" xlink:href="#i"/><use transform="matrix(0.07407407407407408,0,0,0.07407407407407408,41.407407407407405,0)" xlink:href="#h"/></g><linearGradient gradientUnits="userSpaceOnUse" id="b" x1="500" y1="200" x2="500" y2="260"><stop offset="27.54%" stop-color="#fff"/><stop offset="65.22%" stop-color="#c3f7c8"/></linearGradient><path d="M14 0l48-248h34L48 0H14" id="j"/><path d="M67-158c22-48 132-52 116 29L158 0h-32l25-140c3-38-53-32-70-12C52-117 51-52 38 0H6l36-190h30" id="k"/><path d="M111-194c62-3 86 47 72 106H45c-7 38 6 69 45 68 27-1 43-14 53-32l24 11C152-15 129 4 87 4 38 3 12-23 12-71c0-70 32-119 99-123zm44 81c14-66-71-72-95-28-4 8-8 17-11 28h106" id="l"/><path d="M103-194c29 0 47 14 56 36 2-11 5-23 8-32h30L160-5C157 61 82 97 21 62 9 55 4 45 1 30l28-7c7 42 83 31 92-3 4-16 9-38 13-55-13 20-29 36-62 36-40 0-60-25-60-64 0-71 23-131 91-131zm4 24c-53 0-58 54-61 104-2 27 10 44 36 44 49 0 65-50 67-102 1-29-15-46-42-46" id="m"/><path d="M66-151c12-25 30-51 66-40l-6 26C45-176 58-65 38 0H6l36-190h30" id="n"/><path d="M50-231l6-30h32l-6 30H50zM6 0l37-190h31L37 0H6" id="o"/><path d="M30-147c31-64 166-65 159 27C183-49 158 1 86 4 9 8 1-88 30-147zM88-20c53 0 68-48 68-100 0-31-11-51-44-50-52 1-68 46-68 97 0 32 13 53 44 53" id="p"/><g id="c"><use transform="matrix(0.07407407407407408,0,0,0.07407407407407408,0,0)" xlink:href="#j"/><use transform="matrix(0.07407407407407408,0,0,0.07407407407407408,7.407407407407408,0)" xlink:href="#k"/><use transform="matrix(0.07407407407407408,0,0,0.07407407407407408,22.222222222222225,0)" xlink:href="#i"/><use transform="matrix(0.07407407407407408,0,0,0.07407407407407408,29.629629629629633,0)" xlink:href="#l"/><use transform="matrix(0.07407407407407408,0,0,0.07407407407407408,44.44444444444445,0)" xlink:href="#m"/><use transform="matrix(0.07407407407407408,0,0,0.07407407407407408,59.25925925925927,0)" xlink:href="#n"/><use transform="matrix(0.07407407407407408,0,0,0.07407407407407408,68.07407407407408,0)" xlink:href="#h"/><use transform="matrix(0.07407407407407408,0,0,0.07407407407407408,82.88888888888889,0)" xlink:href="#i"/><use transform="matrix(0.07407407407407408,0,0,0.07407407407407408,90.29629629629629,0)" xlink:href="#o"/><use transform="matrix(0.07407407407407408,0,0,0.07407407407407408,96.14814814814814,0)" xlink:href="#p"/><use transform="matrix(0.07407407407407408,0,0,0.07407407407407408,110.96296296296296,0)" xlink:href="#k"/></g><linearGradient gradientUnits="userSpaceOnUse" id="d" x1="640" y1="300" x2="640" y2="400"><stop offset="65.22%" stop-color="#cfe4ff"/><stop offset="88.21%" stop-color="#fff"/></linearGradient><linearGradient gradientUnits="userSpaceOnUse" id="e" x1="500" y1="300" x2="500" y2="400"><stop offset="65.22%" stop-color="#cfe4ff"/><stop offset="88.21%" stop-color="#fff"/></linearGradient><linearGradient gradientUnits="userSpaceOnUse" id="f" x1="780" y1="300" x2="780" y2="400"><stop offset="65.22%" stop-color="#cfe4ff"/><stop offset="88.21%" stop-color="#fff"/></linearGradient></defs></g></svg>