<svg xmlns="http://www.w3.org/2000/svg" xmlns:xlink="http://www.w3.org/1999/xlink" xmlns:lucid="lucid" width="843" height="883"><g transform="translate(-498.5 -498.5)" lucid:page-tab-id="0_0"><path d="M660 742.5V760" stroke="#000" stroke-width="2" fill="none"/><path d="M660.98 742.53H659v-1.03H661z" stroke="#000" stroke-width=".05"/><path d="M660 775.26L655.37 761h9.26z" stroke="#000" stroke-width="2"/><path d="M680 722.5V760" stroke="#000" stroke-width="2" fill="none"/><path d="M680.98 722.53H679v-1.03H681z" stroke="#000" stroke-width=".05"/><path d="M680 775.26L675.37 761h9.26z" stroke="#000" stroke-width="2"/><path d="M600 660a20 20 0 0 1 20-20h120a20 20 0 0 1 20 20v40a20 20 0 0 1-20 20H620a20 20 0 0 1-20-20z" stroke="#000" stroke-width="3" fill="url(#a)"/><use xlink:href="#b" transform="matrix(1,0,0,1,605,645) translate(27.46913580246914 39.78993055555556)"/><path d="M1080 1200a20 20 0 0 1 20-20h220a20 20 0 0 1 20 20v80a20 20 0 0 1-20 20h-220a20 20 0 0 1-20-20z" fill-opacity="0"/><path d="M1078.5 1200.02v-.02a1.5 1.5 0 0 1 1.5-1.5 1.5 1.5 0 0 1 1.5 1.5 1.5 1.5 0 0 1-1.5 1.5 1.5 1.5 0 0 1-1.5-1.5v-.02m2.73-9.94a1.5 1.5 0 0 1 1.5-1.5 1.5 1.5 0 0 1 1.5 1.5 1.5 1.5 0 0 1-1.5 1.5 1.5 1.5 0 0 1-1.5-1.5v-.03m7.3-7.26a1.5 1.5 0 0 1 1.5-1.5 1.5 1.5 0 0 1 1.5 1.5 1.5 1.5 0 0 1-1.5 1.5 1.5 1.5 0 0 1-1.5-1.5v-.03m9.97-2.68v-.02a1.5 1.5 0 0 1 1.5-1.5 1.5 1.5 0 0 1 1.5 1.5 1.5 1.5 0 0 1-1.5 1.5 1.5 1.5 0 0 1-1.5-1.5v-.02m12.22.04v-.02a1.5 1.5 0 0 1 1.5-1.5 1.5 1.5 0 0 1 1.5 1.5 1.5 1.5 0 0 1-1.5 1.5 1.5 1.5 0 0 1-1.5-1.5v-.02m12.22.04v-.02a1.5 1.5 0 0 1 1.5-1.5 1.5 1.5 0 0 1 1.5 1.5 1.5 1.5 0 0 1-1.5 1.5 1.5 1.5 0 0 1-1.5-1.5v-.02m12.23.04v-.02a1.5 1.5 0 0 1 1.5-1.5 1.5 1.5 0 0 1 1.5 1.5 1.5 1.5 0 0 1-1.5 1.5 1.5 1.5 0 0 1-1.5-1.5v-.02m12.22.04v-.02a1.5 1.5 0 0 1 1.5-1.5 1.5 1.5 0 0 1 1.5 1.5 1.5 1.5 0 0 1-1.5 1.5 1.5 1.5 0 0 1-1.5-1.5v-.02m12.2.04v-.02a1.5 1.5 0 0 1 1.5-1.5 1.5 1.5 0 0 1 1.5 1.5 1.5 1.5 0 0 1-1.5 1.5 1.5 1.5 0 0 1-1.5-1.5v-.02m12.23.04v-.02a1.5 1.5 0 0 1 1.5-1.5 1.5 1.5 0 0 1 1.5 1.5 1.5 1.5 0 0 1-1.5 1.5 1.5 1.5 0 0 1-1.5-1.5v-.02m12.23.04v-.02a1.5 1.5 0 0 1 1.5-1.5 1.5 1.5 0 0 1 1.5 1.5 1.5 1.5 0 0 1-1.5 1.5 1.5 1.5 0 0 1-1.5-1.5v-.02m12.22.04v-.02a1.5 1.5 0 0 1 1.5-1.5 1.5 1.5 0 0 1 1.5 1.5 1.5 1.5 0 0 1-1.5 1.5 1.5 1.5 0 0 1-1.5-1.5v-.02m12.22.04v-.02a1.5 1.5 0 0 1 1.5-1.5 1.5 1.5 0 0 1 1.5 1.5 1.5 1.5 0 0 1-1.5 1.5 1.5 1.5 0 0 1-1.5-1.5v-.02m12.22.04v-.02a1.5 1.5 0 0 1 1.5-1.5 1.5 1.5 0 0 1 1.5 1.5 1.5 1.5 0 0 1-1.5 1.5 1.5 1.5 0 0 1-1.5-1.5v-.02m12.22.04v-.02a1.5 1.5 0 0 1 1.5-1.5 1.5 1.5 0 0 1 1.5 1.5 1.5 1.5 0 0 1-1.5 1.5 1.5 1.5 0 0 1-1.5-1.5v-.02m12.23.04v-.02a1.5 1.5 0 0 1 1.5-1.5 1.5 1.5 0 0 1 1.5 1.5 1.5 1.5 0 0 1-1.5 1.5 1.5 1.5 0 0 1-1.5-1.5v-.02m12.22.04v-.02a1.5 1.5 0 0 1 1.5-1.5 1.5 1.5 0 0 1 1.5 1.5 1.5 1.5 0 0 1-1.5 1.5 1.5 1.5 0 0 1-1.5-1.5v-.02m12.2.04v-.02a1.5 1.5 0 0 1 1.5-1.5 1.5 1.5 0 0 1 1.5 1.5 1.5 1.5 0 0 1-1.5 1.5 1.5 1.5 0 0 1-1.5-1.5v-.02m12.23.04v-.02a1.5 1.5 0 0 1 1.5-1.5 1.5 1.5 0 0 1 1.5 1.5 1.5 1.5 0 0 1-1.5 1.5 1.5 1.5 0 0 1-1.5-1.5v-.02m12.23.04v-.02a1.5 1.5 0 0 1 1.5-1.5 1.5 1.5 0 0 1 1.5 1.5 1.5 1.5 0 0 1-1.5 1.5 1.5 1.5 0 0 1-1.5-1.5v-.02m12.22.04v-.02a1.5 1.5 0 0 1 1.5-1.5 1.5 1.5 0 0 1 1.5 1.5 1.5 1.5 0 0 1-1.5 1.5 1.5 1.5 0 0 1-1.5-1.5v-.02m12.22.04v-.02a1.5 1.5 0 0 1 1.5-1.5 1.5 1.5 0 0 1 1.5 1.5 1.5 1.5 0 0 1-1.5 1.5 1.5 1.5 0 0 1-1.5-1.5v-.02m9.97 2.76a1.5 1.5 0 0 1 1.5-1.5 1.5 1.5 0 0 1 1.5 1.5 1.5 1.5 0 0 1-1.5 1.5 1.5 1.5 0 0 1-1.5-1.5v-.03m7.3 7.34a1.5 1.5 0 0 1 1.5-1.5 1.5 1.5 0 0 1 1.5 1.5 1.5 1.5 0 0 1-1.5 1.5 1.5 1.5 0 0 1-1.5-1.5v-.03m2.73 10.02v-.02a1.5 1.5 0 0 1 1.5-1.5 1.5 1.5 0 0 1 1.5 1.5 1.5 1.5 0 0 1-1.5 1.5 1.5 1.5 0 0 1-1.5-1.5v-.02m0 11.46a1.5 1.5 0 0 1 1.5-1.5 1.5 1.5 0 0 1 1.5 1.5 1.5 1.5 0 0 1-1.5 1.5 1.5 1.5 0 0 1-1.5-1.5v-.03m0 11.47a1.5 1.5 0 0 1 1.5-1.5 1.5 1.5 0 0 1 1.5 1.5 1.5 1.5 0 0 1-1.5 1.5 1.5 1.5 0 0 1-1.5-1.5v-.03m0 11.46a1.5 1.5 0 0 1 1.5-1.5 1.5 1.5 0 0 1 1.5 1.5 1.5 1.5 0 0 1-1.5 1.5 1.5 1.5 0 0 1-1.5-1.5v-.03m0 11.46v-.02a1.5 1.5 0 0 1 1.5-1.5 1.5 1.5 0 0 1 1.5 1.5 1.5 1.5 0 0 1-1.5 1.5 1.5 1.5 0 0 1-1.5-1.5m0 11.46v-.02a1.5 1.5 0 0 1 1.5-1.5 1.5 1.5 0 0 1 1.5 1.5 1.5 1.5 0 0 1-1.5 1.5 1.5 1.5 0 0 1-1.5-1.5m0 11.45v-.03a1.5 1.5 0 0 1 1.5-1.5 1.5 1.5 0 0 1 1.5 1.5 1.5 1.5 0 0 1-1.5 1.5 1.5 1.5 0 0 1-1.5-1.5m0 11.45v-.02a1.5 1.5 0 0 1 1.5-1.5 1.5 1.5 0 0 1 1.5 1.5 1.5 1.5 0 0 1-1.5 1.5 1.5 1.5 0 0 1-1.5-1.5v-.02m-2.73 10a1.5 1.5 0 0 1 1.5-1.5 1.5 1.5 0 0 1 1.5 1.5 1.5 1.5 0 0 1-1.5 1.5 1.5 1.5 0 0 1-1.5-1.5v-.02m-7.3 7.33v-.03a1.5 1.5 0 0 1 1.5-1.5 1.5 1.5 0 0 1 1.5 1.5 1.5 1.5 0 0 1-1.5 1.5 1.5 1.5 0 0 1-1.5-1.5m-9.97 2.75v-.02a1.5 1.5 0 0 1 1.5-1.5 1.5 1.5 0 0 1 1.5 1.5 1.5 1.5 0 0 1-1.5 1.5 1.5 1.5 0 0 1-1.5-1.5v-.02m-12.22.04v-.02a1.5 1.5 0 0 1 1.5-1.5 1.5 1.5 0 0 1 1.5 1.5 1.5 1.5 0 0 1-1.5 1.5 1.5 1.5 0 0 1-1.5-1.5v-.02m-12.22.04v-.02a1.5 1.5 0 0 1 1.5-1.5 1.5 1.5 0 0 1 1.5 1.5 1.5 1.5 0 0 1-1.5 1.5 1.5 1.5 0 0 1-1.5-1.5v-.02m-12.23.04v-.02a1.5 1.5 0 0 1 1.5-1.5 1.5 1.5 0 0 1 1.5 1.5 1.5 1.5 0 0 1-1.5 1.5 1.5 1.5 0 0 1-1.5-1.5v-.02m-12.22.04v-.02a1.5 1.5 0 0 1 1.5-1.5 1.5 1.5 0 0 1 1.5 1.5 1.5 1.5 0 0 1-1.5 1.5 1.5 1.5 0 0 1-1.5-1.5v-.02m-12.2.04v-.02a1.5 1.5 0 0 1 1.5-1.5 1.5 1.5 0 0 1 1.5 1.5 1.5 1.5 0 0 1-1.5 1.5 1.5 1.5 0 0 1-1.5-1.5v-.02m-12.23.04v-.02a1.5 1.5 0 0 1 1.5-1.5 1.5 1.5 0 0 1 1.5 1.5 1.5 1.5 0 0 1-1.5 1.5 1.5 1.5 0 0 1-1.5-1.5v-.02m-12.23.04v-.02a1.5 1.5 0 0 1 1.5-1.5 1.5 1.5 0 0 1 1.5 1.5 1.5 1.5 0 0 1-1.5 1.5 1.5 1.5 0 0 1-1.5-1.5v-.02m-12.22.04v-.02a1.5 1.5 0 0 1 1.5-1.5 1.5 1.5 0 0 1 1.5 1.5 1.5 1.5 0 0 1-1.5 1.5 1.5 1.5 0 0 1-1.5-1.5v-.02m-12.22.04v-.02a1.5 1.5 0 0 1 1.5-1.5 1.5 1.5 0 0 1 1.5 1.5 1.5 1.5 0 0 1-1.5 1.5 1.5 1.5 0 0 1-1.5-1.5v-.02m-12.22.04v-.02a1.5 1.5 0 0 1 1.5-1.5 1.5 1.5 0 0 1 1.5 1.5 1.5 1.5 0 0 1-1.5 1.5 1.5 1.5 0 0 1-1.5-1.5v-.02m-12.22.04v-.02a1.5 1.5 0 0 1 1.5-1.5 1.5 1.5 0 0 1 1.5 1.5 1.5 1.5 0 0 1-1.5 1.5 1.5 1.5 0 0 1-1.5-1.5v-.02m-12.23.04v-.02a1.5 1.5 0 0 1 1.5-1.5 1.5 1.5 0 0 1 1.5 1.5 1.5 1.5 0 0 1-1.5 1.5 1.5 1.5 0 0 1-1.5-1.5v-.02m-12.22.04v-.02a1.5 1.5 0 0 1 1.5-1.5 1.5 1.5 0 0 1 1.5 1.5 1.5 1.5 0 0 1-1.5 1.5 1.5 1.5 0 0 1-1.5-1.5v-.02m-12.2.04v-.02a1.5 1.5 0 0 1 1.5-1.5 1.5 1.5 0 0 1 1.5 1.5 1.5 1.5 0 0 1-1.5 1.5 1.5 1.5 0 0 1-1.5-1.5v-.02m-12.23.04v-.02a1.5 1.5 0 0 1 1.5-1.5 1.5 1.5 0 0 1 1.5 1.5 1.5 1.5 0 0 1-1.5 1.5 1.5 1.5 0 0 1-1.5-1.5v-.02m-12.23.04v-.02a1.5 1.5 0 0 1 1.5-1.5 1.5 1.5 0 0 1 1.5 1.5 1.5 1.5 0 0 1-1.5 1.5 1.5 1.5 0 0 1-1.5-1.5v-.02m-12.22.04v-.02a1.5 1.5 0 0 1 1.5-1.5 1.5 1.5 0 0 1 1.5 1.5 1.5 1.5 0 0 1-1.5 1.5 1.5 1.5 0 0 1-1.5-1.5v-.02m-12.22.04v-.02a1.5 1.5 0 0 1 1.5-1.5 1.5 1.5 0 0 1 1.5 1.5 1.5 1.5 0 0 1-1.5 1.5 1.5 1.5 0 0 1-1.5-1.5v-.02m-9.97-2.7a1.5 1.5 0 0 1 1.5-1.5 1.5 1.5 0 0 1 1.5 1.5 1.5 1.5 0 0 1-1.5 1.5 1.5 1.5 0 0 1-1.5-1.5v-.02m-7.3-7.27v-.03a1.5 1.5 0 0 1 1.5-1.5 1.5 1.5 0 0 1 1.5 1.5 1.5 1.5 0 0 1-1.5 1.5 1.5 1.5 0 0 1-1.5-1.5m-2.73-9.95v-.02a1.5 1.5 0 0 1 1.5-1.5 1.5 1.5 0 0 1 1.5 1.5 1.5 1.5 0 0 1-1.5 1.5 1.5 1.5 0 0 1-1.5-1.5v-.02m0-11.4a1.5 1.5 0 0 1 1.5-1.5 1.5 1.5 0 0 1 1.5 1.5 1.5 1.5 0 0 1-1.5 1.5 1.5 1.5 0 0 1-1.5-1.5v-.02m0-11.4v-.02a1.5 1.5 0 0 1 1.5-1.5 1.5 1.5 0 0 1 1.5 1.5 1.5 1.5 0 0 1-1.5 1.5 1.5 1.5 0 0 1-1.5-1.5m0-11.4v-.03a1.5 1.5 0 0 1 1.5-1.5 1.5 1.5 0 0 1 1.5 1.5 1.5 1.5 0 0 1-1.5 1.5 1.5 1.5 0 0 1-1.5-1.5m0-11.4a1.5 1.5 0 0 1 1.5-1.5 1.5 1.5 0 0 1 1.5 1.5 1.5 1.5 0 0 1-1.5 1.5 1.5 1.5 0 0 1-1.5-1.5v-.03m0-11.4a1.5 1.5 0 0 1 1.5-1.5 1.5 1.5 0 0 1 1.5 1.5 1.5 1.5 0 0 1-1.5 1.5 1.5 1.5 0 0 1-1.5-1.5v-.03m0-11.4a1.5 1.5 0 0 1 1.5-1.5 1.5 1.5 0 0 1 1.5 1.5 1.5 1.5 0 0 1-1.5 1.5 1.5 1.5 0 0 1-1.5-1.5v-.03"/><path d="M1080 1306a6 6 0 0 1 6-6h248a6 6 0 0 1 6 6v48a6 6 0 0 1-6 6h-248a6 6 0 0 1-6-6z" stroke="#000" stroke-opacity="0" stroke-width="3" fill="#fff" fill-opacity="0"/><use xlink:href="#c" transform="matrix(1,0,0,1,1085,1305) translate(52.19135802469134 31.662326388888893)"/><use xlink:href="#d" transform="matrix(1,0,0,1,1085,1305) translate(118.4753086419753 31.662326388888893)"/><path d="M1180 940a20 20 0 0 1 20-20h100a20 20 0 0 1 20 20 20 20 0 0 1-20 20h-100a20 20 0 0 1-20-20z" stroke="#cc4e00" stroke-width="3" fill="#e8e2c8"/><use xlink:href="#e" transform="matrix(1,0,0,1,1185,925) translate(16.896975308641974 20.024305555555557)"/><path d="M1100 961.5a20 20 0 0 1 20-20h100a20 20 0 0 1 20 20 20 20 0 0 1-20 20h-100a20 20 0 0 1-20-20z" stroke="#ba23f6" stroke-width="3" fill="#e8e2c8"/><use xlink:href="#f" transform="matrix(1,0,0,1,1105,946.4999687214331) translate(25.65623456790124 20.024305555555557)"/><path d="M1249.95 962.5v37.5" stroke="#cc4e00" stroke-width="2" fill="none"/><path d="M1250.93 962.53h-1.95v-1.03h1.95z" stroke="#cc4e00" stroke-width=".05" fill="#cc4e00"/><path d="M1249.95 1015.26l-4.63-14.26h9.27z" stroke="#cc4e00" stroke-width="2" fill="#cc4e00"/><path d="M1220 1103v73.38" stroke="#cc4e00" stroke-width="3" fill="none"/><path d="M1221.47 1103.04h-2.94v-1.54h2.94z" stroke="#cc4e00" stroke-width=".05" fill="#cc4e00"/><path d="M1220 1192.15l-4.63-14.27h9.27z" stroke="#cc4e00" stroke-width="3" fill="#cc4e00"/><path d="M1140 1040a20 20 0 0 1 20-20h120a20 20 0 0 1 20 20v40a20 20 0 0 1-20 20h-120a20 20 0 0 1-20-20z" stroke="#cc4e00" stroke-width="3" fill="url(#g)"/><use xlink:href="#h" transform="matrix(1,0,0,1,1145,1025) translate(13.333333333333329 24.341145833333336)"/><use xlink:href="#i" transform="matrix(1,0,0,1,1145,1025) translate(25.407407407407405 56.341145833333336)"/><path d="M1140 1218.5a20 20 0 0 1 20-20h120a20 20 0 0 1 20 20 20 20 0 0 1-20 20h-120a20 20 0 0 1-20-20z" stroke="#cc4e00" stroke-width="3" fill="#fff"/><use xlink:href="#j" transform="matrix(1,0,0,1,1145,1203.5000499999953) translate(12.603765432098763 20.024305555555557)"/><use xlink:href="#k" transform="matrix(1,0,0,1,1145,1203.5000499999953) translate(79.07907407407407 20.024305555555557)"/><path d="M1120 1238.5a20 20 0 0 1 20-20h120a20 20 0 0 1 20 20 20 20 0 0 1-20 20h-120a20 20 0 0 1-20-20z" stroke="#d916a8" stroke-width="3" fill="#fff"/><use xlink:href="#j" transform="matrix(1,0,0,1,1125,1223.5000499999953) translate(12.603765432098763 20.024305555555557)"/><use xlink:href="#k" transform="matrix(1,0,0,1,1125,1223.5000499999953) translate(79.07907407407407 20.024305555555557)"/><path d="M1100 1258.5a20 20 0 0 1 20-20h120a20 20 0 0 1 20 20 20 20 0 0 1-20 20h-120a20 20 0 0 1-20-20z" stroke="#ba23f6" stroke-width="3" fill="#fff"/><use xlink:href="#j" transform="matrix(1,0,0,1,1105,1243.5000499999953) translate(12.603765432098763 20.024305555555557)"/><use xlink:href="#k" transform="matrix(1,0,0,1,1105,1243.5000499999953) translate(79.07907407407407 20.024305555555557)"/><path d="M1317.17 1216.5h6.83a8 8 0 0 1 8 8v28a8 8 0 0 1-8 8h-46.84" stroke="#000" stroke-width="2" fill="none"/><path d="M1317.17 1220.5h6.83a4 4 0 0 1 4 4v28a4 4 0 0 1-4 4h-46.84" stroke="#000" stroke-width="2" fill="none"/><path d="M1322.33 1228.5l-17.32-10 17.33-10m-17.32 10h8.5M1282.32 1268.5l-17.32-10 17.32-10m-17.32 10h8.5" stroke="#000" stroke-width="2" fill="none"/><path d="M1120 1060a20 20 0 0 1 20-20h120a20 20 0 0 1 20 20v40a20 20 0 0 1-20 20h-120a20 20 0 0 1-20-20z" stroke="#d916a8" stroke-width="3" fill="url(#l)"/><use xlink:href="#m" transform="matrix(1,0,0,1,1125,1045) translate(51.29629629629629 40.200520833333336)"/><path d="M1180 1143v73.38" stroke="#ba23f6" stroke-width="3" fill="none"/><path d="M1181.47 1143.04h-2.94v-1.54h2.94z" stroke="#ba23f6" stroke-width=".05" fill="#ba23f6"/><path d="M1180 1232.15l-4.63-14.27h9.27z" stroke="#ba23f6" stroke-width="3" fill="#ba23f6"/><path d="M1200 1123v73.38" stroke="#d916a8" stroke-width="3" fill="none"/><path d="M1201.47 1123.04h-2.94v-1.54h2.94z" stroke="#d916a8" stroke-width=".05" fill="#d916a8"/><path d="M1200 1212.15l-4.63-14.27h9.27z" stroke="#d916a8" stroke-width="3" fill="#d916a8"/><path d="M1100 1080a20 20 0 0 1 20-20h120a20 20 0 0 1 20 20v40a20 20 0 0 1-20 20h-120a20 20 0 0 1-20-20z" stroke="#ba23f6" stroke-width="3" fill="url(#n)"/><use xlink:href="#o" transform="matrix(1,0,0,1,1105,1065) translate(22.888888888888886 24.938802083333336)"/><use xlink:href="#i" transform="matrix(1,0,0,1,1105,1065) translate(25.407407407407405 56.938802083333336)"/><path d="M1169.95 984v56" stroke="#ba23f6" stroke-width="2" fill="none"/><path d="M1170.93 984.03h-1.95V983h1.95z" stroke="#ba23f6" stroke-width=".05" fill="#ba23f6"/><path d="M1169.95 1055.26l-4.63-14.26h9.27z" stroke="#ba23f6" stroke-width="2" fill="#ba23f6"/><path d="M580 680a20 20 0 0 1 20-20h120a20 20 0 0 1 20 20v40a20 20 0 0 1-20 20H600a20 20 0 0 1-20-20z" stroke="#000" stroke-width="3" fill="url(#p)"/><use xlink:href="#b" transform="matrix(1,0,0,1,585,665) translate(27.46913580246914 39.78993055555556)"/><path d="M580 800a20 20 0 0 1 20-20h140a20 20 0 0 1 20 20 20 20 0 0 1-20 20H600a20 20 0 0 1-20-20z" stroke="#000" stroke-width="3" fill="#ced4db"/><use xlink:href="#q" transform="matrix(1,0,0,1,585,785) translate(32.754999999999995 20.024305555555557)"/><path d="M580 826a6 6 0 0 1 6-6h168a6 6 0 0 1 6 6v88a6 6 0 0 1-6 6H586a6 6 0 0 1-6-6z" stroke="#000" stroke-opacity="0" stroke-width="3" fill="#fff" fill-opacity="0"/><use xlink:href="#r" transform="matrix(1,0,0,1,585,825) translate(9.425925925925924 32.62326388888889)"/><use xlink:href="#s" transform="matrix(1,0,0,1,585,825) translate(29.73456790123457 69.95659722222223)"/><path d="M640 602.5V640" stroke="#000" stroke-width="2" fill="none"/><path d="M640.98 602.53H639v-1.03H641z" stroke="#000" stroke-width=".05"/><path d="M640 655.26L635.37 641h9.26z" stroke="#000" stroke-width="2"/><path d="M660 582.5V640" stroke="#000" stroke-width="2" fill="none"/><path d="M660.98 582.53H659v-1.03H661z" stroke="#000" stroke-width=".05"/><path d="M660 655.26L655.37 641h9.26z" stroke="#000" stroke-width="2"/><path d="M680 562.5V620" stroke="#000" stroke-width="2" fill="none"/><path d="M680.98 562.53H679v-1.03H681z" stroke="#000" stroke-width=".05"/><path d="M680 635.26L675.37 621h9.26z" stroke="#000" stroke-width="2"/><path d="M700 542.5V620" stroke="#000" stroke-width="2" fill="none"/><path d="M700.98 542.53H699v-1.03H701z" stroke="#000" stroke-width=".05"/><path d="M700 635.26L695.37 621h9.26z" stroke="#000" stroke-width="2"/><path d="M640 520a20 20 0 0 1 20-20h80a20 20 0 0 1 20 20 20 20 0 0 1-20 20h-80a20 20 0 0 1-20-20z" stroke="#000" stroke-width="3" fill="#fff"/><use xlink:href="#t" transform="matrix(1,0,0,1,645,505) translate(6.18401234567901 20.024305555555557)"/><path d="M620 540a20 20 0 0 1 20-20h80a20 20 0 0 1 20 20 20 20 0 0 1-20 20h-80a20 20 0 0 1-20-20z" stroke="#000" stroke-width="3" fill="#fff"/><use xlink:href="#t" transform="matrix(1,0,0,1,625,525) translate(6.18401234567901 20.024305555555557)"/><path d="M600 560a20 20 0 0 1 20-20h80a20 20 0 0 1 20 20 20 20 0 0 1-20 20h-80a20 20 0 0 1-20-20z" stroke="#000" stroke-width="3" fill="#fff"/><use xlink:href="#t" transform="matrix(1,0,0,1,605,545) translate(6.18401234567901 20.024305555555557)"/><path d="M580 580a20 20 0 0 1 20-20h80a20 20 0 0 1 20 20 20 20 0 0 1-20 20h-80a20 20 0 0 1-20-20z" stroke="#000" stroke-width="3" fill="#fff"/><use xlink:href="#t" transform="matrix(1,0,0,1,585,565) translate(6.18401234567901 20.024305555555557)"/><path d="M890 1182.5v36" stroke="#cc4e00" stroke-width="2" fill="none"/><path d="M890.98 1182.53H889v-1.03H891z" stroke="#cc4e00" stroke-width=".05" fill="#cc4e00"/><path d="M890 1233.76l-4.63-14.26h9.26z" stroke="#cc4e00" stroke-width="2" fill="#cc4e00"/><path d="M910 1162.5v56" stroke="#000" stroke-width="2" fill="none"/><path d="M910.98 1162.53H909v-1.03H911z" stroke="#000" stroke-width=".05"/><path d="M910 1233.76l-4.63-14.26h9.26z" stroke="#000" stroke-width="2"/><path d="M840 1100a20 20 0 0 1 20-20h100a20 20 0 0 1 20 20v40a20 20 0 0 1-20 20H860a20 20 0 0 1-20-20z" stroke="#000" stroke-width="3" fill="url(#u)"/><use xlink:href="#v" transform="matrix(1,0,0,1,845,1085) translate(15.46604938271605 25.297743055555557)"/><use xlink:href="#w" transform="matrix(1,0,0,1,845,1085) translate(35.83641975308642 54.63107638888889)"/><path d="M800 1258.5a20 20 0 0 1 20-20h140a20 20 0 0 1 20 20 20 20 0 0 1-20 20H820a20 20 0 0 1-20-20z" stroke="#000" stroke-width="3" fill="#ced4db"/><use xlink:href="#q" transform="matrix(1,0,0,1,805,1243.5) translate(32.754999999999995 20.024305555555557)"/><path d="M890 1042.5v37.5" stroke="#cc4e00" stroke-width="2" fill="none"/><path d="M890.98 1042.53H889v-1.03H891z" stroke="#cc4e00" stroke-width=".05" fill="#cc4e00"/><path d="M890 1095.26l-4.63-14.26h9.26z" stroke="#cc4e00" stroke-width="2" fill="#cc4e00"/><path d="M910 1042.5v17.5" stroke="#000" stroke-width="2" fill="none"/><path d="M910.98 1042.53H909v-1.03H911z" stroke="#000" stroke-width=".05"/><path d="M910 1075.26l-4.63-14.26h9.26z" stroke="#000" stroke-width="2"/><path d="M800 1020a20 20 0 0 1 20-20h140a20 20 0 0 1 20 20 20 20 0 0 1-20 20H820a20 20 0 0 1-20-20z" stroke="#000" stroke-width="3" fill="#fff"/><use xlink:href="#x" transform="matrix(1,0,0,1,805,1005) translate(6.307469135802458 20.524305555555557)"/><use xlink:href="#y" transform="matrix(1,0,0,1,805,1005) translate(67.41858024691358 20.524305555555557)"/><path d="M820 1120a20 20 0 0 1 20-20h100a20 20 0 0 1 20 20v40a20 20 0 0 1-20 20H840a20 20 0 0 1-20-20z" stroke="#000" stroke-width="3" fill="url(#z)"/><use xlink:href="#v" transform="matrix(1,0,0,1,825,1105) translate(15.46604938271605 25.297743055555557)"/><use xlink:href="#w" transform="matrix(1,0,0,1,825,1105) translate(35.83641975308642 54.63107638888889)"/><path d="M889 1099.5a1 1 0 0 1 1-1 1 1 0 0 1 1 1 1 1 0 0 1-1 1 1 1 0 0 1-1-1m0 3.98a1 1 0 0 1 1-1 1 1 0 0 1 1 1 1 1 0 0 1-1 1 1 1 0 0 1-1-1v-.02m0 4v-.02a1 1 0 0 1 1-1 1 1 0 0 1 1 1 1 1 0 0 1-1 1 1 1 0 0 1-1-1m0 3.98a1 1 0 0 1 1-1 1 1 0 0 1 1 1 1 1 0 0 1-1 1 1 1 0 0 1-1-1v-.02m0 3.98a1 1 0 0 1 1-1 1 1 0 0 1 1 1 1 1 0 0 1-1 1 1 1 0 0 1-1-1v-.02m0 4v-.02a1 1 0 0 1 1-1 1 1 0 0 1 1 1 1 1 0 0 1-1 1 1 1 0 0 1-1-1m0 3.98a1 1 0 0 1 1-1 1 1 0 0 1 1 1 1 1 0 0 1-1 1 1 1 0 0 1-1-1v-.02m0 4v-.02a1 1 0 0 1 1-1 1 1 0 0 1 1 1 1 1 0 0 1-1 1 1 1 0 0 1-1-1m0 3.98a1 1 0 0 1 1-1 1 1 0 0 1 1 1 1 1 0 0 1-1 1 1 1 0 0 1-1-1v-.02m0 4v-.02a1 1 0 0 1 1-1 1 1 0 0 1 1 1 1 1 0 0 1-1 1 1 1 0 0 1-1-1m0 3.98a1 1 0 0 1 1-1 1 1 0 0 1 1 1 1 1 0 0 1-1 1 1 1 0 0 1-1-1v-.02m0 3.98a1 1 0 0 1 1-1 1 1 0 0 1 1 1 1 1 0 0 1-1 1 1 1 0 0 1-1-1v-.02m0 4v-.02a1 1 0 0 1 1-1 1 1 0 0 1 1 1 1 1 0 0 1-1 1 1 1 0 0 1-1-1m0 3.98a1 1 0 0 1 1-1 1 1 0 0 1 1 1 1 1 0 0 1-1 1 1 1 0 0 1-1-1v-.02m0 4v-.02a1 1 0 0 1 1-1 1 1 0 0 1 1 1 1 1 0 0 1-1 1 1 1 0 0 1-1-1m0 3.98a1 1 0 0 1 1-1 1 1 0 0 1 1 1 1 1 0 0 1-1 1 1 1 0 0 1-1-1v-.02" fill="#cc4e00"/><path d="M890.98 1099.53H889v-1.03H891z" stroke="#cc4e00" stroke-width=".05" fill="#cc4e00"/><path d="M890 1178.26l-4.63-14.26h9.26z" stroke="#cc4e00" stroke-width="2" fill="#fff"/><path d="M800 1140a20 20 0 0 1 20-20h100a20 20 0 0 1 20 20v40a20 20 0 0 1-20 20H820a20 20 0 0 1-20-20z" stroke="#000" stroke-width="3" fill="url(#A)"/><use xlink:href="#v" transform="matrix(1,0,0,1,805,1125) translate(15.46604938271605 25.297743055555557)"/><use xlink:href="#w" transform="matrix(1,0,0,1,805,1125) translate(35.83641975308642 54.63107638888889)"/><path d="M870 1202.5v16" stroke="#ba23f6" stroke-width="2" fill="none"/><path d="M870.98 1202.53H869v-1.03H871z" stroke="#ba23f6" stroke-width=".05" fill="#ba23f6"/><path d="M870 1233.76l-4.63-14.26h9.26z" stroke="#ba23f6" stroke-width="2" fill="#ba23f6"/><path d="M860 920a20 20 0 0 1 20-20h80a20 20 0 0 1 20 20 20 20 0 0 1-20 20h-80a20 20 0 0 1-20-20z" stroke="#cc4e00" stroke-width="3" fill="#e8e2c8"/><use xlink:href="#e" transform="matrix(1,0,0,1,865,905) translate(6.896975308641972 20.024305555555557)"/><path d="M800 940a20 20 0 0 1 20-20h60a20 20 0 0 1 20 20 20 20 0 0 1-20 20h-60a20 20 0 0 1-20-20z" stroke="#ba23f6" stroke-width="3" fill="#e8e2c8"/><use xlink:href="#f" transform="matrix(1,0,0,1,805,925) translate(5.6562345679012385 20.024305555555557)"/><path d="M800 1286a6 6 0 0 1 6-6h168a6 6 0 0 1 6 6v88a6 6 0 0 1-6 6H806a6 6 0 0 1-6-6z" stroke="#000" stroke-opacity="0" stroke-width="3" fill="#fff" fill-opacity="0"/><use xlink:href="#B" transform="matrix(1,0,0,1,805,1285) translate(34.91975308641975 32.62326388888889)"/><use xlink:href="#C" transform="matrix(1,0,0,1,805,1285) translate(29.691358024691354 69.95659722222223)"/><path d="M870 1042.5v57.5" stroke="#ba23f6" stroke-width="2" fill="none"/><path d="M870.98 1042.53H869v-1.03H871z" stroke="#ba23f6" stroke-width=".05" fill="#ba23f6"/><path d="M870 1115.26l-4.63-14.26h9.26z" stroke="#ba23f6" stroke-width="2" fill="#ba23f6"/><path d="M850 962.5V980" stroke="#ba23f6" stroke-width="2" fill="none"/><path d="M850.98 962.53H849v-1.03H851z" stroke="#ba23f6" stroke-width=".05" fill="#ba23f6"/><path d="M850 995.26L845.37 981h9.26z" stroke="#ba23f6" stroke-width="2" fill="#ba23f6"/><path d="M920 942.5V980" stroke="#cc4e00" stroke-width="2" fill="none"/><path d="M920.98 942.53H919v-1.03H921z" stroke="#cc4e00" stroke-width=".05" fill="#cc4e00"/><path d="M920 995.26L915.37 981h9.26z" stroke="#cc4e00" stroke-width="2" fill="#cc4e00"/><path d="M849.42 999.42a1 1 0 0 1 1-1 1 1 0 0 1 1 1 1 1 0 0 1-1 1 1 1 0 0 1-1-1v-.02m1.68 3.63a1 1 0 0 1 1-1 1 1 0 0 1 1 1 1 1 0 0 1-1 1 1 1 0 0 1-1-1v-.02m1.7 3.65a1 1 0 0 1 1-1 1 1 0 0 1 1 1 1 1 0 0 1-1 1 1 1 0 0 1-1-1v-.02m1.67 3.64a1 1 0 0 1 1-1 1 1 0 0 1 1 1 1 1 0 0 1-1 1 1 1 0 0 1-1-1v-.02m1.68 3.63a1 1 0 0 1 1-1 1 1 0 0 1 1 1 1 1 0 0 1-1 1 1 1 0 0 1-1-1v-.02m1.68 3.64a1 1 0 0 1 1-1 1 1 0 0 1 1 1 1 1 0 0 1-1 1 1 1 0 0 1-1-1v-.02m1.68 3.64a1 1 0 0 1 1-1 1 1 0 0 1 1 1 1 1 0 0 1-1 1 1 1 0 0 1-1-1v-.02m1.7 3.63a1 1 0 0 1 1-1 1 1 0 0 1 1 1 1 1 0 0 1-1 1 1 1 0 0 1-1-1v-.02" fill="#ba23f6"/><path d="M851.32 999.02l-1.77.82-.63-1.34h2.16z" stroke="#ba23f6" stroke-width=".05" fill="#ba23f6"/><path d="M868.63 1038.57l-10.2-10.98 8.4-3.92z" stroke="#ba23f6" stroke-width="2" fill="#fff"/><path d="M918.43 999.33a1 1 0 0 1 1-1 1 1 0 0 1 1 1 1 1 0 0 1-1 1 1 1 0 0 1-1-1v-.02m-2.36 3.4a1 1 0 0 1 1-1 1 1 0 0 1 1 1 1 1 0 0 1-1 1 1 1 0 0 1-1-1m-2.35 3.38a1 1 0 0 1 1-1 1 1 0 0 1 1 1 1 1 0 0 1-1 1 1 1 0 0 1-1-1v-.02m-2.36 3.4a1 1 0 0 1 1-1 1 1 0 0 1 1 1 1 1 0 0 1-1 1 1 1 0 0 1-1-1v-.02m-2.35 3.4v-.02a1 1 0 0 1 1-1 1 1 0 0 1 1 1 1 1 0 0 1-1 1 1 1 0 0 1-1-1m-2.35 3.4v-.02a1 1 0 0 1 1-1 1 1 0 0 1 1 1 1 1 0 0 1-1 1 1 1 0 0 1-1-1m-2.35 3.38a1 1 0 0 1 1-1 1 1 0 0 1 1 1 1 1 0 0 1-1 1 1 1 0 0 1-1-1m-2.36 3.38a1 1 0 0 1 1-1 1 1 0 0 1 1 1 1 1 0 0 1-1 1 1 1 0 0 1-1-1v-.02m-2.35 3.4a1 1 0 0 1 1-1 1 1 0 0 1 1 1 1 1 0 0 1-1 1 1 1 0 0 1-1-1v-.02" fill="#cc4e00"/><path d="M920.2 999.9l-1.6-1.12.2-.28h2.4z" stroke="#cc4e00" stroke-width=".05" fill="#cc4e00"/><path d="M891.85 1038.85l4.36-14.36 7.62 5.3z" stroke="#cc4e00" stroke-width="2" fill="#fff"/><path d="M869 1119.5a1 1 0 0 1 1-1 1 1 0 0 1 1 1 1 1 0 0 1-1 1 1 1 0 0 1-1-1m0 3.98a1 1 0 0 1 1-1 1 1 0 0 1 1 1 1 1 0 0 1-1 1 1 1 0 0 1-1-1v-.02m0 4v-.02a1 1 0 0 1 1-1 1 1 0 0 1 1 1 1 1 0 0 1-1 1 1 1 0 0 1-1-1m0 3.98a1 1 0 0 1 1-1 1 1 0 0 1 1 1 1 1 0 0 1-1 1 1 1 0 0 1-1-1v-.02m0 3.98a1 1 0 0 1 1-1 1 1 0 0 1 1 1 1 1 0 0 1-1 1 1 1 0 0 1-1-1v-.02m0 4v-.02a1 1 0 0 1 1-1 1 1 0 0 1 1 1 1 1 0 0 1-1 1 1 1 0 0 1-1-1m0 3.98a1 1 0 0 1 1-1 1 1 0 0 1 1 1 1 1 0 0 1-1 1 1 1 0 0 1-1-1v-.02m0 4v-.02a1 1 0 0 1 1-1 1 1 0 0 1 1 1 1 1 0 0 1-1 1 1 1 0 0 1-1-1m0 3.98a1 1 0 0 1 1-1 1 1 0 0 1 1 1 1 1 0 0 1-1 1 1 1 0 0 1-1-1v-.02m0 4v-.02a1 1 0 0 1 1-1 1 1 0 0 1 1 1 1 1 0 0 1-1 1 1 1 0 0 1-1-1m0 3.98a1 1 0 0 1 1-1 1 1 0 0 1 1 1 1 1 0 0 1-1 1 1 1 0 0 1-1-1v-.02m0 3.98a1 1 0 0 1 1-1 1 1 0 0 1 1 1 1 1 0 0 1-1 1 1 1 0 0 1-1-1v-.02m0 4v-.02a1 1 0 0 1 1-1 1 1 0 0 1 1 1 1 1 0 0 1-1 1 1 1 0 0 1-1-1m0 3.98a1 1 0 0 1 1-1 1 1 0 0 1 1 1 1 1 0 0 1-1 1 1 1 0 0 1-1-1v-.02m0 4v-.02a1 1 0 0 1 1-1 1 1 0 0 1 1 1 1 1 0 0 1-1 1 1 1 0 0 1-1-1m0 3.98a1 1 0 0 1 1-1 1 1 0 0 1 1 1 1 1 0 0 1-1 1 1 1 0 0 1-1-1v-.02" fill="#ba23f6"/><path d="M870.98 1119.53H869v-1.03H871z" stroke="#ba23f6" stroke-width=".05" fill="#ba23f6"/><path d="M870 1198.26l-4.63-14.26h9.26z" stroke="#ba23f6" stroke-width="2" fill="#fff"/><path d="M1000 701.37a20 20 0 0 1 20-20h120a20 20 0 0 1 20 20v40a20 20 0 0 1-20 20h-120a20 20 0 0 1-20-20z" stroke="#008a0e" stroke-width="3" fill="url(#D)"/><path d="M1019.1 681.37a1.5 1.5 0 0 1 1.5-1.5 1.5 1.5 0 0 1 1.5 1.5 1.5 1.5 0 0 1-1.5 1.5 1.5 1.5 0 0 1-1.5-1.5v-.03m-.67 6.03v-.02a1.5 1.5 0 0 1 1.5-1.5 1.5 1.5 0 0 1 1.5 1.5 1.5 1.5 0 0 1-1.5 1.5 1.5 1.5 0 0 1-1.5-1.5m-.17 6.04v-.02a1.5 1.5 0 0 1 1.5-1.5 1.5 1.5 0 0 1 1.5 1.5 1.5 1.5 0 0 1-1.5 1.5 1.5 1.5 0 0 1-1.5-1.5m.36 6.04v-.02a1.5 1.5 0 0 1 1.5-1.5 1.5 1.5 0 0 1 1.5 1.5 1.5 1.5 0 0 1-1.5 1.5 1.5 1.5 0 0 1-1.5-1.5m.95 5.97a1.5 1.5 0 0 1 1.5-1.5 1.5 1.5 0 0 1 1.5 1.5 1.5 1.5 0 0 1-1.5 1.5 1.5 1.5 0 0 1-1.5-1.5v-.03m1.6 5.85v-.03a1.5 1.5 0 0 1 1.5-1.5 1.5 1.5 0 0 1 1.5 1.5 1.5 1.5 0 0 1-1.5 1.5 1.5 1.5 0 0 1-1.5-1.5m2.26 5.6a1.5 1.5 0 0 1 1.5-1.5 1.5 1.5 0 0 1 1.5 1.5 1.5 1.5 0 0 1-1.5 1.5 1.5 1.5 0 0 1-1.5-1.5v-.02m2.92 5.3a1.5 1.5 0 0 1 1.5-1.5 1.5 1.5 0 0 1 1.5 1.5 1.5 1.5 0 0 1-1.5 1.5 1.5 1.5 0 0 1-1.5-1.5V722m3.56 4.9a1.5 1.5 0 0 1 1.5-1.5 1.5 1.5 0 0 1 1.5 1.5 1.5 1.5 0 0 1-1.5 1.5 1.5 1.5 0 0 1-1.5-1.5v-.03m4.13 4.42a1.5 1.5 0 0 1 1.5-1.5 1.5 1.5 0 0 1 1.5 1.5 1.5 1.5 0 0 1-1.5 1.5 1.5 1.5 0 0 1-1.5-1.5v-.03m4.6 3.9a1.5 1.5 0 0 1 1.5-1.5 1.5 1.5 0 0 1 1.5 1.5 1.5 1.5 0 0 1-1.5 1.5 1.5 1.5 0 0 1-1.5-1.5v-.02m5.04 3.36a1.5 1.5 0 0 1 1.5-1.5 1.5 1.5 0 0 1 1.5 1.5 1.5 1.5 0 0 1-1.5 1.5 1.5 1.5 0 0 1-1.5-1.5v-.03m5.34 2.85v-.02a1.5 1.5 0 0 1 1.5-1.5 1.5 1.5 0 0 1 1.5 1.5 1.5 1.5 0 0 1-1.5 1.5 1.5 1.5 0 0 1-1.5-1.5m5.6 2.26v-.02a1.5 1.5 0 0 1 1.5-1.5 1.5 1.5 0 0 1 1.5 1.5 1.5 1.5 0 0 1-1.5 1.5 1.5 1.5 0 0 1-1.5-1.5m5.78 1.74a1.5 1.5 0 0 1 1.5-1.5 1.5 1.5 0 0 1 1.5 1.5 1.5 1.5 0 0 1-1.5 1.5 1.5 1.5 0 0 1-1.5-1.5v-.03m5.9 1.24a1.5 1.5 0 0 1 1.5-1.5 1.5 1.5 0 0 1 1.5 1.5 1.5 1.5 0 0 1-1.5 1.5 1.5 1.5 0 0 1-1.5-1.5v-.03m6 .77v-.02a1.5 1.5 0 0 1 1.5-1.5 1.5 1.5 0 0 1 1.5 1.5 1.5 1.5 0 0 1-1.5 1.5 1.5 1.5 0 0 1-1.5-1.5m6.02.25a1.5 1.5 0 0 1 1.5-1.5 1.5 1.5 0 0 1 1.5 1.5 1.5 1.5 0 0 1-1.5 1.5 1.5 1.5 0 0 1-1.5-1.5v-.02m6.03-.22a1.5 1.5 0 0 1 1.5-1.5 1.5 1.5 0 0 1 1.5 1.5 1.5 1.5 0 0 1-1.5 1.5 1.5 1.5 0 0 1-1.5-1.5v-.03m6-.7a1.5 1.5 0 0 1 1.5-1.5 1.5 1.5 0 0 1 1.5 1.5 1.5 1.5 0 0 1-1.5 1.5 1.5 1.5 0 0 1-1.5-1.5v-.02m5.9-1.17a1.5 1.5 0 0 1 1.5-1.5 1.5 1.5 0 0 1 1.5 1.5 1.5 1.5 0 0 1-1.5 1.5 1.5 1.5 0 0 1-1.5-1.5v-.03m5.8-1.67a1.5 1.5 0 0 1 1.5-1.5 1.5 1.5 0 0 1 1.5 1.5 1.5 1.5 0 0 1-1.5 1.5 1.5 1.5 0 0 1-1.5-1.5v-.03m5.6-2.17a1.5 1.5 0 0 1 1.5-1.5 1.5 1.5 0 0 1 1.5 1.5 1.5 1.5 0 0 1-1.5 1.5 1.5 1.5 0 0 1-1.5-1.5v-.03m5.4-2.68v-.02a1.5 1.5 0 0 1 1.5-1.5 1.5 1.5 0 0 1 1.5 1.5 1.5 1.5 0 0 1-1.5 1.5 1.5 1.5 0 0 1-1.5-1.5m5.1-3.2v-.02a1.5 1.5 0 0 1 1.5-1.5 1.5 1.5 0 0 1 1.5 1.5 1.5 1.5 0 0 1-1.5 1.5 1.5 1.5 0 0 1-1.5-1.5m4.7-3.74a1.5 1.5 0 0 1 1.5-1.5 1.5 1.5 0 0 1 1.5 1.5 1.5 1.5 0 0 1-1.5 1.5 1.5 1.5 0 0 1-1.5-1.5v-.03m4.28-4.22a1.5 1.5 0 0 1 1.5-1.5 1.5 1.5 0 0 1 1.5 1.5 1.5 1.5 0 0 1-1.5 1.5 1.5 1.5 0 0 1-1.5-1.5v-.02m3.75-4.7v-.02a1.5 1.5 0 0 1 1.5-1.5 1.5 1.5 0 0 1 1.5 1.5 1.5 1.5 0 0 1-1.5 1.5 1.5 1.5 0 0 1-1.5-1.5v-.02m3.13-5.12v-.02a1.5 1.5 0 0 1 1.5-1.5 1.5 1.5 0 0 1 1.5 1.5 1.5 1.5 0 0 1-1.5 1.5 1.5 1.5 0 0 1-1.5-1.5m2.46-5.48v-.02a1.5 1.5 0 0 1 1.5-1.5 1.5 1.5 0 0 1 1.5 1.5 1.5 1.5 0 0 1-1.5 1.5 1.5 1.5 0 0 1-1.5-1.5m1.78-5.75a1.5 1.5 0 0 1 1.5-1.5 1.5 1.5 0 0 1 1.5 1.5 1.5 1.5 0 0 1-1.5 1.5 1.5 1.5 0 0 1-1.5-1.5v-.03m1.1-5.9a1.5 1.5 0 0 1 1.5-1.5 1.5 1.5 0 0 1 1.5 1.5 1.5 1.5 0 0 1-1.5 1.5 1.5 1.5 0 0 1-1.5-1.5v-.03" fill="#008a0e"/><path d="M1022.04 681.6l-2.92-.42.18-1.26.64-.05h2.35z" stroke="#008a0e" stroke-width=".05" fill="#008a0e"/><path d="M1140.24 684.72l5.16 14.08-9.27.35z" stroke="#008a0e" stroke-width="3" fill="#fff"/><path d="M980 721.37a20 20 0 0 1 20-20h120a20 20 0 0 1 20 20v40a20 20 0 0 1-20 20h-120a20 20 0 0 1-20-20z" stroke="#82755b" stroke-width="3" fill="url(#E)"/><path d="M960 601.37a20 20 0 0 1 20-20h160a20 20 0 0 1 20 20v17.66a20 20 0 0 1-20 20H980a20 20 0 0 1-20-20z" stroke="#000" stroke-width="3" fill="url(#F)"/><use xlink:href="#G" transform="matrix(1,0,0,1,965.0000000000001,586.3666666666668) translate(52.93518518518519 28.930555555555557)"/><path d="M960 519.6a19.6 19.6 0 0 1 19.6-19.6h160.8a19.6 19.6 0 0 1 19.6 19.6 19.6 19.6 0 0 1-19.6 19.6H979.6a19.6 19.6 0 0 1-19.6-19.6z" stroke="#000" stroke-width="3" fill="#e8e2c8"/><use xlink:href="#H" transform="matrix(1,0,0,1,965.0000000000001,505) translate(63.87228395061728 20.024305555555557)"/><path d="M1000.92 541.68l.18 24M996.92 541.7l.18 24.02" stroke="#000" stroke-width="2" fill="none"/><path d="M1001.9 541.7l-1.96.02v-1.02h1.94zM997.9 541.73l-1.96.02v-1.05h1.94z" stroke="#000" stroke-width=".05"/><path d="M1009.06 560.47l-9.88 17.4-10.12-17.25m10.13 17.25l-.08-8.5M1122.18 554.88l-.17 24M1118.18 554.85l-.17 24M1110.14 559.95l10.13-17.25 9.88 17.4m-9.88-17.4l-.06 8.5" stroke="#000" stroke-width="2" fill="none"/><path d="M1122.98 578.86v1h-1.95v-1zM1118.98 578.83v1.04h-1.95v-1.05z" stroke="#000" stroke-width=".05"/><path d="M996.8 702.87a1.5 1.5 0 0 1 1.5-1.5 1.5 1.5 0 0 1 1.5 1.5 1.5 1.5 0 0 1-1.5 1.5 1.5 1.5 0 0 1-1.5-1.5v-.03m-.67 6.08a1.5 1.5 0 0 1 1.5-1.5 1.5 1.5 0 0 1 1.5 1.5 1.5 1.5 0 0 1-1.5 1.5 1.5 1.5 0 0 1-1.5-1.5v-.03m-.15 6.1a1.5 1.5 0 0 1 1.5-1.5 1.5 1.5 0 0 1 1.5 1.5 1.5 1.5 0 0 1-1.5 1.5 1.5 1.5 0 0 1-1.5-1.5v-.02m.4 6.1a1.5 1.5 0 0 1 1.5-1.5 1.5 1.5 0 0 1 1.5 1.5 1.5 1.5 0 0 1-1.5 1.5 1.5 1.5 0 0 1-1.5-1.5v-.03m1.02 6.03a1.5 1.5 0 0 1 1.5-1.5 1.5 1.5 0 0 1 1.5 1.5 1.5 1.5 0 0 1-1.5 1.5 1.5 1.5 0 0 1-1.5-1.5v-.03m1.68 5.88a1.5 1.5 0 0 1 1.5-1.5 1.5 1.5 0 0 1 1.5 1.5 1.5 1.5 0 0 1-1.5 1.5 1.5 1.5 0 0 1-1.5-1.5v-.03m2.37 5.64v-.02a1.5 1.5 0 0 1 1.5-1.5 1.5 1.5 0 0 1 1.5 1.5 1.5 1.5 0 0 1-1.5 1.5 1.5 1.5 0 0 1-1.5-1.5m3.06 5.28v-.02a1.5 1.5 0 0 1 1.5-1.5 1.5 1.5 0 0 1 1.5 1.5 1.5 1.5 0 0 1-1.5 1.5 1.5 1.5 0 0 1-1.5-1.5m3.7 4.85a1.5 1.5 0 0 1 1.5-1.5 1.5 1.5 0 0 1 1.5 1.5 1.5 1.5 0 0 1-1.5 1.5 1.5 1.5 0 0 1-1.5-1.5v-.03m4.3 4.36a1.5 1.5 0 0 1 1.5-1.5 1.5 1.5 0 0 1 1.5 1.5 1.5 1.5 0 0 1-1.5 1.5 1.5 1.5 0 0 1-1.5-1.5v-.03m4.75 3.82a1.5 1.5 0 0 1 1.5-1.5 1.5 1.5 0 0 1 1.5 1.5 1.5 1.5 0 0 1-1.5 1.5 1.5 1.5 0 0 1-1.5-1.5v-.03m5.16 3.27v-.03a1.5 1.5 0 0 1 1.5-1.5 1.5 1.5 0 0 1 1.5 1.5 1.5 1.5 0 0 1-1.5 1.5 1.5 1.5 0 0 1-1.5-1.5m5.47 2.7v-.02a1.5 1.5 0 0 1 1.5-1.5 1.5 1.5 0 0 1 1.5 1.5 1.5 1.5 0 0 1-1.5 1.5 1.5 1.5 0 0 1-1.5-1.5m5.7 2.16a1.5 1.5 0 0 1 1.5-1.5 1.5 1.5 0 0 1 1.5 1.5 1.5 1.5 0 0 1-1.5 1.5 1.5 1.5 0 0 1-1.5-1.5v-.02m5.87 1.65a1.5 1.5 0 0 1 1.5-1.5 1.5 1.5 0 0 1 1.5 1.5 1.5 1.5 0 0 1-1.5 1.5 1.5 1.5 0 0 1-1.5-1.5v-.03m6 1.13a1.5 1.5 0 0 1 1.5-1.5 1.5 1.5 0 0 1 1.5 1.5 1.5 1.5 0 0 1-1.5 1.5 1.5 1.5 0 0 1-1.5-1.5v-.03m6.05.64a1.5 1.5 0 0 1 1.5-1.5 1.5 1.5 0 0 1 1.5 1.5 1.5 1.5 0 0 1-1.5 1.5 1.5 1.5 0 0 1-1.5-1.5v-.03m6.07.16a1.5 1.5 0 0 1 1.5-1.5 1.5 1.5 0 0 1 1.5 1.5 1.5 1.5 0 0 1-1.5 1.5 1.5 1.5 0 0 1-1.5-1.5v-.03m6.08-.32a1.5 1.5 0 0 1 1.5-1.5 1.5 1.5 0 0 1 1.5 1.5 1.5 1.5 0 0 1-1.5 1.5 1.5 1.5 0 0 1-1.5-1.5m6.03-.8v-.02a1.5 1.5 0 0 1 1.5-1.5 1.5 1.5 0 0 1 1.5 1.5 1.5 1.5 0 0 1-1.5 1.5 1.5 1.5 0 0 1-1.5-1.5m5.95-1.27a1.5 1.5 0 0 1 1.5-1.5 1.5 1.5 0 0 1 1.5 1.5 1.5 1.5 0 0 1-1.5 1.5 1.5 1.5 0 0 1-1.5-1.5v-.02m5.83-1.74v-.02a1.5 1.5 0 0 1 1.5-1.5 1.5 1.5 0 0 1 1.5 1.5 1.5 1.5 0 0 1-1.5 1.5 1.5 1.5 0 0 1-1.5-1.5m5.65-2.24v-.02a1.5 1.5 0 0 1 1.5-1.5 1.5 1.5 0 0 1 1.5 1.5 1.5 1.5 0 0 1-1.5 1.5 1.5 1.5 0 0 1-1.5-1.5m5.44-2.74V759a1.5 1.5 0 0 1 1.5-1.5 1.5 1.5 0 0 1 1.5 1.5 1.5 1.5 0 0 1-1.5 1.5 1.5 1.5 0 0 1-1.5-1.5m5.13-3.25a1.5 1.5 0 0 1 1.5-1.5 1.5 1.5 0 0 1 1.5 1.5 1.5 1.5 0 0 1-1.5 1.5 1.5 1.5 0 0 1-1.5-1.5v-.03m4.77-3.76a1.5 1.5 0 0 1 1.5-1.5 1.5 1.5 0 0 1 1.5 1.5 1.5 1.5 0 0 1-1.5 1.5 1.5 1.5 0 0 1-1.5-1.5v-.03m4.32-4.26a1.5 1.5 0 0 1 1.5-1.5 1.5 1.5 0 0 1 1.5 1.5 1.5 1.5 0 0 1-1.5 1.5 1.5 1.5 0 0 1-1.5-1.5v-.03m3.8-4.73a1.5 1.5 0 0 1 1.5-1.5 1.5 1.5 0 0 1 1.5 1.5 1.5 1.5 0 0 1-1.5 1.5 1.5 1.5 0 0 1-1.5-1.5v-.02m3.17-5.15v-.02a1.5 1.5 0 0 1 1.5-1.5 1.5 1.5 0 0 1 1.5 1.5 1.5 1.5 0 0 1-1.5 1.5 1.5 1.5 0 0 1-1.5-1.5m2.53-5.5v-.03a1.5 1.5 0 0 1 1.5-1.5 1.5 1.5 0 0 1 1.5 1.5 1.5 1.5 0 0 1-1.5 1.5 1.5 1.5 0 0 1-1.5-1.5m1.83-5.78v-.03a1.5 1.5 0 0 1 1.5-1.5 1.5 1.5 0 0 1 1.5 1.5 1.5 1.5 0 0 1-1.5 1.5 1.5 1.5 0 0 1-1.5-1.5m1.12-5.97a1.5 1.5 0 0 1 1.5-1.5 1.5 1.5 0 0 1 1.5 1.5 1.5 1.5 0 0 1-1.5 1.5 1.5 1.5 0 0 1-1.5-1.5v-.03" fill="#82755b"/><path d="M998.73 698.37l-.23 2.94v1.62l-1.68-.24.64-4.5z" stroke="#82755b" stroke-width=".05" fill="#82755b"/><path d="M1120.17 704.72l5.13 14.1-9.27.32z" stroke="#82755b" stroke-width="3" fill="#fff"/><path d="M960 741.37a20 20 0 0 1 20-20h120a20 20 0 0 1 20 20v40a20 20 0 0 1-20 20H980a20 20 0 0 1-20-20z" stroke="#1071e5" stroke-width="3" fill="url(#I)"/><use xlink:href="#J" transform="matrix(1,0,0,1,965.0000000000002,726.3666666666668) translate(51.26851851851852 39.78993055555556)"/><path d="M1001.2 641.53v44.24M997.2 641.53v44.24" stroke="#82755b" stroke-width="2" fill="none"/><path d="M1002.17 641.56h-1.94v-1.03h1.94zM998.17 641.56h-1.94v-1.03h1.94z" stroke="#82755b" stroke-width=".05" fill="#82755b"/><path d="M1009.2 680.6l-10 17.32-10-17.32m10 17.32v-8.5" stroke="#82755b" stroke-width="2" fill="none"/><path d="M1137.33 678.87V654.7M1141.33 678.87V654.7" stroke="#008a0e" stroke-width="2" fill="none"/><path d="M1138.3 678.84v1.03h-1.94v-1.03zM1142.3 678.84v1.2l-1.94-.15v-1.06z" stroke="#008a0e" stroke-width=".05" fill="#008a0e"/><path d="M1129.33 659.85l10-17.32 10 17.32m-10-17.32v8.5" stroke="#008a0e" stroke-width="2" fill="none"/><path d="M981.15 641.5l-.54 67.72M977.15 641.46l-.54 67.73" stroke="#1071e5" stroke-width="2" fill="none"/><path d="M982.12 641.52h-1.95v-1h1.96zM976.64 640.27l1.5.12-.02 1.1-1.95-.03v-1.3z" stroke="#1071e5" stroke-width=".05" fill="#1071e5"/><path d="M988.65 704.13l-10.13 17.24-9.87-17.4m9.87 17.4l.06-8.5" stroke="#1071e5" stroke-width="2" fill="none"/><path d="M1022.8 641.53v24.18M1018.8 641.53v24.18" stroke="#008a0e" stroke-width="2" fill="none"/><path d="M1023.77 641.56h-1.94v-1.03h1.94zM1019.77 641.56h-1.94v-1.03h1.94z" stroke="#008a0e" stroke-width=".05" fill="#008a0e"/><path d="M1030.8 660.55l-10 17.32-10-17.32m10 17.32v-8.5" stroke="#008a0e" stroke-width="2" fill="none"/><path d="M1118 698.87V654.7M1122 698.87V654.7" stroke="#82755b" stroke-width="2" fill="none"/><path d="M1118.97 698.84v1.03h-1.94v-1.03zM1122.97 698.84v1.26l-1.94-.16v-1.1z" stroke="#82755b" stroke-width=".05" fill="#82755b"/><path d="M1110 659.85l10-17.32 10 17.32m-10-17.32v8.5" stroke="#82755b" stroke-width="2" fill="none"/><path d="M1098 718.87V654.7M1102 718.87V654.7" stroke="#1071e5" stroke-width="2" fill="none"/><path d="M1098.97 718.84v1.03h-1.94v-1.03zM1102.97 718.84v1.26l-1.94-.16v-1.1z" stroke="#1071e5" stroke-width=".05" fill="#1071e5"/><path d="M1090 659.85l10-17.32 10 17.32m-10-17.32v8.5" stroke="#1071e5" stroke-width="2" fill="none"/><path d="M976.82 721.47a1.5 1.5 0 0 1 1.5-1.5 1.5 1.5 0 0 1 1.5 1.5 1.5 1.5 0 0 1-1.5 1.5 1.5 1.5 0 0 1-1.5-1.5v-.03m-.65 5.93v-.02a1.5 1.5 0 0 1 1.5-1.5 1.5 1.5 0 0 1 1.5 1.5 1.5 1.5 0 0 1-1.5 1.5 1.5 1.5 0 0 1-1.5-1.5m-.16 5.94v-.02a1.5 1.5 0 0 1 1.5-1.5 1.5 1.5 0 0 1 1.5 1.5 1.5 1.5 0 0 1-1.5 1.5 1.5 1.5 0 0 1-1.5-1.5m.37 5.93a1.5 1.5 0 0 1 1.5-1.5 1.5 1.5 0 0 1 1.5 1.5 1.5 1.5 0 0 1-1.5 1.5 1.5 1.5 0 0 1-1.5-1.5v-.02m.94 5.9v-.03a1.5 1.5 0 0 1 1.5-1.5 1.5 1.5 0 0 1 1.5 1.5 1.5 1.5 0 0 1-1.5 1.5 1.5 1.5 0 0 1-1.5-1.5m1.6 5.73a1.5 1.5 0 0 1 1.5-1.5 1.5 1.5 0 0 1 1.5 1.5 1.5 1.5 0 0 1-1.5 1.5 1.5 1.5 0 0 1-1.5-1.5v-.03m2.2 5.53v-.02a1.5 1.5 0 0 1 1.5-1.5 1.5 1.5 0 0 1 1.5 1.5 1.5 1.5 0 0 1-1.5 1.5 1.5 1.5 0 0 1-1.5-1.5m2.88 5.2a1.5 1.5 0 0 1 1.5-1.5 1.5 1.5 0 0 1 1.5 1.5 1.5 1.5 0 0 1-1.5 1.5 1.5 1.5 0 0 1-1.5-1.5v-.02m3.47 4.83a1.5 1.5 0 0 1 1.5-1.5 1.5 1.5 0 0 1 1.5 1.5 1.5 1.5 0 0 1-1.5 1.5 1.5 1.5 0 0 1-1.5-1.5v-.03m4.02 4.4v-.03a1.5 1.5 0 0 1 1.5-1.5 1.5 1.5 0 0 1 1.5 1.5 1.5 1.5 0 0 1-1.5 1.5 1.5 1.5 0 0 1-1.5-1.5m4.5 3.9v-.03a1.5 1.5 0 0 1 1.5-1.5 1.5 1.5 0 0 1 1.5 1.5 1.5 1.5 0 0 1-1.5 1.5 1.5 1.5 0 0 1-1.5-1.5m4.9 3.37v-.02a1.5 1.5 0 0 1 1.5-1.5 1.5 1.5 0 0 1 1.5 1.5 1.5 1.5 0 0 1-1.5 1.5 1.5 1.5 0 0 1-1.5-1.5m5.2 2.85a1.5 1.5 0 0 1 1.5-1.5 1.5 1.5 0 0 1 1.5 1.5 1.5 1.5 0 0 1-1.5 1.5 1.5 1.5 0 0 1-1.5-1.5v-.03m5.45 2.37a1.5 1.5 0 0 1 1.5-1.5 1.5 1.5 0 0 1 1.5 1.5 1.5 1.5 0 0 1-1.5 1.5 1.5 1.5 0 0 1-1.5-1.5v-.02m5.63 1.87v-.02a1.5 1.5 0 0 1 1.5-1.5 1.5 1.5 0 0 1 1.5 1.5 1.5 1.5 0 0 1-1.5 1.5 1.5 1.5 0 0 1-1.5-1.5m5.78 1.38a1.5 1.5 0 0 1 1.5-1.5 1.5 1.5 0 0 1 1.5 1.5 1.5 1.5 0 0 1-1.5 1.5 1.5 1.5 0 0 1-1.5-1.5v-.02m5.86.92a1.5 1.5 0 0 1 1.5-1.5 1.5 1.5 0 0 1 1.5 1.5 1.5 1.5 0 0 1-1.5 1.5 1.5 1.5 0 0 1-1.5-1.5v-.03m5.9.48v-.02a1.5 1.5 0 0 1 1.5-1.5 1.5 1.5 0 0 1 1.5 1.5 1.5 1.5 0 0 1-1.5 1.5 1.5 1.5 0 0 1-1.5-1.5m5.93.03v-.02a1.5 1.5 0 0 1 1.5-1.5 1.5 1.5 0 0 1 1.5 1.5 1.5 1.5 0 0 1-1.5 1.5 1.5 1.5 0 0 1-1.5-1.5m5.92-.4v-.02a1.5 1.5 0 0 1 1.5-1.5 1.5 1.5 0 0 1 1.5 1.5 1.5 1.5 0 0 1-1.5 1.5 1.5 1.5 0 0 1-1.5-1.5m5.86-.87v-.02a1.5 1.5 0 0 1 1.5-1.5 1.5 1.5 0 0 1 1.5 1.5 1.5 1.5 0 0 1-1.5 1.5 1.5 1.5 0 0 1-1.5-1.5m5.8-1.3v-.02a1.5 1.5 0 0 1 1.5-1.5 1.5 1.5 0 0 1 1.5 1.5 1.5 1.5 0 0 1-1.5 1.5 1.5 1.5 0 0 1-1.5-1.5m5.64-1.76a1.5 1.5 0 0 1 1.5-1.5 1.5 1.5 0 0 1 1.5 1.5 1.5 1.5 0 0 1-1.5 1.5 1.5 1.5 0 0 1-1.5-1.5v-.03m5.5-2.2v-.02a1.5 1.5 0 0 1 1.5-1.5 1.5 1.5 0 0 1 1.5 1.5 1.5 1.5 0 0 1-1.5 1.5 1.5 1.5 0 0 1-1.5-1.5m5.26-2.7v-.02a1.5 1.5 0 0 1 1.5-1.5 1.5 1.5 0 0 1 1.5 1.5 1.5 1.5 0 0 1-1.5 1.5 1.5 1.5 0 0 1-1.5-1.5m4.98-3.2a1.5 1.5 0 0 1 1.5-1.5 1.5 1.5 0 0 1 1.5 1.5 1.5 1.5 0 0 1-1.5 1.5 1.5 1.5 0 0 1-1.5-1.5v-.03m4.63-3.67v-.02a1.5 1.5 0 0 1 1.5-1.5 1.5 1.5 0 0 1 1.5 1.5 1.5 1.5 0 0 1-1.5 1.5 1.5 1.5 0 0 1-1.5-1.5m4.2-4.17v-.02a1.5 1.5 0 0 1 1.5-1.5 1.5 1.5 0 0 1 1.5 1.5 1.5 1.5 0 0 1-1.5 1.5 1.5 1.5 0 0 1-1.5-1.5m3.7-4.63a1.5 1.5 0 0 1 1.5-1.5 1.5 1.5 0 0 1 1.5 1.5 1.5 1.5 0 0 1-1.5 1.5 1.5 1.5 0 0 1-1.5-1.5v-.02m3.1-5.03a1.5 1.5 0 0 1 1.5-1.5 1.5 1.5 0 0 1 1.5 1.5 1.5 1.5 0 0 1-1.5 1.5 1.5 1.5 0 0 1-1.5-1.5v-.03m2.45-5.36a1.5 1.5 0 0 1 1.5-1.5 1.5 1.5 0 0 1 1.5 1.5 1.5 1.5 0 0 1-1.5 1.5 1.5 1.5 0 0 1-1.5-1.5v-.03m1.8-5.62v-.02a1.5 1.5 0 0 1 1.5-1.5 1.5 1.5 0 0 1 1.5 1.5 1.5 1.5 0 0 1-1.5 1.5 1.5 1.5 0 0 1-1.5-1.5" fill="#1071e5"/><path d="M978.3 721.5l.23-1.53" stroke="#1071e5" stroke-width="3" fill="none"/><path d="M1101.54 724.82l5.1 14.1-9.26.3z" stroke="#1071e5" stroke-width="3" fill="#fff"/><path d="M997.23 581.3a1.5 1.5 0 0 1 1.5-1.5 1.5 1.5 0 0 1 1.5 1.5 1.5 1.5 0 0 1-1.5 1.5 1.5 1.5 0 0 1-1.5-1.5v-.02m-1.87 5.68a1.5 1.5 0 0 1 1.5-1.5 1.5 1.5 0 0 1 1.5 1.5 1.5 1.5 0 0 1-1.5 1.5 1.5 1.5 0 0 1-1.5-1.5v-.03m-1.87 5.7v-.02a1.5 1.5 0 0 1 1.5-1.5 1.5 1.5 0 0 1 1.5 1.5 1.5 1.5 0 0 1-1.5 1.5 1.5 1.5 0 0 1-1.5-1.5m-1.88 5.68v-.02a1.5 1.5 0 0 1 1.5-1.5 1.5 1.5 0 0 1 1.5 1.5 1.5 1.5 0 0 1-1.5 1.5 1.5 1.5 0 0 1-1.5-1.5m-1.88 5.68v-.02a1.5 1.5 0 0 1 1.5-1.5 1.5 1.5 0 0 1 1.5 1.5 1.5 1.5 0 0 1-1.5 1.5 1.5 1.5 0 0 1-1.5-1.5m-1.87 5.67v-.02a1.5 1.5 0 0 1 1.5-1.5 1.5 1.5 0 0 1 1.5 1.5 1.5 1.5 0 0 1-1.5 1.5 1.5 1.5 0 0 1-1.5-1.5v-.02m-1.87 5.7v-.02a1.5 1.5 0 0 1 1.5-1.5 1.5 1.5 0 0 1 1.5 1.5 1.5 1.5 0 0 1-1.5 1.5 1.5 1.5 0 0 1-1.5-1.5v-.02" fill="#1071e5"/><path d="M1000.12 581.8l-2.8-.94.33-1h3.1z" stroke="#1071e5" stroke-width=".05" fill="#1071e5"/><path d="M980.68 635.86l.08-15 8.8 2.9z" stroke="#1071e5" stroke-width="3" fill="#fff"/><path d="M997.7 581.38a1.5 1.5 0 0 1 1.5-1.5 1.5 1.5 0 0 1 1.5 1.5 1.5 1.5 0 0 1-1.5 1.5 1.5 1.5 0 0 1-1.5-1.5v-.03m0 6.46a1.5 1.5 0 0 1 1.5-1.5 1.5 1.5 0 0 1 1.5 1.5 1.5 1.5 0 0 1-1.5 1.5 1.5 1.5 0 0 1-1.5-1.5v-.02m0 6.45a1.5 1.5 0 0 1 1.5-1.5 1.5 1.5 0 0 1 1.5 1.5 1.5 1.5 0 0 1-1.5 1.5 1.5 1.5 0 0 1-1.5-1.5v-.03m0 6.45a1.5 1.5 0 0 1 1.5-1.5 1.5 1.5 0 0 1 1.5 1.5 1.5 1.5 0 0 1-1.5 1.5 1.5 1.5 0 0 1-1.5-1.5v-.02m0 6.45v-.02a1.5 1.5 0 0 1 1.5-1.5 1.5 1.5 0 0 1 1.5 1.5 1.5 1.5 0 0 1-1.5 1.5 1.5 1.5 0 0 1-1.5-1.5m0 6.44a1.5 1.5 0 0 1 1.5-1.5 1.5 1.5 0 0 1 1.5 1.5 1.5 1.5 0 0 1-1.5 1.5 1.5 1.5 0 0 1-1.5-1.5v-.03" fill="#82755b"/><path d="M1000.67 581.4h-2.94v-1.53h2.94z" stroke="#82755b" stroke-width=".05" fill="#82755b"/><path d="M999.2 635.68l-4.63-14.27h9.26z" stroke="#82755b" stroke-width="3" fill="#fff"/><path d="M998.2 581.3v-.02a1.5 1.5 0 0 1 1.5-1.5 1.5 1.5 0 0 1 1.5 1.5 1.5 1.5 0 0 1-1.5 1.5 1.5 1.5 0 0 1-1.5-1.5m2.03 5.7a1.5 1.5 0 0 1 1.5-1.5 1.5 1.5 0 0 1 1.5 1.5 1.5 1.5 0 0 1-1.5 1.5 1.5 1.5 0 0 1-1.5-1.5v-.02m2.02 5.7a1.5 1.5 0 0 1 1.5-1.5 1.5 1.5 0 0 1 1.5 1.5 1.5 1.5 0 0 1-1.5 1.5 1.5 1.5 0 0 1-1.5-1.5v-.02m2.03 5.72a1.5 1.5 0 0 1 1.5-1.5 1.5 1.5 0 0 1 1.5 1.5 1.5 1.5 0 0 1-1.5 1.5 1.5 1.5 0 0 1-1.5-1.5v-.03m2.03 5.72a1.5 1.5 0 0 1 1.5-1.5 1.5 1.5 0 0 1 1.5 1.5 1.5 1.5 0 0 1-1.5 1.5 1.5 1.5 0 0 1-1.5-1.5V604m2.03 5.72a1.5 1.5 0 0 1 1.5-1.5 1.5 1.5 0 0 1 1.5 1.5 1.5 1.5 0 0 1-1.5 1.5 1.5 1.5 0 0 1-1.5-1.5v-.03m2.03 5.73a1.5 1.5 0 0 1 1.5-1.5 1.5 1.5 0 0 1 1.5 1.5 1.5 1.5 0 0 1-1.5 1.5 1.5 1.5 0 0 1-1.5-1.5v-.03" fill="#008a0e"/><path d="M1001.1 580.82l-2.77 1-.7-1.95h3.13z" stroke="#008a0e" stroke-width=".05" fill="#008a0e"/><path d="M1019.17 635.96l-9.15-11.88 8.73-3.1z" stroke="#008a0e" stroke-width="3" fill="#fff"/><path d="M1112.04 599.47v-.02a1.5 1.5 0 0 1 1.5-1.5 1.5 1.5 0 0 1 1.5 1.5 1.5 1.5 0 0 1-1.5 1.5 1.5 1.5 0 0 1-1.5-1.5v-.02m-1.86 5.7a1.5 1.5 0 0 1 1.5-1.5 1.5 1.5 0 0 1 1.5 1.5 1.5 1.5 0 0 1-1.5 1.5 1.5 1.5 0 0 1-1.5-1.5v-.03m-1.87 5.7v-.02a1.5 1.5 0 0 1 1.5-1.5 1.5 1.5 0 0 1 1.5 1.5 1.5 1.5 0 0 1-1.5 1.5 1.5 1.5 0 0 1-1.5-1.5m-1.86 5.68a1.5 1.5 0 0 1 1.5-1.5 1.5 1.5 0 0 1 1.5 1.5 1.5 1.5 0 0 1-1.5 1.5 1.5 1.5 0 0 1-1.5-1.5v-.03m-1.87 5.7v-.02a1.5 1.5 0 0 1 1.5-1.5 1.5 1.5 0 0 1 1.5 1.5 1.5 1.5 0 0 1-1.5 1.5 1.5 1.5 0 0 1-1.5-1.5m-1.87 5.7v-.02a1.5 1.5 0 0 1 1.5-1.5 1.5 1.5 0 0 1 1.5 1.5 1.5 1.5 0 0 1-1.5 1.5 1.5 1.5 0 0 1-1.5-1.5v-.02m-1.86 5.7v-.02a1.5 1.5 0 0 1 1.5-1.5 1.5 1.5 0 0 1 1.5 1.5 1.5 1.5 0 0 1-1.5 1.5 1.5 1.5 0 0 1-1.5-1.5m-1.87 5.68a1.5 1.5 0 0 1 1.5-1.5 1.5 1.5 0 0 1 1.5 1.5 1.5 1.5 0 0 1-1.5 1.5 1.5 1.5 0 0 1-1.5-1.5v-.03" fill="#1071e5"/><path d="M1118.48 584.48l-.06 15-8.8-2.9z" stroke="#1071e5" stroke-width="3" fill="#fff"/><path d="M1101.88 639.53l-.33 1h-3.1l.63-1.92z" stroke="#1071e5" stroke-width=".05" fill="#1071e5"/><path d="M1118.5 600.5a1.5 1.5 0 0 1 1.5-1.5 1.5 1.5 0 0 1 1.5 1.5 1.5 1.5 0 0 1-1.5 1.5 1.5 1.5 0 0 1-1.5-1.5v-.03m0 6.46v-.02a1.5 1.5 0 0 1 1.5-1.5 1.5 1.5 0 0 1 1.5 1.5 1.5 1.5 0 0 1-1.5 1.5 1.5 1.5 0 0 1-1.5-1.5m0 6.45a1.5 1.5 0 0 1 1.5-1.5 1.5 1.5 0 0 1 1.5 1.5 1.5 1.5 0 0 1-1.5 1.5 1.5 1.5 0 0 1-1.5-1.5v-.03m0 6.45a1.5 1.5 0 0 1 1.5-1.5 1.5 1.5 0 0 1 1.5 1.5 1.5 1.5 0 0 1-1.5 1.5 1.5 1.5 0 0 1-1.5-1.5v-.02m0 6.45v-.02a1.5 1.5 0 0 1 1.5-1.5 1.5 1.5 0 0 1 1.5 1.5 1.5 1.5 0 0 1-1.5 1.5 1.5 1.5 0 0 1-1.5-1.5m0 6.44a1.5 1.5 0 0 1 1.5-1.5 1.5 1.5 0 0 1 1.5 1.5 1.5 1.5 0 0 1-1.5 1.5 1.5 1.5 0 0 1-1.5-1.5v-.03" fill="#82755b"/><path d="M1120 584.72l4.63 14.27h-9.27z" stroke="#82755b" stroke-width="3" fill="#fff"/><path d="M1121.47 640.53h-2.94V639h2.94z" stroke="#82755b" stroke-width=".05" fill="#82755b"/><path d="M1124.9 600.98a1.5 1.5 0 0 1 1.5-1.5 1.5 1.5 0 0 1 1.5 1.5 1.5 1.5 0 0 1-1.5 1.5 1.5 1.5 0 0 1-1.5-1.5v-.03m1.78 5.48a1.5 1.5 0 0 1 1.5-1.5 1.5 1.5 0 0 1 1.5 1.5 1.5 1.5 0 0 1-1.5 1.5 1.5 1.5 0 0 1-1.5-1.5v-.03m1.78 5.48v-.02a1.5 1.5 0 0 1 1.5-1.5 1.5 1.5 0 0 1 1.5 1.5 1.5 1.5 0 0 1-1.5 1.5 1.5 1.5 0 0 1-1.5-1.5m1.8 5.47v-.02a1.5 1.5 0 0 1 1.5-1.5 1.5 1.5 0 0 1 1.5 1.5 1.5 1.5 0 0 1-1.5 1.5 1.5 1.5 0 0 1-1.5-1.5m1.77 5.48v-.02a1.5 1.5 0 0 1 1.5-1.5 1.5 1.5 0 0 1 1.5 1.5 1.5 1.5 0 0 1-1.5 1.5 1.5 1.5 0 0 1-1.5-1.5m1.78 5.47v-.02a1.5 1.5 0 0 1 1.5-1.5 1.5 1.5 0 0 1 1.5 1.5 1.5 1.5 0 0 1-1.5 1.5 1.5 1.5 0 0 1-1.5-1.5m1.8 5.47a1.5 1.5 0 0 1 1.5-1.5 1.5 1.5 0 0 1 1.5 1.5 1.5 1.5 0 0 1-1.5 1.5 1.5 1.5 0 0 1-1.5-1.5v-.03m1.77 5.48a1.5 1.5 0 0 1 1.5-1.5 1.5 1.5 0 0 1 1.5 1.5 1.5 1.5 0 0 1-1.5 1.5 1.5 1.5 0 0 1-1.5-1.5v-.03" fill="#008a0e"/><path d="M1121.5 585.98l8.85 12.12-8.82 2.88z" stroke="#008a0e" stroke-width="3" fill="#fff"/><path d="M1140.87 640.47l-.8.06h-2.3l-.32-1 2.8-.92z" stroke="#008a0e" stroke-width=".05" fill="#008a0e"/><path d="M960 806a6 6 0 0 1 6-6h188a6 6 0 0 1 6 6v88a6 6 0 0 1-6 6H966a6 6 0 0 1-6-6z" stroke="#000" stroke-opacity="0" stroke-width="3" fill="#fff" fill-opacity="0"/><use xlink:href="#K" transform="matrix(1,0,0,1,965,805) translate(7.932098765432087 51.25607638888889)"/><path d="M540 1140a20 20 0 0 1 20-20h101.4a20 20 0 0 1 20 20v80a20 20 0 0 1-20 20H560a20 20 0 0 1-20-20z" stroke="#cc4e00" stroke-width="3" fill="url(#L)"/><use xlink:href="#M" transform="matrix(1,0,0,1,545,1125) translate(5.444444444444443 60.43489583333333)"/><use xlink:href="#N" transform="matrix(1,0,0,1,545,1125) translate(82.33333333333333 60.43489583333333)"/><path d="M520 1160a20 20 0 0 1 20-20h101.4a20 20 0 0 1 20 20v80a20 20 0 0 1-20 20H540a20 20 0 0 1-20-20z" stroke="#d916a8" stroke-width="3" fill="url(#O)"/><use xlink:href="#M" transform="matrix(1,0,0,1,525,1145) translate(1.7037037037037095 60.43489583333333)"/><use xlink:href="#P" transform="matrix(1,0,0,1,525,1145) translate(78.5925925925926 60.43489583333333)"/><path d="M500 1180a20 20 0 0 1 20-20h101.4a20 20 0 0 1 20 20v80a20 20 0 0 1-20 20H520a20 20 0 0 1-20-20z" stroke="#ba23f6" stroke-width="3" fill="url(#Q)"/><use xlink:href="#M" transform="matrix(1,0,0,1,505,1165) translate(6.148148148148152 60.43489583333333)"/><use xlink:href="#R" transform="matrix(1,0,0,1,505,1165) translate(83.03703703703704 60.43489583333333)"/><path d="M500 1286a6 6 0 0 1 6-6h168a6 6 0 0 1 6 6v88a6 6 0 0 1-6 6H506a6 6 0 0 1-6-6z" stroke="#000" stroke-opacity="0" stroke-width="3" fill="#fff" fill-opacity="0"/><use xlink:href="#S" transform="matrix(1,0,0,1,505,1285) translate(17.76543209876543 32.62326388888889)"/><use xlink:href="#T" transform="matrix(1,0,0,1,505,1285) translate(32.37037037037037 69.95659722222223)"/><path d="M550 1002.5v17.5" stroke="#ba23f6" stroke-width="2" fill="none"/><path d="M550.98 1002.53H549v-1.03H551z" stroke="#ba23f6" stroke-width=".05" fill="#ba23f6"/><path d="M550 1035.26l-4.63-14.26h9.26z" stroke="#ba23f6" stroke-width="2" fill="#ba23f6"/><path d="M620 982.5v37.5" stroke="#cc4e00" stroke-width="2" fill="none"/><path d="M620.98 982.53H619v-1.03H621z" stroke="#cc4e00" stroke-width=".05" fill="#cc4e00"/><path d="M620 1035.26l-4.63-14.26h9.26z" stroke="#cc4e00" stroke-width="2" fill="#cc4e00"/><path d="M560 960a20 20 0 0 1 20-20h80a20 20 0 0 1 20 20 20 20 0 0 1-20 20h-80a20 20 0 0 1-20-20z" stroke="#cc4e00" stroke-width="3" fill="#e8e2c8"/><use xlink:href="#e" transform="matrix(1,0,0,1,565,945) translate(6.896975308641972 20.024305555555557)"/><path d="M500 980a20 20 0 0 1 20-20h60a20 20 0 0 1 20 20 20 20 0 0 1-20 20h-60a20 20 0 0 1-20-20z" stroke="#ba23f6" stroke-width="3" fill="#e8e2c8"/><g><use xlink:href="#f" transform="matrix(1,0,0,1,505,965) translate(5.6562345679012385 20.024305555555557)"/></g><path d="M500 1060a20 20 0 0 1 20-20h140a20 20 0 0 1 20 20 20 20 0 0 1-20 20H520a20 20 0 0 1-20-20z" stroke="#000" stroke-width="3" fill="#fff"/><g><use xlink:href="#U" transform="matrix(1,0,0,1,505,1045) translate(1.5883333333333332 20.024305555555557)"/><use xlink:href="#V" transform="matrix(1,0,0,1,505,1045) translate(106.02043209876544 20.024305555555557)"/></g><path d="M549 1039.5a1 1 0 0 1 1-1 1 1 0 0 1 1 1 1 1 0 0 1-1 1 1 1 0 0 1-1-1m0 3.93a1 1 0 0 1 1-1 1 1 0 0 1 1 1 1 1 0 0 1-1 1 1 1 0 0 1-1-1v-.02m0 3.94a1 1 0 0 1 1-1 1 1 0 0 1 1 1 1 1 0 0 1-1 1 1 1 0 0 1-1-1v-.02m0 3.94a1 1 0 0 1 1-1 1 1 0 0 1 1 1 1 1 0 0 1-1 1 1 1 0 0 1-1-1v-.02m0 3.93a1 1 0 0 1 1-1 1 1 0 0 1 1 1 1 1 0 0 1-1 1 1 1 0 0 1-1-1v-.02m0 3.94v-.02a1 1 0 0 1 1-1 1 1 0 0 1 1 1 1 1 0 0 1-1 1 1 1 0 0 1-1-1m0 3.93a1 1 0 0 1 1-1 1 1 0 0 1 1 1 1 1 0 0 1-1 1 1 1 0 0 1-1-1" fill="#ba23f6"/><path d="M550.98 1039.53H549v-1.03H551z" stroke="#ba23f6" stroke-width=".05" fill="#ba23f6"/><path d="M550 1078.26l-4.63-14.26h9.26z" stroke="#ba23f6" stroke-width="2" fill="#fff"/><path d="M549.34 1082.5l.2 57.5" stroke="#ba23f6" stroke-width="2" fill="none"/><path d="M550.3 1082.52h-1.94v-1.02h1.95z" stroke="#ba23f6" stroke-width=".05" fill="#ba23f6"/><path d="M549.58 1155.26L544.9 1141l9.27-.02z" stroke="#ba23f6" stroke-width="2" fill="#ba23f6"/><path d="M619 1041a1 1 0 0 1 1-1 1 1 0 0 1 1 1 1 1 0 0 1-1 1 1 1 0 0 1-1-1m0 4.4a1 1 0 0 1 1-1 1 1 0 0 1 1 1 1 1 0 0 1-1 1 1 1 0 0 1-1-1m0 4.4a1 1 0 0 1 1-1 1 1 0 0 1 1 1 1 1 0 0 1-1 1 1 1 0 0 1-1-1m0 4.4a1 1 0 0 1 1-1 1 1 0 0 1 1 1 1 1 0 0 1-1 1 1 1 0 0 1-1-1m0 4.4a1 1 0 0 1 1-1 1 1 0 0 1 1 1 1 1 0 0 1-1 1 1 1 0 0 1-1-1" fill="#cc4e00"/><path d="M620 1041.03V1040" stroke="#cc4e00" stroke-width="2" fill="none"/><path d="M620 1078.26l-4.63-14.26h9.26z" stroke="#cc4e00" stroke-width="2" fill="#fff"/><path d="M620 1082.5l-.06 17.5" stroke="#cc4e00" stroke-width="2" fill="none"/><path d="M620.97 1082.53h-1.95v-1.03H621z" stroke="#cc4e00" stroke-width=".05" fill="#cc4e00"/><path d="M619.9 1115.26l-4.6-14.28 9.28.03z" stroke="#cc4e00" stroke-width="2" fill="#cc4e00"/><defs><linearGradient gradientUnits="userSpaceOnUse" id="a" x1="600" y1="720" x2="600" y2="640"><stop offset="19.93%" stop-color="#fff"/><stop offset="27.17%" stop-color="#cfe4ff"/><stop offset="68.12%" stop-color="#cfe4ff"/><stop offset="75%" stop-color="#c3f7c8"/></linearGradient><path d="M160-131c35 5 61 23 61 61C221 17 115-2 30 0v-248c76 3 177-17 177 60 0 33-19 50-47 57zm-97-11c50-1 110 9 110-42 0-47-63-36-110-37v79zm0 115c55-2 124 14 124-45 0-56-70-42-124-44v89" id="W"/><path d="M141-36C126-15 110 5 73 4 37 3 15-17 15-53c-1-64 63-63 125-63 3-35-9-54-41-54-24 1-41 7-42 31l-33-3c5-37 33-52 76-52 45 0 72 20 72 64v82c-1 20 7 32 28 27v20c-31 9-61-2-59-35zM48-53c0 20 12 33 32 33 41-3 63-29 60-74-43 2-92-5-92 41" id="X"/><path d="M96-169c-40 0-48 33-48 73s9 75 48 75c24 0 41-14 43-38l32 2c-6 37-31 61-74 61-59 0-76-41-82-99-10-93 101-131 147-64 4 7 5 14 7 22l-32 3c-4-21-16-35-41-35" id="Y"/><path d="M143 0L79-87 56-68V0H24v-261h32v163l83-92h37l-77 82L181 0h-38" id="Z"/><path d="M100-194c63 0 86 42 84 106H49c0 40 14 67 53 68 26 1 43-12 49-29l28 8c-11 28-37 45-77 45C44 4 14-33 15-96c1-61 26-98 85-98zm52 81c6-60-76-77-97-28-3 7-6 17-6 28h103" id="aa"/><path d="M117-194c89-4 53 116 60 194h-32v-121c0-31-8-49-39-48C34-167 62-67 57 0H25l-1-190h30c1 10-1 24 2 32 11-22 29-35 61-36" id="ab"/><path d="M85-194c31 0 48 13 60 33l-1-100h32l1 261h-30c-2-10 0-23-3-31C134-8 116 4 85 4 32 4 16-35 15-94c0-66 23-100 70-100zm9 24c-40 0-46 34-46 75 0 40 6 74 45 74 42 0 51-32 51-76 0-42-9-74-50-73" id="ac"/><g id="b"><use transform="matrix(0.06790123456790123,0,0,0.06790123456790123,0,0)" xlink:href="#W"/><use transform="matrix(0.06790123456790123,0,0,0.06790123456790123,16.296296296296294,0)" xlink:href="#X"/><use transform="matrix(0.06790123456790123,0,0,0.06790123456790123,29.87654320987654,0)" xlink:href="#Y"/><use transform="matrix(0.06790123456790123,0,0,0.06790123456790123,42.09876543209876,0)" xlink:href="#Z"/><use transform="matrix(0.06790123456790123,0,0,0.06790123456790123,54.32098765432098,0)" xlink:href="#aa"/><use transform="matrix(0.06790123456790123,0,0,0.06790123456790123,67.90123456790123,0)" xlink:href="#ab"/><use transform="matrix(0.06790123456790123,0,0,0.06790123456790123,81.48148148148147,0)" xlink:href="#ac"/></g><path d="M241-173c-1 82-78 91-166 86L58 0H6l48-248c87 0 188-12 187 75zm-53 2c0-43-48-36-90-36l-15 80c50 0 105 7 105-44" id="ad"/><path d="M121-251c83 0 93 87 42 126-35 27-77 48-103 84h115l-7 41H-6C6-94 102-103 141-168c11-20 3-46-24-44-23 2-33 13-39 32l-47-10c12-38 39-61 90-61" id="ae"/><g id="c"><use transform="matrix(0.08641975308641976,0,0,0.08641975308641976,0,0)" xlink:href="#ad"/><use transform="matrix(0.08641975308641976,0,0,0.08641975308641976,20.740740740740744,0)" xlink:href="#ae"/><use transform="matrix(0.08641975308641976,0,0,0.08641975308641976,38.0246913580247,0)" xlink:href="#ad"/></g><path d="M212 0l43-212L151 0h-37L90-212C82-137 65-70 52 0H6l48-248h70l20 187 93-187h69L258 0h-46" id="af"/><path d="M114-194c63-2 87 48 72 110H63c-3 28 1 55 31 54 21-1 32-13 37-29l44 13C160-14 137 4 91 4 41 4 11-22 11-73c0-71 33-119 103-121zm30 77c14-47-50-61-67-22-3 6-6 13-8 22h75" id="ag"/><path d="M144-137c-1-29-70-35-71-2 16 41 103 10 103 80C176 9 79 16 32-9 18-17 9-31 4-48l44-6c3 32 80 36 82 1-15-42-103-11-103-82 0-77 157-79 161-8" id="ah"/><path d="M150-105c8-23 8-54-22-51-68 7-54 98-72 156H6l50-261h50L85-158c15-20 33-36 66-36 95 0 34 128 28 194h-49" id="ai"/><g id="d"><use transform="matrix(0.08641975308641976,0,0,0.08641975308641976,0,0)" xlink:href="#af"/><use transform="matrix(0.08641975308641976,0,0,0.08641975308641976,25.83950617283951,0)" xlink:href="#ag"/><use transform="matrix(0.08641975308641976,0,0,0.08641975308641976,43.12345679012346,0)" xlink:href="#ah"/><use transform="matrix(0.08641975308641976,0,0,0.08641975308641976,60.407407407407426,0)" xlink:href="#ai"/></g><path d="M209 0H11v-25l151-195H24v-28h176v25L50-27h159V0" id="aj"/><path d="M100-194c62-1 85 37 85 99 1 63-27 99-86 99S16-35 15-95c0-66 28-99 85-99zM99-20c44 1 53-31 53-75 0-43-8-75-51-75s-53 32-53 75 10 74 51 75" id="ak"/><path d="M24-231v-30h32v30H24zM24 0v-190h32V0H24" id="al"/><path d="M115-194c53 0 69 39 70 98 0 66-23 100-70 100C84 3 66-7 56-30L54 0H23l1-261h32v101c10-23 28-34 59-34zm-8 174c40 0 45-34 45-75 0-40-5-75-45-74-42 0-51 32-51 76 0 43 10 73 51 73" id="am"/><path d="M114-163C36-179 61-72 57 0H25l-1-190h30c1 12-1 29 2 39 6-27 23-49 58-41v29" id="an"/><path d="M177-190C167-65 218 103 67 71c-23-6-38-20-44-43l32-5c15 47 100 32 89-28v-30C133-14 115 1 83 1 29 1 15-40 15-95c0-56 16-97 71-98 29-1 48 16 59 35 1-10 0-23 2-32h30zM94-22c36 0 50-32 50-73 0-42-14-75-50-75-39 0-46 34-46 75s6 73 46 73" id="ao"/><g id="e"><use transform="matrix(0.06790123456790123,0,0,0.06790123456790123,0,0)" xlink:href="#aj"/><use transform="matrix(0.06790123456790123,0,0,0.06790123456790123,14.87037037037037,0)" xlink:href="#ak"/><use transform="matrix(0.06790123456790123,0,0,0.06790123456790123,28.450617283950617,0)" xlink:href="#al"/><use transform="matrix(0.06790123456790123,0,0,0.06790123456790123,33.81481481481482,0)" xlink:href="#ac"/><use transform="matrix(0.06790123456790123,0,0,0.06790123456790123,47.39506172839506,0)" xlink:href="#am"/><use transform="matrix(0.06790123456790123,0,0,0.06790123456790123,60.97530864197531,0)" xlink:href="#aa"/><use transform="matrix(0.06790123456790123,0,0,0.06790123456790123,74.55555555555556,0)" xlink:href="#an"/><use transform="matrix(0.06790123456790123,0,0,0.06790123456790123,82.6358024691358,0)" xlink:href="#ao"/></g><g id="f"><use transform="matrix(0.06790123456790123,0,0,0.06790123456790123,0,0)" xlink:href="#W"/><use transform="matrix(0.06790123456790123,0,0,0.06790123456790123,16.296296296296294,0)" xlink:href="#aa"/><use transform="matrix(0.06790123456790123,0,0,0.06790123456790123,29.87654320987654,0)" xlink:href="#ab"/><use transform="matrix(0.06790123456790123,0,0,0.06790123456790123,43.456790123456784,0)" xlink:href="#ac"/><use transform="matrix(0.06790123456790123,0,0,0.06790123456790123,57.03703703703703,0)" xlink:href="#aa"/><use transform="matrix(0.06790123456790123,0,0,0.06790123456790123,70.61728395061728,0)" xlink:href="#an"/></g><linearGradient gradientUnits="userSpaceOnUse" id="g" x1="1140" y1="1020" x2="1140" y2="1100"><stop offset="23.55%" stop-color="#c3f7c8"/><stop offset="33.7%" stop-color="#cfe4ff"/><stop offset="59.29%" stop-color="#cfe4ff"/><stop offset="70.71%" stop-color="#ced4db"/></linearGradient><path d="M47-170H22l-4-78h33" id="ap"/><path d="M135-143c-3-34-86-38-87 0 15 53 115 12 119 90S17 21 10-45l28-5c4 36 97 45 98 0-10-56-113-15-118-90-4-57 82-63 122-42 12 7 21 19 24 35" id="aq"/><g id="h"><use transform="matrix(0.07407407407407408,0,0,0.07407407407407408,0,0)" xlink:href="#aj"/><use transform="matrix(0.07407407407407408,0,0,0.07407407407407408,16.222222222222225,0)" xlink:href="#ak"/><use transform="matrix(0.07407407407407408,0,0,0.07407407407407408,31.03703703703704,0)" xlink:href="#al"/><use transform="matrix(0.07407407407407408,0,0,0.07407407407407408,36.88888888888889,0)" xlink:href="#ac"/><use transform="matrix(0.07407407407407408,0,0,0.07407407407407408,51.70370370370371,0)" xlink:href="#am"/><use transform="matrix(0.07407407407407408,0,0,0.07407407407407408,66.51851851851853,0)" xlink:href="#aa"/><use transform="matrix(0.07407407407407408,0,0,0.07407407407407408,81.33333333333334,0)" xlink:href="#an"/><use transform="matrix(0.07407407407407408,0,0,0.07407407407407408,90.14814814814817,0)" xlink:href="#ao"/><use transform="matrix(0.07407407407407408,0,0,0.07407407407407408,104.96296296296296,0)" xlink:href="#ap"/><use transform="matrix(0.07407407407407408,0,0,0.07407407407407408,110,0)" xlink:href="#aq"/></g><path d="M59-47c-2 24 18 29 38 22v24C64 9 27 4 27-40v-127H5v-23h24l9-43h21v43h35v23H59v120" id="ar"/><g id="i"><use transform="matrix(0.07407407407407408,0,0,0.07407407407407408,0,0)" xlink:href="#al"/><use transform="matrix(0.07407407407407408,0,0,0.07407407407407408,5.851851851851853,0)" xlink:href="#ab"/><use transform="matrix(0.07407407407407408,0,0,0.07407407407407408,20.666666666666668,0)" xlink:href="#aq"/><use transform="matrix(0.07407407407407408,0,0,0.07407407407407408,34.00000000000001,0)" xlink:href="#ar"/><use transform="matrix(0.07407407407407408,0,0,0.07407407407407408,41.40740740740742,0)" xlink:href="#X"/><use transform="matrix(0.07407407407407408,0,0,0.07407407407407408,56.222222222222236,0)" xlink:href="#ab"/><use transform="matrix(0.07407407407407408,0,0,0.07407407407407408,71.03703703703705,0)" xlink:href="#Y"/><use transform="matrix(0.07407407407407408,0,0,0.07407407407407408,84.37037037037038,0)" xlink:href="#aa"/></g><path d="M240 0l2-218c-23 76-54 145-80 218h-23L58-218 59 0H30v-248h44l77 211c21-75 51-140 76-211h43V0h-30" id="as"/><path d="M106-169C34-169 62-67 57 0H25v-261h32l-1 103c12-21 28-36 61-36 89 0 53 116 60 194h-32v-121c2-32-8-49-39-48" id="at"/><g id="j"><use transform="matrix(0.06790123456790123,0,0,0.06790123456790123,0,0)" xlink:href="#as"/><use transform="matrix(0.06790123456790123,0,0,0.06790123456790123,20.30246913580247,0)" xlink:href="#aa"/><use transform="matrix(0.06790123456790123,0,0,0.06790123456790123,33.882716049382715,0)" xlink:href="#aq"/><use transform="matrix(0.06790123456790123,0,0,0.06790123456790123,46.10493827160494,0)" xlink:href="#at"/></g><path d="M190 0L58-211 59 0H30v-248h39L202-35l-2-213h31V0h-41" id="au"/><g id="k"><use transform="matrix(0.06790123456790123,0,0,0.06790123456790123,0,0)" xlink:href="#au"/><use transform="matrix(0.06790123456790123,0,0,0.06790123456790123,17.586419753086417,0)" xlink:href="#ak"/><use transform="matrix(0.06790123456790123,0,0,0.06790123456790123,31.166666666666664,0)" xlink:href="#ac"/><use transform="matrix(0.06790123456790123,0,0,0.06790123456790123,44.74691358024691,0)" xlink:href="#aa"/></g><linearGradient gradientUnits="userSpaceOnUse" id="l" x1="1120" y1="1040" x2="1120" y2="1120"><stop offset="23.55%" stop-color="#c3f7c8"/><stop offset="33.7%" stop-color="#cfe4ff"/><stop offset="59.29%" stop-color="#cfe4ff"/><stop offset="70.71%" stop-color="#ced4db"/></linearGradient><path d="M205 0l-28-72H64L36 0H1l101-248h38L239 0h-34zm-38-99l-47-123c-12 45-31 82-46 123h93" id="av"/><path d="M115-194c55 1 70 41 70 98S169 2 115 4C84 4 66-9 55-30l1 105H24l-1-265h31l2 30c10-21 28-34 59-34zm-8 174c40 0 45-34 45-75s-6-73-45-74c-42 0-51 32-51 76 0 43 10 73 51 73" id="aw"/><g id="m"><use transform="matrix(0.07407407407407408,0,0,0.07407407407407408,0,0)" xlink:href="#av"/><use transform="matrix(0.07407407407407408,0,0,0.07407407407407408,17.77777777777778,0)" xlink:href="#aw"/><use transform="matrix(0.07407407407407408,0,0,0.07407407407407408,32.592592592592595,0)" xlink:href="#aw"/></g><linearGradient gradientUnits="userSpaceOnUse" id="n" x1="1100" y1="1060" x2="1100" y2="1140"><stop offset="23.55%" stop-color="#c3f7c8"/><stop offset="33.7%" stop-color="#cfe4ff"/><stop offset="59.29%" stop-color="#cfe4ff"/><stop offset="70.71%" stop-color="#ced4db"/></linearGradient><g id="o"><use transform="matrix(0.07407407407407408,0,0,0.07407407407407408,0,0)" xlink:href="#W"/><use transform="matrix(0.07407407407407408,0,0,0.07407407407407408,17.77777777777778,0)" xlink:href="#aa"/><use transform="matrix(0.07407407407407408,0,0,0.07407407407407408,32.592592592592595,0)" xlink:href="#ab"/><use transform="matrix(0.07407407407407408,0,0,0.07407407407407408,47.40740740740741,0)" xlink:href="#ac"/><use transform="matrix(0.07407407407407408,0,0,0.07407407407407408,62.22222222222223,0)" xlink:href="#aa"/><use transform="matrix(0.07407407407407408,0,0,0.07407407407407408,77.03703703703702,0)" xlink:href="#an"/><use transform="matrix(0.07407407407407408,0,0,0.07407407407407408,85.85185185185185,0)" xlink:href="#ap"/><use transform="matrix(0.07407407407407408,0,0,0.07407407407407408,90.88888888888889,0)" xlink:href="#aq"/></g><linearGradient gradientUnits="userSpaceOnUse" id="p" x1="580" y1="740" x2="580" y2="660"><stop offset="19.93%" stop-color="#fff"/><stop offset="27.17%" stop-color="#cfe4ff"/><stop offset="68.12%" stop-color="#cfe4ff"/><stop offset="75%" stop-color="#c3f7c8"/></linearGradient><path d="M30-248c118-7 216 8 213 122C240-48 200 0 122 0H30v-248zM63-27c89 8 146-16 146-99s-60-101-146-95v194" id="ax"/><g id="q"><use transform="matrix(0.06790123456790123,0,0,0.06790123456790123,0,0)" xlink:href="#ax"/><use transform="matrix(0.06790123456790123,0,0,0.06790123456790123,17.586419753086417,0)" xlink:href="#X"/><use transform="matrix(0.06790123456790123,0,0,0.06790123456790123,31.166666666666664,0)" xlink:href="#ar"/><use transform="matrix(0.06790123456790123,0,0,0.06790123456790123,37.95679012345679,0)" xlink:href="#X"/><use transform="matrix(0.06790123456790123,0,0,0.06790123456790123,51.53703703703703,0)" xlink:href="#am"/><use transform="matrix(0.06790123456790123,0,0,0.06790123456790123,65.11728395061728,0)" xlink:href="#X"/><use transform="matrix(0.06790123456790123,0,0,0.06790123456790123,78.69753086419752,0)" xlink:href="#aq"/><use transform="matrix(0.06790123456790123,0,0,0.06790123456790123,90.91975308641975,0)" xlink:href="#aa"/></g><path d="M157-208L117 0H65l40-208H25l8-40h212l-8 40h-80" id="ay"/><path d="M84-151c13-25 34-51 72-40l-8 41C67-170 71-64 56 0H6l36-190h47" id="az"/><path d="M10-72l8-43h92l-9 43H10" id="aA"/><path d="M50-224l7-37h49l-7 37H50zM6 0l37-190h49L55 0H6" id="aB"/><g id="r"><use transform="matrix(0.08641975308641976,0,0,0.08641975308641976,0,0)" xlink:href="#ay"/><use transform="matrix(0.08641975308641976,0,0,0.08641975308641976,18.925925925925927,0)" xlink:href="#ai"/><use transform="matrix(0.08641975308641976,0,0,0.08641975308641976,37.851851851851855,0)" xlink:href="#az"/><use transform="matrix(0.08641975308641976,0,0,0.08641975308641976,49.95061728395062,0)" xlink:href="#ag"/><use transform="matrix(0.08641975308641976,0,0,0.08641975308641976,67.23456790123457,0)" xlink:href="#ag"/><use transform="matrix(0.08641975308641976,0,0,0.08641975308641976,84.51851851851852,0)" xlink:href="#aA"/><use transform="matrix(0.08641975308641976,0,0,0.08641975308641976,94.80246913580245,0)" xlink:href="#ay"/><use transform="matrix(0.08641975308641976,0,0,0.08641975308641976,113.12345679012346,0)" xlink:href="#aB"/><use transform="matrix(0.08641975308641976,0,0,0.08641975308641976,121.76543209876543,0)" xlink:href="#ag"/><use transform="matrix(0.08641975308641976,0,0,0.08641975308641976,139.0493827160494,0)" xlink:href="#az"/></g><path d="M178-136c88 48 22 151-73 140C49-3 12-15 4-64l51-9c1 50 111 53 115 3-16-63-132-20-133-112 0-93 190-91 199-10l-50 12c-4-41-93-50-97-4 7 38 59 32 89 48" id="aC"/><path d="M100 10C77 47 50 87-15 72l7-35c37 9 51-18 65-41L20-190h51L89-44l73-146h53" id="aD"/><path d="M72-63c-8 23 5 39 32 30L98-1C54 14 12-6 23-64l18-93H15l7-33h28l24-45h31l-8 45h35l-6 33H90" id="aE"/><path d="M255-194c90 0 29 129 24 194h-49l25-136c-7-39-53-14-60 9-12 38-18 85-28 127h-49l25-136c2-29-39-23-50-7C69-108 68-47 56 0H6l36-190h48c-1 10-6 24-4 32 12-20 27-36 57-36s46 15 50 41c14-21 29-41 62-41" id="aF"/><g id="s"><use transform="matrix(0.08641975308641976,0,0,0.08641975308641976,0,0)" xlink:href="#aC"/><use transform="matrix(0.08641975308641976,0,0,0.08641975308641976,20.740740740740744,0)" xlink:href="#aD"/><use transform="matrix(0.08641975308641976,0,0,0.08641975308641976,38.0246913580247,0)" xlink:href="#ah"/><use transform="matrix(0.08641975308641976,0,0,0.08641975308641976,55.308641975308646,0)" xlink:href="#aE"/><use transform="matrix(0.08641975308641976,0,0,0.08641975308641976,65.5925925925926,0)" xlink:href="#ag"/><use transform="matrix(0.08641975308641976,0,0,0.08641975308641976,82.87654320987654,0)" xlink:href="#aF"/></g><path d="M63-220v92h138v28H63V0H30v-248h175v28H63" id="aG"/><g id="t"><use transform="matrix(0.06790123456790123,0,0,0.06790123456790123,0,0)" xlink:href="#aG"/><use transform="matrix(0.06790123456790123,0,0,0.06790123456790123,14.87037037037037,0)" xlink:href="#an"/><use transform="matrix(0.06790123456790123,0,0,0.06790123456790123,22.950617283950617,0)" xlink:href="#ak"/><use transform="matrix(0.06790123456790123,0,0,0.06790123456790123,36.53086419753086,0)" xlink:href="#ab"/><use transform="matrix(0.06790123456790123,0,0,0.06790123456790123,50.11111111111111,0)" xlink:href="#ar"/><use transform="matrix(0.06790123456790123,0,0,0.06790123456790123,56.90123456790123,0)" xlink:href="#aa"/><use transform="matrix(0.06790123456790123,0,0,0.06790123456790123,70.48148148148147,0)" xlink:href="#ab"/><use transform="matrix(0.06790123456790123,0,0,0.06790123456790123,84.06172839506172,0)" xlink:href="#ac"/></g><linearGradient gradientUnits="userSpaceOnUse" id="u" x1="840" y1="1160" x2="840" y2="1080"><stop offset="19.93%" stop-color="#fff"/><stop offset="27.17%" stop-color="#cfe4ff"/><stop offset="68.12%" stop-color="#cfe4ff"/><stop offset="75%" stop-color="#c3f7c8"/></linearGradient><path d="M84 4C-5 8 30-112 23-190h32v120c0 31 7 50 39 49 72-2 45-101 50-169h31l1 190h-30c-1-10 1-25-2-33-11 22-28 36-60 37" id="aH"/><g id="v"><use transform="matrix(0.06790123456790123,0,0,0.06790123456790123,0,0)" xlink:href="#W"/><use transform="matrix(0.06790123456790123,0,0,0.06790123456790123,16.296296296296294,0)" xlink:href="#aH"/><use transform="matrix(0.06790123456790123,0,0,0.06790123456790123,29.87654320987654,0)" xlink:href="#aq"/><use transform="matrix(0.06790123456790123,0,0,0.06790123456790123,42.09876543209876,0)" xlink:href="#al"/><use transform="matrix(0.06790123456790123,0,0,0.06790123456790123,47.462962962962955,0)" xlink:href="#ab"/><use transform="matrix(0.06790123456790123,0,0,0.06790123456790123,61.0432098765432,0)" xlink:href="#aa"/><use transform="matrix(0.06790123456790123,0,0,0.06790123456790123,74.62345679012344,0)" xlink:href="#aq"/><use transform="matrix(0.06790123456790123,0,0,0.06790123456790123,86.84567901234567,0)" xlink:href="#aq"/></g><path d="M30 0v-248h33v221h125V0H30" id="aI"/><g id="w"><use transform="matrix(0.06790123456790123,0,0,0.06790123456790123,0,0)" xlink:href="#aI"/><use transform="matrix(0.06790123456790123,0,0,0.06790123456790123,13.580246913580247,0)" xlink:href="#ak"/><use transform="matrix(0.06790123456790123,0,0,0.06790123456790123,27.160493827160494,0)" xlink:href="#ao"/><use transform="matrix(0.06790123456790123,0,0,0.06790123456790123,40.74074074074074,0)" xlink:href="#al"/><use transform="matrix(0.06790123456790123,0,0,0.06790123456790123,46.10493827160494,0)" xlink:href="#Y"/></g><g id="x"><use transform="matrix(0.06790123456790123,0,0,0.06790123456790123,0,0)" xlink:href="#aI"/><use transform="matrix(0.06790123456790123,0,0,0.06790123456790123,13.580246913580247,0)" xlink:href="#ak"/><use transform="matrix(0.06790123456790123,0,0,0.06790123456790123,27.160493827160494,0)" xlink:href="#X"/><use transform="matrix(0.06790123456790123,0,0,0.06790123456790123,40.74074074074074,0)" xlink:href="#ac"/></g><path d="M24 0v-261h32V0H24" id="aJ"/><g id="y"><use transform="matrix(0.06790123456790123,0,0,0.06790123456790123,0,0)" xlink:href="#W"/><use transform="matrix(0.06790123456790123,0,0,0.06790123456790123,16.296296296296294,0)" xlink:href="#X"/><use transform="matrix(0.06790123456790123,0,0,0.06790123456790123,29.87654320987654,0)" xlink:href="#aJ"/><use transform="matrix(0.06790123456790123,0,0,0.06790123456790123,35.24074074074074,0)" xlink:href="#X"/><use transform="matrix(0.06790123456790123,0,0,0.06790123456790123,48.82098765432099,0)" xlink:href="#ab"/><use transform="matrix(0.06790123456790123,0,0,0.06790123456790123,62.401234567901234,0)" xlink:href="#Y"/><use transform="matrix(0.06790123456790123,0,0,0.06790123456790123,74.62345679012346,0)" xlink:href="#aa"/><use transform="matrix(0.06790123456790123,0,0,0.06790123456790123,88.2037037037037,0)" xlink:href="#an"/></g><linearGradient gradientUnits="userSpaceOnUse" id="z" x1="820" y1="1180" x2="820" y2="1100"><stop offset="19.93%" stop-color="#fff"/><stop offset="27.17%" stop-color="#cfe4ff"/><stop offset="68.12%" stop-color="#cfe4ff"/><stop offset="75%" stop-color="#c3f7c8"/></linearGradient><linearGradient gradientUnits="userSpaceOnUse" id="A" x1="800" y1="1200" x2="800" y2="1120"><stop offset="19.93%" stop-color="#fff"/><stop offset="27.17%" stop-color="#cfe4ff"/><stop offset="68.12%" stop-color="#cfe4ff"/><stop offset="75%" stop-color="#c3f7c8"/></linearGradient><path d="M67-101c-8 29-7 73 27 71 23-2 32-16 39-37l48 9C170-19 141 4 91 4 36 4 7-28 12-86c6-75 61-124 140-103 26 7 40 29 43 59l-50 4c-1-20-9-34-29-34-35 0-41 29-49 59" id="aK"/><path d="M166-52c-4 17 5 29 24 23l-3 27c-30 11-74 1-67-34C105-15 91 4 56 4 23 4 3-15 2-49c0-64 63-67 128-67 10-22 3-53-29-45-13 3-22 10-25 24l-46-5c5-64 156-77 153 0-1 33-11 60-17 90zM97-88c-44-9-64 57-19 57 31 0 42-28 47-57H97" id="aL"/><path d="M6 0l51-261h49L55 0H6" id="aM"/><path d="M132-28C118-9 101 4 69 4 30 4 10-23 10-62c0-70 24-129 92-132 31-1 47 14 56 35l19-102h49L179 0h-49zM62-69c0 22 7 39 29 39 45-2 54-45 57-90 2-27-10-40-33-40-44 0-53 48-53 91" id="aN"/><g id="B"><use transform="matrix(0.08641975308641976,0,0,0.08641975308641976,0,0)" xlink:href="#aC"/><use transform="matrix(0.08641975308641976,0,0,0.08641975308641976,20.740740740740744,0)" xlink:href="#aK"/><use transform="matrix(0.08641975308641976,0,0,0.08641975308641976,38.0246913580247,0)" xlink:href="#aL"/><use transform="matrix(0.08641975308641976,0,0,0.08641975308641976,55.308641975308646,0)" xlink:href="#aM"/><use transform="matrix(0.08641975308641976,0,0,0.08641975308641976,63.95061728395062,0)" xlink:href="#ag"/><use transform="matrix(0.08641975308641976,0,0,0.08641975308641976,81.23456790123457,0)" xlink:href="#aN"/></g><path d="M109 0H50L19-190h51L86-37l77-153h54" id="aO"/><g id="C"><use transform="matrix(0.08641975308641976,0,0,0.08641975308641976,0,0)" xlink:href="#aC"/><use transform="matrix(0.08641975308641976,0,0,0.08641975308641976,20.740740740740744,0)" xlink:href="#ag"/><use transform="matrix(0.08641975308641976,0,0,0.08641975308641976,38.0246913580247,0)" xlink:href="#az"/><use transform="matrix(0.08641975308641976,0,0,0.08641975308641976,50.12345679012346,0)" xlink:href="#aO"/><use transform="matrix(0.08641975308641976,0,0,0.08641975308641976,67.40740740740742,0)" xlink:href="#aB"/><use transform="matrix(0.08641975308641976,0,0,0.08641975308641976,76.0493827160494,0)" xlink:href="#aK"/><use transform="matrix(0.08641975308641976,0,0,0.08641975308641976,93.33333333333334,0)" xlink:href="#ag"/></g><linearGradient gradientUnits="userSpaceOnUse" id="D" x1="1000" y1="761.37" x2="1000" y2="681.37"><stop offset="27.9%" stop-color="#ced4db"/><stop offset="35.87%" stop-color="#fff"/><stop offset="61.23%" stop-color="#fff"/><stop offset="68.12%" stop-color="#cfe4ff"/></linearGradient><linearGradient gradientUnits="userSpaceOnUse" id="E" x1="980" y1="781.37" x2="980" y2="701.37"><stop offset="27.9%" stop-color="#ced4db"/><stop offset="35.87%" stop-color="#fff"/><stop offset="61.23%" stop-color="#fff"/><stop offset="68.12%" stop-color="#cfe4ff"/></linearGradient><linearGradient gradientUnits="userSpaceOnUse" id="F" x1="960" y1="581.37" x2="960" y2="639.03"><stop offset="38.77%" stop-color="#c3f7c8"/><stop offset="59.06%" stop-color="#fff"/></linearGradient><path d="M233-177c-1 41-23 64-60 70L243 0h-38l-65-103H63V0H30v-248c88 3 205-21 203 71zM63-129c60-2 137 13 137-47 0-61-80-42-137-45v92" id="aP"/><g id="G"><use transform="matrix(0.06790123456790123,0,0,0.06790123456790123,0,0)" xlink:href="#aP"/><use transform="matrix(0.06790123456790123,0,0,0.06790123456790123,17.586419753086417,0)" xlink:href="#aa"/><use transform="matrix(0.06790123456790123,0,0,0.06790123456790123,31.166666666666664,0)" xlink:href="#ac"/><use transform="matrix(0.06790123456790123,0,0,0.06790123456790123,44.74691358024691,0)" xlink:href="#aH"/><use transform="matrix(0.06790123456790123,0,0,0.06790123456790123,58.32716049382716,0)" xlink:href="#Y"/><use transform="matrix(0.06790123456790123,0,0,0.06790123456790123,70.54938271604938,0)" xlink:href="#aa"/></g><path d="M212-179c-10-28-35-45-73-45-59 0-87 40-87 99 0 60 29 101 89 101 43 0 62-24 78-52l27 14C228-24 195 4 139 4 59 4 22-46 18-125c-6-104 99-153 187-111 19 9 31 26 39 46" id="aQ"/><g id="H"><use transform="matrix(0.06790123456790123,0,0,0.06790123456790123,0,0)" xlink:href="#aQ"/><use transform="matrix(0.06790123456790123,0,0,0.06790123456790123,17.586419753086417,0)" xlink:href="#aJ"/><use transform="matrix(0.06790123456790123,0,0,0.06790123456790123,22.950617283950614,0)" xlink:href="#al"/><use transform="matrix(0.06790123456790123,0,0,0.06790123456790123,28.31481481481481,0)" xlink:href="#aa"/><use transform="matrix(0.06790123456790123,0,0,0.06790123456790123,41.895061728395056,0)" xlink:href="#ab"/><use transform="matrix(0.06790123456790123,0,0,0.06790123456790123,55.4753086419753,0)" xlink:href="#ar"/></g><linearGradient gradientUnits="userSpaceOnUse" id="I" x1="960" y1="801.37" x2="960" y2="721.37"><stop offset="27.9%" stop-color="#ced4db"/><stop offset="35.87%" stop-color="#fff"/><stop offset="61.23%" stop-color="#fff"/><stop offset="68.12%" stop-color="#cfe4ff"/></linearGradient><g id="J"><use transform="matrix(0.06790123456790123,0,0,0.06790123456790123,0,0)" xlink:href="#as"/><use transform="matrix(0.06790123456790123,0,0,0.06790123456790123,20.30246913580247,0)" xlink:href="#X"/><use transform="matrix(0.06790123456790123,0,0,0.06790123456790123,33.882716049382715,0)" xlink:href="#aw"/></g><path d="M156-122c2-23-7-37-28-37-47 0-58 44-58 89 0 24 12 40 36 40 43 0 47-49 50-92zM-8 75l50-265h48c0 10-3 24-3 30 22-50 127-45 121 29-6 73-21 135-92 135-29 0-46-14-55-35L41 75H-8" id="aR"/><path d="M258-177c0 46-32 67-71 75L235 0h-57l-41-94H76L58 0H6l48-248c89 2 204-19 204 71zm-53 3c0-46-63-30-107-33l-14 73c51-2 120 13 121-40" id="aS"/><path d="M69 3c-96 0-34-126-28-193h49L65-57c6 42 62 18 71-6 14-38 17-86 28-127h50L178 0h-47c0-11 4-26 3-33-14 20-30 37-65 36" id="aT"/><g id="K"><use transform="matrix(0.08641975308641976,0,0,0.08641975308641976,0,0)" xlink:href="#af"/><use transform="matrix(0.08641975308641976,0,0,0.08641975308641976,25.83950617283951,0)" xlink:href="#aL"/><use transform="matrix(0.08641975308641976,0,0,0.08641975308641976,43.12345679012346,0)" xlink:href="#aR"/><use transform="matrix(0.08641975308641976,0,0,0.08641975308641976,62.04938271604939,0)" xlink:href="#aS"/><use transform="matrix(0.08641975308641976,0,0,0.08641975308641976,84.43209876543212,0)" xlink:href="#ag"/><use transform="matrix(0.08641975308641976,0,0,0.08641975308641976,101.71604938271606,0)" xlink:href="#aN"/><use transform="matrix(0.08641975308641976,0,0,0.08641975308641976,120.64197530864199,0)" xlink:href="#aT"/><use transform="matrix(0.08641975308641976,0,0,0.08641975308641976,139.56790123456793,0)" xlink:href="#aK"/><use transform="matrix(0.08641975308641976,0,0,0.08641975308641976,156.85185185185188,0)" xlink:href="#ag"/></g><linearGradient gradientUnits="userSpaceOnUse" id="L" x1="540" y1="1240" x2="540" y2="1120"><stop offset="17.39%" stop-color="#ced4db"/><stop offset="26.45%" stop-color="#fff"/><stop offset="44.57%" stop-color="#fff"/><stop offset="51.81%" stop-color="#cfe4ff"/><stop offset="72.83%" stop-color="#cfe4ff"/><stop offset="83.33%" stop-color="#c3f7c8"/></linearGradient><path d="M232-93c-1 65-40 97-104 97C67 4 28-28 28-90v-158h33c8 89-33 224 67 224 102 0 64-133 71-224h33v155" id="aU"/><g id="M"><use transform="matrix(0.07407407407407407,0,0,0.07407407407407407,0,0)" xlink:href="#aU"/><use transform="matrix(0.07407407407407407,0,0,0.07407407407407407,19.185185185185183,0)" xlink:href="#aq"/><use transform="matrix(0.07407407407407407,0,0,0.07407407407407407,32.51851851851852,0)" xlink:href="#aa"/><use transform="matrix(0.07407407407407407,0,0,0.07407407407407407,47.33333333333333,0)" xlink:href="#an"/><use transform="matrix(0.07407407407407407,0,0,0.07407407407407407,56.148148148148145,0)" xlink:href="#aq"/></g><path d="M16-82v-28h88v28H16" id="aV"/><g id="N"><use transform="matrix(0.07407407407407407,0,0,0.07407407407407407,0,0)" xlink:href="#au"/><use transform="matrix(0.07407407407407407,0,0,0.07407407407407407,19.185185185185183,0)" xlink:href="#aV"/><use transform="matrix(0.07407407407407407,0,0,0.07407407407407407,28,0)" xlink:href="#aj"/></g><linearGradient gradientUnits="userSpaceOnUse" id="O" x1="520" y1="1260" x2="520" y2="1140"><stop offset="17.39%" stop-color="#ced4db"/><stop offset="26.45%" stop-color="#fff"/><stop offset="44.57%" stop-color="#fff"/><stop offset="51.81%" stop-color="#cfe4ff"/><stop offset="72.83%" stop-color="#cfe4ff"/><stop offset="83.33%" stop-color="#c3f7c8"/></linearGradient><path d="M143 4C61 4 22-44 18-125c-5-107 100-154 193-111 17 8 29 25 37 43l-32 9c-13-25-37-40-76-40-61 0-88 39-88 99 0 61 29 100 91 101 35 0 62-11 79-27v-45h-74v-28h105v86C228-13 192 4 143 4" id="aW"/><g id="P"><use transform="matrix(0.07407407407407407,0,0,0.07407407407407407,0,0)" xlink:href="#aW"/><use transform="matrix(0.07407407407407407,0,0,0.07407407407407407,20.74074074074074,0)" xlink:href="#aV"/><use transform="matrix(0.07407407407407407,0,0,0.07407407407407407,29.555555555555557,0)" xlink:href="#as"/></g><linearGradient gradientUnits="userSpaceOnUse" id="Q" x1="500" y1="1280" x2="500" y2="1160"><stop offset="17.39%" stop-color="#ced4db"/><stop offset="26.45%" stop-color="#fff"/><stop offset="44.57%" stop-color="#fff"/><stop offset="51.81%" stop-color="#cfe4ff"/><stop offset="72.83%" stop-color="#cfe4ff"/><stop offset="83.33%" stop-color="#c3f7c8"/></linearGradient><g id="R"><use transform="matrix(0.07407407407407407,0,0,0.07407407407407407,0,0)" xlink:href="#av"/><use transform="matrix(0.07407407407407407,0,0,0.07407407407407407,17.77777777777778,0)" xlink:href="#aV"/><use transform="matrix(0.07407407407407407,0,0,0.07407407407407407,26.592592592592595,0)" xlink:href="#aG"/></g><path d="M151-194c95 0 34 128 28 194h-49l25-134c0-29-45-25-59-9C67-111 69-48 56 0H6l36-190h47l-4 32c15-20 33-36 66-36" id="aX"/><path d="M45-171c29-32 103-29 114 14 2-11 5-23 8-33h47L176-2c-3 70-92 96-155 64C9 56 1 42-1 25l50-5c2 28 48 27 63 11 13-13 20-45 21-66-13 20-30 35-62 36-87 3-60-134-26-172zM94-35c41-3 55-43 55-86 0-24-12-39-35-39-43 0-51 48-51 90 0 22 9 37 31 35" id="aY"/><g id="S"><use transform="matrix(0.08641975308641976,0,0,0.08641975308641976,0,0)" xlink:href="#af"/><use transform="matrix(0.08641975308641976,0,0,0.08641975308641976,25.83950617283951,0)" xlink:href="#aL"/><use transform="matrix(0.08641975308641976,0,0,0.08641975308641976,43.12345679012346,0)" xlink:href="#aX"/><use transform="matrix(0.08641975308641976,0,0,0.08641975308641976,62.04938271604939,0)" xlink:href="#aL"/><use transform="matrix(0.08641975308641976,0,0,0.08641975308641976,79.33333333333334,0)" xlink:href="#aY"/><use transform="matrix(0.08641975308641976,0,0,0.08641975308641976,98.25925925925927,0)" xlink:href="#ag"/><use transform="matrix(0.08641975308641976,0,0,0.08641975308641976,115.54320987654322,0)" xlink:href="#aN"/></g><g id="T"><use transform="matrix(0.08641975308641976,0,0,0.08641975308641976,0,0)" xlink:href="#aC"/><use transform="matrix(0.08641975308641976,0,0,0.08641975308641976,20.740740740740744,0)" xlink:href="#ai"/><use transform="matrix(0.08641975308641976,0,0,0.08641975308641976,39.66666666666667,0)" xlink:href="#aL"/><use transform="matrix(0.08641975308641976,0,0,0.08641975308641976,56.95061728395062,0)" xlink:href="#az"/><use transform="matrix(0.08641975308641976,0,0,0.08641975308641976,69.0493827160494,0)" xlink:href="#aN"/><use transform="matrix(0.08641975308641976,0,0,0.08641975308641976,87.97530864197532,0)" xlink:href="#ah"/></g><path d="M185-189c-5-48-123-54-124 2 14 75 158 14 163 119 3 78-121 87-175 55-17-10-28-26-33-46l33-7c5 56 141 63 141-1 0-78-155-14-162-118-5-82 145-84 179-34 5 7 8 16 11 25" id="aZ"/><g id="U"><use transform="matrix(0.06790123456790123,0,0,0.06790123456790123,0,0)" xlink:href="#aZ"/><use transform="matrix(0.06790123456790123,0,0,0.06790123456790123,16.296296296296294,0)" xlink:href="#at"/><use transform="matrix(0.06790123456790123,0,0,0.06790123456790123,29.87654320987654,0)" xlink:href="#X"/><use transform="matrix(0.06790123456790123,0,0,0.06790123456790123,43.456790123456784,0)" xlink:href="#an"/><use transform="matrix(0.06790123456790123,0,0,0.06790123456790123,51.53703703703703,0)" xlink:href="#ac"/><use transform="matrix(0.06790123456790123,0,0,0.06790123456790123,65.11728395061728,0)" xlink:href="#al"/><use transform="matrix(0.06790123456790123,0,0,0.06790123456790123,70.48148148148148,0)" xlink:href="#ab"/><use transform="matrix(0.06790123456790123,0,0,0.06790123456790123,84.06172839506172,0)" xlink:href="#ao"/></g><path d="M30-248c87 1 191-15 191 75 0 78-77 80-158 76V0H30v-248zm33 125c57 0 124 11 124-50 0-59-68-47-124-48v98" id="ba"/><path d="M141 0L90-78 38 0H4l68-98-65-92h35l48 74 47-74h35l-64 92 68 98h-35" id="bb"/><path d="M179-190L93 31C79 59 56 82 12 73V49c39 6 53-20 64-50L1-190h34L92-34l54-156h33" id="bc"/><g id="V"><use transform="matrix(0.06790123456790123,0,0,0.06790123456790123,0,0)" xlink:href="#ba"/><use transform="matrix(0.06790123456790123,0,0,0.06790123456790123,16.296296296296294,0)" xlink:href="#an"/><use transform="matrix(0.06790123456790123,0,0,0.06790123456790123,24.37654320987654,0)" xlink:href="#ak"/><use transform="matrix(0.06790123456790123,0,0,0.06790123456790123,37.95679012345679,0)" xlink:href="#bb"/><use transform="matrix(0.06790123456790123,0,0,0.06790123456790123,50.179012345679,0)" xlink:href="#bc"/></g></defs></g></svg>